<?xml version="1.0" encoding="UTF-8"?>
<!DOCTYPE svg PUBLIC "-//W3C//DTD SVG 1.1//EN" "http://www.w3.org/Graphics/SVG/1.1/DTD/svg11.dtd">
<svg xmlns="http://www.w3.org/2000/svg" version="1.1" width="2551px" height="3301px" style="shape-rendering:geometricPrecision; text-rendering:geometricPrecision; image-rendering:optimizeQuality; fill-rule:evenodd; clip-rule:evenodd" xmlns:xlink="http://www.w3.org/1999/xlink">
<g><path style="opacity:0.993" fill="#4f75b2" d="M 1598.5,345.5 C 1600.58,348.65 1602.41,351.984 1604,355.5C 1604.77,360.178 1605.6,364.845 1606.5,369.5C 1606.17,370.5 1605.83,371.5 1605.5,372.5C 1566.59,388.456 1527.59,404.123 1488.5,419.5C 1487.88,419.389 1487.38,419.056 1487,418.5C 1481.98,374.453 1470.65,332.119 1453,291.5C 1424.8,232.164 1380.3,190.164 1319.5,165.5C 1355.28,150.4 1391.28,135.566 1427.5,121C 1428.83,120.333 1430.17,120.333 1431.5,121C 1487.05,195.952 1542.72,270.786 1598.5,345.5 Z"/></g>
<g><path style="opacity:0.998" fill="#4e7cb8" d="M 1319.5,165.5 C 1380.3,190.164 1424.8,232.164 1453,291.5C 1470.65,332.119 1481.98,374.453 1487,418.5C 1487.38,419.056 1487.88,419.389 1488.5,419.5C 1130.34,564.739 772.01,709.739 413.5,854.5C 412.726,853.853 411.726,853.52 410.5,853.5C 359.205,857.901 308.205,855.734 257.5,847C 168.328,829.15 110.161,776.984 83,690.5C 80.9219,682.771 78.7553,675.104 76.5,667.5C 490.449,499.401 904.783,332.068 1319.5,165.5 Z"/></g>
<g><path style="opacity:0.99" fill="#cd1022" d="M 2065.5,247.5 C 2118.26,243.751 2167.93,254.251 2214.5,279C 2279.73,318.965 2307.9,377.132 2299,453.5C 2290.03,488.951 2272.19,519.118 2245.5,544C 2221.8,566.037 2197.8,587.703 2173.5,609C 2159.8,621.019 2147.97,634.519 2138,649.5C 2136.06,653.048 2134.39,656.714 2133,660.5C 2128,679.167 2123,697.833 2118,716.5C 2108.33,736.343 2092.33,745.677 2070,744.5C 2039.27,743.44 2021.27,727.773 2016,697.5C 2011.8,651.929 2024.13,611.596 2053,576.5C 2064.83,563.333 2077.33,550.833 2090.5,539C 2112.26,520.573 2133.43,501.406 2154,481.5C 2164.6,469.886 2172.27,456.553 2177,441.5C 2182.86,398.389 2166.02,367.556 2126.5,349C 2096.74,338.822 2067.07,339.155 2037.5,350C 2021.49,357.675 2008.99,369.175 2000,384.5C 1987.63,405.611 1977.96,427.944 1971,451.5C 1953.66,486.285 1926.83,496.452 1890.5,482C 1861.45,463.216 1851.95,437.049 1862,403.5C 1876.54,349.304 1908.04,308.137 1956.5,280C 1990.41,260.749 2026.74,249.916 2065.5,247.5 Z"/></g>
<g><path style="opacity:0.991" fill="#cd1022" d="M 2415.5,247.5 C 2432.59,245.623 2448.59,248.79 2463.5,257C 2472.51,264.174 2478.68,273.341 2482,284.5C 2488.03,306.412 2490.86,328.745 2490.5,351.5C 2490.06,367.854 2489.23,384.188 2488,400.5C 2480.93,484.894 2473.27,569.227 2465,653.5C 2462.66,669.526 2456.99,684.193 2448,697.5C 2434.2,708.263 2419.03,710.43 2402.5,704C 2392.21,697.606 2385.71,688.439 2383,676.5C 2378.49,660.112 2375.49,643.445 2374,626.5C 2366.9,527.054 2360.74,427.554 2355.5,328C 2353.68,299.075 2364.01,275.742 2386.5,258C 2395.61,252.578 2405.27,249.078 2415.5,247.5 Z"/></g>
<g><path style="opacity:0.996" fill="#4e85bc" d="M 1622.5,447.5 C 1621.18,444.851 1619.84,442.184 1618.5,439.5C 1610.56,442.469 1602.9,445.969 1595.5,450C 1596.87,452.301 1597.53,454.801 1597.5,457.5C 1485.34,502.658 1373.34,547.991 1261.5,593.5C 1256.7,594.487 1252.04,595.987 1247.5,598C 982.947,704.9 718.613,812.066 454.5,919.5C 354.616,959.691 254.783,1000.02 155,1040.5C 145.014,1017.38 135.514,994.044 126.5,970.5C 141.707,963.865 157.04,957.531 172.5,951.5C 252.753,918.971 333.087,886.638 413.5,854.5C 772.01,709.739 1130.34,564.739 1488.5,419.5C 1527.59,404.123 1566.59,388.456 1605.5,372.5C 1605.83,371.5 1606.17,370.5 1606.5,369.5C 1605.6,364.845 1604.77,360.178 1604,355.5C 1602.41,351.984 1600.58,348.65 1598.5,345.5C 1600.37,344.986 1602.2,344.32 1604,343.5C 1604.77,343.645 1605.44,343.978 1606,344.5C 1618.5,375.5 1631,406.5 1643.5,437.5C 1636.75,441.203 1629.75,444.536 1622.5,447.5 Z"/></g>
<g><path style="opacity:0.952" fill="#af4f4f" d="M 1622.5,447.5 C 1648.67,521.864 1657.67,598.197 1649.5,676.5C 1650.77,677.562 1651.94,678.562 1653,679.5C 1654.59,678.273 1655.92,678.606 1657,680.5C 1659.16,679.803 1661.33,680.137 1663.5,681.5C 1664.07,683.078 1664.41,684.578 1664.5,686C 1666.03,686.496 1667.53,686.33 1669,685.5C 1671.02,685.8 1671.52,686.633 1670.5,688C 1674.72,689.361 1678.89,690.861 1683,692.5C 1683.77,692.355 1684.44,692.022 1685,691.5C 1686.39,694.096 1688.73,696.429 1692,698.5C 1693.02,697.313 1694.19,696.313 1695.5,695.5C 1699.21,697.215 1703.21,699.049 1707.5,701C 1709.65,702.818 1709.65,704.318 1707.5,705.5C 1707.81,706.308 1708.31,706.975 1709,707.5C 1709.89,706.289 1710.73,706.289 1711.5,707.5C 1711.29,708.086 1710.96,708.586 1710.5,709C 1712.24,709.651 1713.9,709.485 1715.5,708.5C 1716.6,709.631 1716.27,710.465 1714.5,711C 1716.45,712.835 1718.78,714.001 1721.5,714.5C 1721.29,715.086 1720.96,715.586 1720.5,716C 1721.77,716.309 1722.93,716.809 1724,717.5C 1725.42,715.637 1727.25,715.137 1729.5,716C 1730.15,719.431 1731.48,722.597 1733.5,725.5C 1734.5,724.833 1735.5,724.167 1736.5,723.5C 1738.28,726.056 1739.78,728.722 1741,731.5C 1741.72,728.766 1743.22,728.1 1745.5,729.5C 1745.29,730.086 1744.96,730.586 1744.5,731C 1745.79,731.49 1747.13,731.657 1748.5,731.5C 1748.5,732.5 1748.5,733.5 1748.5,734.5C 1749.68,734.281 1750.68,734.614 1751.5,735.5C 1750.31,736.519 1749.31,737.686 1748.5,739C 1753.44,742.779 1758.11,746.779 1762.5,751C 1762.17,751.333 1761.83,751.667 1761.5,752C 1762.51,754.172 1764.18,755.338 1766.5,755.5C 1766.5,756.5 1766.5,757.5 1766.5,758.5C 1767.5,758.5 1768.5,758.5 1769.5,758.5C 1769.28,759.675 1769.61,760.675 1770.5,761.5C 1771.89,760.355 1773.22,760.355 1774.5,761.5C 1773.62,762.971 1772.29,763.804 1770.5,764C 1773.17,768.832 1777.17,771.999 1782.5,773.5C 1779.23,774.723 1779.23,776.556 1782.5,779C 1784.47,779.495 1786.47,779.662 1788.5,779.5C 1788.5,780.833 1788.5,782.167 1788.5,783.5C 1786.37,783.147 1785.03,783.98 1784.5,786C 1786.35,788.338 1788.68,790.171 1791.5,791.5C 1791.28,792.967 1790.94,794.467 1790.5,796C 1792.81,797.588 1793.47,799.588 1792.5,802C 1795.32,805.301 1797.66,808.968 1799.5,813C 1799.04,813.414 1798.71,813.914 1798.5,814.5C 1799.83,816.833 1801.17,819.167 1802.5,821.5C 1802.29,822.086 1801.96,822.586 1801.5,823C 1802.83,825.667 1804.17,828.333 1805.5,831C 1804.94,831.725 1804.61,832.558 1804.5,833.5C 1805.5,835.5 1806.5,837.5 1807.5,839.5C 1807.24,840.689 1806.91,841.856 1806.5,843C 1808.52,845.059 1810.19,847.393 1811.5,850C 1810.89,852.466 1811.22,854.966 1812.5,857.5C 1811.36,858.425 1811.36,859.259 1812.5,860C 1810.01,860.626 1810.01,861.459 1812.5,862.5C 1812.29,863.086 1811.96,863.586 1811.5,864C 1809.1,864.814 1806.76,864.647 1804.5,863.5C 1808.48,862.506 1808.48,861.506 1804.5,860.5C 1802.95,858.735 1802.61,856.902 1803.5,855C 1801.01,853.513 1798.85,851.679 1797,849.5C 1796.52,848.552 1796.35,847.552 1796.5,846.5C 1798.45,846.807 1800.11,846.807 1801.5,846.5C 1799.17,845.124 1796.83,843.957 1794.5,843C 1793.62,841.644 1793.29,840.144 1793.5,838.5C 1794.98,838.762 1796.31,838.429 1797.5,837.5C 1796.23,835.953 1794.57,834.953 1792.5,834.5C 1789.32,830.106 1787.49,825.439 1787,820.5C 1782.25,819.195 1781.08,816.695 1783.5,813C 1782.43,811.584 1782.43,810.25 1783.5,809C 1781.61,808.027 1779.61,807.36 1777.5,807C 1778.5,806 1779.5,805 1780.5,804C 1779.66,802.989 1779.33,801.822 1779.5,800.5C 1776.99,800.577 1774.99,799.577 1773.5,797.5C 1773.98,796.522 1774.64,795.689 1775.5,795C 1770.71,792.046 1766.38,788.546 1762.5,784.5C 1762.83,783.833 1763.17,783.167 1763.5,782.5C 1761.83,780.5 1760.17,778.5 1758.5,776.5C 1759.95,775.15 1760.62,773.484 1760.5,771.5C 1757.69,771.452 1755.02,770.785 1752.5,769.5C 1750.16,765.827 1747.82,762.161 1745.5,758.5C 1742.72,758.054 1740.22,757.054 1738,755.5C 1737.69,754.258 1738.19,753.258 1739.5,752.5C 1737.83,751.5 1736.5,750.167 1735.5,748.5C 1734.03,747.305 1732.53,747.305 1731,748.5C 1730.5,748.167 1730,747.833 1729.5,747.5C 1730.59,746.391 1730.59,745.391 1729.5,744.5C 1728.23,745.428 1726.9,745.595 1725.5,745C 1724.58,742.959 1724.24,740.792 1724.5,738.5C 1722.44,738.313 1720.44,737.813 1718.5,737C 1718.83,736.667 1719.17,736.333 1719.5,736C 1717.85,734.267 1716.35,732.434 1715,730.5C 1714.43,732.492 1713.26,733.992 1711.5,735C 1712.71,736.113 1712.71,737.28 1711.5,738.5C 1712.24,740.94 1713.57,742.94 1715.5,744.5C 1715.29,745.086 1714.96,745.586 1714.5,746C 1716.9,746.186 1719.23,746.686 1721.5,747.5C 1722.05,750.056 1723.05,752.389 1724.5,754.5C 1723.62,756.912 1723.62,759.579 1724.5,762.5C 1723.5,763.333 1722.5,764.167 1721.5,765C 1722.5,765.833 1723.5,766.667 1724.5,767.5C 1723.81,769.477 1724.14,771.477 1725.5,773.5C 1726.86,772.121 1727.86,772.287 1728.5,774C 1727.86,776.798 1728.53,779.465 1730.5,782C 1729.83,782.667 1729.17,783.333 1728.5,784C 1731.23,787.686 1733.23,791.686 1734.5,796C 1733.95,797.398 1733.62,798.732 1733.5,800C 1734.65,802.616 1735.65,805.282 1736.5,808C 1736.35,811.367 1736.35,814.7 1736.5,818C 1738.38,819.989 1738.72,821.989 1737.5,824C 1739.72,827.531 1741.39,831.364 1742.5,835.5C 1743.37,837.607 1743.37,839.607 1742.5,841.5C 1744.47,844.168 1744.8,847.001 1743.5,850C 1744.31,850.308 1744.97,850.808 1745.5,851.5C 1745.17,852.833 1744.83,854.167 1744.5,855.5C 1743.62,856.251 1742.62,856.751 1741.5,857C 1742.62,857.249 1743.62,857.749 1744.5,858.5C 1744.2,861.286 1744.2,864.119 1744.5,867C 1744.25,868.326 1743.58,869.326 1742.5,870C 1743.43,875.535 1742.76,881.202 1740.5,887C 1743.17,888 1743.17,889 1740.5,890C 1744.11,894.276 1745.28,899.109 1744,904.5C 1745.5,906.667 1747,908.833 1748.5,911C 1747.97,911.692 1747.31,912.192 1746.5,912.5C 1736.24,910.857 1726.24,908.19 1716.5,904.5C 1715.61,903.675 1715.28,902.675 1715.5,901.5C 1711.77,901.146 1708.44,899.813 1705.5,897.5C 1708.11,896.682 1710.77,896.182 1713.5,896C 1698.27,894.078 1697.77,890.578 1712,885.5C 1714.46,882.14 1716.46,878.473 1718,874.5C 1718.61,869.641 1719.11,864.974 1719.5,860.5C 1718.46,858.795 1717.12,857.295 1715.5,856C 1718.74,855.717 1719.08,854.883 1716.5,853.5C 1716.95,851.632 1717.28,849.799 1717.5,848C 1716.83,847.333 1716.17,846.667 1715.5,846C 1716.55,844.612 1716.72,843.112 1716,841.5C 1710.43,848.067 1703.93,853.567 1696.5,858C 1697.69,859.019 1698.69,860.186 1699.5,861.5C 1687.77,862.299 1676.1,863.465 1664.5,865C 1663.74,866.512 1662.74,867.846 1661.5,869C 1662.14,872.475 1661.47,875.808 1659.5,879C 1659.76,880.261 1660.43,881.261 1661.5,882C 1659.56,883.472 1658.56,885.472 1658.5,888C 1659.45,892.078 1659.78,896.411 1659.5,901C 1659.1,902.473 1658.43,903.806 1657.5,905C 1658.96,913.385 1660.96,922.219 1663.5,931.5C 1652.28,929.595 1644.28,923.595 1639.5,913.5C 1637.83,914.667 1636.17,915.833 1634.5,917C 1634.31,923.764 1634.31,930.597 1634.5,937.5C 1627.67,935.39 1621.5,932.057 1616,927.5C 1614.85,925.234 1614.35,922.9 1614.5,920.5C 1617.58,913.343 1618.58,906.176 1617.5,899C 1620.02,897.089 1620.02,895.255 1617.5,893.5C 1618.75,891.958 1618.75,890.458 1617.5,889C 1618.17,888.667 1618.83,888.333 1619.5,888C 1618.48,887.481 1617.82,886.647 1617.5,885.5C 1618.35,883.597 1618.35,881.597 1617.5,879.5C 1616.32,879.719 1615.32,879.386 1614.5,878.5C 1615.5,877.667 1616.5,876.833 1617.5,876C 1613.53,876.143 1611.53,874.309 1611.5,870.5C 1613.39,870.297 1614.89,870.963 1616,872.5C 1615.41,869.085 1613.25,867.085 1609.5,866.5C 1610.39,865.41 1611.39,865.41 1612.5,866.5C 1613.26,865.372 1613.93,864.205 1614.5,863C 1610.53,863.287 1606.53,862.787 1602.5,861.5C 1601.49,861.938 1601.49,862.604 1602.5,863.5C 1601.68,864.386 1600.68,864.719 1599.5,864.5C 1599.05,868.95 1596.72,871.95 1592.5,873.5C 1590.87,879.22 1588.21,884.386 1584.5,889C 1586.06,891.476 1585.4,892.976 1582.5,893.5C 1580.79,892.419 1579.29,891.085 1578,889.5C 1575.76,889.65 1573.6,889.15 1571.5,888C 1573.8,884.879 1573.47,882.546 1570.5,881C 1575.21,881.017 1576.21,879.35 1573.5,876C 1574,874.004 1575,872.337 1576.5,871C 1576.17,870 1575.83,869 1575.5,868C 1577.17,867 1578.83,866 1580.5,865C 1579.98,864.439 1579.64,863.772 1579.5,863C 1580.73,860.316 1582.06,857.816 1583.5,855.5C 1585.94,855.881 1586.61,855.214 1585.5,853.5C 1585.9,851.566 1586.9,850.066 1588.5,849C 1585.96,846.649 1586.62,845.483 1590.5,845.5C 1589.86,843.54 1589.86,841.707 1590.5,840C 1587.77,839.182 1585.11,839.348 1582.5,840.5C 1581.36,841.425 1581.36,842.259 1582.5,843C 1577.77,844.252 1573.77,846.585 1570.5,850C 1568.56,850.813 1566.56,851.313 1564.5,851.5C 1564.64,853.124 1563.97,854.29 1562.5,855C 1562.83,855.333 1563.17,855.667 1563.5,856C 1561.05,856.725 1558.72,857.725 1556.5,859C 1556.17,860 1555.83,861 1555.5,862C 1553.53,862.495 1551.53,862.662 1549.5,862.5C 1549.64,864.124 1548.97,865.29 1547.5,866C 1547.83,866.333 1548.17,866.667 1548.5,867C 1545.7,868.485 1543.03,870.151 1540.5,872C 1541.31,872.308 1541.97,872.808 1542.5,873.5C 1537.13,875.641 1533.8,879.141 1532.5,884C 1535.11,888.548 1534.11,889.382 1529.5,886.5C 1528.13,884.363 1527.13,882.03 1526.5,879.5C 1526.17,880.664 1526.17,881.997 1526.5,883.5C 1524.74,884.754 1523.24,884.421 1522,882.5C 1521.44,880.385 1520.61,878.385 1519.5,876.5C 1519.57,873.7 1519.57,870.867 1519.5,868C 1521.83,865.667 1524.17,863.333 1526.5,861C 1525.67,860.085 1524.67,859.419 1523.5,859C 1526.68,854.484 1531.01,852.151 1536.5,852C 1536.17,851.667 1535.83,851.333 1535.5,851C 1539.55,847.284 1543.88,843.95 1548.5,841C 1543.48,840.107 1538.48,839.107 1533.5,838C 1532.14,836.796 1531.14,835.296 1530.5,833.5C 1524.83,837.335 1519.16,841.169 1513.5,845C 1513.83,845.333 1514.17,845.667 1514.5,846C 1511.06,846.221 1510.72,847.221 1513.5,849C 1511.13,848.638 1508.79,849.305 1506.5,851C 1506.83,851.333 1507.17,851.667 1507.5,852C 1506.5,852.333 1505.5,852.667 1504.5,853C 1505.46,854.147 1505.12,855.147 1503.5,856C 1505.84,858.55 1505.17,859.05 1501.5,857.5C 1501.66,859.631 1500.33,860.631 1497.5,860.5C 1496.36,863.004 1495.69,865.67 1495.5,868.5C 1492.16,867.397 1488.83,866.23 1485.5,865C 1485.83,864.667 1486.17,864.333 1486.5,864C 1482.76,862.332 1482.76,860.999 1486.5,860C 1485.87,858.108 1484.87,856.441 1483.5,855C 1484.5,854.667 1485.5,854.333 1486.5,854C 1486.17,853.667 1485.83,853.333 1485.5,853C 1488.03,851.805 1490.03,849.972 1491.5,847.5C 1493.37,846.087 1495.37,844.92 1497.5,844C 1496.17,843.333 1494.83,842.667 1493.5,842C 1498.53,841.317 1502.86,839.317 1506.5,836C 1506.17,835.667 1505.83,835.333 1505.5,835C 1506.83,834.333 1508.17,833.667 1509.5,833C 1507.9,832.727 1506.4,832.227 1505,831.5C 1479.13,837.423 1452.97,835.923 1426.5,827C 1427.43,826.009 1428.6,825.509 1430,825.5C 1454.77,828.806 1479.6,827.639 1504.5,822C 1512.92,819.29 1520.59,815.29 1527.5,810C 1526.01,807.978 1526.34,806.312 1528.5,805C 1526.18,804.658 1524.02,805.158 1522,806.5C 1526.18,798.632 1532.68,793.465 1541.5,791C 1541.04,790.586 1540.71,790.086 1540.5,789.5C 1542.29,786.366 1543.63,783.033 1544.5,779.5C 1543.69,777.039 1544.19,774.706 1546,772.5C 1546.67,771.167 1546.67,769.833 1546,768.5C 1543.71,771.462 1540.88,773.629 1537.5,775C 1534.5,778.667 1531.5,782.333 1528.5,786C 1527.83,786.667 1527.17,786.667 1526.5,786C 1533.21,774.085 1540.04,762.252 1547,750.5C 1547.72,747.582 1547.22,744.915 1545.5,742.5C 1545.39,740.141 1545.89,737.808 1547,735.5C 1550.1,733.132 1553.1,733.465 1556,736.5C 1558,733.167 1560.67,730.5 1564,728.5C 1566.23,723.035 1569.23,718.035 1573,713.5C 1576.36,701.622 1582.19,691.122 1590.5,682C 1593.4,681.99 1594.07,683.323 1592.5,686C 1593.7,686.903 1594.53,688.069 1595,689.5C 1598.47,685.358 1601.97,681.192 1605.5,677C 1606.45,676.517 1607.45,676.351 1608.5,676.5C 1608.35,675.448 1608.52,674.448 1609,673.5C 1612.7,670.464 1615.7,666.797 1618,662.5C 1620.24,660.719 1622.24,658.719 1624,656.5C 1629.41,588.234 1620.58,521.9 1597.5,457.5C 1597.53,454.801 1596.87,452.301 1595.5,450C 1602.9,445.969 1610.56,442.469 1618.5,439.5C 1619.84,442.184 1621.18,444.851 1622.5,447.5 Z M 1645.5,696.5 C 1648.14,698.154 1647.8,698.654 1644.5,698C 1645.06,697.617 1645.39,697.117 1645.5,696.5 Z M 1654.5,720.5 C 1652.02,720.27 1651.52,719.603 1653,718.5C 1654.03,718.836 1654.53,719.503 1654.5,720.5 Z M 1595.5,720.5 C 1598.03,721.023 1600.36,722.023 1602.5,723.5C 1603.44,723.392 1604.28,723.059 1605,722.5C 1605.61,724.481 1606.61,724.815 1608,723.5C 1608.69,724.025 1609.19,724.692 1609.5,725.5C 1607.19,727.471 1604.86,729.471 1602.5,731.5C 1601.52,731.023 1600.69,730.357 1600,729.5C 1599.67,729.833 1599.33,730.167 1599,730.5C 1598.52,729.552 1598.35,728.552 1598.5,727.5C 1597.13,727.657 1595.79,727.49 1594.5,727C 1595.81,725.605 1595.48,724.605 1593.5,724C 1594.31,722.887 1594.97,721.721 1595.5,720.5 Z M 1656.5,721.5 C 1658.31,722.63 1660.31,723.296 1662.5,723.5C 1662.67,726.797 1662,727.131 1660.5,724.5C 1656.61,726.246 1655.28,725.246 1656.5,721.5 Z M 1708.5,726.5 C 1709.38,726.369 1710.04,726.702 1710.5,727.5C 1709.28,728.614 1707.94,728.781 1706.5,728C 1707.42,727.722 1708.08,727.222 1708.5,726.5 Z M 1667.5,731.5 C 1669.18,732.183 1669.84,733.517 1669.5,735.5C 1671.84,735.992 1673.84,737.159 1675.5,739C 1672.59,742.617 1670.59,742.117 1669.5,737.5C 1667.88,736.846 1666.22,736.346 1664.5,736C 1665.88,734.729 1666.88,733.229 1667.5,731.5 Z M 1748.5,734.5 C 1748.51,737.548 1747.51,738.048 1745.5,736C 1746.53,735.487 1747.53,734.987 1748.5,734.5 Z M 1689.5,742.5 C 1690.94,744.083 1692.6,745.583 1694.5,747C 1693.38,748.613 1693.88,749.78 1696,750.5C 1697.08,755.242 1699.91,758.409 1704.5,760C 1703.17,760.333 1701.83,760.667 1700.5,761C 1701.17,761.333 1701.83,761.667 1702.5,762C 1701.36,762.749 1700.36,762.583 1699.5,761.5C 1698.6,757.766 1696.27,755.599 1692.5,755C 1693.67,753.594 1693.33,752.428 1691.5,751.5C 1689.63,750.376 1687.63,749.543 1685.5,749C 1686.81,747.605 1686.48,746.605 1684.5,746C 1686.32,745.003 1687.99,743.836 1689.5,742.5 Z M 1702.5,765.5 C 1703.39,764.224 1704.39,764.224 1705.5,765.5C 1704.58,766.562 1703.58,766.562 1702.5,765.5 Z M 1677.5,772.5 C 1678.25,771.427 1679.25,771.26 1680.5,772C 1681.82,774.499 1683.82,775.999 1686.5,776.5C 1686.35,777.552 1686.52,778.552 1687,779.5C 1690.48,781.216 1690.98,783.383 1688.5,786C 1690.25,786.471 1691.91,787.138 1693.5,788C 1693.17,789 1692.83,790 1692.5,791C 1693.5,791.333 1694.5,791.667 1695.5,792C 1694.17,792.667 1694.17,793.333 1695.5,794C 1697.02,795.009 1698.69,795.509 1700.5,795.5C 1700.43,798.024 1701.43,800.024 1703.5,801.5C 1702.57,802.768 1702.41,804.101 1703,805.5C 1704.97,806.305 1706.47,807.639 1707.5,809.5C 1705.01,810.541 1705.01,811.374 1707.5,812C 1706.55,812.483 1705.55,812.649 1704.5,812.5C 1705.62,816.283 1705.62,820.117 1704.5,824C 1700.83,825.668 1698.67,828.501 1698,832.5C 1694.84,836.562 1691.51,840.562 1688,844.5C 1687.67,840.305 1686.83,836.305 1685.5,832.5C 1682.2,832.671 1681.87,832.005 1684.5,830.5C 1684.14,827.308 1682.47,825.141 1679.5,824C 1680.29,822.915 1680.96,821.748 1681.5,820.5C 1679.31,817.473 1677.31,814.306 1675.5,811C 1676.17,810.667 1676.83,810.333 1677.5,810C 1676.56,807.619 1676.23,805.119 1676.5,802.5C 1677.98,802.762 1679.31,802.429 1680.5,801.5C 1679.58,799.214 1679.58,796.881 1680.5,794.5C 1678.64,794.539 1677.31,793.706 1676.5,792C 1677.83,790.333 1677.83,788.667 1676.5,787C 1677.36,786.311 1678.02,785.478 1678.5,784.5C 1677.83,782.5 1677.17,780.5 1676.5,778.5C 1679.82,777.091 1680.16,775.091 1677.5,772.5 Z M 1583.5,788.5 C 1583.87,790.958 1585.2,793.125 1587.5,795C 1586.97,796.559 1586.3,798.059 1585.5,799.5C 1586.5,800.167 1587.5,800.833 1588.5,801.5C 1586.7,802.695 1585.7,804.362 1585.5,806.5C 1583.8,806.66 1582.13,806.494 1580.5,806C 1579.36,805.259 1579.36,804.425 1580.5,803.5C 1578.15,802.226 1578.32,800.893 1581,799.5C 1582.66,795.756 1583.5,792.09 1583.5,788.5 Z M 1575.5,819.5 C 1575.08,818.778 1574.42,818.278 1573.5,818C 1574.93,817.535 1576.1,816.701 1577,815.5C 1578.9,817.488 1578.4,818.822 1575.5,819.5 Z M 1512.5,824.5 C 1517.08,822.551 1521.74,820.551 1526.5,818.5C 1526.83,818.833 1527.17,819.167 1527.5,819.5C 1522.96,822.552 1517.96,824.219 1512.5,824.5 Z M 1543.5,828.5 C 1544.38,828.369 1545.04,828.702 1545.5,829.5C 1541.7,836.033 1541.03,835.7 1543.5,828.5 Z"/></g>
<g><path style="opacity:0.998" fill="#4e76b2" d="M 1261.5,593.5 C 1290.3,665.889 1319.3,738.223 1348.5,810.5C 1347.35,814.488 1345.52,818.155 1343,821.5C 1339.63,824.703 1336.46,828.036 1333.5,831.5C 1324.04,838.404 1314.37,845.07 1304.5,851.5C 1298.38,803.092 1277.38,762.592 1241.5,730C 1230.64,721.403 1218.98,714.07 1206.5,708C 1191.95,708.147 1177.61,710.147 1163.5,714C 1088.24,733.864 1014.24,757.531 941.5,785C 785.094,844.078 630.094,906.578 476.5,972.5C 468.928,955.011 461.595,937.345 454.5,919.5C 718.613,812.066 982.947,704.9 1247.5,598C 1252.04,595.987 1256.7,594.487 1261.5,593.5 Z"/></g>
<g><path style="opacity:0.995" fill="#4f75b2" d="M 76.5,667.5 C 78.7553,675.104 80.9219,682.771 83,690.5C 110.161,776.984 168.328,829.15 257.5,847C 308.205,855.734 359.205,857.901 410.5,853.5C 411.726,853.52 412.726,853.853 413.5,854.5C 333.087,886.638 252.753,918.971 172.5,951.5C 164.915,949.881 157.582,947.381 150.5,944C 138.992,938.745 127.658,933.245 116.5,927.5C 97.629,843.146 78.629,758.813 59.5,674.5C 64.9147,671.583 70.5813,669.25 76.5,667.5 Z"/></g>
<g><path style="opacity:0.999" fill="#4f7cb7" d="M 1304.5,851.5 C 1285.06,864.395 1265.06,876.561 1244.5,888C 1060.62,984.434 868.952,1061.77 669.5,1120C 650.048,1124.95 630.715,1129.79 611.5,1134.5C 595.474,1137.57 579.308,1139.57 563,1140.5C 558.111,1140.49 553.277,1139.99 548.5,1139C 545.966,1138.48 543.8,1137.32 542,1135.5C 519.668,1081.33 497.835,1027 476.5,972.5C 630.094,906.578 785.094,844.078 941.5,785C 1014.24,757.531 1088.24,733.864 1163.5,714C 1177.61,710.147 1191.95,708.147 1206.5,708C 1218.98,714.07 1230.64,721.403 1241.5,730C 1277.38,762.592 1298.38,803.092 1304.5,851.5 Z"/></g>
<g><path style="opacity:0.986" fill="#cd1022" d="M 2069.5,783.5 C 2106.69,783.21 2130.19,800.877 2140,836.5C 2145.93,879.169 2128.1,905.669 2086.5,916C 2056.04,920.011 2032.21,909.511 2015,884.5C 2006.26,864.901 2005.26,844.901 2012,824.5C 2023.42,799.882 2042.58,786.216 2069.5,783.5 Z"/></g>
<g><path style="opacity:0.986" fill="#cd1022" d="M 2417.5,783.5 C 2450.85,783.048 2474.01,798.048 2487,828.5C 2493.41,850.92 2490.41,871.92 2478,891.5C 2455.4,915.942 2428.23,922.775 2396.5,912C 2364.5,897.42 2351.33,872.587 2357,837.5C 2365.14,805.857 2385.3,787.857 2417.5,783.5 Z"/></g>
<g><path style="opacity:0.999" fill="#9899a5" d="M 1333.5,831.5 C 1343.17,854.177 1352.84,876.844 1362.5,899.5C 1277.5,952.178 1189.5,1000.01 1098.5,1043C 1047.6,1066.61 995.27,1086.61 941.5,1103C 839.833,1134.73 737.5,1163.89 634.5,1190.5C 626.852,1171.9 619.185,1153.24 611.5,1134.5C 630.715,1129.79 650.048,1124.95 669.5,1120C 868.952,1061.77 1060.62,984.434 1244.5,888C 1265.06,876.561 1285.06,864.395 1304.5,851.5C 1314.37,845.07 1324.04,838.404 1333.5,831.5 Z"/></g>
<g><path style="opacity:0.344" fill="#af4f4e" d="M 1613.5,882.5 C 1614.68,882.281 1615.68,882.614 1616.5,883.5C 1614.95,884.798 1613.95,884.465 1613.5,882.5 Z"/></g>
<g><path style="opacity:0.999" fill="#a5a5a4" d="M 1362.5,899.5 C 1371.9,918.304 1380.23,937.638 1387.5,957.5C 1340.82,1007.31 1286.15,1046.14 1223.5,1074C 1206.86,1081.48 1190.19,1088.65 1173.5,1095.5C 1079.9,1129.81 985.896,1163.15 891.5,1195.5C 839.548,1212.07 786.548,1223.74 732.5,1230.5C 705.196,1232.15 677.863,1232.82 650.5,1232.5C 644.972,1218.58 639.638,1204.58 634.5,1190.5C 737.5,1163.89 839.833,1134.73 941.5,1103C 995.27,1086.61 1047.6,1066.61 1098.5,1043C 1189.5,1000.01 1277.5,952.178 1362.5,899.5 Z"/></g>
<g><path style="opacity:0.992" fill="#4e7cb8" d="M 116.5,927.5 C 127.658,933.245 138.992,938.745 150.5,944C 157.582,947.381 164.915,949.881 172.5,951.5C 157.04,957.531 141.707,963.865 126.5,970.5C 122.9,962.554 119.566,954.387 116.5,946C 118.328,944.837 119.328,943.17 119.5,941C 118.433,936.496 117.433,931.996 116.5,927.5 Z"/></g>
<g><path style="opacity:0.998" fill="#9b471f" d="M 1387.5,957.5 C 1454.26,1132.71 1519.1,1308.71 1582,1485.5C 1633.1,1631.92 1676.44,1780.59 1712,1931.5C 1753.98,2114.36 1778.48,2299.53 1785.5,2487C 1784.72,2490.74 1783.05,2493.9 1780.5,2496.5C 1772.85,2502.33 1764.52,2507.16 1755.5,2511C 1724.42,2522.35 1692.76,2531.69 1660.5,2539C 1636.16,2543.9 1611.82,2548.74 1587.5,2553.5C 1587.95,2539.75 1587.11,2526.08 1585,2512.5C 1548.1,2322 1506.1,2132.66 1459,1944.5C 1432.3,1839.83 1403.13,1735.83 1371.5,1632.5C 1390.38,1594.27 1397.21,1553.94 1392,1511.5C 1386.67,1466.14 1369.34,1426.14 1340,1391.5C 1323.63,1373.3 1303.46,1361.64 1279.5,1356.5C 1247.66,1267.95 1212.32,1180.95 1173.5,1095.5C 1190.19,1088.65 1206.86,1081.48 1223.5,1074C 1286.15,1046.14 1340.82,1007.31 1387.5,957.5 Z"/></g>
<g><path style="opacity:1" fill="#e66117" d="M 1173.5,1095.5 C 1212.32,1180.95 1247.66,1267.95 1279.5,1356.5C 1248.44,1353.11 1222.94,1363.45 1203,1387.5C 1183.33,1413.83 1172.33,1443.49 1170,1476.5C 1166.24,1522.72 1174.91,1566.39 1196,1607.5C 1207.85,1630.02 1224.02,1648.85 1244.5,1664C 1269.56,1681.67 1296.56,1685.34 1325.5,1675C 1344.87,1665.13 1360.2,1650.96 1371.5,1632.5C 1403.13,1735.83 1432.3,1839.83 1459,1944.5C 1506.1,2132.66 1548.1,2322 1585,2512.5C 1587.11,2526.08 1587.95,2539.75 1587.5,2553.5C 1580.78,2554.71 1574.11,2556.04 1567.5,2557.5C 1522.36,2565.25 1477.03,2571.75 1431.5,2577C 1386.86,2580.26 1342.19,2583.09 1297.5,2585.5C 1296.17,2585.5 1294.83,2585.5 1293.5,2585.5C 1261.89,2417.46 1225.56,2250.46 1184.5,2084.5C 1231.55,2103.95 1272.05,2094.61 1306,2056.5C 1311.34,2049.82 1316.17,2042.82 1320.5,2035.5C 1343.25,1991.88 1348.42,1946.21 1336,1898.5C 1328.34,1872.66 1315.17,1850.16 1296.5,1831C 1293.29,1828.28 1289.96,1825.78 1286.5,1823.5C 1261.15,1803.92 1232.82,1798.09 1201.5,1806C 1168.39,1818.28 1144.39,1840.44 1129.5,1872.5C 1114.37,1819.58 1098.87,1766.58 1083,1713.5C 1077.27,1694.22 1071.11,1675.22 1064.5,1656.5C 1086.38,1591.52 1078.88,1530.18 1042,1472.5C 1027.88,1451.54 1009.38,1435.88 986.5,1425.5C 958.148,1347.46 926.481,1270.8 891.5,1195.5C 985.896,1163.15 1079.9,1129.81 1173.5,1095.5 Z"/></g>
<g><path style="opacity:1" fill="#e67217" d="M 891.5,1195.5 C 926.481,1270.8 958.148,1347.46 986.5,1425.5C 944.304,1410.84 909.471,1421.17 882,1456.5C 875.204,1465.76 869.704,1475.76 865.5,1486.5C 863.864,1485.25 862.697,1483.58 862,1481.5C 848.56,1448.68 834.06,1416.34 818.5,1384.5C 831.24,1368.93 845.74,1355.26 862,1343.5C 866.204,1335.98 865.037,1329.48 858.5,1324C 854.903,1322.72 851.236,1322.39 847.5,1323C 832.933,1334.73 819.933,1347.9 808.5,1362.5C 794.203,1335.24 779.369,1308.24 764,1281.5C 753.478,1264.44 742.978,1247.44 732.5,1230.5C 786.548,1223.74 839.548,1212.07 891.5,1195.5 Z"/></g>
<g><path style="opacity:1" fill="#030100" d="M 1262.5,1207.5 C 1268.17,1207.11 1273.5,1208.28 1278.5,1211C 1328.01,1233.18 1368.51,1266.35 1400,1310.5C 1425.83,1347.82 1445.49,1388.15 1459,1431.5C 1436.05,1374.39 1401.88,1325.22 1356.5,1284C 1327.44,1259.79 1294.77,1241.79 1258.5,1230C 1252.14,1221.04 1253.47,1213.54 1262.5,1207.5 Z"/></g>
<g><path style="opacity:0.993" fill="#e06e18" d="M 732.5,1230.5 C 742.978,1247.44 753.478,1264.44 764,1281.5C 779.369,1308.24 794.203,1335.24 808.5,1362.5C 782.37,1396.76 763.704,1434.76 752.5,1476.5C 719.495,1394.84 685.495,1313.5 650.5,1232.5C 677.863,1232.82 705.196,1232.15 732.5,1230.5 Z"/></g>
<g><path style="opacity:0.977" fill="#030100" d="M 818.5,1384.5 C 791.792,1415.23 772.292,1450.23 760,1489.5C 759.505,1491.47 759.338,1493.47 759.5,1495.5C 748.923,1530.28 742.423,1565.95 740,1602.5C 738.162,1559.88 742.328,1517.88 752.5,1476.5C 763.704,1434.76 782.37,1396.76 808.5,1362.5C 819.933,1347.9 832.933,1334.73 847.5,1323C 851.236,1322.39 854.903,1322.72 858.5,1324C 865.037,1329.48 866.204,1335.98 862,1343.5C 845.74,1355.26 831.24,1368.93 818.5,1384.5 Z"/></g>
<g><path style="opacity:1" fill="#fefefe" d="M 1279.5,1356.5 C 1303.46,1361.64 1323.63,1373.3 1340,1391.5C 1369.34,1426.14 1386.67,1466.14 1392,1511.5C 1397.21,1553.94 1390.38,1594.27 1371.5,1632.5C 1360.2,1650.96 1344.87,1665.13 1325.5,1675C 1296.56,1685.34 1269.56,1681.67 1244.5,1664C 1224.02,1648.85 1207.85,1630.02 1196,1607.5C 1174.91,1566.39 1166.24,1522.72 1170,1476.5C 1172.33,1443.49 1183.33,1413.83 1203,1387.5C 1222.94,1363.45 1248.44,1353.11 1279.5,1356.5 Z"/></g>
<g><path style="opacity:0.995" fill="#e06f18" d="M 818.5,1384.5 C 834.06,1416.34 848.56,1448.68 862,1481.5C 862.697,1483.58 863.864,1485.25 865.5,1486.5C 856.617,1507.92 852.617,1530.25 853.5,1553.5C 853.124,1602.21 867.957,1645.54 898,1683.5C 912.568,1700.18 930.068,1712.52 950.5,1720.5C 993.807,1858.72 1031.97,1998.39 1065,2139.5C 1084.78,2233.59 1098.11,2328.59 1105,2424.5C 1107.96,2479.63 1106.46,2534.63 1100.5,2589.5C 1081.89,2589.09 1063.89,2585.76 1046.5,2579.5C 1042.4,2577.98 1040.23,2574.98 1040,2570.5C 996.947,2249.63 920.614,1936.96 811,1632.5C 794.121,1586.69 776.954,1541.03 759.5,1495.5C 759.338,1493.47 759.505,1491.47 760,1489.5C 772.292,1450.23 791.792,1415.23 818.5,1384.5 Z"/></g>
<g><path style="opacity:1" fill="#fefefe" d="M 986.5,1425.5 C 1009.38,1435.88 1027.88,1451.54 1042,1472.5C 1078.88,1530.18 1086.38,1591.52 1064.5,1656.5C 1054.89,1679.28 1039.89,1697.78 1019.5,1712C 997.669,1724.02 974.669,1726.85 950.5,1720.5C 930.068,1712.52 912.568,1700.18 898,1683.5C 867.957,1645.54 853.124,1602.21 853.5,1553.5C 852.617,1530.25 856.617,1507.92 865.5,1486.5C 869.704,1475.76 875.204,1465.76 882,1456.5C 909.471,1421.17 944.304,1410.84 986.5,1425.5 Z"/></g>
<g><path style="opacity:1" fill="#030303" d="M 1235.5,1532.5 C 1238.52,1532.34 1241.52,1532.5 1244.5,1533C 1238.84,1540.23 1238.01,1548.06 1242,1556.5C 1247.36,1563.08 1254.19,1565.25 1262.5,1563C 1268.43,1560.23 1272.43,1555.73 1274.5,1549.5C 1285.85,1569.11 1283.19,1586.61 1266.5,1602C 1252.73,1610.78 1238.4,1611.78 1223.5,1605C 1208.26,1594.98 1202.09,1580.81 1205,1562.5C 1209.75,1546.91 1219.92,1536.91 1235.5,1532.5 Z"/></g>
<g><path style="opacity:1" fill="#020202" d="M 931.5,1609.5 C 934.85,1609.33 938.183,1609.5 941.5,1610C 933.148,1619.88 933.815,1629.22 943.5,1638C 956.563,1643.32 965.73,1639.48 971,1626.5C 973.878,1630.05 975.878,1634.05 977,1638.5C 980.121,1655.57 974.954,1669.4 961.5,1680C 940.323,1691.36 922.156,1687.86 907,1669.5C 894.477,1640.89 902.644,1620.89 931.5,1609.5 Z"/></g>
<g><path style="opacity:1" fill="#e67217" d="M 1064.5,1656.5 C 1071.11,1675.22 1077.27,1694.22 1083,1713.5C 1098.87,1766.58 1114.37,1819.58 1129.5,1872.5C 1127.72,1874.83 1126.72,1877.5 1126.5,1880.5C 1119.87,1894.33 1115.7,1909 1114,1924.5C 1108.28,1971.94 1119.28,2014.94 1147,2053.5C 1151.71,2059.71 1157.21,2065.04 1163.5,2069.5C 1169.64,2075.63 1176.64,2080.63 1184.5,2084.5C 1225.56,2250.46 1261.89,2417.46 1293.5,2585.5C 1294.83,2585.5 1296.17,2585.5 1297.5,2585.5C 1296.79,2586.4 1295.79,2586.74 1294.5,2586.5C 1262.17,2587.92 1229.83,2589.42 1197.5,2591C 1165.12,2592 1132.78,2591.5 1100.5,2589.5C 1106.46,2534.63 1107.96,2479.63 1105,2424.5C 1098.11,2328.59 1084.78,2233.59 1065,2139.5C 1031.97,1998.39 993.807,1858.72 950.5,1720.5C 974.669,1726.85 997.669,1724.02 1019.5,1712C 1039.89,1697.78 1054.89,1679.28 1064.5,1656.5 Z"/></g>
<g><path style="opacity:1" fill="#f4f0e7" d="M 1286.5,1823.5 C 1286.5,1840.5 1286.5,1857.5 1286.5,1874.5C 1238.42,1882.27 1190.42,1890.61 1142.5,1899.5C 1141.23,1899.43 1140.06,1899.1 1139,1898.5C 1135.06,1892.26 1130.89,1886.26 1126.5,1880.5C 1126.72,1877.5 1127.72,1874.83 1129.5,1872.5C 1144.39,1840.44 1168.39,1818.28 1201.5,1806C 1232.82,1798.09 1261.15,1803.92 1286.5,1823.5 Z"/></g>
<g><path style="opacity:1" fill="#72324f" d="M 1286.5,1823.5 C 1289.96,1825.78 1293.29,1828.28 1296.5,1831C 1315.17,1850.16 1328.34,1872.66 1336,1898.5C 1348.42,1946.21 1343.25,1991.88 1320.5,2035.5C 1289.05,2013.18 1255.05,2008.68 1218.5,2022C 1195.05,2031.95 1176.72,2047.79 1163.5,2069.5C 1157.21,2065.04 1151.71,2059.71 1147,2053.5C 1119.28,2014.94 1108.28,1971.94 1114,1924.5C 1115.7,1909 1119.87,1894.33 1126.5,1880.5C 1130.89,1886.26 1135.06,1892.26 1139,1898.5C 1140.06,1899.1 1141.23,1899.43 1142.5,1899.5C 1190.42,1890.61 1238.42,1882.27 1286.5,1874.5C 1286.5,1857.5 1286.5,1840.5 1286.5,1823.5 Z"/></g>
<g><path style="opacity:1" fill="#c1000c" d="M 1320.5,2035.5 C 1316.17,2042.82 1311.34,2049.82 1306,2056.5C 1272.05,2094.61 1231.55,2103.95 1184.5,2084.5C 1176.64,2080.63 1169.64,2075.63 1163.5,2069.5C 1176.72,2047.79 1195.05,2031.95 1218.5,2022C 1255.05,2008.68 1289.05,2013.18 1320.5,2035.5 Z"/></g>
<g><path style="opacity:0.994" fill="#ebddc0" d="M 1780.5,2496.5 C 1737.8,2591.24 1695.63,2686.24 1654,2781.5C 1609.45,2883.55 1559.78,2982.88 1505,3079.5C 1500.64,3087.57 1495.81,3095.24 1490.5,3102.5C 1499.95,3082.27 1509.95,3062.27 1520.5,3042.5C 1492.67,3041.83 1465,3041.17 1437.5,3040.5C 1451.5,3040.5 1465.5,3040.5 1479.5,3040.5C 1485.49,3004.02 1492.33,2967.69 1500,2931.5C 1518.32,2848.9 1536.32,2766.24 1554,2683.5C 1558.23,2641.47 1562.73,2599.47 1567.5,2557.5C 1574.11,2556.04 1580.78,2554.71 1587.5,2553.5C 1611.82,2548.74 1636.16,2543.9 1660.5,2539C 1692.76,2531.69 1724.42,2522.35 1755.5,2511C 1764.52,2507.16 1772.85,2502.33 1780.5,2496.5 Z"/></g>
<g><path style="opacity:0.999" fill="#f7ddb7" d="M 1567.5,2557.5 C 1562.73,2599.47 1558.23,2641.47 1554,2683.5C 1536.32,2766.24 1518.32,2848.9 1500,2931.5C 1492.33,2967.69 1485.49,3004.02 1479.5,3040.5C 1465.5,3040.5 1451.5,3040.5 1437.5,3040.5C 1415.16,3040.17 1392.82,3040.5 1370.5,3041.5C 1374.1,3048.97 1377.1,3056.63 1379.5,3064.5C 1343.32,3006.65 1306.32,2949.32 1268.5,2892.5C 1279.58,2790.86 1288.25,2688.86 1294.5,2586.5C 1295.79,2586.74 1296.79,2586.4 1297.5,2585.5C 1342.19,2583.09 1386.86,2580.26 1431.5,2577C 1477.03,2571.75 1522.36,2565.25 1567.5,2557.5 Z"/></g>
<g><path style="opacity:0.995" fill="#f8e4b6" d="M 1046.5,2579.5 C 1063.89,2585.76 1081.89,2589.09 1100.5,2589.5C 1132.78,2591.5 1165.12,2592 1197.5,2591C 1229.83,2589.42 1262.17,2587.92 1294.5,2586.5C 1288.25,2688.86 1279.58,2790.86 1268.5,2892.5C 1197.58,2785.93 1123.58,2681.59 1046.5,2579.5 Z"/></g>
<g><path style="opacity:0.991" fill="#000000" d="M 1437.5,3040.5 C 1465,3041.17 1492.67,3041.83 1520.5,3042.5C 1509.95,3062.27 1499.95,3082.27 1490.5,3102.5C 1479.3,3126.57 1466.8,3149.91 1453,3172.5C 1442.68,3182.25 1433.02,3181.59 1424,3170.5C 1413.39,3151.95 1404.39,3132.62 1397,3112.5C 1391.26,3096.44 1385.42,3080.44 1379.5,3064.5C 1377.1,3056.63 1374.1,3048.97 1370.5,3041.5C 1392.82,3040.5 1415.16,3040.17 1437.5,3040.5 Z"/></g>
</svg>
