<?xml version="1.0" encoding="UTF-8"?>
<!DOCTYPE svg PUBLIC "-//W3C//DTD SVG 1.1//EN" "http://www.w3.org/Graphics/SVG/1.1/DTD/svg11.dtd">
<svg xmlns="http://www.w3.org/2000/svg" version="1.1" width="2551px" height="3301px" style="shape-rendering:geometricPrecision; text-rendering:geometricPrecision; image-rendering:optimizeQuality; fill-rule:evenodd; clip-rule:evenodd" xmlns:xlink="http://www.w3.org/1999/xlink">
<g><path style="opacity:0.993" fill="#4f75b2" d="M 1959.5,358.5 C 1959.98,361.455 1961.48,363.789 1964,365.5C 1965.06,371.522 1966.23,377.522 1967.5,383.5C 1967.17,384.167 1966.83,384.833 1966.5,385.5C 1927.22,401.703 1887.88,417.703 1848.5,433.5C 1844.59,404.484 1838.43,375.817 1830,347.5C 1806.32,267.332 1756.15,210.998 1679.5,178.5C 1716.52,163.214 1753.68,148.214 1791,133.5C 1847.39,208.382 1903.56,283.382 1959.5,358.5 Z"/></g>
<g><path style="opacity:0.998" fill="#4e7cb8" d="M 1679.5,178.5 C 1756.15,210.998 1806.32,267.332 1830,347.5C 1838.43,375.817 1844.59,404.484 1848.5,433.5C 1489.9,578.481 1131.24,723.481 772.5,868.5C 770.19,867.836 767.69,867.503 765,867.5C 716.889,871.369 669.056,869.203 621.5,861C 521.034,840.701 459.701,780.534 437.5,680.5C 851.415,512.972 1265.42,345.639 1679.5,178.5 Z"/></g>
<g><path style="opacity:0.997" fill="#4e85bc" d="M 1976.5,463.5 C 1967.77,466.037 1959.44,469.371 1951.5,473.5C 1841.5,517.833 1731.5,562.167 1621.5,606.5C 1352.52,714.6 1083.85,823.267 815.5,932.5C 715.631,972.682 615.798,1013.02 516,1053.5C 505.501,1030.52 495.668,1007.19 486.5,983.5C 501.501,977.658 516.501,971.658 531.5,965.5C 611.753,932.971 692.087,900.638 772.5,868.5C 1131.24,723.481 1489.9,578.481 1848.5,433.5C 1887.88,417.703 1927.22,401.703 1966.5,385.5C 1966.83,384.833 1967.17,384.167 1967.5,383.5C 1966.23,377.522 1965.06,371.522 1964,365.5C 1961.48,363.789 1959.98,361.455 1959.5,358.5C 1961.55,358.039 1963.55,357.372 1965.5,356.5C 1978.69,388.076 1991.69,419.743 2004.5,451.5C 1995.15,455.51 1985.82,459.51 1976.5,463.5 Z"/></g>
<g><path style="opacity:0.952" fill="#af4f4f" d="M 1976.5,463.5 C 1991.46,516.814 1997.96,571.147 1996,626.5C 1995.43,638.072 1994.27,649.572 1992.5,661C 1994.01,662.838 1995.51,664.671 1997,666.5C 1997.67,665.833 1998.33,665.167 1999,664.5C 2001.17,666.121 2003.67,666.955 2006.5,667C 2008.66,668.312 2008.99,669.978 2007.5,672C 2009.79,673.877 2011.79,673.71 2013.5,671.5C 2015.49,672.289 2015.82,673.455 2014.5,675C 2018.84,676.256 2023.01,677.756 2027,679.5C 2027.41,679.043 2027.91,678.709 2028.5,678.5C 2030.83,679.996 2032.83,681.83 2034.5,684C 2036.58,684.529 2038.42,684.029 2040,682.5C 2044.22,684.362 2048.39,686.362 2052.5,688.5C 2052.83,689.167 2053.17,689.833 2053.5,690.5C 2048.77,692.278 2049.43,693.278 2055.5,693.5C 2055.28,694.675 2055.61,695.675 2056.5,696.5C 2059.43,694.822 2060.43,695.322 2059.5,698C 2059.63,699.059 2060.13,699.892 2061,700.5C 2062.05,699.483 2063.22,699.316 2064.5,700C 2065.67,701.5 2066.83,703 2068,704.5C 2068.93,702.455 2070.43,701.621 2072.5,702C 2073.97,704.243 2074.97,706.743 2075.5,709.5C 2076.85,711.636 2078.52,711.97 2080.5,710.5C 2082.21,712.708 2083.71,715.041 2085,717.5C 2086.07,715.717 2087.57,715.217 2089.5,716C 2088.83,716.667 2088.17,717.333 2087.5,718C 2090.26,718.674 2092.93,719.507 2095.5,720.5C 2095.52,722.143 2094.85,723.476 2093.5,724.5C 2094.1,725.795 2094.6,727.128 2095,728.5C 2098.67,731.922 2102.51,735.089 2106.5,738C 2106.17,738.333 2105.83,738.667 2105.5,739C 2107.82,740.782 2109.48,742.949 2110.5,745.5C 2111.5,745.5 2112.5,745.5 2113.5,745.5C 2113.28,746.675 2113.61,747.675 2114.5,748.5C 2115.89,747.355 2117.22,747.355 2118.5,748.5C 2116.52,750.264 2116.19,752.264 2117.5,754.5C 2119.89,757.4 2122.89,759.233 2126.5,760C 2125.67,760.915 2124.67,761.581 2123.5,762C 2125.05,763.214 2126.22,764.714 2127,766.5C 2131.56,764.561 2133.06,765.894 2131.5,770.5C 2130.55,769.674 2129.55,769.508 2128.5,770C 2129.64,770.741 2129.64,771.575 2128.5,772.5C 2130.3,775.04 2132.63,777.04 2135.5,778.5C 2135.29,779.086 2134.96,779.586 2134.5,780C 2136.48,784.79 2138.15,789.623 2139.5,794.5C 2140.55,794.351 2141.55,794.517 2142.5,795C 2142.69,797.097 2142.69,799.263 2142.5,801.5C 2143.98,803.765 2145.31,806.099 2146.5,808.5C 2145.28,809.803 2145.62,810.803 2147.5,811.5C 2146.79,813.892 2147.46,816.059 2149.5,818C 2148.45,819.388 2148.28,820.888 2149,822.5C 2151.56,824.393 2152.06,826.727 2150.5,829.5C 2152.29,831.576 2153.95,833.743 2155.5,836C 2154.98,836.561 2154.64,837.228 2154.5,838C 2155.98,841.857 2156.64,845.69 2156.5,849.5C 2154.07,851.571 2151.4,851.904 2148.5,850.5C 2152.44,848.596 2152.11,847.596 2147.5,847.5C 2146.75,845.416 2146.75,843.416 2147.5,841.5C 2145.19,840.025 2143.02,838.358 2141,836.5C 2140.52,835.552 2140.35,834.552 2140.5,833.5C 2142.17,833.5 2143.83,833.5 2145.5,833.5C 2143.43,832.625 2141.43,831.459 2139.5,830C 2137.96,828.89 2137.3,827.39 2137.5,825.5C 2138.83,825.5 2140.17,825.5 2141.5,825.5C 2141.5,824.5 2141.5,823.5 2141.5,822.5C 2140.13,822.657 2138.79,822.49 2137.5,822C 2137.13,819.532 2135.63,817.365 2133,815.5C 2132.59,812.768 2131.92,810.101 2131,807.5C 2129.17,806.339 2127.67,804.839 2126.5,803C 2127.38,800.527 2127.72,798.193 2127.5,796C 2125.71,794.837 2123.71,794.17 2121.5,794C 2122.38,792.415 2123.71,791.415 2125.5,791C 2123.09,788.715 2120.59,786.549 2118,784.5C 2117.54,783.256 2118.04,782.423 2119.5,782C 2114.85,778.687 2110.52,775.02 2106.5,771C 2107.69,768.222 2106.69,766.722 2103.5,766.5C 2103.58,765.07 2103.25,763.736 2102.5,762.5C 2103.85,761.476 2104.52,760.143 2104.5,758.5C 2101.58,758.54 2098.91,757.707 2096.5,756C 2095.17,755 2095.17,754 2096.5,753C 2094.11,752.716 2093.45,751.716 2094.5,750C 2091.95,749.249 2090.28,747.582 2089.5,745C 2088.05,743.483 2086.55,743.316 2085,744.5C 2081.93,742.927 2081.43,741.093 2083.5,739C 2080.9,735.864 2077.56,734.031 2073.5,733.5C 2074.85,729.89 2074.18,729.557 2071.5,732.5C 2068.91,730.929 2067.91,728.596 2068.5,725.5C 2066.44,725.313 2064.44,724.813 2062.5,724C 2062.62,722.732 2062.95,721.398 2063.5,720C 2061.6,719.801 2060.1,718.967 2059,717.5C 2058.17,719.667 2056.67,721.167 2054.5,722C 2056.81,722.354 2057.14,723.354 2055.5,725C 2057.02,727.843 2058.52,730.677 2060,733.5C 2061.87,732.328 2063.7,732.495 2065.5,734C 2066.05,736.367 2067.05,738.533 2068.5,740.5C 2068.45,743.366 2068.45,746.199 2068.5,749C 2067.67,749.915 2066.67,750.581 2065.5,751C 2066.73,751.779 2067.73,752.779 2068.5,754C 2067.85,755.69 2067.85,757.523 2068.5,759.5C 2069.83,759.5 2071.17,759.5 2072.5,759.5C 2071.53,762.658 2072.2,765.658 2074.5,768.5C 2073.52,770.098 2073.35,771.765 2074,773.5C 2075.76,776.539 2077.26,779.706 2078.5,783C 2077.36,783.741 2077.36,784.575 2078.5,785.5C 2077.97,786.192 2077.31,786.692 2076.5,787C 2078.79,788.917 2080.12,791.417 2080.5,794.5C 2080.07,795.293 2079.74,796.127 2079.5,797C 2081.29,804.891 2083.62,812.891 2086.5,821C 2085.5,822.766 2085.83,824.433 2087.5,826C 2086.94,826.725 2086.61,827.558 2086.5,828.5C 2088.52,833.286 2089.52,838.286 2089.5,843.5C 2088.45,843.351 2087.45,843.517 2086.5,844C 2087.58,844.674 2088.25,845.674 2088.5,847C 2087.31,849.189 2087.31,851.356 2088.5,853.5C 2088.47,855.029 2087.8,856.196 2086.5,857C 2087.78,860.258 2087.78,863.425 2086.5,866.5C 2084.72,869.047 2084.72,871.88 2086.5,875C 2085.69,875.308 2085.03,875.808 2084.5,876.5C 2086.64,878.57 2087.98,881.07 2088.5,884C 2087.77,886.154 2087.61,888.654 2088,891.5C 2094.35,898.345 2092.51,900.512 2082.5,898C 2074.96,896.281 2067.62,893.948 2060.5,891C 2059.17,890.333 2059.17,889.667 2060.5,889C 2056.45,888.078 2052.78,886.411 2049.5,884C 2050.95,882.883 2052.62,882.216 2054.5,882C 2050.99,881.881 2047.99,880.714 2045.5,878.5C 2045.98,877.522 2046.64,876.689 2047.5,876C 2050.35,874.829 2053.18,873.662 2056,872.5C 2058.28,868.118 2060.78,863.952 2063.5,860C 2062.63,855.563 2062.63,851.23 2063.5,847C 2062.85,845.013 2061.51,843.68 2059.5,843C 2060.5,841.333 2061.5,839.667 2062.5,838C 2060.61,836.921 2060.27,835.587 2061.5,834C 2060.75,832.266 2060.25,830.433 2060,828.5C 2054.46,834.708 2048.29,840.208 2041.5,845C 2042.71,846.3 2043.37,847.8 2043.5,849.5C 2036.31,848.146 2029.31,848.646 2022.5,851C 2017.47,851.171 2012.47,851.671 2007.5,852.5C 2006.96,853.748 2006.29,854.915 2005.5,856C 2005.42,857.907 2005.75,859.907 2006.5,862C 2003.08,863.598 2002.74,865.598 2005.5,868C 2001.89,870.81 2001.23,873.976 2003.5,877.5C 2002.83,880.835 2002.83,884.335 2003.5,888C 2002.96,890.4 2002.29,892.733 2001.5,895C 2002.17,895.667 2002.83,896.333 2003.5,897C 2003.62,898.789 2003.62,900.622 2003.5,902.5C 2004.64,906.898 2006.31,911.064 2008.5,915C 2007.93,916.205 2007.26,917.372 2006.5,918.5C 1997.88,916.367 1991.05,911.7 1986,904.5C 1985.51,903.207 1985.34,901.873 1985.5,900.5C 1982.65,900.59 1980.32,901.756 1978.5,904C 1979.19,906.727 1979.52,909.394 1979.5,912C 1977.43,915.547 1977.43,919.214 1979.5,923C 1971.8,922.402 1965.3,919.235 1960,913.5C 1959.76,911.236 1959.26,909.069 1958.5,907C 1960.3,906.683 1960.63,906.016 1959.5,905C 1962.24,898.463 1962.91,891.963 1961.5,885.5C 1964.06,883.684 1964.06,881.851 1961.5,880C 1964.17,878.667 1964.17,877.333 1961.5,876C 1962.17,875.667 1962.83,875.333 1963.5,875C 1961.21,873.573 1960.88,871.739 1962.5,869.5C 1961.97,867.259 1960.63,865.759 1958.5,865C 1959.31,864.692 1959.97,864.192 1960.5,863.5C 1957.02,862.943 1955.35,860.943 1955.5,857.5C 1957.14,857.286 1958.64,857.62 1960,858.5C 1960.67,857.833 1960.67,857.167 1960,856.5C 1959.01,855.934 1958.17,855.267 1957.5,854.5C 1958.83,854.167 1958.83,853.833 1957.5,853.5C 1957.5,852.167 1957.5,850.833 1957.5,849.5C 1953.79,849.577 1950.12,849.244 1946.5,848.5C 1946.5,849.5 1946.5,850.5 1946.5,851.5C 1943.54,851.117 1942.54,852.117 1943.5,854.5C 1935.94,861.67 1931.1,870.004 1929,879.5C 1926.01,880.744 1923.85,879.744 1922.5,876.5C 1920.1,876.652 1917.77,876.152 1915.5,875C 1916.17,874.333 1916.83,873.667 1917.5,873C 1917,871.004 1916,869.337 1914.5,868C 1919.13,867.615 1920.13,865.782 1917.5,862.5C 1919.33,861.572 1919.67,860.406 1918.5,859C 1920.3,858.683 1920.63,858.016 1919.5,857C 1921.99,856.374 1921.99,855.541 1919.5,854.5C 1920.91,853.194 1922.58,852.36 1924.5,852C 1924.17,851 1923.83,850 1923.5,849C 1925.3,848.683 1925.63,848.016 1924.5,847C 1926.44,846.092 1927.44,844.592 1927.5,842.5C 1929.94,842.646 1930.61,841.813 1929.5,840C 1931.57,839.676 1931.9,838.842 1930.5,837.5C 1933.03,836.483 1933.03,835.316 1930.5,834C 1932.52,833.101 1934.18,831.767 1935.5,830C 1933.88,829.147 1933.54,828.147 1934.5,827C 1931.37,826.21 1928.37,826.543 1925.5,828C 1925.96,828.414 1926.29,828.914 1926.5,829.5C 1923.86,831.581 1920.86,832.914 1917.5,833.5C 1914.26,836.635 1910.59,839.135 1906.5,841C 1906.96,841.414 1907.29,841.914 1907.5,842.5C 1902.82,845.261 1898.15,847.928 1893.5,850.5C 1891.67,851.428 1891.33,852.594 1892.5,854C 1889.38,854.724 1886.72,856.224 1884.5,858.5C 1885.03,859.192 1885.69,859.692 1886.5,860C 1883.58,861.299 1881.08,863.133 1879,865.5C 1878.55,867.519 1877.72,869.352 1876.5,871C 1878.29,872.593 1878.45,874.093 1877,875.5C 1873.26,873.702 1871.26,870.702 1871,866.5C 1869.69,868.132 1869.19,869.799 1869.5,871.5C 1868.25,870.96 1867.09,870.293 1866,869.5C 1865.7,867.112 1864.86,864.945 1863.5,863C 1863.22,860.6 1863.55,858.1 1864.5,855.5C 1865.38,851.543 1867.71,849.043 1871.5,848C 1870,847.417 1868.67,846.584 1867.5,845.5C 1870.99,841.084 1875.33,838.918 1880.5,839C 1880.17,838.667 1879.83,838.333 1879.5,838C 1883.11,834.522 1887.11,831.522 1891.5,829C 1891.04,828.586 1890.71,828.086 1890.5,827.5C 1886.47,826.775 1882.47,825.942 1878.5,825C 1876.4,824.209 1875.06,822.709 1874.5,820.5C 1868.7,824.248 1863.04,828.082 1857.5,832C 1857.83,832.333 1858.17,832.667 1858.5,833C 1855.46,833.359 1855.12,834.026 1857.5,835C 1850.98,836.551 1847.98,840.051 1848.5,845.5C 1847.23,844.572 1845.9,844.405 1844.5,845C 1845.83,845.667 1845.83,846.333 1844.5,847C 1843.55,847.483 1842.55,847.649 1841.5,847.5C 1840.63,850.167 1839.63,852.833 1838.5,855.5C 1836.74,854.872 1835.24,853.872 1834,852.5C 1832.49,853.535 1830.99,853.368 1829.5,852C 1829.96,851.586 1830.29,851.086 1830.5,850.5C 1826.33,847.358 1826.66,846.192 1831.5,847C 1829.99,845.493 1828.66,843.827 1827.5,842C 1828.83,841.667 1830.17,841.333 1831.5,841C 1831.17,840.667 1830.83,840.333 1830.5,840C 1833.83,837 1836.66,834.167 1839,831.5C 1839.62,830.551 1839.45,829.718 1838.5,829C 1839.5,828.667 1840.5,828.333 1841.5,828C 1841.17,827.667 1840.83,827.333 1840.5,827C 1841.55,826.508 1842.55,826.674 1843.5,827.5C 1847.16,823.678 1851.49,820.844 1856.5,819C 1848.39,819.728 1840.23,820.561 1832,821.5C 1822,821.593 1811.83,821.426 1801.5,821C 1790.87,819.212 1780.54,816.545 1770.5,813C 1798.67,816.054 1826.67,814.054 1854.5,807C 1859.63,804.603 1864.63,801.936 1869.5,799C 1870.17,796.667 1870.83,794.333 1871.5,792C 1869.5,792 1867.5,792 1865.5,792C 1869.48,787.688 1873.81,783.688 1878.5,780C 1880.35,778.872 1882.35,778.372 1884.5,778.5C 1884.91,774.167 1886.25,770.167 1888.5,766.5C 1887.21,763.849 1887.71,761.516 1890,759.5C 1890.78,753.302 1889.62,753.135 1886.5,759C 1884.78,759.739 1883.11,760.573 1881.5,761.5C 1878.56,765.944 1875.06,769.944 1871,773.5C 1870.83,773.167 1870.67,772.833 1870.5,772.5C 1877.33,760.833 1884.17,749.167 1891,737.5C 1891.04,733.222 1890.54,729.222 1889.5,725.5C 1890.13,723.742 1891.13,722.242 1892.5,721C 1895.31,721.228 1897.81,721.728 1900,722.5C 1902.37,719.794 1905.04,717.461 1908,715.5C 1910.23,710.035 1913.23,705.035 1917,700.5C 1920.36,688.622 1926.19,678.122 1934.5,669C 1935.45,668.517 1936.45,668.351 1937.5,668.5C 1937.34,670.527 1937.5,672.527 1938,674.5C 1938.41,674.957 1938.91,675.291 1939.5,675.5C 1949.13,665.033 1958.63,654.367 1968,643.5C 1972.74,585.871 1967.24,529.205 1951.5,473.5C 1959.44,469.371 1967.77,466.037 1976.5,463.5 Z M 1998.5,707.5 C 1997.53,707.013 1996.53,706.513 1995.5,706C 1997.16,705.275 1998.16,705.775 1998.5,707.5 Z M 1938.5,707.5 C 1943.99,709.163 1949.33,710.663 1954.5,712C 1951.69,713.977 1949.02,716.144 1946.5,718.5C 1945.52,718.023 1944.69,717.357 1944,716.5C 1943.67,716.833 1943.33,717.167 1943,717.5C 1942.52,716.552 1942.35,715.552 1942.5,714.5C 1941.5,714.5 1940.5,714.5 1939.5,714.5C 1939.52,712.857 1938.85,711.524 1937.5,710.5C 1938.13,709.583 1938.46,708.583 1938.5,707.5 Z M 2001.5,707.5 C 2002.53,709.515 2004.19,710.848 2006.5,711.5C 2006.33,711.833 2006.17,712.167 2006,712.5C 2004.54,711.253 2003.04,711.253 2001.5,712.5C 2000.69,712.192 2000.03,711.692 1999.5,711C 2000.31,709.887 2000.97,708.721 2001.5,707.5 Z M 2053.5,712.5 C 2054.4,713.209 2054.74,714.209 2054.5,715.5C 2053.13,715.657 2051.79,715.49 2050.5,715C 2051.94,714.623 2052.94,713.79 2053.5,712.5 Z M 2011.5,717.5 C 2012.93,718.79 2013.93,720.456 2014.5,722.5C 2015.09,722.291 2015.59,721.957 2016,721.5C 2016.51,723.521 2017.68,725.021 2019.5,726C 2017.98,727.009 2016.31,727.509 2014.5,727.5C 2014.25,724.53 2012.59,723.197 2009.5,723.5C 2009.7,721.315 2010.37,719.315 2011.5,717.5 Z M 2090.5,721.5 C 2091.38,721.369 2092.04,721.702 2092.5,722.5C 2091.28,723.614 2089.94,723.781 2088.5,723C 2089.42,722.722 2090.08,722.222 2090.5,721.5 Z M 2041.5,742.5 C 2039.8,742.66 2038.13,742.494 2036.5,742C 2036.96,741.586 2037.29,741.086 2037.5,740.5C 2035.76,737.409 2033.09,735.742 2029.5,735.5C 2030.9,734.158 2030.57,733.324 2028.5,733C 2030.44,730.107 2032.44,729.607 2034.5,731.5C 2036.32,730.571 2037.66,731.238 2038.5,733.5C 2037.13,735.62 2037.8,736.62 2040.5,736.5C 2040.83,738.5 2041.17,740.5 2041.5,742.5 Z M 2041.5,742.5 C 2043.65,743.654 2045.65,744.987 2047.5,746.5C 2046.4,747.176 2045.4,747.842 2044.5,748.5C 2043.68,746.856 2042.35,745.69 2040.5,745C 2041.25,744.329 2041.59,743.496 2041.5,742.5 Z M 2048.5,750.5 C 2049.04,750.56 2049.38,750.893 2049.5,751.5C 2048.28,752.614 2046.94,752.781 2045.5,752C 2046.74,751.768 2047.74,751.268 2048.5,750.5 Z M 2023.5,757.5 C 2026.46,760.964 2029.63,764.297 2033,767.5C 2033.65,769.235 2033.48,770.902 2032.5,772.5C 2033.73,773.281 2035.06,773.781 2036.5,774C 2036.98,775.008 2037.15,776.175 2037,777.5C 2039.32,780.157 2042.15,781.991 2045.5,783C 2045.04,783.414 2044.71,783.914 2044.5,784.5C 2045.5,785.833 2046.5,787.167 2047.5,788.5C 2046.75,789.736 2046.42,791.07 2046.5,792.5C 2048.82,792.662 2050.49,793.828 2051.5,796C 2050.09,797.413 2049.09,799.08 2048.5,801C 2049.37,804.372 2049.37,807.539 2048.5,810.5C 2045.4,812.372 2043.4,815.038 2042.5,818.5C 2039.16,822.402 2035.83,826.402 2032.5,830.5C 2031.74,829.372 2031.07,828.205 2030.5,827C 2030.5,824.667 2030.5,822.333 2030.5,820C 2028.96,819.71 2027.62,819.044 2026.5,818C 2027.17,817.667 2027.83,817.333 2028.5,817C 2027.18,814.343 2025.85,811.677 2024.5,809C 2024.64,808.228 2024.98,807.561 2025.5,807C 2023.5,804 2021.5,801 2019.5,798C 2020.31,797.692 2020.97,797.192 2021.5,796.5C 2020.46,794.232 2020.29,791.899 2021,789.5C 2022.01,788.663 2023.18,788.33 2024.5,788.5C 2024.5,787.5 2024.5,786.5 2024.5,785.5C 2020.5,785.167 2020.5,784.833 2024.5,784.5C 2024.5,783.5 2024.5,782.5 2024.5,781.5C 2023.45,781.649 2022.45,781.483 2021.5,781C 2022.63,779.984 2022.3,779.317 2020.5,779C 2022.87,774.291 2022.87,769.624 2020.5,765C 2021.67,764.581 2022.67,763.915 2023.5,763C 2022.25,761.172 2022.25,759.339 2023.5,757.5 Z M 1927.5,775.5 C 1928.38,775.369 1929.04,775.702 1929.5,776.5C 1928.67,777.451 1928.51,778.451 1929,779.5C 1930.25,780.211 1931.42,781.044 1932.5,782C 1929.11,784.536 1929.11,786.536 1932.5,788C 1930.64,789.558 1929.14,791.391 1928,793.5C 1926.99,792.663 1925.82,792.33 1924.5,792.5C 1924.77,790.549 1924.11,789.049 1922.5,788C 1926.01,784.651 1927.68,780.485 1927.5,775.5 Z M 1919.5,802.5 C 1923.31,803.754 1923.31,804.754 1919.5,805.5C 1919.5,804.5 1919.5,803.5 1919.5,802.5 Z M 1868.5,805.5 C 1869.55,805.351 1870.55,805.517 1871.5,806C 1866.82,809.835 1861.49,811.501 1855.5,811C 1860.15,809.666 1864.49,807.833 1868.5,805.5 Z M 1887.5,815.5 C 1888.38,815.369 1889.04,815.702 1889.5,816.5C 1885.7,823.033 1885.03,822.7 1887.5,815.5 Z M 2145.5,833.5 C 2148.38,835.846 2148.04,836.679 2144.5,836C 2145.25,835.329 2145.59,834.496 2145.5,833.5 Z"/></g>
<g><path style="opacity:0.998" fill="#4e76b2" d="M 1621.5,606.5 C 1650.59,677.694 1679.43,749.028 1708,820.5C 1708.91,824.452 1708.24,828.119 1706,831.5C 1701.3,837.363 1696.14,842.697 1690.5,847.5C 1682.44,853.558 1674.11,859.224 1665.5,864.5C 1660.62,828.747 1647.45,796.414 1626,767.5C 1613.7,753.53 1599.87,741.363 1584.5,731C 1578.5,727.667 1572.5,724.333 1566.5,721C 1544.48,722.803 1522.82,726.803 1501.5,733C 1436.35,751.604 1372.02,772.604 1308.5,796C 1149.73,855.526 992.725,919.026 837.5,986.5C 829.654,968.795 822.321,950.795 815.5,932.5C 1083.85,823.267 1352.52,714.6 1621.5,606.5 Z"/></g>
<g><path style="opacity:0.995" fill="#4f75b2" d="M 437.5,680.5 C 459.701,780.534 521.034,840.701 621.5,861C 669.056,869.203 716.889,871.369 765,867.5C 767.69,867.503 770.19,867.836 772.5,868.5C 692.087,900.638 611.753,932.971 531.5,965.5C 512.963,958.23 494.963,949.897 477.5,940.5C 457.899,856.085 438.899,771.418 420.5,686.5C 426.263,684.786 431.93,682.786 437.5,680.5 Z"/></g>
<g><path style="opacity:0.999" fill="#4f7cb7" d="M 1665.5,864.5 C 1649.57,875.143 1633.23,885.309 1616.5,895C 1492.38,961.064 1364.38,1018.4 1232.5,1067C 1169.83,1090.22 1106.5,1111.22 1042.5,1130C 1017.38,1137.11 992.05,1143.28 966.5,1148.5C 947.042,1153.35 927.375,1154.52 907.5,1152C 905.695,1151.03 904.028,1149.86 902.5,1148.5C 880.432,1094.62 858.766,1040.62 837.5,986.5C 992.725,919.026 1149.73,855.526 1308.5,796C 1372.02,772.604 1436.35,751.604 1501.5,733C 1522.82,726.803 1544.48,722.803 1566.5,721C 1572.5,724.333 1578.5,727.667 1584.5,731C 1599.87,741.363 1613.7,753.53 1626,767.5C 1647.45,796.414 1660.62,828.747 1665.5,864.5 Z"/></g>
<g><path style="opacity:0.999" fill="#9899a5" d="M 1690.5,847.5 C 1695.83,860.167 1701.17,872.833 1706.5,885.5C 1685.57,899.977 1663.9,913.477 1641.5,926C 1579.54,960.815 1516.54,993.815 1452.5,1025C 1410.78,1044.68 1368.12,1062.02 1324.5,1077C 1210.12,1113.85 1094.79,1147.35 978.5,1177.5C 974.5,1167.83 970.5,1158.17 966.5,1148.5C 992.05,1143.28 1017.38,1137.11 1042.5,1130C 1106.5,1111.22 1169.83,1090.22 1232.5,1067C 1364.38,1018.4 1492.38,961.064 1616.5,895C 1633.23,885.309 1649.57,875.143 1665.5,864.5C 1674.11,859.224 1682.44,853.558 1690.5,847.5 Z"/></g>
<g><path style="opacity:0.269" fill="#af4f4e" d="M 1957.5,853.5 C 1957.5,853.833 1957.5,854.167 1957.5,854.5C 1956.02,854.762 1954.69,854.429 1953.5,853.5C 1954.81,852.374 1956.14,852.374 1957.5,853.5 Z"/></g>
<g><path style="opacity:0.388" fill="#af4f4e" d="M 1957.5,870.5 C 1958.39,869.224 1959.39,869.224 1960.5,870.5C 1959.58,871.562 1958.58,871.562 1957.5,870.5 Z"/></g>
<g><path style="opacity:0.999" fill="#a5a5a4" d="M 1706.5,885.5 C 1715.79,904.682 1724.12,924.348 1731.5,944.5C 1690.52,988.164 1643.18,1023.33 1589.5,1050C 1565.77,1061.71 1541.77,1072.54 1517.5,1082.5C 1424.46,1116.29 1331.13,1149.29 1237.5,1181.5C 1185.07,1198.75 1131.4,1210.42 1076.5,1216.5C 1049.23,1219 1021.9,1220 994.5,1219.5C 989.169,1205.5 983.836,1191.5 978.5,1177.5C 1094.79,1147.35 1210.12,1113.85 1324.5,1077C 1368.12,1062.02 1410.78,1044.68 1452.5,1025C 1516.54,993.815 1579.54,960.815 1641.5,926C 1663.9,913.477 1685.57,899.977 1706.5,885.5 Z"/></g>
<g><path style="opacity:0.993" fill="#4e7cb8" d="M 477.5,940.5 C 494.963,949.897 512.963,958.23 531.5,965.5C 516.501,971.658 501.501,977.658 486.5,983.5C 483.585,975.169 480.252,967.002 476.5,959C 478.327,958.101 479.66,956.767 480.5,955C 479.05,950.25 478.05,945.417 477.5,940.5 Z"/></g>
<g><path style="opacity:0.998" fill="#9b471f" d="M 1731.5,944.5 C 1800.45,1124.18 1866.95,1304.84 1931,1486.5C 1986.62,1645.69 2032.29,1807.69 2068,1972.5C 2102.71,2137.42 2123.21,2304.09 2129.5,2472.5C 2129.06,2477.38 2127.06,2481.38 2123.5,2484.5C 2103.99,2496.51 2082.99,2505.35 2060.5,2511C 2018,2522.88 1975,2532.38 1931.5,2539.5C 1931.98,2525.75 1931.15,2512.08 1929,2498.5C 1890.89,2300.18 1846.89,2103.18 1797,1907.5C 1772.45,1813.05 1746.12,1719.05 1718,1625.5C 1717.65,1622.85 1716.48,1620.85 1714.5,1619.5C 1727.41,1596.21 1734.91,1571.21 1737,1544.5C 1740.74,1493.48 1729.41,1446.15 1703,1402.5C 1688.58,1379.75 1669.42,1362.25 1645.5,1350C 1636.97,1346.54 1628.3,1344.04 1619.5,1342.5C 1620.98,1342.76 1622.31,1342.43 1623.5,1341.5C 1614.83,1318.48 1606.16,1295.48 1597.5,1272.5C 1654.46,1284.65 1706.13,1308.15 1752.5,1343C 1753.17,1343.67 1753.83,1343.67 1754.5,1343C 1706.27,1299.67 1650.6,1269.84 1587.5,1253.5C 1588.38,1253.63 1589.04,1253.3 1589.5,1252.5C 1567.22,1194.96 1543.22,1138.3 1517.5,1082.5C 1541.77,1072.54 1565.77,1061.71 1589.5,1050C 1643.18,1023.33 1690.52,988.164 1731.5,944.5 Z"/></g>
<g><path style="opacity:1" fill="#e66117" d="M 1517.5,1082.5 C 1543.22,1138.3 1567.22,1194.96 1589.5,1252.5C 1589.04,1253.3 1588.38,1253.63 1587.5,1253.5C 1552.72,1246.96 1517.72,1245.79 1482.5,1250C 1473.61,1253.96 1471.11,1260.46 1475,1269.5C 1477.5,1272.66 1480.66,1274.66 1484.5,1275.5C 1521.96,1267.37 1559.63,1266.37 1597.5,1272.5C 1606.16,1295.48 1614.83,1318.48 1623.5,1341.5C 1622.31,1342.43 1620.98,1342.76 1619.5,1342.5C 1592.81,1340.44 1570.31,1349.1 1552,1368.5C 1524.54,1401.72 1511.71,1440.05 1513.5,1483.5C 1513.25,1536.9 1529.42,1584.57 1562,1626.5C 1579.64,1647.48 1601.8,1660.98 1628.5,1667C 1667.17,1669.17 1695.84,1653.33 1714.5,1619.5C 1716.48,1620.85 1717.65,1622.85 1718,1625.5C 1746.12,1719.05 1772.45,1813.05 1797,1907.5C 1846.89,2103.18 1890.89,2300.18 1929,2498.5C 1931.15,2512.08 1931.98,2525.75 1931.5,2539.5C 1925.34,2541.14 1919.01,2542.48 1912.5,2543.5C 1872.34,2550.73 1832.01,2556.9 1791.5,2562C 1740.88,2566.21 1690.21,2569.71 1639.5,2572.5C 1637.95,2571.77 1637.12,2570.44 1637,2568.5C 1605.43,2402.56 1569.6,2237.56 1529.5,2073.5C 1594.67,2092.57 1646.01,2073.9 1683.5,2017.5C 1703.82,1981.6 1710.32,1943.26 1703,1902.5C 1693.41,1858.59 1669.24,1825.59 1630.5,1803.5C 1572.64,1777.5 1521.81,1787.5 1478,1833.5C 1475.16,1837.2 1472.32,1840.86 1469.5,1844.5C 1450.63,1778.37 1430.8,1712.37 1410,1646.5C 1409.5,1644.53 1409.34,1642.53 1409.5,1640.5C 1428.4,1582.8 1423.57,1527.13 1395,1473.5C 1379.41,1446.07 1357.58,1425.41 1329.5,1411.5C 1302.03,1334.09 1271.03,1258.09 1236.5,1183.5C 1236.86,1182.82 1237.2,1182.15 1237.5,1181.5C 1331.13,1149.29 1424.46,1116.29 1517.5,1082.5 Z"/></g>
<g><path style="opacity:1" fill="#e67117" d="M 1237.5,1181.5 C 1237.2,1182.15 1236.86,1182.82 1236.5,1183.5C 1271.03,1258.09 1302.03,1334.09 1329.5,1411.5C 1289.61,1397.97 1256.11,1407.3 1229,1439.5C 1220.71,1449.75 1214.21,1461.08 1209.5,1473.5C 1193.22,1437.6 1176.89,1401.6 1160.5,1365.5C 1188.26,1346.63 1218.59,1333.13 1251.5,1325C 1256.09,1320.81 1257.59,1315.64 1256,1309.5C 1253.51,1304.59 1249.51,1301.92 1244,1301.5C 1210.38,1311.89 1179.88,1327.89 1152.5,1349.5C 1128.94,1304.03 1103.61,1259.7 1076.5,1216.5C 1131.4,1210.42 1185.07,1198.75 1237.5,1181.5 Z"/></g>
<g><path style="opacity:0.993" fill="#e06e18" d="M 1076.5,1216.5 C 1103.61,1259.7 1128.94,1304.03 1152.5,1349.5C 1138.63,1360.87 1125.46,1373.2 1113,1386.5C 1102.26,1399.73 1091.76,1413.07 1081.5,1426.5C 1053.33,1357.15 1024.33,1288.15 994.5,1219.5C 1021.9,1220 1049.23,1219 1076.5,1216.5 Z"/></g>
<g><path style="opacity:1" fill="#030100" d="M 1587.5,1253.5 C 1650.6,1269.84 1706.27,1299.67 1754.5,1343C 1753.83,1343.67 1753.17,1343.67 1752.5,1343C 1706.13,1308.15 1654.46,1284.65 1597.5,1272.5C 1559.63,1266.37 1521.96,1267.37 1484.5,1275.5C 1480.66,1274.66 1477.5,1272.66 1475,1269.5C 1471.11,1260.46 1473.61,1253.96 1482.5,1250C 1517.72,1245.79 1552.72,1246.96 1587.5,1253.5 Z"/></g>
<g><path style="opacity:0.975" fill="#030100" d="M 1160.5,1365.5 C 1131.23,1385.44 1106.23,1409.77 1085.5,1438.5C 1066.86,1462.42 1050.69,1488.08 1037,1515.5C 1036.35,1516.7 1035.85,1516.7 1035.5,1515.5C 1047.98,1484.21 1063.31,1454.54 1081.5,1426.5C 1091.76,1413.07 1102.26,1399.73 1113,1386.5C 1125.46,1373.2 1138.63,1360.87 1152.5,1349.5C 1179.88,1327.89 1210.38,1311.89 1244,1301.5C 1249.51,1301.92 1253.51,1304.59 1256,1309.5C 1257.59,1315.64 1256.09,1320.81 1251.5,1325C 1218.59,1333.13 1188.26,1346.63 1160.5,1365.5 Z"/></g>
<g><path style="opacity:1" fill="#fefefd" d="M 1619.5,1342.5 C 1628.3,1344.04 1636.97,1346.54 1645.5,1350C 1669.42,1362.25 1688.58,1379.75 1703,1402.5C 1729.41,1446.15 1740.74,1493.48 1737,1544.5C 1734.91,1571.21 1727.41,1596.21 1714.5,1619.5C 1695.84,1653.33 1667.17,1669.17 1628.5,1667C 1601.8,1660.98 1579.64,1647.48 1562,1626.5C 1529.42,1584.57 1513.25,1536.9 1513.5,1483.5C 1511.71,1440.05 1524.54,1401.72 1552,1368.5C 1570.31,1349.1 1592.81,1340.44 1619.5,1342.5 Z"/></g>
<g><path style="opacity:0.995" fill="#e06f18" d="M 1160.5,1365.5 C 1176.89,1401.6 1193.22,1437.6 1209.5,1473.5C 1194.57,1513.37 1192.91,1553.7 1204.5,1594.5C 1204.52,1620.93 1214.52,1642.59 1234.5,1659.5C 1249.19,1681.85 1269.19,1697.51 1294.5,1706.5C 1335.54,1838.97 1372.37,1972.64 1405,2107.5C 1426.94,2207.1 1441.61,2307.77 1449,2409.5C 1452.05,2464.31 1450.55,2518.97 1444.5,2573.5C 1444.69,2574.58 1445.02,2575.58 1445.5,2576.5C 1433.43,2575.59 1421.43,2574.09 1409.5,2572C 1402.45,2570.93 1395.78,2568.76 1389.5,2565.5C 1385.82,2563.65 1383.99,2560.65 1384,2556.5C 1339.06,2222.08 1258.06,1896.75 1141,1580.5C 1123.35,1532.71 1104.85,1485.38 1085.5,1438.5C 1106.23,1409.77 1131.23,1385.44 1160.5,1365.5 Z"/></g>
<g><path style="opacity:1" fill="#fefefd" d="M 1329.5,1411.5 C 1357.58,1425.41 1379.41,1446.07 1395,1473.5C 1423.57,1527.13 1428.4,1582.8 1409.5,1640.5C 1399.62,1666.22 1382.96,1686.38 1359.5,1701C 1338.55,1711.32 1316.88,1713.15 1294.5,1706.5C 1269.19,1697.51 1249.19,1681.85 1234.5,1659.5C 1257.59,1674.79 1282.26,1677.62 1308.5,1668C 1341.34,1651.83 1356.18,1625.33 1353,1588.5C 1350.87,1576.92 1346.54,1566.25 1340,1556.5C 1332.87,1579.98 1317.37,1588.81 1293.5,1583C 1274.99,1573.47 1268.49,1558.63 1274,1538.5C 1276.05,1533.79 1278.88,1529.62 1282.5,1526C 1249.41,1525.29 1225.58,1539.79 1211,1569.5C 1208.01,1577.64 1205.84,1585.98 1204.5,1594.5C 1192.91,1553.7 1194.57,1513.37 1209.5,1473.5C 1214.21,1461.08 1220.71,1449.75 1229,1439.5C 1256.11,1407.3 1289.61,1397.97 1329.5,1411.5 Z"/></g>
<g><path style="opacity:1" fill="#010101" d="M 1593.5,1470.5 C 1598.18,1470.33 1602.85,1470.5 1607.5,1471C 1592.42,1488.89 1593.09,1506.22 1609.5,1523C 1627.78,1534.48 1644.28,1532.31 1659,1516.5C 1661.55,1512.07 1663.55,1507.4 1665,1502.5C 1676.53,1517.93 1680.86,1535.27 1678,1554.5C 1672.54,1586.96 1654.04,1607.79 1622.5,1617C 1585.19,1623.76 1557.02,1610.92 1538,1578.5C 1523.33,1544.86 1528.83,1515.03 1554.5,1489C 1566.04,1479.56 1579.04,1473.4 1593.5,1470.5 Z"/></g>
<g><path style="opacity:1" fill="#010101" d="M 1234.5,1659.5 C 1214.52,1642.59 1204.52,1620.93 1204.5,1594.5C 1205.84,1585.98 1208.01,1577.64 1211,1569.5C 1225.58,1539.79 1249.41,1525.29 1282.5,1526C 1278.88,1529.62 1276.05,1533.79 1274,1538.5C 1268.49,1558.63 1274.99,1573.47 1293.5,1583C 1317.37,1588.81 1332.87,1579.98 1340,1556.5C 1346.54,1566.25 1350.87,1576.92 1353,1588.5C 1356.18,1625.33 1341.34,1651.83 1308.5,1668C 1282.26,1677.62 1257.59,1674.79 1234.5,1659.5 Z"/></g>
<g><path style="opacity:1" fill="#e67117" d="M 1409.5,1640.5 C 1409.34,1642.53 1409.5,1644.53 1410,1646.5C 1430.8,1712.37 1450.63,1778.37 1469.5,1844.5C 1467.08,1847.59 1465.08,1850.92 1463.5,1854.5C 1443.93,1887.54 1437.09,1923.21 1443,1961.5C 1449.44,1998.75 1466.94,2029.41 1495.5,2053.5C 1505.53,2062.16 1516.86,2068.82 1529.5,2073.5C 1569.6,2237.56 1605.43,2402.56 1637,2568.5C 1637.12,2570.44 1637.95,2571.77 1639.5,2572.5C 1639.5,2573.17 1639.17,2573.5 1638.5,2573.5C 1574.21,2577.25 1509.87,2578.25 1445.5,2576.5C 1445.02,2575.58 1444.69,2574.58 1444.5,2573.5C 1450.55,2518.97 1452.05,2464.31 1449,2409.5C 1441.61,2307.77 1426.94,2207.1 1405,2107.5C 1372.37,1972.64 1335.54,1838.97 1294.5,1706.5C 1316.88,1713.15 1338.55,1711.32 1359.5,1701C 1382.96,1686.38 1399.62,1666.22 1409.5,1640.5 Z"/></g>
<g><path style="opacity:1" fill="#f4f0e7" d="M 1630.5,1803.5 C 1630.5,1822.5 1630.5,1841.5 1630.5,1860.5C 1582.18,1869.17 1533.84,1877.83 1485.5,1886.5C 1477.21,1876.62 1469.88,1865.96 1463.5,1854.5C 1465.08,1850.92 1467.08,1847.59 1469.5,1844.5C 1472.32,1840.86 1475.16,1837.2 1478,1833.5C 1521.81,1787.5 1572.64,1777.5 1630.5,1803.5 Z"/></g>
<g><path style="opacity:1" fill="#72324f" d="M 1630.5,1803.5 C 1669.24,1825.59 1693.41,1858.59 1703,1902.5C 1710.32,1943.26 1703.82,1981.6 1683.5,2017.5C 1657.82,1983.87 1623.82,1970.7 1581.5,1978C 1553.27,1984.69 1530.43,1999.52 1513,2022.5C 1506.11,2032.28 1500.28,2042.61 1495.5,2053.5C 1466.94,2029.41 1449.44,1998.75 1443,1961.5C 1437.09,1923.21 1443.93,1887.54 1463.5,1854.5C 1469.88,1865.96 1477.21,1876.62 1485.5,1886.5C 1533.84,1877.83 1582.18,1869.17 1630.5,1860.5C 1630.5,1841.5 1630.5,1822.5 1630.5,1803.5 Z"/></g>
<g><path style="opacity:1" fill="#c1000c" d="M 1683.5,2017.5 C 1646.01,2073.9 1594.67,2092.57 1529.5,2073.5C 1516.86,2068.82 1505.53,2062.16 1495.5,2053.5C 1500.28,2042.61 1506.11,2032.28 1513,2022.5C 1530.43,1999.52 1553.27,1984.69 1581.5,1978C 1623.82,1970.7 1657.82,1983.87 1683.5,2017.5 Z"/></g>
<g><path style="opacity:0.995" fill="#ebddc0" d="M 2123.5,2484.5 C 2079.52,2582.59 2036.02,2680.92 1993,2779.5C 1951.63,2872.57 1906.3,2963.57 1857,3052.5C 1849.98,3065.23 1842.48,3077.56 1834.5,3089.5C 1843.96,3069.24 1853.96,3049.24 1864.5,3029.5C 1850.86,3028.26 1837.19,3027.59 1823.5,3027.5C 1829.42,2992.74 1835.92,2958.07 1843,2923.5C 1861.98,2837.57 1880.65,2751.57 1899,2665.5C 1901.67,2638.17 1904.33,2610.84 1907,2583.5C 1908.14,2570.02 1909.98,2556.68 1912.5,2543.5C 1919.01,2542.48 1925.34,2541.14 1931.5,2539.5C 1975,2532.38 2018,2522.88 2060.5,2511C 2082.99,2505.35 2103.99,2496.51 2123.5,2484.5 Z"/></g>
<g><path style="opacity:0.999" fill="#f7ddb7" d="M 1912.5,2543.5 C 1909.98,2556.68 1908.14,2570.02 1907,2583.5C 1904.33,2610.84 1901.67,2638.17 1899,2665.5C 1880.65,2751.57 1861.98,2837.57 1843,2923.5C 1835.92,2958.07 1829.42,2992.74 1823.5,3027.5C 1787.15,3027.25 1750.82,3027.25 1714.5,3027.5C 1717.79,3035.08 1720.79,3042.74 1723.5,3050.5C 1687.09,2993.34 1650.42,2936.34 1613.5,2879.5C 1623.71,2777.65 1632.04,2675.65 1638.5,2573.5C 1639.17,2573.5 1639.5,2573.17 1639.5,2572.5C 1690.21,2569.71 1740.88,2566.21 1791.5,2562C 1832.01,2556.9 1872.34,2550.73 1912.5,2543.5 Z"/></g>
<g><path style="opacity:0.994" fill="#f8e4b6" d="M 1389.5,2565.5 C 1395.78,2568.76 1402.45,2570.93 1409.5,2572C 1421.43,2574.09 1433.43,2575.59 1445.5,2576.5C 1509.87,2578.25 1574.21,2577.25 1638.5,2573.5C 1632.04,2675.65 1623.71,2777.65 1613.5,2879.5C 1541.58,2772.91 1466.92,2668.24 1389.5,2565.5 Z"/></g>
<g><path style="opacity:0.991" fill="#010101" d="M 1823.5,3027.5 C 1837.19,3027.59 1850.86,3028.26 1864.5,3029.5C 1853.96,3049.24 1843.96,3069.24 1834.5,3089.5C 1832.9,3090.29 1832.23,3091.62 1832.5,3093.5C 1822.36,3115.11 1811.2,3136.11 1799,3156.5C 1787.89,3170.08 1777.22,3169.74 1767,3155.5C 1762.41,3147.32 1758.08,3138.99 1754,3130.5C 1742.94,3104.16 1732.78,3077.49 1723.5,3050.5C 1720.79,3042.74 1717.79,3035.08 1714.5,3027.5C 1750.82,3027.25 1787.15,3027.25 1823.5,3027.5 Z"/></g>
<g><path style="opacity:0.502" fill="#978f7c" d="M 1834.5,3089.5 C 1834.34,3091.15 1833.67,3092.49 1832.5,3093.5C 1832.23,3091.62 1832.9,3090.29 1834.5,3089.5 Z"/></g>
</svg>
