<?xml version="1.0" encoding="UTF-8"?>
<!DOCTYPE svg PUBLIC "-//W3C//DTD SVG 1.1//EN" "http://www.w3.org/Graphics/SVG/1.1/DTD/svg11.dtd">
<svg xmlns="http://www.w3.org/2000/svg" version="1.1" width="2551px" height="3301px" style="shape-rendering:geometricPrecision; text-rendering:geometricPrecision; image-rendering:optimizeQuality; fill-rule:evenodd; clip-rule:evenodd" xmlns:xlink="http://www.w3.org/1999/xlink">
<g><path style="opacity:0.998" fill="#4e74b3" d="M 2106.5,1016.5 C 1612.51,810.173 1118.51,603.84 624.5,397.5C 628.114,389.273 631.447,380.94 634.5,372.5C 636.144,372.286 637.644,372.62 639,373.5C 688.364,295.633 737.531,217.633 786.5,139.5C 1240.79,329.764 1695.13,519.931 2149.5,710C 2137.36,802.616 2124.36,895.282 2110.5,988C 2111.68,989.735 2113.35,990.735 2115.5,991C 2116.06,991.725 2116.39,992.558 2116.5,993.5C 2113.53,1001.43 2110.2,1009.09 2106.5,1016.5 Z"/></g>
<g><path style="opacity:0.996" fill="#4e85bc" d="M 624.5,397.5 C 1118.51,603.84 1612.51,810.173 2106.5,1016.5C 2097.57,1040.36 2087.57,1063.69 2076.5,1086.5C 2068.91,1083.2 2061.25,1080.2 2053.5,1077.5C 2045.77,1072.91 2037.44,1069.24 2028.5,1066.5C 1917.83,1020.17 1807.17,973.833 1696.5,927.5C 1429.52,815.023 1162.19,703.023 894.5,591.5C 794.594,550.213 694.928,508.38 595.5,466C 605.462,443.277 615.129,420.444 624.5,397.5 Z"/></g>
<g><path style="opacity:0.997" fill="#4e76b2" d="M 894.5,591.5 C 1162.19,703.023 1429.52,815.023 1696.5,927.5C 1666.79,999.26 1636.79,1070.93 1606.5,1142.5C 1603.4,1145.26 1599.73,1146.76 1595.5,1147C 1584.12,1147.57 1572.79,1147.07 1561.5,1145.5C 1557.38,1144.06 1553.05,1143.06 1548.5,1142.5C 1547.26,1141.79 1546.76,1140.79 1547,1139.5C 1579.68,1096.79 1592.01,1048.79 1584,995.5C 1582.13,987.033 1579.8,978.7 1577,970.5C 1574.5,966.667 1571.33,963.5 1567.5,961C 1537.79,941.473 1507.12,923.473 1475.5,907C 1363.23,851.198 1249.23,799.198 1133.5,751C 1046.57,714.748 959.237,679.581 871.5,645.5C 879.167,627.5 886.833,609.5 894.5,591.5 Z"/></g>
<g><path style="opacity:0.999" fill="#4f7cb7" d="M 871.5,645.5 C 959.237,679.581 1046.57,714.748 1133.5,751C 1249.23,799.198 1363.23,851.198 1475.5,907C 1507.12,923.473 1537.79,941.473 1567.5,961C 1571.33,963.5 1574.5,966.667 1577,970.5C 1579.8,978.7 1582.13,987.033 1584,995.5C 1592.01,1048.79 1579.68,1096.79 1547,1139.5C 1546.76,1140.79 1547.26,1141.79 1548.5,1142.5C 1491.91,1130.03 1436.25,1114.2 1381.5,1095C 1236.85,1044.34 1096.19,984.345 959.5,915C 917.491,893.675 877.157,869.842 838.5,843.5C 824.923,835.425 813.757,824.758 805,811.5C 804.333,809.167 804.333,806.833 805,804.5C 827.179,751.479 849.346,698.479 871.5,645.5 Z"/></g>
<g><path style="opacity:0.998" fill="#9899a5" d="M 838.5,843.5 C 877.157,869.842 917.491,893.675 959.5,915C 1096.19,984.345 1236.85,1044.34 1381.5,1095C 1436.25,1114.2 1491.91,1130.03 1548.5,1142.5C 1553.05,1143.06 1557.38,1144.06 1561.5,1145.5C 1551.98,1167.88 1542.98,1190.55 1534.5,1213.5C 1522.83,1213.5 1511.17,1213.5 1499.5,1213.5C 1500.48,1201.49 1498.98,1189.83 1495,1178.5C 1456.8,1159.33 1417.64,1142.49 1377.5,1128C 1310.15,1104.58 1242.48,1082.25 1174.5,1061C 1103.64,1032.74 1034.64,1000.4 967.5,964C 917.964,937.407 869.298,909.574 821.5,880.5C 826.973,868.082 832.64,855.749 838.5,843.5 Z"/></g>
<g><path style="opacity:0.999" fill="#a5a5a4" d="M 821.5,880.5 C 869.298,909.574 917.964,937.407 967.5,964C 1034.64,1000.4 1103.64,1032.74 1174.5,1061C 1242.48,1082.25 1310.15,1104.58 1377.5,1128C 1417.64,1142.49 1456.8,1159.33 1495,1178.5C 1498.98,1189.83 1500.48,1201.49 1499.5,1213.5C 1446.58,1212.18 1394.58,1204.68 1343.5,1191C 1326.45,1186.32 1309.45,1181.49 1292.5,1176.5C 1198.6,1143.98 1104.94,1110.64 1011.5,1076.5C 968.64,1059.74 927.64,1039.24 888.5,1015C 854.73,993.742 824.397,968.242 797.5,938.5C 804.95,918.934 812.95,899.6 821.5,880.5 Z"/></g>
<g><path style="opacity:0.998" fill="#e67217" d="M 797.5,938.5 C 824.397,968.242 854.73,993.742 888.5,1015C 927.64,1039.24 968.64,1059.74 1011.5,1076.5C 958.935,1193.2 912.268,1312.2 871.5,1433.5C 873.546,1398.69 865.713,1366.35 848,1336.5C 822.003,1300.17 787.836,1289.34 745.5,1304C 716.315,1317.85 693.481,1338.68 677,1366.5C 640.617,1427.18 633.283,1491.18 655,1558.5C 665.068,1585.23 683.234,1604.07 709.5,1615C 731.42,1621.73 752.754,1620.06 773.5,1610C 796.029,1598.3 814.696,1582.14 829.5,1561.5C 801.508,1648.82 775.841,1736.82 752.5,1825.5C 705.404,1813.55 658.404,1801.21 611.5,1788.5C 606.541,1787.17 601.541,1786.34 596.5,1786C 606.868,1832.77 623.368,1877.27 646,1919.5C 650.608,1927.07 655.442,1934.4 660.5,1941.5C 673.776,1961.44 690.11,1978.44 709.5,1992.5C 667.93,2161.85 630.764,2332.18 598,2503.5C 597.24,2513.87 597.406,2524.2 598.5,2534.5C 556.412,2527.26 514.745,2518.1 473.5,2507C 457.877,2502.46 442.544,2497.13 427.5,2491C 419.166,2487.47 411.499,2482.97 404.5,2477.5C 401.5,2474.5 399.833,2470.83 399.5,2466.5C 408.69,2232.02 444.524,2001.69 507,1775.5C 537.237,1666.45 570.904,1558.45 608,1451.5C 629.212,1391.36 650.712,1331.36 672.5,1271.5C 729.848,1238.92 791.515,1225.08 857.5,1230C 877.902,1232.27 897.902,1236.43 917.5,1242.5C 928.058,1241.09 932.225,1235.09 930,1224.5C 928.878,1222.38 927.378,1220.54 925.5,1219C 877.976,1206.72 830.309,1206.39 782.5,1218C 744.704,1228.23 709.037,1243.4 675.5,1263.5C 715.889,1155.06 756.555,1046.72 797.5,938.5 Z"/></g>
<g><path style="opacity:0.949" fill="#af4f4f" d="M 2028.5,1066.5 C 2037.44,1069.24 2045.77,1072.91 2053.5,1077.5C 2037.76,1120.44 2025.76,1164.44 2017.5,1209.5C 2021.93,1215.1 2025.76,1221.1 2029,1227.5C 2032.88,1232.7 2037.55,1236.04 2043,1237.5C 2043.33,1236.5 2043.67,1235.5 2044,1234.5C 2045.91,1236.34 2047.91,1238.01 2050,1239.5C 2050.63,1241.64 2050.3,1243.64 2049,1245.5C 2048.67,1245.17 2048.33,1244.83 2048,1244.5C 2046.69,1246.32 2045.19,1247.98 2043.5,1249.5C 2044.17,1251.83 2044.83,1254.17 2045.5,1256.5C 2045.29,1257.09 2044.96,1257.59 2044.5,1258C 2048.89,1263.29 2052.39,1269.12 2055,1275.5C 2056.35,1277.02 2057.85,1278.35 2059.5,1279.5C 2064.31,1288.3 2068.64,1297.3 2072.5,1306.5C 2070.83,1306.5 2069.17,1306.5 2067.5,1306.5C 2073.16,1318.48 2079.32,1330.15 2086,1341.5C 2086.67,1342.5 2086.67,1343.5 2086,1344.5C 2084.43,1343.02 2083.09,1341.35 2082,1339.5C 2081.5,1340.5 2081,1341.5 2080.5,1342.5C 2085.44,1360.6 2097.1,1371.77 2115.5,1376C 2133.53,1380.71 2151.86,1383.38 2170.5,1384C 2144.34,1384.81 2119.34,1380.14 2095.5,1370C 2098.83,1374.67 2102.83,1378.67 2107.5,1382C 2107.17,1382.33 2106.83,1382.67 2106.5,1383C 2107.11,1385.15 2107.78,1387.31 2108.5,1389.5C 2112.23,1392.02 2116.23,1393.85 2120.5,1395C 2106.57,1397.79 2092.57,1399.29 2078.5,1399.5C 2067.98,1397.51 2067.98,1395.34 2078.5,1393C 2080.03,1390.97 2081.36,1388.8 2082.5,1386.5C 2080.24,1384.2 2078.24,1381.7 2076.5,1379C 2071.72,1379.46 2067.05,1380.63 2062.5,1382.5C 2061.61,1383.32 2061.28,1384.32 2061.5,1385.5C 2049.98,1385.9 2038.64,1387.56 2027.5,1390.5C 2026.83,1392.1 2026.5,1393.6 2026.5,1395C 2028.97,1396.4 2028.97,1397.9 2026.5,1399.5C 2027.38,1400.25 2028.38,1400.75 2029.5,1401C 2028.83,1401.33 2028.17,1401.67 2027.5,1402C 2030.07,1407.19 2032.73,1412.35 2035.5,1417.5C 2040.6,1421.7 2045.94,1425.37 2051.5,1428.5C 2043.93,1432.59 2036.1,1433.26 2028,1430.5C 2025.91,1431.5 2024.24,1430.83 2023,1428.5C 2018.41,1431.78 2018.57,1434.61 2023.5,1437C 2023.17,1437.33 2022.83,1437.67 2022.5,1438C 2024.19,1439.4 2024.86,1441.23 2024.5,1443.5C 2026.58,1443.47 2028.42,1444.14 2030,1445.5C 2030.46,1446.74 2029.96,1447.58 2028.5,1448C 2021.79,1450.37 2015.12,1451.37 2008.5,1451C 2004.11,1444.2 2000.28,1437.03 1997,1429.5C 1994.27,1428.64 1994.1,1427.81 1996.5,1427C 1995.5,1425.33 1994.17,1424 1992.5,1423C 1992.83,1422.67 1993.17,1422.33 1993.5,1422C 1992.5,1421.67 1991.5,1421.33 1990.5,1421C 1990.83,1420.67 1991.17,1420.33 1991.5,1420C 1990.11,1417.33 1988.44,1414.83 1986.5,1412.5C 1983.21,1413.54 1982.88,1412.87 1985.5,1410.5C 1984.47,1409.55 1983.3,1409.55 1982,1410.5C 1980.73,1409.46 1979.56,1408.3 1978.5,1407C 1979.83,1406.33 1981.17,1405.67 1982.5,1405C 1980.25,1403.29 1978.58,1401.12 1977.5,1398.5C 1973.89,1399.26 1970.22,1399.76 1966.5,1400C 1966.04,1402.91 1966.04,1405.91 1966.5,1409C 1964.7,1409.32 1964.37,1409.98 1965.5,1411C 1963.43,1414.72 1962.1,1418.72 1961.5,1423C 1961.91,1426.62 1962.57,1430.45 1963.5,1434.5C 1963.02,1435.48 1962.36,1436.31 1961.5,1437C 1964.04,1437.93 1965.04,1439.76 1964.5,1442.5C 1961.92,1442.92 1959.75,1442.25 1958,1440.5C 1955.77,1442.37 1953.27,1443.21 1950.5,1443C 1950.96,1442.59 1951.29,1442.09 1951.5,1441.5C 1950,1440.16 1949.33,1438.49 1949.5,1436.5C 1948.45,1436.65 1947.45,1436.48 1946.5,1436C 1950.66,1432.97 1950.32,1430.47 1945.5,1428.5C 1946.61,1426.5 1946.28,1424.67 1944.5,1423C 1947.17,1422 1947.17,1421 1944.5,1420C 1945.17,1419.67 1945.83,1419.33 1946.5,1419C 1945.48,1418.48 1944.82,1417.65 1944.5,1416.5C 1945.3,1414.86 1946.3,1413.36 1947.5,1412C 1946.74,1410.49 1945.74,1409.15 1944.5,1408C 1948.85,1407.58 1949.19,1406.91 1945.5,1406C 1946.31,1403.91 1947.31,1401.91 1948.5,1400C 1948.17,1399.67 1947.83,1399.33 1947.5,1399C 1948.83,1398 1950.17,1397 1951.5,1396C 1950.5,1395.67 1949.5,1395.33 1948.5,1395C 1952.37,1393.65 1952.37,1392.49 1948.5,1391.5C 1951.43,1389.18 1951.09,1387.68 1947.5,1387C 1949.56,1385.28 1951.22,1383.28 1952.5,1381C 1952.05,1379.71 1951.38,1378.55 1950.5,1377.5C 1950.71,1376.91 1951.04,1376.41 1951.5,1376C 1948.9,1375.23 1946.4,1375.4 1944,1376.5C 1943.69,1377.77 1943.19,1378.93 1942.5,1380C 1942.83,1380.33 1943.17,1380.67 1943.5,1381C 1940.21,1381.25 1939.04,1382.75 1940,1385.5C 1937.53,1386.1 1935.53,1387.44 1934,1389.5C 1933.38,1390.45 1933.55,1391.28 1934.5,1392C 1931.05,1396.1 1928.05,1400.43 1925.5,1405C 1926.31,1405.31 1926.97,1405.81 1927.5,1406.5C 1925.91,1408.77 1924.41,1411.11 1923,1413.5C 1923.82,1417.45 1922.49,1420.79 1919,1423.5C 1917.58,1426.65 1917.75,1429.49 1919.5,1432C 1918.17,1434 1916.83,1436 1915.5,1438C 1916.48,1439.78 1916.15,1441.45 1914.5,1443C 1915.62,1444.04 1916.96,1444.71 1918.5,1445C 1916.22,1447.56 1914.88,1450.23 1914.5,1453C 1915.51,1457.42 1916.35,1461.92 1917,1466.5C 1919.56,1467.22 1920.72,1468.89 1920.5,1471.5C 1918.4,1471.8 1916.4,1471.47 1914.5,1470.5C 1913.15,1469.09 1911.82,1467.76 1910.5,1466.5C 1910.38,1468.48 1911.05,1470.15 1912.5,1471.5C 1910.6,1472.47 1908.6,1472.8 1906.5,1472.5C 1906.5,1471.17 1906.5,1469.83 1906.5,1468.5C 1904.39,1468.32 1902.73,1467.32 1901.5,1465.5C 1901.71,1464.91 1902.04,1464.41 1902.5,1464C 1899.03,1462.16 1898.03,1459.49 1899.5,1456C 1896.56,1454.54 1896.22,1452.87 1898.5,1451C 1895.32,1449.22 1895.32,1446.89 1898.5,1444C 1897.5,1443.67 1896.5,1443.33 1895.5,1443C 1896.83,1442 1896.83,1441 1895.5,1440C 1896.61,1438.43 1897.95,1437.1 1899.5,1436C 1897.56,1435.19 1895.56,1434.69 1893.5,1434.5C 1893.72,1431.31 1895.22,1430.31 1898,1431.5C 1898.48,1430.55 1898.65,1429.55 1898.5,1428.5C 1897.02,1428.76 1895.69,1428.43 1894.5,1427.5C 1895.11,1425.29 1895.77,1423.12 1896.5,1421C 1896.04,1420.59 1895.71,1420.09 1895.5,1419.5C 1896.99,1418.17 1898.32,1416.67 1899.5,1415C 1901.09,1415.62 1902.43,1415.28 1903.5,1414C 1900.83,1413.33 1900.83,1412.67 1903.5,1412C 1898.61,1411.88 1898.27,1410.55 1902.5,1408C 1901.95,1406.6 1901.62,1405.27 1901.5,1404C 1904.8,1399.96 1906.13,1395.46 1905.5,1390.5C 1906.5,1389.83 1907.5,1389.17 1908.5,1388.5C 1907.53,1387.04 1907.86,1385.7 1909.5,1384.5C 1903.99,1384.02 1898.65,1382.85 1893.5,1381C 1892.55,1377.94 1892.22,1374.78 1892.5,1371.5C 1891.13,1371.34 1889.79,1371.51 1888.5,1372C 1889.98,1376.9 1888.65,1380.9 1884.5,1384C 1884.61,1387.68 1883.44,1391.18 1881,1394.5C 1880.4,1400.29 1878.9,1405.79 1876.5,1411C 1877.17,1412 1877.83,1413 1878.5,1414C 1875.83,1416 1875.83,1418 1878.5,1420C 1875.52,1421.28 1874.52,1423.28 1875.5,1426C 1874.58,1429.12 1873.58,1432.28 1872.5,1435.5C 1873.17,1436.5 1873.83,1437.5 1874.5,1438.5C 1873.97,1439.19 1873.31,1439.69 1872.5,1440C 1874.69,1440.68 1875.02,1441.84 1873.5,1443.5C 1874.52,1444.85 1875.85,1445.85 1877.5,1446.5C 1875.77,1447.6 1874.1,1448.76 1872.5,1450C 1873.87,1451.24 1874.87,1452.74 1875.5,1454.5C 1874.1,1455.85 1873.44,1457.52 1873.5,1459.5C 1873.99,1465.13 1875.32,1470.46 1877.5,1475.5C 1875.5,1475.5 1873.5,1475.5 1871.5,1475.5C 1871.5,1476.5 1871.5,1477.5 1871.5,1478.5C 1870.13,1478.66 1868.79,1478.49 1867.5,1478C 1868.83,1477.33 1868.83,1476.67 1867.5,1476C 1868.33,1475.09 1869.33,1474.42 1870.5,1474C 1867.77,1473.82 1865.11,1473.32 1862.5,1472.5C 1863.97,1470.61 1865.64,1468.94 1867.5,1467.5C 1866.03,1467.28 1864.53,1466.94 1863,1466.5C 1862.36,1465.39 1861.86,1464.22 1861.5,1463C 1862.63,1461.94 1863.13,1460.78 1863,1459.5C 1856.46,1460.79 1855.96,1459.63 1861.5,1456C 1860.83,1454.67 1859.83,1453.67 1858.5,1453C 1859.7,1449.06 1859.7,1445.06 1858.5,1441C 1858.95,1439.55 1859.61,1438.22 1860.5,1437C 1860.79,1433 1860.46,1429.17 1859.5,1425.5C 1862.76,1421.31 1862.1,1417.97 1857.5,1415.5C 1859.59,1414.46 1861.25,1412.96 1862.5,1411C 1861.33,1410.58 1860.33,1409.91 1859.5,1409C 1862.3,1408.56 1863.3,1407.23 1862.5,1405C 1865.15,1401.56 1865.82,1397.72 1864.5,1393.5C 1865.09,1392.2 1866.09,1391.37 1867.5,1391C 1866.9,1389.37 1867.24,1387.71 1868.5,1386C 1867.69,1385.69 1867.03,1385.19 1866.5,1384.5C 1870.38,1383.7 1871.05,1382.04 1868.5,1379.5C 1871.62,1378.31 1871.95,1376.81 1869.5,1375C 1870.83,1374.67 1872.17,1374.33 1873.5,1374C 1872.66,1372.99 1872.33,1371.82 1872.5,1370.5C 1867.68,1370.72 1864.02,1372.88 1861.5,1377C 1862.17,1377.33 1862.83,1377.67 1863.5,1378C 1861.54,1380.81 1858.88,1382.31 1855.5,1382.5C 1855.72,1383.68 1855.39,1384.68 1854.5,1385.5C 1851,1386.44 1849.5,1388.44 1850,1391.5C 1848.64,1392.38 1847.14,1392.71 1845.5,1392.5C 1845.33,1393.82 1845.66,1394.99 1846.5,1396C 1844.29,1397.27 1841.95,1398.27 1839.5,1399C 1840.31,1399.31 1840.97,1399.81 1841.5,1400.5C 1839.39,1401.92 1837.39,1403.42 1835.5,1405C 1835.83,1405.33 1836.17,1405.67 1836.5,1406C 1831.5,1411 1826.5,1416 1821.5,1421C 1811.02,1424.81 1800.35,1426.31 1789.5,1425.5C 1789.32,1423.06 1789.98,1420.9 1791.5,1419C 1790.48,1418.48 1789.82,1417.65 1789.5,1416.5C 1790.11,1413.85 1790.61,1411.19 1791,1408.5C 1792.01,1407.66 1793.18,1407.33 1794.5,1407.5C 1795.94,1403.54 1798.44,1400.2 1802,1397.5C 1804.71,1392.88 1808.21,1389.05 1812.5,1386C 1811.69,1385.69 1811.03,1385.19 1810.5,1384.5C 1811.91,1383.38 1813.41,1382.38 1815,1381.5C 1817.25,1377.04 1819.75,1372.7 1822.5,1368.5C 1823.17,1368.83 1823.83,1369.17 1824.5,1369.5C 1825.62,1368.09 1826.62,1366.59 1827.5,1365C 1829.97,1364.89 1831.97,1363.89 1833.5,1362C 1832.09,1361.63 1831.09,1360.8 1830.5,1359.5C 1832.5,1356.83 1834.83,1354.5 1837.5,1352.5C 1838.75,1350.68 1839.41,1348.68 1839.5,1346.5C 1843.54,1346.31 1846.54,1344.47 1848.5,1341C 1847.4,1339.32 1847.73,1337.82 1849.5,1336.5C 1850.73,1335.72 1852.06,1335.22 1853.5,1335C 1853.04,1334.59 1852.71,1334.09 1852.5,1333.5C 1854.16,1332.18 1855.33,1330.52 1856,1328.5C 1857.4,1327.77 1858.9,1327.27 1860.5,1327C 1858.52,1326.39 1858.19,1325.39 1859.5,1324C 1861.94,1324.05 1864.27,1323.89 1866.5,1323.5C 1863.17,1321.25 1863.17,1319.75 1866.5,1319C 1867.63,1317.98 1867.3,1317.32 1865.5,1317C 1866.67,1316.58 1867.67,1315.91 1868.5,1315C 1870.31,1315.05 1871.98,1314.88 1873.5,1314.5C 1874.35,1312.59 1874.68,1310.59 1874.5,1308.5C 1877.92,1308.4 1880.92,1307.23 1883.5,1305C 1883.04,1304.59 1882.71,1304.09 1882.5,1303.5C 1884.75,1301.26 1886.08,1298.6 1886.5,1295.5C 1892.28,1293.4 1896.94,1289.74 1900.5,1284.5C 1901.09,1284.71 1901.59,1285.04 1902,1285.5C 1903.5,1283.33 1905,1281.17 1906.5,1279C 1912.22,1277.25 1916.22,1273.58 1918.5,1268C 1918.17,1267.67 1917.83,1267.33 1917.5,1267C 1918.78,1266.32 1919.95,1266.48 1921,1267.5C 1922.57,1266.02 1923.91,1264.35 1925,1262.5C 1923.18,1255.98 1925.18,1254.31 1931,1257.5C 1931.83,1256.67 1932.67,1255.83 1933.5,1255C 1929.88,1252.93 1929.55,1250.43 1932.5,1247.5C 1934.26,1247.31 1936.1,1247.31 1938,1247.5C 1937.75,1245.08 1937.75,1242.74 1938,1240.5C 1941.45,1242.88 1943.95,1241.88 1945.5,1237.5C 1946.32,1236.61 1947.32,1236.28 1948.5,1236.5C 1951.7,1229.56 1954.7,1222.56 1957.5,1215.5C 1959.37,1215.05 1961.2,1214.38 1963,1213.5C 1968.24,1217.64 1971.74,1222.97 1973.5,1229.5C 1971.99,1232.16 1970.32,1234.66 1968.5,1237C 1970.13,1237.49 1971.8,1237.66 1973.5,1237.5C 1973.5,1236.5 1973.5,1235.5 1973.5,1234.5C 1976.57,1233.8 1979.57,1232.8 1982.5,1231.5C 1984.07,1232.31 1985.74,1232.64 1987.5,1232.5C 1995.52,1175.76 2009.19,1120.42 2028.5,1066.5 Z M 1968.5,1239.5 C 1971,1239.51 1971.17,1240.18 1969,1241.5C 1968.54,1240.91 1968.37,1240.24 1968.5,1239.5 Z M 2037.5,1288.5 C 2038.69,1289.68 2039.85,1289.68 2041,1288.5C 2042.24,1289.4 2043.07,1290.57 2043.5,1292C 2041.84,1294.97 2040.67,1298.14 2040,1301.5C 2038.15,1298.99 2036.32,1296.49 2034.5,1294C 2035.64,1291.82 2036.64,1289.98 2037.5,1288.5 Z M 1975.5,1292.5 C 1978,1292.51 1978.17,1293.18 1976,1294.5C 1975.54,1293.91 1975.37,1293.24 1975.5,1292.5 Z M 1969.5,1298.5 C 1970.55,1298.35 1971.55,1298.52 1972.5,1299C 1971.12,1300.93 1969.62,1302.76 1968,1304.5C 1967.81,1306.9 1967.31,1309.23 1966.5,1311.5C 1964.36,1312.81 1962.36,1314.31 1960.5,1316C 1961.5,1317 1962.5,1318 1963.5,1319C 1959.52,1320.87 1956.19,1323.2 1953.5,1326C 1954.02,1325.44 1954.36,1324.77 1954.5,1324C 1953.7,1322.91 1953.04,1321.74 1952.5,1320.5C 1953.81,1317.66 1954.81,1314.66 1955.5,1311.5C 1961.58,1308.42 1966.24,1304.08 1969.5,1298.5 Z M 1838.5,1378.5 C 1840.46,1375.56 1842.46,1372.56 1844.5,1369.5C 1844.29,1368.91 1843.96,1368.41 1843.5,1368C 1844.67,1366.92 1846,1366.08 1847.5,1365.5C 1848.45,1363.95 1848.79,1362.29 1848.5,1360.5C 1849.93,1360.58 1851.26,1360.25 1852.5,1359.5C 1854.97,1355.86 1857.63,1352.36 1860.5,1349C 1862.23,1349.41 1863.89,1349.24 1865.5,1348.5C 1863.07,1345.19 1864.07,1343.19 1868.5,1342.5C 1869.25,1339.48 1871.09,1337.15 1874,1335.5C 1874.49,1334.21 1874.66,1332.87 1874.5,1331.5C 1875.83,1331.5 1877.17,1331.5 1878.5,1331.5C 1879.38,1329.09 1880.55,1326.76 1882,1324.5C 1883.07,1323.81 1884.23,1323.31 1885.5,1323C 1886.1,1319.56 1888.1,1317.73 1891.5,1317.5C 1891.28,1316.32 1891.61,1315.32 1892.5,1314.5C 1896.08,1311.08 1900.25,1308.75 1905,1307.5C 1906.28,1307.61 1907.11,1308.28 1907.5,1309.5C 1903.94,1310.14 1900.61,1311.31 1897.5,1313C 1898.46,1314.15 1898.12,1315.15 1896.5,1316C 1899.31,1317.59 1899.98,1319.75 1898.5,1322.5C 1895.58,1323.8 1892.58,1324.8 1889.5,1325.5C 1889.18,1327.72 1889.84,1329.56 1891.5,1331C 1889.83,1331.33 1888.17,1331.67 1886.5,1332C 1885.17,1333 1885.17,1334 1886.5,1335C 1884.87,1336.31 1883.2,1336.81 1881.5,1336.5C 1876.64,1340.87 1871.64,1345.03 1866.5,1349C 1867.17,1349.67 1867.83,1350.33 1868.5,1351C 1864.99,1352 1862.32,1353.5 1860.5,1355.5C 1859.29,1356.27 1859.29,1357.11 1860.5,1358C 1856.48,1359.97 1853.48,1362.8 1851.5,1366.5C 1850.5,1366.5 1849.5,1366.5 1848.5,1366.5C 1848.5,1367.5 1848.5,1368.5 1848.5,1369.5C 1847.5,1369.5 1846.5,1369.5 1845.5,1369.5C 1845.31,1374.24 1842.97,1377.24 1838.5,1378.5 Z M 1941.5,1335.5 C 1943.44,1337.01 1943.94,1339.01 1943,1341.5C 1941.4,1343.04 1939.57,1343.54 1937.5,1343C 1939.75,1341.95 1940.09,1340.45 1938.5,1338.5C 1939.99,1337.86 1940.99,1336.86 1941.5,1335.5 Z M 2051.5,1350.5 C 2053.58,1352.08 2055.58,1353.91 2057.5,1356C 2056.83,1356.33 2056.17,1356.67 2055.5,1357C 2059.87,1359.86 2063.87,1363.19 2067.5,1367C 2066.17,1368.33 2064.83,1369.67 2063.5,1371C 2059.73,1372.42 2056.07,1374.09 2052.5,1376C 2051.06,1376.78 2049.72,1376.61 2048.5,1375.5C 2045.41,1371.38 2042.91,1367.38 2041,1363.5C 2040.51,1361.87 2040.34,1360.2 2040.5,1358.5C 2042.98,1358.95 2044.98,1358.28 2046.5,1356.5C 2045.19,1355.74 2044.69,1354.74 2045,1353.5C 2047.17,1352.27 2049.33,1351.27 2051.5,1350.5 Z M 1905.5,1356.5 C 1906.27,1357.17 1906.93,1358.01 1907.5,1359C 1904.95,1363.72 1903.62,1368.55 1903.5,1373.5C 1902.59,1372.67 1901.92,1371.67 1901.5,1370.5C 1903.3,1366.7 1903.97,1362.86 1903.5,1359C 1904.76,1358.58 1905.42,1357.75 1905.5,1356.5 Z M 1876.5,1363.5 C 1877.77,1364.08 1877.77,1364.74 1876.5,1365.5C 1875.54,1365.03 1875.54,1364.36 1876.5,1363.5 Z M 1872.5,1370.5 C 1872.49,1368.98 1871.82,1367.82 1870.5,1367C 1872.17,1366.88 1873.84,1367.21 1875.5,1368C 1874.92,1369.42 1873.92,1370.25 1872.5,1370.5 Z M 1915.5,1375.5 C 1918,1375.51 1918.17,1376.18 1916,1377.5C 1915.54,1376.91 1915.37,1376.24 1915.5,1375.5 Z M 1837.5,1380.5 C 1836.18,1382.82 1834.51,1384.82 1832.5,1386.5C 1832.87,1383.47 1834.54,1381.47 1837.5,1380.5 Z M 1828.5,1391.5 C 1828.64,1389.66 1829.31,1389.33 1830.5,1390.5C 1830.04,1391.3 1829.38,1391.63 1828.5,1391.5 Z M 1909.5,1464.5 C 1910.34,1464.84 1910.67,1465.51 1910.5,1466.5C 1908.3,1466.59 1907.97,1465.92 1909.5,1464.5 Z"/></g>
<g><path style="opacity:1" fill="#e66117" d="M 1011.5,1076.5 C 1104.94,1110.64 1198.6,1143.98 1292.5,1176.5C 1268.84,1227.81 1246.84,1279.81 1226.5,1332.5C 1206.7,1317.09 1185.37,1303.92 1162.5,1293C 1153.87,1288.41 1147.04,1290.24 1142,1298.5C 1140.68,1304.52 1142.18,1309.69 1146.5,1314C 1172.84,1322.89 1197.17,1335.39 1219.5,1351.5C 1204.43,1390.39 1189.76,1429.39 1175.5,1468.5C 1167.74,1438.79 1151.08,1415.62 1125.5,1399C 1101.75,1387.89 1077.42,1386.55 1052.5,1395C 1019.5,1410.33 994.667,1434.17 978,1466.5C 950.299,1519.49 946.299,1574.16 966,1630.5C 987.625,1679.23 1024.46,1698.06 1076.5,1687C 1087.91,1682.79 1098.58,1677.29 1108.5,1670.5C 1085.98,1745.54 1064.48,1821.2 1044,1897.5C 1043.5,1899.54 1042.34,1900.88 1040.5,1901.5C 944.257,1876.77 848.257,1851.44 752.5,1825.5C 775.841,1736.82 801.508,1648.82 829.5,1561.5C 855.495,1522.88 869.495,1480.22 871.5,1433.5C 912.268,1312.2 958.935,1193.2 1011.5,1076.5 Z"/></g>
<g><path style="opacity:0.998" fill="#9b471f" d="M 1292.5,1176.5 C 1309.45,1181.49 1326.45,1186.32 1343.5,1191C 1394.58,1204.68 1446.58,1212.18 1499.5,1213.5C 1511.17,1213.5 1522.83,1213.5 1534.5,1213.5C 1457.97,1386.92 1389.47,1563.58 1329,1743.5C 1243.32,2006.89 1181.99,2275.89 1145,2550.5C 1145.01,2554.65 1143.18,2557.65 1139.5,2559.5C 1131.86,2562.91 1123.86,2565.41 1115.5,2567C 1102.56,2568.89 1089.56,2570.23 1076.5,2571C 1014.45,2572.39 952.446,2571.23 890.5,2567.5C 890.5,2567.17 890.5,2566.83 890.5,2566.5C 931.424,2355.83 978.424,2146.83 1031.5,1939.5C 1045.87,1930.65 1059.87,1921.15 1073.5,1911C 1067.1,1909.32 1060.77,1907.48 1054.5,1905.5C 1049.57,1904.68 1044.9,1903.34 1040.5,1901.5C 1042.34,1900.88 1043.5,1899.54 1044,1897.5C 1064.48,1821.2 1085.98,1745.54 1108.5,1670.5C 1113.27,1666.91 1117.93,1663.08 1122.5,1659C 1126.08,1655.92 1129.08,1652.42 1131.5,1648.5C 1153.4,1634.21 1165.4,1613.88 1167.5,1587.5C 1179.14,1557.32 1183.3,1525.99 1180,1493.5C 1179.1,1485.04 1177.6,1476.71 1175.5,1468.5C 1189.76,1429.39 1204.43,1390.39 1219.5,1351.5C 1259.88,1382.61 1292.04,1420.61 1316,1465.5C 1326.02,1483.91 1334.69,1502.91 1342,1522.5C 1326.53,1465.43 1300.2,1414.09 1263,1368.5C 1251.6,1355.6 1239.44,1343.6 1226.5,1332.5C 1246.84,1279.81 1268.84,1227.81 1292.5,1176.5 Z"/></g>
<g><path style="opacity:0.987" fill="#050200" d="M 672.5,1271.5 C 659.553,1277.81 646.886,1284.31 634.5,1291C 647.506,1280.83 661.172,1271.67 675.5,1263.5C 709.037,1243.4 744.704,1228.23 782.5,1218C 830.309,1206.39 877.976,1206.72 925.5,1219C 927.378,1220.54 928.878,1222.38 930,1224.5C 932.225,1235.09 928.058,1241.09 917.5,1242.5C 897.902,1236.43 877.902,1232.27 857.5,1230C 791.515,1225.08 729.848,1238.92 672.5,1271.5 Z"/></g>
<g><path style="opacity:1" fill="#040100" d="M 1226.5,1332.5 C 1239.44,1343.6 1251.6,1355.6 1263,1368.5C 1300.2,1414.09 1326.53,1465.43 1342,1522.5C 1334.69,1502.91 1326.02,1483.91 1316,1465.5C 1292.04,1420.61 1259.88,1382.61 1219.5,1351.5C 1197.17,1335.39 1172.84,1322.89 1146.5,1314C 1142.18,1309.69 1140.68,1304.52 1142,1298.5C 1147.04,1290.24 1153.87,1288.41 1162.5,1293C 1185.37,1303.92 1206.7,1317.09 1226.5,1332.5 Z"/></g>
<g><path style="opacity:1" fill="#fefefd" d="M 871.5,1433.5 C 869.495,1480.22 855.495,1522.88 829.5,1561.5C 814.696,1582.14 796.029,1598.3 773.5,1610C 752.754,1620.06 731.42,1621.73 709.5,1615C 683.234,1604.07 665.068,1585.23 655,1558.5C 633.283,1491.18 640.617,1427.18 677,1366.5C 693.481,1338.68 716.315,1317.85 745.5,1304C 787.836,1289.34 822.003,1300.17 848,1336.5C 865.713,1366.35 873.546,1398.69 871.5,1433.5 Z"/></g>
<g><path style="opacity:1" fill="#fefefd" d="M 1175.5,1468.5 C 1177.6,1476.71 1179.1,1485.04 1180,1493.5C 1183.3,1525.99 1179.14,1557.32 1167.5,1587.5C 1165.35,1542.18 1141.85,1516.18 1097,1509.5C 1099.51,1514.21 1101.85,1519.21 1104,1524.5C 1107.2,1550.3 1095.87,1564.63 1070,1567.5C 1057.39,1566.9 1047.72,1561.23 1041,1550.5C 1039.12,1545.85 1037.45,1541.18 1036,1536.5C 1015.6,1563.58 1013.26,1592.25 1029,1622.5C 1052.12,1655.63 1082.95,1665.79 1121.5,1653C 1124.74,1651.21 1128.07,1649.71 1131.5,1648.5C 1129.08,1652.42 1126.08,1655.92 1122.5,1659C 1117.93,1663.08 1113.27,1666.91 1108.5,1670.5C 1098.58,1677.29 1087.91,1682.79 1076.5,1687C 1024.46,1698.06 987.625,1679.23 966,1630.5C 946.299,1574.16 950.299,1519.49 978,1466.5C 994.667,1434.17 1019.5,1410.33 1052.5,1395C 1077.42,1386.55 1101.75,1387.89 1125.5,1399C 1151.08,1415.62 1167.74,1438.79 1175.5,1468.5 Z"/></g>
<g><path style="opacity:0.5" fill="#af4f4e" d="M 1977.5,1401.5 C 1978.04,1401.56 1978.38,1401.89 1978.5,1402.5C 1977.64,1403.58 1976.64,1403.75 1975.5,1403C 1976.42,1402.72 1977.08,1402.22 1977.5,1401.5 Z"/></g>
<g><path style="opacity:0.388" fill="#af4f4e" d="M 1985.5,1416.5 C 1988.8,1416.33 1989.13,1417 1986.5,1418.5C 1985.7,1418.04 1985.37,1417.38 1985.5,1416.5 Z"/></g>
<g><path style="opacity:1" fill="#010101" d="M 777.5,1426.5 C 810.084,1428.42 832.584,1444.75 845,1475.5C 854.267,1511.03 844.434,1539.87 815.5,1562C 793.604,1574.53 770.604,1576.87 746.5,1569C 714.839,1553.85 699.339,1528.69 700,1493.5C 701.624,1477.59 707.624,1463.59 718,1451.5C 721.834,1473 734.667,1483.5 756.5,1483C 779.732,1477.05 789.232,1462.22 785,1438.5C 783.226,1433.93 780.726,1429.93 777.5,1426.5 Z"/></g>
<g><path style="opacity:1" fill="#010101" d="M 1167.5,1587.5 C 1165.4,1613.88 1153.4,1634.21 1131.5,1648.5C 1128.07,1649.71 1124.74,1651.21 1121.5,1653C 1082.95,1665.79 1052.12,1655.63 1029,1622.5C 1013.26,1592.25 1015.6,1563.58 1036,1536.5C 1037.45,1541.18 1039.12,1545.85 1041,1550.5C 1047.72,1561.23 1057.39,1566.9 1070,1567.5C 1095.87,1564.63 1107.2,1550.3 1104,1524.5C 1101.85,1519.21 1099.51,1514.21 1097,1509.5C 1141.85,1516.18 1165.35,1542.18 1167.5,1587.5 Z"/></g>
<g><path style="opacity:1" fill="#72324f" d="M 611.5,1788.5 C 618.808,1814.47 626.141,1840.47 633.5,1866.5C 633.818,1867.65 634.484,1868.48 635.5,1869C 740.323,1897.41 844.989,1926.41 949.5,1956C 952.768,1957.21 956.101,1957.55 959.5,1957C 991.548,1940.31 1023.21,1923.15 1054.5,1905.5C 1060.77,1907.48 1067.1,1909.32 1073.5,1911C 1059.87,1921.15 1045.87,1930.65 1031.5,1939.5C 986.845,1969.24 938.845,1992.41 887.5,2009C 875.636,2012.47 863.636,2015.3 851.5,2017.5C 844.269,2010.87 836.602,2004.71 828.5,1999C 814.225,1989.72 800.225,1980.06 786.5,1970C 747.339,1948.33 705.339,1938.83 660.5,1941.5C 655.442,1934.4 650.608,1927.07 646,1919.5C 623.368,1877.27 606.868,1832.77 596.5,1786C 601.541,1786.34 606.541,1787.17 611.5,1788.5 Z"/></g>
<g><path style="opacity:1" fill="#f4f0e7" d="M 611.5,1788.5 C 658.404,1801.21 705.404,1813.55 752.5,1825.5C 848.257,1851.44 944.257,1876.77 1040.5,1901.5C 1044.9,1903.34 1049.57,1904.68 1054.5,1905.5C 1023.21,1923.15 991.548,1940.31 959.5,1957C 956.101,1957.55 952.768,1957.21 949.5,1956C 844.989,1926.41 740.323,1897.41 635.5,1869C 634.484,1868.48 633.818,1867.65 633.5,1866.5C 626.141,1840.47 618.808,1814.47 611.5,1788.5 Z"/></g>
<g><path style="opacity:1" fill="#e66117" d="M 1031.5,1939.5 C 978.424,2146.83 931.424,2355.83 890.5,2566.5C 825.971,2563.65 761.638,2558.49 697.5,2551C 669.463,2546.66 641.463,2542.16 613.5,2537.5C 608.512,2536.6 603.512,2535.6 598.5,2534.5C 597.406,2524.2 597.24,2513.87 598,2503.5C 630.764,2332.18 667.93,2161.85 709.5,1992.5C 753.339,2020.4 800.672,2028.73 851.5,2017.5C 863.636,2015.3 875.636,2012.47 887.5,2009C 938.845,1992.41 986.845,1969.24 1031.5,1939.5 Z"/></g>
<g><path style="opacity:1" fill="#c1010c" d="M 660.5,1941.5 C 705.339,1938.83 747.339,1948.33 786.5,1970C 800.225,1980.06 814.225,1989.72 828.5,1999C 836.602,2004.71 844.269,2010.87 851.5,2017.5C 800.672,2028.73 753.339,2020.4 709.5,1992.5C 690.11,1978.44 673.776,1961.44 660.5,1941.5 Z"/></g>
<g><path style="opacity:0.994" fill="#f8e4b6" d="M 404.5,2477.5 C 411.499,2482.97 419.166,2487.47 427.5,2491C 442.544,2497.13 457.877,2502.46 473.5,2507C 514.745,2518.1 556.412,2527.26 598.5,2534.5C 603.512,2535.6 608.512,2536.6 613.5,2537.5C 624.073,2697.14 638.073,2856.47 655.5,3015.5C 621.412,2954.66 589.912,2892.33 561,2828.5C 508.925,2711.43 456.758,2594.43 404.5,2477.5 Z"/></g>
<g><path style="opacity:1" fill="#f7ddb7" d="M 613.5,2537.5 C 641.463,2542.16 669.463,2546.66 697.5,2551C 761.638,2558.49 825.971,2563.65 890.5,2566.5C 890.5,2566.83 890.5,2567.17 890.5,2567.5C 884.875,2589.67 879.375,2612 874,2634.5C 869.535,2648.9 864.868,2663.23 860,2677.5C 830.137,2757.42 800.47,2837.42 771,2917.5C 758.72,2951.84 747.553,2986.51 737.5,3021.5C 712.822,3021.43 688.156,3021.93 663.5,3023C 674.753,3042.67 685.087,3062.84 694.5,3083.5C 680.492,3061.49 667.492,3038.83 655.5,3015.5C 638.073,2856.47 624.073,2697.14 613.5,2537.5 Z"/></g>
<g><path style="opacity:0.996" fill="#ebddc0" d="M 1139.5,2559.5 C 1021.11,2716.24 909.775,2877.91 805.5,3044.5C 808.21,3036.74 811.21,3029.08 814.5,3021.5C 788.872,3021.39 763.205,3021.39 737.5,3021.5C 747.553,2986.51 758.72,2951.84 771,2917.5C 800.47,2837.42 830.137,2757.42 860,2677.5C 864.868,2663.23 869.535,2648.9 874,2634.5C 879.375,2612 884.875,2589.67 890.5,2567.5C 952.446,2571.23 1014.45,2572.39 1076.5,2571C 1089.56,2570.23 1102.56,2568.89 1115.5,2567C 1123.86,2565.41 1131.86,2562.91 1139.5,2559.5 Z"/></g>
<g><path style="opacity:0.991" fill="#000000" d="M 805.5,3044.5 C 796.224,3071.49 786.057,3098.16 775,3124.5C 770.509,3134.15 765.509,3143.48 760,3152.5C 751.583,3162.19 742.583,3162.85 733,3154.5C 719.296,3133.1 707.13,3110.77 696.5,3087.5C 696.771,3085.62 696.104,3084.29 694.5,3083.5C 685.087,3062.84 674.753,3042.67 663.5,3023C 688.156,3021.93 712.822,3021.43 737.5,3021.5C 763.205,3021.39 788.872,3021.39 814.5,3021.5C 811.21,3029.08 808.21,3036.74 805.5,3044.5 Z"/></g>
<g><path style="opacity:0.561" fill="#8c7d68" d="M 694.5,3083.5 C 696.104,3084.29 696.771,3085.62 696.5,3087.5C 695.326,3086.49 694.66,3085.15 694.5,3083.5 Z"/></g>
</svg>
