<?xml version="1.0" encoding="UTF-8"?>
<!DOCTYPE svg PUBLIC "-//W3C//DTD SVG 1.1//EN" "http://www.w3.org/Graphics/SVG/1.1/DTD/svg11.dtd">
<svg xmlns="http://www.w3.org/2000/svg" version="1.1" width="2551px" height="3301px" style="shape-rendering:geometricPrecision; text-rendering:geometricPrecision; image-rendering:optimizeQuality; fill-rule:evenodd; clip-rule:evenodd" xmlns:xlink="http://www.w3.org/1999/xlink">
<g><path style="opacity:0.998" fill="#4e74b3" d="M 2110.5,1010.5 C 1616.95,803.557 1123.28,596.891 629.5,390.5C 632.377,382.409 635.543,374.409 639,366.5C 640.458,365.253 641.958,365.253 643.5,366.5C 692.25,289.335 740.75,212.002 789,134.5C 789.725,133.941 790.558,133.608 791.5,133.5C 1245.61,323.054 1699.61,512.888 2153.5,703C 2154.06,703.725 2154.39,704.558 2154.5,705.5C 2140.87,797.765 2128.03,890.098 2116,982.5C 2117.99,983.218 2119.82,984.218 2121.5,985.5C 2118.06,994.041 2114.39,1002.37 2110.5,1010.5 Z"/></g>
<g><path style="opacity:0.996" fill="#4e85bc" d="M 629.5,390.5 C 1123.28,596.891 1616.95,803.557 2110.5,1010.5C 2101.73,1034.03 2091.9,1057.03 2081,1079.5C 1954.08,1026.62 1827.25,973.623 1700.5,920.5C 1433.49,808.006 1166.16,696.006 898.5,584.5C 798.755,543.456 699.422,501.622 600.5,459C 609.704,435.862 619.371,413.029 629.5,390.5 Z"/></g>
<g><path style="opacity:0.997" fill="#4e76b2" d="M 898.5,584.5 C 1166.16,696.006 1433.49,808.006 1700.5,920.5C 1671.16,992.333 1641.33,1064 1611,1135.5C 1609.42,1137.04 1607.59,1138.21 1605.5,1139C 1590.75,1141.08 1576.09,1140.58 1561.5,1137.5C 1558.32,1136.68 1554.98,1136.01 1551.5,1135.5C 1551.39,1134.88 1551.06,1134.38 1550.5,1134C 1581.47,1093.74 1594.64,1048.24 1590,997.5C 1587.78,985.629 1584.78,973.963 1581,962.5C 1571.4,954.228 1561.23,946.728 1550.5,940C 1481.23,900.028 1409.89,863.695 1336.5,831C 1184.71,763.235 1031.38,699.068 876.5,638.5C 883.638,620.42 890.971,602.42 898.5,584.5 Z"/></g>
<g><path style="opacity:0.999" fill="#4f7cb7" d="M 876.5,638.5 C 1031.38,699.068 1184.71,763.235 1336.5,831C 1409.89,863.695 1481.23,900.028 1550.5,940C 1561.23,946.728 1571.4,954.228 1581,962.5C 1584.78,973.963 1587.78,985.629 1590,997.5C 1594.64,1048.24 1581.47,1093.74 1550.5,1134C 1551.06,1134.38 1551.39,1134.88 1551.5,1135.5C 1494.23,1122.92 1437.9,1106.75 1382.5,1087C 1238.89,1036.68 1099.22,977.014 963.5,908C 920.654,885.756 879.321,861.256 839.5,834.5C 827.918,827.087 818.085,817.753 810,806.5C 809.296,804.722 808.796,802.888 808.5,801C 830.522,746.469 853.189,692.302 876.5,638.5 Z"/></g>
<g><path style="opacity:0.999" fill="#9899a5" d="M 839.5,834.5 C 879.321,861.256 920.654,885.756 963.5,908C 1099.22,977.014 1238.89,1036.68 1382.5,1087C 1437.9,1106.75 1494.23,1122.92 1551.5,1135.5C 1554.98,1136.01 1558.32,1136.68 1561.5,1137.5C 1556.44,1151.28 1551.11,1164.95 1545.5,1178.5C 1414.4,1144.98 1284.73,1106.48 1156.5,1063C 1038.34,1013.09 925.012,954.594 816.5,887.5C 824.442,869.95 832.108,852.283 839.5,834.5 Z"/></g>
<g><path style="opacity:0.999" fill="#a5a5a4" d="M 816.5,887.5 C 925.012,954.594 1038.34,1013.09 1156.5,1063C 1284.73,1106.48 1414.4,1144.98 1545.5,1178.5C 1540.21,1192.73 1534.54,1206.73 1528.5,1220.5C 1472.81,1221.73 1417.81,1216.23 1363.5,1204C 1337.95,1197.87 1312.62,1191.04 1287.5,1183.5C 1193.59,1150.97 1099.93,1117.64 1006.5,1083.5C 954.153,1062.83 904.82,1036.66 858.5,1005C 834.787,987.123 812.787,967.289 792.5,945.5C 799.522,925.769 807.522,906.436 816.5,887.5 Z"/></g>
<g><path style="opacity:0.998" fill="#e67117" d="M 792.5,945.5 C 812.787,967.289 834.787,987.123 858.5,1005C 904.82,1036.66 954.153,1062.83 1006.5,1083.5C 1000.58,1093.68 995.413,1104.34 991,1115.5C 957.359,1193.6 926.193,1272.6 897.5,1352.5C 870.605,1310.25 833.272,1297.09 785.5,1313C 769.381,1319.97 755.381,1329.81 743.5,1342.5C 714.878,1357.39 700.211,1381.06 699.5,1413.5C 682.39,1458.01 682.223,1502.67 699,1547.5C 721.906,1597.7 760.073,1615.7 813.5,1601.5C 800.958,1643.12 788.625,1684.79 776.5,1726.5C 762.38,1727.87 749.38,1732.21 737.5,1739.5C 708.683,1754.49 687.516,1776.82 674,1806.5C 657.528,1846.3 656.194,1886.63 670,1927.5C 673.143,1936.45 677.309,1944.79 682.5,1952.5C 684.683,1957.53 687.517,1962.19 691,1966.5C 696.338,1972.67 701.838,1978.67 707.5,1984.5C 664.928,2158.19 626.762,2332.86 593,2508.5C 592.191,2519.58 592.358,2530.58 593.5,2541.5C 550.403,2533.82 507.736,2524.32 465.5,2513C 450.132,2508.66 435.132,2503.32 420.5,2497C 412.609,2493.23 405.276,2488.73 398.5,2483.5C 395.181,2479.87 393.848,2475.54 394.5,2470.5C 404.195,2229 442.028,1992 508,1759.5C 538.779,1651.16 572.779,1543.83 610,1437.5C 633.485,1370.54 657.651,1303.88 682.5,1237.5C 722.399,1220.54 764.065,1213.37 807.5,1216C 820.916,1217.37 834.249,1219.21 847.5,1221.5C 858.654,1221.21 863.154,1215.55 861,1204.5C 859.73,1200.23 856.896,1197.73 852.5,1197C 795.44,1189.46 740.773,1197.63 688.5,1221.5C 722.991,1129.35 757.657,1037.35 792.5,945.5 Z"/></g>
<g><path style="opacity:0.948" fill="#af4f4e" d="M 1867.5,1377.5 C 1863.84,1377.78 1860.51,1378.94 1857.5,1381C 1858.46,1382.15 1858.12,1383.15 1856.5,1384C 1857.45,1384.72 1857.62,1385.55 1857,1386.5C 1854.96,1388.6 1852.46,1389.77 1849.5,1390C 1849.96,1390.41 1850.29,1390.91 1850.5,1391.5C 1848.03,1392.76 1845.7,1394.26 1843.5,1396C 1845.57,1396.32 1845.9,1397.16 1844.5,1398.5C 1843.27,1399.28 1841.94,1399.78 1840.5,1400C 1839.36,1400.74 1839.36,1401.57 1840.5,1402.5C 1832.77,1410.08 1824.44,1418.58 1815.5,1428C 1813.04,1429.56 1810.38,1430.56 1807.5,1431C 1799.87,1432.14 1792.21,1432.64 1784.5,1432.5C 1784.1,1429.96 1784.77,1427.79 1786.5,1426C 1785.42,1425.33 1784.75,1424.33 1784.5,1423C 1785.59,1420.46 1785.76,1417.96 1785,1415.5C 1786.4,1414.77 1787.9,1414.27 1789.5,1414C 1789.17,1413 1788.83,1412 1788.5,1411C 1792.85,1408.31 1796.52,1404.98 1799.5,1401C 1800.5,1397.32 1803.17,1394.65 1807.5,1393C 1806.69,1392.69 1806.03,1392.19 1805.5,1391.5C 1808.85,1387.45 1812.18,1383.45 1815.5,1379.5C 1816.43,1378.31 1816.76,1376.98 1816.5,1375.5C 1820.08,1377.16 1821.75,1375.83 1821.5,1371.5C 1824.35,1371.97 1826.68,1371.14 1828.5,1369C 1825.97,1368.39 1825.13,1366.89 1826,1364.5C 1830.4,1361.98 1833.24,1358.64 1834.5,1354.5C 1838.22,1353.28 1841.22,1351.11 1843.5,1348C 1842.83,1347.33 1842.17,1346.67 1841.5,1346C 1843.51,1344.29 1845.51,1342.62 1847.5,1341C 1847.17,1340.67 1846.83,1340.33 1846.5,1340C 1848.84,1338.84 1850.17,1337 1850.5,1334.5C 1855.51,1334.99 1856.17,1334.16 1852.5,1332C 1852.83,1331.67 1853.17,1331.33 1853.5,1331C 1855.9,1330.63 1858.23,1330.63 1860.5,1331C 1860.83,1330.67 1861.17,1330.33 1861.5,1330C 1858.97,1329.39 1858.13,1327.89 1859,1325.5C 1859.41,1325.96 1859.91,1326.29 1860.5,1326.5C 1861.71,1325.73 1861.71,1324.89 1860.5,1324C 1862.5,1321.65 1864.84,1321.15 1867.5,1322.5C 1868.29,1320.54 1868.96,1318.54 1869.5,1316.5C 1871.89,1314.94 1874.39,1313.61 1877,1312.5C 1877.49,1310.87 1877.66,1309.2 1877.5,1307.5C 1880.47,1307.25 1881.8,1305.59 1881.5,1302.5C 1884.65,1300.59 1887.98,1298.76 1891.5,1297C 1892.83,1296.33 1892.83,1295.67 1891.5,1295C 1893.88,1294.94 1894.55,1294.1 1893.5,1292.5C 1894.65,1291.27 1895.82,1291.27 1897,1292.5C 1898.88,1290.47 1900.05,1288.14 1900.5,1285.5C 1902.56,1285.31 1904.56,1284.81 1906.5,1284C 1908.83,1281 1911.17,1278 1913.5,1275C 1913.17,1274.67 1912.83,1274.33 1912.5,1274C 1914.18,1273.97 1915.68,1273.8 1917,1273.5C 1917.79,1271.41 1918.96,1269.58 1920.5,1268C 1919.17,1266.33 1919.17,1264.67 1920.5,1263C 1922.74,1263.32 1924.91,1263.15 1927,1262.5C 1927.33,1260.95 1926.83,1259.62 1925.5,1258.5C 1925.93,1257.71 1926.26,1256.87 1926.5,1256C 1928.21,1255.87 1929.88,1255.04 1931.5,1253.5C 1932.09,1253.71 1932.59,1254.04 1933,1254.5C 1932.75,1252.08 1932.75,1249.74 1933,1247.5C 1934.31,1249.89 1935.31,1249.89 1936,1247.5C 1937.72,1248.55 1938.72,1247.89 1939,1245.5C 1940.31,1244.23 1941.81,1243.23 1943.5,1242.5C 1942.35,1240.42 1943.02,1238.92 1945.5,1238C 1944.76,1235.98 1945.6,1234.48 1948,1233.5C 1948.74,1229.51 1950.57,1225.68 1953.5,1222C 1955.36,1220.7 1957.36,1220.37 1959.5,1221C 1964.97,1225.73 1967.47,1231.56 1967,1238.5C 1966.29,1240.08 1965.46,1241.58 1964.5,1243C 1965.77,1243.31 1966.93,1243.81 1968,1244.5C 1968.25,1243.38 1968.75,1242.38 1969.5,1241.5C 1972.42,1240.82 1974.92,1239.48 1977,1237.5C 1978.24,1239.42 1979.74,1239.75 1981.5,1238.5C 1990.01,1182.48 2003.84,1127.81 2023,1074.5C 2023.31,1073.69 2023.81,1073.03 2024.5,1072.5C 2032.31,1076.08 2040.31,1079.08 2048.5,1081.5C 2033.07,1125.21 2021.07,1169.87 2012.5,1215.5C 2017.66,1225.16 2023.83,1234.16 2031,1242.5C 2032.15,1241.54 2033.15,1241.88 2034,1243.5C 2035.44,1242.74 2036.94,1242.07 2038.5,1241.5C 2041.19,1243.16 2043.52,1245.16 2045.5,1247.5C 2043.73,1251.11 2041.06,1253.94 2037.5,1256C 2039.47,1258.86 2040.14,1261.86 2039.5,1265C 2043.88,1270.25 2047.38,1276.09 2050,1282.5C 2051.67,1284.17 2053.33,1285.83 2055,1287.5C 2059.44,1296.04 2063.61,1304.71 2067.5,1313.5C 2067.17,1313.83 2066.83,1314.17 2066.5,1314.5C 2065.08,1312.86 2063.42,1312.03 2061.5,1312C 2068.46,1325.08 2074.96,1338.25 2081,1351.5C 2079.33,1349.5 2077.67,1347.5 2076,1345.5C 2076.91,1358.12 2082.74,1368.29 2093.5,1376C 2109.07,1383.12 2125.41,1387.45 2142.5,1389C 2150.17,1389.61 2157.84,1390.28 2165.5,1391C 2139.4,1391.58 2114.4,1386.91 2090.5,1377C 2093.7,1381.59 2097.7,1385.26 2102.5,1388C 2102.04,1388.41 2101.71,1388.91 2101.5,1389.5C 2102.06,1391.85 2102.73,1394.19 2103.5,1396.5C 2105.07,1397.31 2106.74,1397.64 2108.5,1397.5C 2108.5,1398.5 2108.5,1399.5 2108.5,1400.5C 2110.92,1400.19 2113.26,1400.53 2115.5,1401.5C 2099.64,1405.69 2083.64,1406.69 2067.5,1404.5C 2066.5,1404.17 2065.5,1403.83 2064.5,1403.5C 2067.3,1401.79 2070.3,1400.45 2073.5,1399.5C 2077.17,1396.75 2077.84,1393.58 2075.5,1390C 2074.55,1389.52 2073.55,1389.35 2072.5,1389.5C 2072.62,1387.52 2071.95,1385.85 2070.5,1384.5C 2065.2,1386.43 2059.87,1388.27 2054.5,1390C 2055.31,1390.31 2055.97,1390.81 2056.5,1391.5C 2045.03,1392.87 2033.69,1394.87 2022.5,1397.5C 2022.16,1402.34 2022.16,1406.84 2022.5,1411C 2025.32,1414.81 2027.49,1418.98 2029,1423.5C 2034.31,1427.89 2039.81,1431.89 2045.5,1435.5C 2040.99,1437.77 2036.15,1439.11 2031,1439.5C 2025.92,1438.69 2021.08,1437.52 2016.5,1436C 2013.88,1439.83 2014.71,1442.99 2019,1445.5C 2019.06,1449.79 2021.22,1452.29 2025.5,1453C 2018.32,1457.38 2010.65,1458.72 2002.5,1457C 2000.17,1452.67 1997.83,1448.33 1995.5,1444C 1994.64,1440.7 1992.64,1437.7 1989.5,1435C 1990.17,1434.67 1990.83,1434.33 1991.5,1434C 1990.5,1432.49 1989.16,1431.33 1987.5,1430.5C 1988.61,1428.79 1987.94,1428.12 1985.5,1428.5C 1985.42,1423.14 1983.08,1420.14 1978.5,1419.5C 1981.05,1416.87 1980.55,1416.21 1977,1417.5C 1975.67,1416 1974.17,1414.67 1972.5,1413.5C 1974.08,1412.7 1975.74,1412.2 1977.5,1412C 1974.89,1410.21 1973.39,1407.71 1973,1404.5C 1972.5,1405 1972,1405.5 1971.5,1406C 1968.17,1406.33 1964.83,1406.67 1961.5,1407C 1962.34,1408.01 1962.67,1409.18 1962.5,1410.5C 1959.42,1410.25 1958.76,1411.58 1960.5,1414.5C 1958.65,1419.56 1957.31,1424.72 1956.5,1430C 1957.75,1433.2 1957.75,1436.37 1956.5,1439.5C 1959.04,1440.94 1959.04,1442.44 1956.5,1444C 1959.04,1444.93 1960.04,1446.76 1959.5,1449.5C 1956.86,1449.84 1954.52,1449.17 1952.5,1447.5C 1950.83,1448.5 1949.17,1449.5 1947.5,1450.5C 1945.43,1450.18 1945.1,1449.34 1946.5,1448C 1945.15,1447.23 1944.32,1446.06 1944,1444.5C 1942.93,1443.81 1941.77,1443.31 1940.5,1443C 1942.84,1441.49 1943.84,1439.33 1943.5,1436.5C 1942.5,1436.5 1941.5,1436.5 1940.5,1436.5C 1940.76,1434.21 1940.42,1432.04 1939.5,1430C 1941.89,1428.69 1941.89,1427.69 1939.5,1427C 1941.8,1425.84 1941.46,1424.84 1938.5,1424C 1942.02,1421.31 1942.36,1418.31 1939.5,1415C 1940.83,1414.67 1942.17,1414.33 1943.5,1414C 1942.38,1413.75 1941.38,1413.25 1940.5,1412.5C 1942.26,1410.44 1942.59,1408.27 1941.5,1406C 1943.12,1405.38 1944.45,1404.38 1945.5,1403C 1943.2,1401.84 1943.54,1400.84 1946.5,1400C 1945.55,1399.52 1944.55,1399.35 1943.5,1399.5C 1943.3,1397.61 1943.96,1396.11 1945.5,1395C 1944.38,1394.75 1943.38,1394.25 1942.5,1393.5C 1944.54,1391.79 1946.21,1389.79 1947.5,1387.5C 1945.73,1386.18 1945.4,1384.68 1946.5,1383C 1946,1382.5 1945.5,1382 1945,1381.5C 1943.27,1382.25 1941.43,1382.75 1939.5,1383C 1937.47,1384.4 1937.14,1386.06 1938.5,1388C 1937.5,1388.33 1936.5,1388.67 1935.5,1389C 1935.33,1390.12 1935,1391.28 1934.5,1392.5C 1930.71,1393.74 1928.87,1396.07 1929,1399.5C 1925.78,1403.45 1922.95,1407.61 1920.5,1412C 1922.99,1413.25 1922.82,1414.42 1920,1415.5C 1919.02,1418.1 1917.86,1420.6 1916.5,1423C 1917.93,1424.71 1917.59,1426.05 1915.5,1427C 1915.83,1427.33 1916.17,1427.67 1916.5,1428C 1915.33,1428.5 1914.5,1429.33 1914,1430.5C 1913.69,1432.56 1913.19,1434.56 1912.5,1436.5C 1913.17,1437.17 1913.83,1437.83 1914.5,1438.5C 1912.25,1442.24 1910.25,1446.07 1908.5,1450C 1910.22,1450.52 1911.56,1451.52 1912.5,1453C 1910.92,1455.45 1909.92,1458.11 1909.5,1461C 1910.62,1465.17 1911.29,1469.67 1911.5,1474.5C 1914.5,1474.17 1915.83,1475.5 1915.5,1478.5C 1910.29,1478.8 1906.79,1476.47 1905,1471.5C 1904.5,1472 1904,1472.5 1903.5,1473C 1909.54,1478.65 1908.54,1480.48 1900.5,1478.5C 1900.02,1476.01 1898.69,1474.01 1896.5,1472.5C 1896.71,1471.91 1897.04,1471.41 1897.5,1471C 1894.53,1469.86 1892.86,1467.69 1892.5,1464.5C 1893.03,1463.81 1893.69,1463.31 1894.5,1463C 1891.27,1461.64 1890.6,1459.98 1892.5,1458C 1891.69,1457.69 1891.03,1457.19 1890.5,1456.5C 1891.83,1455.5 1891.83,1454.5 1890.5,1453.5C 1891.5,1452.67 1892.5,1451.83 1893.5,1451C 1892.38,1450.75 1891.38,1450.25 1890.5,1449.5C 1890.52,1447.08 1891.52,1444.75 1893.5,1442.5C 1891.33,1441.8 1889.33,1440.8 1887.5,1439.5C 1888.82,1437.73 1890.32,1437.4 1892,1438.5C 1892.69,1437.97 1893.19,1437.31 1893.5,1436.5C 1891.83,1435.83 1890.17,1435.17 1888.5,1434.5C 1889.03,1433.81 1889.69,1433.31 1890.5,1433C 1889.71,1430.56 1889.88,1428.06 1891,1425.5C 1891.75,1424.87 1892.58,1424.37 1893.5,1424C 1893.17,1423.67 1892.83,1423.33 1892.5,1423C 1893.95,1421.88 1895.62,1421.22 1897.5,1421C 1896.37,1419.98 1896.7,1419.32 1898.5,1419C 1897.21,1418.51 1895.87,1418.34 1894.5,1418.5C 1895.14,1416.2 1896.14,1414.03 1897.5,1412C 1896.55,1409.22 1897.55,1407.22 1900.5,1406C 1899.83,1405.67 1899.17,1405.33 1898.5,1405C 1899.22,1403.01 1900.22,1401.18 1901.5,1399.5C 1900.32,1397.53 1900.99,1396.2 1903.5,1395.5C 1902.12,1393.84 1902.46,1392.5 1904.5,1391.5C 1898.46,1391.27 1892.79,1389.77 1887.5,1387C 1887.24,1383.94 1887.07,1380.77 1887,1377.5C 1885.93,1378.19 1884.77,1378.69 1883.5,1379C 1884.58,1380.73 1884.74,1382.56 1884,1384.5C 1880.85,1389.62 1878.18,1394.95 1876,1400.5C 1875.72,1406.06 1874.22,1411.23 1871.5,1416C 1871.49,1417.58 1871.83,1419.25 1872.5,1421C 1870.84,1422.44 1870.18,1424.28 1870.5,1426.5C 1871.55,1426.35 1872.55,1426.52 1873.5,1427C 1870.7,1428.11 1869.7,1429.95 1870.5,1432.5C 1869.87,1434.26 1868.87,1435.76 1867.5,1437C 1868.31,1437.31 1868.97,1437.81 1869.5,1438.5C 1866.92,1440.71 1866.92,1442.88 1869.5,1445C 1866.97,1446.32 1866.97,1447.48 1869.5,1448.5C 1868.83,1449.17 1868.17,1449.83 1867.5,1450.5C 1869.05,1451.68 1870.71,1452.68 1872.5,1453.5C 1870.52,1454.22 1868.85,1455.38 1867.5,1457C 1868.89,1457.96 1869.56,1459.29 1869.5,1461C 1868.2,1462.76 1867.53,1464.42 1867.5,1466C 1868.8,1471.26 1870.46,1476.43 1872.5,1481.5C 1870.23,1482.31 1867.9,1482.81 1865.5,1483C 1866.83,1483.67 1866.83,1484.33 1865.5,1485C 1864.55,1485.48 1863.55,1485.65 1862.5,1485.5C 1862.5,1484.17 1862.5,1482.83 1862.5,1481.5C 1863.55,1481.65 1864.55,1481.48 1865.5,1481C 1862.85,1480.5 1860.19,1480.34 1857.5,1480.5C 1857.28,1479.32 1857.61,1478.32 1858.5,1477.5C 1864.06,1474.62 1863.72,1472.95 1857.5,1472.5C 1856.25,1470.96 1856.25,1469.46 1857.5,1468C 1855.74,1467.8 1854.08,1467.3 1852.5,1466.5C 1853.71,1465.13 1854.71,1463.63 1855.5,1462C 1853.72,1459.87 1853.39,1457.37 1854.5,1454.5C 1854.56,1451.95 1853.89,1449.62 1852.5,1447.5C 1853.5,1446.17 1854.5,1444.83 1855.5,1443.5C 1854.96,1442.25 1854.29,1441.09 1853.5,1440C 1854.19,1435.78 1855.19,1431.44 1856.5,1427C 1855.64,1424.95 1854.31,1423.28 1852.5,1422C 1854.52,1421.1 1856.18,1419.77 1857.5,1418C 1853.76,1416.49 1853.76,1415.66 1857.5,1415.5C 1858.56,1412.1 1859.56,1408.6 1860.5,1405C 1859.71,1402.9 1859.38,1400.73 1859.5,1398.5C 1860.55,1398.65 1861.55,1398.48 1862.5,1398C 1861.9,1396.37 1862.24,1394.71 1863.5,1393C 1862.69,1392.69 1862.03,1392.19 1861.5,1391.5C 1865.38,1390.7 1866.05,1389.04 1863.5,1386.5C 1866.62,1385.31 1866.95,1383.81 1864.5,1382C 1865.45,1381.52 1866.45,1381.35 1867.5,1381.5C 1867.5,1380.17 1867.5,1378.83 1867.5,1377.5 Z M 1945.5,1287.5 C 1945.51,1285 1946.18,1284.83 1947.5,1287C 1946.91,1287.46 1946.24,1287.63 1945.5,1287.5 Z M 2030.5,1298.5 C 2031.91,1296.53 2033.41,1295.19 2035,1294.5C 2036.17,1295.67 2037.33,1296.83 2038.5,1298C 2036.56,1299.82 2035.89,1301.82 2036.5,1304C 2035.77,1305.4 2035.27,1306.9 2035,1308.5C 2033.71,1306.21 2032.04,1304.21 2030,1302.5C 2029.42,1301.07 2029.59,1299.74 2030.5,1298.5 Z M 1949.5,1332.5 C 1949.21,1330.72 1948.55,1329.06 1947.5,1327.5C 1948.81,1324.66 1949.81,1321.66 1950.5,1318.5C 1956.58,1315.42 1961.24,1311.08 1964.5,1305.5C 1965.55,1305.35 1966.55,1305.52 1967.5,1306C 1964,1308.82 1962,1312.48 1961.5,1317C 1961.83,1317.33 1962.17,1317.67 1962.5,1318C 1959.89,1319.02 1957.56,1320.52 1955.5,1322.5C 1956.31,1323.81 1957.31,1324.98 1958.5,1326C 1954.97,1327.52 1951.97,1329.68 1949.5,1332.5 Z M 1892.5,1318.5 C 1893.5,1317.32 1894.34,1315.98 1895,1314.5C 1897.04,1314.82 1899.21,1314.98 1901.5,1315C 1901.96,1315.41 1902.29,1315.91 1902.5,1316.5C 1899.51,1317.23 1896.18,1317.9 1892.5,1318.5 Z M 1892.5,1318.5 C 1892.41,1319.5 1892.75,1320.33 1893.5,1321C 1892.69,1321.31 1892.03,1321.81 1891.5,1322.5C 1892.71,1323.87 1893.71,1325.37 1894.5,1327C 1894.26,1327.87 1893.93,1328.71 1893.5,1329.5C 1890.84,1330.5 1888.17,1331.5 1885.5,1332.5C 1884.32,1334.14 1884.32,1335.8 1885.5,1337.5C 1884.01,1338.24 1882.51,1338.91 1881,1339.5C 1880.38,1340.45 1880.55,1341.28 1881.5,1342C 1879.83,1342.33 1878.17,1342.67 1876.5,1343C 1871.53,1347.3 1866.53,1351.63 1861.5,1356C 1862.17,1356.67 1862.83,1357.33 1863.5,1358C 1861.91,1358.86 1860.25,1359.53 1858.5,1360C 1858.83,1360.33 1859.17,1360.67 1859.5,1361C 1858.13,1361.4 1856.79,1361.9 1855.5,1362.5C 1854.29,1363.27 1854.29,1364.11 1855.5,1365C 1853.96,1365.29 1852.62,1365.96 1851.5,1367C 1851.83,1367.33 1852.17,1367.67 1852.5,1368C 1850.27,1368.56 1848.27,1369.56 1846.5,1371C 1844.3,1373.37 1841.96,1375.54 1839.5,1377.5C 1839.46,1376.42 1839.13,1375.42 1838.5,1374.5C 1842.01,1373.49 1843.85,1371.15 1844,1367.5C 1845.36,1366.62 1846.86,1366.29 1848.5,1366.5C 1849.57,1361.92 1852.07,1358.25 1856,1355.5C 1857.36,1356.38 1858.86,1356.71 1860.5,1356.5C 1860.52,1354.86 1859.85,1353.52 1858.5,1352.5C 1860.75,1350.75 1862.42,1348.59 1863.5,1346C 1864.45,1345.52 1865.45,1345.35 1866.5,1345.5C 1866.56,1343.41 1867.56,1341.91 1869.5,1341C 1869.04,1340.59 1868.71,1340.09 1868.5,1339.5C 1870.27,1338.81 1871.94,1337.98 1873.5,1337C 1873.17,1336.67 1872.83,1336.33 1872.5,1336C 1873.83,1335 1875.17,1334 1876.5,1333C 1876.17,1332.67 1875.83,1332.33 1875.5,1332C 1879.45,1331.21 1881.79,1328.87 1882.5,1325C 1885.69,1322.65 1889.02,1320.48 1892.5,1318.5 Z M 1936.5,1342.5 C 1939.57,1347.19 1938.24,1349.69 1932.5,1350C 1935.17,1348.33 1935.17,1346.67 1932.5,1345C 1934.32,1344.8 1935.65,1343.97 1936.5,1342.5 Z M 2042.5,1357.5 C 2044.11,1358.36 2045.77,1358.53 2047.5,1358C 2049.17,1359.67 2050.83,1361.33 2052.5,1363C 2051.83,1363.33 2051.17,1363.67 2050.5,1364C 2054.95,1366.88 2058.95,1370.21 2062.5,1374C 2056.94,1377.95 2050.94,1381.11 2044.5,1383.5C 2042.4,1379.89 2039.73,1376.73 2036.5,1374C 2036.96,1373.59 2037.29,1373.09 2037.5,1372.5C 2036.29,1370.85 2034.96,1369.35 2033.5,1368C 2035.89,1366.08 2038.56,1364.58 2041.5,1363.5C 2040.83,1362.83 2040.17,1362.17 2039.5,1361.5C 2040.83,1360.36 2041.83,1359.02 2042.5,1357.5 Z M 1900.5,1363.5 C 1901.62,1365.29 1901.79,1367.29 1901,1369.5C 1899.9,1373.18 1898.73,1376.85 1897.5,1380.5C 1896.78,1378.21 1896.45,1376.05 1896.5,1374C 1897.42,1370.64 1898.75,1367.14 1900.5,1363.5 Z M 1871.5,1370.5 C 1872.04,1370.56 1872.38,1370.89 1872.5,1371.5C 1871.64,1372.58 1870.64,1372.75 1869.5,1372C 1870.42,1371.72 1871.08,1371.22 1871.5,1370.5 Z M 1867.5,1377.5 C 1867.43,1375.59 1866.43,1374.42 1864.5,1374C 1866.11,1373.28 1867.61,1373.45 1869,1374.5C 1869.58,1376 1869.08,1377 1867.5,1377.5 Z M 1839.5,1377.5 C 1839.61,1378.12 1839.94,1378.62 1840.5,1379C 1838,1381.83 1835.5,1384.67 1833,1387.5C 1832.33,1386.5 1832.33,1385.5 1833,1384.5C 1835.42,1382.22 1837.59,1379.89 1839.5,1377.5 Z M 1827.5,1393.5 C 1827.61,1390.89 1828.77,1388.89 1831,1387.5C 1830.96,1390.06 1829.8,1392.06 1827.5,1393.5 Z M 1823.5,1396.5 C 1826,1396.51 1826.17,1397.18 1824,1398.5C 1823.54,1397.91 1823.37,1397.24 1823.5,1396.5 Z M 1992.5,1401.5 C 1993.78,1402.39 1993.78,1403.39 1992.5,1404.5C 1991.91,1403.77 1991.91,1402.77 1992.5,1401.5 Z M 1893.5,1431.5 C 1895.76,1432.24 1895.93,1433.24 1894,1434.5C 1893.52,1433.55 1893.35,1432.55 1893.5,1431.5 Z"/></g>
<g><path style="opacity:1" fill="#e66117" d="M 1006.5,1083.5 C 1099.93,1117.64 1193.59,1150.97 1287.5,1183.5C 1264.15,1233.37 1242.65,1284.03 1223,1335.5C 1222.58,1336.76 1221.75,1337.42 1220.5,1337.5C 1185.44,1299.28 1143.1,1272.12 1093.5,1256C 1080.12,1254.61 1074.95,1260.44 1078,1273.5C 1079.5,1276.33 1081.67,1278.5 1084.5,1280C 1135.79,1291.47 1179.79,1315.63 1216.5,1352.5C 1208.56,1372.72 1200.89,1393.05 1193.5,1413.5C 1165.99,1385.72 1133.99,1379.22 1097.5,1394C 1073.06,1405.28 1053.39,1422.11 1038.5,1444.5C 1029.43,1453.94 1022.76,1464.94 1018.5,1477.5C 993.045,1527.54 987.212,1579.87 1001,1634.5C 1008.76,1660.91 1023.93,1681.74 1046.5,1697C 1061.4,1705.56 1077.4,1708.72 1094.5,1706.5C 1029.29,1926.02 973.119,2148.02 926,2372.5C 912.172,2439.48 898.672,2506.48 885.5,2573.5C 843.821,2571.27 802.154,2568.77 760.5,2566C 709.628,2560.18 658.961,2553.02 608.5,2544.5C 603.556,2543.22 598.556,2542.22 593.5,2541.5C 592.358,2530.58 592.191,2519.58 593,2508.5C 626.762,2332.86 664.928,2158.19 707.5,1984.5C 746.988,2018.86 791.321,2026.69 840.5,2008C 850.464,2003.83 859.464,1998.33 867.5,1991.5C 890.343,1974.13 906.51,1951.8 916,1924.5C 931.84,1878.94 928.007,1835.27 904.5,1793.5C 876.121,1744.31 833.454,1721.97 776.5,1726.5C 788.625,1684.79 800.958,1643.12 813.5,1601.5C 846.131,1586.37 871.298,1563.04 889,1531.5C 915.287,1483.74 921.953,1433.41 909,1380.5C 905.983,1370.8 902.15,1361.47 897.5,1352.5C 926.193,1272.6 957.359,1193.6 991,1115.5C 995.413,1104.34 1000.58,1093.68 1006.5,1083.5 Z"/></g>
<g><path style="opacity:0.998" fill="#9b471f" d="M 1287.5,1183.5 C 1312.62,1191.04 1337.95,1197.87 1363.5,1204C 1417.81,1216.23 1472.81,1221.73 1528.5,1220.5C 1476.84,1340.3 1428.01,1461.3 1382,1583.5C 1288.61,1834.4 1218.61,2091.73 1172,2355.5C 1159.92,2423.99 1148.92,2492.66 1139,2561.5C 1137.92,2564.08 1136.09,2565.75 1133.5,2566.5C 1125.82,2569.89 1117.82,2572.39 1109.5,2574C 1095.91,2576.06 1082.24,2577.39 1068.5,2578C 1035.83,2578.67 1003.17,2578.67 970.5,2578C 942.159,2576.89 913.826,2575.73 885.5,2574.5C 885.5,2574.17 885.5,2573.83 885.5,2573.5C 898.672,2506.48 912.172,2439.48 926,2372.5C 973.119,2148.02 1029.29,1926.02 1094.5,1706.5C 1118.75,1702.38 1139.75,1691.88 1157.5,1675C 1194.09,1637.98 1215.93,1593.48 1223,1541.5C 1229.3,1501.62 1222.96,1463.95 1204,1428.5C 1200.25,1423.6 1196.75,1418.6 1193.5,1413.5C 1200.89,1393.05 1208.56,1372.72 1216.5,1352.5C 1249.26,1384.43 1276.09,1420.76 1297,1461.5C 1278.87,1415.57 1253.37,1374.23 1220.5,1337.5C 1221.75,1337.42 1222.58,1336.76 1223,1335.5C 1242.65,1284.03 1264.15,1233.37 1287.5,1183.5 Z"/></g>
<g><path style="opacity:0.967" fill="#020100" d="M 682.5,1237.5 C 643.432,1253.78 607.266,1274.78 574,1300.5C 607.175,1267.58 645.342,1241.25 688.5,1221.5C 740.773,1197.63 795.44,1189.46 852.5,1197C 856.896,1197.73 859.73,1200.23 861,1204.5C 863.154,1215.55 858.654,1221.21 847.5,1221.5C 834.249,1219.21 820.916,1217.37 807.5,1216C 764.065,1213.37 722.399,1220.54 682.5,1237.5 Z"/></g>
<g><path style="opacity:1" fill="#050100" d="M 1220.5,1337.5 C 1253.37,1374.23 1278.87,1415.57 1297,1461.5C 1276.09,1420.76 1249.26,1384.43 1216.5,1352.5C 1179.79,1315.63 1135.79,1291.47 1084.5,1280C 1081.67,1278.5 1079.5,1276.33 1078,1273.5C 1074.95,1260.44 1080.12,1254.61 1093.5,1256C 1143.1,1272.12 1185.44,1299.28 1220.5,1337.5 Z"/></g>
<g><path style="opacity:1" fill="#fefefd" d="M 897.5,1352.5 C 902.15,1361.47 905.983,1370.8 909,1380.5C 921.953,1433.41 915.287,1483.74 889,1531.5C 871.298,1563.04 846.131,1586.37 813.5,1601.5C 760.073,1615.7 721.906,1597.7 699,1547.5C 682.223,1502.67 682.39,1458.01 699.5,1413.5C 702.825,1449 721.492,1472.16 755.5,1483C 795.861,1489.74 825.028,1474.9 843,1438.5C 848.389,1425.54 849.722,1412.21 847,1398.5C 837.683,1410.22 825.516,1414.72 810.5,1412C 790.849,1404.54 782.682,1390.37 786,1369.5C 789.885,1358.11 797.385,1350.11 808.5,1345.5C 800.76,1340.97 792.427,1338.13 783.5,1337C 769.605,1335.07 756.271,1336.9 743.5,1342.5C 755.381,1329.81 769.381,1319.97 785.5,1313C 833.272,1297.09 870.605,1310.25 897.5,1352.5 Z"/></g>
<g><path style="opacity:1" fill="#010101" d="M 699.5,1413.5 C 700.211,1381.06 714.878,1357.39 743.5,1342.5C 756.271,1336.9 769.605,1335.07 783.5,1337C 792.427,1338.13 800.76,1340.97 808.5,1345.5C 797.385,1350.11 789.885,1358.11 786,1369.5C 782.682,1390.37 790.849,1404.54 810.5,1412C 825.516,1414.72 837.683,1410.22 847,1398.5C 849.722,1412.21 848.389,1425.54 843,1438.5C 825.028,1474.9 795.861,1489.74 755.5,1483C 721.492,1472.16 702.825,1449 699.5,1413.5 Z"/></g>
<g><path style="opacity:1" fill="#fefefd" d="M 1193.5,1413.5 C 1196.75,1418.6 1200.25,1423.6 1204,1428.5C 1222.96,1463.95 1229.3,1501.62 1223,1541.5C 1215.93,1593.48 1194.09,1637.98 1157.5,1675C 1139.75,1691.88 1118.75,1702.38 1094.5,1706.5C 1077.4,1708.72 1061.4,1705.56 1046.5,1697C 1023.93,1681.74 1008.76,1660.91 1001,1634.5C 987.212,1579.87 993.045,1527.54 1018.5,1477.5C 1012.13,1503.16 1016.96,1526.49 1033,1547.5C 1058.55,1574.01 1088.38,1580.18 1122.5,1566C 1153.53,1548.94 1167.03,1522.78 1163,1487.5C 1147.66,1503.74 1130.83,1505.58 1112.5,1493C 1096.2,1475.01 1096.53,1457.35 1113.5,1440C 1117.22,1437.47 1121.22,1435.47 1125.5,1434C 1094.16,1418.57 1065.16,1422.07 1038.5,1444.5C 1053.39,1422.11 1073.06,1405.28 1097.5,1394C 1133.99,1379.22 1165.99,1385.72 1193.5,1413.5 Z"/></g>
<g><path style="opacity:0.251" fill="#af4f4e" d="M 1970.5,1408.5 C 1971.68,1408.28 1972.68,1408.61 1973.5,1409.5C 1972.28,1410.61 1970.94,1410.78 1969.5,1410C 1970.06,1409.62 1970.39,1409.12 1970.5,1408.5 Z"/></g>
<g><path style="opacity:0.667" fill="#af4f4e" d="M 1980.5,1424.5 C 1981.25,1423.43 1982.25,1423.26 1983.5,1424C 1982.55,1424.48 1981.55,1424.65 1980.5,1424.5 Z"/></g>
<g><path style="opacity:1" fill="#010101" d="M 1018.5,1477.5 C 1022.76,1464.94 1029.43,1453.94 1038.5,1444.5C 1065.16,1422.07 1094.16,1418.57 1125.5,1434C 1121.22,1435.47 1117.22,1437.47 1113.5,1440C 1096.53,1457.35 1096.2,1475.01 1112.5,1493C 1130.83,1505.58 1147.66,1503.74 1163,1487.5C 1167.03,1522.78 1153.53,1548.94 1122.5,1566C 1088.38,1580.18 1058.55,1574.01 1033,1547.5C 1016.96,1526.49 1012.13,1503.16 1018.5,1477.5 Z"/></g>
<g><path style="opacity:1" fill="#f4efe6" d="M 904.5,1793.5 C 897.53,1803.32 890.696,1813.32 884,1823.5C 883.107,1824.08 882.107,1824.41 881,1824.5C 832.865,1814.84 784.698,1805.51 736.5,1796.5C 737.358,1777.51 737.691,1758.51 737.5,1739.5C 749.38,1732.21 762.38,1727.87 776.5,1726.5C 833.454,1721.97 876.121,1744.31 904.5,1793.5 Z"/></g>
<g><path style="opacity:1" fill="#72324e" d="M 737.5,1739.5 C 737.691,1758.51 737.358,1777.51 736.5,1796.5C 784.698,1805.51 832.865,1814.84 881,1824.5C 882.107,1824.41 883.107,1824.08 884,1823.5C 890.696,1813.32 897.53,1803.32 904.5,1793.5C 928.007,1835.27 931.84,1878.94 916,1924.5C 906.51,1951.8 890.343,1974.13 867.5,1991.5C 848.808,1941.33 812.641,1914.66 759,1911.5C 731.207,1911.98 707.874,1922.31 689,1942.5C 686.574,1945.69 684.407,1949.02 682.5,1952.5C 677.309,1944.79 673.143,1936.45 670,1927.5C 656.194,1886.63 657.528,1846.3 674,1806.5C 687.516,1776.82 708.683,1754.49 737.5,1739.5 Z"/></g>
<g><path style="opacity:1" fill="#c1000c" d="M 867.5,1991.5 C 859.464,1998.33 850.464,2003.83 840.5,2008C 791.321,2026.69 746.988,2018.86 707.5,1984.5C 701.838,1978.67 696.338,1972.67 691,1966.5C 687.517,1962.19 684.683,1957.53 682.5,1952.5C 684.407,1949.02 686.574,1945.69 689,1942.5C 707.874,1922.31 731.207,1911.98 759,1911.5C 812.641,1914.66 848.808,1941.33 867.5,1991.5 Z"/></g>
<g><path style="opacity:0.994" fill="#f8e4b6" d="M 398.5,2483.5 C 405.276,2488.73 412.609,2493.23 420.5,2497C 435.132,2503.32 450.132,2508.66 465.5,2513C 507.736,2524.32 550.403,2533.82 593.5,2541.5C 598.556,2542.22 603.556,2543.22 608.5,2544.5C 618.668,2703.68 632.668,2862.51 650.5,3021C 650.43,3021.76 650.097,3022.26 649.5,3022.5C 617.843,2964.19 588.01,2904.85 560,2844.5C 506.451,2724.01 452.618,2603.68 398.5,2483.5 Z"/></g>
<g><path style="opacity:1" fill="#f7ddb7" d="M 608.5,2544.5 C 658.961,2553.02 709.628,2560.18 760.5,2566C 802.154,2568.77 843.821,2571.27 885.5,2573.5C 885.5,2573.83 885.5,2574.17 885.5,2574.5C 879.722,2596.28 874.222,2618.28 869,2640.5C 864.202,2655.9 859.202,2671.23 854,2686.5C 827.667,2757.17 801.333,2827.83 775,2898.5C 759.398,2941.47 744.898,2984.81 731.5,3028.5C 707.146,3028.17 682.813,3028.67 658.5,3030C 670.087,3050.34 680.753,3071.17 690.5,3092.5C 676.344,3069.53 662.677,3046.2 649.5,3022.5C 650.097,3022.26 650.43,3021.76 650.5,3021C 632.668,2862.51 618.668,2703.68 608.5,2544.5 Z"/></g>
<g><path style="opacity:0.996" fill="#ebddc0" d="M 1133.5,2566.5 C 1015.33,2723.14 904.335,2884.8 800.5,3051.5C 802.649,3043.53 805.649,3035.86 809.5,3028.5C 783.521,3028.27 757.521,3028.27 731.5,3028.5C 744.898,2984.81 759.398,2941.47 775,2898.5C 801.333,2827.83 827.667,2757.17 854,2686.5C 859.202,2671.23 864.202,2655.9 869,2640.5C 874.222,2618.28 879.722,2596.28 885.5,2574.5C 913.826,2575.73 942.159,2576.89 970.5,2578C 1003.17,2578.67 1035.83,2578.67 1068.5,2578C 1082.24,2577.39 1095.91,2576.06 1109.5,2574C 1117.82,2572.39 1125.82,2569.89 1133.5,2566.5 Z"/></g>
<g><path style="opacity:0.991" fill="#000000" d="M 800.5,3051.5 C 788.976,3086.9 774.81,3121.23 758,3154.5C 753.969,3161.38 748.136,3165.71 740.5,3167.5C 735.088,3166.88 730.588,3164.54 727,3160.5C 713.536,3138.57 701.37,3115.91 690.5,3092.5C 680.753,3071.17 670.087,3050.34 658.5,3030C 682.813,3028.67 707.146,3028.17 731.5,3028.5C 757.521,3028.27 783.521,3028.27 809.5,3028.5C 805.649,3035.86 802.649,3043.53 800.5,3051.5 Z"/></g>
</svg>
