<?xml version="1.0" encoding="UTF-8"?>
<!DOCTYPE svg PUBLIC "-//W3C//DTD SVG 1.1//EN" "http://www.w3.org/Graphics/SVG/1.1/DTD/svg11.dtd">
<svg xmlns="http://www.w3.org/2000/svg" version="1.1" width="2551px" height="3301px" style="shape-rendering:geometricPrecision; text-rendering:geometricPrecision; image-rendering:optimizeQuality; fill-rule:evenodd; clip-rule:evenodd" xmlns:xlink="http://www.w3.org/1999/xlink">
<g><path style="opacity:0.993" fill="#4f75b2" d="M 1750.5,342.5 C 1756,350.653 1758.33,359.653 1757.5,369.5C 1718.81,385.179 1680.15,400.846 1641.5,416.5C 1640.5,416.5 1639.5,416.5 1638.5,416.5C 1633.76,360.861 1617.59,308.861 1590,260.5C 1560.91,215.245 1521.41,182.579 1471.5,162.5C 1508.42,146.583 1545.75,131.75 1583.5,118C 1639.54,192.595 1695.21,267.429 1750.5,342.5 Z"/></g>
<g><path style="opacity:0.998" fill="#4e7cb8" d="M 1471.5,162.5 C 1521.41,182.579 1560.91,215.245 1590,260.5C 1617.59,308.861 1633.76,360.861 1638.5,416.5C 1639.5,416.5 1640.5,416.5 1641.5,416.5C 1282.32,562.01 922.984,707.343 563.5,852.5C 560.518,851.835 557.352,851.502 554,851.5C 505.549,855.001 457.382,852.501 409.5,844C 319.924,826.082 261.758,773.582 235,686.5C 232.848,679.226 231.015,671.892 229.5,664.5C 643.196,496.597 1057.2,329.264 1471.5,162.5 Z"/></g>
<g><path style="opacity:0.997" fill="#4e85bc" d="M 1768.5,446.5 C 1759.72,449.398 1751.38,453.064 1743.5,457.5C 1633.28,501.276 1523.28,545.61 1413.5,590.5C 1144.1,698.371 875.104,807.038 606.5,916.5C 506.741,956.544 407.075,996.877 307.5,1037.5C 297.286,1014.4 287.62,991.071 278.5,967.5C 293.278,961.687 307.945,955.687 322.5,949.5C 402.753,916.971 483.087,884.638 563.5,852.5C 922.984,707.343 1282.32,562.01 1641.5,416.5C 1680.15,400.846 1718.81,385.179 1757.5,369.5C 1758.33,359.653 1756,350.653 1750.5,342.5C 1752.55,342.039 1754.55,341.372 1756.5,340.5C 1757.8,341.09 1758.63,342.09 1759,343.5C 1771.75,374.324 1783.92,405.324 1795.5,436.5C 1786.4,439.548 1777.4,442.882 1768.5,446.5 Z"/></g>
<g><path style="opacity:0.952" fill="#af4f4f" d="M 1768.5,446.5 C 1792.57,517.437 1800.23,590.104 1791.5,664.5C 1792.81,666.641 1794.31,668.641 1796,670.5C 1797.33,667.833 1798.67,667.833 1800,670.5C 1802.16,669.803 1804.33,670.137 1806.5,671.5C 1807.75,673.006 1807.75,674.506 1806.5,676C 1808.79,677.877 1810.79,677.71 1812.5,675.5C 1814.49,676.289 1814.82,677.455 1813.5,679C 1818,679.757 1822.16,681.257 1826,683.5C 1826.41,683.043 1826.91,682.709 1827.5,682.5C 1827.83,683.167 1828.17,683.833 1828.5,684.5C 1829.17,684.167 1829.83,683.833 1830.5,683.5C 1831.87,688.509 1834.53,689.509 1838.5,686.5C 1839.19,687.025 1839.69,687.692 1840,688.5C 1841.05,687.483 1842.22,687.316 1843.5,688C 1846.48,690.115 1849.48,692.115 1852.5,694C 1849.81,696.552 1850.47,697.719 1854.5,697.5C 1854.28,698.675 1854.61,699.675 1855.5,700.5C 1858.43,698.822 1859.43,699.322 1858.5,702C 1858.63,703.059 1859.13,703.892 1860,704.5C 1861.05,703.483 1862.22,703.316 1863.5,704C 1864.83,704.667 1864.83,705.333 1863.5,706C 1865.06,706.318 1866.23,707.151 1867,708.5C 1868.27,705.938 1870.1,705.272 1872.5,706.5C 1872.87,709.963 1874.21,712.963 1876.5,715.5C 1877.74,714.754 1879.07,714.421 1880.5,714.5C 1881.22,717.237 1882.55,719.57 1884.5,721.5C 1886.22,722.807 1888.06,722.807 1890,721.5C 1890.91,723.439 1892.41,724.439 1894.5,724.5C 1894.52,726.143 1893.85,727.476 1892.5,728.5C 1893.1,729.795 1893.6,731.128 1894,732.5C 1897.76,735.721 1901.6,738.887 1905.5,742C 1905.17,742.333 1904.83,742.667 1904.5,743C 1908.05,745.552 1910.89,748.719 1913,752.5C 1914.39,751.446 1915.89,751.28 1917.5,752C 1915.42,753.884 1915.09,756.051 1916.5,758.5C 1918.48,759.982 1920.32,761.649 1922,763.5C 1926.5,762.701 1926.66,763.534 1922.5,766C 1924.69,768.706 1927.52,770.206 1931,770.5C 1931.78,771.944 1931.61,773.277 1930.5,774.5C 1928.88,773.509 1927.88,774.176 1927.5,776.5C 1929.48,778.844 1931.81,780.844 1934.5,782.5C 1934.29,783.086 1933.96,783.586 1933.5,784C 1935.46,790.617 1938.46,797.117 1942.5,803.5C 1942.17,804.167 1941.83,804.833 1941.5,805.5C 1942.98,807.765 1944.31,810.099 1945.5,812.5C 1944.28,813.803 1944.62,814.803 1946.5,815.5C 1946.28,816.967 1945.94,818.467 1945.5,820C 1948.71,820.41 1949.38,821.91 1947.5,824.5C 1948.5,826.5 1949.5,828.5 1950.5,830.5C 1950.32,831.554 1949.99,832.554 1949.5,833.5C 1951.45,835.43 1953.12,837.597 1954.5,840C 1953.67,842.712 1954,845.379 1955.5,848C 1954.17,848.667 1954.17,849.333 1955.5,850C 1954.5,850.333 1953.5,850.667 1952.5,851C 1953.91,851.368 1954.91,852.201 1955.5,853.5C 1952.85,855.677 1950.19,855.844 1947.5,854C 1952.45,853.185 1952.28,852.018 1947,850.5C 1945.51,848.89 1945.34,847.224 1946.5,845.5C 1944.19,844.025 1942.02,842.358 1940,840.5C 1939.13,838.112 1939.97,836.612 1942.5,836C 1938.67,835.407 1936.67,833.241 1936.5,829.5C 1937.83,829.5 1939.17,829.5 1940.5,829.5C 1940.5,828.5 1940.5,827.5 1940.5,826.5C 1938.17,826.502 1936.17,825.669 1934.5,824C 1934.83,823.667 1935.17,823.333 1935.5,823C 1931.76,819.41 1930.09,815.243 1930.5,810.5C 1929.13,810.657 1927.79,810.49 1926.5,810C 1926.83,809.667 1927.17,809.333 1927.5,809C 1923.83,807.592 1923.83,805.925 1927.5,804C 1925.99,802.326 1925.32,800.66 1925.5,799C 1920.09,798.838 1919.43,797.338 1923.5,794.5C 1922.9,793.205 1922.4,791.872 1922,790.5C 1920.82,791.731 1919.65,791.731 1918.5,790.5C 1917.83,789.5 1917.17,788.5 1916.5,787.5C 1917.03,786.808 1917.69,786.308 1918.5,786C 1913.85,782.687 1909.52,779.02 1905.5,775C 1906.28,773.23 1906.11,771.397 1905,769.5C 1904.59,769.957 1904.09,770.291 1903.5,770.5C 1902.64,769.264 1901.98,767.931 1901.5,766.5C 1902.85,765.476 1903.52,764.143 1903.5,762.5C 1900.59,762.425 1897.93,761.591 1895.5,760C 1893.87,755.209 1890.7,751.042 1886,747.5C 1885.44,748.022 1884.77,748.355 1884,748.5C 1880.93,746.927 1880.43,745.093 1882.5,743C 1879.9,739.864 1876.56,738.031 1872.5,737.5C 1873.79,733.939 1872.96,733.606 1870,736.5C 1867.86,734.679 1867.03,732.346 1867.5,729.5C 1865.88,729.64 1864.71,728.973 1864,727.5C 1863.59,727.957 1863.09,728.291 1862.5,728.5C 1861.25,726.994 1861.25,725.494 1862.5,724C 1860.6,723.801 1859.1,722.967 1858,721.5C 1857.17,723.667 1855.67,725.167 1853.5,726C 1855.57,726.324 1855.9,727.158 1854.5,728.5C 1855.09,731.276 1856.42,733.61 1858.5,735.5C 1860.92,736.072 1863.08,737.072 1865,738.5C 1865.21,740.78 1866.05,742.78 1867.5,744.5C 1866.82,747.185 1866.82,750.018 1867.5,753C 1866.67,753.915 1865.67,754.581 1864.5,755C 1865.5,755.833 1866.5,756.667 1867.5,757.5C 1866.75,759.416 1866.75,761.416 1867.5,763.5C 1870.52,763.105 1871.52,764.105 1870.5,766.5C 1871.5,768.5 1872.5,770.5 1873.5,772.5C 1872.97,773.192 1872.31,773.692 1871.5,774C 1874.59,779.037 1876.59,784.204 1877.5,789.5C 1876.97,790.192 1876.31,790.692 1875.5,791C 1877.79,792.917 1879.12,795.417 1879.5,798.5C 1879.15,801.802 1879.15,804.969 1879.5,808C 1882.23,815.456 1884.56,822.789 1886.5,830C 1886.73,833.292 1886.73,836.626 1886.5,840C 1889.03,842.587 1889.03,845.253 1886.5,848C 1887.07,851.052 1887.4,854.052 1887.5,857C 1887.56,858.711 1886.89,860.044 1885.5,861C 1885.81,862.682 1886.14,864.348 1886.5,866C 1886.09,866.945 1885.43,867.612 1884.5,868C 1885.05,869.398 1885.38,870.732 1885.5,872C 1884.83,872.333 1884.17,872.667 1883.5,873C 1884.17,875 1884.83,877 1885.5,879C 1884.69,879.308 1884.03,879.808 1883.5,880.5C 1885.77,882.751 1887.11,885.084 1887.5,887.5C 1887.79,889.218 1887.46,891.052 1886.5,893C 1888.01,896.099 1889.68,899.099 1891.5,902C 1881.17,901.92 1871.17,899.92 1861.5,896C 1859.5,895.333 1858.17,894 1857.5,892C 1854,891.343 1851,889.843 1848.5,887.5C 1850.42,886.692 1852.42,886.192 1854.5,886C 1841.28,883.458 1841.28,880.458 1854.5,877C 1857.17,872.66 1859.83,868.327 1862.5,864C 1861.7,859.536 1861.7,855.202 1862.5,851C 1861.85,849.013 1860.51,847.68 1858.5,847C 1859.5,845.333 1860.5,843.667 1861.5,842C 1860.31,839.943 1859.31,837.943 1858.5,836C 1859.52,834.951 1859.68,833.784 1859,832.5C 1856.33,835.006 1853.83,837.672 1851.5,840.5C 1847.89,842.444 1844.56,844.777 1841.5,847.5C 1841.36,849.399 1841.36,851.232 1841.5,853C 1837.65,853.54 1833.82,853.374 1830,852.5C 1826.55,853.47 1823.05,854.304 1819.5,855C 1815.13,855.364 1810.97,855.53 1807,855.5C 1805.37,859.935 1803.87,864.435 1802.5,869C 1802.76,870.261 1803.43,871.261 1804.5,872C 1800.89,874.81 1800.23,877.976 1802.5,881.5C 1801.58,884.788 1801.58,888.288 1802.5,892C 1801.96,894.4 1801.29,896.733 1800.5,899C 1802.12,899.853 1802.46,900.853 1801.5,902C 1803.56,908.406 1805.23,914.906 1806.5,921.5C 1801.16,920.743 1796.16,918.91 1791.5,916C 1787.62,912.371 1784.62,908.204 1782.5,903.5C 1781.5,904.167 1780.5,904.833 1779.5,905.5C 1779.02,910.531 1778.02,915.364 1776.5,920C 1776.31,922.312 1776.98,924.645 1778.5,927C 1776.09,927.484 1773.75,927.15 1771.5,926C 1766.03,924.185 1761.53,921.018 1758,916.5C 1758.51,914.62 1758.34,912.787 1757.5,911C 1759.3,910.683 1759.63,910.016 1758.5,909C 1759.18,905.58 1760.18,902.246 1761.5,899C 1761.41,895.798 1761.07,892.631 1760.5,889.5C 1763.08,887.562 1763.08,885.729 1760.5,884C 1760.48,880.555 1760.81,877.055 1761.5,873.5C 1760.97,871.259 1759.63,869.759 1757.5,869C 1758.31,868.692 1758.97,868.192 1759.5,867.5C 1755.96,866.417 1754.46,864.084 1755,860.5C 1756.33,861.167 1757.67,861.833 1759,862.5C 1759.17,862.167 1759.33,861.833 1759.5,861.5C 1757.49,859.545 1755.15,858.045 1752.5,857C 1753.79,856.51 1755.13,856.343 1756.5,856.5C 1756.5,855.5 1756.5,854.5 1756.5,853.5C 1753.45,853.636 1750.45,853.302 1747.5,852.5C 1745.74,853.34 1744.07,854.34 1742.5,855.5C 1741.64,858.948 1739.48,861.948 1736,864.5C 1734,870.034 1731.17,875.034 1727.5,879.5C 1729.09,884.082 1727.75,885.249 1723.5,883C 1722.83,882 1722.17,881 1721.5,880C 1719.43,880.227 1717.43,880.061 1715.5,879.5C 1714.4,878.369 1714.73,877.535 1716.5,877C 1715.17,875.667 1715.17,874.333 1716.5,873C 1715.5,872.667 1714.5,872.333 1713.5,872C 1718.13,871.615 1719.13,869.782 1716.5,866.5C 1716.9,864.566 1717.9,863.066 1719.5,862C 1718.37,860.984 1718.7,860.317 1720.5,860C 1719.69,859.692 1719.03,859.192 1718.5,858.5C 1719.71,856.931 1721.38,856.098 1723.5,856C 1722.45,854.612 1722.28,853.112 1723,851.5C 1725.88,848.327 1728.38,845.494 1730.5,843C 1729.27,841.413 1729.61,840.079 1731.5,839C 1730.83,838.667 1730.17,838.333 1729.5,838C 1731.35,836.907 1733.02,835.574 1734.5,834C 1733.08,832.638 1732.24,831.138 1732,829.5C 1729.93,830.264 1727.76,830.764 1725.5,831C 1725.27,832.135 1724.94,833.302 1724.5,834.5C 1723.04,833.391 1722.04,833.891 1721.5,836C 1719.05,836.29 1716.71,836.956 1714.5,838C 1714.83,838.333 1715.17,838.667 1715.5,839C 1711.95,841.186 1708.28,843.186 1704.5,845C 1705.17,845.333 1705.83,845.667 1706.5,846C 1702.98,846.848 1700.32,848.848 1698.5,852C 1695.56,852.804 1692.89,854.137 1690.5,856C 1691.71,856.893 1691.71,857.726 1690.5,858.5C 1687.72,859.059 1685.38,860.392 1683.5,862.5C 1684.03,863.192 1684.69,863.692 1685.5,864C 1684.05,865.117 1682.38,865.784 1680.5,866C 1678.46,868.781 1676.79,871.781 1675.5,875C 1678.17,877.711 1677.5,878.711 1673.5,878C 1671.4,875.958 1670.23,873.458 1670,870.5C 1670.42,875.432 1668.92,876.432 1665.5,873.5C 1664.79,871.189 1663.79,869.022 1662.5,867C 1662.63,864.401 1662.63,861.734 1662.5,859C 1664.28,855.545 1666.95,853.212 1670.5,852C 1669.17,851 1667.83,850 1666.5,849C 1667.5,848.667 1668.5,848.333 1669.5,848C 1669.17,847.667 1668.83,847.333 1668.5,847C 1676.89,843.137 1684.22,837.803 1690.5,831C 1685.35,830.732 1680.35,829.732 1675.5,828C 1674.93,826.795 1674.26,825.628 1673.5,824.5C 1667.71,828.19 1662.04,832.023 1656.5,836C 1656.83,836.333 1657.17,836.667 1657.5,837C 1654.46,837.359 1654.12,838.026 1656.5,839C 1653.07,839.57 1650.07,840.903 1647.5,843C 1648.21,844.343 1647.88,845.676 1646.5,847C 1647.17,847.333 1647.83,847.667 1648.5,848C 1645.72,848.066 1643.56,849.232 1642,851.5C 1641.67,851.167 1641.33,850.833 1641,850.5C 1639.77,853.42 1638.77,856.42 1638,859.5C 1636.11,858.87 1634.44,857.87 1633,856.5C 1631.49,857.535 1629.99,857.368 1628.5,856C 1628.96,855.586 1629.29,855.086 1629.5,854.5C 1626.05,852.952 1625.72,850.952 1628.5,848.5C 1628.18,847.353 1627.52,846.519 1626.5,846C 1630.8,842.035 1635.13,838.035 1639.5,834C 1635.74,832.127 1636.24,830.96 1641,830.5C 1641.77,830.645 1642.44,830.978 1643,831.5C 1645.46,828.095 1648.62,825.428 1652.5,823.5C 1651.33,823.167 1650.17,822.833 1649,822.5C 1621.93,827.909 1595.43,826.075 1569.5,817C 1579.99,816.961 1590.49,817.128 1601,817.5C 1624.89,818.729 1647.39,814.062 1668.5,803.5C 1668.78,800.882 1669.45,798.382 1670.5,796C 1668.97,795.504 1667.47,795.67 1666,796.5C 1664.74,796.15 1664.41,795.483 1665,794.5C 1670.48,788.326 1676.98,783.826 1684.5,781C 1684.04,780.586 1683.71,780.086 1683.5,779.5C 1684.83,776.5 1686.17,773.5 1687.5,770.5C 1687.07,769.707 1686.74,768.873 1686.5,768C 1691.35,758.394 1690.35,757.061 1683.5,764C 1678.91,767.254 1674.91,771.254 1671.5,776C 1670.83,776.667 1670.17,776.667 1669.5,776C 1676.71,764.412 1683.55,752.579 1690,740.5C 1690.78,737.725 1690.28,735.225 1688.5,733C 1688.07,724.956 1691.57,722.789 1699,726.5C 1701.32,724.011 1703.82,721.678 1706.5,719.5C 1708.57,714.367 1711.4,709.7 1715,705.5C 1718.5,694.173 1723.83,683.84 1731,674.5C 1735.65,670.412 1737.65,671.746 1737,678.5C 1737.72,679.451 1738.55,679.617 1739.5,679C 1748.66,668.672 1757.66,658.172 1766.5,647.5C 1772.28,582.436 1764.62,519.103 1743.5,457.5C 1751.38,453.064 1759.72,449.398 1768.5,446.5 Z M 1794.5,708.5 C 1796.69,708.511 1797.52,709.511 1797,711.5C 1795.58,710.922 1794.75,709.922 1794.5,708.5 Z M 1738.5,710.5 C 1743.01,712.647 1747.68,714.48 1752.5,716C 1750.3,718.54 1747.8,720.707 1745,722.5C 1741.47,719.819 1738.64,717.152 1736.5,714.5C 1737.18,713.14 1737.85,711.807 1738.5,710.5 Z M 1800.5,711.5 C 1801.53,713.515 1803.19,714.848 1805.5,715.5C 1805.33,715.833 1805.17,716.167 1805,716.5C 1802.91,715.754 1800.91,715.421 1799,715.5C 1798.7,713.934 1799.2,712.601 1800.5,711.5 Z M 1851.5,716.5 C 1853.03,716.517 1853.53,717.184 1853,718.5C 1849.19,719.966 1848.69,719.3 1851.5,716.5 Z M 1810.5,721.5 C 1812.1,722.287 1812.77,723.62 1812.5,725.5C 1813.5,725.5 1814.5,725.5 1815.5,725.5C 1815.48,727.143 1816.15,728.476 1817.5,729.5C 1816.68,731.111 1815.35,731.778 1813.5,731.5C 1813.32,729.394 1812.32,727.728 1810.5,726.5C 1809.31,727.894 1808.65,727.727 1808.5,726C 1809.41,724.594 1810.08,723.094 1810.5,721.5 Z M 1889.5,725.5 C 1890.38,725.369 1891.04,725.702 1891.5,726.5C 1890.28,727.614 1888.94,727.781 1887.5,727C 1888.42,726.722 1889.08,726.222 1889.5,725.5 Z M 1831.5,731.5 C 1832.08,730.227 1832.74,730.227 1833.5,731.5C 1833.03,732.463 1832.36,732.463 1831.5,731.5 Z M 1840.5,746.5 C 1838.71,746.785 1837.05,746.452 1835.5,745.5C 1835.71,744.914 1836.04,744.414 1836.5,744C 1835.03,743.29 1834.36,742.124 1834.5,740.5C 1832.44,740.313 1830.44,739.813 1828.5,739C 1829.63,737.984 1829.3,737.317 1827.5,737C 1830.89,732.801 1834.22,732.967 1837.5,737.5C 1836.45,739.102 1837.12,739.935 1839.5,740C 1839.17,740.333 1838.83,740.667 1838.5,741C 1839.86,742.584 1840.53,744.418 1840.5,746.5 Z M 1840.5,746.5 C 1842.87,747.014 1844.87,748.18 1846.5,750C 1845.43,750.852 1844.43,751.685 1843.5,752.5C 1841.99,750.819 1840.99,748.819 1840.5,746.5 Z M 1847.5,754.5 C 1848.04,754.56 1848.38,754.893 1848.5,755.5C 1847.28,756.614 1845.94,756.781 1844.5,756C 1845.74,755.768 1846.74,755.268 1847.5,754.5 Z M 1821.5,761.5 C 1826.6,764.915 1830.6,769.415 1833.5,775C 1832.69,775.308 1832.03,775.808 1831.5,776.5C 1832.69,777.429 1834.02,777.762 1835.5,777.5C 1835.34,778.873 1835.51,780.207 1836,781.5C 1838.14,783.827 1840.64,785.493 1843.5,786.5C 1843.24,788.912 1844.24,790.579 1846.5,791.5C 1845.69,793.071 1845.36,794.738 1845.5,796.5C 1847.61,796.679 1849.27,797.679 1850.5,799.5C 1849.53,801.399 1848.2,803.566 1846.5,806C 1849.08,808.12 1849.08,810.287 1846.5,812.5C 1847.03,813.192 1847.69,813.692 1848.5,814C 1844.63,815.593 1842.3,818.426 1841.5,822.5C 1838.09,826.516 1834.59,830.516 1831,834.5C 1830.5,834.333 1830,834.167 1829.5,834C 1829.94,832.467 1830.28,830.967 1830.5,829.5C 1829.39,827.615 1828.56,825.615 1828,823.5C 1826.93,822.809 1825.77,822.309 1824.5,822C 1825.5,821.667 1826.5,821.333 1827.5,821C 1826.18,818.343 1824.85,815.677 1823.5,813C 1823.74,812.127 1824.07,811.293 1824.5,810.5C 1822.34,807.752 1820.34,804.918 1818.5,802C 1820.43,800.271 1820.43,798.271 1818.5,796C 1819.34,794.989 1819.67,793.822 1819.5,792.5C 1820.87,792.657 1822.21,792.49 1823.5,792C 1822.67,789.919 1822.67,787.752 1823.5,785.5C 1821.64,785.539 1820.31,784.706 1819.5,783C 1820.83,781 1820.83,779 1819.5,777C 1820.17,776.333 1820.83,775.667 1821.5,775C 1820.83,773 1820.17,771 1819.5,769C 1820.67,768.581 1821.67,767.915 1822.5,767C 1821.59,765.301 1821.26,763.467 1821.5,761.5 Z M 1726.5,779.5 C 1726.78,781.836 1728.12,784.003 1730.5,786C 1729.97,787.559 1729.3,789.059 1728.5,790.5C 1729.38,791.251 1730.38,791.751 1731.5,792C 1729.5,793.423 1728,795.256 1727,797.5C 1725.93,796.809 1724.77,796.309 1723.5,796C 1722.36,795.259 1722.36,794.425 1723.5,793.5C 1722.97,792.808 1722.31,792.308 1721.5,792C 1725.01,788.651 1726.68,784.485 1726.5,779.5 Z M 1718.5,806.5 C 1722.31,807.754 1722.31,808.754 1718.5,809.5C 1718.5,808.5 1718.5,807.5 1718.5,806.5 Z M 1657.5,814.5 C 1660.23,812.558 1663.23,811.058 1666.5,810C 1668.83,809.333 1671.17,809.333 1673.5,810C 1669.71,810.23 1666.38,811.563 1663.5,814C 1661.53,814.495 1659.53,814.662 1657.5,814.5 Z M 1657.5,814.5 C 1655.39,815.775 1653.06,816.275 1650.5,816C 1652.68,814.798 1655.01,814.298 1657.5,814.5 Z M 1686.5,819.5 C 1687.38,819.369 1688.04,819.702 1688.5,820.5C 1684.7,827.033 1684.03,826.7 1686.5,819.5 Z M 1944.5,837.5 C 1948.81,840.002 1948.48,840.835 1943.5,840C 1944.25,839.329 1944.59,838.496 1944.5,837.5 Z M 1775.5,855.5 C 1776.29,855.783 1776.96,856.283 1777.5,857C 1776.18,857.528 1775.52,857.028 1775.5,855.5 Z"/></g>
<g><path style="opacity:0.998" fill="#4e76b2" d="M 1413.5,590.5 C 1442.04,661.925 1470.88,733.259 1500,804.5C 1500.8,808.909 1499.8,812.909 1497,816.5C 1492.22,822.627 1486.72,827.96 1480.5,832.5C 1472.77,838.226 1464.77,843.559 1456.5,848.5C 1451.29,803.258 1432.63,764.758 1400.5,733C 1387.59,722.098 1373.59,712.764 1358.5,705C 1354.5,704.333 1350.5,704.333 1346.5,705C 1310.6,711.808 1275.27,720.808 1240.5,732C 1118.55,772.148 998.221,816.481 879.5,865C 795.578,899.296 711.912,934.13 628.5,969.5C 621.148,951.762 613.815,934.095 606.5,916.5C 875.104,807.038 1144.1,698.371 1413.5,590.5 Z"/></g>
<g><path style="opacity:0.995" fill="#4f75b2" d="M 229.5,664.5 C 231.015,671.892 232.848,679.226 235,686.5C 261.758,773.582 319.924,826.082 409.5,844C 457.382,852.501 505.549,855.001 554,851.5C 557.352,851.502 560.518,851.835 563.5,852.5C 483.087,884.638 402.753,916.971 322.5,949.5C 304.288,941.729 286.288,933.395 268.5,924.5C 249.995,840.811 231.328,757.144 212.5,673.5C 212.833,672.5 213.167,671.5 213.5,670.5C 218.646,667.924 223.979,665.924 229.5,664.5 Z"/></g>
<g><path style="opacity:0.999" fill="#4f7cb7" d="M 1456.5,848.5 C 1438.4,860.727 1419.73,872.227 1400.5,883C 1245.19,964.822 1084.19,1033.16 917.5,1088C 864.765,1105.57 811.432,1120.4 757.5,1132.5C 738.667,1136.85 719.667,1138.02 700.5,1136C 698.131,1135.46 696.131,1134.3 694.5,1132.5C 672.103,1078.3 650.103,1023.97 628.5,969.5C 711.912,934.13 795.578,899.296 879.5,865C 998.221,816.481 1118.55,772.148 1240.5,732C 1275.27,720.808 1310.6,711.808 1346.5,705C 1350.5,704.333 1354.5,704.333 1358.5,705C 1373.59,712.764 1387.59,722.098 1400.5,733C 1432.63,764.758 1451.29,803.258 1456.5,848.5 Z"/></g>
<g><path style="opacity:0.589" fill="#af4f4e" d="M 1884.5,721.5 C 1885.2,719.656 1886.54,719.156 1888.5,720C 1887.44,721.188 1886.1,721.688 1884.5,721.5 Z"/></g>
<g><path style="opacity:0.999" fill="#9899a5" d="M 1480.5,832.5 C 1489.11,851.378 1497.44,870.378 1505.5,889.5C 1487.57,901.476 1469.23,912.976 1450.5,924C 1364.81,973.678 1276.48,1018.34 1185.5,1058C 1135.72,1076.59 1085.39,1093.59 1034.5,1109C 949.221,1134.71 863.554,1158.87 777.5,1181.5C 770.833,1165.17 764.167,1148.83 757.5,1132.5C 811.432,1120.4 864.765,1105.57 917.5,1088C 1084.19,1033.16 1245.19,964.822 1400.5,883C 1419.73,872.227 1438.4,860.727 1456.5,848.5C 1464.77,843.559 1472.77,838.226 1480.5,832.5 Z"/></g>
<g><path style="opacity:0.4" fill="#af4f4e" d="M 1756.5,874.5 C 1757.39,873.224 1758.39,873.224 1759.5,874.5C 1758.58,875.562 1757.58,875.562 1756.5,874.5 Z"/></g>
<g><path style="opacity:0.999" fill="#a5a5a4" d="M 1505.5,889.5 C 1514.62,908.752 1522.95,928.419 1530.5,948.5C 1484,997.777 1429.67,1036.28 1367.5,1064C 1350.19,1071.83 1332.86,1079.33 1315.5,1086.5C 1222.88,1120.49 1129.88,1153.49 1036.5,1185.5C 983.689,1202.55 929.689,1214.21 874.5,1220.5C 847.57,1223.06 820.57,1224.06 793.5,1223.5C 788.169,1209.5 782.836,1195.5 777.5,1181.5C 863.554,1158.87 949.221,1134.71 1034.5,1109C 1085.39,1093.59 1135.72,1076.59 1185.5,1058C 1276.48,1018.34 1364.81,973.678 1450.5,924C 1469.23,912.976 1487.57,901.476 1505.5,889.5 Z"/></g>
<g><path style="opacity:0.992" fill="#4e7cb8" d="M 268.5,924.5 C 286.288,933.395 304.288,941.729 322.5,949.5C 307.945,955.687 293.278,961.687 278.5,967.5C 275.044,959.416 271.71,951.249 268.5,943C 269.444,941.523 270.777,940.523 272.5,940C 271.087,934.848 269.754,929.682 268.5,924.5 Z"/></g>
<g><path style="opacity:0.998" fill="#9a471f" d="M 1530.5,948.5 C 1599.1,1127.69 1665.43,1307.69 1729.5,1488.5C 1674.96,1511.44 1621.96,1537.6 1570.5,1567C 1563.39,1571.4 1555.72,1573.07 1547.5,1572C 1528.47,1556.66 1507.8,1544.16 1485.5,1534.5C 1486.6,1533.4 1486.76,1532.07 1486,1530.5C 1479.33,1510.5 1472.67,1490.5 1466,1470.5C 1465.33,1469.75 1464.5,1469.41 1463.5,1469.5C 1477.56,1465.37 1491.9,1461.87 1506.5,1459C 1490.52,1454.24 1474.19,1451.74 1457.5,1451.5C 1457.98,1450.58 1458.31,1449.58 1458.5,1448.5C 1447.27,1414.48 1435.27,1380.82 1422.5,1347.5C 1472.07,1328.22 1516.74,1301.06 1556.5,1266C 1533.01,1282.1 1508.34,1296.77 1482.5,1310C 1461.65,1320.09 1439.98,1327.93 1417.5,1333.5C 1386.99,1250.47 1353.82,1168.47 1318,1087.5C 1317.33,1086.75 1316.5,1086.41 1315.5,1086.5C 1332.86,1079.33 1350.19,1071.83 1367.5,1064C 1429.67,1036.28 1484,997.777 1530.5,948.5 Z"/></g>
<g><path style="opacity:1" fill="#e66017" d="M 1315.5,1086.5 C 1316.5,1086.41 1317.33,1086.75 1318,1087.5C 1353.82,1168.47 1386.99,1250.47 1417.5,1333.5C 1375.9,1345.12 1333.9,1346.29 1291.5,1337C 1274.85,1334.97 1269.35,1341.81 1275,1357.5C 1276.83,1358.67 1278.67,1359.83 1280.5,1361C 1311.87,1365.64 1343.21,1365.31 1374.5,1360C 1390.69,1356.45 1406.69,1352.29 1422.5,1347.5C 1435.27,1380.82 1447.27,1414.48 1458.5,1448.5C 1458.31,1449.58 1457.98,1450.58 1457.5,1451.5C 1402.49,1457.84 1356.49,1481.34 1319.5,1522C 1379.71,1540.11 1440.04,1557.61 1500.5,1574.5C 1514.77,1622.14 1528.94,1669.81 1543,1717.5C 1555.65,1761.75 1567.81,1806.09 1579.5,1850.5C 1568.94,1833.73 1558.11,1817.06 1547,1800.5C 1534.97,1788.31 1523.3,1788.65 1512,1801.5C 1495.78,1835.6 1480.95,1870.26 1467.5,1905.5C 1449.96,1885.61 1432.29,1865.78 1414.5,1846C 1403.64,1839.92 1394.47,1841.75 1387,1851.5C 1366.67,1887.17 1346.33,1922.83 1326,1958.5C 1312.66,1943 1299.16,1927.67 1285.5,1912.5C 1254.94,1798.28 1221.28,1684.95 1184.5,1572.5C 1196.11,1565.55 1207.44,1558.22 1218.5,1550.5C 1203.28,1539.64 1186.61,1531.64 1168.5,1526.5C 1155.36,1488.42 1142.03,1450.42 1128.5,1412.5C 1140.57,1404.02 1152.07,1394.69 1163,1384.5C 1168.12,1370.57 1163.29,1363.74 1148.5,1364C 1138.99,1373.01 1129.32,1381.84 1119.5,1390.5C 1094.24,1321.73 1066.24,1254.06 1035.5,1187.5C 1035.86,1186.82 1036.2,1186.15 1036.5,1185.5C 1129.88,1153.49 1222.88,1120.49 1315.5,1086.5 Z"/></g>
<g><path style="opacity:1" fill="#e67117" d="M 1036.5,1185.5 C 1036.2,1186.15 1035.86,1186.82 1035.5,1187.5C 1066.24,1254.06 1094.24,1321.73 1119.5,1390.5C 1083.58,1421.12 1042.25,1441.12 995.5,1450.5C 961.91,1369.97 921.577,1293.31 874.5,1220.5C 929.689,1214.21 983.689,1202.55 1036.5,1185.5 Z"/></g>
<g><path style="opacity:0.995" fill="#e06e18" d="M 874.5,1220.5 C 921.577,1293.31 961.91,1369.97 995.5,1450.5C 961.825,1458.84 927.491,1462.5 892.5,1461.5C 861.06,1381.51 828.06,1302.18 793.5,1223.5C 820.57,1224.06 847.57,1223.06 874.5,1220.5 Z"/></g>
<g><path style="opacity:1" fill="#040100" d="M 1422.5,1347.5 C 1406.69,1352.29 1390.69,1356.45 1374.5,1360C 1343.21,1365.31 1311.87,1365.64 1280.5,1361C 1278.67,1359.83 1276.83,1358.67 1275,1357.5C 1269.35,1341.81 1274.85,1334.97 1291.5,1337C 1333.9,1346.29 1375.9,1345.12 1417.5,1333.5C 1439.98,1327.93 1461.65,1320.09 1482.5,1310C 1508.34,1296.77 1533.01,1282.1 1556.5,1266C 1516.74,1301.06 1472.07,1328.22 1422.5,1347.5 Z"/></g>
<g><path style="opacity:0.998" fill="#050200" d="M 1128.5,1412.5 C 1089.31,1437.9 1046.65,1454.23 1000.5,1461.5C 964.899,1465.89 929.233,1466.56 893.5,1463.5C 887.477,1463.33 881.477,1462.83 875.5,1462C 881.157,1461.5 886.824,1461.33 892.5,1461.5C 927.491,1462.5 961.825,1458.84 995.5,1450.5C 1042.25,1441.12 1083.58,1421.12 1119.5,1390.5C 1129.32,1381.84 1138.99,1373.01 1148.5,1364C 1163.29,1363.74 1168.12,1370.57 1163,1384.5C 1152.07,1394.69 1140.57,1404.02 1128.5,1412.5 Z"/></g>
<g><path style="opacity:1" fill="#e67116" d="M 1128.5,1412.5 C 1142.03,1450.42 1155.36,1488.42 1168.5,1526.5C 1133.62,1516.68 1098.28,1514.84 1062.5,1521C 1051.91,1524.96 1041.58,1529.46 1031.5,1534.5C 1020.99,1510.32 1010.66,1485.99 1000.5,1461.5C 1046.65,1454.23 1089.31,1437.9 1128.5,1412.5 Z"/></g>
<g><path style="opacity:0.996" fill="#76c7de" d="M 2172.5,1521.5 C 2172.27,1526.03 2173.1,1530.37 2175,1534.5C 2270.34,1776.72 2308.51,2027.72 2289.5,2287.5C 2273.84,2444.93 2250.68,2601.27 2220,2756.5C 2209.46,2809.62 2198.8,2862.62 2188,2915.5C 2203.97,2899.59 2222.14,2886.76 2242.5,2877C 2251.43,2872.94 2260.77,2871.6 2270.5,2873C 2273.03,2873.42 2275.03,2874.59 2276.5,2876.5C 2273.74,2876.74 2271.57,2878.08 2270,2880.5C 2269.45,2898.95 2266.45,2916.95 2261,2934.5C 2255.88,2946.29 2247.88,2955.62 2237,2962.5C 2235.69,2970.69 2239.19,2974.69 2247.5,2974.5C 2260.2,2985.7 2270.04,2999.04 2277,3014.5C 2283.19,3030.58 2284.02,3046.92 2279.5,3063.5C 2292.61,3078.29 2296.78,3095.29 2292,3114.5C 2290.86,3119.45 2288.69,3123.79 2285.5,3127.5C 2286.56,3118.4 2282.56,3114.56 2273.5,3116C 2272.67,3116.83 2271.83,3117.67 2271,3118.5C 2267.69,3130.48 2260.19,3138.64 2248.5,3143C 2217.91,3152.4 2186.91,3160.4 2155.5,3167C 2152.16,3168.89 2150.82,3171.73 2151.5,3175.5C 2137.59,3174.12 2123.92,3171.45 2110.5,3167.5C 2063.5,3174.1 2016.83,3172.27 1970.5,3162C 1941.67,3162.05 1912.83,3162.55 1884,3163.5C 1879.17,3163.17 1874.33,3162.83 1869.5,3162.5C 1873.77,3154.96 1877.77,3147.3 1881.5,3139.5C 1892.91,3150.19 1905.74,3152.19 1920,3145.5C 1923.22,3147.11 1926.55,3148.44 1930,3149.5C 1933.2,3147.38 1934.2,3144.38 1933,3140.5C 1930.11,3137.64 1926.94,3135.14 1923.5,3133C 1903.99,3121.75 1884.99,3109.75 1866.5,3097C 1855.25,3088.66 1849.75,3077.5 1850,3063.5C 1845.96,3056.33 1840.96,3055.66 1835,3061.5C 1834.8,3063.38 1834.3,3065.05 1833.5,3066.5C 1831.87,3061.65 1830.7,3056.65 1830,3051.5C 1808.18,3037.02 1788.85,3019.68 1772,2999.5C 1755.15,2971.67 1762.98,2959.17 1795.5,2962C 1817.36,2965.29 1838.19,2971.79 1858,2981.5C 1863.03,2976.08 1868.53,2971.24 1874.5,2967C 1858.84,2952.18 1851.67,2934.02 1853,2912.5C 1856.16,2899.67 1864.33,2893.83 1877.5,2895C 1900.82,2901.49 1916.16,2916.32 1923.5,2939.5C 1924.5,2943.49 1925.5,2947.49 1926.5,2951.5C 1932.79,2948.57 1939.12,2945.74 1945.5,2943C 1949.53,2940 1950.53,2936.17 1948.5,2931.5C 1958.85,2928.28 1969.35,2925.28 1980,2922.5C 1989.76,2897.69 1999.6,2873.03 2009.5,2848.5C 2008.98,2851.9 2008.15,2855.23 2007,2858.5C 1998.89,2880.37 1990.55,2902.03 1982,2923.5C 2005.2,2918.57 2028.7,2916.24 2052.5,2916.5C 2085.51,2828.49 2112.01,2738.49 2132,2646.5C 2161.96,2512.03 2187.29,2376.7 2208,2240.5C 2224.22,2128.32 2225.55,2015.99 2212,1903.5C 2202.15,1829.61 2180.81,1759.28 2148,1692.5C 2122.34,1642.72 2088.17,1599.55 2045.5,1563C 1990.14,1519.85 1927.14,1496.52 1856.5,1493C 1812.13,1490.64 1768.13,1493.64 1724.5,1502C 1713.82,1505.18 1706.48,1512.01 1702.5,1522.5C 1659.31,1533.28 1617.48,1547.95 1577,1566.5C 1570.25,1573.24 1562.42,1578.41 1553.5,1582C 1546.88,1583.36 1540.88,1582.2 1535.5,1578.5C 1539.83,1579.1 1544.16,1579.26 1548.5,1579C 1532.47,1571.32 1516.47,1563.65 1500.5,1556C 1479.63,1550.1 1458.96,1543.93 1438.5,1537.5C 1438.47,1536.5 1438.97,1535.84 1440,1535.5C 1455.08,1531.88 1470.25,1531.54 1485.5,1534.5C 1507.8,1544.16 1528.47,1556.66 1547.5,1572C 1555.72,1573.07 1563.39,1571.4 1570.5,1567C 1621.96,1537.6 1674.96,1511.44 1729.5,1488.5C 1776.22,1469.87 1824.22,1455.37 1873.5,1445C 1921.26,1435.37 1969.26,1433.7 2017.5,1440C 2078.87,1449.34 2130.54,1476.51 2172.5,1521.5 Z"/></g>
<g><path style="opacity:1" fill="#040100" d="M 1457.5,1451.5 C 1474.19,1451.74 1490.52,1454.24 1506.5,1459C 1491.9,1461.87 1477.56,1465.37 1463.5,1469.5C 1423.02,1473.25 1387.02,1487.75 1355.5,1513C 1382.92,1521.86 1410.59,1530.03 1438.5,1537.5C 1458.96,1543.93 1479.63,1550.1 1500.5,1556C 1516.47,1563.65 1532.47,1571.32 1548.5,1579C 1544.16,1579.26 1539.83,1579.1 1535.5,1578.5C 1523.94,1576.6 1512.28,1575.26 1500.5,1574.5C 1440.04,1557.61 1379.71,1540.11 1319.5,1522C 1356.49,1481.34 1402.49,1457.84 1457.5,1451.5 Z"/></g>
<g><path style="opacity:0.996" fill="#e06e18" d="M 1000.5,1461.5 C 1010.66,1485.99 1020.99,1510.32 1031.5,1534.5C 1028.57,1536.65 1025.57,1538.81 1022.5,1541C 1026.15,1541.06 1029.81,1540.9 1033.5,1540.5C 1042.31,1565.44 1051.65,1590.11 1061.5,1614.5C 1052.32,1623.19 1043.98,1632.69 1036.5,1643C 1034.47,1644.01 1032.3,1644.51 1030,1644.5C 1023.1,1643.71 1016.27,1642.54 1009.5,1641C 989.598,1630.55 969.598,1620.38 949.5,1610.5C 949.5,1609.83 949.167,1609.5 948.5,1609.5C 930.955,1560.53 912.621,1511.86 893.5,1463.5C 929.233,1466.56 964.899,1465.89 1000.5,1461.5 Z"/></g>
<g><path style="opacity:1" fill="#e46017" d="M 1463.5,1469.5 C 1464.5,1469.41 1465.33,1469.75 1466,1470.5C 1472.67,1490.5 1479.33,1510.5 1486,1530.5C 1486.76,1532.07 1486.6,1533.4 1485.5,1534.5C 1470.25,1531.54 1455.08,1531.88 1440,1535.5C 1438.97,1535.84 1438.47,1536.5 1438.5,1537.5C 1410.59,1530.03 1382.92,1521.86 1355.5,1513C 1387.02,1487.75 1423.02,1473.25 1463.5,1469.5 Z"/></g>
<g><path style="opacity:0.991" fill="#75bbd7" d="M 2009.5,2848.5 C 2066.86,2695.4 2110.36,2538.4 2140,2377.5C 2159.08,2272.35 2169.25,2166.35 2170.5,2059.5C 2171.15,1970.14 2160.65,1882.14 2139,1795.5C 2122.23,1729.29 2093.23,1669.29 2052,1615.5C 1990.93,1542.81 1912.6,1506.81 1817,1507.5C 1790.65,1507.82 1764.48,1510.15 1738.5,1514.5C 1726.42,1516.78 1714.42,1519.45 1702.5,1522.5C 1706.48,1512.01 1713.82,1505.18 1724.5,1502C 1768.13,1493.64 1812.13,1490.64 1856.5,1493C 1927.14,1496.52 1990.14,1519.85 2045.5,1563C 2088.17,1599.55 2122.34,1642.72 2148,1692.5C 2180.81,1759.28 2202.15,1829.61 2212,1903.5C 2225.55,2015.99 2224.22,2128.32 2208,2240.5C 2187.29,2376.7 2161.96,2512.03 2132,2646.5C 2112.01,2738.49 2085.51,2828.49 2052.5,2916.5C 2028.7,2916.24 2005.2,2918.57 1982,2923.5C 1990.55,2902.03 1998.89,2880.37 2007,2858.5C 2008.15,2855.23 2008.98,2851.9 2009.5,2848.5 Z"/></g>
<g><path style="opacity:1" fill="#75bbd8" d="M 2024.5,1503.5 C 2037.36,1505.06 2049.69,1508.56 2061.5,1514C 2135.16,1547.66 2184.99,1602.82 2211,1679.5C 2215.19,1694.45 2218.36,1709.62 2220.5,1725C 2219.25,1731.9 2215.25,1734.23 2208.5,1732C 2207.67,1731.17 2206.83,1730.33 2206,1729.5C 2191.6,1638.13 2143.1,1571.96 2060.5,1531C 2048.72,1526.11 2036.72,1521.78 2024.5,1518C 2019.6,1513.24 2019.6,1508.41 2024.5,1503.5 Z"/></g>
<g><path style="opacity:0.998" fill="#9b471f" d="M 1738.5,1514.5 C 1781.9,1642.77 1819.4,1772.77 1851,1904.5C 1895.33,2092.84 1921.17,2283.67 1928.5,2477C 1928.02,2481.13 1926.35,2484.63 1923.5,2487.5C 1904.69,2499.5 1884.36,2508.34 1862.5,2514C 1819.13,2526.62 1775.13,2536.46 1730.5,2543.5C 1730.83,2531.79 1730.33,2520.12 1729,2508.5C 1691.1,2308.03 1646.6,2109.03 1595.5,1911.5C 1602.23,1916.05 1608.56,1921.22 1614.5,1927C 1617.11,1929.34 1619.11,1929 1620.5,1926C 1607.71,1900.24 1594.04,1875.07 1579.5,1850.5C 1567.81,1806.09 1555.65,1761.75 1543,1717.5C 1528.94,1669.81 1514.77,1622.14 1500.5,1574.5C 1512.28,1575.26 1523.94,1576.6 1535.5,1578.5C 1540.88,1582.2 1546.88,1583.36 1553.5,1582C 1562.42,1578.41 1570.25,1573.24 1577,1566.5C 1617.48,1547.95 1659.31,1533.28 1702.5,1522.5C 1714.42,1519.45 1726.42,1516.78 1738.5,1514.5 Z"/></g>
<g><path style="opacity:1" fill="#030100" d="M 1168.5,1526.5 C 1186.61,1531.64 1203.28,1539.64 1218.5,1550.5C 1207.44,1558.22 1196.11,1565.55 1184.5,1572.5C 1146.66,1595.92 1109,1619.58 1071.5,1643.5C 1053.81,1652.07 1035.81,1660.07 1017.5,1667.5C 1016.48,1667 1016.31,1666.33 1017,1665.5C 1021.69,1661.63 1026.19,1657.63 1030.5,1653.5C 1039,1645.84 1047.67,1638.34 1056.5,1631C 1081.67,1615.3 1106.67,1599.47 1131.5,1583.5C 1148.99,1573.59 1165.99,1562.92 1182.5,1551.5C 1152.48,1538.89 1121.15,1533.72 1088.5,1536C 1070.18,1537.75 1051.85,1539.25 1033.5,1540.5C 1029.81,1540.9 1026.15,1541.06 1022.5,1541C 1025.57,1538.81 1028.57,1536.65 1031.5,1534.5C 1041.58,1529.46 1051.91,1524.96 1062.5,1521C 1098.28,1514.84 1133.62,1516.68 1168.5,1526.5 Z"/></g>
<g><path style="opacity:0.977" fill="#75bbd8" d="M 2172.5,1521.5 C 2204.74,1557.33 2229.57,1597.99 2247,1643.5C 2272.18,1712.05 2288.18,1782.72 2295,1855.5C 2304.32,1955.03 2305.99,2054.69 2300,2154.5C 2297.69,2199.08 2294.19,2243.41 2289.5,2287.5C 2308.51,2027.72 2270.34,1776.72 2175,1534.5C 2173.1,1530.37 2172.27,1526.03 2172.5,1521.5 Z"/></g>
<g><path style="opacity:0.995" fill="#76c7de" d="M 832.5,1561.5 C 746.037,1564.06 676.037,1599.06 622.5,1666.5C 587.004,1707.62 561.837,1754.62 547,1807.5C 542.003,1824.5 537.503,1841.5 533.5,1858.5C 510.176,1950.26 496.676,2043.6 493,2138.5C 483.207,2419.33 549.207,2680.66 691,2922.5C 691.708,2923.38 692.542,2924.05 693.5,2924.5C 722.516,2942.51 754.182,2951.01 788.5,2950C 790.333,2949.5 791.5,2948.33 792,2946.5C 792.497,2944.19 792.663,2941.86 792.5,2939.5C 803.276,2929.89 813.943,2920.06 824.5,2910C 838.193,2898.66 853.193,2889.32 869.5,2882C 876.911,2878.97 884.578,2877.97 892.5,2879C 895.174,2879.67 897.507,2880.84 899.5,2882.5C 896.551,2883.61 894.385,2885.61 893,2888.5C 892.821,2907.76 889.487,2926.43 883,2944.5C 877.765,2954.4 870.432,2962.4 861,2968.5C 858.728,2976.99 861.895,2980.99 870.5,2980.5C 882.081,2991.25 891.581,3003.58 899,3017.5C 906.482,3034.34 907.982,3051.67 903.5,3069.5C 907.236,3075.3 910.736,3081.3 914,3087.5C 917.737,3097.97 918.404,3108.63 916,3119.5C 914.524,3125.12 912.024,3130.12 908.5,3134.5C 910.221,3125.39 906.554,3121.23 897.5,3122C 896.333,3123.17 895.167,3124.33 894,3125.5C 890.651,3137.85 882.818,3146.02 870.5,3150C 839.615,3159.35 808.448,3167.51 777,3174.5C 775.097,3176.44 774.264,3178.77 774.5,3181.5C 760.908,3180.81 747.741,3178.15 735,3173.5C 686.883,3180.26 639.05,3178.43 591.5,3168C 578.887,3164.93 566.554,3161.1 554.5,3156.5C 557.697,3151.38 557.03,3146.88 552.5,3143C 533.999,3131.92 515.666,3120.58 497.5,3109C 488.62,3103.12 481.454,3095.62 476,3086.5C 474.443,3079.61 472.943,3072.78 471.5,3066C 463.134,3062.09 458.467,3064.59 457.5,3073.5C 455.476,3068.43 453.976,3063.1 453,3057.5C 432.545,3044.05 414.211,3028.05 398,3009.5C 377.186,2977.95 385.686,2964.45 423.5,2969C 443.453,2972.76 462.62,2978.93 481,2987.5C 491.645,2977.86 503.145,2969.36 515.5,2962C 474.049,2765.46 439.882,2567.63 413,2368.5C 396.593,2246.54 387.426,2124.04 385.5,2001C 385.2,1931.36 390.7,1862.19 402,1793.5C 410.495,1741.01 427.162,1691.35 452,1644.5C 494.141,1570.65 557.975,1531.82 643.5,1528C 693.198,1527 741.864,1533.67 789.5,1548C 803.943,1552.2 818.276,1556.7 832.5,1561.5 Z"/></g>
<g><path style="opacity:1" fill="#e57117" d="M 1131.5,1583.5 C 1118.74,1582.52 1106.41,1584.35 1094.5,1589C 1082.15,1595.86 1071.15,1604.36 1061.5,1614.5C 1051.65,1590.11 1042.31,1565.44 1033.5,1540.5C 1051.85,1539.25 1070.18,1537.75 1088.5,1536C 1121.15,1533.72 1152.48,1538.89 1182.5,1551.5C 1165.99,1562.92 1148.99,1573.59 1131.5,1583.5 Z"/></g>
<g><path style="opacity:0.965" fill="#75bbd8" d="M 832.5,1561.5 C 855.555,1569.74 878.222,1578.74 900.5,1588.5C 902.087,1593.7 902.754,1599.03 902.5,1604.5C 861.192,1593.28 819.192,1589.11 776.5,1592C 715.476,1597.35 664.143,1622.18 622.5,1666.5C 676.037,1599.06 746.037,1564.06 832.5,1561.5 Z"/></g>
<g><path style="opacity:1" fill="#75bbd8" d="M 645.5,1571.5 C 654.152,1570.99 657.652,1574.99 656,1583.5C 580.919,1607.25 526.252,1654.58 492,1725.5C 481.91,1748.52 475.243,1772.52 472,1797.5C 466.851,1803 462.184,1802.66 458,1796.5C 460.224,1765.15 468.558,1735.49 483,1707.5C 518.865,1640.12 573.032,1594.79 645.5,1571.5 Z"/></g>
<g><path style="opacity:1" fill="#e67117" d="M 1184.5,1572.5 C 1221.28,1684.95 1254.94,1798.28 1285.5,1912.5C 1277.33,1904.49 1269.66,1895.99 1262.5,1887C 1257.76,1884.63 1253.43,1885.13 1249.5,1888.5C 1236.77,1925.03 1224.43,1961.7 1212.5,1998.5C 1213.94,2001.82 1215.77,2002.16 1218,1999.5C 1231.02,1970.25 1244.52,1941.25 1258.5,1912.5C 1273.62,1931.28 1287.96,1950.62 1301.5,1970.5C 1353.13,2171.03 1398.13,2373.03 1436.5,2576.5C 1434.59,2576.22 1432.92,2576.55 1431.5,2577.5C 1369.86,2581.19 1308.2,2582.19 1246.5,2580.5C 1245.79,2579.6 1244.79,2579.26 1243.5,2579.5C 1253.07,2486.92 1250.9,2394.58 1237,2302.5C 1227.87,2228.07 1214.54,2154.4 1197,2081.5C 1160.53,1933.93 1118.7,1787.93 1071.5,1643.5C 1109,1619.58 1146.66,1595.92 1184.5,1572.5 Z"/></g>
<g><path style="opacity:1" fill="#78c4d8" d="M 1131.5,1583.5 C 1106.67,1599.47 1081.67,1615.3 1056.5,1631C 1047.67,1638.34 1039,1645.84 1030.5,1653.5C 1020.33,1649.75 1010.66,1644.91 1001.5,1639C 985.801,1631.98 969.801,1625.81 953.5,1620.5C 936.744,1614.36 919.744,1609.03 902.5,1604.5C 902.754,1599.03 902.087,1593.7 900.5,1588.5C 916.666,1595.11 932.666,1602.11 948.5,1609.5C 949.167,1609.5 949.5,1609.83 949.5,1610.5C 969.598,1620.38 989.598,1630.55 1009.5,1641C 1016.27,1642.54 1023.1,1643.71 1030,1644.5C 1032.3,1644.51 1034.47,1644.01 1036.5,1643C 1043.98,1632.69 1052.32,1623.19 1061.5,1614.5C 1071.15,1604.36 1082.15,1595.86 1094.5,1589C 1106.41,1584.35 1118.74,1582.52 1131.5,1583.5 Z"/></g>
<g><path style="opacity:0.995" fill="#e06f18" d="M 953.5,1620.5 C 969.801,1625.81 985.801,1631.98 1001.5,1639C 1010.66,1644.91 1020.33,1649.75 1030.5,1653.5C 1026.19,1657.63 1021.69,1661.63 1017,1665.5C 1016.31,1666.33 1016.48,1667 1017.5,1667.5C 1035.81,1660.07 1053.81,1652.07 1071.5,1643.5C 1118.7,1787.93 1160.53,1933.93 1197,2081.5C 1214.54,2154.4 1227.87,2228.07 1237,2302.5C 1250.9,2394.58 1253.07,2486.92 1243.5,2579.5C 1244.79,2579.26 1245.79,2579.6 1246.5,2580.5C 1233.43,2579.66 1220.43,2578.16 1207.5,2576C 1200.87,2574.6 1194.54,2572.43 1188.5,2569.5C 1185.29,2567.79 1183.46,2565.12 1183,2561.5C 1145.73,2284.45 1083.73,2013.12 997,1747.5C 982.785,1705.02 968.285,1662.69 953.5,1620.5 Z"/></g>
<g><path style="opacity:1" fill="#72324e" d="M 1579.5,1850.5 C 1594.04,1875.07 1607.71,1900.24 1620.5,1926C 1619.11,1929 1617.11,1929.34 1614.5,1927C 1608.56,1921.22 1602.23,1916.05 1595.5,1911.5C 1576.91,1894.25 1558.58,1876.58 1540.5,1858.5C 1528.02,1896.12 1513.86,1933.12 1498,1969.5C 1487.68,1980.63 1475.85,1982.47 1462.5,1975C 1443,1948.83 1423.5,1922.67 1404,1896.5C 1382.12,1929.77 1359.62,1962.6 1336.5,1995C 1331.5,1998.33 1326.5,1998.33 1321.5,1995C 1314.59,1986.93 1307.92,1978.77 1301.5,1970.5C 1287.96,1950.62 1273.62,1931.28 1258.5,1912.5C 1244.52,1941.25 1231.02,1970.25 1218,1999.5C 1215.77,2002.16 1213.94,2001.82 1212.5,1998.5C 1224.43,1961.7 1236.77,1925.03 1249.5,1888.5C 1253.43,1885.13 1257.76,1884.63 1262.5,1887C 1269.66,1895.99 1277.33,1904.49 1285.5,1912.5C 1299.16,1927.67 1312.66,1943 1326,1958.5C 1346.33,1922.83 1366.67,1887.17 1387,1851.5C 1394.47,1841.75 1403.64,1839.92 1414.5,1846C 1432.29,1865.78 1449.96,1885.61 1467.5,1905.5C 1480.95,1870.26 1495.78,1835.6 1512,1801.5C 1523.3,1788.65 1534.97,1788.31 1547,1800.5C 1558.11,1817.06 1568.94,1833.73 1579.5,1850.5 Z"/></g>
<g><path style="opacity:1" fill="#75bbd8" d="M 505.5,1816.5 C 514.33,1815.16 517.83,1818.83 516,1827.5C 501.548,1863.09 493.215,1900.09 491,1938.5C 486.942,1944.07 482.276,1944.73 477,1940.5C 477.33,1900.52 484.996,1861.85 500,1824.5C 501.129,1821.21 502.962,1818.54 505.5,1816.5 Z"/></g>
<g><path style="opacity:1" fill="#e66017" d="M 1595.5,1911.5 C 1646.6,2109.03 1691.1,2308.03 1729,2508.5C 1730.33,2520.12 1730.83,2531.79 1730.5,2543.5C 1723.99,2545.03 1717.32,2546.37 1710.5,2547.5C 1619.95,2564.29 1528.62,2573.95 1436.5,2576.5C 1398.13,2373.03 1353.13,2171.03 1301.5,1970.5C 1307.92,1978.77 1314.59,1986.93 1321.5,1995C 1326.5,1998.33 1331.5,1998.33 1336.5,1995C 1359.62,1962.6 1382.12,1929.77 1404,1896.5C 1423.5,1922.67 1443,1948.83 1462.5,1975C 1475.85,1982.47 1487.68,1980.63 1498,1969.5C 1513.86,1933.12 1528.02,1896.12 1540.5,1858.5C 1558.58,1876.58 1576.91,1894.25 1595.5,1911.5 Z"/></g>
<g><path style="opacity:0.987" fill="#74bbd8" d="M 533.5,1858.5 C 518.957,1937.18 513.457,2016.51 517,2096.5C 523.199,2226.56 541.532,2354.89 572,2481.5C 607.973,2632.25 654.473,2779.58 711.5,2923.5C 705.621,2923.23 699.621,2923.56 693.5,2924.5C 692.542,2924.05 691.708,2923.38 691,2922.5C 549.207,2680.66 483.207,2419.33 493,2138.5C 496.676,2043.6 510.176,1950.26 533.5,1858.5 Z"/></g>
<g><path style="opacity:1" fill="#75bbd8" d="M 2277.5,2028.5 C 2284.27,2027.86 2287.61,2030.86 2287.5,2037.5C 2284.51,2077.85 2281.34,2118.18 2278,2158.5C 2274.73,2163.74 2270.23,2164.9 2264.5,2162C 2263.15,2160.43 2262.49,2158.59 2262.5,2156.5C 2265.74,2115.84 2268.91,2075.18 2272,2034.5C 2272.68,2031.32 2274.52,2029.32 2277.5,2028.5 Z"/></g>
<g><path style="opacity:1" fill="#75bbd8" d="M 430.5,2052.5 C 436.914,2051.61 440.747,2054.28 442,2060.5C 444.91,2099.16 447.743,2137.83 450.5,2176.5C 451.356,2187.33 446.856,2190.33 437,2185.5C 435.956,2183.29 435.29,2180.95 435,2178.5C 431.668,2137.86 429.001,2097.19 427,2056.5C 427.69,2054.65 428.856,2053.32 430.5,2052.5 Z"/></g>
<g><path style="opacity:1" fill="#74bbd8" d="M 2099.5,2919.5 C 2095.04,2918.36 2090.37,2917.69 2085.5,2917.5C 2165.92,2721.49 2216.75,2517.83 2238,2306.5C 2241.09,2301.25 2245.25,2300.25 2250.5,2303.5C 2251.75,2305 2252.75,2306.67 2253.5,2308.5C 2232.52,2517.76 2182.69,2719.76 2104,2914.5C 2103.34,2916.99 2101.84,2918.65 2099.5,2919.5 Z"/></g>
<g><path style="opacity:1" fill="#74bbd8" d="M 606.5,2930.5 C 605.883,2930.39 605.383,2930.06 605,2929.5C 600.593,2930.82 596.093,2931.82 591.5,2932.5C 508.508,2733.53 457.342,2526.53 438,2311.5C 442.076,2307.97 446.409,2307.63 451,2310.5C 468.481,2476.75 503.814,2639.09 557,2797.5C 572.444,2842.31 588.944,2886.65 606.5,2930.5 Z"/></g>
<g><path style="opacity:0.995" fill="#ebddc0" d="M 1923.5,2487.5 C 1879.8,2583.43 1836.97,2679.76 1795,2776.5C 1754.65,2868.2 1710.32,2957.87 1662,3045.5C 1652.39,3062.39 1642.56,3079.06 1632.5,3095.5C 1641.76,3074.31 1652.1,3053.64 1663.5,3033.5C 1660.55,3032.68 1657.55,3032.18 1654.5,3032C 1643.84,3031.5 1633.17,3031.33 1622.5,3031.5C 1629.16,2991.69 1636.66,2952.02 1645,2912.5C 1663.77,2829.33 1681.77,2746 1699,2662.5C 1702.04,2624.08 1705.88,2585.74 1710.5,2547.5C 1717.32,2546.37 1723.99,2545.03 1730.5,2543.5C 1775.13,2536.46 1819.13,2526.62 1862.5,2514C 1884.36,2508.34 1904.69,2499.5 1923.5,2487.5 Z"/></g>
<g><path style="opacity:0.999" fill="#f7ddb7" d="M 1710.5,2547.5 C 1705.88,2585.74 1702.04,2624.08 1699,2662.5C 1681.77,2746 1663.77,2829.33 1645,2912.5C 1636.66,2952.02 1629.16,2991.69 1622.5,3031.5C 1586.16,3031.08 1549.82,3031.08 1513.5,3031.5C 1516.7,3039.11 1519.7,3046.78 1522.5,3054.5C 1486.09,2997.34 1449.42,2940.34 1412.5,2883.5C 1422.49,2781.64 1430.82,2679.64 1437.5,2577.5C 1435.5,2577.5 1433.5,2577.5 1431.5,2577.5C 1432.92,2576.55 1434.59,2576.22 1436.5,2576.5C 1528.62,2573.95 1619.95,2564.29 1710.5,2547.5 Z"/></g>
<g><path style="opacity:0.994" fill="#f8e4b6" d="M 1188.5,2569.5 C 1194.54,2572.43 1200.87,2574.6 1207.5,2576C 1220.43,2578.16 1233.43,2579.66 1246.5,2580.5C 1308.2,2582.19 1369.86,2581.19 1431.5,2577.5C 1433.5,2577.5 1435.5,2577.5 1437.5,2577.5C 1430.82,2679.64 1422.49,2781.64 1412.5,2883.5C 1340.58,2776.91 1265.92,2672.24 1188.5,2569.5 Z"/></g>
<g><path style="opacity:0.914" fill="#76c8de" d="M 2239.5,2778.5 C 2249.8,2778.98 2253.97,2784.31 2252,2794.5C 2250.83,2797 2249,2798.83 2246.5,2800C 2232.98,2801.12 2228.48,2795.28 2233,2782.5C 2235.01,2780.75 2237.18,2779.42 2239.5,2778.5 Z"/></g>
<g><path style="opacity:0.914" fill="#76c8de" d="M 860.5,2785.5 C 871.313,2784.15 876.479,2788.82 876,2799.5C 870.614,2808.68 863.947,2809.68 856,2802.5C 852.931,2795.46 854.431,2789.79 860.5,2785.5 Z"/></g>
<g><path style="opacity:0.969" fill="#76c8de" d="M 2299.5,2822.5 C 2327.55,2822.04 2340.05,2835.71 2337,2863.5C 2327.89,2884.77 2312.39,2891.27 2290.5,2883C 2273.39,2870.89 2269.56,2855.39 2279,2836.5C 2284.29,2829.45 2291.12,2824.78 2299.5,2822.5 Z"/></g>
<g><path style="opacity:0.97" fill="#76c8de" d="M 925.5,2828.5 C 947.545,2828.38 959.545,2839.22 961.5,2861C 960.129,2880.87 949.462,2891.71 929.5,2893.5C 909.308,2891.64 898.642,2880.64 897.5,2860.5C 898.699,2842.64 908.032,2831.97 925.5,2828.5 Z"/></g>
<g><path style="opacity:0.978" fill="#76c8de" d="M 782.5,2831.5 C 802.772,2829.27 815.105,2838.11 819.5,2858C 822.852,2881.95 815.518,2901.95 797.5,2918C 784.42,2927.98 770.753,2928.98 756.5,2921C 745.63,2909.71 741.463,2896.21 744,2880.5C 747.496,2856.54 760.329,2840.2 782.5,2831.5 Z"/></g>
<g><path style="opacity:0.955" fill="#6cb2d3" d="M 2276.5,2876.5 C 2279.32,2878.8 2281.16,2881.8 2282,2885.5C 2282.99,2894.63 2282.33,2903.63 2280,2912.5C 2272.03,2934.77 2261.2,2955.44 2247.5,2974.5C 2239.19,2974.69 2235.69,2970.69 2237,2962.5C 2247.88,2955.62 2255.88,2946.29 2261,2934.5C 2266.45,2916.95 2269.45,2898.95 2270,2880.5C 2271.57,2878.08 2273.74,2876.74 2276.5,2876.5 Z"/></g>
<g><path style="opacity:0.952" fill="#6cb2d3" d="M 899.5,2882.5 C 903.438,2885.43 905.605,2889.43 906,2894.5C 906.595,2903.33 905.595,2912 903,2920.5C 895.501,2942.51 884.667,2962.51 870.5,2980.5C 861.895,2980.99 858.728,2976.99 861,2968.5C 870.432,2962.4 877.765,2954.4 883,2944.5C 889.487,2926.43 892.821,2907.76 893,2888.5C 894.385,2885.61 896.551,2883.61 899.5,2882.5 Z"/></g>
<g><path style="opacity:0.922" fill="#76c8de" d="M 1778.5,2915.5 C 1790.55,2916.95 1794.39,2923.28 1790,2934.5C 1783.67,2941.17 1777.33,2941.17 1771,2934.5C 1766.99,2925.54 1769.49,2919.21 1778.5,2915.5 Z"/></g>
<g><path style="opacity:1" fill="#6cb2d3" d="M 2085.5,2917.5 C 2090.37,2917.69 2095.04,2918.36 2099.5,2919.5C 2087.94,2943.46 2073.27,2965.29 2055.5,2985C 2046.39,2987.57 2042.56,2984.07 2044,2974.5C 2058.98,2957.35 2071.81,2938.68 2082.5,2918.5C 2083.32,2917.61 2084.32,2917.28 2085.5,2917.5 Z"/></g>
<g><path style="opacity:0.916" fill="#76c8de" d="M 399.5,2922.5 C 413.604,2922.1 418.104,2928.43 413,2941.5C 406.342,2947.02 400.009,2946.69 394,2940.5C 390.697,2932.79 392.53,2926.79 399.5,2922.5 Z"/></g>
<g><path style="opacity:0.984" fill="#6cb3d3" d="M 711.5,2923.5 C 739.145,2925.76 766.145,2931.1 792.5,2939.5C 792.663,2941.86 792.497,2944.19 792,2946.5C 791.5,2948.33 790.333,2949.5 788.5,2950C 754.182,2951.01 722.516,2942.51 693.5,2924.5C 699.621,2923.56 705.621,2923.23 711.5,2923.5 Z"/></g>
<g><path style="opacity:1" fill="#6cb2d3" d="M 606.5,2930.5 C 617.334,2953.5 631.168,2974.5 648,2993.5C 649.495,3003.01 645.661,3006.51 636.5,3004C 618.567,2983.99 603.734,2961.82 592,2937.5C 591.506,2935.87 591.34,2934.2 591.5,2932.5C 596.093,2931.82 600.593,2930.82 605,2929.5C 605.383,2930.06 605.883,2930.39 606.5,2930.5 Z"/></g>
<g><path style="opacity:0.955" fill="#6cb2d3" d="M 1948.5,2931.5 C 1950.53,2936.17 1949.53,2940 1945.5,2943C 1939.12,2945.74 1932.79,2948.57 1926.5,2951.5C 1925.5,2947.49 1924.5,2943.49 1923.5,2939.5C 1931.7,2936.43 1940.03,2933.77 1948.5,2931.5 Z"/></g>
<g><path style="opacity:1" fill="#6cb2d3" d="M 1875.5,2968.5 C 1880.13,2971.45 1884.8,2974.45 1889.5,2977.5C 1883.98,2983.18 1878.65,2989.02 1873.5,2995C 1864.39,2997.57 1860.56,2994.07 1862,2984.5C 1866.71,2979.29 1871.21,2973.96 1875.5,2968.5 Z"/></g>
<g><path style="opacity:1" fill="#bee0e6" d="M 1810.5,2990.5 C 1815.13,2989.46 1818.3,2991.12 1820,2995.5C 1821.75,2999.33 1823.75,3002.99 1826,3006.5C 1826.79,3013.04 1824.12,3015.04 1818,3012.5C 1815.33,3007.83 1812.67,3003.17 1810,2998.5C 1809.28,2995.74 1809.44,2993.07 1810.5,2990.5 Z"/></g>
<g><path style="opacity:1" fill="#6cb2d3" d="M 2196.5,2993.5 C 2201.27,2992.55 2205.1,2993.88 2208,2997.5C 2209.61,3020.38 2204.61,3041.72 2193,3061.5C 2189,3065.5 2185,3065.5 2181,3061.5C 2180.04,3059.8 2179.54,3057.97 2179.5,3056C 2183.07,3047.69 2186.23,3039.19 2189,3030.5C 2191.73,3020.02 2193.07,3009.35 2193,2998.5C 2194,2996.68 2195.16,2995.01 2196.5,2993.5 Z"/></g>
<g><path style="opacity:1" fill="#bee0e6" d="M 434.5,2996.5 C 436.199,2996.34 437.866,2996.51 439.5,2997C 443.928,3002.59 447.261,3008.76 449.5,3015.5C 448.671,3020.55 446.004,3021.72 441.5,3019C 438.03,3013.21 435.03,3007.21 432.5,3001C 432.519,2999.17 433.185,2997.67 434.5,2996.5 Z"/></g>
<g><path style="opacity:1" fill="#6cb2d3" d="M 820.5,2999.5 C 826.086,2998.27 829.919,3000.27 832,3005.5C 833.167,3027.68 828.167,3048.34 817,3067.5C 813.547,3070.77 809.714,3071.27 805.5,3069C 803.556,3067.28 802.556,3065.11 802.5,3062.5C 806.246,3054 809.746,3045.33 813,3036.5C 815.768,3025.68 817.102,3014.68 817,3003.5C 818.376,3002.29 819.542,3000.96 820.5,2999.5 Z"/></g>
<g><path style="opacity:0.866" fill="#76c8de" d="M 1734.5,3003.5 C 1742.2,3004.03 1745.03,3008.03 1743,3015.5C 1738.94,3020.2 1734.6,3020.53 1730,3016.5C 1727.1,3010.47 1728.6,3006.13 1734.5,3003.5 Z"/></g>
<g><path style="opacity:0.874" fill="#76c8de" d="M 356.5,3010.5 C 362.744,3009.25 366.411,3011.75 367.5,3018C 366.922,3022.75 364.255,3025.25 359.5,3025.5C 352.642,3024.1 350.475,3020.1 353,3013.5C 354.145,3012.36 355.312,3011.36 356.5,3010.5 Z"/></g>
<g><path style="opacity:0.991" fill="#010100" d="M 1622.5,3031.5 C 1633.17,3031.33 1643.84,3031.5 1654.5,3032C 1657.55,3032.18 1660.55,3032.68 1663.5,3033.5C 1652.1,3053.64 1641.76,3074.31 1632.5,3095.5C 1622.03,3117.77 1610.53,3139.44 1598,3160.5C 1586.93,3173.78 1576.27,3173.45 1566,3159.5C 1548.67,3125.68 1534.17,3090.68 1522.5,3054.5C 1519.7,3046.78 1516.7,3039.11 1513.5,3031.5C 1549.82,3031.08 1586.16,3031.08 1622.5,3031.5 Z"/></g>
<g><path style="opacity:1" fill="#6cb2d3" d="M 1895.5,3051.5 C 1898.27,3051.42 1900.94,3051.92 1903.5,3053C 1916.08,3063.43 1930.42,3070.43 1946.5,3074C 1950.93,3079.44 1950.26,3084.11 1944.5,3088C 1931.65,3086.83 1919.65,3082.83 1908.5,3076C 1902.91,3072.29 1897.41,3068.46 1892,3064.5C 1889.35,3059.04 1890.51,3054.71 1895.5,3051.5 Z"/></g>
<g><path style="opacity:1" fill="#6cb2d3" d="M 517.5,3058.5 C 520.187,3058.34 522.854,3058.5 525.5,3059C 538.575,3069.2 553.241,3076.2 569.5,3080C 575.659,3091.19 572.325,3095.86 559.5,3094C 543.055,3089.36 528.388,3081.53 515.5,3070.5C 513.846,3066.07 514.513,3062.07 517.5,3058.5 Z"/></g>
<g><path style="opacity:0.974" fill="#6db3d3" d="M 1881.5,3139.5 C 1883.6,3135.98 1885.1,3132.31 1886,3128.5C 1867.33,3116.5 1852,3101.17 1840,3082.5C 1837.34,3077.34 1835.17,3072.01 1833.5,3066.5C 1834.3,3065.05 1834.8,3063.38 1835,3061.5C 1840.96,3055.66 1845.96,3056.33 1850,3063.5C 1849.75,3077.5 1855.25,3088.66 1866.5,3097C 1884.99,3109.75 1903.99,3121.75 1923.5,3133C 1926.94,3135.14 1930.11,3137.64 1933,3140.5C 1934.2,3144.38 1933.2,3147.38 1930,3149.5C 1926.55,3148.44 1923.22,3147.11 1920,3145.5C 1905.74,3152.19 1892.91,3150.19 1881.5,3139.5 Z"/></g>
<g><path style="opacity:0.962" fill="#6cb2d3" d="M 554.5,3156.5 C 521.492,3145.42 493.659,3126.76 471,3100.5C 464.902,3092.3 460.402,3083.3 457.5,3073.5C 458.467,3064.59 463.134,3062.09 471.5,3066C 472.943,3072.78 474.443,3079.61 476,3086.5C 481.454,3095.62 488.62,3103.12 497.5,3109C 515.666,3120.58 533.999,3131.92 552.5,3143C 557.03,3146.88 557.697,3151.38 554.5,3156.5 Z"/></g>
<g><path style="opacity:0.936" fill="#76c8de" d="M 1763.5,3081.5 C 1778.17,3080.5 1782,3086.5 1775,3099.5C 1768.04,3108.15 1759.04,3113.15 1748,3114.5C 1741.8,3114.51 1738.64,3111.51 1738.5,3105.5C 1739.85,3097.3 1744.19,3091.14 1751.5,3087C 1755.48,3084.84 1759.48,3083 1763.5,3081.5 Z"/></g>
<g><path style="opacity:1" fill="#bee0e6" d="M 2206.5,3085.5 C 2211.85,3084.86 2214.02,3087.2 2213,3092.5C 2210.23,3097.6 2207.06,3102.44 2203.5,3107C 2197.43,3108.15 2195.27,3105.65 2197,3099.5C 2199.93,3094.63 2203.1,3089.96 2206.5,3085.5 Z"/></g>
<g><path style="opacity:0.936" fill="#76c8de" d="M 389.5,3087.5 C 399.288,3086.78 403.121,3091.11 401,3100.5C 393.14,3115.35 380.973,3121.51 364.5,3119C 362.556,3117.28 361.556,3115.11 361.5,3112.5C 365.808,3098.52 375.141,3090.19 389.5,3087.5 Z"/></g>
<g><path style="opacity:1" fill="#bfe0e6" d="M 829.5,3092.5 C 835.674,3091.17 837.841,3093.51 836,3099.5C 833.227,3104.6 830.06,3109.44 826.5,3114C 821.333,3114.83 819.167,3112.67 820,3107.5C 822.996,3102.35 826.162,3097.35 829.5,3092.5 Z"/></g>
<g><path style="opacity:0.976" fill="#6cb3d3" d="M 2285.5,3127.5 C 2281.16,3135.68 2275.16,3142.51 2267.5,3148C 2238.25,3167.57 2205.92,3177.07 2170.5,3176.5C 2164.15,3176.38 2157.81,3176.05 2151.5,3175.5C 2150.82,3171.73 2152.16,3168.89 2155.5,3167C 2186.91,3160.4 2217.91,3152.4 2248.5,3143C 2260.19,3138.64 2267.69,3130.48 2271,3118.5C 2271.83,3117.67 2272.67,3116.83 2273.5,3116C 2282.56,3114.56 2286.56,3118.4 2285.5,3127.5 Z"/></g>
<g><path style="opacity:1" fill="#6cb2d3" d="M 2123.5,3117.5 C 2133.15,3115.37 2137.32,3119.03 2136,3128.5C 2135.17,3130.67 2133.67,3132.17 2131.5,3133C 2106.71,3138.47 2081.71,3139.8 2056.5,3137C 2052.14,3134.77 2050.64,3131.27 2052,3126.5C 2052.83,3124.33 2054.33,3122.83 2056.5,3122C 2068.8,3122.56 2081.13,3122.56 2093.5,3122C 2103.78,3121.47 2113.78,3119.97 2123.5,3117.5 Z"/></g>
<g><path style="opacity:1" fill="#bfe0e6" d="M 1959.5,3117.5 C 1960.87,3117.34 1962.21,3117.51 1963.5,3118C 1976.74,3124.53 1989.57,3131.7 2002,3139.5C 2002.83,3144.67 2000.67,3146.83 1995.5,3146C 1984.14,3139.99 1972.8,3133.99 1961.5,3128C 1955.79,3125.34 1955.12,3121.84 1959.5,3117.5 Z"/></g>
<g><path style="opacity:0.981" fill="#6cb3d3" d="M 908.5,3134.5 C 904.363,3142.23 898.696,3148.73 891.5,3154C 868.148,3170.45 842.148,3179.79 813.5,3182C 800.327,3182.83 787.327,3182.66 774.5,3181.5C 774.264,3178.77 775.097,3176.44 777,3174.5C 808.448,3167.51 839.615,3159.35 870.5,3150C 882.818,3146.02 890.651,3137.85 894,3125.5C 895.167,3124.33 896.333,3123.17 897.5,3122C 906.554,3121.23 910.221,3125.39 908.5,3134.5 Z"/></g>
<g><path style="opacity:0.932" fill="#76c8de" d="M 1833.5,3122.5 C 1848.64,3122.46 1854.48,3129.8 1851,3144.5C 1845.15,3152.75 1837.65,3154.58 1828.5,3150C 1821.95,3143.78 1820.79,3136.61 1825,3128.5C 1827.67,3126.1 1830.5,3124.1 1833.5,3122.5 Z"/></g>
<g><path style="opacity:1" fill="#bfe0e6" d="M 582.5,3124.5 C 584.527,3124.34 586.527,3124.5 588.5,3125C 600.748,3131.71 612.914,3138.54 625,3145.5C 625.993,3151.5 623.493,3153.67 617.5,3152C 605.993,3145.41 594.326,3139.08 582.5,3133C 579.899,3130.17 579.899,3127.34 582.5,3124.5 Z"/></g>
<g><path style="opacity:1" fill="#6cb2d3" d="M 748.5,3123.5 C 756.828,3122.66 760.661,3126.33 760,3134.5C 759.085,3135.33 758.419,3136.33 758,3137.5C 750.341,3139.83 742.508,3141.67 734.5,3143C 717.196,3144.53 699.862,3144.86 682.5,3144C 673.692,3140.95 672.359,3135.95 678.5,3129C 693.167,3128.67 707.833,3128.33 722.5,3128C 731.455,3127.37 740.122,3125.87 748.5,3123.5 Z"/></g>
<g><path style="opacity:0.937" fill="#76c8de" d="M 455.5,3129.5 C 470.653,3127.82 477.153,3134.49 475,3149.5C 472.192,3155.66 467.358,3159 460.5,3159.5C 446.374,3155.91 442.541,3147.58 449,3134.5C 450.965,3132.45 453.132,3130.78 455.5,3129.5 Z"/></g>
</svg>
