<?xml version="1.0" encoding="UTF-8"?>
<!DOCTYPE svg PUBLIC "-//W3C//DTD SVG 1.1//EN" "http://www.w3.org/Graphics/SVG/1.1/DTD/svg11.dtd">
<svg xmlns="http://www.w3.org/2000/svg" version="1.1" width="2551px" height="3301px" style="shape-rendering:geometricPrecision; text-rendering:geometricPrecision; image-rendering:optimizeQuality; fill-rule:evenodd; clip-rule:evenodd" xmlns:xlink="http://www.w3.org/1999/xlink">
<g><path style="opacity:0.998" fill="#4e74b3" d="M 2112.5,1017.5 C 1618.59,810.639 1124.59,603.973 630.5,397.5C 634.227,389.319 637.56,380.986 640.5,372.5C 642.144,372.286 643.644,372.62 645,373.5C 694.364,295.633 743.531,217.633 792.5,139.5C 1246.79,329.764 1701.13,519.931 2155.5,710C 2143.32,802.787 2130.32,895.62 2116.5,988.5C 2118.67,989.948 2121,991.115 2123.5,992C 2119.73,1000.47 2116.07,1008.97 2112.5,1017.5 Z"/></g>
<g><path style="opacity:0.996" fill="#4e85bc" d="M 630.5,397.5 C 1124.59,603.973 1618.59,810.639 2112.5,1017.5C 2102.88,1040.4 2093.55,1063.4 2084.5,1086.5C 2076.09,1083.7 2067.76,1080.7 2059.5,1077.5C 2059.42,1076.25 2058.76,1075.42 2057.5,1075C 2049.81,1072.15 2042.15,1069.32 2034.5,1066.5C 1923.83,1020.17 1813.17,973.833 1702.5,927.5C 1435.52,815.023 1168.19,703.023 900.5,591.5C 801.407,550.455 702.407,509.122 603.5,467.5C 602.386,466.277 602.219,464.944 603,463.5C 612.455,441.593 621.622,419.593 630.5,397.5 Z"/></g>
<g><path style="opacity:0.997" fill="#4e76b2" d="M 900.5,591.5 C 1168.19,703.023 1435.52,815.023 1702.5,927.5C 1672.79,999.26 1642.79,1070.93 1612.5,1142.5C 1609.4,1145.26 1605.73,1146.76 1601.5,1147C 1590.12,1147.57 1578.79,1147.07 1567.5,1145.5C 1563.08,1143.9 1558.41,1142.9 1553.5,1142.5C 1553.39,1141.88 1553.06,1141.38 1552.5,1141C 1569,1118.84 1580.83,1094.34 1588,1067.5C 1595.38,1034.36 1593.71,1001.7 1583,969.5C 1573.4,961.228 1563.23,953.728 1552.5,947C 1509.34,921.581 1465.01,897.914 1419.5,876C 1327.14,832.154 1233.81,790.488 1139.5,751C 1052.52,715.181 965.521,679.681 878.5,644.5C 885.56,626.714 892.893,609.048 900.5,591.5 Z"/></g>
<g><path style="opacity:0.999" fill="#4f7cb7" d="M 878.5,644.5 C 965.521,679.681 1052.52,715.181 1139.5,751C 1233.81,790.488 1327.14,832.154 1419.5,876C 1465.01,897.914 1509.34,921.581 1552.5,947C 1563.23,953.728 1573.4,961.228 1583,969.5C 1593.71,1001.7 1595.38,1034.36 1588,1067.5C 1580.83,1094.34 1569,1118.84 1552.5,1141C 1553.06,1141.38 1553.39,1141.88 1553.5,1142.5C 1498.3,1130.16 1443.97,1114.66 1390.5,1096C 1244.64,1045.23 1102.97,984.896 965.5,915C 923.491,893.675 883.157,869.842 844.5,843.5C 830.923,835.425 819.757,824.758 811,811.5C 810.333,809.167 810.333,806.833 811,804.5C 833.276,750.962 855.776,697.629 878.5,644.5 Z"/></g>
<g><path style="opacity:0.998" fill="#9899a5" d="M 844.5,843.5 C 883.157,869.842 923.491,893.675 965.5,915C 1102.97,984.896 1244.64,1045.23 1390.5,1096C 1443.97,1114.66 1498.3,1130.16 1553.5,1142.5C 1558.41,1142.9 1563.08,1143.9 1567.5,1145.5C 1558.11,1168.01 1549.11,1190.67 1540.5,1213.5C 1528.83,1213.5 1517.17,1213.5 1505.5,1213.5C 1506.48,1201.49 1504.98,1189.83 1501,1178.5C 1462.83,1159.33 1423.66,1142.5 1383.5,1128C 1317.2,1104.79 1250.54,1082.79 1183.5,1062C 1137.9,1044.54 1093.24,1024.87 1049.5,1003C 980.313,968.41 912.647,931.41 846.5,892C 840.259,888.057 834.259,883.891 828.5,879.5C 833.287,867.26 838.62,855.26 844.5,843.5 Z"/></g>
<g><path style="opacity:0.999" fill="#a5a5a4" d="M 828.5,879.5 C 834.259,883.891 840.259,888.057 846.5,892C 912.647,931.41 980.313,968.41 1049.5,1003C 1093.24,1024.87 1137.9,1044.54 1183.5,1062C 1250.54,1082.79 1317.2,1104.79 1383.5,1128C 1423.66,1142.5 1462.83,1159.33 1501,1178.5C 1504.98,1189.83 1506.48,1201.49 1505.5,1213.5C 1452.61,1212.19 1400.61,1204.69 1349.5,1191C 1332.45,1186.32 1315.45,1181.49 1298.5,1176.5C 1204.6,1143.98 1110.94,1110.64 1017.5,1076.5C 974.64,1059.74 933.64,1039.24 894.5,1015C 860.73,993.742 830.397,968.242 803.5,938.5C 811.046,918.419 819.379,898.752 828.5,879.5 Z"/></g>
<g><path style="opacity:0.997" fill="#e67117" d="M 803.5,938.5 C 830.397,968.242 860.73,993.742 894.5,1015C 933.64,1039.24 974.64,1059.74 1017.5,1076.5C 1013.07,1084.9 1008.91,1093.57 1005,1102.5C 988.505,1141.14 972.338,1179.81 956.5,1218.5C 901.328,1205 846.661,1206.83 792.5,1224C 750.146,1238.67 710.813,1258.84 674.5,1284.5C 716.94,1168.95 759.94,1053.62 803.5,938.5 Z"/></g>
<g><path style="opacity:0.948" fill="#af4f4f" d="M 2034.5,1066.5 C 2042.15,1069.32 2049.81,1072.15 2057.5,1075C 2058.76,1075.42 2059.42,1076.25 2059.5,1077.5C 2043.76,1120.44 2031.76,1164.44 2023.5,1209.5C 2027.93,1215.1 2031.76,1221.1 2035,1227.5C 2038.88,1232.7 2043.55,1236.04 2049,1237.5C 2049.33,1236.5 2049.67,1235.5 2050,1234.5C 2051.53,1236.56 2053.53,1237.9 2056,1238.5C 2056.71,1240.97 2056.37,1243.3 2055,1245.5C 2054.67,1245.17 2054.33,1244.83 2054,1244.5C 2052.69,1246.32 2051.19,1247.98 2049.5,1249.5C 2050.17,1251.83 2050.83,1254.17 2051.5,1256.5C 2051.29,1257.09 2050.96,1257.59 2050.5,1258C 2054.89,1263.29 2058.39,1269.12 2061,1275.5C 2068.75,1284.49 2074.58,1294.65 2078.5,1306C 2078.17,1306.5 2077.83,1307 2077.5,1307.5C 2076.5,1306.83 2075.5,1306.17 2074.5,1305.5C 2078.85,1317.88 2084.69,1329.88 2092,1341.5C 2092.67,1342.5 2092.67,1343.5 2092,1344.5C 2090.43,1343.02 2089.09,1341.35 2088,1339.5C 2087.5,1340.5 2087,1341.5 2086.5,1342.5C 2091.47,1360.64 2103.14,1371.81 2121.5,1376C 2139.54,1380.62 2157.87,1383.29 2176.5,1384C 2150.33,1384.81 2125.33,1380.14 2101.5,1370C 2104.67,1374.5 2108.5,1378.33 2113,1381.5C 2113.18,1384.23 2113.68,1386.89 2114.5,1389.5C 2118.23,1392.02 2122.23,1393.85 2126.5,1395C 2112.57,1397.79 2098.57,1399.29 2084.5,1399.5C 2073.98,1397.51 2073.98,1395.34 2084.5,1393C 2086.03,1390.97 2087.36,1388.8 2088.5,1386.5C 2087.83,1384.5 2086.5,1383.17 2084.5,1382.5C 2083.7,1380.92 2083.2,1379.26 2083,1377.5C 2078.23,1379.35 2073.4,1381.02 2068.5,1382.5C 2067.61,1383.32 2067.28,1384.32 2067.5,1385.5C 2055.98,1385.9 2044.64,1387.56 2033.5,1390.5C 2032.62,1392.75 2032.96,1394.91 2034.5,1397C 2031.58,1399.07 2031.92,1400.4 2035.5,1401C 2034.83,1401.33 2034.17,1401.67 2033.5,1402C 2036.07,1407.19 2038.73,1412.35 2041.5,1417.5C 2046.6,1421.7 2051.94,1425.37 2057.5,1428.5C 2049.93,1432.59 2042.1,1433.26 2034,1430.5C 2031.91,1431.5 2030.24,1430.83 2029,1428.5C 2027.34,1429.82 2026.17,1431.48 2025.5,1433.5C 2026.98,1434.48 2028.31,1435.65 2029.5,1437C 2029.17,1437.33 2028.83,1437.67 2028.5,1438C 2030.19,1439.4 2030.86,1441.23 2030.5,1443.5C 2032.58,1443.47 2034.42,1444.14 2036,1445.5C 2036.46,1446.74 2035.96,1447.58 2034.5,1448C 2027.83,1450.6 2021.17,1451.6 2014.5,1451C 2010.3,1444.03 2006.47,1436.86 2003,1429.5C 2000.27,1428.64 2000.1,1427.81 2002.5,1427C 2001.5,1425.33 2000.17,1424 1998.5,1423C 1998.83,1422.67 1999.17,1422.33 1999.5,1422C 1998.5,1421.67 1997.5,1421.33 1996.5,1421C 1996.83,1420.67 1997.17,1420.33 1997.5,1420C 1996,1417.52 1994.5,1415.02 1993,1412.5C 1991.82,1413.73 1990.65,1413.73 1989.5,1412.5C 1992.05,1409.87 1991.55,1409.21 1988,1410.5C 1986.73,1409.46 1985.56,1408.3 1984.5,1407C 1985.83,1406.33 1987.17,1405.67 1988.5,1405C 1986.25,1403.29 1984.58,1401.12 1983.5,1398.5C 1979.89,1399.26 1976.22,1399.76 1972.5,1400C 1972.04,1402.91 1972.04,1405.91 1972.5,1409C 1970.7,1409.32 1970.37,1409.98 1971.5,1411C 1969.43,1414.72 1968.1,1418.72 1967.5,1423C 1967.91,1426.62 1968.57,1430.45 1969.5,1434.5C 1969.02,1435.48 1968.36,1436.31 1967.5,1437C 1970.04,1437.93 1971.04,1439.76 1970.5,1442.5C 1967.92,1442.92 1965.75,1442.25 1964,1440.5C 1961.77,1442.37 1959.27,1443.21 1956.5,1443C 1956.96,1442.59 1957.29,1442.09 1957.5,1441.5C 1956,1440.16 1955.33,1438.49 1955.5,1436.5C 1954.45,1436.65 1953.45,1436.48 1952.5,1436C 1956.66,1432.97 1956.32,1430.47 1951.5,1428.5C 1952.61,1426.5 1952.28,1424.67 1950.5,1423C 1953.17,1422 1953.17,1421 1950.5,1420C 1951.17,1419.67 1951.83,1419.33 1952.5,1419C 1951.48,1418.48 1950.82,1417.65 1950.5,1416.5C 1951.3,1414.86 1952.3,1413.36 1953.5,1412C 1952.74,1410.49 1951.74,1409.15 1950.5,1408C 1954.85,1407.58 1955.19,1406.91 1951.5,1406C 1952.17,1405.67 1952.83,1405.33 1953.5,1405C 1953.25,1402.91 1953.25,1400.91 1953.5,1399C 1954.83,1398 1956.17,1397 1957.5,1396C 1956.5,1395.67 1955.5,1395.33 1954.5,1395C 1958.37,1393.65 1958.37,1392.49 1954.5,1391.5C 1956.92,1389.71 1956.92,1388.05 1954.5,1386.5C 1956.04,1384.8 1957.37,1382.96 1958.5,1381C 1958.05,1379.71 1957.38,1378.55 1956.5,1377.5C 1956.71,1376.91 1957.04,1376.41 1957.5,1376C 1953.2,1374.54 1950.2,1375.87 1948.5,1380C 1948.83,1380.33 1949.17,1380.67 1949.5,1381C 1946.21,1381.25 1945.04,1382.75 1946,1385.5C 1943.53,1386.1 1941.53,1387.44 1940,1389.5C 1939.71,1392.76 1938.21,1395.76 1935.5,1398.5C 1934.83,1400.69 1933.83,1402.69 1932.5,1404.5C 1932.83,1405.17 1933.17,1405.83 1933.5,1406.5C 1931.91,1408.77 1930.41,1411.11 1929,1413.5C 1929.82,1417.45 1928.49,1420.79 1925,1423.5C 1926.24,1429.16 1925.07,1433.99 1921.5,1438C 1922.48,1439.78 1922.15,1441.45 1920.5,1443C 1921.62,1444.04 1922.96,1444.71 1924.5,1445C 1920.18,1450.68 1919.85,1457.18 1923.5,1464.5C 1923.29,1465.09 1922.96,1465.59 1922.5,1466C 1929.78,1471.1 1929.11,1472.6 1920.5,1470.5C 1916.44,1465.04 1915.77,1465.37 1918.5,1471.5C 1916.6,1472.47 1914.6,1472.8 1912.5,1472.5C 1912.5,1471.17 1912.5,1469.83 1912.5,1468.5C 1910.39,1468.32 1908.73,1467.32 1907.5,1465.5C 1907.71,1464.91 1908.04,1464.41 1908.5,1464C 1905.03,1462.16 1904.03,1459.49 1905.5,1456C 1902.56,1454.54 1902.22,1452.87 1904.5,1451C 1901.32,1449.22 1901.32,1446.89 1904.5,1444C 1903.5,1443.67 1902.5,1443.33 1901.5,1443C 1902.83,1442 1902.83,1441 1901.5,1440C 1902.61,1438.43 1903.95,1437.1 1905.5,1436C 1903.56,1435.19 1901.56,1434.69 1899.5,1434.5C 1899.72,1431.31 1901.22,1430.31 1904,1431.5C 1904.48,1430.55 1904.65,1429.55 1904.5,1428.5C 1903.02,1428.76 1901.69,1428.43 1900.5,1427.5C 1901.63,1424.39 1902.13,1421.39 1902,1418.5C 1904.3,1415.96 1906.8,1414.46 1909.5,1414C 1906.83,1413.33 1906.83,1412.67 1909.5,1412C 1908.55,1411.52 1907.55,1411.35 1906.5,1411.5C 1906.36,1409.88 1907.03,1408.71 1908.5,1408C 1907.95,1406.6 1907.62,1405.27 1907.5,1404C 1910.8,1399.96 1912.13,1395.46 1911.5,1390.5C 1912.5,1389.83 1913.5,1389.17 1914.5,1388.5C 1913.53,1387.04 1913.86,1385.7 1915.5,1384.5C 1909.99,1384.02 1904.65,1382.85 1899.5,1381C 1898.55,1377.94 1898.22,1374.78 1898.5,1371.5C 1897.13,1371.34 1895.79,1371.51 1894.5,1372C 1896.11,1376.16 1895.11,1379.49 1891.5,1382C 1892.63,1383.02 1892.3,1383.68 1890.5,1384C 1890.67,1385.12 1891,1386.28 1891.5,1387.5C 1890,1389.83 1888.5,1392.17 1887,1394.5C 1886.4,1400.29 1884.9,1405.79 1882.5,1411C 1883.17,1412 1883.83,1413 1884.5,1414C 1881.83,1416 1881.83,1418 1884.5,1420C 1881.52,1421.28 1880.52,1423.28 1881.5,1426C 1879.58,1428.3 1879.58,1430.3 1881.5,1432C 1878.64,1434.01 1878.3,1436.18 1880.5,1438.5C 1879.97,1439.19 1879.31,1439.69 1878.5,1440C 1880.69,1440.68 1881.02,1441.84 1879.5,1443.5C 1880.52,1444.85 1881.85,1445.85 1883.5,1446.5C 1881.77,1447.6 1880.1,1448.76 1878.5,1450C 1879.87,1451.24 1880.87,1452.74 1881.5,1454.5C 1880.1,1455.85 1879.44,1457.52 1879.5,1459.5C 1879.98,1465.09 1881.32,1470.42 1883.5,1475.5C 1881.5,1475.5 1879.5,1475.5 1877.5,1475.5C 1877.5,1476.5 1877.5,1477.5 1877.5,1478.5C 1876.13,1478.66 1874.79,1478.49 1873.5,1478C 1874.83,1477.33 1874.83,1476.67 1873.5,1476C 1874.33,1475.09 1875.33,1474.42 1876.5,1474C 1873.77,1473.82 1871.11,1473.32 1868.5,1472.5C 1869.97,1470.61 1871.64,1468.94 1873.5,1467.5C 1872.03,1467.28 1870.53,1466.94 1869,1466.5C 1868.6,1465.13 1868.1,1463.79 1867.5,1462.5C 1868.81,1461.74 1869.31,1460.74 1869,1459.5C 1862.46,1460.79 1861.96,1459.63 1867.5,1456C 1866.83,1454.67 1865.83,1453.67 1864.5,1453C 1865.73,1449.22 1865.73,1445.39 1864.5,1441.5C 1864.94,1439.9 1865.61,1438.4 1866.5,1437C 1866.79,1433 1866.46,1429.17 1865.5,1425.5C 1868.76,1421.31 1868.1,1417.97 1863.5,1415.5C 1865.59,1414.46 1867.25,1412.96 1868.5,1411C 1867.33,1410.58 1866.33,1409.91 1865.5,1409C 1868.3,1408.56 1869.3,1407.23 1868.5,1405C 1871.15,1401.56 1871.82,1397.72 1870.5,1393.5C 1871.09,1392.2 1872.09,1391.37 1873.5,1391C 1872.9,1389.37 1873.24,1387.71 1874.5,1386C 1873.69,1385.69 1873.03,1385.19 1872.5,1384.5C 1876.38,1383.7 1877.05,1382.04 1874.5,1379.5C 1877.62,1378.31 1877.95,1376.81 1875.5,1375C 1876.83,1374.67 1878.17,1374.33 1879.5,1374C 1878.66,1372.99 1878.33,1371.82 1878.5,1370.5C 1873.68,1370.72 1870.02,1372.88 1867.5,1377C 1868.17,1377.33 1868.83,1377.67 1869.5,1378C 1867.54,1380.81 1864.88,1382.31 1861.5,1382.5C 1861.72,1383.68 1861.39,1384.68 1860.5,1385.5C 1857,1386.44 1855.5,1388.44 1856,1391.5C 1854.64,1392.38 1853.14,1392.71 1851.5,1392.5C 1851.33,1393.82 1851.66,1394.99 1852.5,1396C 1850.29,1397.27 1847.95,1398.27 1845.5,1399C 1846.31,1399.31 1846.97,1399.81 1847.5,1400.5C 1845.39,1401.92 1843.39,1403.42 1841.5,1405C 1841.83,1405.33 1842.17,1405.67 1842.5,1406C 1837.5,1411 1832.5,1416 1827.5,1421C 1817.02,1424.81 1806.35,1426.31 1795.5,1425.5C 1795.32,1423.06 1795.98,1420.9 1797.5,1419C 1796.48,1418.48 1795.82,1417.65 1795.5,1416.5C 1796.11,1413.85 1796.61,1411.19 1797,1408.5C 1798.01,1407.66 1799.18,1407.33 1800.5,1407.5C 1801.94,1403.54 1804.44,1400.2 1808,1397.5C 1810.71,1392.88 1814.21,1389.05 1818.5,1386C 1817.83,1385.67 1817.17,1385.33 1816.5,1385C 1821.08,1380.41 1824.91,1375.25 1828,1369.5C 1828.74,1368.36 1829.57,1368.36 1830.5,1369.5C 1831.62,1368.09 1832.62,1366.59 1833.5,1365C 1836,1364.87 1838,1363.87 1839.5,1362C 1838.09,1361.63 1837.09,1360.8 1836.5,1359.5C 1838.5,1356.83 1840.83,1354.5 1843.5,1352.5C 1844.75,1350.68 1845.41,1348.68 1845.5,1346.5C 1849.54,1346.31 1852.54,1344.47 1854.5,1341C 1853.4,1339.32 1853.73,1337.82 1855.5,1336.5C 1856.73,1335.72 1858.06,1335.22 1859.5,1335C 1859.04,1334.59 1858.71,1334.09 1858.5,1333.5C 1860.16,1332.18 1861.33,1330.52 1862,1328.5C 1863.4,1327.77 1864.9,1327.27 1866.5,1327C 1864.52,1326.39 1864.19,1325.39 1865.5,1324C 1867.94,1324.05 1870.27,1323.89 1872.5,1323.5C 1869.17,1321.25 1869.17,1319.75 1872.5,1319C 1871.94,1317.43 1872.61,1316.1 1874.5,1315C 1876.45,1315.13 1878.28,1314.96 1880,1314.5C 1880.5,1312.53 1880.66,1310.53 1880.5,1308.5C 1883.92,1308.4 1886.92,1307.23 1889.5,1305C 1889.04,1304.59 1888.71,1304.09 1888.5,1303.5C 1890.75,1301.26 1892.08,1298.6 1892.5,1295.5C 1898.28,1293.4 1902.94,1289.74 1906.5,1284.5C 1907.09,1284.71 1907.59,1285.04 1908,1285.5C 1909.5,1283.33 1911,1281.17 1912.5,1279C 1918.22,1277.25 1922.22,1273.58 1924.5,1268C 1924.17,1267.67 1923.83,1267.33 1923.5,1267C 1924.78,1266.32 1925.95,1266.48 1927,1267.5C 1928.57,1266.02 1929.91,1264.35 1931,1262.5C 1929.18,1255.98 1931.18,1254.31 1937,1257.5C 1937.83,1256.67 1938.67,1255.83 1939.5,1255C 1935.88,1252.93 1935.55,1250.43 1938.5,1247.5C 1940.26,1247.31 1942.1,1247.31 1944,1247.5C 1943.75,1245.08 1943.75,1242.74 1944,1240.5C 1947.45,1242.88 1949.95,1241.88 1951.5,1237.5C 1952.32,1236.61 1953.32,1236.28 1954.5,1236.5C 1956.54,1230.81 1958.54,1225.15 1960.5,1219.5C 1961.5,1219.5 1962.5,1219.5 1963.5,1219.5C 1963.5,1218.17 1963.5,1216.83 1963.5,1215.5C 1965.67,1215.42 1967.67,1214.75 1969.5,1213.5C 1974.86,1217.54 1978.19,1222.87 1979.5,1229.5C 1977.93,1231.89 1976.6,1234.39 1975.5,1237C 1976.79,1237.49 1978.13,1237.66 1979.5,1237.5C 1979.5,1236.5 1979.5,1235.5 1979.5,1234.5C 1982.57,1233.8 1985.57,1232.8 1988.5,1231.5C 1990.07,1232.31 1991.74,1232.64 1993.5,1232.5C 2001.52,1175.75 2015.19,1120.42 2034.5,1066.5 Z M 2043.5,1288.5 C 2044.69,1289.68 2045.85,1289.68 2047,1288.5C 2048.24,1289.4 2049.07,1290.57 2049.5,1292C 2047.96,1294.98 2046.79,1298.15 2046,1301.5C 2043.97,1298.97 2042.14,1296.3 2040.5,1293.5C 2041,1292.5 2041.5,1291.5 2042,1290.5C 2042.33,1290.83 2042.67,1291.17 2043,1291.5C 2043.48,1290.55 2043.65,1289.55 2043.5,1288.5 Z M 1981.5,1292.5 C 1984,1292.51 1984.17,1293.18 1982,1294.5C 1981.54,1293.91 1981.37,1293.24 1981.5,1292.5 Z M 1975.5,1298.5 C 1976.55,1298.35 1977.55,1298.52 1978.5,1299C 1977.12,1300.93 1975.62,1302.76 1974,1304.5C 1973.81,1306.9 1973.31,1309.23 1972.5,1311.5C 1970.36,1312.81 1968.36,1314.31 1966.5,1316C 1968.26,1316.72 1969.09,1317.89 1969,1319.5C 1965.13,1321.13 1961.97,1323.29 1959.5,1326C 1960.66,1324.17 1960.33,1322.51 1958.5,1321C 1959.24,1318.86 1960.24,1316.86 1961.5,1315C 1960.98,1314.44 1960.64,1313.77 1960.5,1313C 1965.15,1309.36 1969.81,1305.69 1974.5,1302C 1975.34,1300.99 1975.67,1299.82 1975.5,1298.5 Z M 1844.5,1378.5 C 1846.46,1375.56 1848.46,1372.56 1850.5,1369.5C 1850.29,1368.91 1849.96,1368.41 1849.5,1368C 1856.08,1362.67 1861.74,1356.34 1866.5,1349C 1868.23,1349.41 1869.89,1349.24 1871.5,1348.5C 1869.07,1345.19 1870.07,1343.19 1874.5,1342.5C 1875.25,1339.48 1877.09,1337.15 1880,1335.5C 1880.49,1334.21 1880.66,1332.87 1880.5,1331.5C 1881.83,1331.5 1883.17,1331.5 1884.5,1331.5C 1885.38,1329.09 1886.55,1326.76 1888,1324.5C 1889.07,1323.81 1890.23,1323.31 1891.5,1323C 1892.1,1319.56 1894.1,1317.73 1897.5,1317.5C 1897.28,1316.32 1897.61,1315.32 1898.5,1314.5C 1901.21,1313.11 1903.54,1311.27 1905.5,1309C 1907.36,1308.58 1909.19,1308.08 1911,1307.5C 1912.28,1307.61 1913.11,1308.28 1913.5,1309.5C 1909.94,1310.14 1906.61,1311.31 1903.5,1313C 1904.46,1314.15 1904.12,1315.15 1902.5,1316C 1905.36,1317.79 1906.03,1320.12 1904.5,1323C 1901.48,1323.85 1898.48,1324.68 1895.5,1325.5C 1895.18,1327.72 1895.84,1329.56 1897.5,1331C 1895.83,1331.33 1894.17,1331.67 1892.5,1332C 1891.17,1333 1891.17,1334 1892.5,1335C 1890.87,1336.31 1889.2,1336.81 1887.5,1336.5C 1882.61,1340.9 1877.61,1345.07 1872.5,1349C 1873.17,1349.67 1873.83,1350.33 1874.5,1351C 1870.99,1352 1868.32,1353.5 1866.5,1355.5C 1865.29,1356.27 1865.29,1357.11 1866.5,1358C 1862.48,1359.97 1859.48,1362.8 1857.5,1366.5C 1856.5,1366.5 1855.5,1366.5 1854.5,1366.5C 1854.5,1367.5 1854.5,1368.5 1854.5,1369.5C 1853.5,1369.5 1852.5,1369.5 1851.5,1369.5C 1851.31,1374.24 1848.97,1377.24 1844.5,1378.5 Z M 1947.5,1336.5 C 1948.65,1336.79 1949.32,1337.62 1949.5,1339C 1948.87,1342.32 1946.87,1343.65 1943.5,1343C 1945.75,1341.95 1946.09,1340.45 1944.5,1338.5C 1945.6,1337.82 1946.6,1337.16 1947.5,1336.5 Z M 2057.5,1350.5 C 2059.58,1352.08 2061.58,1353.91 2063.5,1356C 2062.83,1356.33 2062.17,1356.67 2061.5,1357C 2065.87,1359.86 2069.87,1363.19 2073.5,1367C 2072.17,1368.33 2070.83,1369.67 2069.5,1371C 2065.73,1372.42 2062.07,1374.09 2058.5,1376C 2057.06,1376.78 2055.72,1376.61 2054.5,1375.5C 2052.88,1372.55 2050.88,1369.88 2048.5,1367.5C 2049.48,1365.88 2048.98,1364.54 2047,1363.5C 2046.51,1361.87 2046.34,1360.2 2046.5,1358.5C 2048.2,1358.66 2049.87,1358.49 2051.5,1358C 2051.64,1356.4 2051.64,1354.9 2051.5,1353.5C 2053.44,1352.2 2055.44,1351.2 2057.5,1350.5 Z M 1911.5,1356.5 C 1912.27,1357.17 1912.93,1358.01 1913.5,1359C 1910.95,1363.72 1909.62,1368.55 1909.5,1373.5C 1908.59,1372.67 1907.92,1371.67 1907.5,1370.5C 1908.96,1365.86 1910.29,1361.19 1911.5,1356.5 Z M 1882.5,1363.5 C 1883.77,1364.08 1883.77,1364.74 1882.5,1365.5C 1881.54,1365.03 1881.54,1364.36 1882.5,1363.5 Z M 1878.5,1370.5 C 1878.49,1368.98 1877.82,1367.82 1876.5,1367C 1878.17,1366.88 1879.84,1367.21 1881.5,1368C 1880.92,1369.42 1879.92,1370.25 1878.5,1370.5 Z M 1921.5,1375.5 C 1924,1375.51 1924.17,1376.18 1922,1377.5C 1921.54,1376.91 1921.37,1376.24 1921.5,1375.5 Z M 1843.5,1380.5 C 1842.18,1382.82 1840.51,1384.82 1838.5,1386.5C 1838.87,1383.47 1840.54,1381.47 1843.5,1380.5 Z M 1834.5,1391.5 C 1834.78,1390.71 1835.28,1390.04 1836,1389.5C 1836.53,1390.82 1836.03,1391.48 1834.5,1391.5 Z"/></g>
<g><path style="opacity:1" fill="#e66117" d="M 1017.5,1076.5 C 1110.94,1110.64 1204.6,1143.98 1298.5,1176.5C 1277.56,1223.36 1257.22,1270.36 1237.5,1317.5C 1222.05,1307.25 1205.71,1298.42 1188.5,1291C 1177.33,1290.17 1172.17,1295.33 1173,1306.5C 1174.07,1309.24 1175.57,1311.74 1177.5,1314C 1195.97,1320.57 1213.64,1328.74 1230.5,1338.5C 1210.22,1391.35 1190.55,1444.35 1171.5,1497.5C 1133.6,1491.94 1096.6,1495.44 1060.5,1508C 1050.39,1512.22 1040.73,1517.22 1031.5,1523C 1066.69,1548.09 1102.02,1572.92 1137.5,1597.5C 1106.95,1695.32 1078.12,1793.65 1051,1892.5C 1050.76,1894.12 1049.93,1895.12 1048.5,1895.5C 995.065,1881.81 941.732,1867.81 888.5,1853.5C 879.996,1820.31 862.329,1793.15 835.5,1772C 826.966,1766.24 818.299,1760.74 809.5,1755.5C 832.833,1696.5 856.167,1637.5 879.5,1578.5C 873.944,1575.06 867.944,1572.72 861.5,1571.5C 847.637,1607.92 833.471,1644.25 819,1680.5C 817.887,1681.71 816.72,1681.71 815.5,1680.5C 806.244,1702.93 797.577,1725.6 789.5,1748.5C 786.5,1747.83 783.5,1747.17 780.5,1746.5C 794.065,1697.23 808.398,1648.23 823.5,1599.5C 862.877,1566.86 887.711,1525.19 898,1474.5C 904.129,1442.11 903.962,1409.78 897.5,1377.5C 912.985,1332.04 929.651,1287.04 947.5,1242.5C 958.972,1241.93 963.472,1235.93 961,1224.5C 959.668,1222.34 958.168,1220.34 956.5,1218.5C 972.338,1179.81 988.505,1141.14 1005,1102.5C 1008.91,1093.57 1013.07,1084.9 1017.5,1076.5 Z"/></g>
<g><path style="opacity:0.998" fill="#9b471f" d="M 1298.5,1176.5 C 1315.45,1181.49 1332.45,1186.32 1349.5,1191C 1400.61,1204.69 1452.61,1212.19 1505.5,1213.5C 1517.17,1213.5 1528.83,1213.5 1540.5,1213.5C 1474.23,1364.13 1413.73,1517.13 1359,1672.5C 1260.57,1958.55 1191.24,2251.55 1151,2551.5C 1150.42,2555.09 1148.59,2557.92 1145.5,2560C 1139.65,2562.67 1133.65,2564.84 1127.5,2566.5C 1093.99,2570.9 1060.32,2572.56 1026.5,2571.5C 981.94,2571.75 937.606,2570.08 893.5,2566.5C 894.833,2566.5 896.167,2566.5 897.5,2566.5C 935.83,2361.87 981.163,2158.87 1033.5,1957.5C 1036.71,1955.73 1039.71,1953.73 1042.5,1951.5C 1047.51,1949 1052.18,1946 1056.5,1942.5C 1073.14,1933.03 1089.14,1922.53 1104.5,1911C 1085.75,1905.76 1067.08,1900.59 1048.5,1895.5C 1049.93,1895.12 1050.76,1894.12 1051,1892.5C 1078.12,1793.65 1106.95,1695.32 1137.5,1597.5C 1150.47,1606.66 1163.47,1615.82 1176.5,1625C 1193.89,1634.2 1211.55,1642.53 1229.5,1650C 1216.47,1636.64 1203.14,1623.64 1189.5,1611C 1174.32,1600.64 1159.32,1590.14 1144.5,1579.5C 1151.5,1558.17 1158.5,1536.83 1165.5,1515.5C 1186.46,1518.62 1207.46,1521.12 1228.5,1523C 1211.34,1510.08 1192.34,1501.58 1171.5,1497.5C 1190.55,1444.35 1210.22,1391.35 1230.5,1338.5C 1262.51,1358 1290.01,1382.67 1313,1412.5C 1336.94,1444.36 1356.27,1479.02 1371,1516.5C 1355.18,1458.85 1327.85,1407.51 1289,1362.5C 1273.12,1345.77 1255.95,1330.77 1237.5,1317.5C 1257.22,1270.36 1277.56,1223.36 1298.5,1176.5 Z"/></g>
<g><path style="opacity:1" fill="#050200" d="M 956.5,1218.5 C 958.168,1220.34 959.668,1222.34 961,1224.5C 963.472,1235.93 958.972,1241.93 947.5,1242.5C 889.274,1224.07 830.94,1223.9 772.5,1242C 736.929,1253.01 703.595,1268.51 672.5,1288.5C 670.322,1289.93 667.989,1290.76 665.5,1291C 668.379,1288.61 671.379,1286.45 674.5,1284.5C 710.813,1258.84 750.146,1238.67 792.5,1224C 846.661,1206.83 901.328,1205 956.5,1218.5 Z"/></g>
<g><path style="opacity:0.996" fill="#e77217" d="M 947.5,1242.5 C 929.651,1287.04 912.985,1332.04 897.5,1377.5C 891.96,1357.42 882.46,1339.42 869,1323.5C 837.577,1293.98 802.744,1289.48 764.5,1310C 732.775,1330.74 709.275,1358.57 694,1393.5C 669.992,1447.15 667.158,1501.82 685.5,1557.5C 685.062,1559.13 684.728,1560.79 684.5,1562.5C 692.287,1611.89 700.287,1661.22 708.5,1710.5C 710.094,1717.73 710.927,1725.07 711,1732.5C 660.871,1745.81 624.038,1775.48 600.5,1821.5C 570.504,1809.5 540.504,1797.5 510.5,1785.5C 542.997,1666.19 579.83,1548.19 621,1431.5C 637.88,1383.69 655.047,1336.02 672.5,1288.5C 703.595,1268.51 736.929,1253.01 772.5,1242C 830.94,1223.9 889.274,1224.07 947.5,1242.5 Z"/></g>
<g><path style="opacity:1" fill="#040100" d="M 1237.5,1317.5 C 1255.95,1330.77 1273.12,1345.77 1289,1362.5C 1327.85,1407.51 1355.18,1458.85 1371,1516.5C 1356.27,1479.02 1336.94,1444.36 1313,1412.5C 1290.01,1382.67 1262.51,1358 1230.5,1338.5C 1213.64,1328.74 1195.97,1320.57 1177.5,1314C 1175.57,1311.74 1174.07,1309.24 1173,1306.5C 1172.17,1295.33 1177.33,1290.17 1188.5,1291C 1205.71,1298.42 1222.05,1307.25 1237.5,1317.5 Z"/></g>
<g><path style="opacity:1" fill="#fefefd" d="M 897.5,1377.5 C 903.962,1409.78 904.129,1442.11 898,1474.5C 887.711,1525.19 862.877,1566.86 823.5,1599.5C 811.55,1607.47 798.55,1613.3 784.5,1617C 772.184,1618.78 759.851,1618.95 747.5,1617.5C 726.091,1611.03 709.257,1598.37 697,1579.5C 692.867,1572.23 689.034,1564.9 685.5,1557.5C 667.158,1501.82 669.992,1447.15 694,1393.5C 709.275,1358.57 732.775,1330.74 764.5,1310C 802.744,1289.48 837.577,1293.98 869,1323.5C 882.46,1339.42 891.96,1357.42 897.5,1377.5 Z"/></g>
<g><path style="opacity:0.5" fill="#af4f4e" d="M 1983.5,1401.5 C 1984.04,1401.56 1984.38,1401.89 1984.5,1402.5C 1983.64,1403.58 1982.64,1403.75 1981.5,1403C 1982.42,1402.72 1983.08,1402.22 1983.5,1401.5 Z"/></g>
<g><path style="opacity:0.401" fill="#af4f4e" d="M 1991.5,1416.5 C 1994.8,1416.33 1995.13,1417 1992.5,1418.5C 1991.7,1418.04 1991.37,1417.38 1991.5,1416.5 Z"/></g>
<g><path style="opacity:1" fill="#010101" d="M 808.5,1426.5 C 839.919,1428.03 862.085,1443.37 875,1472.5C 885.701,1507.39 877.201,1536.55 849.5,1560C 818.122,1580.05 787.456,1579.05 757.5,1557C 728.611,1528.76 723.445,1496.59 742,1460.5C 744.333,1457.5 746.667,1454.5 749,1451.5C 751.282,1468.58 760.782,1479.08 777.5,1483C 797.874,1484.07 811.041,1474.9 817,1455.5C 819.079,1444.25 816.246,1434.58 808.5,1426.5 Z"/></g>
<g><path style="opacity:1" fill="#030100" d="M 1171.5,1497.5 C 1192.34,1501.58 1211.34,1510.08 1228.5,1523C 1207.46,1521.12 1186.46,1518.62 1165.5,1515.5C 1134.27,1511.08 1103.6,1513.58 1073.5,1523C 1071.38,1523.81 1069.38,1524.81 1067.5,1526C 1092.85,1544.34 1118.51,1562.17 1144.5,1579.5C 1159.32,1590.14 1174.32,1600.64 1189.5,1611C 1203.14,1623.64 1216.47,1636.64 1229.5,1650C 1211.55,1642.53 1193.89,1634.2 1176.5,1625C 1163.47,1615.82 1150.47,1606.66 1137.5,1597.5C 1102.02,1572.92 1066.69,1548.09 1031.5,1523C 1040.73,1517.22 1050.39,1512.22 1060.5,1508C 1096.6,1495.44 1133.6,1491.94 1171.5,1497.5 Z"/></g>
<g><path style="opacity:1" fill="#e46016" d="M 1165.5,1515.5 C 1158.5,1536.83 1151.5,1558.17 1144.5,1579.5C 1118.51,1562.17 1092.85,1544.34 1067.5,1526C 1069.38,1524.81 1071.38,1523.81 1073.5,1523C 1103.6,1513.58 1134.27,1511.08 1165.5,1515.5 Z"/></g>
<g><path style="opacity:1" fill="#e8651a" d="M 888.5,1853.5 C 866.214,1847.68 843.881,1842.01 821.5,1836.5C 819.698,1835.54 817.698,1834.88 815.5,1834.5C 815.019,1832.36 813.852,1830.7 812,1829.5C 811.667,1830.17 811.333,1830.83 811,1831.5C 808.628,1829.3 806.461,1826.96 804.5,1824.5C 800.217,1819.01 794.883,1814.68 788.5,1811.5C 787.738,1810.37 787.071,1809.21 786.5,1808C 794.364,1791.92 801.364,1775.42 807.5,1758.5C 806.572,1757.23 806.405,1755.9 807,1754.5C 814.671,1731.99 822.838,1709.65 831.5,1687.5C 827.327,1684.88 822.993,1683.55 818.5,1683.5C 809.667,1705.17 800.833,1726.83 792,1748.5C 791.29,1749.97 790.124,1750.64 788.5,1750.5C 783.799,1764.24 778.799,1777.91 773.5,1791.5C 773.729,1796.38 771.729,1800.38 767.5,1803.5C 765.889,1802.68 765.222,1801.35 765.5,1799.5C 769.71,1784.21 773.71,1768.87 777.5,1753.5C 778.677,1751.32 779.677,1748.99 780.5,1746.5C 783.5,1747.17 786.5,1747.83 789.5,1748.5C 797.577,1725.6 806.244,1702.93 815.5,1680.5C 816.72,1681.71 817.887,1681.71 819,1680.5C 833.471,1644.25 847.637,1607.92 861.5,1571.5C 867.944,1572.72 873.944,1575.06 879.5,1578.5C 856.167,1637.5 832.833,1696.5 809.5,1755.5C 818.299,1760.74 826.966,1766.24 835.5,1772C 862.329,1793.15 879.996,1820.31 888.5,1853.5 Z"/></g>
<g><path style="opacity:1" fill="#e77217" d="M 823.5,1599.5 C 808.398,1648.23 794.065,1697.23 780.5,1746.5C 779.677,1748.99 778.677,1751.32 777.5,1753.5C 768.993,1751.37 760.327,1750.03 751.5,1749.5C 750.353,1735.19 749.687,1720.86 749.5,1706.5C 748.689,1679.33 747.689,1652.16 746.5,1625C 746.503,1622.31 746.836,1619.81 747.5,1617.5C 759.851,1618.95 772.184,1618.78 784.5,1617C 798.55,1613.3 811.55,1607.47 823.5,1599.5 Z"/></g>
<g><path style="opacity:1" fill="#e7751b" d="M 685.5,1557.5 C 689.034,1564.9 692.867,1572.23 697,1579.5C 709.257,1598.37 726.091,1611.03 747.5,1617.5C 746.836,1619.81 746.503,1622.31 746.5,1625C 747.689,1652.16 748.689,1679.33 749.5,1706.5C 743.5,1706.5 737.5,1706.5 731.5,1706.5C 731.666,1715.84 731.5,1725.17 731,1734.5C 729.281,1725.52 727.781,1716.52 726.5,1707.5C 720.372,1707.95 714.372,1708.95 708.5,1710.5C 700.287,1661.22 692.287,1611.89 684.5,1562.5C 684.728,1560.79 685.062,1559.13 685.5,1557.5 Z"/></g>
<g><path style="opacity:1" fill="#ea6d21" d="M 804.5,1824.5 C 801.397,1822.58 798.397,1820.41 795.5,1818C 792.624,1817.56 789.957,1816.56 787.5,1815C 786.408,1812.41 784.741,1810.24 782.5,1808.5C 777.044,1805.72 771.378,1804.56 765.5,1805C 764.193,1803.06 764.193,1801.22 765.5,1799.5C 765.222,1801.35 765.889,1802.68 767.5,1803.5C 771.729,1800.38 773.729,1796.38 773.5,1791.5C 778.799,1777.91 783.799,1764.24 788.5,1750.5C 790.124,1750.64 791.29,1749.97 792,1748.5C 800.833,1726.83 809.667,1705.17 818.5,1683.5C 822.993,1683.55 827.327,1684.88 831.5,1687.5C 822.838,1709.65 814.671,1731.99 807,1754.5C 806.405,1755.9 806.572,1757.23 807.5,1758.5C 801.364,1775.42 794.364,1791.92 786.5,1808C 787.071,1809.21 787.738,1810.37 788.5,1811.5C 794.883,1814.68 800.217,1819.01 804.5,1824.5 Z"/></g>
<g><path style="opacity:0.03" fill="#fefffe" d="M 510.5,1785.5 C 508.83,1791.52 507.163,1797.52 505.5,1803.5C 480.754,1794.3 456.088,1784.8 431.5,1775C 429.82,1774.65 428.82,1773.65 428.5,1772C 430.355,1766.26 432.688,1760.76 435.5,1755.5C 460.529,1765.51 485.529,1775.51 510.5,1785.5 Z"/></g>
<g><path style="opacity:1" fill="#f6f0e7" d="M 720.5,1808.5 C 723.919,1810.28 727.586,1811.61 731.5,1812.5C 708.445,1818.23 690.778,1831.23 678.5,1851.5C 675.357,1849.76 672.357,1847.76 669.5,1845.5C 657.913,1836.92 646.913,1827.58 636.5,1817.5C 632.877,1806.67 630.044,1795.67 628,1784.5C 658.592,1793.36 689.425,1801.36 720.5,1808.5 Z"/></g>
<g><path style="opacity:0.993" fill="#e77217" d="M 505.5,1804.5 C 541.3,1818.1 576.967,1832.1 612.5,1846.5C 612.833,1846.83 613.167,1847.17 613.5,1847.5C 609.857,1858.88 607.691,1870.55 607,1882.5C 604.959,1883.75 602.625,1884.42 600,1884.5C 561.516,1886.29 523.016,1887.63 484.5,1888.5C 491.187,1860.42 498.187,1832.42 505.5,1804.5 Z"/></g>
<g><path style="opacity:1" fill="#e9771b" d="M 749.5,1706.5 C 749.687,1720.86 750.353,1735.19 751.5,1749.5C 760.327,1750.03 768.993,1751.37 777.5,1753.5C 773.71,1768.87 769.71,1784.21 765.5,1799.5C 764.193,1801.22 764.193,1803.06 765.5,1805C 771.378,1804.56 777.044,1805.72 782.5,1808.5C 784.741,1810.24 786.408,1812.41 787.5,1815C 789.957,1816.56 792.624,1817.56 795.5,1818C 798.397,1820.41 801.397,1822.58 804.5,1824.5C 806.461,1826.96 808.628,1829.3 811,1831.5C 811.333,1830.83 811.667,1830.17 812,1829.5C 813.852,1830.7 815.019,1832.36 815.5,1834.5C 807.398,1832.47 799.398,1830.14 791.5,1827.5C 789.41,1825.61 787.077,1823.94 784.5,1822.5C 783.516,1819.57 783.183,1816.57 783.5,1813.5C 778.009,1811.38 772.342,1809.71 766.5,1808.5C 766.704,1812.28 765.037,1814.61 761.5,1815.5C 761.873,1812.43 762.539,1809.43 763.5,1806.5C 755.209,1805.3 746.876,1804.3 738.5,1803.5C 732.392,1804.96 726.392,1806.62 720.5,1808.5C 689.425,1801.36 658.592,1793.36 628,1784.5C 630.044,1795.67 632.877,1806.67 636.5,1817.5C 637.859,1823.6 639.526,1829.6 641.5,1835.5C 645.712,1849.8 650.712,1863.8 656.5,1877.5C 652.169,1919.5 668.503,1950.84 705.5,1971.5C 696.967,1993.77 688.633,2016.1 680.5,2038.5C 684.929,2041.92 689.763,2043.59 695,2043.5C 701.635,2027.73 708.135,2012.06 714.5,1996.5C 712.012,2005.45 709.679,2014.45 707.5,2023.5C 706.21,2024.06 705.377,2025.06 705,2026.5C 695.741,2049.28 687.074,2072.28 679,2095.5C 678.047,2097.59 676.714,2097.93 675,2096.5C 659.723,2133.39 644.723,2170.39 630,2207.5C 625.013,2204.95 619.846,2202.78 614.5,2201C 613.724,2199.23 613.89,2197.4 615,2195.5C 636.078,2142.09 657.245,2088.76 678.5,2035.5C 625.698,2008 595.032,1964.67 586.5,1905.5C 580.501,1904.75 574.501,1904.08 568.5,1903.5C 539.205,1905.41 509.871,1906.74 480.5,1907.5C 481.578,1901.11 482.912,1894.77 484.5,1888.5C 523.016,1887.63 561.516,1886.29 600,1884.5C 602.625,1884.42 604.959,1883.75 607,1882.5C 607.691,1870.55 609.857,1858.88 613.5,1847.5C 613.167,1847.17 612.833,1846.83 612.5,1846.5C 576.967,1832.1 541.3,1818.1 505.5,1804.5C 505.5,1804.17 505.5,1803.83 505.5,1803.5C 507.163,1797.52 508.83,1791.52 510.5,1785.5C 540.504,1797.5 570.504,1809.5 600.5,1821.5C 624.038,1775.48 660.871,1745.81 711,1732.5C 710.927,1725.07 710.094,1717.73 708.5,1710.5C 714.372,1708.95 720.372,1707.95 726.5,1707.5C 727.781,1716.52 729.281,1725.52 731,1734.5C 731.5,1725.17 731.666,1715.84 731.5,1706.5C 737.5,1706.5 743.5,1706.5 749.5,1706.5 Z"/></g>
<g><path style="opacity:1" fill="#f59946" d="M 761.5,1815.5 C 760.566,1816.57 760.232,1817.9 760.5,1819.5C 750.778,1817.32 741.112,1814.99 731.5,1812.5C 727.586,1811.61 723.919,1810.28 720.5,1808.5C 726.392,1806.62 732.392,1804.96 738.5,1803.5C 746.876,1804.3 755.209,1805.3 763.5,1806.5C 762.539,1809.43 761.873,1812.43 761.5,1815.5 Z"/></g>
<g><path style="opacity:1" fill="#f5914a" d="M 791.5,1827.5 C 780.963,1825.2 770.629,1822.54 760.5,1819.5C 760.232,1817.9 760.566,1816.57 761.5,1815.5C 765.037,1814.61 766.704,1812.28 766.5,1808.5C 772.342,1809.71 778.009,1811.38 783.5,1813.5C 783.183,1816.57 783.516,1819.57 784.5,1822.5C 787.077,1823.94 789.41,1825.61 791.5,1827.5 Z"/></g>
<g><path style="opacity:1" fill="#fbf5ee" d="M 731.5,1812.5 C 741.112,1814.99 750.778,1817.32 760.5,1819.5C 770.629,1822.54 780.963,1825.2 791.5,1827.5C 799.398,1830.14 807.398,1832.47 815.5,1834.5C 817.698,1834.88 819.698,1835.54 821.5,1836.5C 841.093,1868.3 842.593,1900.97 826,1934.5C 802.738,1970.21 769.905,1984.87 727.5,1978.5C 726.584,1978.54 725.917,1978.88 725.5,1979.5C 723.833,1978.17 722.167,1976.83 720.5,1975.5C 719.5,1973.83 718.167,1972.5 716.5,1971.5C 693.4,1947.39 675.067,1920.06 661.5,1889.5C 660.222,1885.33 658.556,1881.33 656.5,1877.5C 650.712,1863.8 645.712,1849.8 641.5,1835.5C 649.136,1842.31 657.136,1848.65 665.5,1854.5C 670.954,1858.73 676.62,1862.73 682.5,1866.5C 684.5,1868.17 686.5,1869.83 688.5,1871.5C 680.389,1899.01 687.722,1921.84 710.5,1940C 736.523,1956.09 761.856,1955.09 786.5,1937C 810.167,1913.83 814.667,1887.33 800,1857.5C 780.521,1830.01 754.688,1821.51 722.5,1832C 708.708,1838.29 698.375,1848.13 691.5,1861.5C 690.167,1860.5 688.833,1859.5 687.5,1858.5C 684.19,1856.52 681.19,1854.18 678.5,1851.5C 690.778,1831.23 708.445,1818.23 731.5,1812.5 Z"/></g>
<g><path style="opacity:1" fill="#1d1c1c" d="M 636.5,1817.5 C 646.913,1827.58 657.913,1836.92 669.5,1845.5C 669.498,1849.16 668.165,1852.16 665.5,1854.5C 657.136,1848.65 649.136,1842.31 641.5,1835.5C 639.526,1829.6 637.859,1823.6 636.5,1817.5 Z"/></g>
<g><path style="opacity:1" fill="#fcf9f6" d="M 688.5,1871.5 C 691.366,1873.43 694.366,1875.1 697.5,1876.5C 699.833,1878.5 702.167,1880.5 704.5,1882.5C 703.486,1911.81 717.486,1928.15 746.5,1931.5C 772.408,1929.09 786.408,1914.93 788.5,1889C 786.999,1867.17 775.666,1853.5 754.5,1848C 732.968,1844.93 717.635,1853.09 708.5,1872.5C 705.634,1870.57 702.634,1868.9 699.5,1867.5C 697.14,1865.15 694.473,1863.15 691.5,1861.5C 698.375,1848.13 708.708,1838.29 722.5,1832C 754.688,1821.51 780.521,1830.01 800,1857.5C 814.667,1887.33 810.167,1913.83 786.5,1937C 761.856,1955.09 736.523,1956.09 710.5,1940C 687.722,1921.84 680.389,1899.01 688.5,1871.5 Z"/></g>
<g><path style="opacity:1" fill="#f5f0e7" d="M 821.5,1836.5 C 843.881,1842.01 866.214,1847.68 888.5,1853.5C 941.732,1867.81 995.065,1881.81 1048.5,1895.5C 1067.08,1900.59 1085.75,1905.76 1104.5,1911C 1089.14,1922.53 1073.14,1933.03 1056.5,1942.5C 1006.91,1940.66 957.246,1937.66 907.5,1933.5C 899.842,1932.28 892.008,1931.28 884,1930.5C 879.251,1930.59 877.585,1932.92 879,1937.5C 879.833,1938.33 880.667,1939.17 881.5,1940C 888.504,1940.92 895.504,1941.76 902.5,1942.5C 949.108,1946.7 995.775,1949.7 1042.5,1951.5C 1039.71,1953.73 1036.71,1955.73 1033.5,1957.5C 986.526,1985.98 936.193,2006.15 882.5,2018C 858.94,2021.6 835.274,2022.44 811.5,2020.5C 778.917,2014.87 750.25,2001.21 725.5,1979.5C 725.917,1978.88 726.584,1978.54 727.5,1978.5C 769.905,1984.87 802.738,1970.21 826,1934.5C 842.593,1900.97 841.093,1868.3 821.5,1836.5 Z"/></g>
<g><path style="opacity:1" fill="#fdfdfc" d="M 704.5,1882.5 C 707.607,1883.89 710.607,1885.56 713.5,1887.5C 714.653,1884.55 715.653,1881.55 716.5,1878.5C 713.765,1876.48 711.099,1874.48 708.5,1872.5C 717.635,1853.09 732.968,1844.93 754.5,1848C 775.666,1853.5 786.999,1867.17 788.5,1889C 786.408,1914.93 772.408,1929.09 746.5,1931.5C 717.486,1928.15 703.486,1911.81 704.5,1882.5 Z"/></g>
<g><path style="opacity:1" fill="#676767" d="M 669.5,1845.5 C 672.357,1847.76 675.357,1849.76 678.5,1851.5C 681.19,1854.18 684.19,1856.52 687.5,1858.5C 687.798,1862.6 686.132,1865.27 682.5,1866.5C 676.62,1862.73 670.954,1858.73 665.5,1854.5C 668.165,1852.16 669.498,1849.16 669.5,1845.5 Z"/></g>
<g><path style="opacity:1" fill="#a3a3a3" d="M 687.5,1858.5 C 688.833,1859.5 690.167,1860.5 691.5,1861.5C 694.473,1863.15 697.14,1865.15 699.5,1867.5C 698.539,1870.43 697.873,1873.43 697.5,1876.5C 694.366,1875.1 691.366,1873.43 688.5,1871.5C 686.5,1869.83 684.5,1868.17 682.5,1866.5C 686.132,1865.27 687.798,1862.6 687.5,1858.5 Z"/></g>
<g><path style="opacity:1" fill="#d8d8d7" d="M 699.5,1867.5 C 702.634,1868.9 705.634,1870.57 708.5,1872.5C 711.099,1874.48 713.765,1876.48 716.5,1878.5C 715.653,1881.55 714.653,1884.55 713.5,1887.5C 710.607,1885.56 707.607,1883.89 704.5,1882.5C 702.167,1880.5 699.833,1878.5 697.5,1876.5C 697.873,1873.43 698.539,1870.43 699.5,1867.5 Z"/></g>
<g><path style="opacity:0.029" fill="#fefffe" d="M 484.5,1888.5 C 482.912,1894.77 481.578,1901.11 480.5,1907.5C 480.167,1907.5 479.833,1907.5 479.5,1907.5C 477.167,1907.5 474.833,1907.5 472.5,1907.5C 471.89,1901.18 471.557,1894.85 471.5,1888.5C 475.833,1888.5 480.167,1888.5 484.5,1888.5 Z"/></g>
<g><path style="opacity:1" fill="#f5953e" d="M 661.5,1889.5 C 675.067,1920.06 693.4,1947.39 716.5,1971.5C 713.562,1970.37 710.562,1969.2 707.5,1968C 708.167,1967.67 708.833,1967.33 709.5,1967C 703.901,1961.86 697.901,1957.19 691.5,1953C 673.307,1935.78 663.307,1914.61 661.5,1889.5 Z"/></g>
<g><path style="opacity:0.998" fill="#e77217" d="M 707.5,2023.5 C 706.781,2025.76 706.448,2028.1 706.5,2030.5C 668.392,2187.27 634.225,2344.94 604,2503.5C 603.24,2513.87 603.406,2524.2 604.5,2534.5C 550.52,2525.73 497.52,2512.89 445.5,2496C 433.28,2491.56 421.946,2485.56 411.5,2478C 408.837,2475.16 406.837,2471.99 405.5,2468.5C 412.594,2279.17 437.261,2092.17 479.5,1907.5C 479.833,1907.5 480.167,1907.5 480.5,1907.5C 509.871,1906.74 539.205,1905.41 568.5,1903.5C 574.501,1904.08 580.501,1904.75 586.5,1905.5C 595.032,1964.67 625.698,2008 678.5,2035.5C 657.245,2088.76 636.078,2142.09 615,2195.5C 613.89,2197.4 613.724,2199.23 614.5,2201C 619.846,2202.78 625.013,2204.95 630,2207.5C 644.723,2170.39 659.723,2133.39 675,2096.5C 676.714,2097.93 678.047,2097.59 679,2095.5C 687.074,2072.28 695.741,2049.28 705,2026.5C 705.377,2025.06 706.21,2024.06 707.5,2023.5 Z"/></g>
<g><path style="opacity:1" fill="#e4e4e4" d="M 767.5,1907.5 C 771.133,1908.32 774.3,1909.99 777,1912.5C 777.312,1917.77 774.812,1919.94 769.5,1919C 766.339,1917.59 763.339,1915.92 760.5,1914C 763.288,1912.28 765.621,1910.11 767.5,1907.5 Z"/></g>
<g><path style="opacity:1" fill="#1e1d1d" d="M 907.5,1933.5 C 902.95,1932.72 900.284,1934.56 899.5,1939C 900.365,1940.36 901.365,1941.53 902.5,1942.5C 895.504,1941.76 888.504,1940.92 881.5,1940C 880.667,1939.17 879.833,1938.33 879,1937.5C 877.585,1932.92 879.251,1930.59 884,1930.5C 892.008,1931.28 899.842,1932.28 907.5,1933.5 Z"/></g>
<g><path style="opacity:1" fill="#090908" d="M 907.5,1933.5 C 957.246,1937.66 1006.91,1940.66 1056.5,1942.5C 1052.18,1946 1047.51,1949 1042.5,1951.5C 995.775,1949.7 949.108,1946.7 902.5,1942.5C 901.365,1941.53 900.365,1940.36 899.5,1939C 900.284,1934.56 902.95,1932.72 907.5,1933.5 Z"/></g>
<g><path style="opacity:1" fill="#ed7e23" d="M 656.5,1877.5 C 658.556,1881.33 660.222,1885.33 661.5,1889.5C 663.307,1914.61 673.307,1935.78 691.5,1953C 697.901,1957.19 703.901,1961.86 709.5,1967C 708.833,1967.33 708.167,1967.67 707.5,1968C 710.562,1969.2 713.562,1970.37 716.5,1971.5C 718.167,1972.5 719.5,1973.83 720.5,1975.5C 717.746,1982.17 715.746,1989.17 714.5,1996.5C 708.135,2012.06 701.635,2027.73 695,2043.5C 689.763,2043.59 684.929,2041.92 680.5,2038.5C 688.633,2016.1 696.967,1993.77 705.5,1971.5C 668.503,1950.84 652.169,1919.5 656.5,1877.5 Z"/></g>
<g><path style="opacity:1" fill="#e8661b" d="M 720.5,1975.5 C 722.167,1976.83 723.833,1978.17 725.5,1979.5C 750.25,2001.21 778.917,2014.87 811.5,2020.5C 802.122,2025.68 792.122,2029.51 781.5,2032C 780.376,2032.84 779.709,2034.01 779.5,2035.5C 789.168,2096.84 798.835,2158.18 808.5,2219.5C 802.5,2220.17 796.5,2220.83 790.5,2221.5C 781.218,2163.14 771.718,2104.81 762,2046.5C 762.431,2085.5 763.264,2124.5 764.5,2163.5C 758.5,2163.5 752.5,2163.5 746.5,2163.5C 745.21,2121.14 743.544,2078.81 741.5,2036.5C 729.574,2035.8 717.907,2033.8 706.5,2030.5C 706.448,2028.1 706.781,2025.76 707.5,2023.5C 709.679,2014.45 712.012,2005.45 714.5,1996.5C 715.746,1989.17 717.746,1982.17 720.5,1975.5 Z"/></g>
<g><path style="opacity:1" fill="#e76117" d="M 1033.5,1957.5 C 981.163,2158.87 935.83,2361.87 897.5,2566.5C 896.167,2566.5 894.833,2566.5 893.5,2566.5C 890.167,2566.5 886.833,2566.5 883.5,2566.5C 839.509,2563.29 795.509,2560.12 751.5,2557C 703.019,2550.73 654.686,2543.57 606.5,2535.5C 606.158,2534.66 605.492,2534.33 604.5,2534.5C 603.406,2524.2 603.24,2513.87 604,2503.5C 634.225,2344.94 668.392,2187.27 706.5,2030.5C 717.907,2033.8 729.574,2035.8 741.5,2036.5C 743.544,2078.81 745.21,2121.14 746.5,2163.5C 752.5,2163.5 758.5,2163.5 764.5,2163.5C 763.264,2124.5 762.431,2085.5 762,2046.5C 771.718,2104.81 781.218,2163.14 790.5,2221.5C 796.5,2220.83 802.5,2220.17 808.5,2219.5C 798.835,2158.18 789.168,2096.84 779.5,2035.5C 779.709,2034.01 780.376,2032.84 781.5,2032C 792.122,2029.51 802.122,2025.68 811.5,2020.5C 835.274,2022.44 858.94,2021.6 882.5,2018C 936.193,2006.15 986.526,1985.98 1033.5,1957.5 Z"/></g>
<g><path style="opacity:0.994" fill="#f8e4b6" d="M 405.5,2468.5 C 406.837,2471.99 408.837,2475.16 411.5,2478C 421.946,2485.56 433.28,2491.56 445.5,2496C 497.52,2512.89 550.52,2525.73 604.5,2534.5C 605.492,2534.33 606.158,2534.66 606.5,2535.5C 617.493,2695.42 631.493,2855.09 648.5,3014.5C 633.853,2988.55 619.687,2962.21 606,2935.5C 593.333,2909.5 580.667,2883.5 568,2857.5C 509.114,2727.41 451.114,2597.08 394,2466.5C 397.767,2467.37 401.601,2468.03 405.5,2468.5 Z"/></g>
<g><path style="opacity:0.999" fill="#f7ddb7" d="M 606.5,2535.5 C 654.686,2543.57 703.019,2550.73 751.5,2557C 795.509,2560.12 839.509,2563.29 883.5,2566.5C 877.236,2597.56 869.403,2628.22 860,2658.5C 827.333,2747.17 794.667,2835.83 762,2924.5C 750.591,2956.56 740.091,2988.89 730.5,3021.5C 710.475,3021.42 690.475,3022.08 670.5,3023.5C 684.705,3050.58 698.372,3077.91 711.5,3105.5C 710.671,3110.13 710.004,3114.8 709.5,3119.5C 687.908,3085.33 667.574,3050.33 648.5,3014.5C 631.493,2855.09 617.493,2695.42 606.5,2535.5 Z"/></g>
<g><path style="opacity:0.996" fill="#ebddc0" d="M 883.5,2566.5 C 886.833,2566.5 890.167,2566.5 893.5,2566.5C 937.606,2570.08 981.94,2571.75 1026.5,2571.5C 1060.32,2572.56 1093.99,2570.9 1127.5,2566.5C 1016.92,2713.43 912.589,2864.76 814.5,3020.5C 786.521,3021.46 758.521,3021.79 730.5,3021.5C 740.091,2988.89 750.591,2956.56 762,2924.5C 794.667,2835.83 827.333,2747.17 860,2658.5C 869.403,2628.22 877.236,2597.56 883.5,2566.5 Z"/></g>
<g><path style="opacity:0.992" fill="#010000" d="M 814.5,3020.5 C 816.857,3020.34 819.19,3020.5 821.5,3021C 810.612,3048.33 800.112,3075.83 790,3103.5C 784.154,3118.19 777.487,3132.53 770,3146.5C 760.041,3163.31 748.541,3164.64 735.5,3150.5C 727.771,3135.38 719.771,3120.38 711.5,3105.5C 698.372,3077.91 684.705,3050.58 670.5,3023.5C 690.475,3022.08 710.475,3021.42 730.5,3021.5C 758.521,3021.79 786.521,3021.46 814.5,3020.5 Z"/></g>
<g><path style="opacity:0.926" fill="#e7d9bd" d="M 711.5,3105.5 C 719.771,3120.38 727.771,3135.38 735.5,3150.5C 735.028,3153.52 733.528,3154.52 731,3153.5C 723.573,3142.31 716.406,3130.97 709.5,3119.5C 710.004,3114.8 710.671,3110.13 711.5,3105.5 Z"/></g>
</svg>
