<?xml version="1.0" encoding="UTF-8"?>
<!DOCTYPE svg PUBLIC "-//W3C//DTD SVG 1.1//EN" "http://www.w3.org/Graphics/SVG/1.1/DTD/svg11.dtd">
<svg xmlns="http://www.w3.org/2000/svg" version="1.1" width="2551px" height="3301px" style="shape-rendering:geometricPrecision; text-rendering:geometricPrecision; image-rendering:optimizeQuality; fill-rule:evenodd; clip-rule:evenodd" xmlns:xlink="http://www.w3.org/1999/xlink">
<g><path style="opacity:0.993" fill="#4f75b2" d="M 1956.5,348.5 C 1957.3,351.489 1958.8,354.155 1961,356.5C 1961.77,362.413 1962.94,368.247 1964.5,374C 1964.36,374.772 1964.02,375.439 1963.5,376C 1924.1,391.743 1884.76,407.577 1845.5,423.5C 1841.29,395.962 1835.46,368.629 1828,341.5C 1813.44,290.166 1786.6,246.666 1747.5,211C 1725.66,193.748 1701.99,179.581 1676.5,168.5C 1713.81,153.338 1751.14,138.505 1788.5,124C 1844.4,198.991 1900.4,273.824 1956.5,348.5 Z"/></g>
<g><path style="opacity:0.998" fill="#4e7cb8" d="M 1676.5,168.5 C 1701.99,179.581 1725.66,193.748 1747.5,211C 1786.6,246.666 1813.44,290.166 1828,341.5C 1835.46,368.629 1841.29,395.962 1845.5,423.5C 1486.76,568.192 1128.09,713.192 769.5,858.5C 767.696,857.838 765.696,857.505 763.5,857.5C 718.652,861.191 673.985,859.691 629.5,853C 522.732,836.643 457.732,775.809 434.5,670.5C 848.5,503.167 1262.5,335.833 1676.5,168.5 Z"/></g>
<g><path style="opacity:0.997" fill="#4e85bc" d="M 1974.5,453.5 C 1965.61,455.681 1957.27,459.014 1949.5,463.5C 1839.09,507.638 1728.75,551.971 1618.5,596.5C 1349.54,704.654 1080.87,813.321 812.5,922.5C 712.656,962.728 612.822,1003.06 513,1043.5C 511.523,1042.56 510.523,1041.22 510,1039.5C 501.392,1017.84 492.892,996.17 484.5,974.5C 499.167,968.167 513.833,961.833 528.5,955.5C 608.918,923.361 689.252,891.028 769.5,858.5C 1128.09,713.192 1486.76,568.192 1845.5,423.5C 1884.76,407.577 1924.1,391.743 1963.5,376C 1964.02,375.439 1964.36,374.772 1964.5,374C 1962.94,368.247 1961.77,362.413 1961,356.5C 1958.8,354.155 1957.3,351.489 1956.5,348.5C 1958.68,348.414 1960.68,347.747 1962.5,346.5C 1975.4,378.381 1988.4,410.214 2001.5,442C 1992.28,445.566 1983.28,449.399 1974.5,453.5 Z"/></g>
<g><path style="opacity:0.953" fill="#af4f4f" d="M 1974.5,453.5 C 1994.07,513.969 2002.57,575.969 2000,639.5C 1999.53,650.263 1998.36,660.929 1996.5,671.5C 1997.67,674.154 1999.17,675.82 2001,676.5C 2004.57,675.947 2008.07,676.614 2011.5,678.5C 2011.67,682.536 2013.51,683.869 2017,682.5C 2019.82,685.232 2023.16,687.232 2027,688.5C 2028.68,687.397 2030.18,687.73 2031.5,689.5C 2032.45,688.674 2033.45,688.508 2034.5,689C 2034.17,689.333 2033.83,689.667 2033.5,690C 2034.5,690.333 2035.5,690.667 2036.5,691C 2036.17,691.333 2035.83,691.667 2035.5,692C 2037.29,692.785 2038.79,693.951 2040,695.5C 2042.01,692.742 2044.01,692.408 2046,694.5C 2046.72,693.549 2047.55,693.383 2048.5,694C 2050.64,696.333 2053.3,697.833 2056.5,698.5C 2057.86,700.306 2057.53,701.806 2055.5,703C 2056.32,704.688 2057.32,704.855 2058.5,703.5C 2059.39,704.325 2059.72,705.325 2059.5,706.5C 2060.93,706.579 2062.26,706.246 2063.5,705.5C 2063.83,706.833 2064.17,708.167 2064.5,709.5C 2066.17,710.167 2067.83,710.833 2069.5,711.5C 2069.29,712.086 2068.96,712.586 2068.5,713C 2070.42,714.267 2072.09,714.267 2073.5,713C 2076,712.126 2078,712.793 2079.5,715C 2079.04,715.414 2078.71,715.914 2078.5,716.5C 2079.5,718.51 2080.5,720.51 2081.5,722.5C 2082.62,721.167 2083.95,720.667 2085.5,721C 2087.05,722.825 2088.22,725.325 2089,728.5C 2089.72,725.766 2091.22,725.1 2093.5,726.5C 2093.29,727.086 2092.96,727.586 2092.5,728C 2093.79,728.49 2095.13,728.657 2096.5,728.5C 2096.5,729.5 2096.5,730.5 2096.5,731.5C 2097.68,731.281 2098.68,731.614 2099.5,732.5C 2098.69,733.814 2097.69,734.981 2096.5,736C 2097.5,736.333 2098.5,736.667 2099.5,737C 2099.17,737.333 2098.83,737.667 2098.5,738C 2102.58,741.467 2106.58,744.967 2110.5,748.5C 2110.98,749.478 2111.64,750.311 2112.5,751C 2112.17,751.333 2111.83,751.667 2111.5,752C 2112.45,752.483 2113.45,752.649 2114.5,752.5C 2114.5,753.5 2114.5,754.5 2114.5,755.5C 2115.5,755.5 2116.5,755.5 2117.5,755.5C 2117.34,756.873 2117.51,758.207 2118,759.5C 2119.24,757.579 2120.74,757.246 2122.5,758.5C 2121.91,759.799 2120.91,760.632 2119.5,761C 2121.76,765.754 2125.42,768.921 2130.5,770.5C 2129.62,771.251 2128.62,771.751 2127.5,772C 2129.47,775.494 2132.47,776.994 2136.5,776.5C 2136.33,777.822 2136.66,778.989 2137.5,780C 2135.8,780.384 2134.14,780.218 2132.5,779.5C 2133.09,781.205 2133.42,782.872 2133.5,784.5C 2135.68,786.092 2138.02,787.426 2140.5,788.5C 2139.97,789.192 2139.31,789.692 2138.5,790C 2139.84,794.521 2141.84,798.687 2144.5,802.5C 2144.29,803.086 2143.96,803.586 2143.5,804C 2144.62,804.249 2145.62,804.749 2146.5,805.5C 2147.13,807.478 2147.13,809.645 2146.5,812C 2147.93,814.055 2149.26,816.221 2150.5,818.5C 2150.29,819.086 2149.96,819.586 2149.5,820C 2150.83,822.667 2152.17,825.333 2153.5,828C 2152.94,828.725 2152.61,829.558 2152.5,830.5C 2153.73,832.562 2154.73,834.729 2155.5,837C 2155.41,838.107 2155.08,839.107 2154.5,840C 2156.53,841.896 2158.2,844.063 2159.5,846.5C 2160.33,851.492 2160.33,856.326 2159.5,861C 2157.1,861.814 2154.76,861.647 2152.5,860.5C 2153.73,859.719 2155.06,859.219 2156.5,859C 2151.55,857.919 2149.88,855.085 2151.5,850.5C 2150.45,850.649 2149.45,850.483 2148.5,850C 2147.67,848.5 2146.5,847.333 2145,846.5C 2144.39,844.763 2145.05,843.763 2147,843.5C 2148.44,844.742 2149.94,845.575 2151.5,846C 2149.17,843.054 2146.17,840.887 2142.5,839.5C 2141.57,838.311 2141.24,836.978 2141.5,835.5C 2142.98,835.762 2144.31,835.429 2145.5,834.5C 2143.68,832.99 2141.68,831.657 2139.5,830.5C 2139.71,829.914 2140.04,829.414 2140.5,829C 2137.12,826.277 2135.79,822.943 2136.5,819C 2134.95,817.151 2133.12,815.651 2131,814.5C 2130.61,812.801 2131.11,811.301 2132.5,810C 2131.98,809.05 2131.31,808.216 2130.5,807.5C 2130.71,806.914 2131.04,806.414 2131.5,806C 2129.94,805.02 2128.27,804.187 2126.5,803.5C 2127.09,802.201 2128.09,801.368 2129.5,801C 2127.06,798.605 2124.39,796.438 2121.5,794.5C 2121.98,793.522 2122.64,792.689 2123.5,792C 2119.36,789.024 2115.36,785.857 2111.5,782.5C 2111.39,780.902 2111.06,779.235 2110.5,777.5C 2109.68,776.614 2108.68,776.281 2107.5,776.5C 2107.58,773.794 2107.91,771.127 2108.5,768.5C 2104.97,768.604 2101.97,767.437 2099.5,765C 2099.96,764.586 2100.29,764.086 2100.5,763.5C 2097.06,760.619 2094.23,757.285 2092,753.5C 2089.45,754.98 2087.62,754.313 2086.5,751.5C 2087.03,750.808 2087.69,750.308 2088.5,750C 2086.41,748.959 2084.75,747.459 2083.5,745.5C 2081.49,745.174 2079.49,744.841 2077.5,744.5C 2078.33,743.549 2078.49,742.549 2078,741.5C 2076.64,742.38 2075.14,742.714 2073.5,742.5C 2074.27,737.171 2071.94,734.337 2066.5,734C 2066.83,733 2067.17,732 2067.5,731C 2065.15,730.89 2063.65,729.723 2063,727.5C 2062.43,729.492 2061.26,730.992 2059.5,732C 2060.83,733.333 2060.83,734.667 2059.5,736C 2059.73,738.286 2061.06,740.119 2063.5,741.5C 2063.29,742.086 2062.96,742.586 2062.5,743C 2065.09,743.226 2067.59,743.726 2070,744.5C 2071.21,747.902 2072.04,751.402 2072.5,755C 2072.35,757.379 2071.68,759.546 2070.5,761.5C 2071.09,762.799 2072.09,763.632 2073.5,764C 2071.03,765.402 2071.03,766.902 2073.5,768.5C 2072.5,770.677 2073.16,771.011 2075.5,769.5C 2076.16,772.473 2077.16,775.306 2078.5,778C 2076.71,780.487 2077.21,782.987 2080,785.5C 2080.05,788.334 2080.88,790.834 2082.5,793C 2082.38,794.268 2082.05,795.602 2081.5,797C 2084.3,800.141 2084.96,803.641 2083.5,807.5C 2085.41,811.906 2086.57,816.572 2087,821.5C 2087.44,823.076 2088.27,824.41 2089.5,825.5C 2089.17,826.167 2088.83,826.833 2088.5,827.5C 2090.55,832.843 2091.88,838.177 2092.5,843.5C 2092.43,844.772 2092.1,845.938 2091.5,847C 2092.61,848.449 2093.61,849.783 2094.5,851C 2094.05,852.612 2092.71,853.612 2090.5,854C 2091.74,855.87 2092.41,858.036 2092.5,860.5C 2092.41,862.964 2091.74,865.13 2090.5,867C 2091.17,867.667 2091.83,868.333 2092.5,869C 2090.29,874.664 2089.62,880.164 2090.5,885.5C 2089.97,886.192 2089.31,886.692 2088.5,887C 2092.2,891.243 2093.2,895.743 2091.5,900.5C 2093.37,902.87 2095.04,905.37 2096.5,908C 2085.76,908.316 2075.43,906.316 2065.5,902C 2064.83,901 2064.17,900 2063.5,899C 2059.69,898.221 2056.36,896.554 2053.5,894C 2061.07,893.206 2060.74,892.206 2052.5,891C 2051.09,890.632 2050.09,889.799 2049.5,888.5C 2052.69,885.758 2056.36,883.758 2060.5,882.5C 2062.56,878.152 2064.89,873.985 2067.5,870C 2066.91,866.487 2066.91,862.821 2067.5,859C 2067.25,856.606 2066.25,854.606 2064.5,853C 2066.89,852.309 2066.89,851.309 2064.5,850C 2065.17,849.333 2065.83,848.667 2066.5,848C 2065.29,844.963 2064.46,841.796 2064,838.5C 2059.87,843.296 2055.37,847.796 2050.5,852C 2048.98,853.009 2047.31,853.509 2045.5,853.5C 2046.17,855.5 2046.83,857.5 2047.5,859.5C 2043.23,859.797 2039.07,859.464 2035,858.5C 2027.75,860.915 2020.25,862.082 2012.5,862C 2011.74,863.512 2010.74,864.846 2009.5,866C 2011.85,867.086 2011.85,868.419 2009.5,870C 2009.11,872.721 2009.11,875.554 2009.5,878.5C 2008.72,880.029 2007.72,881.696 2006.5,883.5C 2007.08,889.67 2007.08,896.337 2006.5,903.5C 2006.85,906.251 2007.52,908.917 2008.5,911.5C 2008.17,912.167 2007.83,912.833 2007.5,913.5C 2009.47,918.433 2011.14,923.433 2012.5,928.5C 2002.81,927.242 1995.31,922.575 1990,914.5C 1989.51,913.207 1989.34,911.873 1989.5,910.5C 1986.86,910.954 1984.53,912.121 1982.5,914C 1983.36,914.689 1984.02,915.522 1984.5,916.5C 1983.34,919.112 1982.34,922.278 1981.5,926C 1982.49,928.586 1983.16,930.919 1983.5,933C 1981.83,933.667 1980.17,933.667 1978.5,933C 1973.12,931.172 1968.46,928.338 1964.5,924.5C 1963.34,918.448 1964.01,912.615 1966.5,907C 1965.54,905.853 1965.88,904.853 1967.5,904C 1966.83,901 1966.17,898 1965.5,895C 1966.5,894.667 1967.5,894.333 1968.5,894C 1966.65,892.155 1966.32,890.155 1967.5,888C 1965.11,886.691 1965.11,885.691 1967.5,885C 1966.83,882.667 1966.17,880.333 1965.5,878C 1965.83,877.667 1966.17,877.333 1966.5,877C 1961.72,876.482 1961.39,875.148 1965.5,873C 1963.87,872.506 1962.2,872.34 1960.5,872.5C 1960.58,871.07 1960.25,869.736 1959.5,868.5C 1961.26,867.246 1962.76,867.579 1964,869.5C 1964.17,869 1964.33,868.5 1964.5,868C 1963.22,865.995 1962.22,863.828 1961.5,861.5C 1961.71,860.914 1962.04,860.414 1962.5,860C 1958.84,860.376 1955.18,859.876 1951.5,858.5C 1950.61,859.325 1950.28,860.325 1950.5,861.5C 1949.5,861.5 1948.5,861.5 1947.5,861.5C 1947.66,863.199 1947.49,864.866 1947,866.5C 1944.74,867.682 1942.91,869.349 1941.5,871.5C 1939.12,875.859 1936.78,879.693 1934.5,883C 1935.55,884.716 1934.89,885.716 1932.5,886C 1933.38,887.356 1933.71,888.856 1933.5,890.5C 1930.98,890.872 1928.98,890.039 1927.5,888C 1927.83,887.667 1928.17,887.333 1928.5,887C 1927.13,886.598 1925.79,886.098 1924.5,885.5C 1923.55,886.326 1922.55,886.492 1921.5,886C 1921.38,884.211 1921.38,882.378 1921.5,880.5C 1921.02,879.522 1920.36,878.689 1919.5,878C 1923.62,877.451 1924.28,875.784 1921.5,873C 1923.39,871.921 1923.73,870.587 1922.5,869C 1924.3,868.683 1924.63,868.016 1923.5,867C 1926.17,866.333 1926.17,865.667 1923.5,865C 1924.89,863.98 1926.39,863.147 1928,862.5C 1928.68,861.216 1928.52,860.049 1927.5,859C 1929.3,858.683 1929.63,858.016 1928.5,857C 1930.86,856.411 1931.86,854.911 1931.5,852.5C 1932.5,852.5 1933.5,852.5 1934.5,852.5C 1934.1,849.956 1934.77,847.789 1936.5,846C 1935.69,845.692 1935.03,845.192 1934.5,844.5C 1936.17,843.333 1937.83,842.167 1939.5,841C 1937.61,839.921 1937.27,838.587 1938.5,837C 1936.17,836.333 1933.83,836.333 1931.5,837C 1930.66,838.011 1930.33,839.178 1930.5,840.5C 1924.62,842.104 1919.29,844.771 1914.5,848.5C 1913.61,849.325 1913.28,850.325 1913.5,851.5C 1911.24,852.967 1908.24,854.467 1904.5,856C 1904.17,857 1903.83,858 1903.5,859C 1901.53,859.495 1899.53,859.662 1897.5,859.5C 1897.03,861.201 1897.03,862.701 1897.5,864C 1894.37,865.399 1891.37,867.065 1888.5,869C 1889.31,869.308 1889.97,869.808 1890.5,870.5C 1885.31,872.195 1881.97,875.695 1880.5,881C 1882.01,882.439 1882.35,883.939 1881.5,885.5C 1877.19,884.024 1875.02,881.024 1875,876.5C 1875.09,881.367 1873.42,882.367 1870,879.5C 1869.23,876.141 1868.4,872.808 1867.5,869.5C 1867.71,865.924 1869.38,863.424 1872.5,862C 1872.17,861.667 1871.83,861.333 1871.5,861C 1872.5,860.167 1873.5,859.333 1874.5,858.5C 1873.83,857.5 1873.17,856.5 1872.5,855.5C 1874.39,854.07 1876.05,852.403 1877.5,850.5C 1879.77,849.686 1882.1,849.186 1884.5,849C 1884.17,848.667 1883.83,848.333 1883.5,848C 1887.17,844.833 1890.83,841.667 1894.5,838.5C 1889.6,836.849 1884.6,835.515 1879.5,834.5C 1879.33,833.178 1879.66,832.011 1880.5,831C 1873.01,833.766 1866.34,838.1 1860.5,844C 1861.71,844.893 1861.71,845.726 1860.5,846.5C 1859.91,846.291 1859.41,845.957 1859,845.5C 1856.23,847.395 1853.73,849.895 1851.5,853C 1852.31,853.308 1852.97,853.808 1853.5,854.5C 1852.22,855.645 1850.89,855.645 1849.5,854.5C 1849.66,856.631 1848.33,857.631 1845.5,857.5C 1845.41,859.677 1844.75,861.677 1843.5,863.5C 1843.71,864.086 1844.04,864.586 1844.5,865C 1840.73,864.511 1837.07,863.511 1833.5,862C 1833.96,861.586 1834.29,861.086 1834.5,860.5C 1830.86,858.793 1830.86,857.626 1834.5,857C 1833.36,856.259 1833.36,855.425 1834.5,854.5C 1830.29,852.278 1830.62,851.111 1835.5,851C 1835.17,850.667 1834.83,850.333 1834.5,850C 1836.86,849.411 1837.86,847.911 1837.5,845.5C 1838.55,845.649 1839.55,845.483 1840.5,845C 1840.17,844.667 1839.83,844.333 1839.5,844C 1841.27,842.561 1843.27,841.561 1845.5,841C 1844.67,840.085 1843.67,839.419 1842.5,839C 1848.52,837.644 1853.52,834.644 1857.5,830C 1855.1,828.276 1852.77,828.276 1850.5,830C 1840.67,830.744 1831,831.577 1821.5,832.5C 1805.68,831.802 1790.34,828.802 1775.5,823.5C 1776.83,823.167 1778.17,822.833 1779.5,822.5C 1804.05,825.748 1828.38,824.581 1852.5,819C 1859.82,816.507 1866.82,813.34 1873.5,809.5C 1874.29,806.987 1875.29,804.487 1876.5,802C 1874.18,801.658 1872.02,802.158 1870,803.5C 1869.33,802.833 1869.33,802.167 1870,801.5C 1876.03,795.354 1882.19,790.521 1888.5,787C 1889.23,785.601 1889.73,784.101 1890,782.5C 1891.74,780.816 1892.91,778.982 1893.5,777C 1892.64,776.311 1891.98,775.478 1891.5,774.5C 1897.61,762.944 1896.45,761.944 1888,771.5C 1887.67,771.167 1887.33,770.833 1887,770.5C 1883.33,774.833 1879.67,779.167 1876,783.5C 1875.83,782.833 1875.67,782.167 1875.5,781.5C 1880.82,771.539 1886.65,761.872 1893,752.5C 1894.32,749.363 1895.49,746.196 1896.5,743C 1895.09,742.632 1894.09,741.799 1893.5,740.5C 1894.09,738.258 1894.42,736.091 1894.5,734C 1895.7,732.48 1897.2,731.313 1899,730.5C 1900.67,731.5 1902.33,732.5 1904,733.5C 1906.33,729.833 1909.33,726.833 1913,724.5C 1915.48,718.875 1918.48,713.542 1922,708.5C 1922.82,703.859 1924.49,699.525 1927,695.5C 1930.39,691.102 1933.39,686.435 1936,681.5C 1937.26,679.393 1939.1,678.393 1941.5,678.5C 1941.42,681.271 1941.92,683.937 1943,686.5C 1943.9,685.299 1945.07,684.465 1946.5,684C 1955.32,674.155 1963.82,663.988 1972,653.5C 1976.51,603.586 1972.84,554.253 1961,505.5C 1957.47,491.393 1953.64,477.393 1949.5,463.5C 1957.27,459.014 1965.61,455.681 1974.5,453.5 Z M 2002.5,717.5 C 2000.02,717.27 1999.52,716.603 2001,715.5C 2002.03,715.836 2002.53,716.503 2002.5,717.5 Z M 1943.5,717.5 C 1946.03,718.023 1948.36,719.023 1950.5,720.5C 1951.44,720.392 1952.28,720.059 1953,719.5C 1953.61,721.481 1954.61,721.815 1956,720.5C 1956.69,721.025 1957.19,721.692 1957.5,722.5C 1955.47,724.607 1953.3,726.607 1951,728.5C 1949.92,726.606 1948.59,726.273 1947,727.5C 1946.52,726.552 1946.35,725.552 1946.5,724.5C 1945.13,724.657 1943.79,724.49 1942.5,724C 1942.96,723.586 1943.29,723.086 1943.5,722.5C 1942.83,722.167 1942.17,721.833 1941.5,721.5C 1942.18,720.14 1942.85,718.807 1943.5,717.5 Z M 2004.5,718.5 C 2006.58,719.044 2008.58,719.878 2010.5,721C 2011.45,721.718 2011.62,722.551 2011,723.5C 2010.31,722.643 2009.48,721.977 2008.5,721.5C 2004.61,723.246 2003.28,722.246 2004.5,718.5 Z M 2057.5,722.5 C 2058.4,723.209 2058.74,724.209 2058.5,725.5C 2057.13,725.657 2055.79,725.49 2054.5,725C 2055.94,724.623 2056.94,723.79 2057.5,722.5 Z M 2015.5,728.5 C 2018.17,728.684 2018.84,729.851 2017.5,732C 2020.19,732.341 2022.19,733.674 2023.5,736C 2020.59,739.617 2018.59,739.117 2017.5,734.5C 2016.07,734.023 2014.74,733.357 2013.5,732.5C 2014.63,731.378 2015.3,730.044 2015.5,728.5 Z M 2096.5,731.5 C 2096.16,733.225 2095.16,733.725 2093.5,733C 2094.53,732.487 2095.53,731.987 2096.5,731.5 Z M 2035.5,740.5 C 2038.52,740.844 2041.19,742.011 2043.5,744C 2040.95,745.516 2041.28,746.349 2044.5,746.5C 2044.76,749.016 2045.59,751.35 2047,753.5C 2049.18,754.116 2051.01,755.283 2052.5,757C 2049.46,757.359 2049.12,758.026 2051.5,759C 2050.5,759.667 2049.5,759.667 2048.5,759C 2046.92,757.172 2045.59,755.172 2044.5,753C 2043.17,752.667 2041.83,752.333 2040.5,752C 2040.96,751.586 2041.29,751.086 2041.5,750.5C 2039.57,747.701 2036.9,746.201 2033.5,746C 2036.28,744.221 2035.94,743.221 2032.5,743C 2033.94,742.623 2034.94,741.79 2035.5,740.5 Z M 2026.5,768.5 C 2031.5,771.406 2035.5,775.406 2038.5,780.5C 2038.02,781.478 2037.36,782.311 2036.5,783C 2037.83,783.333 2039.17,783.667 2040.5,784C 2040.6,786.355 2041.77,788.522 2044,790.5C 2045.11,792.037 2046.61,792.703 2048.5,792.5C 2049.01,794.698 2050.01,796.698 2051.5,798.5C 2051.07,799.293 2050.74,800.127 2050.5,801C 2052.33,802.663 2054,804.496 2055.5,806.5C 2054.69,807.814 2053.69,808.981 2052.5,810C 2053.11,812.324 2053.77,814.657 2054.5,817C 2052.1,817.508 2051.43,818.675 2052.5,820.5C 2048.98,822.52 2046.81,825.52 2046,829.5C 2042.8,833.379 2039.63,837.379 2036.5,841.5C 2036.25,838.389 2035.25,835.222 2033.5,832C 2033.96,831.586 2034.29,831.086 2034.5,830.5C 2033.27,829.719 2031.94,829.219 2030.5,829C 2031.31,828.692 2031.97,828.192 2032.5,827.5C 2032.14,824.308 2030.47,822.141 2027.5,821C 2028.29,819.915 2028.96,818.748 2029.5,817.5C 2028.14,813.944 2026.14,810.778 2023.5,808C 2024.17,807.667 2024.83,807.333 2025.5,807C 2025.27,804.731 2024.94,802.231 2024.5,799.5C 2025.83,799.5 2027.17,799.5 2028.5,799.5C 2028.01,797.176 2028.01,795.009 2028.5,793C 2027.49,791.328 2026.16,789.995 2024.5,789C 2025.29,787.915 2025.96,786.748 2026.5,785.5C 2025.37,779.868 2025.37,774.201 2026.5,768.5 Z M 2132.5,779.5 C 2130.66,779.361 2130.33,778.694 2131.5,777.5C 2132.3,777.957 2132.63,778.624 2132.5,779.5 Z M 1931.5,787.5 C 1931.56,786.957 1931.89,786.624 1932.5,786.5C 1933.23,788.815 1934.57,790.648 1936.5,792C 1935.62,793.586 1934.62,795.086 1933.5,796.5C 1934.5,797.167 1935.5,797.833 1936.5,798.5C 1934.58,800.009 1933.41,802.009 1933,804.5C 1931.89,802.963 1930.39,802.297 1928.5,802.5C 1928.64,800.876 1927.97,799.71 1926.5,799C 1927.83,797.667 1929.17,796.333 1930.5,795C 1930.17,794.667 1929.83,794.333 1929.5,794C 1931.36,791.882 1932.03,789.716 1931.5,787.5 Z M 1923.5,816.5 C 1922.49,814.9 1922.99,813.566 1925,812.5C 1926.9,814.488 1926.4,815.822 1923.5,816.5 Z M 1871.5,817.5 C 1872.64,815.912 1873.97,815.579 1875.5,816.5C 1874.31,817.429 1872.98,817.762 1871.5,817.5 Z M 1871.5,817.5 C 1871.53,818.497 1871.03,819.164 1870,819.5C 1867.2,820.578 1864.37,821.078 1861.5,821C 1864.76,819.526 1868.09,818.36 1871.5,817.5 Z M 1892.5,825.5 C 1893.04,825.56 1893.38,825.893 1893.5,826.5C 1892.32,828.046 1891.32,829.713 1890.5,831.5C 1889.72,829.165 1890.39,827.165 1892.5,825.5 Z"/></g>
<g><path style="opacity:0.998" fill="#4e76b2" d="M 1618.5,596.5 C 1647.23,667.844 1676.06,739.178 1705,810.5C 1706.01,815.813 1704.68,820.48 1701,824.5C 1696.26,829.744 1691.09,834.41 1685.5,838.5C 1678.33,844.583 1670.66,849.916 1662.5,854.5C 1658.44,830.952 1651.27,808.286 1641,786.5C 1623.06,753.227 1597.23,728.06 1563.5,711C 1558.5,710.888 1553.5,711.221 1548.5,712C 1515.35,718.454 1482.68,726.788 1450.5,737C 1396.33,753.924 1342.66,772.257 1289.5,792C 1217.19,819.216 1145.19,847.216 1073.5,876C 993.424,909.078 913.424,942.245 833.5,975.5C 826.219,957.939 819.219,940.273 812.5,922.5C 1080.87,813.321 1349.54,704.654 1618.5,596.5 Z"/></g>
<g><path style="opacity:0.995" fill="#4f75b2" d="M 434.5,670.5 C 457.732,775.809 522.732,836.643 629.5,853C 673.985,859.691 718.652,861.191 763.5,857.5C 765.696,857.505 767.696,857.838 769.5,858.5C 689.252,891.028 608.918,923.361 528.5,955.5C 509.745,948.789 491.745,940.456 474.5,930.5C 455.14,847.048 436.14,763.381 417.5,679.5C 417.608,678.558 417.941,677.725 418.5,677C 423.822,674.728 429.155,672.561 434.5,670.5 Z"/></g>
<g><path style="opacity:0.999" fill="#4f7cb7" d="M 1662.5,854.5 C 1647.54,865.261 1631.87,875.095 1615.5,884C 1432.7,981.271 1242.04,1059.6 1043.5,1119C 1016.32,1126.04 989.32,1132.88 962.5,1139.5C 949.09,1141.7 935.59,1143.03 922,1143.5C 917.5,1143.33 913,1143.17 908.5,1143C 905.376,1142.52 902.543,1141.35 900,1139.5C 877.544,1084.93 855.377,1030.26 833.5,975.5C 913.424,942.245 993.424,909.078 1073.5,876C 1145.19,847.216 1217.19,819.216 1289.5,792C 1342.66,772.257 1396.33,753.924 1450.5,737C 1482.68,726.788 1515.35,718.454 1548.5,712C 1553.5,711.221 1558.5,710.888 1563.5,711C 1597.23,728.06 1623.06,753.227 1641,786.5C 1651.27,808.286 1658.44,830.952 1662.5,854.5 Z"/></g>
<g><path style="opacity:0.999" fill="#9899a5" d="M 1685.5,838.5 C 1694.17,857.833 1702.83,877.167 1711.5,896.5C 1629.88,946.187 1545.88,992.021 1459.5,1034C 1408.53,1057.99 1356.19,1078.66 1302.5,1096C 1196.53,1129.27 1089.86,1159.77 982.5,1187.5C 976.01,1171.35 969.344,1155.35 962.5,1139.5C 989.32,1132.88 1016.32,1126.04 1043.5,1119C 1242.04,1059.6 1432.7,981.271 1615.5,884C 1631.87,875.095 1647.54,865.261 1662.5,854.5C 1670.66,849.916 1678.33,844.583 1685.5,838.5 Z"/></g>
<g><path style="opacity:0.292" fill="#af4f4e" d="M 1957.5,862.5 C 1958.92,862.709 1960.26,863.209 1961.5,864C 1959.54,864.844 1958.2,864.344 1957.5,862.5 Z"/></g>
<g><path style="opacity:0.363" fill="#af4f4e" d="M 1962.5,879.5 C 1964.98,879.73 1965.48,880.397 1964,881.5C 1962.97,881.164 1962.47,880.497 1962.5,879.5 Z"/></g>
<g><path style="opacity:0.999" fill="#a5a5a4" d="M 1711.5,896.5 C 1720.08,915.586 1728.08,934.919 1735.5,954.5C 1698.53,994.809 1655.86,1027.64 1607.5,1053C 1579.37,1067.57 1550.7,1080.73 1521.5,1092.5C 1503.62,1099.6 1485.62,1106.44 1467.5,1113C 1391.76,1139.63 1316.1,1166.13 1240.5,1192.5C 1189.35,1209.08 1137.02,1220.42 1083.5,1226.5C 1055.24,1229.1 1026.9,1230.1 998.5,1229.5C 993.363,1215.42 988.03,1201.42 982.5,1187.5C 1089.86,1159.77 1196.53,1129.27 1302.5,1096C 1356.19,1078.66 1408.53,1057.99 1459.5,1034C 1545.88,992.021 1629.88,946.187 1711.5,896.5 Z"/></g>
<g><path style="opacity:0.993" fill="#4e7cb8" d="M 474.5,930.5 C 491.745,940.456 509.745,948.789 528.5,955.5C 513.833,961.833 499.167,968.167 484.5,974.5C 480.663,966.351 476.996,958.018 473.5,949.5C 474.833,948.167 476.167,946.833 477.5,945.5C 476.023,940.592 475.023,935.592 474.5,930.5 Z"/></g>
<g><path style="opacity:0.998" fill="#9b471f" d="M 1735.5,954.5 C 1803.17,1131.21 1868.67,1308.87 1932,1487.5C 1982.91,1633.22 2025.91,1781.22 2061,1931.5C 2102.32,2112.23 2126.48,2295.23 2133.5,2480.5C 2133.97,2485.78 2132.3,2490.11 2128.5,2493.5C 2121.52,2499 2113.85,2503.5 2105.5,2507C 2073.9,2519.09 2041.57,2528.76 2008.5,2536C 1984.16,2540.9 1959.83,2545.73 1935.5,2550.5C 1935.96,2536.42 1935.13,2522.42 1933,2508.5C 1895.04,2310.46 1851.2,2113.8 1801.5,1918.5C 1808.14,1923.17 1814.47,1928.34 1820.5,1934C 1822.13,1934.49 1823.8,1934.66 1825.5,1934.5C 1821.85,1924.19 1817.35,1914.19 1812,1904.5C 1803.06,1888.28 1793.9,1872.28 1784.5,1856.5C 1764.7,1779.98 1743.04,1703.98 1719.5,1628.5C 1731.94,1605.43 1739.1,1580.76 1741,1554.5C 1745.81,1493.35 1729.14,1439.02 1691,1391.5C 1674.33,1371.99 1653.49,1359.33 1628.5,1353.5C 1678.99,1334.22 1722.99,1307.06 1760.5,1272C 1719.01,1303.58 1673.01,1326.41 1622.5,1340.5C 1595.13,1264.58 1565.3,1189.58 1533,1115.5C 1529.65,1107.46 1525.81,1099.8 1521.5,1092.5C 1550.7,1080.73 1579.37,1067.57 1607.5,1053C 1655.86,1027.64 1698.53,994.809 1735.5,954.5 Z"/></g>
<g><path style="opacity:1" fill="#e66117" d="M 1521.5,1092.5 C 1525.81,1099.8 1529.65,1107.46 1533,1115.5C 1565.3,1189.58 1595.13,1264.58 1622.5,1340.5C 1578.35,1351.71 1534.01,1352.38 1489.5,1342.5C 1477.71,1345.41 1474.55,1352.41 1480,1363.5C 1482.26,1365.43 1484.76,1366.93 1487.5,1368C 1514.15,1371.17 1540.81,1371.33 1567.5,1368.5C 1542.7,1390.75 1527.2,1418.41 1521,1451.5C 1511.14,1509.37 1520.81,1563.7 1550,1614.5C 1565.48,1639.98 1586.64,1659.15 1613.5,1672C 1660.33,1685.41 1695.67,1670.91 1719.5,1628.5C 1743.04,1703.98 1764.7,1779.98 1784.5,1856.5C 1773.94,1839.73 1763.11,1823.06 1752,1806.5C 1742.77,1797.36 1732.6,1796.2 1721.5,1803C 1719.64,1804.56 1718.14,1806.39 1717,1808.5C 1700.67,1842.48 1686.01,1877.15 1673,1912.5C 1655.13,1892.96 1637.63,1873.13 1620.5,1853C 1610.42,1847.44 1601.25,1848.6 1593,1856.5C 1572.75,1892.66 1552.25,1928.66 1531.5,1964.5C 1517.84,1949.18 1504.17,1933.84 1490.5,1918.5C 1466.27,1829.12 1440.6,1740.12 1413.5,1651.5C 1432.53,1593.49 1427.69,1537.49 1399,1483.5C 1383.77,1456.43 1362.27,1436.1 1334.5,1422.5C 1306.1,1344.63 1274.77,1267.96 1240.5,1192.5C 1316.1,1166.13 1391.76,1139.63 1467.5,1113C 1485.62,1106.44 1503.62,1099.6 1521.5,1092.5 Z"/></g>
<g><path style="opacity:1" fill="#e67117" d="M 1240.5,1192.5 C 1274.77,1267.96 1306.1,1344.63 1334.5,1422.5C 1286.43,1407.36 1249.26,1421.36 1223,1464.5C 1219.55,1471.07 1216.38,1477.73 1213.5,1484.5C 1197.89,1448.44 1181.56,1412.61 1164.5,1377C 1165.06,1376.62 1165.39,1376.12 1165.5,1375.5C 1193.26,1356.63 1223.59,1343.13 1256.5,1335C 1260.72,1329.69 1261.55,1323.86 1259,1317.5C 1254.51,1312.74 1249.01,1311.24 1242.5,1313C 1211.25,1324.12 1182.58,1339.62 1156.5,1359.5C 1133.43,1314.28 1108.09,1270.45 1080.5,1228C 1081.74,1227.77 1082.74,1227.27 1083.5,1226.5C 1137.02,1220.42 1189.35,1209.08 1240.5,1192.5 Z"/></g>
<g><path style="opacity:0.993" fill="#e06e18" d="M 1083.5,1226.5 C 1082.74,1227.27 1081.74,1227.77 1080.5,1228C 1108.09,1270.45 1133.43,1314.28 1156.5,1359.5C 1129.28,1382.38 1105.62,1408.38 1085.5,1437.5C 1057.67,1367.67 1028.67,1298.34 998.5,1229.5C 1026.9,1230.1 1055.24,1229.1 1083.5,1226.5 Z"/></g>
<g><path style="opacity:1" fill="#040100" d="M 1628.5,1353.5 C 1608.59,1360.32 1588.26,1365.32 1567.5,1368.5C 1540.81,1371.33 1514.15,1371.17 1487.5,1368C 1484.76,1366.93 1482.26,1365.43 1480,1363.5C 1474.55,1352.41 1477.71,1345.41 1489.5,1342.5C 1534.01,1352.38 1578.35,1351.71 1622.5,1340.5C 1673.01,1326.41 1719.01,1303.58 1760.5,1272C 1722.99,1307.06 1678.99,1334.22 1628.5,1353.5 Z"/></g>
<g><path style="opacity:0.975" fill="#030100" d="M 1165.5,1375.5 C 1135.96,1394.7 1110.96,1418.7 1090.5,1447.5C 1071.69,1471.75 1055.36,1497.75 1041.5,1525.5C 1041,1526.52 1040.33,1526.69 1039.5,1526C 1052.11,1494.95 1067.44,1465.45 1085.5,1437.5C 1105.62,1408.38 1129.28,1382.38 1156.5,1359.5C 1182.58,1339.62 1211.25,1324.12 1242.5,1313C 1249.01,1311.24 1254.51,1312.74 1259,1317.5C 1261.55,1323.86 1260.72,1329.69 1256.5,1335C 1223.59,1343.13 1193.26,1356.63 1165.5,1375.5 Z"/></g>
<g><path style="opacity:1" fill="#fefefd" d="M 1628.5,1353.5 C 1653.49,1359.33 1674.33,1371.99 1691,1391.5C 1729.14,1439.02 1745.81,1493.35 1741,1554.5C 1739.1,1580.76 1731.94,1605.43 1719.5,1628.5C 1695.67,1670.91 1660.33,1685.41 1613.5,1672C 1586.64,1659.15 1565.48,1639.98 1550,1614.5C 1520.81,1563.7 1511.14,1509.37 1521,1451.5C 1527.2,1418.41 1542.7,1390.75 1567.5,1368.5C 1588.26,1365.32 1608.59,1360.32 1628.5,1353.5 Z"/></g>
<g><path style="opacity:0.995" fill="#e06f18" d="M 1165.5,1375.5 C 1165.39,1376.12 1165.06,1376.62 1164.5,1377C 1181.56,1412.61 1197.89,1448.44 1213.5,1484.5C 1202.9,1511.5 1199.06,1539.5 1202,1568.5C 1202.87,1578.23 1204.21,1587.9 1206,1597.5C 1206.57,1601.16 1207.74,1604.5 1209.5,1607.5C 1208.88,1632.57 1218.21,1652.91 1237.5,1668.5C 1252.92,1691.53 1273.58,1707.87 1299.5,1717.5C 1329.97,1818.32 1358.8,1919.99 1386,2022.5C 1420.87,2151.7 1443.2,2283.03 1453,2416.5C 1455.78,2473.26 1454.61,2529.92 1449.5,2586.5C 1430.55,2586.29 1412.21,2582.95 1394.5,2576.5C 1390.29,2574.09 1388.13,2570.43 1388,2565.5C 1342.66,2227.46 1260.32,1898.79 1141,1579.5C 1124.06,1535.5 1107.23,1491.5 1090.5,1447.5C 1110.96,1418.7 1135.96,1394.7 1165.5,1375.5 Z"/></g>
<g><path style="opacity:1" fill="#fefefd" d="M 1334.5,1422.5 C 1362.27,1436.1 1383.77,1456.43 1399,1483.5C 1427.69,1537.49 1432.53,1593.49 1413.5,1651.5C 1404.27,1674.56 1389.6,1693.4 1369.5,1708C 1347.52,1720.83 1324.19,1724 1299.5,1717.5C 1273.58,1707.87 1252.92,1691.53 1237.5,1668.5C 1269.13,1690.24 1300.47,1689.74 1331.5,1667C 1356.8,1642.62 1363.64,1613.79 1352,1580.5C 1350.01,1575.84 1347.51,1571.51 1344.5,1567.5C 1337.93,1587.96 1323.93,1597.12 1302.5,1595C 1281.81,1587.8 1273.31,1573.3 1277,1551.5C 1279.14,1545.38 1282.64,1540.21 1287.5,1536C 1258.52,1534.91 1236.02,1546.41 1220,1570.5C 1212.94,1581.84 1209.44,1594.17 1209.5,1607.5C 1207.74,1604.5 1206.57,1601.16 1206,1597.5C 1204.21,1587.9 1202.87,1578.23 1202,1568.5C 1199.06,1539.5 1202.9,1511.5 1213.5,1484.5C 1216.38,1477.73 1219.55,1471.07 1223,1464.5C 1249.26,1421.36 1286.43,1407.36 1334.5,1422.5 Z"/></g>
<g><path style="opacity:1" fill="#010101" d="M 1599.5,1480.5 C 1603.85,1480.33 1608.18,1480.5 1612.5,1481C 1601.17,1492.21 1598.34,1505.38 1604,1520.5C 1613.96,1538.49 1628.79,1544.32 1648.5,1538C 1659.38,1532.76 1666.38,1524.26 1669.5,1512.5C 1681.9,1530.77 1685.73,1550.77 1681,1572.5C 1668.25,1611.97 1641.08,1630.8 1599.5,1629C 1563.77,1622.27 1542.27,1601.1 1535,1565.5C 1532.19,1527.61 1548.02,1500.78 1582.5,1485C 1588.31,1483.55 1593.98,1482.05 1599.5,1480.5 Z"/></g>
<g><path style="opacity:1" fill="#010101" d="M 1237.5,1668.5 C 1218.21,1652.91 1208.88,1632.57 1209.5,1607.5C 1209.44,1594.17 1212.94,1581.84 1220,1570.5C 1236.02,1546.41 1258.52,1534.91 1287.5,1536C 1282.64,1540.21 1279.14,1545.38 1277,1551.5C 1273.31,1573.3 1281.81,1587.8 1302.5,1595C 1323.93,1597.12 1337.93,1587.96 1344.5,1567.5C 1347.51,1571.51 1350.01,1575.84 1352,1580.5C 1363.64,1613.79 1356.8,1642.62 1331.5,1667C 1300.47,1689.74 1269.13,1690.24 1237.5,1668.5 Z"/></g>
<g><path style="opacity:1" fill="#e67217" d="M 1413.5,1651.5 C 1440.6,1740.12 1466.27,1829.12 1490.5,1918.5C 1482.37,1910.2 1474.37,1901.7 1466.5,1893C 1462.29,1890.73 1458.45,1891.23 1455,1894.5C 1442.8,1930.09 1430.8,1965.76 1419,2001.5C 1418.33,2003.17 1418.33,2004.83 1419,2006.5C 1420.33,2007.83 1421.67,2007.83 1423,2006.5C 1436.23,1977.04 1449.73,1947.7 1463.5,1918.5C 1478.62,1937.28 1492.96,1956.62 1506.5,1976.5C 1558.39,2176.95 1603.39,2378.95 1641.5,2582.5C 1642.5,2582.5 1643.5,2582.5 1644.5,2582.5C 1644.5,2583.17 1644.17,2583.5 1643.5,2583.5C 1595.87,2586.05 1548.2,2587.71 1500.5,2588.5C 1483.45,2588.64 1466.45,2587.97 1449.5,2586.5C 1454.61,2529.92 1455.78,2473.26 1453,2416.5C 1443.2,2283.03 1420.87,2151.7 1386,2022.5C 1358.8,1919.99 1329.97,1818.32 1299.5,1717.5C 1324.19,1724 1347.52,1720.83 1369.5,1708C 1389.6,1693.4 1404.27,1674.56 1413.5,1651.5 Z"/></g>
<g><path style="opacity:1" fill="#72324e" d="M 1784.5,1856.5 C 1793.9,1872.28 1803.06,1888.28 1812,1904.5C 1817.35,1914.19 1821.85,1924.19 1825.5,1934.5C 1823.8,1934.66 1822.13,1934.49 1820.5,1934C 1814.47,1928.34 1808.14,1923.17 1801.5,1918.5C 1782.59,1901.09 1764.09,1883.09 1746,1864.5C 1733.86,1900.26 1720.52,1935.59 1706,1970.5C 1697.2,1986.31 1684.7,1990.15 1668.5,1982C 1648.94,1955.71 1629.28,1929.54 1609.5,1903.5C 1587.39,1936.11 1565.06,1968.61 1542.5,2001C 1537.62,2003.74 1532.62,2004.07 1527.5,2002C 1520.26,1993.6 1513.26,1985.1 1506.5,1976.5C 1492.96,1956.62 1478.62,1937.28 1463.5,1918.5C 1449.73,1947.7 1436.23,1977.04 1423,2006.5C 1421.67,2007.83 1420.33,2007.83 1419,2006.5C 1418.33,2004.83 1418.33,2003.17 1419,2001.5C 1430.8,1965.76 1442.8,1930.09 1455,1894.5C 1458.45,1891.23 1462.29,1890.73 1466.5,1893C 1474.37,1901.7 1482.37,1910.2 1490.5,1918.5C 1504.17,1933.84 1517.84,1949.18 1531.5,1964.5C 1552.25,1928.66 1572.75,1892.66 1593,1856.5C 1601.25,1848.6 1610.42,1847.44 1620.5,1853C 1637.63,1873.13 1655.13,1892.96 1673,1912.5C 1686.01,1877.15 1700.67,1842.48 1717,1808.5C 1718.14,1806.39 1719.64,1804.56 1721.5,1803C 1732.6,1796.2 1742.77,1797.36 1752,1806.5C 1763.11,1823.06 1773.94,1839.73 1784.5,1856.5 Z"/></g>
<g><path style="opacity:1" fill="#e66017" d="M 1801.5,1918.5 C 1851.2,2113.8 1895.04,2310.46 1933,2508.5C 1935.13,2522.42 1935.96,2536.42 1935.5,2550.5C 1928.78,2551.71 1922.11,2553.04 1915.5,2554.5C 1867.03,2562.58 1818.36,2569.41 1769.5,2575C 1727.85,2577.78 1686.18,2580.28 1644.5,2582.5C 1643.5,2582.5 1642.5,2582.5 1641.5,2582.5C 1603.39,2378.95 1558.39,2176.95 1506.5,1976.5C 1513.26,1985.1 1520.26,1993.6 1527.5,2002C 1532.62,2004.07 1537.62,2003.74 1542.5,2001C 1565.06,1968.61 1587.39,1936.11 1609.5,1903.5C 1629.28,1929.54 1648.94,1955.71 1668.5,1982C 1684.7,1990.15 1697.2,1986.31 1706,1970.5C 1720.52,1935.59 1733.86,1900.26 1746,1864.5C 1764.09,1883.09 1782.59,1901.09 1801.5,1918.5 Z"/></g>
<g><path style="opacity:0.994" fill="#ebddc0" d="M 2128.5,2493.5 C 2083.8,2592.91 2039.63,2692.58 1996,2792.5C 1956.71,2881.08 1913.71,2967.75 1867,3052.5C 1858.06,3068.06 1848.89,3083.4 1839.5,3098.5C 1848.3,3078.06 1858.3,3058.23 1869.5,3039C 1843.33,3038.83 1817.33,3038.33 1791.5,3037.5C 1803.92,3038.13 1816.08,3037.47 1828,3035.5C 1834.81,2995.34 1842.47,2955.34 1851,2915.5C 1868.97,2835.97 1886.31,2756.31 1903,2676.5C 1906.84,2635.8 1911,2595.13 1915.5,2554.5C 1922.11,2553.04 1928.78,2551.71 1935.5,2550.5C 1959.83,2545.73 1984.16,2540.9 2008.5,2536C 2041.57,2528.76 2073.9,2519.09 2105.5,2507C 2113.85,2503.5 2121.52,2499 2128.5,2493.5 Z"/></g>
<g><path style="opacity:0.999" fill="#f7ddb7" d="M 1915.5,2554.5 C 1911,2595.13 1906.84,2635.8 1903,2676.5C 1886.31,2756.31 1868.97,2835.97 1851,2915.5C 1842.47,2955.34 1834.81,2995.34 1828,3035.5C 1816.08,3037.47 1803.92,3038.13 1791.5,3037.5C 1767.26,3037.83 1743.09,3037.49 1719,3036.5C 1721.9,3044.36 1724.73,3052.36 1727.5,3060.5C 1691.09,3003.34 1654.42,2946.34 1617.5,2889.5C 1627.6,2787.62 1636.27,2685.62 1643.5,2583.5C 1644.17,2583.5 1644.5,2583.17 1644.5,2582.5C 1686.18,2580.28 1727.85,2577.78 1769.5,2575C 1818.36,2569.41 1867.03,2562.58 1915.5,2554.5 Z"/></g>
<g><path style="opacity:0.994" fill="#f8e4b6" d="M 1394.5,2576.5 C 1412.21,2582.95 1430.55,2586.29 1449.5,2586.5C 1466.45,2587.97 1483.45,2588.64 1500.5,2588.5C 1548.2,2587.71 1595.87,2586.05 1643.5,2583.5C 1636.27,2685.62 1627.6,2787.62 1617.5,2889.5C 1545.92,2783.24 1471.58,2678.91 1394.5,2576.5 Z"/></g>
<g><path style="opacity:0.99" fill="#000000" d="M 1791.5,3037.5 C 1817.33,3038.33 1843.33,3038.83 1869.5,3039C 1858.3,3058.23 1848.3,3078.06 1839.5,3098.5C 1828.3,3122.57 1815.8,3145.91 1802,3168.5C 1792.33,3179.17 1782.67,3179.17 1773,3168.5C 1767.82,3160.15 1763.16,3151.49 1759,3142.5C 1747.41,3115.57 1736.91,3088.24 1727.5,3060.5C 1724.73,3052.36 1721.9,3044.36 1719,3036.5C 1743.09,3037.49 1767.26,3037.83 1791.5,3037.5 Z"/></g>
</svg>
