<?xml version="1.0" encoding="UTF-8"?>
<!DOCTYPE svg PUBLIC "-//W3C//DTD SVG 1.1//EN" "http://www.w3.org/Graphics/SVG/1.1/DTD/svg11.dtd">
<svg xmlns="http://www.w3.org/2000/svg" version="1.1" width="699px" height="416px" style="shape-rendering:geometricPrecision; text-rendering:geometricPrecision; image-rendering:optimizeQuality; fill-rule:evenodd; clip-rule:evenodd" xmlns:xlink="http://www.w3.org/1999/xlink">
<g><path style="opacity:1" fill="#fdfefe" d="M -0.5,-0.5 C 232.5,-0.5 465.5,-0.5 698.5,-0.5C 698.5,138.167 698.5,276.833 698.5,415.5C 657.167,415.5 615.833,415.5 574.5,415.5C 574.399,405.976 573.733,396.643 572.5,387.5C 570.709,375.547 569.376,363.547 568.5,351.5C 568,344.506 567.5,337.506 567,330.5C 566.79,328.942 566.29,327.609 565.5,326.5C 564.298,319.381 562.965,312.381 561.5,305.5C 561.461,304.417 561.127,303.417 560.5,302.5C 561.667,302.167 562.833,301.833 564,301.5C 577.139,304.461 590.306,307.295 603.5,310C 606.167,310.667 608.833,310.667 611.5,310C 616.369,304.963 621.369,300.13 626.5,295.5C 628.914,294.089 630.581,292.089 631.5,289.5C 634.101,285.229 637.434,281.563 641.5,278.5C 644.462,275.036 647.629,271.703 651,268.5C 651.608,266.846 652.108,265.179 652.5,263.5C 654.673,259.148 657.34,255.148 660.5,251.5C 662.408,250.514 663.408,248.848 663.5,246.5C 669.468,236.734 674.801,226.568 679.5,216C 676.11,209.774 671.776,204.274 666.5,199.5C 665.908,195.238 665.908,190.905 666.5,186.5C 669.95,172.863 672.617,159.03 674.5,145C 674.318,142.657 673.318,140.824 671.5,139.5C 668.15,137.825 664.816,136.158 661.5,134.5C 660.309,130.77 658.809,127.103 657,123.5C 656.311,124.357 655.478,125.023 654.5,125.5C 653.476,124.147 652.143,123.48 650.5,123.5C 644.269,120.517 642.269,122.517 644.5,129.5C 644.338,131.824 643.172,133.491 641,134.5C 640.333,137.833 640.333,141.167 641,144.5C 643.381,145.435 645.881,145.768 648.5,145.5C 650.094,142.939 651.094,139.939 651.5,136.5C 652.739,136.942 653.739,137.609 654.5,138.5C 653.722,139.156 653.056,139.989 652.5,141C 654.112,142.482 655.112,144.315 655.5,146.5C 653.5,146.5 651.5,146.5 649.5,146.5C 648.974,149.808 650.307,151.974 653.5,153C 651.866,153.494 650.199,153.66 648.5,153.5C 648.351,154.552 648.517,155.552 649,156.5C 651.683,159.016 654.183,161.683 656.5,164.5C 654.816,169.193 653.149,173.86 651.5,178.5C 647.524,177.705 643.524,177.038 639.5,176.5C 639.5,177.5 639.5,178.5 639.5,179.5C 635.208,178.251 630.875,176.918 626.5,175.5C 625.228,174.566 623.728,173.899 622,173.5C 620.97,173.836 620.47,174.503 620.5,175.5C 619.566,176.568 619.232,177.901 619.5,179.5C 616.593,181.315 615.259,183.981 615.5,187.5C 608.891,199.557 602.725,211.89 597,224.5C 596.51,225.793 596.343,227.127 596.5,228.5C 593.556,231.486 591.889,235.153 591.5,239.5C 590.5,239.5 589.5,239.5 588.5,239.5C 587.5,239.167 586.833,238.5 586.5,237.5C 585.415,235.413 583.749,234.08 581.5,233.5C 577.807,230.797 574.14,228.131 570.5,225.5C 568.356,220.092 564.356,217.758 558.5,218.5C 557.626,217.475 556.459,216.808 555,216.5C 553.674,217.799 552.34,219.132 551,220.5C 535.333,242.167 519.667,263.833 504,285.5C 490.993,262.144 477.493,239.144 463.5,216.5C 462.551,215.848 461.385,215.514 460,215.5C 457.992,215.307 456.492,215.974 455.5,217.5C 447.131,219.541 439.131,222.541 431.5,226.5C 427.833,227.833 424.167,229.167 420.5,230.5C 419.282,229.839 417.949,229.172 416.5,228.5C 415.877,226.289 414.877,224.289 413.5,222.5C 410.255,218.648 406.589,215.315 402.5,212.5C 400.583,210.255 398.25,209.922 395.5,211.5C 393.401,209.466 391.068,209.132 388.5,210.5C 387.691,212.071 387.357,213.738 387.5,215.5C 390.921,216.053 394.088,217.386 397,219.5C 397.331,229.868 396.831,240.202 395.5,250.5C 395.5,250.833 395.5,251.167 395.5,251.5C 395.565,251.938 395.399,252.272 395,252.5C 393.136,249.793 390.636,248.959 387.5,250C 386.248,251.828 386.248,253.661 387.5,255.5C 383.285,257.436 378.619,258.103 373.5,257.5C 373.824,253.445 373.491,249.445 372.5,245.5C 371.893,245.624 371.56,245.957 371.5,246.5C 366.53,256.627 361.363,266.627 356,276.5C 342.252,256.267 328.752,235.934 315.5,215.5C 317.465,215.052 317.798,214.052 316.5,212.5C 311.554,211.386 306.554,211.219 301.5,212C 298.813,213.049 296.48,214.549 294.5,216.5C 290.487,218.513 287.487,221.513 285.5,225.5C 284.625,227.568 283.459,229.568 282,231.5C 281.751,230.376 281.251,229.376 280.5,228.5C 277.248,230.981 274.248,230.648 271.5,227.5C 269.898,225.926 267.898,225.259 265.5,225.5C 263.847,225.34 262.514,224.674 261.5,223.5C 261.489,221.983 260.823,220.816 259.5,220C 254.706,219.653 250.04,218.82 245.5,217.5C 245.167,217.5 244.833,217.5 244.5,217.5C 243.508,215.974 242.008,215.307 240,215.5C 238.615,215.514 237.449,215.848 236.5,216.5C 222.104,238.941 208.437,261.941 195.5,285.5C 179.163,262.51 162.496,239.844 145.5,217.5C 142.92,215.984 140.92,216.651 139.5,219.5C 132.449,222.018 126.449,226.018 121.5,231.5C 118.545,233.122 115.878,235.122 113.5,237.5C 111.451,238.641 109.451,238.641 107.5,237.5C 106.917,234.053 105.584,231.053 103.5,228.5C 102.071,225.304 100.405,222.304 98.5,219.5C 97.926,215.675 96.7594,212.009 95,208.5C 94.2917,207.619 93.4584,206.953 92.5,206.5C 92.6567,205.127 92.49,203.793 92,202.5C 87.2973,193.426 82.964,184.092 79,174.5C 78.4387,173.978 77.772,173.645 77,173.5C 74.8458,174.274 72.6792,174.941 70.5,175.5C 67.6874,175.025 65.6874,176.025 64.5,178.5C 63.1667,178.5 61.8333,178.5 60.5,178.5C 59.596,177.791 59.2627,176.791 59.5,175.5C 55.7602,177.298 51.7602,178.298 47.5,178.5C 46.2927,173.217 44.2927,168.217 41.5,163.5C 45.018,161.147 48.018,158.313 50.5,155C 50.2409,153.739 49.5742,152.739 48.5,152C 50.5268,150.604 50.8602,148.938 49.5,147C 46.7644,146.578 44.0977,146.578 41.5,147C 42.5089,144.828 44.1756,143.662 46.5,143.5C 46.6347,141.446 45.968,139.779 44.5,138.5C 45.4822,137.859 46.4822,137.193 47.5,136.5C 48.1667,139.5 48.8333,142.5 49.5,145.5C 50.2975,145.043 50.6309,144.376 50.5,143.5C 53.1367,144.63 55.8033,144.63 58.5,143.5C 59.2176,139.097 58.0509,135.43 55,132.5C 54.5172,131.552 54.3505,130.552 54.5,129.5C 56.3552,125.915 55.5219,123.249 52,121.5C 49.6343,123.134 47.801,125.134 46.5,127.5C 43.351,125.771 41.0176,126.605 39.5,130C 39.5699,130.765 39.9033,131.265 40.5,131.5C 38.2617,133.632 35.595,135.298 32.5,136.5C 27.8545,137.806 25.1878,140.806 24.5,145.5C 25.3968,152.722 26.7302,159.722 28.5,166.5C 30.1317,176.931 32.1317,187.265 34.5,197.5C 28.9043,203.196 23.9043,209.363 19.5,216C 36.53,251.386 59.1967,282.72 87.5,310C 91.2027,310.579 94.8694,310.412 98.5,309.5C 101.152,309.59 103.485,308.924 105.5,307.5C 116.448,305.348 127.448,303.348 138.5,301.5C 137.22,308.457 136.22,315.457 135.5,322.5C 133.823,326.545 133.156,330.878 133.5,335.5C 132.775,341.247 131.775,346.914 130.5,352.5C 129.096,363.655 128.096,374.988 127.5,386.5C 126.38,396.082 125.713,405.748 125.5,415.5C 83.5,415.5 41.5,415.5 -0.5,415.5C -0.5,276.833 -0.5,138.167 -0.5,-0.5 Z"/></g>
<g><path style="opacity:1" fill="#52709c" d="M 193.5,57.5 C 192.127,57.3433 190.793,57.51 189.5,58C 186.893,59.5722 184.559,61.4055 182.5,63.5C 182.167,63.5 181.833,63.5 181.5,63.5C 181.859,61.629 182.859,60.129 184.5,59C 186.684,58.1325 188.851,57.2992 191,56.5C 192.07,56.528 192.903,56.8614 193.5,57.5 Z"/></g>
<g><path style="opacity:1" fill="#cddbec" d="M 509.5,56.5 C 512.757,56.6682 515.757,57.6682 518.5,59.5C 519.152,61.808 520.485,63.4747 522.5,64.5C 521.127,64.6567 519.793,64.49 518.5,64C 517.468,62.3732 516.134,61.2066 514.5,60.5C 513.016,58.9263 511.349,57.593 509.5,56.5 Z"/></g>
<g><path style="opacity:1" fill="#2e558c" d="M 509.5,56.5 C 511.349,57.593 513.016,58.9263 514.5,60.5C 512.5,60.1667 510.5,59.8333 508.5,59.5C 508.5,60.5 508.5,61.5 508.5,62.5C 506.334,62.4211 504.334,61.7545 502.5,60.5C 500.423,61.9371 498.09,62.6038 495.5,62.5C 498.354,60.5215 501.354,58.6881 504.5,57C 506.134,56.5065 507.801,56.3398 509.5,56.5 Z"/></g>
<g><path style="opacity:1" fill="#19498a" d="M 514.5,60.5 C 516.134,61.2066 517.468,62.3732 518.5,64C 519.793,64.49 521.127,64.6567 522.5,64.5C 526.601,66.3685 530.934,68.0351 535.5,69.5C 537.566,71.1991 539.9,72.5324 542.5,73.5C 544.95,74.7765 547.283,76.2765 549.5,78C 552.167,78.6667 554.833,79.3333 557.5,80C 559.063,81.9473 561.063,83.114 563.5,83.5C 564.687,85.9754 566.687,86.9754 569.5,86.5C 570.209,87.404 571.209,87.7373 572.5,87.5C 572.5,88.8333 572.5,90.1667 572.5,91.5C 568.216,92.8154 563.883,94.1488 559.5,95.5C 557.315,95.7036 555.315,96.3702 553.5,97.5C 552.875,92.5484 550.209,89.5484 545.5,88.5C 546.092,91.1272 546.425,93.7938 546.5,96.5C 545.5,96.5 544.5,96.5 543.5,96.5C 543.719,95.325 543.386,94.325 542.5,93.5C 540.802,94.6808 539.135,94.6808 537.5,93.5C 539.304,92.2319 541.304,91.5652 543.5,91.5C 543.719,90.325 543.386,89.325 542.5,88.5C 540.07,90.571 537.403,90.9044 534.5,89.5C 536.763,88.35 539.096,87.35 541.5,86.5C 540.051,85.8281 538.718,85.1614 537.5,84.5C 538.552,84.6495 539.552,84.4828 540.5,84C 534.393,81.7034 528.059,80.3701 521.5,80C 504.843,78.2997 488.509,79.6331 472.5,84C 470.729,84.5354 470.396,85.3687 471.5,86.5C 477.331,84.3555 483.331,83.0222 489.5,82.5C 490.429,83.3149 491.429,84.1482 492.5,85C 486.46,85.9637 480.46,86.6304 474.5,87C 475.973,87.7096 476.64,88.8762 476.5,90.5C 473.834,90.933 471.168,91.433 468.5,92C 471.844,92.9086 475.177,93.5752 478.5,94C 477.167,94.3333 475.833,94.6667 474.5,95C 474.833,95.3333 475.167,95.6667 475.5,96C 471.488,99.9046 470.655,104.405 473,109.5C 473.333,109.167 473.667,108.833 474,108.5C 474.483,109.448 474.649,110.448 474.5,111.5C 478.703,111.076 482.703,111.576 486.5,113C 483.362,113.08 480.196,112.913 477,112.5C 474.705,112.547 472.871,113.213 471.5,114.5C 470.833,114.5 470.5,114.167 470.5,113.5C 470.802,110.941 470.468,108.607 469.5,106.5C 469.799,104.396 469.466,102.396 468.5,100.5C 462.484,98.4889 456.484,96.4889 450.5,94.5C 449.391,94.4431 448.391,94.1098 447.5,93.5C 447.158,92.6618 446.492,92.3284 445.5,92.5C 444.167,90.8333 444.167,89.1667 445.5,87.5C 446.873,87.6567 448.207,87.49 449.5,87C 452.378,85.2452 455.044,83.4119 457.5,81.5C 459.967,81.2451 461.967,80.2451 463.5,78.5C 464.514,77.3263 465.847,76.6596 467.5,76.5C 468.873,76.6567 470.207,76.49 471.5,76C 474.378,74.2452 477.044,72.4119 479.5,70.5C 484.5,67.3332 489.834,64.6665 495.5,62.5C 498.09,62.6038 500.423,61.9371 502.5,60.5C 504.334,61.7545 506.334,62.4211 508.5,62.5C 508.5,61.5 508.5,60.5 508.5,59.5C 510.5,59.8333 512.5,60.1667 514.5,60.5 Z"/></g>
<g><path style="opacity:1" fill="#2d538e" d="M 181.5,63.5 C 181.833,63.5 182.167,63.5 182.5,63.5C 181.593,68.412 178.76,69.7453 174,67.5C 173.5,67.8333 173,68.1667 172.5,68.5C 173.376,69.2508 174.376,69.7508 175.5,70C 174.234,70.3095 173.067,70.8095 172,71.5C 167.284,68.1373 164.951,69.4706 165,75.5C 164.326,74.4216 163.326,73.7549 162,73.5C 157.783,75.0716 153.617,76.7382 149.5,78.5C 150.29,77.2058 151.29,76.0391 152.5,75C 156.475,73.564 160.142,71.564 163.5,69C 169.2,66.2408 175.2,64.4075 181.5,63.5 Z"/></g>
<g><path style="opacity:1" fill="#214d8b" d="M 372.5,79.5 C 366.763,79.2917 361.429,77.9583 356.5,75.5C 352.412,75.0042 351.745,76.0042 354.5,78.5C 351.933,79.8535 349.599,79.5202 347.5,77.5C 348.32,75.8888 349.654,75.2222 351.5,75.5C 351.719,74.325 351.386,73.325 350.5,72.5C 347.285,71.0269 343.951,70.5269 340.5,71C 341.5,71.8333 342.5,72.6667 343.5,73.5C 340.467,74.3378 337.467,74.0044 334.5,72.5C 332.929,73.3094 331.262,73.6427 329.5,73.5C 329.5,72.5 329.5,71.5 329.5,70.5C 327.194,70.0074 324.861,69.6741 322.5,69.5C 324.327,68.0681 325.994,66.4014 327.5,64.5C 329.421,63.359 331.421,63.1923 333.5,64C 346.481,69.2703 359.481,74.4369 372.5,79.5 Z"/></g>
<g><path style="opacity:1" fill="#a8b9d7" d="M 535.5,69.5 C 538.546,69.7247 540.879,71.058 542.5,73.5C 539.9,72.5324 537.566,71.1991 535.5,69.5 Z"/></g>
<g><path style="opacity:1" fill="#4a6c9c" d="M 479.5,70.5 C 477.044,72.4119 474.378,74.2452 471.5,76C 470.207,76.49 468.873,76.6567 467.5,76.5C 470.911,73.569 474.911,71.569 479.5,70.5 Z"/></g>
<g><path style="opacity:1" fill="#859abe" d="M 463.5,78.5 C 461.967,80.2451 459.967,81.2451 457.5,81.5C 459.033,79.7549 461.033,78.7549 463.5,78.5 Z"/></g>
<g><path style="opacity:1" fill="#d0dce9" d="M 235.5,77.5 C 238.579,79.0195 241.912,79.8529 245.5,80C 245.043,80.414 244.709,80.914 244.5,81.5C 246.695,82.7691 248.861,82.7691 251,81.5C 250.852,82.825 251.018,83.9916 251.5,85C 253.909,86.7068 256.575,87.5402 259.5,87.5C 259.33,88.8221 259.663,89.9887 260.5,91C 258.341,91.912 256.175,92.7454 254,93.5C 253.505,95.4727 253.338,97.4727 253.5,99.5C 252.539,97.7354 252.205,95.7354 252.5,93.5C 253.287,91.8958 254.62,91.2291 256.5,91.5C 256.5,90.5 256.5,89.5 256.5,88.5C 248.637,86.0725 241.637,82.4059 235.5,77.5 Z"/></g>
<g><path style="opacity:1" fill="#c2d2e3" d="M 537.5,84.5 C 521.555,81.4914 505.555,80.8248 489.5,82.5C 483.331,83.0222 477.331,84.3555 471.5,86.5C 470.396,85.3687 470.729,84.5354 472.5,84C 488.509,79.6331 504.843,78.2997 521.5,80C 528.059,80.3701 534.393,81.7034 540.5,84C 539.552,84.4828 538.552,84.6495 537.5,84.5 Z"/></g>
<g><path style="opacity:1" fill="#718db6" d="M 457.5,81.5 C 455.044,83.4119 452.378,85.2452 449.5,87C 448.207,87.49 446.873,87.6567 445.5,87.5C 448.911,84.569 452.911,82.569 457.5,81.5 Z"/></g>
<g><path style="opacity:1" fill="#a4b6d2" d="M 563.5,83.5 C 565.544,84.5082 567.544,85.5082 569.5,86.5C 566.687,86.9754 564.687,85.9754 563.5,83.5 Z"/></g>
<g><path style="opacity:1" fill="#728aaf" d="M 445.5,87.5 C 444.167,89.1667 444.167,90.8333 445.5,92.5C 443.748,92.5824 442.748,91.7491 442.5,90C 442.748,88.2509 443.748,87.4176 445.5,87.5 Z"/></g>
<g><path style="opacity:1" fill="#134789" d="M 537.5,84.5 C 538.718,85.1614 540.051,85.8281 541.5,86.5C 539.096,87.35 536.763,88.35 534.5,89.5C 537.403,90.9044 540.07,90.571 542.5,88.5C 543.386,89.325 543.719,90.325 543.5,91.5C 541.304,91.5652 539.304,92.2319 537.5,93.5C 539.135,94.6808 540.802,94.6808 542.5,93.5C 543.386,94.325 543.719,95.325 543.5,96.5C 544.5,96.5 545.5,96.5 546.5,96.5C 546.425,93.7938 546.092,91.1272 545.5,88.5C 550.209,89.5484 552.875,92.5484 553.5,97.5C 550.452,98.8938 547.285,100.227 544,101.5C 543.503,104.146 543.336,106.813 543.5,109.5C 543.5,110.167 543.5,110.833 543.5,111.5C 540.432,111.547 537.432,112.047 534.5,113C 532.881,113.236 531.881,114.069 531.5,115.5C 524.979,115.019 518.979,116.352 513.5,119.5C 512.833,119.5 512.167,119.5 511.5,119.5C 504.49,119.332 497.49,118.999 490.5,118.5C 484.12,116.831 477.787,115.497 471.5,114.5C 472.871,113.213 474.705,112.547 477,112.5C 480.196,112.913 483.362,113.08 486.5,113C 482.703,111.576 478.703,111.076 474.5,111.5C 474.649,110.448 474.483,109.448 474,108.5C 473.667,108.833 473.333,109.167 473,109.5C 470.655,104.405 471.488,99.9046 475.5,96C 475.167,95.6667 474.833,95.3333 474.5,95C 475.833,94.6667 477.167,94.3333 478.5,94C 475.177,93.5752 471.844,92.9086 468.5,92C 471.168,91.433 473.834,90.933 476.5,90.5C 476.64,88.8762 475.973,87.7096 474.5,87C 480.46,86.6304 486.46,85.9637 492.5,85C 491.429,84.1482 490.429,83.3149 489.5,82.5C 505.555,80.8248 521.555,81.4914 537.5,84.5 Z"/></g>
<g><path style="opacity:1" fill="#6680a2" d="M 127.5,88.5 C 129.059,90.6243 131.059,92.291 133.5,93.5C 131.345,93.628 129.345,93.128 127.5,92C 126.209,90.7083 126.209,89.5417 127.5,88.5 Z"/></g>
<g><path style="opacity:1" fill="#154789" d="M 322.5,69.5 C 324.861,69.6741 327.194,70.0074 329.5,70.5C 329.5,71.5 329.5,72.5 329.5,73.5C 331.262,73.6427 332.929,73.3094 334.5,72.5C 337.467,74.0044 340.467,74.3378 343.5,73.5C 342.5,72.6667 341.5,71.8333 340.5,71C 343.951,70.5269 347.285,71.0269 350.5,72.5C 351.386,73.325 351.719,74.325 351.5,75.5C 349.654,75.2222 348.32,75.8888 347.5,77.5C 349.599,79.5202 351.933,79.8535 354.5,78.5C 351.745,76.0042 352.412,75.0042 356.5,75.5C 361.429,77.9583 366.763,79.2917 372.5,79.5C 378.586,81.3741 384.586,83.5407 390.5,86C 393.513,86.5022 396.513,87.0022 399.5,87.5C 399.942,91.3843 398.275,93.3843 394.5,93.5C 390.353,94.759 386.686,96.759 383.5,99.5C 380.207,101.096 376.874,102.762 373.5,104.5C 373.167,105.833 372.833,107.167 372.5,108.5C 372.585,110.333 373.252,111.666 374.5,112.5C 374.5,113.167 374.5,113.833 374.5,114.5C 363.588,118.744 352.255,122.91 340.5,127C 327.171,127.5 313.837,127.667 300.5,127.5C 300.737,126.209 300.404,125.209 299.5,124.5C 300.077,114.549 295.41,110.216 285.5,111.5C 285.5,111.167 285.5,110.833 285.5,110.5C 284.793,108.866 283.627,107.532 282,106.5C 281.517,105.552 281.351,104.552 281.5,103.5C 282.5,103.5 283.5,103.5 284.5,103.5C 284.5,102.5 284.5,101.5 284.5,100.5C 279.773,102.445 278.773,101.445 281.5,97.5C 284.204,96.368 286.871,95.0347 289.5,93.5C 290.167,93.8333 290.833,94.1667 291.5,94.5C 289.711,95.623 289.378,96.9564 290.5,98.5C 292.305,97.528 293.972,96.3613 295.5,95C 293.203,93.7367 292.37,91.9034 293,89.5C 295.311,87.8899 297.811,86.5565 300.5,85.5C 301.086,85.7093 301.586,86.0426 302,86.5C 303.269,85.0953 303.769,83.4286 303.5,81.5C 309.647,77.2568 315.98,73.2568 322.5,69.5 Z"/></g>
<g><path style="opacity:1" fill="#c6d6ec" d="M 339.5,85.5 C 348.933,85.0598 358.266,85.7265 367.5,87.5C 343.295,85.9396 319.961,89.4396 297.5,98C 300.952,94.9405 304.952,92.9405 309.5,92C 319.5,89.162 329.5,86.9954 339.5,85.5 Z"/></g>
<g><path style="opacity:1" fill="#154789" d="M 193.5,57.5 C 207.744,64.1814 221.744,70.848 235.5,77.5C 241.637,82.4059 248.637,86.0725 256.5,88.5C 256.5,89.5 256.5,90.5 256.5,91.5C 254.62,91.2291 253.287,91.8958 252.5,93.5C 251.209,93.2627 250.209,93.596 249.5,94.5C 243.825,96.2745 238.159,97.9411 232.5,99.5C 231.504,99.4142 230.671,99.7476 230,100.5C 229.188,104.689 229.355,108.689 230.5,112.5C 230.5,112.833 230.5,113.167 230.5,113.5C 227.034,115.092 223.367,115.758 219.5,115.5C 216.65,115.636 213.817,115.969 211,116.5C 209.833,116.167 208.667,115.833 207.5,115.5C 209.5,114.833 211.5,114.167 213.5,113.5C 212.333,113.167 211.167,112.833 210,112.5C 207,113.167 204,113.833 201,114.5C 199.033,114.458 197.199,113.958 195.5,113C 196.696,112.346 196.696,111.846 195.5,111.5C 194.281,112.646 192.948,113.646 191.5,114.5C 194.373,115.815 197.373,116.815 200.5,117.5C 198.709,118.764 196.709,119.431 194.5,119.5C 190.851,118.67 187.185,118.004 183.5,117.5C 176.537,116.19 169.537,114.857 162.5,113.5C 159.956,112.721 157.622,111.721 155.5,110.5C 155.817,107.428 155.484,104.428 154.5,101.5C 147.282,99.2082 140.282,96.5415 133.5,93.5C 131.059,92.291 129.059,90.6243 127.5,88.5C 134.179,83.8249 141.512,80.4916 149.5,78.5C 153.617,76.7382 157.783,75.0716 162,73.5C 163.326,73.7549 164.326,74.4216 165,75.5C 164.951,69.4706 167.284,68.1373 172,71.5C 173.067,70.8095 174.234,70.3095 175.5,70C 174.376,69.7508 173.376,69.2508 172.5,68.5C 173,68.1667 173.5,67.8333 174,67.5C 178.76,69.7453 181.593,68.412 182.5,63.5C 184.559,61.4055 186.893,59.5722 189.5,58C 190.793,57.51 192.127,57.3433 193.5,57.5 Z"/></g>
<g><path style="opacity:1" fill="#b1c2dd" d="M 181.5,79.5 C 188.167,80.1667 194.833,80.8333 201.5,81.5C 187.39,80.5714 173.557,81.9047 160,85.5C 158.743,85.1501 158.409,84.4835 159,83.5C 166.261,80.9782 173.761,79.6448 181.5,79.5 Z"/></g>
<g><path style="opacity:1" fill="#d2dfee" d="M 181.5,79.5 C 197.984,78.078 213.984,80.078 229.5,85.5C 226.491,86.0225 223.491,85.5225 220.5,84C 214.165,83.0989 207.832,82.2656 201.5,81.5C 194.833,80.8333 188.167,80.1667 181.5,79.5 Z"/></g>
<g><path style="opacity:1" fill="#2f568e" d="M 303.5,81.5 C 303.769,83.4286 303.269,85.0953 302,86.5C 301.586,86.0426 301.086,85.7093 300.5,85.5C 297.811,86.5565 295.311,87.8899 293,89.5C 292.37,91.9034 293.203,93.7367 295.5,95C 293.972,96.3613 292.305,97.528 290.5,98.5C 289.378,96.9564 289.711,95.623 291.5,94.5C 290.833,94.1667 290.167,93.8333 289.5,93.5C 286.871,95.0347 284.204,96.368 281.5,97.5C 285.784,94.4322 289.784,90.9322 293.5,87C 297.229,85.7451 300.562,83.9118 303.5,81.5 Z"/></g>
<g><path style="opacity:1" fill="#c2d4e7" d="M 394.5,93.5 C 391.682,96.9996 388.015,98.9996 383.5,99.5C 386.686,96.759 390.353,94.759 394.5,93.5 Z"/></g>
<g><path style="opacity:1" fill="#c2d0e1" d="M 559.5,95.5 C 558.028,97.1343 556.362,98.6343 554.5,100C 545.463,99.8975 543.129,103.731 547.5,111.5C 545.938,111.267 544.605,110.6 543.5,109.5C 543.336,106.813 543.503,104.146 544,101.5C 547.285,100.227 550.452,98.8938 553.5,97.5C 555.315,96.3702 557.315,95.7036 559.5,95.5 Z"/></g>
<g><path style="opacity:1" fill="#6785ab" d="M 232.5,99.5 C 230.642,103.527 229.975,107.86 230.5,112.5C 229.355,108.689 229.188,104.689 230,100.5C 230.671,99.7476 231.504,99.4142 232.5,99.5 Z"/></g>
<g><path style="opacity:1" fill="#98acc2" d="M 270.5,104.5 C 270.414,105.496 270.748,106.329 271.5,107C 273.058,107.21 274.391,107.71 275.5,108.5C 273.801,108.66 272.134,108.494 270.5,108C 269.209,106.708 269.209,105.542 270.5,104.5 Z"/></g>
<g><path style="opacity:1" fill="#294d85" d="M 281.5,97.5 C 278.773,101.445 279.773,102.445 284.5,100.5C 284.5,101.5 284.5,102.5 284.5,103.5C 283.5,103.5 282.5,103.5 281.5,103.5C 281.351,104.552 281.517,105.552 282,106.5C 283.627,107.532 284.793,108.866 285.5,110.5C 284.167,110.5 282.833,110.5 281.5,110.5C 281.071,107.637 280.071,104.971 278.5,102.5C 277.534,104.396 277.201,106.396 277.5,108.5C 276.833,108.5 276.167,108.5 275.5,108.5C 274.391,107.71 273.058,107.21 271.5,107C 270.748,106.329 270.414,105.496 270.5,104.5C 273.917,101.745 277.583,99.412 281.5,97.5 Z"/></g>
<g><path style="opacity:1" fill="#c5d6ea" d="M 383.5,99.5 C 381.103,102.055 378.27,104.055 375,105.5C 374.503,107.81 374.337,110.143 374.5,112.5C 373.252,111.666 372.585,110.333 372.5,108.5C 372.833,107.167 373.167,105.833 373.5,104.5C 376.874,102.762 380.207,101.096 383.5,99.5 Z"/></g>
<g><path style="opacity:1" fill="#505359" d="M 252.5,93.5 C 252.205,95.7354 252.539,97.7354 253.5,99.5C 253.483,108.849 253.817,118.182 254.5,127.5C 253.5,127.5 252.5,127.5 251.5,127.5C 251.167,127.5 250.833,127.5 250.5,127.5C 249.751,116.516 249.417,105.516 249.5,94.5C 250.209,93.596 251.209,93.2627 252.5,93.5 Z"/></g>
<g><path style="opacity:1" fill="#abb8c8" d="M 281.5,110.5 C 282.833,110.5 284.167,110.5 285.5,110.5C 285.5,110.833 285.5,111.167 285.5,111.5C 284.5,111.5 283.5,111.5 282.5,111.5C 282.5,112.833 282.5,114.167 282.5,115.5C 281.549,114.081 281.216,112.415 281.5,110.5 Z"/></g>
<g><path style="opacity:1" fill="#494d55" d="M 447.5,93.5 C 448.391,94.1098 449.391,94.4431 450.5,94.5C 450.911,105.682 450.245,116.682 448.5,127.5C 448.167,127.5 447.833,127.5 447.5,127.5C 447.167,127.5 446.833,127.5 446.5,127.5C 446.167,127.5 445.833,127.5 445.5,127.5C 446.564,116.192 447.231,104.859 447.5,93.5 Z"/></g>
<g><path style="opacity:1" fill="#1d3c62" d="M 543.5,111.5 C 539.589,112.818 535.589,114.151 531.5,115.5C 531.881,114.069 532.881,113.236 534.5,113C 537.432,112.047 540.432,111.547 543.5,111.5 Z"/></g>
<g><path style="opacity:1" fill="#272b2f" d="M 155.5,110.5 C 157.622,111.721 159.956,112.721 162.5,113.5C 169.537,114.857 176.537,116.19 183.5,117.5C 184.5,118.167 185.5,118.833 186.5,119.5C 186.864,124.659 184.53,126.492 179.5,125C 177.1,121.416 175.434,121.749 174.5,126C 172.196,126.895 169.862,127.729 167.5,128.5C 166.833,130.167 166.167,131.833 165.5,133.5C 164.675,134.386 163.675,134.719 162.5,134.5C 161.987,139.869 161.154,145.202 160,150.5C 157.867,151.418 155.7,151.584 153.5,151C 152.033,153.378 151.033,155.878 150.5,158.5C 149.686,156.369 149.186,154.036 149,151.5C 147.108,150.87 145.441,149.87 144,148.5C 143.933,142.959 143.1,137.625 141.5,132.5C 142.052,129.953 143.386,127.953 145.5,126.5C 146.48,123.914 146.813,121.247 146.5,118.5C 148.5,117.167 150.167,115.5 151.5,113.5C 152.262,111.738 153.596,110.738 155.5,110.5 Z"/></g>
<g><path style="opacity:1" fill="#19447b" d="M 219.5,115.5 C 213.129,117.009 206.796,118.676 200.5,120.5C 199.833,120.5 199.167,120.5 198.5,120.5C 195.5,120.5 192.5,120.5 189.5,120.5C 188.609,119.89 187.609,119.557 186.5,119.5C 185.5,118.833 184.5,118.167 183.5,117.5C 187.185,118.004 190.851,118.67 194.5,119.5C 196.709,119.431 198.709,118.764 200.5,117.5C 197.373,116.815 194.373,115.815 191.5,114.5C 192.948,113.646 194.281,112.646 195.5,111.5C 196.696,111.846 196.696,112.346 195.5,113C 197.199,113.958 199.033,114.458 201,114.5C 204,113.833 207,113.167 210,112.5C 211.167,112.833 212.333,113.167 213.5,113.5C 211.5,114.167 209.5,114.833 207.5,115.5C 208.667,115.833 209.833,116.167 211,116.5C 213.817,115.969 216.65,115.636 219.5,115.5 Z"/></g>
<g><path style="opacity:1" fill="#323743" d="M 281.5,110.5 C 281.216,112.415 281.549,114.081 282.5,115.5C 282.5,118.167 282.5,120.833 282.5,123.5C 282.821,128.695 282.487,133.695 281.5,138.5C 281.672,137.508 281.338,136.842 280.5,136.5C 279.814,129.653 278.814,122.986 277.5,116.5C 277.5,113.833 277.5,111.167 277.5,108.5C 277.201,106.396 277.534,104.396 278.5,102.5C 280.071,104.971 281.071,107.637 281.5,110.5 Z"/></g>
<g><path style="opacity:1" fill="#6f7f91" d="M 469.5,106.5 C 470.468,108.607 470.802,110.941 470.5,113.5C 469.167,114.5 467.833,115.5 466.5,116.5C 466.685,114.804 467.519,113.471 469,112.5C 469.495,110.527 469.662,108.527 469.5,106.5 Z"/></g>
<g><path style="opacity:1" fill="#77787b" d="M 151.5,113.5 C 150.167,115.5 148.5,117.167 146.5,118.5C 147.167,115.833 148.833,114.167 151.5,113.5 Z"/></g>
<g><path style="opacity:1" fill="#24282d" d="M 543.5,109.5 C 544.605,110.6 545.938,111.267 547.5,111.5C 548.5,112.833 549.5,114.167 550.5,115.5C 552.046,117.882 552.713,120.549 552.5,123.5C 552.229,125.38 552.896,126.713 554.5,127.5C 556.046,129.882 556.713,132.549 556.5,135.5C 555.728,139.75 555.228,144.083 555,148.5C 554.617,149.056 554.117,149.389 553.5,149.5C 552.504,149.414 551.671,149.748 551,150.5C 550.505,152.473 550.338,154.473 550.5,156.5C 550.5,156.833 550.5,157.167 550.5,157.5C 549.883,157.611 549.383,157.944 549,158.5C 548.944,151.586 545.777,149.253 539.5,151.5C 538.833,145.5 538.167,139.5 537.5,133.5C 534.331,133.338 532.331,131.672 531.5,128.5C 527.438,128.107 524.438,126.107 522.5,122.5C 517.442,127.157 514.442,126.157 513.5,119.5C 518.979,116.352 524.979,115.019 531.5,115.5C 535.589,114.151 539.589,112.818 543.5,111.5C 543.5,110.833 543.5,110.167 543.5,109.5 Z"/></g>
<g><path style="opacity:1" fill="#25292d" d="M 230.5,113.5 C 233.425,118.431 236.258,123.431 239,128.5C 238.522,133.73 240.356,137.73 244.5,140.5C 244.987,141.446 245.32,142.446 245.5,143.5C 242.779,147.516 240.779,151.85 239.5,156.5C 236.633,156.369 234.967,157.703 234.5,160.5C 233.683,158.031 233.183,155.365 233,152.5C 230.619,151.565 228.119,151.232 225.5,151.5C 223.223,150.138 222.89,148.305 224.5,146C 222.688,144.188 220.855,142.355 219,140.5C 218.505,138.527 218.338,136.527 218.5,134.5C 215.43,133.757 213.764,131.757 213.5,128.5C 210.298,128.463 208.632,126.797 208.5,123.5C 208.631,122.624 208.298,121.957 207.5,121.5C 205.591,122.348 203.591,122.682 201.5,122.5C 201.167,121.833 200.833,121.167 200.5,120.5C 206.796,118.676 213.129,117.009 219.5,115.5C 223.367,115.758 227.034,115.092 230.5,113.5 Z"/></g>
<g><path style="opacity:1" fill="#28344d" d="M 490.5,118.5 C 497.49,118.999 504.49,119.332 511.5,119.5C 507.731,122.907 503.731,123.241 499.5,120.5C 496.273,120.324 493.273,119.657 490.5,118.5 Z"/></g>
<g><path style="opacity:1" fill="#25292d" d="M 470.5,113.5 C 470.5,114.167 470.833,114.5 471.5,114.5C 477.787,115.497 484.12,116.831 490.5,118.5C 493.273,119.657 496.273,120.324 499.5,120.5C 497.749,123.195 495.416,123.861 492.5,122.5C 489.735,126.18 487.068,129.847 484.5,133.5C 483.167,133.5 481.833,133.5 480.5,133.5C 480.5,135.5 480.5,137.5 480.5,139.5C 480.267,141.062 479.6,142.395 478.5,143.5C 477.504,143.414 476.671,143.748 476,144.5C 475.503,146.81 475.337,149.143 475.5,151.5C 472.552,151.223 469.719,151.556 467,152.5C 466.502,155.482 466.335,158.482 466.5,161.5C 464.693,158.714 462.193,156.714 459,155.5C 458.589,151.77 457.256,148.436 455,145.5C 453.879,140.79 455.712,138.123 460.5,137.5C 460.335,134.482 460.502,131.482 461,128.5C 463.159,124.551 464.992,120.551 466.5,116.5C 467.833,115.5 469.167,114.5 470.5,113.5 Z"/></g>
<g><path style="opacity:1" fill="#727376" d="M 550.5,115.5 C 553.517,117.615 554.184,120.282 552.5,123.5C 552.713,120.549 552.046,117.882 550.5,115.5 Z"/></g>
<g><path style="opacity:1" fill="#896f70" d="M 208.5,123.5 C 205.941,123.802 203.607,123.468 201.5,122.5C 203.591,122.682 205.591,122.348 207.5,121.5C 208.298,121.957 208.631,122.624 208.5,123.5 Z"/></g>
<g><path style="opacity:1" fill="#f4dad5" d="M 650.5,123.5 C 652.143,123.48 653.476,124.147 654.5,125.5C 655.478,125.023 656.311,124.357 657,123.5C 658.809,127.103 660.309,130.77 661.5,134.5C 659.847,134.34 658.514,133.674 657.5,132.5C 658.613,131.054 658.78,129.387 658,127.5C 657.329,126.748 656.496,126.414 655.5,126.5C 654.07,126.421 652.736,126.754 651.5,127.5C 650.571,126.311 650.238,124.978 650.5,123.5 Z"/></g>
<g><path style="opacity:1" fill="#f0aa9f" d="M 511.5,119.5 C 512.167,119.5 512.833,119.5 513.5,119.5C 514.442,126.157 517.442,127.157 522.5,122.5C 524.438,126.107 527.438,128.107 531.5,128.5C 532.331,131.672 534.331,133.338 537.5,133.5C 538.167,139.5 538.833,145.5 539.5,151.5C 545.777,149.253 548.944,151.586 549,158.5C 549.383,157.944 549.883,157.611 550.5,157.5C 550.179,159.048 549.179,159.715 547.5,159.5C 547.737,160.791 547.404,161.791 546.5,162.5C 546.5,159.167 546.5,155.833 546.5,152.5C 542.233,152.203 538.066,152.536 534,153.5C 532.267,151.398 530.267,151.065 528,152.5C 527.536,151.906 527.369,151.239 527.5,150.5C 524.976,149.188 522.309,148.688 519.5,149C 519.167,149.333 518.833,149.667 518.5,150C 520.256,150.202 521.922,150.702 523.5,151.5C 521.535,152.292 519.535,152.959 517.5,153.5C 517.331,152.603 516.998,151.603 516.5,150.5C 514.929,151.309 513.262,151.643 511.5,151.5C 511.5,152.5 511.5,153.5 511.5,154.5C 512.675,154.281 513.675,154.614 514.5,155.5C 513.635,156.583 512.635,156.749 511.5,156C 507.728,147.331 506.394,147.498 507.5,156.5C 508.5,156.5 509.5,156.5 510.5,156.5C 510.5,157.5 510.5,158.5 510.5,159.5C 511.675,159.281 512.675,159.614 513.5,160.5C 507.331,161.21 501.331,162.376 495.5,164C 500.833,164.667 506.167,164.667 511.5,164C 514.611,163.556 517.277,162.223 519.5,160C 517.744,159.798 516.078,159.298 514.5,158.5C 514.709,157.914 515.043,157.414 515.5,157C 520.795,155.392 526.129,155.225 531.5,156.5C 528.215,157.324 524.882,157.824 521.5,158C 521.167,158.333 520.833,158.667 520.5,159C 525.684,158.874 526.35,160.041 522.5,162.5C 521.914,162.291 521.414,161.957 521,161.5C 520.682,163.061 519.849,164.228 518.5,165C 519.448,165.483 520.448,165.649 521.5,165.5C 521.262,168.408 522.262,170.742 524.5,172.5C 521.665,171.662 518.665,171.662 515.5,172.5C 516.315,171.163 517.482,170.163 519,169.5C 519.483,168.552 519.649,167.552 519.5,166.5C 510.832,165.367 502.165,165.367 493.5,166.5C 495.447,169.784 498.114,172.118 501.5,173.5C 493.281,174.281 489.948,170.614 491.5,162.5C 496.426,161.331 501.426,160.331 506.5,159.5C 505.007,158.859 504.007,157.859 503.5,156.5C 504.675,156.719 505.675,156.386 506.5,155.5C 505.167,154.833 503.833,154.167 502.5,153.5C 505.867,150.791 506.867,147.457 505.5,143.5C 505.002,147.241 503.669,150.575 501.5,153.5C 501.685,154.584 502.018,155.584 502.5,156.5C 500.321,158.164 498.488,157.83 497,155.5C 494.53,157.487 491.697,157.987 488.5,157C 490.898,155.982 493.231,154.815 495.5,153.5C 494.271,152.719 492.938,152.219 491.5,152C 492.973,151.29 493.64,150.124 493.5,148.5C 491.833,148.5 490.167,148.5 488.5,148.5C 488.5,149.5 488.5,150.5 488.5,151.5C 484.807,152.056 482.14,150.722 480.5,147.5C 482.045,146.548 483.712,146.215 485.5,146.5C 483.645,144.767 481.312,143.767 478.5,143.5C 479.6,142.395 480.267,141.062 480.5,139.5C 481.451,138.081 481.784,136.415 481.5,134.5C 482.791,134.737 483.791,134.404 484.5,133.5C 487.068,129.847 489.735,126.18 492.5,122.5C 495.416,123.861 497.749,123.195 499.5,120.5C 503.731,123.241 507.731,122.907 511.5,119.5 Z"/></g>
<g><path style="opacity:1" fill="#1a2944" d="M 374.5,114.5 C 375.458,114.953 376.292,115.619 377,116.5C 377.585,118.661 378.418,120.661 379.5,122.5C 382.23,130.555 383.23,138.889 382.5,147.5C 382.167,148.167 381.833,148.833 381.5,149.5C 379.5,149.5 377.5,149.5 375.5,149.5C 375.81,146.287 375.477,143.287 374.5,140.5C 371.779,140.037 369.112,139.371 366.5,138.5C 363.593,136.941 360.926,134.941 358.5,132.5C 355.807,134.27 352.807,134.937 349.5,134.5C 345.891,133.026 342.557,131.026 339.5,128.5C 335.868,132.633 331.535,135.8 326.5,138C 324.432,138.687 322.432,138.52 320.5,137.5C 319.702,137.957 319.369,138.624 319.5,139.5C 317.833,140.5 316.5,141.833 315.5,143.5C 311.562,144.765 309.562,147.432 309.5,151.5C 309.357,153.262 309.691,154.929 310.5,156.5C 309.051,157.172 307.718,157.839 306.5,158.5C 305.167,159.167 303.833,159.833 302.5,160.5C 300.385,155.039 299.052,149.373 298.5,143.5C 298.5,138.167 298.5,132.833 298.5,127.5C 299.404,126.791 299.737,125.791 299.5,124.5C 300.404,125.209 300.737,126.209 300.5,127.5C 313.837,127.667 327.171,127.5 340.5,127C 352.255,122.91 363.588,118.744 374.5,114.5 Z"/></g>
<g><path style="opacity:1" fill="#f7ded3" d="M 653.5,128.5 C 658.532,129.535 658.365,130.869 653,132.5C 651.624,132.316 650.791,131.649 650.5,130.5C 651.5,129.833 652.5,129.167 653.5,128.5 Z"/></g>
<g><path style="opacity:1" fill="#a04c40" d="M 54.5,129.5 C 53.3126,131.901 51.9793,134.235 50.5,136.5C 48.4677,135.952 47.4677,134.619 47.5,132.5C 48.4728,130.708 47.8061,129.375 45.5,128.5C 45.5,127.833 45.8333,127.5 46.5,127.5C 47.801,125.134 49.6343,123.134 52,121.5C 55.5219,123.249 56.3552,125.915 54.5,129.5 Z"/></g>
<g><path style="opacity:1" fill="#f4b5a8" d="M 50.5,124.5 C 51.5,124.5 52.5,124.5 53.5,124.5C 53.4959,126.842 52.6625,128.842 51,130.5C 49.2041,128.598 49.0374,126.598 50.5,124.5 Z"/></g>
<g><path style="opacity:1" fill="#f7e2d9" d="M 45.5,128.5 C 47.8061,129.375 48.4728,130.708 47.5,132.5C 44.0504,133.244 42.3838,131.91 42.5,128.5C 43.5,128.5 44.5,128.5 45.5,128.5 Z"/></g>
<g><path style="opacity:1" fill="#aa554a" d="M 650.5,123.5 C 650.238,124.978 650.571,126.311 651.5,127.5C 652.736,126.754 654.07,126.421 655.5,126.5C 654.833,127.167 654.167,127.833 653.5,128.5C 652.5,129.167 651.5,129.833 650.5,130.5C 649.711,130.783 649.044,131.283 648.5,132C 649.791,133.292 649.791,134.458 648.5,135.5C 647.022,134.552 646.022,133.219 645.5,131.5C 645.672,130.508 645.338,129.842 644.5,129.5C 642.269,122.517 644.269,120.517 650.5,123.5 Z"/></g>
<g><path style="opacity:1" fill="#fbc2b6" d="M 646.5,124.5 C 647.693,124.97 648.36,125.97 648.5,127.5C 648.333,128.5 648.167,129.5 648,130.5C 646.681,128.75 646.181,126.75 646.5,124.5 Z"/></g>
<g><path style="opacity:1" fill="#b1b4bc" d="M 277.5,116.5 C 278.814,122.986 279.814,129.653 280.5,136.5C 279.883,136.389 279.383,136.056 279,135.5C 277.893,129.213 277.393,122.88 277.5,116.5 Z"/></g>
<g><path style="opacity:1" fill="#57595b" d="M 554.5,127.5 C 558.656,129.636 559.322,132.303 556.5,135.5C 556.713,132.549 556.046,129.882 554.5,127.5 Z"/></g>
<g><path style="opacity:1" fill="#97554b" d="M 655.5,126.5 C 656.496,126.414 657.329,126.748 658,127.5C 658.78,129.387 658.613,131.054 657.5,132.5C 655.805,133.011 654.139,133.678 652.5,134.5C 654.316,135.815 655.983,137.315 657.5,139C 656.423,139.47 655.423,139.303 654.5,138.5C 653.739,137.609 652.739,136.942 651.5,136.5C 651.094,139.939 650.094,142.939 648.5,145.5C 648.5,142.5 648.5,139.5 648.5,136.5C 648.5,136.167 648.5,135.833 648.5,135.5C 649.791,134.458 649.791,133.292 648.5,132C 649.044,131.283 649.711,130.783 650.5,130.5C 650.791,131.649 651.624,132.316 653,132.5C 658.365,130.869 658.532,129.535 653.5,128.5C 654.167,127.833 654.833,127.167 655.5,126.5 Z"/></g>
<g><path style="opacity:1" fill="#c5cfdc" d="M 379.5,122.5 C 381.117,124.121 382.284,126.121 383,128.5C 383.82,135.014 383.653,141.347 382.5,147.5C 383.23,138.889 382.23,130.555 379.5,122.5 Z"/></g>
<g><path style="opacity:1" fill="#656164" d="M 282.5,123.5 C 283.488,128.64 283.821,133.974 283.5,139.5C 282.377,140.757 281.711,140.424 281.5,138.5C 282.487,133.695 282.821,128.695 282.5,123.5 Z"/></g>
<g><path style="opacity:1" fill="#5d6577" d="M 298.5,127.5 C 298.5,132.833 298.5,138.167 298.5,143.5C 295.993,138.194 295.993,132.861 298.5,127.5 Z"/></g>
<g><path style="opacity:1" fill="#876567" d="M 484.5,133.5 C 483.791,134.404 482.791,134.737 481.5,134.5C 481.784,136.415 481.451,138.081 480.5,139.5C 480.5,137.5 480.5,135.5 480.5,133.5C 481.833,133.5 483.167,133.5 484.5,133.5 Z"/></g>
<g><path style="opacity:1" fill="#f2a696" d="M 645.5,131.5 C 646.022,133.219 647.022,134.552 648.5,135.5C 648.5,135.833 648.5,136.167 648.5,136.5C 647.686,138.631 647.186,140.964 647,143.5C 645.667,144.833 644.333,144.833 643,143.5C 641.578,140.97 641.245,138.303 642,135.5C 643.627,134.468 644.793,133.134 645.5,131.5 Z"/></g>
<g><path style="opacity:1" fill="#a0635b" d="M 46.5,127.5 C 45.8333,127.5 45.5,127.833 45.5,128.5C 44.5,128.5 43.5,128.5 42.5,128.5C 42.3838,131.91 44.0504,133.244 47.5,132.5C 47.4677,134.619 48.4677,135.952 50.5,136.5C 50.5,138.833 50.5,141.167 50.5,143.5C 50.6309,144.376 50.2975,145.043 49.5,145.5C 48.8333,142.5 48.1667,139.5 47.5,136.5C 46.4822,137.193 45.4822,137.859 44.5,138.5C 43.5768,139.303 42.5768,139.47 41.5,139C 43.2077,137.49 44.8744,135.99 46.5,134.5C 44.296,133.794 42.296,132.794 40.5,131.5C 39.9033,131.265 39.5699,130.765 39.5,130C 41.0176,126.605 43.351,125.771 46.5,127.5 Z"/></g>
<g><path style="opacity:1" fill="#f1ae9f" d="M 54.5,129.5 C 54.3505,130.552 54.5172,131.552 55,132.5C 58.0509,135.43 59.2176,139.097 58.5,143.5C 55.8033,144.63 53.1367,144.63 50.5,143.5C 50.5,141.167 50.5,138.833 50.5,136.5C 51.9793,134.235 53.3126,131.901 54.5,129.5 Z"/></g>
<g><path style="opacity:1" fill="#51423b" d="M 486.5,136.5 C 489.187,136.336 491.854,136.503 494.5,137C 494.957,137.414 495.291,137.914 495.5,138.5C 491.675,139.265 487.842,139.932 484,140.5C 483.5,140.167 483,139.833 482.5,139.5C 483.901,138.479 485.235,137.479 486.5,136.5 Z"/></g>
<g><path style="opacity:1" fill="#53413b" d="M 517.5,136.5 C 520.187,136.336 522.854,136.503 525.5,137C 528.592,137.934 528.925,139.1 526.5,140.5C 522.809,139.979 519.143,139.312 515.5,138.5C 516.243,137.818 516.909,137.151 517.5,136.5 Z"/></g>
<g><path style="opacity:1" fill="#c79994" d="M 366.5,138.5 C 365.566,139.568 365.232,140.901 365.5,142.5C 364.209,142.737 363.209,142.404 362.5,141.5C 363.376,141.631 364.043,141.298 364.5,140.5C 361.016,139.095 357.682,139.261 354.5,141C 355.793,141.49 357.127,141.657 358.5,141.5C 356.735,142.461 354.735,142.795 352.5,142.5C 352.5,141.167 352.5,139.833 352.5,138.5C 355.722,138.892 358.722,138.392 361.5,137C 357.335,136.295 353.335,135.461 349.5,134.5C 352.807,134.937 355.807,134.27 358.5,132.5C 360.926,134.941 363.593,136.941 366.5,138.5 Z"/></g>
<g><path style="opacity:1" fill="#f2b085" d="M 250.5,127.5 C 250.833,127.5 251.167,127.5 251.5,127.5C 249.505,138.212 248.172,148.879 247.5,159.5C 247.334,153.491 247.501,147.491 248,141.5C 249.232,136.923 250.065,132.256 250.5,127.5 Z"/></g>
<g><path style="opacity:1" fill="#edad83" d="M 280.5,136.5 C 281.338,136.842 281.672,137.508 281.5,138.5C 281.711,140.424 282.377,140.757 283.5,139.5C 285.341,141.849 286.674,144.515 287.5,147.5C 285.743,146.708 284.409,145.375 283.5,143.5C 282.808,144.025 282.308,144.692 282,145.5C 281.501,151.157 281.334,156.824 281.5,162.5C 281.167,162.5 280.833,162.5 280.5,162.5C 279.5,153.996 279.5,145.33 280.5,136.5 Z"/></g>
<g><path style="opacity:1" fill="#f2a56d" d="M 445.5,127.5 C 445.833,127.5 446.167,127.5 446.5,127.5C 444.556,134.45 442.89,141.45 441.5,148.5C 441.408,141.208 442.741,134.208 445.5,127.5 Z"/></g>
<g><path style="opacity:1" fill="#f9ded3" d="M 644.5,129.5 C 645.338,129.842 645.672,130.508 645.5,131.5C 644.793,133.134 643.627,134.468 642,135.5C 641.245,138.303 641.578,140.97 643,143.5C 644.333,144.833 645.667,144.833 647,143.5C 647.186,140.964 647.686,138.631 648.5,136.5C 648.5,139.5 648.5,142.5 648.5,145.5C 645.881,145.768 643.381,145.435 641,144.5C 640.333,141.167 640.333,137.833 641,134.5C 643.172,133.491 644.338,131.824 644.5,129.5 Z"/></g>
<g><path style="opacity:1" fill="#f4b5aa" d="M 32.5,136.5 C 29.4961,139.165 27.4961,142.498 26.5,146.5C 28.1333,153.064 28.7999,159.731 28.5,166.5C 26.7302,159.722 25.3968,152.722 24.5,145.5C 25.1878,140.806 27.8545,137.806 32.5,136.5 Z"/></g>
<g><path style="opacity:1" fill="#f0a372" d="M 255.5,133.5 C 256.222,133.918 256.722,134.584 257,135.5C 257.583,139.832 258.083,144.165 258.5,148.5C 256.604,143.936 255.604,138.936 255.5,133.5 Z"/></g>
<g><path style="opacity:1" fill="#d4a49b" d="M 319.5,139.5 C 322.008,141.237 325.008,142.07 328.5,142C 329.056,142.383 329.389,142.883 329.5,143.5C 326.15,143.335 322.817,143.502 319.5,144C 318.007,145.156 318.174,145.99 320,146.5C 323.026,145.128 326.193,144.462 329.5,144.5C 327.611,145.322 325.611,146.155 323.5,147C 324.365,148.359 325.365,149.526 326.5,150.5C 325.5,150.5 324.5,150.5 323.5,150.5C 322.393,148.031 320.393,147.031 317.5,147.5C 317.843,145.517 317.176,144.183 315.5,143.5C 316.5,141.833 317.833,140.5 319.5,139.5 Z"/></g>
<g><path style="opacity:1" fill="#5f453d" d="M 485.5,146.5 C 488.445,145.532 491.445,145.366 494.5,146C 496.904,146.508 497.571,147.675 496.5,149.5C 492.233,146.633 488.233,146.967 484.5,150.5C 484.167,150.167 483.833,149.833 483.5,149.5C 484.193,148.482 484.859,147.482 485.5,146.5 Z"/></g>
<g><path style="opacity:1" fill="#60483e" d="M 527.5,150.5 C 524.264,146.899 520.597,146.566 516.5,149.5C 515.406,148.132 515.74,146.965 517.5,146C 522.367,144.593 526.367,145.76 529.5,149.5C 529.043,150.298 528.376,150.631 527.5,150.5 Z"/></g>
<g><path style="opacity:1" fill="#f08a43" d="M 446.5,127.5 C 446.833,127.5 447.167,127.5 447.5,127.5C 449.248,138.398 450.915,149.398 452.5,160.5C 452.167,160.833 451.833,161.167 451.5,161.5C 450.611,158.721 449.444,156.055 448,153.5C 447.505,155.473 447.338,157.473 447.5,159.5C 447.5,161.167 447.5,162.833 447.5,164.5C 446.065,163.21 445.065,161.544 444.5,159.5C 443.988,161.851 442.988,163.851 441.5,165.5C 440.508,161.217 440.174,156.884 440.5,152.5C 440.232,150.901 440.566,149.568 441.5,148.5C 442.89,141.45 444.556,134.45 446.5,127.5 Z"/></g>
<g><path style="opacity:1" fill="#6f5257" d="M 374.5,140.5 C 375.477,143.287 375.81,146.287 375.5,149.5C 377.5,149.5 379.5,149.5 381.5,149.5C 381.5,149.833 381.5,150.167 381.5,150.5C 379.167,150.5 376.833,150.5 374.5,150.5C 374.5,147.167 374.5,143.833 374.5,140.5 Z"/></g>
<g><path style="opacity:1" fill="#764e42" d="M 503.5,156.5 C 503.167,156.5 502.833,156.5 502.5,156.5C 502.018,155.584 501.685,154.584 501.5,153.5C 503.669,150.575 505.002,147.241 505.5,143.5C 506.867,147.457 505.867,150.791 502.5,153.5C 503.833,154.167 505.167,154.833 506.5,155.5C 505.675,156.386 504.675,156.719 503.5,156.5 Z"/></g>
<g><path style="opacity:1" fill="#ef8b47" d="M 251.5,127.5 C 252.5,127.5 253.5,127.5 254.5,127.5C 254.833,129.5 255.167,131.5 255.5,133.5C 255.604,138.936 256.604,143.936 258.5,148.5C 259.434,149.568 259.768,150.901 259.5,152.5C 260.097,157.294 259.43,161.627 257.5,165.5C 257.11,162.161 256.61,158.827 256,155.5C 255.26,157.319 254.093,158.652 252.5,159.5C 252.662,157.473 252.495,155.473 252,153.5C 251.39,156.827 250.89,160.161 250.5,163.5C 249.041,163.567 247.708,163.234 246.5,162.5C 246.263,161.209 246.596,160.209 247.5,159.5C 248.172,148.879 249.505,138.212 251.5,127.5 Z"/></g>
<g><path style="opacity:1" fill="#efb895" d="M 287.5,149.5 C 289.915,152.34 291.248,155.673 291.5,159.5C 290.833,158.833 290.167,158.167 289.5,157.5C 288.25,154.994 287.584,152.327 287.5,149.5 Z"/></g>
<g><path style="opacity:1" fill="#a3a9a9" d="M 553.5,149.5 C 552.131,151.732 551.131,154.066 550.5,156.5C 550.338,154.473 550.505,152.473 551,150.5C 551.671,149.748 552.504,149.414 553.5,149.5 Z"/></g>
<g><path style="opacity:1" fill="#c98f86" d="M 225.5,152.5 C 225.5,152.167 225.5,151.833 225.5,151.5C 228.119,151.232 230.619,151.565 233,152.5C 233.183,155.365 233.683,158.031 234.5,160.5C 234.027,161.906 233.027,162.573 231.5,162.5C 231.5,159.167 231.5,155.833 231.5,152.5C 229.5,152.5 227.5,152.5 225.5,152.5 Z"/></g>
<g><path style="opacity:1" fill="#f08a44" d="M 287.5,147.5 C 287.5,148.167 287.5,148.833 287.5,149.5C 287.584,152.327 288.25,154.994 289.5,157.5C 287.463,161.111 287.13,164.778 288.5,168.5C 288.5,168.833 288.5,169.167 288.5,169.5C 288.795,171.735 288.461,173.735 287.5,175.5C 287.762,174.022 287.429,172.689 286.5,171.5C 285.52,174.086 285.187,176.753 285.5,179.5C 284.178,179.67 283.011,179.337 282,178.5C 281.501,173.177 281.334,167.844 281.5,162.5C 281.334,156.824 281.501,151.157 282,145.5C 282.308,144.692 282.808,144.025 283.5,143.5C 284.409,145.375 285.743,146.708 287.5,147.5 Z"/></g>
<g><path style="opacity:1" fill="#f6b5a6" d="M 349.5,134.5 C 353.335,135.461 357.335,136.295 361.5,137C 358.722,138.392 355.722,138.892 352.5,138.5C 352.5,139.833 352.5,141.167 352.5,142.5C 354.735,142.795 356.735,142.461 358.5,141.5C 359.833,141.5 361.167,141.5 362.5,141.5C 363.209,142.404 364.209,142.737 365.5,142.5C 365.232,140.901 365.566,139.568 366.5,138.5C 369.112,139.371 371.779,140.037 374.5,140.5C 374.5,143.833 374.5,147.167 374.5,150.5C 376.833,150.5 379.167,150.5 381.5,150.5C 381.5,150.833 381.5,151.167 381.5,151.5C 379.533,151.261 377.699,151.594 376,152.5C 375.685,155.372 375.185,158.205 374.5,161C 375.367,164.105 375.701,167.272 375.5,170.5C 378.144,168.661 380.81,166.661 383.5,164.5C 381.603,167.947 379.437,171.28 377,174.5C 375.989,175.337 374.822,175.67 373.5,175.5C 371.932,180.432 369.765,185.099 367,189.5C 366.503,193.524 366.669,197.524 367.5,201.5C 365.603,198.495 364.27,195.161 363.5,191.5C 362.866,193.567 361.866,195.4 360.5,197C 352.329,201.832 343.829,202.666 335,199.5C 334.306,203.554 334.473,207.554 335.5,211.5C 334.85,211.196 334.183,210.863 333.5,210.5C 332.672,206.204 332.172,201.871 332,197.5C 327.342,193.675 323.176,189.342 319.5,184.5C 311.449,182.449 306.449,177.449 304.5,169.5C 303.755,166.61 303.088,163.61 302.5,160.5C 303.833,159.833 305.167,159.167 306.5,158.5C 307.718,157.839 309.051,157.172 310.5,156.5C 309.691,154.929 309.357,153.262 309.5,151.5C 309.562,147.432 311.562,144.765 315.5,143.5C 317.176,144.183 317.843,145.517 317.5,147.5C 320.393,147.031 322.393,148.031 323.5,150.5C 323.051,152.977 323.717,154.977 325.5,156.5C 327.739,154.867 328.072,152.867 326.5,150.5C 325.365,149.526 324.365,148.359 323.5,147C 325.611,146.155 327.611,145.322 329.5,144.5C 329.5,144.167 329.5,143.833 329.5,143.5C 329.389,142.883 329.056,142.383 328.5,142C 325.008,142.07 322.008,141.237 319.5,139.5C 319.369,138.624 319.702,137.957 320.5,137.5C 322.432,138.52 324.432,138.687 326.5,138C 331.535,135.8 335.868,132.633 339.5,128.5C 342.557,131.026 345.891,133.026 349.5,134.5 Z"/></g>
<g><path style="opacity:1" fill="#6d4c48" d="M 340.5,148.5 C 342.159,152.191 341.492,155.525 338.5,158.5C 343.733,160.239 343.733,161.073 338.5,161C 337.941,160.275 337.608,159.442 337.5,158.5C 339.643,155.537 340.643,152.204 340.5,148.5 Z"/></g>
<g><path style="opacity:1" fill="#37383b" d="M 323.5,150.5 C 324.5,150.5 325.5,150.5 326.5,150.5C 328.072,152.867 327.739,154.867 325.5,156.5C 323.717,154.977 323.051,152.977 323.5,150.5 Z"/></g>
<g><path style="opacity:1" fill="#413a3e" d="M 358.5,146.5 C 359.5,146.5 360.5,146.5 361.5,146.5C 361.5,148.5 361.5,150.5 361.5,152.5C 357.843,151.853 356.843,149.853 358.5,146.5 Z"/></g>
<g><path style="opacity:1" fill="#3e2f32" d="M 329.5,143.5 C 329.5,143.833 329.5,144.167 329.5,144.5C 326.193,144.462 323.026,145.128 320,146.5C 318.174,145.99 318.007,145.156 319.5,144C 322.817,143.502 326.15,143.335 329.5,143.5 Z"/></g>
<g><path style="opacity:1" fill="#3a3238" d="M 362.5,141.5 C 361.167,141.5 359.833,141.5 358.5,141.5C 357.127,141.657 355.793,141.49 354.5,141C 357.682,139.261 361.016,139.095 364.5,140.5C 364.043,141.298 363.376,141.631 362.5,141.5 Z"/></g>
<g><path style="opacity:1" fill="#7a7e83" d="M 239.5,156.5 C 237.858,157.803 236.191,159.136 234.5,160.5C 234.967,157.703 236.633,156.369 239.5,156.5 Z"/></g>
<g><path style="opacity:1" fill="#775762" d="M 309.5,151.5 C 310.924,153.515 311.59,155.848 311.5,158.5C 309.833,158.5 308.167,158.5 306.5,158.5C 308.167,158.5 309.833,158.5 311.5,158.5C 311.59,155.848 310.924,153.515 309.5,151.5 Z"/></g>
<g><path style="opacity:1" fill="#eca36e" d="M 447.5,127.5 C 447.833,127.5 448.167,127.5 448.5,127.5C 451.668,138.838 453.168,150.505 453,162.5C 452.439,163.022 451.772,163.355 451,163.5C 449.229,162.653 448.063,161.32 447.5,159.5C 447.338,157.473 447.505,155.473 448,153.5C 449.444,156.055 450.611,158.721 451.5,161.5C 451.833,161.167 452.167,160.833 452.5,160.5C 450.915,149.398 449.248,138.398 447.5,127.5 Z"/></g>
<g><path style="opacity:1" fill="#f4a392" d="M 381.5,151.5 C 382.117,151.611 382.617,151.944 383,152.5C 383.499,156.486 383.666,160.486 383.5,164.5C 380.81,166.661 378.144,168.661 375.5,170.5C 375.701,167.272 375.367,164.105 374.5,161C 375.185,158.205 375.685,155.372 376,152.5C 377.699,151.594 379.533,151.261 381.5,151.5 Z"/></g>
<g><path style="opacity:1" fill="#f3a491" d="M 225.5,152.5 C 227.5,152.5 229.5,152.5 231.5,152.5C 231.5,155.833 231.5,159.167 231.5,162.5C 230.555,165.745 228.889,168.412 226.5,170.5C 224.472,167.439 223.472,163.939 223.5,160C 223.525,157.071 224.191,154.571 225.5,152.5 Z"/></g>
<g><path style="opacity:1" fill="#fbd8bc" d="M 259.5,152.5 C 260.487,157.305 260.821,162.305 260.5,167.5C 255.051,167.328 250.384,165.661 246.5,162.5C 247.708,163.234 249.041,163.567 250.5,163.5C 250.89,160.161 251.39,156.827 252,153.5C 252.495,155.473 252.662,157.473 252.5,159.5C 252.051,161.977 252.717,163.977 254.5,165.5C 255.251,164.624 255.751,163.624 256,162.5C 256.232,163.737 256.732,164.737 257.5,165.5C 259.43,161.627 260.097,157.294 259.5,152.5 Z"/></g>
<g><path style="opacity:1" fill="#f0a268" d="M 257.5,165.5 C 256.732,164.737 256.232,163.737 256,162.5C 255.751,163.624 255.251,164.624 254.5,165.5C 252.717,163.977 252.051,161.977 252.5,159.5C 254.093,158.652 255.26,157.319 256,155.5C 256.61,158.827 257.11,162.161 257.5,165.5 Z"/></g>
<g><path style="opacity:1" fill="#f1c09c" d="M 440.5,152.5 C 440.174,156.884 440.508,161.217 441.5,165.5C 442.988,163.851 443.988,161.851 444.5,159.5C 445.065,161.544 446.065,163.21 447.5,164.5C 445.095,165.768 442.428,166.435 439.5,166.5C 439.181,161.637 439.514,156.97 440.5,152.5 Z"/></g>
<g><path style="opacity:1" fill="#f6a290" d="M 474.5,170.5 C 472.937,169.055 471.604,167.389 470.5,165.5C 468.82,161.412 468.153,157.079 468.5,152.5C 470.833,152.5 473.167,152.5 475.5,152.5C 475.528,154.582 474.861,156.416 473.5,158C 475.245,161.948 476.578,166.114 477.5,170.5C 476.5,170.5 475.5,170.5 474.5,170.5 Z"/></g>
<g><path style="opacity:1" fill="#ed9758" d="M 289.5,157.5 C 290.167,158.167 290.833,158.833 291.5,159.5C 292.038,161.117 292.371,162.784 292.5,164.5C 292.5,165.167 292.167,165.5 291.5,165.5C 290.5,165.5 289.5,165.5 288.5,165.5C 288.5,166.5 288.5,167.5 288.5,168.5C 287.13,164.778 287.463,161.111 289.5,157.5 Z"/></g>
<g><path style="opacity:1" fill="#f4af81" d="M 292.5,164.5 C 293.342,166.823 294.342,169.157 295.5,171.5C 295.455,174.189 294.121,175.523 291.5,175.5C 291.5,172.167 291.5,168.833 291.5,165.5C 292.167,165.5 292.5,165.167 292.5,164.5 Z"/></g>
<g><path style="opacity:1" fill="#f2a492" d="M 657.5,132.5 C 658.514,133.674 659.847,134.34 661.5,134.5C 664.816,136.158 668.15,137.825 671.5,139.5C 673.318,140.824 674.318,142.657 674.5,145C 672.617,159.03 669.95,172.863 666.5,186.5C 665.596,188.638 664.929,190.971 664.5,193.5C 664.253,194.713 663.586,195.38 662.5,195.5C 655.349,189.424 647.682,184.091 639.5,179.5C 639.5,178.5 639.5,177.5 639.5,176.5C 643.524,177.038 647.524,177.705 651.5,178.5C 653.149,173.86 654.816,169.193 656.5,164.5C 654.183,161.683 651.683,159.016 649,156.5C 648.517,155.552 648.351,154.552 648.5,153.5C 650.199,153.66 651.866,153.494 653.5,153C 650.307,151.974 648.974,149.808 649.5,146.5C 651.5,146.5 653.5,146.5 655.5,146.5C 655.112,144.315 654.112,142.482 652.5,141C 653.056,139.989 653.722,139.156 654.5,138.5C 655.423,139.303 656.423,139.47 657.5,139C 655.983,137.315 654.316,135.815 652.5,134.5C 654.139,133.678 655.805,133.011 657.5,132.5 Z"/></g>
<g><path style="opacity:1" fill="#f2c2b9" d="M 469.5,165.5 C 469.833,165.5 470.167,165.5 470.5,165.5C 471.604,167.389 472.937,169.055 474.5,170.5C 476.598,172.669 479.098,174.335 482,175.5C 482.608,177.154 483.108,178.821 483.5,180.5C 482.053,179.378 481.053,177.878 480.5,176C 475.016,174.349 471.35,170.849 469.5,165.5 Z"/></g>
<g><path style="opacity:1" fill="#f4aaa0" d="M 478.5,143.5 C 481.312,143.767 483.645,144.767 485.5,146.5C 483.712,146.215 482.045,146.548 480.5,147.5C 482.14,150.722 484.807,152.056 488.5,151.5C 488.5,150.5 488.5,149.5 488.5,148.5C 490.167,148.5 491.833,148.5 493.5,148.5C 493.64,150.124 492.973,151.29 491.5,152C 492.938,152.219 494.271,152.719 495.5,153.5C 493.231,154.815 490.898,155.982 488.5,157C 491.697,157.987 494.53,157.487 497,155.5C 498.488,157.83 500.321,158.164 502.5,156.5C 502.833,156.5 503.167,156.5 503.5,156.5C 504.007,157.859 505.007,158.859 506.5,159.5C 501.426,160.331 496.426,161.331 491.5,162.5C 489.948,170.614 493.281,174.281 501.5,173.5C 506.23,173.717 510.897,173.383 515.5,172.5C 518.665,171.662 521.665,171.662 524.5,172.5C 522.262,170.742 521.262,168.408 521.5,165.5C 520.448,165.649 519.448,165.483 518.5,165C 519.849,164.228 520.682,163.061 521,161.5C 521.414,161.957 521.914,162.291 522.5,162.5C 526.35,160.041 525.684,158.874 520.5,159C 520.833,158.667 521.167,158.333 521.5,158C 524.882,157.824 528.215,157.324 531.5,156.5C 526.129,155.225 520.795,155.392 515.5,157C 515.043,157.414 514.709,157.914 514.5,158.5C 516.078,159.298 517.744,159.798 519.5,160C 517.277,162.223 514.611,163.556 511.5,164C 506.167,164.667 500.833,164.667 495.5,164C 501.331,162.376 507.331,161.21 513.5,160.5C 512.675,159.614 511.675,159.281 510.5,159.5C 510.5,158.5 510.5,157.5 510.5,156.5C 509.5,156.5 508.5,156.5 507.5,156.5C 506.394,147.498 507.728,147.331 511.5,156C 512.635,156.749 513.635,156.583 514.5,155.5C 513.675,154.614 512.675,154.281 511.5,154.5C 511.5,153.5 511.5,152.5 511.5,151.5C 513.262,151.643 514.929,151.309 516.5,150.5C 516.998,151.603 517.331,152.603 517.5,153.5C 519.535,152.959 521.535,152.292 523.5,151.5C 521.922,150.702 520.256,150.202 518.5,150C 518.833,149.667 519.167,149.333 519.5,149C 522.309,148.688 524.976,149.188 527.5,150.5C 527.369,151.239 527.536,151.906 528,152.5C 530.267,151.065 532.267,151.398 534,153.5C 538.066,152.536 542.233,152.203 546.5,152.5C 546.5,155.833 546.5,159.167 546.5,162.5C 544.554,168.302 540.888,172.636 535.5,175.5C 533.115,177.832 530.949,180.498 529,183.5C 525.56,185.109 523.393,187.776 522.5,191.5C 521.5,191.5 520.5,191.5 519.5,191.5C 519.5,192.5 519.5,193.5 519.5,194.5C 511.505,195.79 503.505,195.79 495.5,194.5C 495.5,193.5 495.5,192.5 495.5,191.5C 493.833,191.5 492.167,191.5 490.5,191.5C 490.044,198.195 489.378,204.862 488.5,211.5C 487.84,210.036 487.507,208.369 487.5,206.5C 489.231,200.629 489.731,194.629 489,188.5C 486.946,185.953 485.113,183.286 483.5,180.5C 483.108,178.821 482.608,177.154 482,175.5C 479.098,174.335 476.598,172.669 474.5,170.5C 475.5,170.5 476.5,170.5 477.5,170.5C 476.578,166.114 475.245,161.948 473.5,158C 474.861,156.416 475.528,154.582 475.5,152.5C 473.167,152.5 470.833,152.5 468.5,152.5C 468.153,157.079 468.82,161.412 470.5,165.5C 470.167,165.5 469.833,165.5 469.5,165.5C 468.122,164.455 467.122,163.122 466.5,161.5C 466.335,158.482 466.502,155.482 467,152.5C 469.719,151.556 472.552,151.223 475.5,151.5C 475.337,149.143 475.503,146.81 476,144.5C 476.671,143.748 477.504,143.414 478.5,143.5 Z"/></g>
<g><path style="opacity:1" fill="#fcece1" d="M 515.5,172.5 C 510.897,173.383 506.23,173.717 501.5,173.5C 498.114,172.118 495.447,169.784 493.5,166.5C 502.165,165.367 510.832,165.367 519.5,166.5C 519.649,167.552 519.483,168.552 519,169.5C 517.482,170.163 516.315,171.163 515.5,172.5 Z"/></g>
<g><path style="opacity:1" fill="#f3aba0" d="M 186.5,119.5 C 187.609,119.557 188.609,119.89 189.5,120.5C 190.946,121.94 192.779,122.607 195,122.5C 196.681,122.392 197.848,121.725 198.5,120.5C 199.167,120.5 199.833,120.5 200.5,120.5C 200.833,121.167 201.167,121.833 201.5,122.5C 203.607,123.468 205.941,123.802 208.5,123.5C 208.632,126.797 210.298,128.463 213.5,128.5C 213.764,131.757 215.43,133.757 218.5,134.5C 218.338,136.527 218.505,138.527 219,140.5C 220.855,142.355 222.688,144.188 224.5,146C 222.89,148.305 223.223,150.138 225.5,151.5C 225.5,151.833 225.5,152.167 225.5,152.5C 224.191,154.571 223.525,157.071 223.5,160C 223.472,163.939 224.472,167.439 226.5,170.5C 225.036,172.63 223.036,173.963 220.5,174.5C 217.872,179.737 214.705,184.737 211,189.5C 211.467,196.803 211.467,204.137 211,211.5C 209.223,213.79 207.056,215.457 204.5,216.5C 204.5,215.5 204.5,214.5 204.5,213.5C 207.05,213.439 208.55,212.106 209,209.5C 209.212,202.826 208.879,196.159 208,189.5C 207.5,191.333 206.333,192.5 204.5,193C 196.971,197.064 189.471,197.23 182,193.5C 179.568,194.069 177.401,195.069 175.5,196.5C 175.663,194.143 175.497,191.81 175,189.5C 170.952,185.12 167.285,180.454 164,175.5C 159.744,173.58 156.411,170.58 154,166.5C 153.684,163.359 152.517,160.692 150.5,158.5C 151.033,155.878 152.033,153.378 153.5,151C 155.7,151.584 157.867,151.418 160,150.5C 161.154,145.202 161.987,139.869 162.5,134.5C 163.675,134.719 164.675,134.386 165.5,133.5C 166.167,131.833 166.833,130.167 167.5,128.5C 169.862,127.729 172.196,126.895 174.5,126C 175.434,121.749 177.1,121.416 179.5,125C 184.53,126.492 186.864,124.659 186.5,119.5 Z"/></g>
<g><path style="opacity:1" fill="#fcebdf" d="M 183.5,165.5 C 191.167,165.5 198.833,165.5 206.5,165.5C 203.492,171.104 198.659,174.104 192,174.5C 190.5,174.333 189,174.167 187.5,174C 184.879,172.346 182.379,170.513 180,168.5C 179.833,168.167 179.667,167.833 179.5,167.5C 180.949,166.828 182.282,166.161 183.5,165.5 Z"/></g>
<g><path style="opacity:1" fill="#734c41" d="M 193.5,143.5 C 194.199,147.232 195.865,150.565 198.5,153.5C 197.812,156.427 196.145,157.094 193.5,155.5C 194.325,154.614 195.325,154.281 196.5,154.5C 196.716,152.319 195.883,150.653 194,149.5C 193.505,147.527 193.338,145.527 193.5,143.5 Z"/></g>
<g><path style="opacity:1" fill="#614336" d="M 173.5,145.5 C 176.187,145.336 178.854,145.503 181.5,146C 183.904,146.508 184.571,147.675 183.5,149.5C 178.981,146.714 174.648,147.047 170.5,150.5C 170.167,150.167 169.833,149.833 169.5,149.5C 171.188,148.479 172.521,147.145 173.5,145.5 Z"/></g>
<g><path style="opacity:1" fill="#5e4635" d="M 204.5,145.5 C 207.187,145.336 209.854,145.503 212.5,146C 215.188,146.782 216.188,148.282 215.5,150.5C 211.979,147.391 207.979,146.724 203.5,148.5C 203.167,148.167 202.833,147.833 202.5,147.5C 203.243,146.818 203.909,146.151 204.5,145.5 Z"/></g>
<g><path style="opacity:1" fill="#54403b" d="M 205.5,136.5 C 208.187,136.336 210.854,136.503 213.5,137C 216.592,137.934 216.925,139.1 214.5,140.5C 210.809,139.979 207.143,139.312 203.5,138.5C 204.243,137.818 204.909,137.151 205.5,136.5 Z"/></g>
<g><path style="opacity:1" fill="#57433a" d="M 173.5,136.5 C 176.187,136.336 178.854,136.503 181.5,137C 182.308,137.308 182.975,137.808 183.5,138.5C 179.857,139.312 176.191,139.979 172.5,140.5C 171.833,140.167 171.167,139.833 170.5,139.5C 171.34,138.265 172.34,137.265 173.5,136.5 Z"/></g>
<g><path style="opacity:1" fill="#2c282f" d="M 189.5,120.5 C 192.5,120.5 195.5,120.5 198.5,120.5C 197.848,121.725 196.681,122.392 195,122.5C 192.779,122.607 190.946,121.94 189.5,120.5 Z"/></g>
<g><path style="opacity:1" fill="#f4a291" d="M 304.5,169.5 C 305.167,166.167 305.833,162.833 306.5,159.5C 308.167,159.5 309.833,159.5 311.5,159.5C 312.699,166.629 314.366,173.629 316.5,180.5C 313.936,179.134 311.436,177.467 309,175.5C 308.505,173.527 308.338,171.527 308.5,169.5C 307.167,169.5 305.833,169.5 304.5,169.5 Z"/></g>
<g><path style="opacity:1" fill="#687d97" d="M 626.5,175.5 C 624.5,175.5 622.5,175.5 620.5,175.5C 620.47,174.503 620.97,173.836 622,173.5C 623.728,173.899 625.228,174.566 626.5,175.5 Z"/></g>
<g><path style="opacity:1" fill="#e1a77d" d="M 288.5,169.5 C 289.8,172.024 289.8,174.691 288.5,177.5C 287.702,177.043 287.369,176.376 287.5,175.5C 288.461,173.735 288.795,171.735 288.5,169.5 Z"/></g>
<g><path style="opacity:1" fill="#5f7ea8" d="M 70.5,175.5 C 68.9674,177.245 66.9674,178.245 64.5,178.5C 65.6874,176.025 67.6874,175.025 70.5,175.5 Z"/></g>
<g><path style="opacity:1" fill="#fbe7d6" d="M 291.5,165.5 C 291.5,168.833 291.5,172.167 291.5,175.5C 291.241,179.068 289.241,180.401 285.5,179.5C 285.187,176.753 285.52,174.086 286.5,171.5C 287.429,172.689 287.762,174.022 287.5,175.5C 287.369,176.376 287.702,177.043 288.5,177.5C 289.8,174.691 289.8,172.024 288.5,169.5C 288.5,169.167 288.5,168.833 288.5,168.5C 288.5,167.5 288.5,166.5 288.5,165.5C 289.5,165.5 290.5,165.5 291.5,165.5 Z"/></g>
<g><path style="opacity:1" fill="#fbdac4" d="M 280.5,162.5 C 280.833,162.5 281.167,162.5 281.5,162.5C 281.334,167.844 281.501,173.177 282,178.5C 283.011,179.337 284.178,179.67 285.5,179.5C 284.116,180.801 282.616,180.801 281,179.5C 280.501,173.843 280.334,168.176 280.5,162.5 Z"/></g>
<g><path style="opacity:1" fill="#f3a492" d="M 40.5,131.5 C 42.296,132.794 44.296,133.794 46.5,134.5C 44.8744,135.99 43.2077,137.49 41.5,139C 42.5768,139.47 43.5768,139.303 44.5,138.5C 45.968,139.779 46.6347,141.446 46.5,143.5C 44.1756,143.662 42.5089,144.828 41.5,147C 44.0977,146.578 46.7644,146.578 49.5,147C 50.8602,148.938 50.5268,150.604 48.5,152C 49.5742,152.739 50.2409,153.739 50.5,155C 48.018,158.313 45.018,161.147 41.5,163.5C 44.2927,168.217 46.2927,173.217 47.5,178.5C 51.7602,178.298 55.7602,177.298 59.5,175.5C 59.2627,176.791 59.596,177.791 60.5,178.5C 51.296,184.028 42.6293,190.362 34.5,197.5C 32.1317,187.265 30.1317,176.931 28.5,166.5C 28.7999,159.731 28.1333,153.064 26.5,146.5C 27.4961,142.498 29.4961,139.165 32.5,136.5C 35.595,135.298 38.2617,133.632 40.5,131.5 Z"/></g>
<g><path style="opacity:1" fill="#134789" d="M 92.5,206.5 C 92.3433,207.873 92.51,209.207 93,210.5C 94.9308,213.488 96.7642,216.488 98.5,219.5C 100.405,222.304 102.071,225.304 103.5,228.5C 104.083,231.947 105.416,234.947 107.5,237.5C 107.791,238.649 108.624,239.316 110,239.5C 111.699,239.613 112.866,238.947 113.5,237.5C 115.878,235.122 118.545,233.122 121.5,231.5C 125.651,229.56 129.818,227.56 134,225.5C 134.667,226.833 135.333,226.833 136,225.5C 136.333,227.167 136.667,228.833 137,230.5C 137.179,226.611 138.012,222.944 139.5,219.5C 141.315,218.37 143.315,217.704 145.5,217.5C 162.496,239.844 179.163,262.51 195.5,285.5C 208.437,261.941 222.104,238.941 236.5,216.5C 239.237,216.401 241.904,216.735 244.5,217.5C 244.833,217.5 245.167,217.5 245.5,217.5C 250.534,220.1 255.868,222.1 261.5,223.5C 262.514,224.674 263.847,225.34 265.5,225.5C 267.102,227.074 269.102,227.741 271.5,227.5C 274.248,230.648 277.248,230.981 280.5,228.5C 281.251,229.376 281.751,230.376 282,231.5C 283.459,229.568 284.625,227.568 285.5,225.5C 285.479,229.001 285.813,232.667 286.5,236.5C 288.552,235.389 289.886,233.723 290.5,231.5C 291.167,232.167 291.833,232.833 292.5,233.5C 292.5,234.167 292.5,234.833 292.5,235.5C 293.204,237.344 294.537,237.844 296.5,237C 297.109,235.052 297.776,233.218 298.5,231.5C 302.113,234.497 303.779,233.497 303.5,228.5C 304.712,229.23 305.712,230.23 306.5,231.5C 307.086,231.291 307.586,230.957 308,230.5C 309.053,225.909 309.886,221.242 310.5,216.5C 312.071,215.691 313.738,215.357 315.5,215.5C 328.752,235.934 342.252,256.267 356,276.5C 361.363,266.627 366.53,256.627 371.5,246.5C 372.167,250.167 372.833,253.833 373.5,257.5C 373.5,257.833 373.5,258.167 373.5,258.5C 373.328,259.492 373.662,260.158 374.5,260.5C 374.5,266.833 374.5,273.167 374.5,279.5C 371.854,284.105 370.187,289.105 369.5,294.5C 378.849,292.163 388.183,289.829 397.5,287.5C 399.104,286.713 399.771,285.38 399.5,283.5C 398.022,283.762 396.689,283.429 395.5,282.5C 396.246,281.264 396.579,279.93 396.5,278.5C 395.167,278.5 393.833,278.5 392.5,278.5C 392.5,277.5 392.5,276.5 392.5,275.5C 392.5,274.5 392.5,273.5 392.5,272.5C 393.207,269.214 393.54,265.881 393.5,262.5C 395.27,263.856 396.603,265.689 397.5,268C 398.483,268.591 399.15,268.257 399.5,267C 398.976,264.587 397.976,262.42 396.5,260.5C 398.85,258.317 401.017,255.984 403,253.5C 403.613,251.505 403.113,249.838 401.5,248.5C 399.734,246.68 398.401,244.514 397.5,242C 398.253,234.19 398.753,226.357 399,218.5C 399.716,216.121 400.883,214.121 402.5,212.5C 406.589,215.315 410.255,218.648 413.5,222.5C 414.877,224.289 415.877,226.289 416.5,228.5C 417.949,229.172 419.282,229.839 420.5,230.5C 424.883,231.592 428.55,230.258 431.5,226.5C 439.131,222.541 447.131,219.541 455.5,217.5C 458.096,216.735 460.763,216.401 463.5,216.5C 477.493,239.144 490.993,262.144 504,285.5C 519.667,263.833 535.333,242.167 551,220.5C 552.34,219.132 553.674,217.799 555,216.5C 556.459,216.808 557.626,217.475 558.5,218.5C 562.164,221.335 566.164,223.668 570.5,225.5C 574.14,228.131 577.807,230.797 581.5,233.5C 582.585,235.587 584.251,236.92 586.5,237.5C 586.833,238.5 587.5,239.167 588.5,239.5C 589.314,241.273 590.648,241.773 592.5,241C 592.617,238.57 593.284,236.07 594.5,233.5C 595.552,233.649 596.552,233.483 597.5,233C 596.62,231.644 596.286,230.144 596.5,228.5C 596.343,227.127 596.51,225.793 597,224.5C 602.725,211.89 608.891,199.557 615.5,187.5C 617.017,184.965 618.35,182.298 619.5,179.5C 619.232,177.901 619.566,176.568 620.5,175.5C 622.5,175.5 624.5,175.5 626.5,175.5C 630.875,176.918 635.208,178.251 639.5,179.5C 647.682,184.091 655.349,189.424 662.5,195.5C 663.5,197.167 664.833,198.5 666.5,199.5C 671.776,204.274 676.11,209.774 679.5,216C 674.801,226.568 669.468,236.734 663.5,246.5C 661.75,247.659 660.75,249.326 660.5,251.5C 657.34,255.148 654.673,259.148 652.5,263.5C 648.454,268.214 644.788,273.214 641.5,278.5C 637.434,281.563 634.101,285.229 631.5,289.5C 629.086,290.911 627.419,292.911 626.5,295.5C 621.369,300.13 616.369,304.963 611.5,310C 608.833,310.667 606.167,310.667 603.5,310C 590.306,307.295 577.139,304.461 564,301.5C 562.833,301.833 561.667,302.167 560.5,302.5C 561.127,303.417 561.461,304.417 561.5,305.5C 561.335,308.85 561.502,312.183 562,315.5C 563.009,320.993 564.175,326.326 565.5,331.5C 565.981,338.377 566.981,345.043 568.5,351.5C 569.376,363.547 570.709,375.547 572.5,387.5C 572.667,396.841 573,406.174 573.5,415.5C 522.5,415.5 471.5,415.5 420.5,415.5C 374.998,414.833 329.332,414.167 283.5,413.5C 282.473,405.534 282.473,397.534 283.5,389.5C 283.205,387.265 283.539,385.265 284.5,383.5C 285.768,381.095 286.435,378.428 286.5,375.5C 281.167,375.5 275.833,375.5 270.5,375.5C 270.194,378.385 270.527,381.052 271.5,383.5C 273.371,392.654 275.705,401.654 278.5,410.5C 278.5,412.167 278.5,413.833 278.5,415.5C 227.5,415.5 176.5,415.5 125.5,415.5C 125.713,405.748 126.38,396.082 127.5,386.5C 129.964,375.442 130.964,364.109 130.5,352.5C 131.775,346.914 132.775,341.247 133.5,335.5C 134.563,331.361 135.23,327.028 135.5,322.5C 136.22,315.457 137.22,308.457 138.5,301.5C 127.448,303.348 116.448,305.348 105.5,307.5C 102.772,307.171 100.438,307.837 98.5,309.5C 94.8694,310.412 91.2027,310.579 87.5,310C 59.1967,282.72 36.53,251.386 19.5,216C 23.9043,209.363 28.9043,203.196 34.5,197.5C 42.6293,190.362 51.296,184.028 60.5,178.5C 61.8333,178.5 63.1667,178.5 64.5,178.5C 66.9674,178.245 68.9674,177.245 70.5,175.5C 72.6792,174.941 74.8458,174.274 77,173.5C 77.772,173.645 78.4387,173.978 79,174.5C 82.964,184.092 87.2973,193.426 92,202.5C 92.49,203.793 92.6567,205.127 92.5,206.5 Z"/></g>
<g><path style="opacity:1" fill="#5773a1" d="M 619.5,179.5 C 618.35,182.298 617.017,184.965 615.5,187.5C 615.259,183.981 616.593,181.315 619.5,179.5 Z"/></g>
<g><path style="opacity:1" fill="#f0c2b9" d="M 535.5,175.5 C 532.748,180.644 529.248,185.31 525,189.5C 524.502,192.482 524.335,195.482 524.5,198.5C 523.388,196.401 522.721,194.067 522.5,191.5C 523.393,187.776 525.56,185.109 529,183.5C 530.949,180.498 533.115,177.832 535.5,175.5 Z"/></g>
<g><path style="opacity:1" fill="#fce6db" d="M 330.5,175.5 C 337.5,175.5 344.5,175.5 351.5,175.5C 351.5,177.5 351.5,179.5 351.5,181.5C 348.512,182.161 345.512,182.828 342.5,183.5C 336.838,183.148 332.838,180.481 330.5,175.5 Z"/></g>
<g><path style="opacity:1" fill="#e8c8c7" d="M 666.5,186.5 C 665.908,190.905 665.908,195.238 666.5,199.5C 664.833,198.5 663.5,197.167 662.5,195.5C 663.586,195.38 664.253,194.713 664.5,193.5C 664.929,190.971 665.596,188.638 666.5,186.5 Z"/></g>
<g><path style="opacity:1" fill="#f3a391" d="M 204.5,216.5 C 202,219.832 199,222.666 195.5,225C 193.212,225.418 191.212,224.751 189.5,223C 184.86,218.682 179.86,214.849 174.5,211.5C 174.167,210.333 173.833,209.167 173.5,208C 174.105,204.143 174.772,200.31 175.5,196.5C 177.401,195.069 179.568,194.069 182,193.5C 189.471,197.23 196.971,197.064 204.5,193C 206.333,192.5 207.5,191.333 208,189.5C 208.879,196.159 209.212,202.826 209,209.5C 208.55,212.106 207.05,213.439 204.5,213.5C 204.5,214.5 204.5,215.5 204.5,216.5 Z"/></g>
<g><path style="opacity:1" fill="#f3a393" d="M 367.5,201.5 C 367.665,204.85 367.498,208.183 367,211.5C 362.207,216.799 357.207,221.799 352,226.5C 345.646,222.306 340.146,217.306 335.5,211.5C 334.473,207.554 334.306,203.554 335,199.5C 343.829,202.666 352.329,201.832 360.5,197C 361.866,195.4 362.866,193.567 363.5,191.5C 364.27,195.161 365.603,198.495 367.5,201.5 Z"/></g>
<g><path style="opacity:1" fill="#f3a391" d="M 522.5,191.5 C 522.721,194.067 523.388,196.401 524.5,198.5C 525.494,202.449 525.994,206.449 526,210.5C 519.411,215.211 512.911,220.045 506.5,225C 505.5,225.667 504.5,225.667 503.5,225C 498.383,220.564 493.383,216.064 488.5,211.5C 489.378,204.862 490.044,198.195 490.5,191.5C 492.167,191.5 493.833,191.5 495.5,191.5C 495.5,192.5 495.5,193.5 495.5,194.5C 503.505,195.79 511.505,195.79 519.5,194.5C 519.5,193.5 519.5,192.5 519.5,191.5C 520.5,191.5 521.5,191.5 522.5,191.5 Z"/></g>
<g><path style="opacity:1" fill="#5876a4" d="M 92.5,206.5 C 93.4584,206.953 94.2917,207.619 95,208.5C 96.7594,212.009 97.926,215.675 98.5,219.5C 96.7642,216.488 94.9308,213.488 93,210.5C 92.51,209.207 92.3433,207.873 92.5,206.5 Z"/></g>
<g><path style="opacity:1" fill="#eba59c" d="M 315.5,215.5 C 313.738,215.357 312.071,215.691 310.5,216.5C 309.886,221.242 309.053,225.909 308,230.5C 307.586,230.957 307.086,231.291 306.5,231.5C 305.712,230.23 304.712,229.23 303.5,228.5C 304.036,223.808 304.702,219.142 305.5,214.5C 303.995,211.869 303.329,212.203 303.5,215.5C 300.482,215.704 297.482,216.037 294.5,216.5C 296.48,214.549 298.813,213.049 301.5,212C 306.554,211.219 311.554,211.386 316.5,212.5C 317.798,214.052 317.465,215.052 315.5,215.5 Z"/></g>
<g><path style="opacity:1" fill="#91a9cb" d="M 463.5,216.5 C 460.763,216.401 458.096,216.735 455.5,217.5C 456.492,215.974 457.992,215.307 460,215.5C 461.385,215.514 462.551,215.848 463.5,216.5 Z"/></g>
<g><path style="opacity:1" fill="#96b0d1" d="M 236.5,216.5 C 237.449,215.848 238.615,215.514 240,215.5C 242.008,215.307 243.508,215.974 244.5,217.5C 241.904,216.735 239.237,216.401 236.5,216.5 Z"/></g>
<g><path style="opacity:1" fill="#849fc3" d="M 145.5,217.5 C 143.315,217.704 141.315,218.37 139.5,219.5C 140.92,216.651 142.92,215.984 145.5,217.5 Z"/></g>
<g><path style="opacity:1" fill="#cfdcea" d="M 245.5,217.5 C 250.04,218.82 254.706,219.653 259.5,220C 260.823,220.816 261.489,221.983 261.5,223.5C 255.868,222.1 250.534,220.1 245.5,217.5 Z"/></g>
<g><path style="opacity:1" fill="#d4e1ee" d="M 558.5,218.5 C 564.356,217.758 568.356,220.092 570.5,225.5C 566.164,223.668 562.164,221.335 558.5,218.5 Z"/></g>
<g><path style="opacity:1" fill="#385b91" d="M 139.5,219.5 C 138.012,222.944 137.179,226.611 137,230.5C 136.667,228.833 136.333,227.167 136,225.5C 135.333,226.833 134.667,226.833 134,225.5C 129.818,227.56 125.651,229.56 121.5,231.5C 126.449,226.018 132.449,222.018 139.5,219.5 Z"/></g>
<g><path style="opacity:1" fill="#e8a59b" d="M 294.5,216.5 C 294.227,218.928 293.561,221.595 292.5,224.5C 293.154,226.115 293.654,227.782 294,229.5C 294.671,230.252 295.504,230.586 296.5,230.5C 296.66,232.199 296.494,233.866 296,235.5C 294.855,236.684 293.688,236.684 292.5,235.5C 292.5,234.833 292.5,234.167 292.5,233.5C 292.662,231.473 292.495,229.473 292,227.5C 291.209,228.745 290.709,230.078 290.5,231.5C 289.886,233.723 288.552,235.389 286.5,236.5C 285.813,232.667 285.479,229.001 285.5,225.5C 287.487,221.513 290.487,218.513 294.5,216.5 Z"/></g>
<g><path style="opacity:1" fill="#a8bcd7" d="M 265.5,225.5 C 267.898,225.259 269.898,225.926 271.5,227.5C 269.102,227.741 267.102,227.074 265.5,225.5 Z"/></g>
<g><path style="opacity:1" fill="#f2a192" d="M 303.5,228.5 C 303.779,233.497 302.113,234.497 298.5,231.5C 298.66,226.921 297.993,226.588 296.5,230.5C 295.504,230.586 294.671,230.252 294,229.5C 293.654,227.782 293.154,226.115 292.5,224.5C 293.561,221.595 294.227,218.928 294.5,216.5C 297.482,216.037 300.482,215.704 303.5,215.5C 303.329,212.203 303.995,211.869 305.5,214.5C 304.702,219.142 304.036,223.808 303.5,228.5 Z"/></g>
<g><path style="opacity:1" fill="#8f6578" d="M 292.5,233.5 C 291.833,232.833 291.167,232.167 290.5,231.5C 290.709,230.078 291.209,228.745 292,227.5C 292.495,229.473 292.662,231.473 292.5,233.5 Z"/></g>
<g><path style="opacity:1" fill="#617da3" d="M 431.5,226.5 C 428.55,230.258 424.883,231.592 420.5,230.5C 424.167,229.167 427.833,227.833 431.5,226.5 Z"/></g>
<g><path style="opacity:1" fill="#40659c" d="M 596.5,228.5 C 596.286,230.144 596.62,231.644 597.5,233C 596.552,233.483 595.552,233.649 594.5,233.5C 593.284,236.07 592.617,238.57 592.5,241C 590.648,241.773 589.314,241.273 588.5,239.5C 589.5,239.5 590.5,239.5 591.5,239.5C 591.889,235.153 593.556,231.486 596.5,228.5 Z"/></g>
<g><path style="opacity:1" fill="#8ba6c2" d="M 103.5,228.5 C 105.584,231.053 106.917,234.053 107.5,237.5C 105.416,234.947 104.083,231.947 103.5,228.5 Z"/></g>
<g><path style="opacity:1" fill="#a3b6d4" d="M 581.5,233.5 C 583.749,234.08 585.415,235.413 586.5,237.5C 584.251,236.92 582.585,235.587 581.5,233.5 Z"/></g>
<g><path style="opacity:1" fill="#595579" d="M 298.5,231.5 C 297.776,233.218 297.109,235.052 296.5,237C 294.537,237.844 293.204,237.344 292.5,235.5C 293.688,236.684 294.855,236.684 296,235.5C 296.494,233.866 296.66,232.199 296.5,230.5C 297.993,226.588 298.66,226.921 298.5,231.5 Z"/></g>
<g><path style="opacity:1" fill="#aebed0" d="M 107.5,237.5 C 109.451,238.641 111.451,238.641 113.5,237.5C 112.866,238.947 111.699,239.613 110,239.5C 108.624,239.316 107.791,238.649 107.5,237.5 Z"/></g>
<g><path style="opacity:1" fill="#2a4f88" d="M 402.5,212.5 C 400.883,214.121 399.716,216.121 399,218.5C 398.753,226.357 398.253,234.19 397.5,242C 398.401,244.514 399.734,246.68 401.5,248.5C 399.315,248.704 397.315,249.37 395.5,250.5C 396.831,240.202 397.331,229.868 397,219.5C 394.088,217.386 390.921,216.053 387.5,215.5C 387.357,213.738 387.691,212.071 388.5,210.5C 391.068,209.132 393.401,209.466 395.5,211.5C 398.25,209.922 400.583,210.255 402.5,212.5 Z"/></g>
<g><path style="opacity:1" fill="#a9bcd5" d="M 663.5,246.5 C 663.408,248.848 662.408,250.514 660.5,251.5C 660.75,249.326 661.75,247.659 663.5,246.5 Z"/></g>
<g><path style="opacity:1" fill="#8295bb" d="M 371.5,246.5 C 371.56,245.957 371.893,245.624 372.5,245.5C 373.491,249.445 373.824,253.445 373.5,257.5C 372.833,253.833 372.167,250.167 371.5,246.5 Z"/></g>
<g><path style="opacity:1" fill="#304378" d="M 396.5,254.5 C 396.5,254.167 396.5,253.833 396.5,253.5C 397.779,252.032 399.446,251.365 401.5,251.5C 401.17,254.109 399.67,255.776 397,256.5C 396.536,255.906 396.369,255.239 396.5,254.5 Z"/></g>
<g><path style="opacity:1" fill="#9d5646" d="M 395.5,251.5 C 396.338,251.842 396.672,252.508 396.5,253.5C 396.5,253.833 396.5,254.167 396.5,254.5C 395.935,257.305 394.935,259.972 393.5,262.5C 392.088,264.98 390.422,267.313 388.5,269.5C 388.167,269.167 387.833,268.833 387.5,268.5C 389.086,266.33 390.42,263.996 391.5,261.5C 385.872,260.505 380.206,260.171 374.5,260.5C 373.662,260.158 373.328,259.492 373.5,258.5C 379.231,259.862 384.898,259.695 390.5,258C 389.627,256.955 388.627,256.122 387.5,255.5C 386.248,253.661 386.248,251.828 387.5,250C 390.636,248.959 393.136,249.793 395,252.5C 395.399,252.272 395.565,251.938 395.5,251.5 Z"/></g>
<g><path style="opacity:1" fill="#f9e7e3" d="M 388.5,250.5 C 392.713,250.699 394.046,252.699 392.5,256.5C 389.167,255.833 387.833,253.833 388.5,250.5 Z"/></g>
<g><path style="opacity:1" fill="#f3dcd8" d="M 387.5,255.5 C 388.627,256.122 389.627,256.955 390.5,258C 384.898,259.695 379.231,259.862 373.5,258.5C 373.5,258.167 373.5,257.833 373.5,257.5C 378.619,258.103 383.285,257.436 387.5,255.5 Z"/></g>
<g><path style="opacity:1" fill="#724451" d="M 401.5,248.5 C 403.113,249.838 403.613,251.505 403,253.5C 401.017,255.984 398.85,258.317 396.5,260.5C 397.976,262.42 398.976,264.587 399.5,267C 399.15,268.257 398.483,268.591 397.5,268C 396.603,265.689 395.27,263.856 393.5,262.5C 394.935,259.972 395.935,257.305 396.5,254.5C 396.369,255.239 396.536,255.906 397,256.5C 399.67,255.776 401.17,254.109 401.5,251.5C 399.446,251.365 397.779,252.032 396.5,253.5C 396.672,252.508 396.338,251.842 395.5,251.5C 395.5,251.167 395.5,250.833 395.5,250.5C 397.315,249.37 399.315,248.704 401.5,248.5 Z"/></g>
<g><path style="opacity:1" fill="#f8f2f1" d="M 374.5,260.5 C 380.206,260.171 385.872,260.505 391.5,261.5C 390.42,263.996 389.086,266.33 387.5,268.5C 387.833,268.833 388.167,269.167 388.5,269.5C 390.422,267.313 392.088,264.98 393.5,262.5C 393.54,265.881 393.207,269.214 392.5,272.5C 385.406,272.522 379.406,274.855 374.5,279.5C 374.5,273.167 374.5,266.833 374.5,260.5 Z"/></g>
<g><path style="opacity:1" fill="#d6e3f2" d="M 652.5,263.5 C 652.108,265.179 651.608,266.846 651,268.5C 647.629,271.703 644.462,275.036 641.5,278.5C 644.788,273.214 648.454,268.214 652.5,263.5 Z"/></g>
<g><path style="opacity:1" fill="#1e3a67" d="M 309.5,249.5 C 312.587,254.599 314.421,260.266 315,266.5C 315.778,279.254 317.278,291.754 319.5,304C 317.871,304.585 316.371,305.419 315,306.5C 314.5,306.167 314,305.833 313.5,305.5C 314.125,302.388 314.459,299.221 314.5,296C 313.667,285.835 312.834,275.668 312,265.5C 311.195,261.558 310.028,257.725 308.5,254C 309.148,252.56 309.481,251.06 309.5,249.5 Z"/></g>
<g><path style="opacity:1" fill="#efa294" d="M 392.5,272.5 C 392.5,273.5 392.5,274.5 392.5,275.5C 390.032,277.842 389.866,280.508 392,283.5C 393.699,284.406 395.533,284.739 397.5,284.5C 397.5,285.5 397.5,286.5 397.5,287.5C 388.183,289.829 378.849,292.163 369.5,294.5C 370.187,289.105 371.854,284.105 374.5,279.5C 379.406,274.855 385.406,272.522 392.5,272.5 Z"/></g>
<g><path style="opacity:1" fill="#d49a98" d="M 392.5,275.5 C 392.5,276.5 392.5,277.5 392.5,278.5C 393.833,278.5 395.167,278.5 396.5,278.5C 396.579,279.93 396.246,281.264 395.5,282.5C 396.689,283.429 398.022,283.762 399.5,283.5C 399.771,285.38 399.104,286.713 397.5,287.5C 397.5,286.5 397.5,285.5 397.5,284.5C 395.533,284.739 393.699,284.406 392,283.5C 389.866,280.508 390.032,277.842 392.5,275.5 Z"/></g>
<g><path style="opacity:1" fill="#a7bed9" d="M 631.5,289.5 C 630.581,292.089 628.914,294.089 626.5,295.5C 627.419,292.911 629.086,290.911 631.5,289.5 Z"/></g>
<g><path style="opacity:1" fill="#cedeee" d="M 259.5,294.5 C 259.826,303.017 259.493,311.35 258.5,319.5C 257.676,311.561 256.343,303.728 254.5,296C 254.667,294.833 254.833,293.667 255,292.5C 256.33,293.582 257.83,294.249 259.5,294.5 Z"/></g>
<g><path style="opacity:1" fill="#8faacd" d="M 105.5,307.5 C 103.485,308.924 101.152,309.59 98.5,309.5C 100.438,307.837 102.772,307.171 105.5,307.5 Z"/></g>
<g><path style="opacity:1" fill="#d49c9f" d="M 323.5,316.5 C 322.442,314.192 321.276,311.858 320,309.5C 319.21,311.79 317.876,312.123 316,310.5C 313.681,311.871 311.181,312.538 308.5,312.5C 312.144,310.24 316.144,308.574 320.5,307.5C 322.494,310.15 323.494,313.15 323.5,316.5 Z"/></g>
<g><path style="opacity:1" fill="#f5a28f" d="M 323.5,316.5 C 323.629,318.216 323.962,319.883 324.5,321.5C 324.5,322.5 324.5,323.5 324.5,324.5C 322.416,323.752 320.416,323.752 318.5,324.5C 318.167,324.167 317.833,323.833 317.5,323.5C 318.167,322.5 318.833,321.5 319.5,320.5C 317.234,319.686 314.9,319.186 312.5,319C 311.289,317.887 311.289,316.72 312.5,315.5C 310.784,315.003 309.117,314.669 307.5,314.5C 307.863,313.817 308.196,313.15 308.5,312.5C 311.181,312.538 313.681,311.871 316,310.5C 317.876,312.123 319.21,311.79 320,309.5C 321.276,311.858 322.442,314.192 323.5,316.5 Z"/></g>
<g><path style="opacity:1" fill="#3c67a0" d="M 259.5,294.5 C 260.658,304.325 260.825,314.325 260,324.5C 258.731,323.095 258.231,321.429 258.5,319.5C 259.493,311.35 259.826,303.017 259.5,294.5 Z"/></g>
<g><path style="opacity:1" fill="#6987ae" d="M 561.5,305.5 C 562.965,312.381 564.298,319.381 565.5,326.5C 565.5,328.167 565.5,329.833 565.5,331.5C 564.175,326.326 563.009,320.993 562,315.5C 561.502,312.183 561.335,308.85 561.5,305.5 Z"/></g>
<g><path style="opacity:1" fill="#e99e94" d="M 308.5,312.5 C 308.196,313.15 307.863,313.817 307.5,314.5C 309.117,314.669 310.784,315.003 312.5,315.5C 311.289,316.72 311.289,317.887 312.5,319C 314.9,319.186 317.234,319.686 319.5,320.5C 318.833,321.5 318.167,322.5 317.5,323.5C 317.833,323.833 318.167,324.167 318.5,324.5C 320.416,323.752 322.416,323.752 324.5,324.5C 324.5,323.5 324.5,322.5 324.5,321.5C 326.976,324.288 327.976,327.622 327.5,331.5C 322.388,333.255 317.054,334.255 311.5,334.5C 311.286,332.856 311.62,331.356 312.5,330C 308.759,329.597 307.759,327.764 309.5,324.5C 306.919,322.326 306.919,320.16 309.5,318C 307.777,317.477 306.444,316.477 305.5,315C 305.748,313.251 306.748,312.418 308.5,312.5 Z"/></g>
<g><path style="opacity:1" fill="#81a3c3" d="M 135.5,322.5 C 135.23,327.028 134.563,331.361 133.5,335.5C 133.156,330.878 133.823,326.545 135.5,322.5 Z"/></g>
<g><path style="opacity:1" fill="#c7d8eb" d="M 565.5,326.5 C 566.29,327.609 566.79,328.942 567,330.5C 567.5,337.506 568,344.506 568.5,351.5C 566.981,345.043 565.981,338.377 565.5,331.5C 565.5,329.833 565.5,328.167 565.5,326.5 Z"/></g>
<g><path style="opacity:1" fill="#a2bddc" d="M 436.5,339.5 C 436.795,337.265 436.461,335.265 435.5,333.5C 436.573,330.169 437.573,330.002 438.5,333C 438.198,335.4 437.532,337.566 436.5,339.5 Z"/></g>
<g><path style="opacity:1" fill="#e7f1f8" d="M 435.5,333.5 C 436.461,335.265 436.795,337.265 436.5,339.5C 436.5,339.833 436.5,340.167 436.5,340.5C 434.918,343.876 434.251,347.542 434.5,351.5C 432.735,348.877 432.068,345.877 432.5,342.5C 432.298,340.05 432.631,337.717 433.5,335.5C 433.833,334.5 434.5,333.833 435.5,333.5 Z"/></g>
<g><path style="opacity:1" fill="#8aa2bf" d="M 433.5,335.5 C 432.631,337.717 432.298,340.05 432.5,342.5C 431.848,341.551 431.514,340.385 431.5,339C 431.608,337.319 432.275,336.152 433.5,335.5 Z"/></g>
<g><path style="opacity:1" fill="#7f9bb6" d="M 436.5,340.5 C 436.354,344.387 435.687,348.054 434.5,351.5C 434.251,347.542 434.918,343.876 436.5,340.5 Z"/></g>
<g><path style="opacity:1" fill="#44679f" d="M 284.5,383.5 C 284.5,381.5 284.5,379.5 284.5,377.5C 280.429,377.766 276.429,377.433 272.5,376.5C 271.526,378.743 271.192,381.076 271.5,383.5C 270.527,381.052 270.194,378.385 270.5,375.5C 275.833,375.5 281.167,375.5 286.5,375.5C 286.435,378.428 285.768,381.095 284.5,383.5 Z"/></g>
<g><path style="opacity:1" fill="#6684b1" d="M 130.5,352.5 C 130.964,364.109 129.964,375.442 127.5,386.5C 128.096,374.988 129.096,363.655 130.5,352.5 Z"/></g>
<g><path style="opacity:1" fill="#eef2f7" d="M 284.5,383.5 C 283.539,385.265 283.205,387.265 283.5,389.5C 282.303,395.137 281.303,400.804 280.5,406.5C 279.833,407.833 279.167,409.167 278.5,410.5C 275.705,401.654 273.371,392.654 271.5,383.5C 271.192,381.076 271.526,378.743 272.5,376.5C 276.429,377.433 280.429,377.766 284.5,377.5C 284.5,379.5 284.5,381.5 284.5,383.5 Z"/></g>
<g><path style="opacity:1" fill="#9fb5d1" d="M 572.5,387.5 C 573.733,396.643 574.399,405.976 574.5,415.5C 574.167,415.5 573.833,415.5 573.5,415.5C 573,406.174 572.667,396.841 572.5,387.5 Z"/></g>
<g><path style="opacity:1" fill="#92abcd" d="M 280.5,406.5 C 280.492,409.545 280.159,412.545 279.5,415.5C 279.167,415.5 278.833,415.5 278.5,415.5C 278.5,413.833 278.5,412.167 278.5,410.5C 279.167,409.167 279.833,407.833 280.5,406.5 Z"/></g>
<g><path style="opacity:1" fill="#255695" d="M 283.5,389.5 C 282.473,397.534 282.473,405.534 283.5,413.5C 329.332,414.167 374.998,414.833 420.5,415.5C 373.5,415.5 326.5,415.5 279.5,415.5C 280.159,412.545 280.492,409.545 280.5,406.5C 281.303,400.804 282.303,395.137 283.5,389.5 Z"/></g>
</svg>
