<?xml version="1.0" encoding="UTF-8"?>
<!DOCTYPE svg PUBLIC "-//W3C//DTD SVG 1.1//EN" "http://www.w3.org/Graphics/SVG/1.1/DTD/svg11.dtd">
<svg xmlns="http://www.w3.org/2000/svg" version="1.1" width="820px" height="510px" style="shape-rendering:geometricPrecision; text-rendering:geometricPrecision; image-rendering:optimizeQuality; fill-rule:evenodd; clip-rule:evenodd" xmlns:xlink="http://www.w3.org/1999/xlink">
<g><path style="opacity:1" fill="#fefefe" d="M -0.5,-0.5 C 272.833,-0.5 546.167,-0.5 819.5,-0.5C 819.5,169.5 819.5,339.5 819.5,509.5C 546.167,509.5 272.833,509.5 -0.5,509.5C -0.5,339.5 -0.5,169.5 -0.5,-0.5 Z"/></g>
<g><path style="opacity:1" fill="#fe6246" d="M 18.5,22.5 C 20.288,22.2148 21.9547,22.5481 23.5,23.5C 22.6667,23.8333 21.8333,24.1667 21,24.5C 19.6244,24.3158 18.7911,23.6491 18.5,22.5 Z"/></g>
<g><path style="opacity:1" fill="#fe5f43" d="M 29.5,22.5 C 31.604,22.2011 33.604,22.5344 35.5,23.5C 34.5,23.8333 33.5,24.1667 32.5,24.5C 30.9704,24.3601 29.9704,23.6935 29.5,22.5 Z"/></g>
<g><path style="opacity:1" fill="#fe6145" d="M 41.5,22.5 C 43.604,22.2011 45.604,22.5344 47.5,23.5C 46.5,23.8333 45.5,24.1667 44.5,24.5C 42.9704,24.3601 41.9704,23.6935 41.5,22.5 Z"/></g>
<g><path style="opacity:1" fill="#fe6347" d="M 53.5,22.5 C 55.604,22.2011 57.604,22.5344 59.5,23.5C 58.5,23.8333 57.5,24.1667 56.5,24.5C 54.9704,24.3601 53.9704,23.6935 53.5,22.5 Z"/></g>
<g><path style="opacity:1" fill="#fe6549" d="M 65.5,22.5 C 67.604,22.2011 69.604,22.5344 71.5,23.5C 70.5,23.8333 69.5,24.1667 68.5,24.5C 66.9704,24.3601 65.9704,23.6935 65.5,22.5 Z"/></g>
<g><path style="opacity:1" fill="#fe674b" d="M 77.5,22.5 C 79.604,22.2011 81.604,22.5344 83.5,23.5C 82.5,23.8333 81.5,24.1667 80.5,24.5C 78.9704,24.3601 77.9704,23.6935 77.5,22.5 Z"/></g>
<g><path style="opacity:1" fill="#fd5d40" d="M 89.5,22.5 C 91.288,22.2148 92.9547,22.5481 94.5,23.5C 93.6667,23.8333 92.8333,24.1667 92,24.5C 90.6244,24.3158 89.7911,23.6491 89.5,22.5 Z"/></g>
<g><path style="opacity:1" fill="#fd5d40" d="M 101.5,22.5 C 103.288,22.2148 104.955,22.5481 106.5,23.5C 105.667,23.8333 104.833,24.1667 104,24.5C 102.624,24.3158 101.791,23.6491 101.5,22.5 Z"/></g>
<g><path style="opacity:1" fill="#fe674b" d="M 112.5,22.5 C 114.604,22.2011 116.604,22.5344 118.5,23.5C 117.5,23.8333 116.5,24.1667 115.5,24.5C 113.97,24.3601 112.97,23.6935 112.5,22.5 Z"/></g>
<g><path style="opacity:1" fill="#fe6549" d="M 124.5,22.5 C 126.604,22.2011 128.604,22.5344 130.5,23.5C 129.5,23.8333 128.5,24.1667 127.5,24.5C 125.97,24.3601 124.97,23.6935 124.5,22.5 Z"/></g>
<g><path style="opacity:1" fill="#fe6347" d="M 136.5,22.5 C 138.604,22.2011 140.604,22.5344 142.5,23.5C 141.5,23.8333 140.5,24.1667 139.5,24.5C 137.97,24.3601 136.97,23.6935 136.5,22.5 Z"/></g>
<g><path style="opacity:1" fill="#fe6145" d="M 148.5,22.5 C 150.604,22.2011 152.604,22.5344 154.5,23.5C 153.5,23.8333 152.5,24.1667 151.5,24.5C 149.97,24.3601 148.97,23.6935 148.5,22.5 Z"/></g>
<g><path style="opacity:1" fill="#fe5f43" d="M 160.5,22.5 C 162.604,22.2011 164.604,22.5344 166.5,23.5C 165.5,23.8333 164.5,24.1667 163.5,24.5C 161.97,24.3601 160.97,23.6935 160.5,22.5 Z"/></g>
<g><path style="opacity:1" fill="#fe5d41" d="M 172.5,22.5 C 174.604,22.2011 176.604,22.5344 178.5,23.5C 177.5,23.8333 176.5,24.1667 175.5,24.5C 173.97,24.3601 172.97,23.6935 172.5,22.5 Z"/></g>
<g><path style="opacity:1" fill="#fe5f43" d="M 184.5,22.5 C 186.604,22.2011 188.604,22.5344 190.5,23.5C 189.5,23.8333 188.5,24.1667 187.5,24.5C 185.97,24.3601 184.97,23.6935 184.5,22.5 Z"/></g>
<g><path style="opacity:1" fill="#fe6145" d="M 196.5,22.5 C 198.604,22.2011 200.604,22.5344 202.5,23.5C 201.5,23.8333 200.5,24.1667 199.5,24.5C 197.97,24.3601 196.97,23.6935 196.5,22.5 Z"/></g>
<g><path style="opacity:1" fill="#fe6347" d="M 208.5,22.5 C 210.604,22.2011 212.604,22.5344 214.5,23.5C 213.5,23.8333 212.5,24.1667 211.5,24.5C 209.97,24.3601 208.97,23.6935 208.5,22.5 Z"/></g>
<g><path style="opacity:1" fill="#fe6549" d="M 220.5,22.5 C 222.604,22.2011 224.604,22.5344 226.5,23.5C 225.5,23.8333 224.5,24.1667 223.5,24.5C 221.97,24.3601 220.97,23.6935 220.5,22.5 Z"/></g>
<g><path style="opacity:1" fill="#fe674b" d="M 232.5,22.5 C 234.604,22.2011 236.604,22.5344 238.5,23.5C 237.5,23.8333 236.5,24.1667 235.5,24.5C 233.97,24.3601 232.97,23.6935 232.5,22.5 Z"/></g>
<g><path style="opacity:1" fill="#fd5d40" d="M 244.5,22.5 C 246.288,22.2148 247.955,22.5481 249.5,23.5C 248.667,23.8333 247.833,24.1667 247,24.5C 245.624,24.3158 244.791,23.6491 244.5,22.5 Z"/></g>
<g><path style="opacity:1" fill="#fd5d40" d="M 256.5,22.5 C 258.288,22.2148 259.955,22.5481 261.5,23.5C 260.667,23.8333 259.833,24.1667 259,24.5C 257.624,24.3158 256.791,23.6491 256.5,22.5 Z"/></g>
<g><path style="opacity:1" fill="#fe674b" d="M 267.5,22.5 C 269.604,22.2011 271.604,22.5344 273.5,23.5C 272.5,23.8333 271.5,24.1667 270.5,24.5C 268.97,24.3601 267.97,23.6935 267.5,22.5 Z"/></g>
<g><path style="opacity:1" fill="#fe6549" d="M 279.5,22.5 C 281.604,22.2011 283.604,22.5344 285.5,23.5C 284.5,23.8333 283.5,24.1667 282.5,24.5C 280.97,24.3601 279.97,23.6935 279.5,22.5 Z"/></g>
<g><path style="opacity:1" fill="#fe6347" d="M 291.5,22.5 C 293.604,22.2011 295.604,22.5344 297.5,23.5C 296.5,23.8333 295.5,24.1667 294.5,24.5C 292.97,24.3601 291.97,23.6935 291.5,22.5 Z"/></g>
<g><path style="opacity:1" fill="#fe6145" d="M 303.5,22.5 C 305.604,22.2011 307.604,22.5344 309.5,23.5C 308.5,23.8333 307.5,24.1667 306.5,24.5C 304.97,24.3601 303.97,23.6935 303.5,22.5 Z"/></g>
<g><path style="opacity:1" fill="#fe5f43" d="M 315.5,22.5 C 317.604,22.2011 319.604,22.5344 321.5,23.5C 320.5,23.8333 319.5,24.1667 318.5,24.5C 316.97,24.3601 315.97,23.6935 315.5,22.5 Z"/></g>
<g><path style="opacity:1" fill="#fe5d41" d="M 327.5,22.5 C 329.604,22.2011 331.604,22.5344 333.5,23.5C 332.5,23.8333 331.5,24.1667 330.5,24.5C 328.97,24.3601 327.97,23.6935 327.5,22.5 Z"/></g>
<g><path style="opacity:1" fill="#fe5f43" d="M 339.5,22.5 C 341.604,22.2011 343.604,22.5344 345.5,23.5C 344.5,23.8333 343.5,24.1667 342.5,24.5C 340.97,24.3601 339.97,23.6935 339.5,22.5 Z"/></g>
<g><path style="opacity:1" fill="#fe6145" d="M 351.5,22.5 C 353.604,22.2011 355.604,22.5344 357.5,23.5C 356.5,23.8333 355.5,24.1667 354.5,24.5C 352.97,24.3601 351.97,23.6935 351.5,22.5 Z"/></g>
<g><path style="opacity:1" fill="#fe6347" d="M 363.5,22.5 C 365.604,22.2011 367.604,22.5344 369.5,23.5C 368.5,23.8333 367.5,24.1667 366.5,24.5C 364.97,24.3601 363.97,23.6935 363.5,22.5 Z"/></g>
<g><path style="opacity:1" fill="#fe6549" d="M 375.5,22.5 C 377.604,22.2011 379.604,22.5344 381.5,23.5C 380.5,23.8333 379.5,24.1667 378.5,24.5C 376.97,24.3601 375.97,23.6935 375.5,22.5 Z"/></g>
<g><path style="opacity:1" fill="#fe674b" d="M 387.5,22.5 C 389.604,22.2011 391.604,22.5344 393.5,23.5C 392.5,23.8333 391.5,24.1667 390.5,24.5C 388.97,24.3601 387.97,23.6935 387.5,22.5 Z"/></g>
<g><path style="opacity:1" fill="#fd5d40" d="M 399.5,22.5 C 401.288,22.2148 402.955,22.5481 404.5,23.5C 403.667,23.8333 402.833,24.1667 402,24.5C 400.624,24.3158 399.791,23.6491 399.5,22.5 Z"/></g>
<g><path style="opacity:1" fill="#fd5d40" d="M 411.5,22.5 C 413.288,22.2148 414.955,22.5481 416.5,23.5C 415.667,23.8333 414.833,24.1667 414,24.5C 412.624,24.3158 411.791,23.6491 411.5,22.5 Z"/></g>
<g><path style="opacity:1" fill="#fe674b" d="M 422.5,22.5 C 424.604,22.2011 426.604,22.5344 428.5,23.5C 427.5,23.8333 426.5,24.1667 425.5,24.5C 423.97,24.3601 422.97,23.6935 422.5,22.5 Z"/></g>
<g><path style="opacity:1" fill="#fe6549" d="M 434.5,22.5 C 436.604,22.2011 438.604,22.5344 440.5,23.5C 439.5,23.8333 438.5,24.1667 437.5,24.5C 435.97,24.3601 434.97,23.6935 434.5,22.5 Z"/></g>
<g><path style="opacity:1" fill="#fe6347" d="M 446.5,22.5 C 448.604,22.2011 450.604,22.5344 452.5,23.5C 451.5,23.8333 450.5,24.1667 449.5,24.5C 447.97,24.3601 446.97,23.6935 446.5,22.5 Z"/></g>
<g><path style="opacity:1" fill="#fe6145" d="M 458.5,22.5 C 460.604,22.2011 462.604,22.5344 464.5,23.5C 463.5,23.8333 462.5,24.1667 461.5,24.5C 459.97,24.3601 458.97,23.6935 458.5,22.5 Z"/></g>
<g><path style="opacity:1" fill="#fe5f43" d="M 470.5,22.5 C 472.604,22.2011 474.604,22.5344 476.5,23.5C 475.5,23.8333 474.5,24.1667 473.5,24.5C 471.97,24.3601 470.97,23.6935 470.5,22.5 Z"/></g>
<g><path style="opacity:1" fill="#fe5d41" d="M 482.5,22.5 C 484.604,22.2011 486.604,22.5344 488.5,23.5C 487.5,23.8333 486.5,24.1667 485.5,24.5C 483.97,24.3601 482.97,23.6935 482.5,22.5 Z"/></g>
<g><path style="opacity:1" fill="#fe5f43" d="M 494.5,22.5 C 496.604,22.2011 498.604,22.5344 500.5,23.5C 499.5,23.8333 498.5,24.1667 497.5,24.5C 495.97,24.3601 494.97,23.6935 494.5,22.5 Z"/></g>
<g><path style="opacity:1" fill="#fe6145" d="M 506.5,22.5 C 508.604,22.2011 510.604,22.5344 512.5,23.5C 511.5,23.8333 510.5,24.1667 509.5,24.5C 507.97,24.3601 506.97,23.6935 506.5,22.5 Z"/></g>
<g><path style="opacity:1" fill="#fe6347" d="M 518.5,22.5 C 520.604,22.2011 522.604,22.5344 524.5,23.5C 523.5,23.8333 522.5,24.1667 521.5,24.5C 519.97,24.3601 518.97,23.6935 518.5,22.5 Z"/></g>
<g><path style="opacity:1" fill="#fe6549" d="M 530.5,22.5 C 532.604,22.2011 534.604,22.5344 536.5,23.5C 535.5,23.8333 534.5,24.1667 533.5,24.5C 531.97,24.3601 530.97,23.6935 530.5,22.5 Z"/></g>
<g><path style="opacity:1" fill="#fe674b" d="M 542.5,22.5 C 544.604,22.2011 546.604,22.5344 548.5,23.5C 547.5,23.8333 546.5,24.1667 545.5,24.5C 543.97,24.3601 542.97,23.6935 542.5,22.5 Z"/></g>
<g><path style="opacity:1" fill="#fd5d40" d="M 554.5,22.5 C 556.288,22.2148 557.955,22.5481 559.5,23.5C 558.667,23.8333 557.833,24.1667 557,24.5C 555.624,24.3158 554.791,23.6491 554.5,22.5 Z"/></g>
<g><path style="opacity:1" fill="#fd5d40" d="M 566.5,22.5 C 568.288,22.2148 569.955,22.5481 571.5,23.5C 570.667,23.8333 569.833,24.1667 569,24.5C 567.624,24.3158 566.791,23.6491 566.5,22.5 Z"/></g>
<g><path style="opacity:1" fill="#fe674b" d="M 577.5,22.5 C 579.604,22.2011 581.604,22.5344 583.5,23.5C 582.5,23.8333 581.5,24.1667 580.5,24.5C 578.97,24.3601 577.97,23.6935 577.5,22.5 Z"/></g>
<g><path style="opacity:1" fill="#fe6549" d="M 589.5,22.5 C 591.604,22.2011 593.604,22.5344 595.5,23.5C 594.5,23.8333 593.5,24.1667 592.5,24.5C 590.97,24.3601 589.97,23.6935 589.5,22.5 Z"/></g>
<g><path style="opacity:1" fill="#fe6347" d="M 601.5,22.5 C 603.604,22.2011 605.604,22.5344 607.5,23.5C 606.5,23.8333 605.5,24.1667 604.5,24.5C 602.97,24.3601 601.97,23.6935 601.5,22.5 Z"/></g>
<g><path style="opacity:1" fill="#fe6145" d="M 613.5,22.5 C 615.604,22.2011 617.604,22.5344 619.5,23.5C 618.5,23.8333 617.5,24.1667 616.5,24.5C 614.97,24.3601 613.97,23.6935 613.5,22.5 Z"/></g>
<g><path style="opacity:1" fill="#fe5f43" d="M 625.5,22.5 C 627.604,22.2011 629.604,22.5344 631.5,23.5C 630.5,23.8333 629.5,24.1667 628.5,24.5C 626.97,24.3601 625.97,23.6935 625.5,22.5 Z"/></g>
<g><path style="opacity:1" fill="#fe5d41" d="M 637.5,22.5 C 639.604,22.2011 641.604,22.5344 643.5,23.5C 642.5,23.8333 641.5,24.1667 640.5,24.5C 638.97,24.3601 637.97,23.6935 637.5,22.5 Z"/></g>
<g><path style="opacity:1" fill="#fe5f43" d="M 649.5,22.5 C 651.604,22.2011 653.604,22.5344 655.5,23.5C 654.5,23.8333 653.5,24.1667 652.5,24.5C 650.97,24.3601 649.97,23.6935 649.5,22.5 Z"/></g>
<g><path style="opacity:1" fill="#fe6145" d="M 661.5,22.5 C 663.604,22.2011 665.604,22.5344 667.5,23.5C 666.5,23.8333 665.5,24.1667 664.5,24.5C 662.97,24.3601 661.97,23.6935 661.5,22.5 Z"/></g>
<g><path style="opacity:1" fill="#fe6347" d="M 673.5,22.5 C 675.604,22.2011 677.604,22.5344 679.5,23.5C 678.5,23.8333 677.5,24.1667 676.5,24.5C 674.97,24.3601 673.97,23.6935 673.5,22.5 Z"/></g>
<g><path style="opacity:1" fill="#fe6549" d="M 685.5,22.5 C 687.604,22.2011 689.604,22.5344 691.5,23.5C 690.5,23.8333 689.5,24.1667 688.5,24.5C 686.97,24.3601 685.97,23.6935 685.5,22.5 Z"/></g>
<g><path style="opacity:1" fill="#fe674b" d="M 697.5,22.5 C 699.604,22.2011 701.604,22.5344 703.5,23.5C 702.5,23.8333 701.5,24.1667 700.5,24.5C 698.97,24.3601 697.97,23.6935 697.5,22.5 Z"/></g>
<g><path style="opacity:1" fill="#fd5d40" d="M 709.5,22.5 C 711.288,22.2148 712.955,22.5481 714.5,23.5C 713.667,23.8333 712.833,24.1667 712,24.5C 710.624,24.3158 709.791,23.6491 709.5,22.5 Z"/></g>
<g><path style="opacity:1" fill="#fd5d40" d="M 721.5,22.5 C 723.288,22.2148 724.955,22.5481 726.5,23.5C 725.667,23.8333 724.833,24.1667 724,24.5C 722.624,24.3158 721.791,23.6491 721.5,22.5 Z"/></g>
<g><path style="opacity:1" fill="#fe674b" d="M 732.5,22.5 C 734.604,22.2011 736.604,22.5344 738.5,23.5C 737.5,23.8333 736.5,24.1667 735.5,24.5C 733.97,24.3601 732.97,23.6935 732.5,22.5 Z"/></g>
<g><path style="opacity:1" fill="#fe6549" d="M 744.5,22.5 C 746.604,22.2011 748.604,22.5344 750.5,23.5C 749.5,23.8333 748.5,24.1667 747.5,24.5C 745.97,24.3601 744.97,23.6935 744.5,22.5 Z"/></g>
<g><path style="opacity:1" fill="#fe6347" d="M 756.5,22.5 C 758.604,22.2011 760.604,22.5344 762.5,23.5C 761.5,23.8333 760.5,24.1667 759.5,24.5C 757.97,24.3601 756.97,23.6935 756.5,22.5 Z"/></g>
<g><path style="opacity:1" fill="#fe6145" d="M 768.5,22.5 C 770.604,22.2011 772.604,22.5344 774.5,23.5C 773.5,23.8333 772.5,24.1667 771.5,24.5C 769.97,24.3601 768.97,23.6935 768.5,22.5 Z"/></g>
<g><path style="opacity:1" fill="#fe5f43" d="M 780.5,22.5 C 782.604,22.2011 784.604,22.5344 786.5,23.5C 785.5,23.8333 784.5,24.1667 783.5,24.5C 781.97,24.3601 780.97,23.6935 780.5,22.5 Z"/></g>
<g><path style="opacity:1" fill="#fe674c" d="M 792.5,22.5 C 794.288,22.2148 795.955,22.5481 797.5,23.5C 796.667,23.8333 795.833,24.1667 795,24.5C 793.624,24.3158 792.791,23.6491 792.5,22.5 Z"/></g>
<g><path style="opacity:1" fill="#fe6d52" d="M 13.5,24.5 C 16.0118,25.2162 16.0118,26.2162 13.5,27.5C 12.4376,26.5754 12.4376,25.5754 13.5,24.5 Z"/></g>
<g><path style="opacity:1" fill="#fe6c51" d="M 800.5,24.5 C 801.995,24.4148 802.995,25.0815 803.5,26.5C 801.604,27.6394 800.604,26.9728 800.5,24.5 Z"/></g>
<g><path style="opacity:1" fill="#fe6246" d="M 10.5,30.5 C 11.6491,30.7911 12.3158,31.6244 12.5,33C 12.1667,33.8333 11.8333,34.6667 11.5,35.5C 10.5481,33.9547 10.2148,32.288 10.5,30.5 Z"/></g>
<g><path style="opacity:1" fill="#fe6045" d="M 803.5,30.5 C 804.649,30.7911 805.316,31.6244 805.5,33C 805.167,33.8333 804.833,34.6667 804.5,35.5C 803.548,33.9547 803.215,32.288 803.5,30.5 Z"/></g>
<g><path style="opacity:1" fill="#fe6045" d="M 10.5,41.5 C 11.6935,41.9704 12.3601,42.9704 12.5,44.5C 12.1667,45.5 11.8333,46.5 11.5,47.5C 10.5344,45.604 10.2011,43.604 10.5,41.5 Z"/></g>
<g><path style="opacity:1" fill="#fe6045" d="M 803.5,41.5 C 804.693,41.9704 805.36,42.9704 805.5,44.5C 805.167,45.5 804.833,46.5 804.5,47.5C 803.534,45.604 803.201,43.604 803.5,41.5 Z"/></g>
<g><path style="opacity:1" fill="#fe6448" d="M 10.5,53.5 C 11.6935,53.9704 12.3601,54.9704 12.5,56.5C 12.1667,57.5 11.8333,58.5 11.5,59.5C 10.5344,57.604 10.2011,55.604 10.5,53.5 Z"/></g>
<g><path style="opacity:1" fill="#fe6448" d="M 803.5,53.5 C 804.693,53.9704 805.36,54.9704 805.5,56.5C 805.167,57.5 804.833,58.5 804.5,59.5C 803.534,57.604 803.201,55.604 803.5,53.5 Z"/></g>
<g><path style="opacity:1" fill="#fe674b" d="M 10.5,65.5 C 11.6935,65.9704 12.3601,66.9704 12.5,68.5C 12.1667,69.5 11.8333,70.5 11.5,71.5C 10.5344,69.604 10.2011,67.604 10.5,65.5 Z"/></g>
<g><path style="opacity:1" fill="#fe674b" d="M 803.5,65.5 C 804.693,65.9704 805.36,66.9704 805.5,68.5C 805.167,69.5 804.833,70.5 804.5,71.5C 803.534,69.604 803.201,67.604 803.5,65.5 Z"/></g>
<g><path style="opacity:1" fill="#fd5d40" d="M 10.5,77.5 C 11.6491,77.7911 12.3158,78.6244 12.5,80C 12.1667,80.8333 11.8333,81.6667 11.5,82.5C 10.5481,80.9547 10.2148,79.288 10.5,77.5 Z"/></g>
<g><path style="opacity:1" fill="#fd5d40" d="M 803.5,77.5 C 804.649,77.7911 805.316,78.6244 805.5,80C 805.167,80.8333 804.833,81.6667 804.5,82.5C 803.548,80.9547 803.215,79.288 803.5,77.5 Z"/></g>
<g><path style="opacity:1" fill="#fe674b" d="M 10.5,88.5 C 11.6935,88.9704 12.3601,89.9704 12.5,91.5C 12.1667,92.5 11.8333,93.5 11.5,94.5C 10.5344,92.604 10.2011,90.604 10.5,88.5 Z"/></g>
<g><path style="opacity:1" fill="#fe674b" d="M 803.5,88.5 C 804.693,88.9704 805.36,89.9704 805.5,91.5C 805.167,92.5 804.833,93.5 804.5,94.5C 803.534,92.604 803.201,90.604 803.5,88.5 Z"/></g>
<g><path style="opacity:1" fill="#fe6448" d="M 10.5,100.5 C 11.6935,100.97 12.3601,101.97 12.5,103.5C 12.1667,104.5 11.8333,105.5 11.5,106.5C 10.5344,104.604 10.2011,102.604 10.5,100.5 Z"/></g>
<g><path style="opacity:1" fill="#fe6448" d="M 803.5,100.5 C 804.693,100.97 805.36,101.97 805.5,103.5C 805.167,104.5 804.833,105.5 804.5,106.5C 803.534,104.604 803.201,102.604 803.5,100.5 Z"/></g>
<g><path style="opacity:1" fill="#fe6045" d="M 10.5,112.5 C 11.6935,112.97 12.3601,113.97 12.5,115.5C 12.1667,116.5 11.8333,117.5 11.5,118.5C 10.5344,116.604 10.2011,114.604 10.5,112.5 Z"/></g>
<g><path style="opacity:1" fill="#fe6045" d="M 803.5,112.5 C 804.693,112.97 805.36,113.97 805.5,115.5C 805.167,116.5 804.833,117.5 804.5,118.5C 803.534,116.604 803.201,114.604 803.5,112.5 Z"/></g>
<g><path style="opacity:1" fill="#fe6b47" d="M 358.5,119.5 C 359.5,119.5 360.5,119.5 361.5,119.5C 361.338,121.527 361.505,123.527 362,125.5C 364,124.167 366,124.167 368,125.5C 369.658,133.34 366.491,136.34 358.5,134.5C 358.5,129.5 358.5,124.5 358.5,119.5 Z"/></g>
<g><path style="opacity:1" fill="#fe644b" d="M 343.5,120.5 C 343.672,121.492 343.338,122.158 342.5,122.5C 340.654,122.222 339.32,122.889 338.5,124.5C 340.422,125.711 342.255,127.044 344,128.5C 344.825,130.701 344.325,132.534 342.5,134C 340.19,134.497 337.857,134.663 335.5,134.5C 335.065,131.387 336.065,130.721 338.5,132.5C 340,132.547 341,131.881 341.5,130.5C 339.578,129.289 337.745,127.956 336,126.5C 335.202,124.741 335.369,123.074 336.5,121.5C 338.747,120.626 341.08,120.292 343.5,120.5 Z"/></g>
<g><path style="opacity:1" fill="#ff675a" d="M 413.5,119.5 C 414.5,119.5 415.5,119.5 416.5,119.5C 416.5,120.5 416.5,121.5 416.5,122.5C 415.5,122.5 414.5,122.5 413.5,122.5C 413.5,121.5 413.5,120.5 413.5,119.5 Z"/></g>
<g><path style="opacity:1" fill="#fea1b3" d="M 343.5,120.5 C 344.776,121.386 344.776,122.386 343.5,123.5C 342.893,123.376 342.56,123.043 342.5,122.5C 343.338,122.158 343.672,121.492 343.5,120.5 Z"/></g>
<g><path style="opacity:1" fill="#fe604d" d="M 389.5,121.5 C 391.057,122.466 392.39,123.8 393.5,125.5C 390.833,128.167 390.833,130.833 393.5,133.5C 391.994,134.747 390.494,134.747 389,133.5C 388.9,130.563 388.067,127.896 386.5,125.5C 387.91,124.431 388.91,123.097 389.5,121.5 Z"/></g>
<g><path style="opacity:1" fill="#ff7052" d="M 346.5,124.5 C 347.5,124.5 348.5,124.5 349.5,124.5C 349.5,127.167 349.5,129.833 349.5,132.5C 350.5,132.5 351.5,132.5 352.5,132.5C 352.5,129.833 352.5,127.167 352.5,124.5C 353.833,124.5 355.167,124.5 356.5,124.5C 356.5,127.833 356.5,131.167 356.5,134.5C 353.511,133.365 350.511,133.198 347.5,134C 346.549,130.943 346.216,127.777 346.5,124.5 Z"/></g>
<g><path style="opacity:1" fill="#ff6a4f" d="M 373.5,124.5 C 378.186,123.984 380.519,125.984 380.5,130.5C 378.143,130.337 375.81,130.503 373.5,131C 375.202,132.718 377.035,132.885 379,131.5C 379.617,132.449 379.451,133.282 378.5,134C 372,135.5 369.5,133 371,126.5C 371.995,125.934 372.828,125.267 373.5,124.5 Z"/></g>
<g><path style="opacity:1" fill="#fe624d" d="M 395.5,124.5 C 396.5,124.5 397.5,124.5 398.5,124.5C 398.5,127.167 398.5,129.833 398.5,132.5C 399.5,132.5 400.5,132.5 401.5,132.5C 401.5,129.833 401.5,127.167 401.5,124.5C 402.5,124.5 403.5,124.5 404.5,124.5C 404.5,127.833 404.5,131.167 404.5,134.5C 401.723,134.214 398.889,133.88 396,133.5C 395.502,130.518 395.335,127.518 395.5,124.5 Z"/></g>
<g><path style="opacity:1" fill="#ff6256" d="M 413.5,124.5 C 414.5,124.5 415.5,124.5 416.5,124.5C 416.5,127.833 416.5,131.167 416.5,134.5C 415.5,134.5 414.5,134.5 413.5,134.5C 413.5,131.167 413.5,127.833 413.5,124.5 Z"/></g>
<g><path style="opacity:1" fill="#ff6d4e" d="M 418.5,124.5 C 423.47,124.652 428.47,124.985 433.5,125.5C 434.484,128.428 434.817,131.428 434.5,134.5C 433.167,134.5 431.833,134.5 430.5,134.5C 430.813,131.753 430.48,129.086 429.5,126.5C 428.914,126.709 428.414,127.043 428,127.5C 427.503,129.81 427.337,132.143 427.5,134.5C 426.5,134.5 425.5,134.5 424.5,134.5C 424.813,131.753 424.48,129.086 423.5,126.5C 422.914,126.709 422.414,127.043 422,127.5C 421.503,129.81 421.337,132.143 421.5,134.5C 420.5,134.5 419.5,134.5 418.5,134.5C 418.5,131.167 418.5,127.833 418.5,124.5 Z"/></g>
<g><path style="opacity:1" fill="#fe6450" d="M 437.5,124.5 C 444.833,123.847 447.499,127.18 445.5,134.5C 442.723,134.214 439.889,133.88 437,133.5C 436.333,132.167 436.333,130.833 437,129.5C 438.825,128.897 440.659,128.23 442.5,127.5C 440.994,126.253 439.494,126.253 438,127.5C 437.517,126.552 437.351,125.552 437.5,124.5 Z"/></g>
<g><path style="opacity:1" fill="#fe634d" d="M 449.5,124.5 C 452.272,125.371 454.938,125.371 457.5,124.5C 457.665,128.182 457.499,131.848 457,135.5C 455.248,139.382 452.415,140.382 448.5,138.5C 450.9,137.915 452.9,136.748 454.5,135C 454.333,134.5 454.167,134 454,133.5C 450.213,135.345 448.046,134.178 447.5,130C 447.395,127.822 448.061,125.988 449.5,124.5 Z"/></g>
<g><path style="opacity:1" fill="#ff6951" d="M 461.5,124.5 C 466.451,123.629 469.118,125.629 469.5,130.5C 467.143,130.337 464.81,130.503 462.5,131C 464.202,132.718 466.035,132.885 468,131.5C 468.617,132.449 468.451,133.282 467.5,134C 459.424,134.805 457.424,131.638 461.5,124.5 Z"/></g>
<g><path style="opacity:1" fill="#ff724f" d="M 470.5,124.5 C 473.489,125.635 476.489,125.802 479.5,125C 480.451,128.057 480.784,131.223 480.5,134.5C 479.5,134.5 478.5,134.5 477.5,134.5C 477.5,131.833 477.5,129.167 477.5,126.5C 476.5,126.5 475.5,126.5 474.5,126.5C 474.5,129.167 474.5,131.833 474.5,134.5C 473.167,134.5 471.833,134.5 470.5,134.5C 470.5,131.167 470.5,127.833 470.5,124.5 Z"/></g>
<g><path style="opacity:1" fill="#fe5e42" d="M 10.5,124.5 C 11.6935,124.97 12.3601,125.97 12.5,127.5C 12.1667,128.5 11.8333,129.5 11.5,130.5C 10.5344,128.604 10.2011,126.604 10.5,124.5 Z"/></g>
<g><path style="opacity:1" fill="#fe5e42" d="M 803.5,124.5 C 804.693,124.97 805.36,125.97 805.5,127.5C 805.167,128.5 804.833,129.5 804.5,130.5C 803.534,128.604 803.201,126.604 803.5,124.5 Z"/></g>
<g><path style="opacity:1" fill="#ffedf4" d="M 362.5,126.5 C 363.5,126.5 364.5,126.5 365.5,126.5C 365.949,128.977 365.283,130.977 363.5,132.5C 361.261,130.867 360.928,128.867 362.5,126.5 Z"/></g>
<g><path style="opacity:1" fill="#ffeeed" d="M 374.5,126.5 C 375.756,126.461 376.756,126.961 377.5,128C 376.167,128.667 374.833,128.667 373.5,128C 374.056,127.617 374.389,127.117 374.5,126.5 Z"/></g>
<g><path style="opacity:1" fill="#fffbed" d="M 451.5,126.5 C 453.484,126.484 454.484,127.484 454.5,129.5C 453.167,133.5 451.833,133.5 450.5,129.5C 450.685,128.416 451.018,127.416 451.5,126.5 Z"/></g>
<g><path style="opacity:1" fill="#ffefe8" d="M 463.5,126.5 C 464.756,126.461 465.756,126.961 466.5,128C 465.167,128.667 463.833,128.667 462.5,128C 463.056,127.617 463.389,127.117 463.5,126.5 Z"/></g>
<g><path style="opacity:1" fill="#fff9ee" d="M 439.5,130.5 C 442.797,130.329 443.131,130.995 440.5,132.5C 439.702,132.043 439.369,131.376 439.5,130.5 Z"/></g>
<g><path style="opacity:1" fill="#fe6045" d="M 10.5,136.5 C 11.6935,136.97 12.3601,137.97 12.5,139.5C 12.1667,140.5 11.8333,141.5 11.5,142.5C 10.5344,140.604 10.2011,138.604 10.5,136.5 Z"/></g>
<g><path style="opacity:1" fill="#fe6045" d="M 803.5,136.5 C 804.693,136.97 805.36,137.97 805.5,139.5C 805.167,140.5 804.833,141.5 804.5,142.5C 803.534,140.604 803.201,138.604 803.5,136.5 Z"/></g>
<g><path style="opacity:1" fill="#fe6448" d="M 10.5,148.5 C 11.6935,148.97 12.3601,149.97 12.5,151.5C 12.1667,152.5 11.8333,153.5 11.5,154.5C 10.5344,152.604 10.2011,150.604 10.5,148.5 Z"/></g>
<g><path style="opacity:1" fill="#fe6448" d="M 803.5,148.5 C 804.693,148.97 805.36,149.97 805.5,151.5C 805.167,152.5 804.833,153.5 804.5,154.5C 803.534,152.604 803.201,150.604 803.5,148.5 Z"/></g>
<g><path style="opacity:1" fill="#fe674b" d="M 10.5,160.5 C 11.6935,160.97 12.3601,161.97 12.5,163.5C 12.1667,164.5 11.8333,165.5 11.5,166.5C 10.5344,164.604 10.2011,162.604 10.5,160.5 Z"/></g>
<g><path style="opacity:1" fill="#fe674b" d="M 803.5,160.5 C 804.693,160.97 805.36,161.97 805.5,163.5C 805.167,164.5 804.833,165.5 804.5,166.5C 803.534,164.604 803.201,162.604 803.5,160.5 Z"/></g>
<g><path style="opacity:1" fill="#fd5d40" d="M 10.5,172.5 C 11.6491,172.791 12.3158,173.624 12.5,175C 12.1667,175.833 11.8333,176.667 11.5,177.5C 10.5481,175.955 10.2148,174.288 10.5,172.5 Z"/></g>
<g><path style="opacity:1" fill="#fd5d40" d="M 803.5,172.5 C 804.649,172.791 805.316,173.624 805.5,175C 805.167,175.833 804.833,176.667 804.5,177.5C 803.548,175.955 803.215,174.288 803.5,172.5 Z"/></g>
<g><path style="opacity:1" fill="#fe674b" d="M 10.5,183.5 C 11.6935,183.97 12.3601,184.97 12.5,186.5C 12.1667,187.5 11.8333,188.5 11.5,189.5C 10.5344,187.604 10.2011,185.604 10.5,183.5 Z"/></g>
<g><path style="opacity:1" fill="#fe674b" d="M 803.5,183.5 C 804.693,183.97 805.36,184.97 805.5,186.5C 805.167,187.5 804.833,188.5 804.5,189.5C 803.534,187.604 803.201,185.604 803.5,183.5 Z"/></g>
<g><path style="opacity:1" fill="#fe6448" d="M 10.5,195.5 C 11.6935,195.97 12.3601,196.97 12.5,198.5C 12.1667,199.5 11.8333,200.5 11.5,201.5C 10.5344,199.604 10.2011,197.604 10.5,195.5 Z"/></g>
<g><path style="opacity:1" fill="#fe6448" d="M 803.5,195.5 C 804.693,195.97 805.36,196.97 805.5,198.5C 805.167,199.5 804.833,200.5 804.5,201.5C 803.534,199.604 803.201,197.604 803.5,195.5 Z"/></g>
<g><path style="opacity:1" fill="#fe6045" d="M 10.5,207.5 C 11.6935,207.97 12.3601,208.97 12.5,210.5C 12.1667,211.5 11.8333,212.5 11.5,213.5C 10.5344,211.604 10.2011,209.604 10.5,207.5 Z"/></g>
<g><path style="opacity:1" fill="#fe6045" d="M 803.5,207.5 C 804.693,207.97 805.36,208.97 805.5,210.5C 805.167,211.5 804.833,212.5 804.5,213.5C 803.534,211.604 803.201,209.604 803.5,207.5 Z"/></g>
<g><path style="opacity:1" fill="#fe5e42" d="M 10.5,219.5 C 11.6935,219.97 12.3601,220.97 12.5,222.5C 12.1667,223.5 11.8333,224.5 11.5,225.5C 10.5344,223.604 10.2011,221.604 10.5,219.5 Z"/></g>
<g><path style="opacity:1" fill="#fe5e42" d="M 803.5,219.5 C 804.693,219.97 805.36,220.97 805.5,222.5C 805.167,223.5 804.833,224.5 804.5,225.5C 803.534,223.604 803.201,221.604 803.5,219.5 Z"/></g>
<g><path style="opacity:1" fill="#fe6045" d="M 10.5,231.5 C 11.6935,231.97 12.3601,232.97 12.5,234.5C 12.1667,235.5 11.8333,236.5 11.5,237.5C 10.5344,235.604 10.2011,233.604 10.5,231.5 Z"/></g>
<g><path style="opacity:1" fill="#fe6045" d="M 803.5,231.5 C 804.693,231.97 805.36,232.97 805.5,234.5C 805.167,235.5 804.833,236.5 804.5,237.5C 803.534,235.604 803.201,233.604 803.5,231.5 Z"/></g>
<g><path style="opacity:1" fill="#fe5d41" d="M 371.5,233.5 C 387.503,233.333 403.503,233.5 419.5,234C 427.984,241.65 436.318,249.484 444.5,257.5C 445.5,279.49 445.833,301.49 445.5,323.5C 420.833,323.5 396.167,323.5 371.5,323.5C 371.5,293.5 371.5,263.5 371.5,233.5 Z"/></g>
<g><path style="opacity:1" fill="#fffefe" d="M 373.5,235.5 C 388.833,235.5 404.167,235.5 419.5,235.5C 419.5,243.5 419.5,251.5 419.5,259.5C 427.5,259.5 435.5,259.5 443.5,259.5C 443.5,280.167 443.5,300.833 443.5,321.5C 420.167,321.5 396.833,321.5 373.5,321.5C 373.5,292.833 373.5,264.167 373.5,235.5 Z"/></g>
<g><path style="opacity:1" fill="#fff8f7" d="M 422.5,238.5 C 428.833,244.167 434.833,250.167 440.5,256.5C 434.355,257.49 428.022,257.823 421.5,257.5C 421.177,250.978 421.51,244.645 422.5,238.5 Z"/></g>
<g><path style="opacity:1" fill="#fe6448" d="M 10.5,243.5 C 11.6935,243.97 12.3601,244.97 12.5,246.5C 12.1667,247.5 11.8333,248.5 11.5,249.5C 10.5344,247.604 10.2011,245.604 10.5,243.5 Z"/></g>
<g><path style="opacity:1" fill="#fe6448" d="M 803.5,243.5 C 804.693,243.97 805.36,244.97 805.5,246.5C 805.167,247.5 804.833,248.5 804.5,249.5C 803.534,247.604 803.201,245.604 803.5,243.5 Z"/></g>
<g><path style="opacity:1" fill="#fe674b" d="M 10.5,255.5 C 11.6935,255.97 12.3601,256.97 12.5,258.5C 12.1667,259.5 11.8333,260.5 11.5,261.5C 10.5344,259.604 10.2011,257.604 10.5,255.5 Z"/></g>
<g><path style="opacity:1" fill="#fe674b" d="M 803.5,255.5 C 804.693,255.97 805.36,256.97 805.5,258.5C 805.167,259.5 804.833,260.5 804.5,261.5C 803.534,259.604 803.201,257.604 803.5,255.5 Z"/></g>
<g><path style="opacity:1" fill="#feac9e" d="M 422.5,238.5 C 421.51,244.645 421.177,250.978 421.5,257.5C 428.022,257.823 434.355,257.49 440.5,256.5C 441.043,256.56 441.376,256.893 441.5,257.5C 434.532,258.497 427.532,258.83 420.5,258.5C 420.17,251.468 420.503,244.468 421.5,237.5C 422.107,237.624 422.44,237.957 422.5,238.5 Z"/></g>
<g><path style="opacity:1" fill="#fd5d40" d="M 386.5,260.5 C 393.2,260.17 399.866,260.503 406.5,261.5C 403.167,261.833 399.833,262.167 396.5,262.5C 392.761,262.486 389.428,261.82 386.5,260.5 Z"/></g>
<g><path style="opacity:1" fill="#fd5d40" d="M 10.5,267.5 C 11.6491,267.791 12.3158,268.624 12.5,270C 12.1667,270.833 11.8333,271.667 11.5,272.5C 10.5481,270.955 10.2148,269.288 10.5,267.5 Z"/></g>
<g><path style="opacity:1" fill="#fd5d40" d="M 803.5,267.5 C 804.649,267.791 805.316,268.624 805.5,270C 805.167,270.833 804.833,271.667 804.5,272.5C 803.548,270.955 803.215,269.288 803.5,267.5 Z"/></g>
<g><path style="opacity:1" fill="#fe674b" d="M 10.5,278.5 C 11.6935,278.97 12.3601,279.97 12.5,281.5C 12.1667,282.5 11.8333,283.5 11.5,284.5C 10.5344,282.604 10.2011,280.604 10.5,278.5 Z"/></g>
<g><path style="opacity:1" fill="#fe674b" d="M 803.5,278.5 C 804.693,278.97 805.36,279.97 805.5,281.5C 805.167,282.5 804.833,283.5 804.5,284.5C 803.534,282.604 803.201,280.604 803.5,278.5 Z"/></g>
<g><path style="opacity:1" fill="#fe6448" d="M 10.5,290.5 C 11.6935,290.97 12.3601,291.97 12.5,293.5C 12.1667,294.5 11.8333,295.5 11.5,296.5C 10.5344,294.604 10.2011,292.604 10.5,290.5 Z"/></g>
<g><path style="opacity:1" fill="#fe6448" d="M 803.5,290.5 C 804.693,290.97 805.36,291.97 805.5,293.5C 805.167,294.5 804.833,295.5 804.5,296.5C 803.534,294.604 803.201,292.604 803.5,290.5 Z"/></g>
<g><path style="opacity:1" fill="#fe6045" d="M 10.5,302.5 C 11.6935,302.97 12.3601,303.97 12.5,305.5C 12.1667,306.5 11.8333,307.5 11.5,308.5C 10.5344,306.604 10.2011,304.604 10.5,302.5 Z"/></g>
<g><path style="opacity:1" fill="#fe6045" d="M 803.5,302.5 C 804.693,302.97 805.36,303.97 805.5,305.5C 805.167,306.5 804.833,307.5 804.5,308.5C 803.534,306.604 803.201,304.604 803.5,302.5 Z"/></g>
<g><path style="opacity:1" fill="#fe5e42" d="M 10.5,314.5 C 11.6935,314.97 12.3601,315.97 12.5,317.5C 12.1667,318.5 11.8333,319.5 11.5,320.5C 10.5344,318.604 10.2011,316.604 10.5,314.5 Z"/></g>
<g><path style="opacity:1" fill="#fe5e42" d="M 803.5,314.5 C 804.693,314.97 805.36,315.97 805.5,317.5C 805.167,318.5 804.833,319.5 804.5,320.5C 803.534,318.604 803.201,316.604 803.5,314.5 Z"/></g>
<g><path style="opacity:1" fill="#fe6045" d="M 10.5,326.5 C 11.6935,326.97 12.3601,327.97 12.5,329.5C 12.1667,330.5 11.8333,331.5 11.5,332.5C 10.5344,330.604 10.2011,328.604 10.5,326.5 Z"/></g>
<g><path style="opacity:1" fill="#fe6045" d="M 803.5,326.5 C 804.693,326.97 805.36,327.97 805.5,329.5C 805.167,330.5 804.833,331.5 804.5,332.5C 803.534,330.604 803.201,328.604 803.5,326.5 Z"/></g>
<g><path style="opacity:1" fill="#fe6448" d="M 10.5,338.5 C 11.6935,338.97 12.3601,339.97 12.5,341.5C 12.1667,342.5 11.8333,343.5 11.5,344.5C 10.5344,342.604 10.2011,340.604 10.5,338.5 Z"/></g>
<g><path style="opacity:1" fill="#fe6448" d="M 803.5,338.5 C 804.693,338.97 805.36,339.97 805.5,341.5C 805.167,342.5 804.833,343.5 804.5,344.5C 803.534,342.604 803.201,340.604 803.5,338.5 Z"/></g>
<g><path style="opacity:1" fill="#fe674b" d="M 10.5,350.5 C 11.6935,350.97 12.3601,351.97 12.5,353.5C 12.1667,354.5 11.8333,355.5 11.5,356.5C 10.5344,354.604 10.2011,352.604 10.5,350.5 Z"/></g>
<g><path style="opacity:1" fill="#fe674b" d="M 803.5,350.5 C 804.693,350.97 805.36,351.97 805.5,353.5C 805.167,354.5 804.833,355.5 804.5,356.5C 803.534,354.604 803.201,352.604 803.5,350.5 Z"/></g>
<g><path style="opacity:1" fill="#fd5d40" d="M 10.5,362.5 C 11.6491,362.791 12.3158,363.624 12.5,365C 12.1667,365.833 11.8333,366.667 11.5,367.5C 10.5481,365.955 10.2148,364.288 10.5,362.5 Z"/></g>
<g><path style="opacity:1" fill="#fd5d40" d="M 803.5,362.5 C 804.649,362.791 805.316,363.624 805.5,365C 805.167,365.833 804.833,366.667 804.5,367.5C 803.548,365.955 803.215,364.288 803.5,362.5 Z"/></g>
<g><path style="opacity:1" fill="#fe674b" d="M 10.5,373.5 C 11.6935,373.97 12.3601,374.97 12.5,376.5C 12.1667,377.5 11.8333,378.5 11.5,379.5C 10.5344,377.604 10.2011,375.604 10.5,373.5 Z"/></g>
<g><path style="opacity:1" fill="#fe674b" d="M 803.5,373.5 C 804.693,373.97 805.36,374.97 805.5,376.5C 805.167,377.5 804.833,378.5 804.5,379.5C 803.534,377.604 803.201,375.604 803.5,373.5 Z"/></g>
<g><path style="opacity:1" fill="#fe6448" d="M 10.5,385.5 C 11.6935,385.97 12.3601,386.97 12.5,388.5C 12.1667,389.5 11.8333,390.5 11.5,391.5C 10.5344,389.604 10.2011,387.604 10.5,385.5 Z"/></g>
<g><path style="opacity:1" fill="#fe6448" d="M 803.5,385.5 C 804.693,385.97 805.36,386.97 805.5,388.5C 805.167,389.5 804.833,390.5 804.5,391.5C 803.534,389.604 803.201,387.604 803.5,385.5 Z"/></g>
<g><path style="opacity:1" fill="#fe6045" d="M 10.5,397.5 C 11.6935,397.97 12.3601,398.97 12.5,400.5C 12.1667,401.5 11.8333,402.5 11.5,403.5C 10.5344,401.604 10.2011,399.604 10.5,397.5 Z"/></g>
<g><path style="opacity:1" fill="#fe6045" d="M 803.5,397.5 C 804.693,397.97 805.36,398.97 805.5,400.5C 805.167,401.5 804.833,402.5 804.5,403.5C 803.534,401.604 803.201,399.604 803.5,397.5 Z"/></g>
<g><path style="opacity:1" fill="#fe6347" d="M 803.5,409.5 C 804.649,409.791 805.316,410.624 805.5,412C 805.167,412.833 804.833,413.667 804.5,414.5C 803.548,412.955 803.215,411.288 803.5,409.5 Z"/></g>
<g><path style="opacity:1" fill="#fe674c" d="M 10.5,409.5 C 11.6491,409.791 12.3158,410.624 12.5,412C 12.1667,412.833 11.8333,413.667 11.5,414.5C 10.5481,412.955 10.2148,411.288 10.5,409.5 Z"/></g>
<g><path style="opacity:1" fill="#fe6c51" d="M 12.5,417.5 C 13.9953,417.415 14.9953,418.081 15.5,419.5C 13.6043,420.639 12.6043,419.973 12.5,417.5 Z"/></g>
<g><path style="opacity:1" fill="#ff7359" d="M 801.5,417.5 C 804.012,418.216 804.012,419.216 801.5,420.5C 800.438,419.575 800.438,418.575 801.5,417.5 Z"/></g>
<g><path style="opacity:1" fill="#fe6247" d="M 18.5,420.5 C 20.288,420.215 21.9547,420.548 23.5,421.5C 22.6667,421.833 21.8333,422.167 21,422.5C 19.6244,422.316 18.7911,421.649 18.5,420.5 Z"/></g>
<g><path style="opacity:1" fill="#fe5f43" d="M 29.5,420.5 C 31.604,420.201 33.604,420.534 35.5,421.5C 34.5,421.833 33.5,422.167 32.5,422.5C 30.9704,422.36 29.9704,421.693 29.5,420.5 Z"/></g>
<g><path style="opacity:1" fill="#fe6145" d="M 41.5,420.5 C 43.604,420.201 45.604,420.534 47.5,421.5C 46.5,421.833 45.5,422.167 44.5,422.5C 42.9704,422.36 41.9704,421.693 41.5,420.5 Z"/></g>
<g><path style="opacity:1" fill="#fe6347" d="M 53.5,420.5 C 55.604,420.201 57.604,420.534 59.5,421.5C 58.5,421.833 57.5,422.167 56.5,422.5C 54.9704,422.36 53.9704,421.693 53.5,420.5 Z"/></g>
<g><path style="opacity:1" fill="#fe6549" d="M 65.5,420.5 C 67.604,420.201 69.604,420.534 71.5,421.5C 70.5,421.833 69.5,422.167 68.5,422.5C 66.9704,422.36 65.9704,421.693 65.5,420.5 Z"/></g>
<g><path style="opacity:1" fill="#fe674b" d="M 77.5,420.5 C 79.604,420.201 81.604,420.534 83.5,421.5C 82.5,421.833 81.5,422.167 80.5,422.5C 78.9704,422.36 77.9704,421.693 77.5,420.5 Z"/></g>
<g><path style="opacity:1" fill="#fd5d40" d="M 89.5,420.5 C 91.288,420.215 92.9547,420.548 94.5,421.5C 93.6667,421.833 92.8333,422.167 92,422.5C 90.6244,422.316 89.7911,421.649 89.5,420.5 Z"/></g>
<g><path style="opacity:1" fill="#fd5d40" d="M 101.5,420.5 C 103.288,420.215 104.955,420.548 106.5,421.5C 105.667,421.833 104.833,422.167 104,422.5C 102.624,422.316 101.791,421.649 101.5,420.5 Z"/></g>
<g><path style="opacity:1" fill="#fe674b" d="M 112.5,420.5 C 114.604,420.201 116.604,420.534 118.5,421.5C 117.5,421.833 116.5,422.167 115.5,422.5C 113.97,422.36 112.97,421.693 112.5,420.5 Z"/></g>
<g><path style="opacity:1" fill="#fe6549" d="M 124.5,420.5 C 126.604,420.201 128.604,420.534 130.5,421.5C 129.5,421.833 128.5,422.167 127.5,422.5C 125.97,422.36 124.97,421.693 124.5,420.5 Z"/></g>
<g><path style="opacity:1" fill="#fe6347" d="M 136.5,420.5 C 138.604,420.201 140.604,420.534 142.5,421.5C 141.5,421.833 140.5,422.167 139.5,422.5C 137.97,422.36 136.97,421.693 136.5,420.5 Z"/></g>
<g><path style="opacity:1" fill="#fe6145" d="M 148.5,420.5 C 150.604,420.201 152.604,420.534 154.5,421.5C 153.5,421.833 152.5,422.167 151.5,422.5C 149.97,422.36 148.97,421.693 148.5,420.5 Z"/></g>
<g><path style="opacity:1" fill="#fe5f43" d="M 160.5,420.5 C 162.604,420.201 164.604,420.534 166.5,421.5C 165.5,421.833 164.5,422.167 163.5,422.5C 161.97,422.36 160.97,421.693 160.5,420.5 Z"/></g>
<g><path style="opacity:1" fill="#fe5d41" d="M 172.5,420.5 C 174.604,420.201 176.604,420.534 178.5,421.5C 177.5,421.833 176.5,422.167 175.5,422.5C 173.97,422.36 172.97,421.693 172.5,420.5 Z"/></g>
<g><path style="opacity:1" fill="#fe5f43" d="M 184.5,420.5 C 186.604,420.201 188.604,420.534 190.5,421.5C 189.5,421.833 188.5,422.167 187.5,422.5C 185.97,422.36 184.97,421.693 184.5,420.5 Z"/></g>
<g><path style="opacity:1" fill="#fe6145" d="M 196.5,420.5 C 198.604,420.201 200.604,420.534 202.5,421.5C 201.5,421.833 200.5,422.167 199.5,422.5C 197.97,422.36 196.97,421.693 196.5,420.5 Z"/></g>
<g><path style="opacity:1" fill="#fe6347" d="M 208.5,420.5 C 210.604,420.201 212.604,420.534 214.5,421.5C 213.5,421.833 212.5,422.167 211.5,422.5C 209.97,422.36 208.97,421.693 208.5,420.5 Z"/></g>
<g><path style="opacity:1" fill="#fe6549" d="M 220.5,420.5 C 222.604,420.201 224.604,420.534 226.5,421.5C 225.5,421.833 224.5,422.167 223.5,422.5C 221.97,422.36 220.97,421.693 220.5,420.5 Z"/></g>
<g><path style="opacity:1" fill="#fe674b" d="M 232.5,420.5 C 234.604,420.201 236.604,420.534 238.5,421.5C 237.5,421.833 236.5,422.167 235.5,422.5C 233.97,422.36 232.97,421.693 232.5,420.5 Z"/></g>
<g><path style="opacity:1" fill="#fd5d40" d="M 244.5,420.5 C 246.288,420.215 247.955,420.548 249.5,421.5C 248.667,421.833 247.833,422.167 247,422.5C 245.624,422.316 244.791,421.649 244.5,420.5 Z"/></g>
<g><path style="opacity:1" fill="#fd5d40" d="M 256.5,420.5 C 258.288,420.215 259.955,420.548 261.5,421.5C 260.667,421.833 259.833,422.167 259,422.5C 257.624,422.316 256.791,421.649 256.5,420.5 Z"/></g>
<g><path style="opacity:1" fill="#fe674b" d="M 267.5,420.5 C 269.604,420.201 271.604,420.534 273.5,421.5C 272.5,421.833 271.5,422.167 270.5,422.5C 268.97,422.36 267.97,421.693 267.5,420.5 Z"/></g>
<g><path style="opacity:1" fill="#fe6549" d="M 279.5,420.5 C 281.604,420.201 283.604,420.534 285.5,421.5C 284.5,421.833 283.5,422.167 282.5,422.5C 280.97,422.36 279.97,421.693 279.5,420.5 Z"/></g>
<g><path style="opacity:1" fill="#fe6347" d="M 291.5,420.5 C 293.604,420.201 295.604,420.534 297.5,421.5C 296.5,421.833 295.5,422.167 294.5,422.5C 292.97,422.36 291.97,421.693 291.5,420.5 Z"/></g>
<g><path style="opacity:1" fill="#fe6145" d="M 303.5,420.5 C 305.604,420.201 307.604,420.534 309.5,421.5C 308.5,421.833 307.5,422.167 306.5,422.5C 304.97,422.36 303.97,421.693 303.5,420.5 Z"/></g>
<g><path style="opacity:1" fill="#fe5f43" d="M 315.5,420.5 C 317.604,420.201 319.604,420.534 321.5,421.5C 320.5,421.833 319.5,422.167 318.5,422.5C 316.97,422.36 315.97,421.693 315.5,420.5 Z"/></g>
<g><path style="opacity:1" fill="#fe5d41" d="M 327.5,420.5 C 329.604,420.201 331.604,420.534 333.5,421.5C 332.5,421.833 331.5,422.167 330.5,422.5C 328.97,422.36 327.97,421.693 327.5,420.5 Z"/></g>
<g><path style="opacity:1" fill="#fe5f43" d="M 339.5,420.5 C 341.604,420.201 343.604,420.534 345.5,421.5C 344.5,421.833 343.5,422.167 342.5,422.5C 340.97,422.36 339.97,421.693 339.5,420.5 Z"/></g>
<g><path style="opacity:1" fill="#fe6145" d="M 351.5,420.5 C 353.604,420.201 355.604,420.534 357.5,421.5C 356.5,421.833 355.5,422.167 354.5,422.5C 352.97,422.36 351.97,421.693 351.5,420.5 Z"/></g>
<g><path style="opacity:1" fill="#fe6347" d="M 363.5,420.5 C 365.604,420.201 367.604,420.534 369.5,421.5C 368.5,421.833 367.5,422.167 366.5,422.5C 364.97,422.36 363.97,421.693 363.5,420.5 Z"/></g>
<g><path style="opacity:1" fill="#fe6549" d="M 375.5,420.5 C 377.604,420.201 379.604,420.534 381.5,421.5C 380.5,421.833 379.5,422.167 378.5,422.5C 376.97,422.36 375.97,421.693 375.5,420.5 Z"/></g>
<g><path style="opacity:1" fill="#fe674b" d="M 387.5,420.5 C 389.604,420.201 391.604,420.534 393.5,421.5C 392.5,421.833 391.5,422.167 390.5,422.5C 388.97,422.36 387.97,421.693 387.5,420.5 Z"/></g>
<g><path style="opacity:1" fill="#fd5d40" d="M 399.5,420.5 C 401.288,420.215 402.955,420.548 404.5,421.5C 403.667,421.833 402.833,422.167 402,422.5C 400.624,422.316 399.791,421.649 399.5,420.5 Z"/></g>
<g><path style="opacity:1" fill="#fd5d40" d="M 411.5,420.5 C 413.288,420.215 414.955,420.548 416.5,421.5C 415.667,421.833 414.833,422.167 414,422.5C 412.624,422.316 411.791,421.649 411.5,420.5 Z"/></g>
<g><path style="opacity:1" fill="#fe674b" d="M 422.5,420.5 C 424.604,420.201 426.604,420.534 428.5,421.5C 427.5,421.833 426.5,422.167 425.5,422.5C 423.97,422.36 422.97,421.693 422.5,420.5 Z"/></g>
<g><path style="opacity:1" fill="#fe6549" d="M 434.5,420.5 C 436.604,420.201 438.604,420.534 440.5,421.5C 439.5,421.833 438.5,422.167 437.5,422.5C 435.97,422.36 434.97,421.693 434.5,420.5 Z"/></g>
<g><path style="opacity:1" fill="#fe6347" d="M 446.5,420.5 C 448.604,420.201 450.604,420.534 452.5,421.5C 451.5,421.833 450.5,422.167 449.5,422.5C 447.97,422.36 446.97,421.693 446.5,420.5 Z"/></g>
<g><path style="opacity:1" fill="#fe6145" d="M 458.5,420.5 C 460.604,420.201 462.604,420.534 464.5,421.5C 463.5,421.833 462.5,422.167 461.5,422.5C 459.97,422.36 458.97,421.693 458.5,420.5 Z"/></g>
<g><path style="opacity:1" fill="#fe5f43" d="M 470.5,420.5 C 472.604,420.201 474.604,420.534 476.5,421.5C 475.5,421.833 474.5,422.167 473.5,422.5C 471.97,422.36 470.97,421.693 470.5,420.5 Z"/></g>
<g><path style="opacity:1" fill="#fe5d41" d="M 482.5,420.5 C 484.604,420.201 486.604,420.534 488.5,421.5C 487.5,421.833 486.5,422.167 485.5,422.5C 483.97,422.36 482.97,421.693 482.5,420.5 Z"/></g>
<g><path style="opacity:1" fill="#fe5f43" d="M 494.5,420.5 C 496.604,420.201 498.604,420.534 500.5,421.5C 499.5,421.833 498.5,422.167 497.5,422.5C 495.97,422.36 494.97,421.693 494.5,420.5 Z"/></g>
<g><path style="opacity:1" fill="#fe6145" d="M 506.5,420.5 C 508.604,420.201 510.604,420.534 512.5,421.5C 511.5,421.833 510.5,422.167 509.5,422.5C 507.97,422.36 506.97,421.693 506.5,420.5 Z"/></g>
<g><path style="opacity:1" fill="#fe6347" d="M 518.5,420.5 C 520.604,420.201 522.604,420.534 524.5,421.5C 523.5,421.833 522.5,422.167 521.5,422.5C 519.97,422.36 518.97,421.693 518.5,420.5 Z"/></g>
<g><path style="opacity:1" fill="#fe6549" d="M 530.5,420.5 C 532.604,420.201 534.604,420.534 536.5,421.5C 535.5,421.833 534.5,422.167 533.5,422.5C 531.97,422.36 530.97,421.693 530.5,420.5 Z"/></g>
<g><path style="opacity:1" fill="#fe674b" d="M 542.5,420.5 C 544.604,420.201 546.604,420.534 548.5,421.5C 547.5,421.833 546.5,422.167 545.5,422.5C 543.97,422.36 542.97,421.693 542.5,420.5 Z"/></g>
<g><path style="opacity:1" fill="#fd5d40" d="M 554.5,420.5 C 556.288,420.215 557.955,420.548 559.5,421.5C 558.667,421.833 557.833,422.167 557,422.5C 555.624,422.316 554.791,421.649 554.5,420.5 Z"/></g>
<g><path style="opacity:1" fill="#fd5d40" d="M 566.5,420.5 C 568.288,420.215 569.955,420.548 571.5,421.5C 570.667,421.833 569.833,422.167 569,422.5C 567.624,422.316 566.791,421.649 566.5,420.5 Z"/></g>
<g><path style="opacity:1" fill="#fe674b" d="M 577.5,420.5 C 579.604,420.201 581.604,420.534 583.5,421.5C 582.5,421.833 581.5,422.167 580.5,422.5C 578.97,422.36 577.97,421.693 577.5,420.5 Z"/></g>
<g><path style="opacity:1" fill="#fe6549" d="M 589.5,420.5 C 591.604,420.201 593.604,420.534 595.5,421.5C 594.5,421.833 593.5,422.167 592.5,422.5C 590.97,422.36 589.97,421.693 589.5,420.5 Z"/></g>
<g><path style="opacity:1" fill="#fe6347" d="M 601.5,420.5 C 603.604,420.201 605.604,420.534 607.5,421.5C 606.5,421.833 605.5,422.167 604.5,422.5C 602.97,422.36 601.97,421.693 601.5,420.5 Z"/></g>
<g><path style="opacity:1" fill="#fe6145" d="M 613.5,420.5 C 615.604,420.201 617.604,420.534 619.5,421.5C 618.5,421.833 617.5,422.167 616.5,422.5C 614.97,422.36 613.97,421.693 613.5,420.5 Z"/></g>
<g><path style="opacity:1" fill="#fe5f43" d="M 625.5,420.5 C 627.604,420.201 629.604,420.534 631.5,421.5C 630.5,421.833 629.5,422.167 628.5,422.5C 626.97,422.36 625.97,421.693 625.5,420.5 Z"/></g>
<g><path style="opacity:1" fill="#fe5d41" d="M 637.5,420.5 C 639.604,420.201 641.604,420.534 643.5,421.5C 642.5,421.833 641.5,422.167 640.5,422.5C 638.97,422.36 637.97,421.693 637.5,420.5 Z"/></g>
<g><path style="opacity:1" fill="#fe5f43" d="M 649.5,420.5 C 651.604,420.201 653.604,420.534 655.5,421.5C 654.5,421.833 653.5,422.167 652.5,422.5C 650.97,422.36 649.97,421.693 649.5,420.5 Z"/></g>
<g><path style="opacity:1" fill="#fe6145" d="M 661.5,420.5 C 663.604,420.201 665.604,420.534 667.5,421.5C 666.5,421.833 665.5,422.167 664.5,422.5C 662.97,422.36 661.97,421.693 661.5,420.5 Z"/></g>
<g><path style="opacity:1" fill="#fe6347" d="M 673.5,420.5 C 675.604,420.201 677.604,420.534 679.5,421.5C 678.5,421.833 677.5,422.167 676.5,422.5C 674.97,422.36 673.97,421.693 673.5,420.5 Z"/></g>
<g><path style="opacity:1" fill="#fe6549" d="M 685.5,420.5 C 687.604,420.201 689.604,420.534 691.5,421.5C 690.5,421.833 689.5,422.167 688.5,422.5C 686.97,422.36 685.97,421.693 685.5,420.5 Z"/></g>
<g><path style="opacity:1" fill="#fe674b" d="M 697.5,420.5 C 699.604,420.201 701.604,420.534 703.5,421.5C 702.5,421.833 701.5,422.167 700.5,422.5C 698.97,422.36 697.97,421.693 697.5,420.5 Z"/></g>
<g><path style="opacity:1" fill="#fd5d40" d="M 709.5,420.5 C 711.288,420.215 712.955,420.548 714.5,421.5C 713.667,421.833 712.833,422.167 712,422.5C 710.624,422.316 709.791,421.649 709.5,420.5 Z"/></g>
<g><path style="opacity:1" fill="#fd5d40" d="M 721.5,420.5 C 723.288,420.215 724.955,420.548 726.5,421.5C 725.667,421.833 724.833,422.167 724,422.5C 722.624,422.316 721.791,421.649 721.5,420.5 Z"/></g>
<g><path style="opacity:1" fill="#fe674b" d="M 732.5,420.5 C 734.604,420.201 736.604,420.534 738.5,421.5C 737.5,421.833 736.5,422.167 735.5,422.5C 733.97,422.36 732.97,421.693 732.5,420.5 Z"/></g>
<g><path style="opacity:1" fill="#fe6549" d="M 744.5,420.5 C 746.604,420.201 748.604,420.534 750.5,421.5C 749.5,421.833 748.5,422.167 747.5,422.5C 745.97,422.36 744.97,421.693 744.5,420.5 Z"/></g>
<g><path style="opacity:1" fill="#fe6347" d="M 756.5,420.5 C 758.604,420.201 760.604,420.534 762.5,421.5C 761.5,421.833 760.5,422.167 759.5,422.5C 757.97,422.36 756.97,421.693 756.5,420.5 Z"/></g>
<g><path style="opacity:1" fill="#fe6145" d="M 768.5,420.5 C 770.604,420.201 772.604,420.534 774.5,421.5C 773.5,421.833 772.5,422.167 771.5,422.5C 769.97,422.36 768.97,421.693 768.5,420.5 Z"/></g>
<g><path style="opacity:1" fill="#fe5f43" d="M 780.5,420.5 C 782.604,420.201 784.604,420.534 786.5,421.5C 785.5,421.833 784.5,422.167 783.5,422.5C 781.97,422.36 780.97,421.693 780.5,420.5 Z"/></g>
<g><path style="opacity:1" fill="#fe6247" d="M 792.5,420.5 C 794.288,420.215 795.955,420.548 797.5,421.5C 796.667,421.833 795.833,422.167 795,422.5C 793.624,422.316 792.791,421.649 792.5,420.5 Z"/></g>
<g><path style="opacity:1" fill="#fe6145" d="M 311.5,479.5 C 308.842,486.313 303.842,490.48 296.5,492C 277.833,492.667 259.167,492.667 240.5,492C 242.535,489.02 244.202,485.853 245.5,482.5C 243.956,481.378 242.623,481.711 241.5,483.5C 240.377,481.711 239.044,481.378 237.5,482.5C 239.932,485.591 239.932,488.591 237.5,491.5C 227.517,492.666 217.517,492.832 207.5,492C 200.72,490.046 196.053,485.88 193.5,479.5C 190.478,468.053 194.145,459.553 204.5,454C 220.269,452.856 236.102,452.356 252,452.5C 266.833,452.667 281.667,452.833 296.5,453C 309.649,457.125 314.649,465.959 311.5,479.5 Z"/></g>
<g><path style="opacity:1" fill="#fe6146" d="M 622.5,479.5 C 619.842,486.313 614.842,490.48 607.5,492C 577.833,492.667 548.167,492.667 518.5,492C 511.72,490.046 507.053,485.88 504.5,479.5C 501.478,468.053 505.145,459.553 515.5,454C 531.269,452.856 547.102,452.356 563,452.5C 577.833,452.667 592.667,452.833 607.5,453C 620.649,457.125 625.649,465.959 622.5,479.5 Z"/></g>
<g><path style="opacity:1" fill="#fff5f4" d="M 225.5,460.5 C 227.527,460.338 229.527,460.505 231.5,461C 234.401,465.317 233.067,467.484 227.5,467.5C 227.762,468.978 227.429,470.311 226.5,471.5C 225.511,467.893 225.177,464.226 225.5,460.5 Z"/></g>
<g><path style="opacity:1" fill="#fffeed" d="M 234.5,460.5 C 235.787,461.871 236.453,463.705 236.5,466C 236.167,467.833 235.833,469.667 235.5,471.5C 234.511,467.893 234.177,464.226 234.5,460.5 Z"/></g>
<g><path style="opacity:1" fill="#fffeed" d="M 261.5,460.5 C 263.337,460.639 263.67,461.306 262.5,462.5C 261.702,462.043 261.369,461.376 261.5,460.5 Z"/></g>
<g><path style="opacity:1" fill="#fffeed" d="M 265.5,460.5 C 266.787,461.871 267.453,463.705 267.5,466C 267.167,467.833 266.833,469.667 266.5,471.5C 265.511,467.893 265.177,464.226 265.5,460.5 Z"/></g>
<g><path style="opacity:1" fill="#fffeed" d="M 269.5,460.5 C 270.787,461.871 271.453,463.705 271.5,466C 271.167,467.833 270.833,469.667 270.5,471.5C 269.511,467.893 269.177,464.226 269.5,460.5 Z"/></g>
<g><path style="opacity:1" fill="#fff5f4" d="M 536.5,460.5 C 538.527,460.338 540.527,460.505 542.5,461C 545.401,465.317 544.067,467.484 538.5,467.5C 538.762,468.978 538.429,470.311 537.5,471.5C 536.511,467.893 536.177,464.226 536.5,460.5 Z"/></g>
<g><path style="opacity:1" fill="#fffeed" d="M 545.5,460.5 C 546.787,461.871 547.453,463.705 547.5,466C 547.167,467.833 546.833,469.667 546.5,471.5C 545.511,467.893 545.177,464.226 545.5,460.5 Z"/></g>
<g><path style="opacity:1" fill="#fffeed" d="M 572.5,460.5 C 574.337,460.639 574.67,461.306 573.5,462.5C 572.702,462.043 572.369,461.376 572.5,460.5 Z"/></g>
<g><path style="opacity:1" fill="#fffeed" d="M 576.5,460.5 C 577.787,461.871 578.453,463.705 578.5,466C 578.167,467.833 577.833,469.667 577.5,471.5C 576.511,467.893 576.177,464.226 576.5,460.5 Z"/></g>
<g><path style="opacity:1" fill="#fffeed" d="M 580.5,460.5 C 581.787,461.871 582.453,463.705 582.5,466C 582.167,467.833 581.833,469.667 581.5,471.5C 580.511,467.893 580.177,464.226 580.5,460.5 Z"/></g>
<g><path style="opacity:1" fill="#ffe9ec" d="M 255.5,461.5 C 257.59,461.45 258.923,462.45 259.5,464.5C 258.167,466.5 258.167,468.5 259.5,470.5C 258.349,471.731 257.183,471.731 256,470.5C 254.937,467.432 254.77,464.432 255.5,461.5 Z"/></g>
<g><path style="opacity:1" fill="#ffe9ec" d="M 566.5,461.5 C 568.59,461.45 569.923,462.45 570.5,464.5C 569.167,466.5 569.167,468.5 570.5,470.5C 569.349,471.731 568.183,471.731 567,470.5C 565.937,467.432 565.77,464.432 566.5,461.5 Z"/></g>
<g><path style="opacity:1" fill="#ff765c" d="M 227.5,462.5 C 228.5,462.5 229.5,462.5 230.5,462.5C 230.5,463.5 230.5,464.5 230.5,465.5C 229.5,465.5 228.5,465.5 227.5,465.5C 227.5,464.5 227.5,463.5 227.5,462.5 Z"/></g>
<g><path style="opacity:1" fill="#ff765c" d="M 538.5,462.5 C 539.5,462.5 540.5,462.5 541.5,462.5C 541.5,463.5 541.5,464.5 541.5,465.5C 540.5,465.5 539.5,465.5 538.5,465.5C 538.5,464.5 538.5,463.5 538.5,462.5 Z"/></g>
<g><path style="opacity:1" fill="#fff5f6" d="M 238.5,463.5 C 244.367,463.206 246.033,465.872 243.5,471.5C 241.722,471.431 239.889,471.097 238,470.5C 237.411,467.21 238.911,465.71 242.5,466C 240.563,465.878 239.23,465.045 238.5,463.5 Z"/></g>
<g><path style="opacity:1" fill="#fffefa" d="M 246.5,463.5 C 248.611,463.772 250.777,464.105 253,464.5C 253.814,466.902 253.647,469.235 252.5,471.5C 251.534,469.604 251.201,467.604 251.5,465.5C 250.5,465.5 249.5,465.5 248.5,465.5C 248.799,467.604 248.466,469.604 247.5,471.5C 246.52,468.914 246.187,466.247 246.5,463.5 Z"/></g>
<g><path style="opacity:1" fill="#fffeed" d="M 261.5,463.5 C 262.748,464.334 263.415,465.667 263.5,467.5C 263.167,468.833 262.833,470.167 262.5,471.5C 261.52,468.914 261.187,466.247 261.5,463.5 Z"/></g>
<g><path style="opacity:1" fill="#fff5f6" d="M 273.5,463.5 C 279.367,463.206 281.033,465.872 278.5,471.5C 276.722,471.431 274.889,471.097 273,470.5C 272.411,467.21 273.911,465.71 277.5,466C 275.563,465.878 274.23,465.045 273.5,463.5 Z"/></g>
<g><path style="opacity:1" fill="#fff5f6" d="M 549.5,463.5 C 555.367,463.206 557.033,465.872 554.5,471.5C 552.722,471.431 550.889,471.097 549,470.5C 548.411,467.21 549.911,465.71 553.5,466C 551.563,465.878 550.23,465.045 549.5,463.5 Z"/></g>
<g><path style="opacity:1" fill="#fffefa" d="M 557.5,463.5 C 559.611,463.772 561.777,464.105 564,464.5C 564.814,466.902 564.647,469.235 563.5,471.5C 562.534,469.604 562.201,467.604 562.5,465.5C 561.5,465.5 560.5,465.5 559.5,465.5C 559.799,467.604 559.466,469.604 558.5,471.5C 557.52,468.914 557.187,466.247 557.5,463.5 Z"/></g>
<g><path style="opacity:1" fill="#fffeed" d="M 572.5,463.5 C 573.748,464.334 574.415,465.667 574.5,467.5C 574.167,468.833 573.833,470.167 573.5,471.5C 572.52,468.914 572.187,466.247 572.5,463.5 Z"/></g>
<g><path style="opacity:1" fill="#fff5f6" d="M 584.5,463.5 C 590.367,463.206 592.033,465.872 589.5,471.5C 587.722,471.431 585.889,471.097 584,470.5C 583.411,467.21 584.911,465.71 588.5,466C 586.563,465.878 585.23,465.045 584.5,463.5 Z"/></g>
<g><path style="opacity:1" fill="#ff7886" d="M 240.5,467.5 C 242.337,467.639 242.67,468.306 241.5,469.5C 240.702,469.043 240.369,468.376 240.5,467.5 Z"/></g>
<g><path style="opacity:1" fill="#ff7886" d="M 275.5,467.5 C 277.337,467.639 277.67,468.306 276.5,469.5C 275.702,469.043 275.369,468.376 275.5,467.5 Z"/></g>
<g><path style="opacity:1" fill="#ff7886" d="M 551.5,467.5 C 553.337,467.639 553.67,468.306 552.5,469.5C 551.702,469.043 551.369,468.376 551.5,467.5 Z"/></g>
<g><path style="opacity:1" fill="#ff7886" d="M 586.5,467.5 C 588.337,467.639 588.67,468.306 587.5,469.5C 586.702,469.043 586.369,468.376 586.5,467.5 Z"/></g>
<g><path style="opacity:1" fill="#ffebe5" d="M 216.5,478.5 C 219.943,478.35 221.943,480.017 222.5,483.5C 223.057,480.017 225.057,478.35 228.5,478.5C 228.5,482.167 228.5,485.833 228.5,489.5C 227.5,489.5 226.5,489.5 225.5,489.5C 225.656,483.687 224.989,483.354 223.5,488.5C 222.675,489.386 221.675,489.719 220.5,489.5C 219.508,481.525 218.508,481.525 217.5,489.5C 216.511,485.893 216.177,482.226 216.5,478.5 Z"/></g>
<g><path style="opacity:1" fill="#fffeed" d="M 278.5,478.5 C 279.787,479.871 280.453,481.705 280.5,484C 280.167,485.833 279.833,487.667 279.5,489.5C 278.511,485.893 278.177,482.226 278.5,478.5 Z"/></g>
<g><path style="opacity:1" fill="#ffebe5" d="M 529.5,478.5 C 532.943,478.35 534.943,480.017 535.5,483.5C 536.057,480.017 538.057,478.35 541.5,478.5C 541.5,482.167 541.5,485.833 541.5,489.5C 540.5,489.5 539.5,489.5 538.5,489.5C 538.656,483.687 537.989,483.354 536.5,488.5C 535.675,489.386 534.675,489.719 533.5,489.5C 532.508,481.525 531.508,481.525 530.5,489.5C 529.511,485.893 529.177,482.226 529.5,478.5 Z"/></g>
<g><path style="opacity:1" fill="#fffeed" d="M 543.5,478.5 C 545.337,478.639 545.67,479.306 544.5,480.5C 543.702,480.043 543.369,479.376 543.5,478.5 Z"/></g>
<g><path style="opacity:1" fill="#fffeed" d="M 588.5,478.5 C 589.787,479.871 590.453,481.705 590.5,484C 590.167,485.833 589.833,487.667 589.5,489.5C 588.511,485.893 588.177,482.226 588.5,478.5 Z"/></g>
<g><path style="opacity:1" fill="#ffeac5" d="M 250.5,478.5 C 252.975,478.747 252.975,479.413 250.5,480.5C 249.537,480.03 249.537,479.363 250.5,478.5 Z"/></g>
<g><path style="opacity:1" fill="#ffeac5" d="M 560.5,478.5 C 562.975,478.747 562.975,479.413 560.5,480.5C 559.537,480.03 559.537,479.363 560.5,478.5 Z"/></g>
<g><path style="opacity:1" fill="#e9e7e7" d="M 193.5,479.5 C 196.053,485.88 200.72,490.046 207.5,492C 217.517,492.832 227.517,492.666 237.5,491.5C 239.932,488.591 239.932,485.591 237.5,482.5C 239.044,481.378 240.377,481.711 241.5,483.5C 242.623,481.711 243.956,481.378 245.5,482.5C 244.202,485.853 242.535,489.02 240.5,492C 259.167,492.667 277.833,492.667 296.5,492C 303.842,490.48 308.842,486.313 311.5,479.5C 312.395,488.881 308.729,495.714 300.5,500C 284.564,501.145 268.564,501.645 252.5,501.5C 236.436,501.645 220.436,501.145 204.5,500C 196.271,495.714 192.605,488.881 193.5,479.5 Z"/></g>
<g><path style="opacity:1" fill="#fff5f6" d="M 282.5,481.5 C 288.367,481.206 290.033,483.872 287.5,489.5C 285.722,489.431 283.889,489.097 282,488.5C 281.411,485.21 282.911,483.71 286.5,484C 284.563,483.878 283.23,483.045 282.5,481.5 Z"/></g>
<g><path style="opacity:1" fill="#ff7886" d="M 284.5,485.5 C 286.337,485.639 286.67,486.306 285.5,487.5C 284.702,487.043 284.369,486.376 284.5,485.5 Z"/></g>
<g><path style="opacity:1" fill="#fffcee" d="M 269.5,481.5 C 271.308,482.918 271.975,484.918 271.5,487.5C 272.5,487.5 273.5,487.5 274.5,487.5C 274.201,485.396 274.534,483.396 275.5,481.5C 276.833,484.167 276.833,486.833 275.5,489.5C 273.722,489.431 271.889,489.097 270,488.5C 269.503,486.19 269.337,483.857 269.5,481.5 Z"/></g>
<g><path style="opacity:1" fill="#ffedf3" d="M 263.5,481.5 C 264.978,481.238 266.311,481.571 267.5,482.5C 266.675,483.386 265.675,483.719 264.5,483.5C 264.5,484.833 264.5,486.167 264.5,487.5C 265.675,487.281 266.675,487.614 267.5,488.5C 261.403,489.214 260.069,486.881 263.5,481.5 Z"/></g>
<g><path style="opacity:1" fill="#ffeff2" d="M 256.5,481.5 C 260.971,481.672 261.304,482.506 257.5,484C 260.346,484.879 261.013,486.546 259.5,489C 257.741,489.798 256.074,489.631 254.5,488.5C 255.729,487.719 257.062,487.219 258.5,487C 254.524,485.947 253.857,484.113 256.5,481.5 Z"/></g>
<g><path style="opacity:1" fill="#fffcee" d="M 246.5,481.5 C 248.308,482.918 248.975,484.918 248.5,487.5C 249.5,487.5 250.5,487.5 251.5,487.5C 251.201,485.396 251.534,483.396 252.5,481.5C 253.833,484.167 253.833,486.833 252.5,489.5C 250.722,489.431 248.889,489.097 247,488.5C 246.503,486.19 246.337,483.857 246.5,481.5 Z"/></g>
<g><path style="opacity:1" fill="#fff5f6" d="M 230.5,481.5 C 236.367,481.206 238.033,483.872 235.5,489.5C 233.722,489.431 231.889,489.097 230,488.5C 229.411,485.21 230.911,483.71 234.5,484C 232.563,483.878 231.23,483.045 230.5,481.5 Z"/></g>
<g><path style="opacity:1" fill="#ff7886" d="M 232.5,485.5 C 234.337,485.639 234.67,486.306 233.5,487.5C 232.702,487.043 232.369,486.376 232.5,485.5 Z"/></g>
<g><path style="opacity:1" fill="#e8e7e7" d="M 504.5,479.5 C 507.053,485.88 511.72,490.046 518.5,492C 548.167,492.667 577.833,492.667 607.5,492C 614.842,490.48 619.842,486.313 622.5,479.5C 623.395,488.881 619.729,495.714 611.5,500C 595.564,501.145 579.564,501.645 563.5,501.5C 547.436,501.645 531.436,501.145 515.5,500C 507.271,495.714 503.605,488.881 504.5,479.5 Z"/></g>
<g><path style="opacity:1" fill="#fff5f6" d="M 592.5,481.5 C 598.367,481.206 600.033,483.872 597.5,489.5C 595.722,489.431 593.889,489.097 592,488.5C 591.411,485.21 592.911,483.71 596.5,484C 594.563,483.878 593.23,483.045 592.5,481.5 Z"/></g>
<g><path style="opacity:1" fill="#ff7886" d="M 594.5,485.5 C 596.337,485.639 596.67,486.306 595.5,487.5C 594.702,487.043 594.369,486.376 594.5,485.5 Z"/></g>
<g><path style="opacity:1" fill="#fffcee" d="M 579.5,481.5 C 581.308,482.918 581.975,484.918 581.5,487.5C 582.5,487.5 583.5,487.5 584.5,487.5C 584.201,485.396 584.534,483.396 585.5,481.5C 586.833,484.167 586.833,486.833 585.5,489.5C 583.722,489.431 581.889,489.097 580,488.5C 579.503,486.19 579.337,483.857 579.5,481.5 Z"/></g>
<g><path style="opacity:1" fill="#ffedf3" d="M 573.5,481.5 C 574.978,481.238 576.311,481.571 577.5,482.5C 576.675,483.386 575.675,483.719 574.5,483.5C 574.5,484.833 574.5,486.167 574.5,487.5C 575.675,487.281 576.675,487.614 577.5,488.5C 571.403,489.214 570.069,486.881 573.5,481.5 Z"/></g>
<g><path style="opacity:1" fill="#ffeff2" d="M 566.5,481.5 C 570.971,481.672 571.304,482.506 567.5,484C 570.346,484.879 571.013,486.546 569.5,489C 567.741,489.798 566.074,489.631 564.5,488.5C 565.729,487.719 567.062,487.219 568.5,487C 564.524,485.947 563.857,484.113 566.5,481.5 Z"/></g>
<g><path style="opacity:1" fill="#fffcee" d="M 556.5,481.5 C 558.308,482.918 558.975,484.918 558.5,487.5C 559.5,487.5 560.5,487.5 561.5,487.5C 561.201,485.396 561.534,483.396 562.5,481.5C 563.833,484.167 563.833,486.833 562.5,489.5C 560.722,489.431 558.889,489.097 557,488.5C 556.503,486.19 556.337,483.857 556.5,481.5 Z"/></g>
<g><path style="opacity:1" fill="#fffefa" d="M 547.5,481.5 C 549.611,481.772 551.777,482.105 554,482.5C 554.814,484.902 554.647,487.235 553.5,489.5C 552.534,487.604 552.201,485.604 552.5,483.5C 551.5,483.5 550.5,483.5 549.5,483.5C 549.799,485.604 549.466,487.604 548.5,489.5C 547.52,486.914 547.187,484.247 547.5,481.5 Z"/></g>
<g><path style="opacity:1" fill="#fffeed" d="M 543.5,481.5 C 544.748,482.334 545.415,483.667 545.5,485.5C 545.167,486.833 544.833,488.167 544.5,489.5C 543.52,486.914 543.187,484.247 543.5,481.5 Z"/></g>
</svg>
