<?xml version="1.0" encoding="UTF-8"?>
<!DOCTYPE svg PUBLIC "-//W3C//DTD SVG 1.1//EN" "http://www.w3.org/Graphics/SVG/1.1/DTD/svg11.dtd">
<svg xmlns="http://www.w3.org/2000/svg" version="1.1" width="262px" height="200px" style="shape-rendering:geometricPrecision; text-rendering:geometricPrecision; image-rendering:optimizeQuality; fill-rule:evenodd; clip-rule:evenodd" xmlns:xlink="http://www.w3.org/1999/xlink">
<g><path style="opacity:0.56" fill="#116e9e" d="M 27.5,6.5 C 29.604,6.2011 31.604,6.53443 33.5,7.5C 34.4803,8.98138 35.647,10.3147 37,11.5C 37.2022,9.7444 37.7022,8.07774 38.5,6.5C 47.6533,6.56513 56.9867,6.56513 66.5,6.5C 66.5,8.83333 66.5,11.1667 66.5,13.5C 67.8333,13.5 69.1667,13.5 70.5,13.5C 70.5,11.1667 70.5,8.83333 70.5,6.5C 76.3259,6.82752 81.9926,6.99419 87.5,7C 92.0288,11.7013 91.0288,14.868 84.5,16.5C 79.5323,15.5881 77.5323,12.9214 78.5,8.5C 77.8333,11.1667 77.1667,13.8333 76.5,16.5C 75.914,16.2907 75.414,15.9574 75,15.5C 74.6667,13.5 74.3333,11.5 74,9.5C 72.8126,15.7609 69.4792,17.4276 64,14.5C 63.8078,12.4233 63.3078,10.4233 62.5,8.5C 61.8333,11.1667 61.1667,13.8333 60.5,16.5C 59.914,16.2907 59.414,15.9574 59,15.5C 58.3333,7.5 57.6667,7.5 57,15.5C 56.586,15.9574 56.086,16.2907 55.5,16.5C 54.3631,5.97262 53.3631,5.97262 52.5,16.5C 51.5,16.5 50.5,16.5 49.5,16.5C 49.6641,13.8127 49.4974,11.146 49,8.5C 48.5,9.66667 47.6667,10.5 46.5,11C 47.9909,13.0217 47.6576,14.6883 45.5,16C 43.074,15.9521 40.7407,16.1188 38.5,16.5C 36.8793,14.3761 35.046,12.3761 33,10.5C 34.2164,15.0068 32.383,17.0068 27.5,16.5C 27.5,13.1667 27.5,9.83333 27.5,6.5 Z M 83.5,8.5 C 86.7643,8.7264 87.7643,10.2264 86.5,13C 81.503,13.7871 80.503,12.2871 83.5,8.5 Z"/></g>
<g><path style="opacity:0.6" fill="#0f6d9d" d="M 128.5,5.5 C 130.936,5.31701 133.103,5.98368 135,7.5C 140.096,5.46781 144.43,6.46781 148,10.5C 148.49,9.20677 148.657,7.87344 148.5,6.5C 153.274,6.80712 158.107,7.14046 163,7.5C 166.123,5.17919 169.123,5.51252 172,8.5C 173.271,12.1661 172.104,14.6661 168.5,16C 166.433,16.5356 164.599,16.0356 163,14.5C 160.253,17.0341 157.587,17.0341 155,14.5C 154.196,15.8045 153.029,16.4712 151.5,16.5C 148.932,15.4411 146.765,13.7744 145,11.5C 144.798,13.2556 144.298,14.9223 143.5,16.5C 142.033,15.3047 140.533,15.3047 139,16.5C 137.527,16.0969 136.194,15.4303 135,14.5C 132.53,16.4865 129.697,16.9865 126.5,16C 125.239,12.9815 123.905,13.1482 122.5,16.5C 120.873,7.25597 119.873,7.25597 119.5,16.5C 115.649,17.0291 112.149,16.3625 109,14.5C 104.906,17.4756 101.573,16.809 99,12.5C 96.5788,14.1134 94.0788,15.4467 91.5,16.5C 91.5,13.1667 91.5,9.83333 91.5,6.5C 94.6852,6.01964 97.5185,6.68631 100,8.5C 100.5,8 101,7.5 101.5,7C 104.604,6.87326 107.604,6.7066 110.5,6.5C 111.474,8.74269 111.808,11.076 111.5,13.5C 113.167,13.5 114.833,13.5 116.5,13.5C 116.5,11.1667 116.5,8.83333 116.5,6.5C 120.702,6.81675 124.702,6.48342 128.5,5.5 Z M 103.5,8.5 C 104.708,9.23411 106.041,9.56745 107.5,9.5C 107.915,11.9477 106.915,13.2811 104.5,13.5C 101.031,12.4311 100.698,10.7644 103.5,8.5 Z M 128.5,8.5 C 134.982,10.0489 134.982,11.0489 128.5,11.5C 128.5,10.5 128.5,9.5 128.5,8.5 Z M 138.5,8.5 C 142.234,9.97368 142.4,11.6404 139,13.5C 134.627,12.013 134.46,10.3463 138.5,8.5 Z M 158.5,8.5 C 162.454,10.2779 162.454,11.9445 158.5,13.5C 157,13.5472 156,12.8805 155.5,11.5C 156.34,10.265 157.34,9.26501 158.5,8.5 Z M 166.5,8.5 C 171.317,10.0695 171.484,11.7362 167,13.5C 163.928,12.119 163.761,10.4523 166.5,8.5 Z M 94.5,9.5 C 95.675,9.28099 96.675,9.61432 97.5,10.5C 95.9483,11.7979 94.9483,11.4646 94.5,9.5 Z M 123.5,10.5 C 124.077,9.22671 124.743,9.22671 125.5,10.5C 125.03,11.463 124.363,11.463 123.5,10.5 Z"/></g>
<g><path style="opacity:0.656" fill="#126d9e" d="M 207.5,5.5 C 209.583,6.02889 211.417,7.02889 213,8.5C 213.308,7.69194 213.808,7.02527 214.5,6.5C 216.149,7.64768 217.649,8.98101 219,10.5C 221.125,5.00328 222.459,5.33661 223,11.5C 225.667,4.83333 228.333,4.83333 231,11.5C 231.494,9.86586 231.66,8.19919 231.5,6.5C 232.5,6.5 233.5,6.5 234.5,6.5C 234.5,8.83333 234.5,11.1667 234.5,13.5C 236.167,13.5 237.833,13.5 239.5,13.5C 239.5,14.5 239.5,15.5 239.5,16.5C 236.428,16.8174 233.428,16.4841 230.5,15.5C 229.829,14.0542 228.662,13.3875 227,13.5C 224.83,13.6723 223.163,14.6723 222,16.5C 219.719,15.2237 217.719,13.5571 216,11.5C 215.798,13.2556 215.298,14.9223 214.5,16.5C 213.749,15.624 213.249,14.624 213,13.5C 210.271,16.8639 207.271,17.1972 204,14.5C 203.692,15.3081 203.192,15.9747 202.5,16.5C 199.3,16.4336 196.133,16.4336 193,16.5C 189.73,12.6412 186.397,12.6412 183,16.5C 180.346,15.1793 178.346,13.1793 177,10.5C 176.808,12.5767 176.308,14.5767 175.5,16.5C 174.914,16.2907 174.414,15.9574 174,15.5C 173.502,12.5184 173.335,9.51838 173.5,6.5C 176.614,7.09132 179.114,8.75799 181,11.5C 181.541,5.33661 182.875,5.00328 185,10.5C 186.751,5.84443 188.918,5.5111 191.5,9.5C 192.354,8.47827 193.354,7.64494 194.5,7C 197.76,6.21649 200.927,6.38316 204,7.5C 205.302,6.9152 206.469,6.24853 207.5,5.5 Z M 196.5,8.5 C 199.764,8.7264 200.764,10.2264 199.5,13C 194.503,13.7871 193.503,12.2871 196.5,8.5 Z M 207.5,8.5 C 210.519,8.97229 211.519,10.4723 210.5,13C 205.503,13.7871 204.503,12.2871 207.5,8.5 Z"/></g>
<g><path style="opacity:0.948" fill="#0f6c9d" d="M 38.5,20.5 C 101.167,20.5 163.833,20.5 226.5,20.5C 226.5,22.1667 226.5,23.8333 226.5,25.5C 163.833,25.5 101.167,25.5 38.5,25.5C 38.5,23.8333 38.5,22.1667 38.5,20.5 Z"/></g>
<g><path style="opacity:0.943" fill="#0e6b9c" d="M 83.5,36.5 C 113.835,36.3334 144.168,36.5 174.5,37C 198.531,48.6826 222.531,60.3492 246.5,72C 257.112,81.2578 257.112,90.5911 246.5,100C 223.654,111.589 200.654,122.923 177.5,134C 162.552,135.134 147.552,135.634 132.5,135.5C 117.448,135.634 102.448,135.134 87.5,134C 63.7117,122.939 40.045,111.606 16.5,100C 4.27264,90.0058 4.60598,80.3391 17.5,71C 39.7503,59.7107 61.7503,48.2107 83.5,36.5 Z M 86.5,41.5 C 97.505,41.3335 108.505,41.5002 119.5,42C 101.813,52.3655 84.1465,62.6989 66.5,73C 54.9694,81.2425 54.6361,89.9091 65.5,99C 75.8677,103.789 86.5343,107.789 97.5,111C 118.451,112.692 136.451,106.192 151.5,91.5C 160.297,81.2507 158.964,72.4173 147.5,65C 163.318,64.4906 177.985,68.4906 191.5,77C 197.053,80.6191 198.22,85.1191 195,90.5C 174.383,104.226 153.216,117.059 131.5,129C 117.167,129.667 102.833,129.667 88.5,129C 65.8333,118 43.1667,107 20.5,96C 13.5562,92.3371 11.7228,87.1704 15,80.5C 17.3834,77.7272 20.2167,75.5605 23.5,74C 44.8747,63.6476 65.8747,52.8142 86.5,41.5 Z M 128.5,41.5 C 142.837,41.3334 157.171,41.5001 171.5,42C 195.288,53.0607 218.955,64.394 242.5,76C 250.886,81.5798 251.553,87.9131 244.5,95C 221.833,106.333 199.167,117.667 176.5,129C 164.833,129.667 153.167,129.667 141.5,129C 158.665,119.252 175.665,109.252 192.5,99C 205.284,90.4259 205.618,81.4259 193.5,72C 183.725,67.4464 173.725,63.4464 163.5,60C 140.282,57.8598 120.782,65.3598 105,82.5C 100.062,92.3425 102.229,100.176 111.5,106C 105.775,106.717 100.109,106.384 94.5,105C 85.3394,101.724 76.3394,98.0577 67.5,94C 60.7497,88.3027 61.0831,82.9694 68.5,78C 88.7302,66.0589 108.73,53.8922 128.5,41.5 Z M 137.5,66.5 C 145.292,67.6264 150.292,71.9597 152.5,79.5C 149.536,86.3088 144.87,91.8088 138.5,96C 132.954,98.9398 127.287,101.606 121.5,104C 119.833,104.667 118.167,104.667 116.5,104C 113.484,101.264 110.651,98.4302 108,95.5C 107.183,92.0357 107.517,88.7024 109,85.5C 116.999,76.7618 126.499,70.4285 137.5,66.5 Z"/></g>
<g><path style="opacity:0.888" fill="#0d6b9d" d="M 38.5,146.5 C 101.167,146.5 163.833,146.5 226.5,146.5C 226.5,148.167 226.5,149.833 226.5,151.5C 163.833,151.5 101.167,151.5 38.5,151.5C 38.5,149.833 38.5,148.167 38.5,146.5 Z"/></g>
<g><path style="opacity:0.938" fill="#0e6b9d" d="M 88.5,160.5 C 96.743,159.278 104.243,160.944 111,165.5C 110.877,171.639 108.71,172.139 104.5,167C 99.2545,165.494 93.9212,165.161 88.5,166C 83.1667,168.667 83.1667,171.333 88.5,174C 94.1844,174.919 99.8511,175.919 105.5,177C 111.5,183.667 110.5,189 102.5,193C 97.8333,193.667 93.1667,193.667 88.5,193C 84.8742,192.042 82.7075,189.876 82,186.5C 84.794,185.154 87.294,185.654 89.5,188C 93.5,188.667 97.5,188.667 101.5,188C 105.376,185.461 105.376,183.128 101.5,181C 96.857,180.17 92.1903,179.503 87.5,179C 80.7862,177.41 78.2862,173.244 80,166.5C 82.2342,163.399 85.0675,161.399 88.5,160.5 Z"/></g>
<g><path style="opacity:0.933" fill="#126c9d" d="M 145.5,167.5 C 144.833,167.5 144.5,167.833 144.5,168.5C 141.575,168.54 138.909,167.707 136.5,166C 125.958,163.147 119.292,166.814 116.5,177C 119.292,187.186 125.958,190.853 136.5,188C 138.927,186.409 141.593,185.575 144.5,185.5C 144.5,186.167 144.833,186.5 145.5,186.5C 144.386,189.775 142.053,191.942 138.5,193C 129.012,195.343 120.846,193.177 114,186.5C 108.199,174.26 111.699,165.76 124.5,161C 130.724,159.939 136.724,160.606 142.5,163C 144.141,164.129 145.141,165.629 145.5,167.5 Z"/></g>
<g><path style="opacity:0.95" fill="#106c9d" d="M 145.5,186.5 C 144.833,186.5 144.5,186.167 144.5,185.5C 140.5,179.833 140.5,174.167 144.5,168.5C 145.167,168.5 145.5,168.167 145.5,167.5C 148.26,163.928 151.927,161.761 156.5,161C 165.938,158.812 173.772,161.312 180,168.5C 184.902,180.201 181.402,188.368 169.5,193C 160.055,195.373 152.055,193.206 145.5,186.5 Z M 156.5,165.5 C 160.514,165.334 164.514,165.501 168.5,166C 175.666,168.834 178.166,174.001 176,181.5C 174.437,184.728 171.937,186.895 168.5,188C 160.819,190.001 154.319,188.167 149,182.5C 146.178,174.463 148.678,168.796 156.5,165.5 Z"/></g>
<g><path style="opacity:0.932" fill="#116c9d" d="M 184.5,160.5 C 185.873,160.343 187.207,160.51 188.5,161C 191.981,165.648 195.981,169.815 200.5,173.5C 204.353,169.482 208.019,165.315 211.5,161C 214.217,159.967 216.051,160.8 217,163.5C 218.808,161.604 220.975,161.104 223.5,162C 227.167,168 225.5,170.667 218.5,170C 218,169.5 217.5,169 217,168.5C 216.817,176.745 216.317,184.912 215.5,193C 213.567,193.783 212.067,193.283 211,191.5C 210.667,184.5 210.333,177.5 210,170.5C 207.618,173.427 205.118,176.261 202.5,179C 201.833,179.167 201.167,179.333 200.5,179.5C 196.585,177.093 193.085,174.093 190,170.5C 189.667,177.5 189.333,184.5 189,191.5C 187.951,193.107 186.451,193.773 184.5,193.5C 184.5,182.5 184.5,171.5 184.5,160.5 Z"/></g>
<g><path style="opacity:0.901" fill="#20709f" d="M 51.5,160.5 C 60.7506,160.182 69.9172,160.515 79,161.5C 79.6838,162.784 79.5171,163.951 78.5,165C 70.8406,165.5 63.1739,165.666 55.5,165.5C 55.5,170.167 55.5,174.833 55.5,179.5C 63.1739,179.334 70.8406,179.5 78.5,180C 79.8333,181.333 79.8333,182.667 78.5,184C 70.8406,184.5 63.1739,184.666 55.5,184.5C 55.5,185.833 55.5,187.167 55.5,188.5C 62.8409,188.334 70.1742,188.5 77.5,189C 78.5171,190.049 78.6838,191.216 78,192.5C 68.9172,193.485 59.7506,193.818 50.5,193.5C 49.7871,190.763 49.7871,188.096 50.5,185.5C 43.8333,183.167 43.8333,180.833 50.5,178.5C 48.998,172.368 49.3313,166.368 51.5,160.5 Z"/></g>
</svg>
