<?xml version="1.0" encoding="UTF-8"?>
<!DOCTYPE svg PUBLIC "-//W3C//DTD SVG 1.1//EN" "http://www.w3.org/Graphics/SVG/1.1/DTD/svg11.dtd">
<svg xmlns="http://www.w3.org/2000/svg" version="1.1" width="347px" height="600px" style="shape-rendering:geometricPrecision; text-rendering:geometricPrecision; image-rendering:optimizeQuality; fill-rule:evenodd; clip-rule:evenodd" xmlns:xlink="http://www.w3.org/1999/xlink">
<g><path style="opacity:0.944" fill="#6a163f" d="M 346.5,245.5 C 346.5,254.167 346.5,262.833 346.5,271.5C 338.292,274.269 330.292,277.602 322.5,281.5C 321.198,286.385 321.198,291.218 322.5,296C 330.628,298.899 338.628,302.066 346.5,305.5C 346.5,313.833 346.5,322.167 346.5,330.5C 338.841,332.056 331.175,333.722 323.5,335.5C 322.337,340.802 322.171,346.136 323,351.5C 329.716,357.217 336.716,362.55 344,367.5C 344.705,375.861 344.538,384.194 343.5,392.5C 335.625,392.215 327.792,391.548 320,390.5C 319.055,390.905 318.388,391.572 318,392.5C 317.167,395.833 316.333,399.167 315.5,402.5C 321.445,410.285 327.611,417.952 334,425.5C 334.667,432.5 334.667,439.5 334,446.5C 332.314,448.919 329.981,449.919 327,449.5C 319.487,448.856 311.987,448.19 304.5,447.5C 304.298,449.989 304.798,452.323 306,454.5C 311.583,462.664 316.916,470.997 322,479.5C 322.595,487.676 320.762,495.343 316.5,502.5C 307.19,503.498 297.857,503.832 288.5,503.5C 291.4,513.366 294.4,523.2 297.5,533C 297.333,534.167 297.167,535.333 297,536.5C 294.708,537.79 292.708,539.457 291,541.5C 290.472,553.703 284.305,561.536 272.5,565C 267.385,565.955 262.385,567.289 257.5,569C 254.688,571.901 251.688,574.568 248.5,577C 241.174,577.5 233.841,577.666 226.5,577.5C 227.694,584.812 226.027,591.312 221.5,597C 207.5,597.667 193.5,597.667 179.5,597C 178.833,596 178.167,595 177.5,594C 164.167,593.667 150.833,593.333 137.5,593C 135.789,590.544 134.456,587.877 133.5,585C 126.833,584.667 120.167,584.333 113.5,584C 108.864,581.682 104.198,579.349 99.5,577C 98.1667,570.667 98.1667,564.333 99.5,558C 90.2556,557.819 81.089,557.319 72,556.5C 63.3969,545.599 62.2302,533.933 68.5,521.5C 63.533,520.338 58.533,520.171 53.5,521C 51.695,523.403 49.3616,525.07 46.5,526C 32.9306,530.642 19.5972,529.975 6.5,524C 3.54644,521.559 1.21311,518.725 -0.5,515.5C -0.5,511.833 -0.5,508.167 -0.5,504.5C 2.66357,501.416 6.33023,499.082 10.5,497.5C 11.4998,472.175 11.8331,446.842 11.5,421.5C 9.85613,421.714 8.35613,421.38 7,420.5C 4.49222,415.303 2.99222,409.803 2.5,404C 4.18373,398.804 7.01706,394.304 11,390.5C 11.8325,378.819 11.6659,367.152 10.5,355.5C 7.35704,354.065 4.19037,352.732 1,351.5C 0.333333,346.833 0.333333,342.167 1,337.5C 6.15443,333.257 11.4878,329.257 17,325.5C 19,322.833 21,320.167 23,317.5C 23.49,316.207 23.6567,314.873 23.5,313.5C 16.5302,314.627 9.53024,315.127 2.5,315C 7.64793,310.262 12.9813,305.762 18.5,301.5C 12.9283,298.459 7.76168,294.792 3,290.5C 2.5,289.5 2,288.5 1.5,287.5C 2.42907,282.213 3.09574,276.879 3.5,271.5C 11.4712,270.677 19.4712,270.344 27.5,270.5C 28.3129,265.601 29.3129,260.768 30.5,256C 23.4557,249.291 16.789,242.291 10.5,235C 11.9221,229.478 13.4221,223.978 15,218.5C 15.414,218.043 15.914,217.709 16.5,217.5C 21.8013,219.211 26.968,221.211 32,223.5C 32.3333,246.167 32.6667,268.833 33,291.5C 33.1827,283.255 33.6827,275.088 34.5,267C 38.8576,266.212 43.1909,265.378 47.5,264.5C 48.5096,286.991 49.6763,286.991 51,264.5C 55.4088,263.469 59.9088,262.802 64.5,262.5C 64.1826,265.572 64.5159,268.572 65.5,271.5C 66.487,268.232 66.8204,264.898 66.5,261.5C 72.208,261.16 77.8747,260.493 83.5,259.5C 83.281,260.675 83.6143,261.675 84.5,262.5C 85.4287,261.311 85.762,259.978 85.5,258.5C 91.903,258.439 97.903,257.106 103.5,254.5C 104.791,254.737 105.791,254.404 106.5,253.5C 110.5,252.833 114.5,252.167 118.5,251.5C 118.5,246.167 118.5,240.833 118.5,235.5C 116.61,235.703 115.11,235.037 114,233.5C 112.992,229.229 113.492,225.229 115.5,221.5C 114.472,219.639 112.972,218.305 111,217.5C 110.333,211.167 110.333,204.833 111,198.5C 115.792,197.107 120.625,195.773 125.5,194.5C 127.963,198.889 129.629,203.555 130.5,208.5C 131.675,208.719 132.675,208.386 133.5,207.5C 131.959,202.879 130.626,198.212 129.5,193.5C 132.079,193.083 134.246,193.75 136,195.5C 140.873,211.286 146.04,226.953 151.5,242.5C 156.637,243.248 161.803,243.915 167,244.5C 167.833,244.167 168.667,243.833 169.5,243.5C 164.312,241.816 158.978,241.149 153.5,241.5C 148.489,224.818 143.489,208.151 138.5,191.5C 140.604,191.201 142.604,191.534 144.5,192.5C 145.383,195.325 146.55,197.992 148,200.5C 161.739,197.084 175.573,193.918 189.5,191C 192.336,186.998 194.67,182.664 196.5,178C 201.318,176.045 206.318,174.879 211.5,174.5C 201.862,201.578 191.529,228.411 180.5,255C 182.134,255.494 183.801,255.66 185.5,255.5C 195.221,228.508 205.054,201.508 215,174.5C 217.519,171.663 220.519,170.996 224,172.5C 224.667,176.167 224.667,179.833 224,183.5C 214.265,208.206 204.431,232.873 194.5,257.5C 195.651,258.731 196.817,258.731 198,257.5C 208.758,231.558 218.925,205.392 228.5,179C 227.434,175.906 226.768,172.74 226.5,169.5C 245.672,165.278 264.839,160.945 284,156.5C 290.221,159.36 296.387,162.36 302.5,165.5C 308.94,163.809 315.273,161.976 321.5,160C 314.292,155.564 306.958,151.397 299.5,147.5C 236.513,162.997 173.513,178.33 110.5,193.5C 110.5,187.167 110.5,180.833 110.5,174.5C 112.5,174.167 114.5,173.833 116.5,173.5C 116.665,170.15 116.498,166.817 116,163.5C 113.264,162.273 110.431,161.273 107.5,160.5C 106.501,175.152 106.167,189.818 106.5,204.5C 99.5488,205.825 92.5488,206.825 85.5,207.5C 85.1673,192.485 85.5007,177.485 86.5,162.5C 92.4816,161.037 98.4816,159.704 104.5,158.5C 104.5,157.5 104.5,156.5 104.5,155.5C 98.2694,157.308 91.9361,158.641 85.5,159.5C 85.1672,143.153 85.5006,126.82 86.5,110.5C 92.7779,108.769 98.7779,106.436 104.5,103.5C 104,103.167 103.5,102.833 103,102.5C 97.3477,104.916 91.5144,106.583 85.5,107.5C 85.1673,92.4852 85.5007,77.4852 86.5,62.5C 93.0238,60.7794 99.0238,58.1127 104.5,54.5C 104.167,54.1667 103.833,53.8333 103.5,53.5C 97.6691,56.1103 91.6691,58.1103 85.5,59.5C 85.1673,44.1522 85.5006,28.8189 86.5,13.5C 91.9539,11.2733 97.2872,8.77325 102.5,6C 105.783,5.25713 108.783,5.9238 111.5,8C 126.333,17.5 141.167,27 156,36.5C 156.019,49.3219 156.686,61.9885 158,74.5C 158.183,66.2547 158.683,58.088 159.5,50C 171.406,46.3645 183.24,42.5312 195,38.5C 205.816,44.5748 216.482,50.9081 227,57.5C 227.168,46.4849 227.668,35.4849 228.5,24.5C 235.628,21.735 242.795,19.0684 250,16.5C 256.727,19.7798 263.227,23.4465 269.5,27.5C 270.497,20.8665 270.83,14.1998 270.5,7.5C 277.686,5.77124 284.686,3.4379 291.5,0.5C 300.371,5.76786 309.371,10.7679 318.5,15.5C 319.333,55.8292 319.833,96.1625 320,136.5C 323.912,139.541 328.079,142.208 332.5,144.5C 333.665,151.811 333.831,159.144 333,166.5C 323.779,168.279 314.612,170.446 305.5,173C 316.383,179.026 327.216,185.193 338,191.5C 338.057,197.828 337.723,204.161 337,210.5C 330.905,218.599 324.072,226.099 316.5,233C 326.581,236.871 336.581,241.038 346.5,245.5 Z M 292.5,11.5 C 298.592,14.9626 304.758,18.2959 311,21.5C 311.833,58.1712 311.667,94.8379 310.5,131.5C 305.36,126.266 299.527,125.266 293,128.5C 292.5,89.5014 292.333,50.5014 292.5,11.5 Z M 106.5,15.5 C 110.855,17.429 115.021,19.7624 119,22.5C 119.667,34.5 119.667,46.5 119,58.5C 115.164,55.9143 111.164,53.581 107,51.5C 106.5,39.5046 106.333,27.5046 106.5,15.5 Z M 124.5,25.5 C 126.392,26.7017 128.226,28.035 130,29.5C 130.832,40.5151 130.666,51.5151 129.5,62.5C 128.038,63.4709 126.705,63.1376 125.5,61.5C 124.501,49.5185 124.168,37.5185 124.5,25.5 Z M 254.5,27.5 C 259.724,30.0432 264.724,33.0432 269.5,36.5C 270.664,43.1418 270.831,49.8085 270,56.5C 264.734,46.8531 259.567,37.1864 254.5,27.5 Z M 136.5,33.5 C 137.583,33.5394 138.583,33.8728 139.5,34.5C 140.665,44.1495 140.832,53.8161 140,63.5C 139,62.8333 138,62.1667 137,61.5C 136.5,52.1726 136.334,42.8393 136.5,33.5 Z M 149.5,68.5 C 148.417,68.4606 147.417,68.1272 146.5,67.5C 145.335,57.8505 145.168,48.1839 146,38.5C 147,39.1667 148,39.8333 149,40.5C 149.5,49.8274 149.666,59.1607 149.5,68.5 Z M 204.5,53.5 C 209.692,56.0132 214.858,58.6798 220,61.5C 220.667,79.5 220.667,97.5 220,115.5C 213.959,123.77 205.792,127.603 195.5,127C 192.167,124.667 188.833,122.333 185.5,120C 191.468,118.423 197.135,116.09 202.5,113C 203.191,111.933 203.691,110.766 204,109.5C 204.5,90.8363 204.667,72.1696 204.5,53.5 Z M 106.5,59.5 C 111.292,61.0615 115.626,63.3949 119.5,66.5C 119.167,67.5 118.5,68.1667 117.5,68.5C 116.833,80.5 116.167,92.5 115.5,104.5C 112.833,103.167 110.167,101.833 107.5,100.5C 106.501,86.8496 106.167,73.1829 106.5,59.5 Z M 181.5,68.5 C 182.827,72.7825 183.493,77.4492 183.5,82.5C 183.333,87.1667 183.167,91.8333 183,96.5C 181.667,97.1667 180.333,97.8333 179,98.5C 178.5,88.8391 178.334,79.1724 178.5,69.5C 179.791,69.7373 180.791,69.404 181.5,68.5 Z M 135.5,69.5 C 143.184,73.093 150.684,77.093 158,81.5C 158.833,108.506 158.667,135.506 157.5,162.5C 150.545,164.655 143.545,166.655 136.5,168.5C 135.5,135.507 135.167,102.507 135.5,69.5 Z M 250.5,88.5 C 259.392,102.604 268.059,116.937 276.5,131.5C 268.225,134.036 259.892,136.369 251.5,138.5C 250.501,121.847 250.167,105.18 250.5,88.5 Z M 106.5,107.5 C 110.008,108.504 113.174,110.171 116,112.5C 116.667,127.167 116.667,141.833 116,156.5C 112.878,155.355 109.711,154.355 106.5,153.5C 106.5,138.167 106.5,122.833 106.5,107.5 Z M 226.5,115.5 C 227.494,125.319 227.827,135.319 227.5,145.5C 218.534,147.658 209.534,149.658 200.5,151.5C 200.172,146.125 200.505,140.792 201.5,135.5C 209.543,133.438 216.709,129.771 223,124.5C 225.287,121.928 226.453,118.928 226.5,115.5 Z M 178.5,125.5 C 183.299,129.071 188.299,132.405 193.5,135.5C 194.833,141.5 194.833,147.5 193.5,153.5C 188.871,154.959 184.204,156.293 179.5,157.5C 178.501,146.854 178.168,136.187 178.5,125.5 Z M 282.5,163.5 C 286.598,165.048 290.598,166.881 294.5,169C 295.833,171.333 295.833,173.667 294.5,176C 288.99,179.588 283.657,183.422 278.5,187.5C 276.583,181.682 274.583,175.849 272.5,170C 276.069,168.058 279.402,165.892 282.5,163.5 Z M 307.5,180.5 C 315.223,185.538 323.223,190.205 331.5,194.5C 332.655,197.446 332.821,200.446 332,203.5C 324.762,198.602 317.262,194.102 309.5,190C 308.568,186.915 307.901,183.748 307.5,180.5 Z M 231.5,189.5 C 239.365,206.945 244.531,225.279 247,244.5C 248.176,254.834 248.843,265.167 249,275.5C 236.834,270.778 224.501,266.444 212,262.5C 209.602,260.049 207.436,257.382 205.5,254.5C 214.463,232.914 223.129,211.247 231.5,189.5 Z M 306.5,197.5 C 314.685,201.183 322.685,205.349 330.5,210C 323.973,215.194 318.14,221.027 313,227.5C 305.457,223.548 298.29,219.048 291.5,214C 296.324,208.342 301.324,202.842 306.5,197.5 Z M 186.5,198.5 C 187.043,198.56 187.376,198.893 187.5,199.5C 182.43,211.713 177.764,224.047 173.5,236.5C 168.232,236.113 163.066,236.113 158,236.5C 155.008,226.864 152.175,217.198 149.5,207.5C 162.074,205.024 174.407,202.024 186.5,198.5 Z M 122.5,213.5 C 125.5,213.5 128.5,213.5 131.5,213.5C 131.5,215.167 131.5,216.833 131.5,218.5C 128.5,218.5 125.5,218.5 122.5,218.5C 122.5,216.833 122.5,215.167 122.5,213.5 Z M 286.5,221.5 C 293.473,225.321 300.473,229.154 307.5,233C 300.527,234.66 293.527,236.16 286.5,237.5C 286.5,232.167 286.5,226.833 286.5,221.5 Z M 120.5,222.5 C 124.846,222.334 129.179,222.501 133.5,223C 136.128,225.585 136.128,228.085 133.5,230.5C 131.689,229.261 129.689,228.594 127.5,228.5C 123.677,230.233 120.343,229.733 117.5,227C 118.386,225.385 119.386,223.885 120.5,222.5 Z M 139.5,230.5 C 140.497,230.47 141.164,230.97 141.5,232C 143.107,238.153 145.107,244.153 147.5,250C 146.207,250.49 144.873,250.657 143.5,250.5C 142.532,244.462 140.866,238.629 138.5,233C 139.252,232.329 139.586,231.496 139.5,230.5 Z M 125.5,234.5 C 128.463,234.151 130.796,235.151 132.5,237.5C 131.893,241.489 131.227,245.489 130.5,249.5C 128.929,250.309 127.262,250.643 125.5,250.5C 125.5,245.167 125.5,239.833 125.5,234.5 Z M 318.5,240.5 C 325.47,243.827 332.47,247.161 339.5,250.5C 340.66,254.459 340.827,258.459 340,262.5C 333.193,259.067 326.359,255.734 319.5,252.5C 318.509,248.555 318.176,244.555 318.5,240.5 Z M 96.5,263.5 C 100.79,260.903 105.457,259.403 110.5,259C 105.98,261.007 101.313,262.507 96.5,263.5 Z M 129.5,259.5 C 130.552,259.351 131.552,259.517 132.5,260C 131.686,266.753 131.186,273.586 131,280.5C 129.66,283.202 128.327,285.869 127,288.5C 125.882,285.145 124.382,281.978 122.5,279C 123.793,278.51 125.127,278.343 126.5,278.5C 126.5,272.5 126.5,266.5 126.5,260.5C 127.791,260.737 128.791,260.404 129.5,259.5 Z M 137.5,275.5 C 138.769,269.636 141.102,264.302 144.5,259.5C 143.396,265.071 141.063,270.404 137.5,275.5 Z M 314.5,259.5 C 321.913,262.036 329.246,264.869 336.5,268C 330.326,271.117 323.993,273.95 317.5,276.5C 311.167,274 304.833,271.5 298.5,269C 304.062,266.059 309.395,262.892 314.5,259.5 Z M 148.5,261.5 C 156.508,259.588 163.508,261.588 169.5,267.5C 168.451,269.112 166.951,270.112 165,270.5C 160.299,266.066 154.799,263.066 148.5,261.5 Z M 117.5,261.5 C 118.239,261.369 118.906,261.536 119.5,262C 119.455,264.636 119.288,267.47 119,270.5C 117.688,268.045 116.522,265.545 115.5,263C 116.416,262.722 117.082,262.222 117.5,261.5 Z M 96.5,263.5 C 92.123,266.018 87.4563,268.018 82.5,269.5C 86.6443,266.432 91.311,264.432 96.5,263.5 Z M 112.5,266.5 C 111.733,265.828 111.066,264.995 110.5,264C 112.061,263.812 112.728,264.645 112.5,266.5 Z M 118.5,290.5 C 114.716,289.571 111.049,288.238 107.5,286.5C 106.336,279.524 106.169,272.524 107,265.5C 110.928,273.781 114.761,282.114 118.5,290.5 Z M 112.5,266.5 C 113.931,267.78 114.598,269.447 114.5,271.5C 113.069,270.22 112.402,268.553 112.5,266.5 Z M 193.5,267.5 C 195.505,268.039 197.505,268.705 199.5,269.5C 202.102,275.242 203.769,281.242 204.5,287.5C 202.833,287.5 201.167,287.5 199.5,287.5C 198.103,280.644 196.103,273.977 193.5,267.5 Z M 82.5,269.5 C 68.4312,277.374 54.4312,285.541 40.5,294C 33.3805,298.624 26.7138,303.791 20.5,309.5C 18.5675,310.52 16.5675,310.687 14.5,310C 35.4476,293.69 58.1143,280.19 82.5,269.5 Z M 84.5,273.5 C 85.6129,274.946 85.7796,276.613 85,278.5C 83.2116,276.977 83.0449,275.31 84.5,273.5 Z M 174.5,273.5 C 175.458,273.953 176.292,274.619 177,275.5C 179.033,279.937 180.867,284.437 182.5,289C 179.905,289.226 177.405,289.726 175,290.5C 174.113,285.567 172.28,281.067 169.5,277C 171.584,276.303 173.251,275.136 174.5,273.5 Z M 215.5,273.5 C 224.164,276.221 232.831,279.055 241.5,282C 233.623,283.819 225.623,284.985 217.5,285.5C 217.47,281.382 216.803,277.382 215.5,273.5 Z M 291.5,273.5 C 298.808,276.485 306.141,279.485 313.5,282.5C 314.489,286.107 314.823,289.774 314.5,293.5C 306.833,293.5 299.167,293.5 291.5,293.5C 291.5,286.833 291.5,280.167 291.5,273.5 Z M 255.5,282.5 C 258.179,283.226 260.846,284.059 263.5,285C 261.19,285.497 258.857,285.663 256.5,285.5C 256.443,284.391 256.11,283.391 255.5,282.5 Z M 65.5,283.5 C 66.1644,286.146 66.4978,288.979 66.5,292C 66.625,295.355 66.125,298.522 65,301.5C 64.2124,295.418 64.379,289.418 65.5,283.5 Z M 83.5,286.5 C 84.8001,288.223 85.4668,290.39 85.5,293C 85.1667,295.167 84.8333,297.333 84.5,299.5C 83.5078,295.217 83.1744,290.884 83.5,286.5 Z M 49.5,292.5 C 50.1599,293.964 50.4932,295.631 50.5,297.5C 50.5877,299.712 50.0877,301.712 49,303.5C 48.2446,299.745 48.4113,296.078 49.5,292.5 Z M 257.5,292.5 C 264.144,302.439 270.311,312.772 276,323.5C 276.333,359.5 276.667,395.5 277,431.5C 283.696,436.362 290.53,441.029 297.5,445.5C 298.386,446.325 298.719,447.325 298.5,448.5C 291.167,448.5 283.833,448.5 276.5,448.5C 276.833,462.183 276.499,475.85 275.5,489.5C 274.667,434.503 274.167,379.503 274,324.5C 267.951,315.06 262.451,305.394 257.5,295.5C 256.325,295.281 255.325,295.614 254.5,296.5C 248.97,306.896 243.47,317.23 238,327.5C 237.107,328.711 236.274,328.711 235.5,327.5C 240.896,316.375 246.563,305.375 252.5,294.5C 254.291,293.83 255.958,293.163 257.5,292.5 Z M 180.5,297.5 C 181.833,297.5 183.167,297.5 184.5,297.5C 185.212,304.143 185.546,310.809 185.5,317.5C 202.866,316.902 220.2,316.069 237.5,315C 236.386,316.57 235.053,317.903 233.5,319C 217.168,320.262 200.835,321.428 184.5,322.5C 183.314,330.553 182.148,338.553 181,346.5C 194.835,386.006 208.668,425.506 222.5,465C 221,467.167 219.833,467 219,464.5C 205.66,426.49 192.327,388.49 179,350.5C 178,349.167 177,349.167 176,350.5C 174.654,353.87 172.821,356.87 170.5,359.5C 168.806,357.953 167.473,356.12 166.5,354C 176.593,336.793 180.259,318.293 177.5,298.5C 178.791,298.737 179.791,298.404 180.5,297.5 Z M 129.5,302.5 C 130.5,302.5 131.5,302.5 132.5,302.5C 132.5,304.833 132.5,307.167 132.5,309.5C 128.486,309.666 124.486,309.499 120.5,309C 118.156,308.163 116.156,306.829 114.5,305C 119.661,304.268 124.661,303.434 129.5,302.5 Z M 319.5,302.5 C 326.585,304.873 333.585,307.54 340.5,310.5C 340.833,311.167 341.167,311.833 341.5,312.5C 340.818,316.138 340.318,319.805 340,323.5C 333.696,320.676 327.196,318.343 320.5,316.5C 319.507,311.88 319.173,307.214 319.5,302.5 Z M 104.5,306.5 C 108.91,305.623 112.243,307.123 114.5,311C 116.5,311.667 118.5,312.333 120.5,313C 126.923,313.673 133.256,314.673 139.5,316C 144.081,319.438 145.581,323.938 144,329.5C 141.603,331.782 138.769,333.116 135.5,333.5C 135.826,329.116 135.492,324.783 134.5,320.5C 123.464,319.33 112.464,317.83 101.5,316C 97.012,310.966 98.012,307.799 104.5,306.5 Z M 181.5,510.5 C 165.073,521.342 147.74,522.842 129.5,515C 113.196,506.698 100.03,494.865 90,479.5C 68.0406,442.948 55.7072,403.281 53,360.5C 51.844,343.853 51.344,327.186 51.5,310.5C 53.7925,310.756 55.9592,310.423 58,309.5C 58.4995,315.491 58.6662,321.491 58.5,327.5C 76.4545,325.559 94.4545,324.393 112.5,324C 111.167,325.333 109.833,326.667 108.5,328C 91.4625,328.794 74.4625,329.961 57.5,331.5C 57.7971,364.949 62.9638,397.615 73,429.5C 76.5447,440.421 81.0447,450.921 86.5,461C 87.4491,461.617 88.2825,461.451 89,460.5C 91.06,455.38 93.3933,450.38 96,445.5C 96.6924,446.025 97.1924,446.692 97.5,447.5C 95.2545,452.326 92.7545,456.992 90,461.5C 88.8525,467.512 91.0191,471.846 96.5,474.5C 98.0293,474.471 99.196,473.804 100,472.5C 102.91,465.681 106.077,459.015 109.5,452.5C 110.308,452.808 110.975,453.308 111.5,454C 107.704,462.427 104.038,470.927 100.5,479.5C 116.732,503.45 139.399,514.95 168.5,514C 172.943,513.128 177.276,511.962 181.5,510.5 Z M 248.5,317.5 C 250.394,312.537 251.394,312.537 251.5,317.5C 250.5,317.5 249.5,317.5 248.5,317.5 Z M 24.5,323.5 C 25.2423,321.574 26.2423,319.741 27.5,318C 28.5,317.333 29.5,317.333 30.5,318C 35.3333,324.167 40.1667,330.333 45,336.5C 45.6667,374.833 45.6667,413.167 45,451.5C 43.6728,414.311 43.0061,376.977 43,339.5C 38.8866,333.053 34.3866,326.886 29.5,321C 27.5646,321.058 25.8979,321.891 24.5,323.5 Z M 122.5,323.5 C 125.5,323.5 128.5,323.5 131.5,323.5C 131.5,328.5 131.5,333.5 131.5,338.5C 128.654,337.905 125.654,337.905 122.5,338.5C 122.5,333.5 122.5,328.5 122.5,323.5 Z M 311.5,323.5 C 318.076,323.856 324.41,325.356 330.5,328C 321.753,330.032 313.087,329.365 304.5,326C 306.927,325.098 309.26,324.264 311.5,323.5 Z M 23.5,324.5 C 23.573,326.027 22.9063,327.027 21.5,327.5C 21.427,325.973 22.0937,324.973 23.5,324.5 Z M 117.5,325.5 C 118.161,327.134 118.494,328.967 118.5,331C 118.132,335.062 117.465,339.062 116.5,343C 116.34,345.47 117.007,347.636 118.5,349.5C 121.837,352.171 125.504,354.337 129.5,356C 142.002,360.252 154.002,365.585 165.5,372C 182.688,383.188 189.188,399.021 185,419.5C 193.568,437.203 199.734,455.703 203.5,475C 203.465,481.404 200.798,486.404 195.5,490C 192.167,492 188.833,494 185.5,496C 161.511,500.745 142.011,493.578 127,474.5C 126.8,468.493 127.133,462.493 128,456.5C 150.542,454.24 167.209,443.24 178,423.5C 181.151,414.111 181.151,404.777 178,395.5C 169.716,385.765 159.549,378.598 147.5,374C 138.047,370.071 128.38,366.738 118.5,364C 103.141,351.488 102.808,338.655 117.5,325.5 Z M 19.5,329.5 C 19.573,331.027 18.9063,332.027 17.5,332.5C 17.427,330.973 18.0937,329.973 19.5,329.5 Z M 244.5,329.5 C 247.167,329.5 249.833,329.5 252.5,329.5C 252.41,361.485 247.91,392.819 239,423.5C 239.41,392.517 239.577,361.517 239.5,330.5C 241.415,330.784 243.081,330.451 244.5,329.5 Z M 292.5,329.5 C 300.142,331.327 307.809,332.994 315.5,334.5C 315.674,339.964 315.674,345.298 315.5,350.5C 307.53,349.355 299.53,348.355 291.5,347.5C 292.363,341.545 292.697,335.545 292.5,329.5 Z M 228.5,330.5 C 229.833,330.5 231.167,330.5 232.5,330.5C 232.667,368.168 232.5,405.835 232,443.5C 223.964,419.727 216.131,395.893 208.5,372C 213.788,359.682 217.288,346.848 219,333.5C 222.019,331.943 225.186,330.943 228.5,330.5 Z M 200.5,332.5 C 202.167,332.5 203.833,332.5 205.5,332.5C 204.464,342.609 201.797,352.276 197.5,361.5C 207.966,390.732 218.133,420.065 228,449.5C 228.635,451.635 228.301,453.635 227,455.5C 216.007,423.855 205.007,392.189 194,360.5C 193.333,358.833 193.333,357.167 194,355.5C 196.947,348.042 199.114,340.375 200.5,332.5 Z M 99.5,337.5 C 100.5,337.5 101.5,337.5 102.5,337.5C 102.792,343.377 100.125,347.21 94.5,349C 90.2984,352.867 86.4651,357.033 83,361.5C 81.8698,358.184 81.3698,354.684 81.5,351C 81.5368,347.447 81.8702,343.947 82.5,340.5C 88.1639,338.985 93.8305,337.985 99.5,337.5 Z M 173.5,372.5 C 159.591,363.214 144.591,356.047 128.5,351C 126.083,349.374 123.583,347.874 121,346.5C 120.51,345.207 120.343,343.873 120.5,342.5C 144.925,340.872 162.592,350.872 173.5,372.5 Z M 89.5,409.5 C 90.6285,412.185 91.9618,414.852 93.5,417.5C 94.3081,417.192 94.9747,416.692 95.5,416C 94.8333,414 94.1667,412 93.5,410C 94.7839,409.316 95.9505,409.483 97,410.5C 97.7119,412.847 98.8786,414.847 100.5,416.5C 101.251,415.624 101.751,414.624 102,413.5C 103.588,417.309 103.922,421.309 103,425.5C 100.961,427.418 99.1274,429.418 97.5,431.5C 95.5,431.5 93.5,431.5 91.5,431.5C 91.5,432.833 91.5,434.167 91.5,435.5C 80.8404,425.056 75.5071,412.222 75.5,397C 76.1525,376.183 84.9858,360.017 102,348.5C 104.069,359.137 109.902,366.97 119.5,372C 115.066,377.467 112.066,383.634 110.5,390.5C 107.455,390.508 104.455,390.841 101.5,391.5C 100.331,384.028 101.998,377.361 106.5,371.5C 102.469,370.451 99.9691,372.118 99,376.5C 98.0213,381.895 96.8547,387.228 95.5,392.5C 94.5,392.5 93.5,392.5 92.5,392.5C 92.4784,386.599 94.1451,381.266 97.5,376.5C 97.1924,375.692 96.6924,375.025 96,374.5C 94.3333,375.833 92.6667,377.167 91,378.5C 90.0635,383.895 88.8968,389.228 87.5,394.5C 86.3036,393.441 85.637,392.107 85.5,390.5C 86.8211,386.208 87.8211,381.875 88.5,377.5C 87.1779,377.33 86.0113,377.663 85,378.5C 83.0458,383.983 82.0458,389.649 82,395.5C 77.2282,397.704 76.3949,400.87 79.5,405C 81.0249,406.009 82.6916,406.509 84.5,406.5C 84.987,410.474 86.3203,414.141 88.5,417.5C 89.5,417.167 90.1667,416.5 90.5,415.5C 89.6518,413.591 89.3184,411.591 89.5,409.5 Z M 300.5,355.5 C 311.653,353.711 321.32,356.878 329.5,365C 324.162,364.833 318.829,364.166 313.5,363C 309.139,360.488 304.806,357.988 300.5,355.5 Z M 16.5,359.5 C 23.9014,362.597 26.7347,368.264 25,376.5C 22.3333,379.167 19.6667,381.833 17,384.5C 16.5003,376.173 16.3336,367.84 16.5,359.5 Z M 316.5,370.5 C 323.85,371.072 331.183,371.739 338.5,372.5C 338.666,377.179 338.499,381.845 338,386.5C 330.606,384.992 323.106,383.992 315.5,383.5C 315.586,379.143 315.92,374.81 316.5,370.5 Z M 136.5,379.5 C 141.392,378.876 142.558,380.542 140,384.5C 138.667,385.833 137.333,387.167 136,388.5C 135.264,385.408 135.431,382.408 136.5,379.5 Z M 288.5,381.5 C 296.266,384.215 303.932,387.215 311.5,390.5C 310.436,394.192 309.269,397.859 308,401.5C 300.91,400.528 293.744,399.862 286.5,399.5C 287.297,393.516 287.963,387.516 288.5,381.5 Z M 165.5,392.5 C 160.485,391.915 155.485,391.248 150.5,390.5C 150.338,388.473 150.505,386.473 151,384.5C 156.266,386.546 161.099,389.213 165.5,392.5 Z M 106.5,394.5 C 107.552,394.351 108.552,394.517 109.5,395C 108.418,398.405 107.584,401.905 107,405.5C 105.301,406.406 103.467,406.739 101.5,406.5C 101.751,403.091 101.417,399.758 100.5,396.5C 102.631,395.831 104.631,395.165 106.5,394.5 Z M 148.5,406.5 C 150.132,402.604 149.798,398.937 147.5,395.5C 148.325,394.614 149.325,394.281 150.5,394.5C 150.833,398.5 151.167,402.5 151.5,406.5C 150.5,406.5 149.5,406.5 148.5,406.5 Z M 157.5,395.5 C 158.79,396.058 159.623,397.058 160,398.5C 160.497,401.146 160.664,403.813 160.5,406.5C 159.5,406.5 158.5,406.5 157.5,406.5C 157.5,402.833 157.5,399.167 157.5,395.5 Z M 92.5,396.5 C 93.5,396.5 94.5,396.5 95.5,396.5C 95.1211,408.39 94.1211,408.39 92.5,396.5 Z M 135.5,402.5 C 135.338,400.473 135.505,398.473 136,396.5C 137.888,398.67 137.721,400.67 135.5,402.5 Z M 163.5,396.5 C 166.216,396.678 168.883,397.178 171.5,398C 172.861,399.584 173.528,401.418 173.5,403.5C 170.762,403.851 168.096,404.518 165.5,405.5C 164.647,402.522 163.981,399.522 163.5,396.5 Z M 87.5,397.5 C 89.767,399.633 89.9336,401.966 88,404.5C 87.7489,402.567 87.2489,400.734 86.5,399C 87.056,398.617 87.3893,398.117 87.5,397.5 Z M 82.5,399.5 C 83.5735,400.251 83.7401,401.251 83,402.5C 81.2716,401.648 81.105,400.648 82.5,399.5 Z M 290.5,406.5 C 290.735,405.903 291.235,405.57 292,405.5C 298.137,406.478 304.304,407.312 310.5,408C 315.133,413.635 320.133,418.968 325.5,424C 318.423,424.371 311.423,423.704 304.5,422C 299.968,416.638 295.301,411.472 290.5,406.5 Z M 154.5,442.5 C 163.712,435.433 170.045,426.266 173.5,415C 173.387,413.72 172.72,412.887 171.5,412.5C 168.529,418.433 165.029,424.099 161,429.5C 153.149,438.339 143.316,442.506 131.5,442C 137.057,435.782 142.557,429.615 148,423.5C 148.847,419.682 150.014,416.016 151.5,412.5C 153.796,410.997 156.129,410.663 158.5,411.5C 157.215,414.021 156.548,416.687 156.5,419.5C 157.822,419.67 158.989,419.337 160,418.5C 160.925,415.029 162.592,412.029 165,409.5C 168.447,408.511 171.947,407.844 175.5,407.5C 176.331,423.976 169.331,435.642 154.5,442.5 Z M 30.5,409.5 C 31.224,411.218 31.8906,413.052 32.5,415C 28.5,415.667 24.5,415.667 20.5,415C 24.0561,413.392 27.3894,411.559 30.5,409.5 Z M 144.5,411.5 C 145.709,413.435 145.542,415.435 144,417.5C 143.322,415.402 143.489,413.402 144.5,411.5 Z M 130.5,412.5 C 131.797,414.693 131.797,417.027 130.5,419.5C 130.295,417.448 130.295,415.114 130.5,412.5 Z M 16.5,421.5 C 22.4406,422.413 28.4406,422.746 34.5,422.5C 34.5086,424.308 34.0086,425.975 33,427.5C 28.6667,432.833 24.3333,438.167 20,443.5C 18.3953,446.648 17.3953,449.981 17,453.5C 16.5002,442.839 16.3335,432.172 16.5,421.5 Z M 305.5,429.5 C 312.885,429.811 320.219,430.478 327.5,431.5C 327.998,435.425 327.998,439.425 327.5,443.5C 319.846,442.713 312.179,442.047 304.5,441.5C 304.237,437.4 304.57,433.4 305.5,429.5 Z M 130.5,435.5 C 129.842,431.323 131.508,429.823 135.5,431C 133.313,432.025 131.646,433.525 130.5,435.5 Z M 236.5,436.5 C 237.147,437.274 237.48,438.274 237.5,439.5C 237.017,467.296 236.184,494.963 235,522.5C 234.333,496.167 234.333,469.833 235,443.5C 235.662,441.187 236.162,438.854 236.5,436.5 Z M 114.5,442.5 C 114.461,441.244 114.961,440.244 116,439.5C 116.585,440.998 116.085,441.998 114.5,442.5 Z M 114.5,442.5 C 114.869,444.441 115.536,446.275 116.5,448C 126.514,449.35 136.514,448.85 146.5,446.5C 133.175,453.094 119.841,453.094 106.5,446.5C 109.754,446.206 112.421,444.873 114.5,442.5 Z M 279.5,455.5 C 285.653,454.347 291.986,454.18 298.5,455C 303.439,463.601 308.772,471.935 314.5,480C 306.812,480.831 299.145,480.665 291.5,479.5C 287.672,471.308 283.672,463.308 279.5,455.5 Z M 123.5,477.5 C 121.899,476.481 120.899,474.981 120.5,473C 121.14,467.103 122.14,461.269 123.5,455.5C 122.864,462.696 122.864,470.029 123.5,477.5 Z M 40.5,456.5 C 41.4816,459.962 41.815,463.629 41.5,467.5C 38.2784,467.892 35.2784,467.392 32.5,466C 35.0017,462.667 37.6684,459.501 40.5,456.5 Z M 16.5,457.5 C 18.3094,462.639 20.3094,467.806 22.5,473C 28.8059,473.897 35.1392,474.397 41.5,474.5C 42.6841,480.816 41.0174,486.149 36.5,490.5C 37.3482,492.409 37.6816,494.409 37.5,496.5C 30.5,496.5 23.5,496.5 16.5,496.5C 16.5,483.5 16.5,470.5 16.5,457.5 Z M 47.5,463.5 C 48.2485,464.531 48.9152,465.698 49.5,467C 49.1667,467.167 48.8333,467.333 48.5,467.5C 47.5713,466.311 47.238,464.978 47.5,463.5 Z M 47.5,474.5 C 49.6456,474.696 49.8122,475.696 48,477.5C 47.5172,476.552 47.3505,475.552 47.5,474.5 Z M 123.5,477.5 C 130.268,484.936 137.935,491.269 146.5,496.5C 136.118,493.451 128.451,487.117 123.5,477.5 Z M 271.5,490.5 C 265.824,490.666 260.157,490.499 254.5,490C 256.54,486.086 258.707,482.252 261,478.5C 265.082,482.076 268.582,486.076 271.5,490.5 Z M 44.5,483.5 C 45.8137,488.348 45.8137,493.348 44.5,498.5C 43.2214,493.449 43.2214,488.449 44.5,483.5 Z M 291.5,487.5 C 299.528,487.169 307.528,487.502 315.5,488.5C 313.892,491.382 312.559,494.382 311.5,497.5C 310.333,497.833 309.167,498.167 308,498.5C 301.517,497.814 295.017,497.314 288.5,497C 290.002,493.995 291.002,490.829 291.5,487.5 Z M 146.5,496.5 C 148.553,496.402 150.22,497.069 151.5,498.5C 149.447,498.598 147.78,497.931 146.5,496.5 Z M 64.5,497.5 C 67.4997,501.187 70.1664,505.187 72.5,509.5C 71.7542,510.736 71.4208,512.07 71.5,513.5C 66.456,513.827 61.456,513.494 56.5,512.5C 57.5798,509.874 57.2464,507.374 55.5,505C 58.6902,502.636 61.6902,500.136 64.5,497.5 Z M 255.5,497.5 C 261.167,497.5 266.833,497.5 272.5,497.5C 272.5,507.5 272.5,517.5 272.5,527.5C 269.882,527.221 267.382,526.554 265,525.5C 261.54,516.251 258.373,506.918 255.5,497.5 Z M 287.5,526.5 C 284.552,526.223 281.719,526.556 279,527.5C 278.333,517.5 278.333,507.5 279,497.5C 282.144,507.096 284.977,516.763 287.5,526.5 Z M 9.5,502.5 C 10.2389,502.369 10.9056,502.536 11.5,503C 7.97985,505.211 7.14652,508.045 9,511.5C 14.5512,516.296 21.0512,518.63 28.5,518.5C 34.5137,518.238 40.1804,516.738 45.5,514C 49.8575,509.055 48.8575,505.389 42.5,503C 50.061,503.226 53.2276,507.06 52,514.5C 49.1237,519.023 44.957,521.523 39.5,522C 29.5207,524.194 19.854,523.194 10.5,519C 3.21993,513.547 2.8866,508.047 9.5,502.5 Z M 20.5,504.5 C 27.6154,504.174 34.6154,504.841 41.5,506.5C 41.762,507.978 41.4287,509.311 40.5,510.5C 32.0948,514.607 23.7615,514.44 15.5,510C 20.8229,509.501 26.1563,509.334 31.5,509.5C 31.5,508.5 31.5,507.5 31.5,506.5C 26.1563,506.666 20.8229,506.499 15.5,506C 17.3817,505.802 19.0484,505.302 20.5,504.5 Z M 231.5,527.5 C 232.573,528.251 232.74,529.251 232,530.5C 230.414,531.376 228.914,532.376 227.5,533.5C 226.479,532.998 226.312,532.332 227,531.5C 228.667,530.267 230.167,528.933 231.5,527.5 Z M 89.5,529.5 C 93.1659,532.997 96.9992,536.331 101,539.5C 100.799,542.777 100.632,546.111 100.5,549.5C 93.8463,550.307 87.1796,550.474 80.5,550C 84.1858,543.477 87.1858,536.643 89.5,529.5 Z M 245.5,529.5 C 254.601,529.119 263.601,529.786 272.5,531.5C 272.719,532.675 272.386,533.675 271.5,534.5C 259.368,530.292 247.368,530.626 235.5,535.5C 228.641,543.366 230.308,549.199 240.5,553C 253.465,557.003 265.798,555.67 277.5,549C 280.745,545.323 281.078,541.49 278.5,537.5C 278.833,536.833 279.167,536.167 279.5,535.5C 284.938,538.714 286.771,543.38 285,549.5C 279.862,555.486 273.362,558.986 265.5,560C 251.556,562.808 238.89,560.142 227.5,552C 223.59,547.261 223.59,542.594 227.5,538C 232.99,533.902 238.99,531.069 245.5,529.5 Z M 283.5,534.5 C 284.946,533.387 286.613,533.22 288.5,534C 287.667,534.833 286.833,535.667 286,536.5C 285.583,535.244 284.75,534.577 283.5,534.5 Z M 238.5,544.5 C 245.508,544.666 252.508,544.5 259.5,544C 260.38,542.644 260.714,541.144 260.5,539.5C 253.159,539.666 245.826,539.5 238.5,539C 249.167,533 259.833,533 270.5,539C 273.192,541.632 272.859,543.966 269.5,546C 262.533,549.334 255.2,550.334 247.5,549C 243.89,548.528 240.89,547.028 238.5,544.5 Z M 204.5,545.5 C 206.753,547.817 208.42,550.65 209.5,554C 204.511,554.499 199.511,554.666 194.5,554.5C 194.281,553.325 194.614,552.325 195.5,551.5C 199.083,550.22 202.083,548.22 204.5,545.5 Z M 120.5,552.5 C 124.702,554.234 129.035,555.567 133.5,556.5C 133.83,563.532 133.497,570.532 132.5,577.5C 126.885,576.711 121.218,576.211 115.5,576C 118.689,568.534 120.355,560.7 120.5,552.5 Z M 168.5,559.5 C 169.748,560.334 170.415,561.667 170.5,563.5C 171.167,570.843 171.834,578.177 172.5,585.5C 165.493,586.568 158.493,586.568 151.5,585.5C 154.078,577.404 155.412,569.07 155.5,560.5C 160.032,560.818 164.366,560.485 168.5,559.5 Z M 194.5,561.5 C 200.425,561.192 206.259,561.525 212,562.5C 214,565.833 216,569.167 218,572.5C 218.554,575.658 219.054,578.825 219.5,582C 219.592,584.814 218.592,587.147 216.5,589C 208.921,589.184 201.421,589.684 194,590.5C 194.446,580.917 194.613,571.25 194.5,561.5 Z M 234.5,563.5 C 239.061,565.298 243.728,566.798 248.5,568C 247.328,568.419 246.328,569.085 245.5,570C 240.167,570.667 234.833,570.667 229.5,570C 230.665,568.916 231.998,568.083 233.5,567.5C 234.429,566.311 234.762,564.978 234.5,563.5 Z"/></g>
<g><path style="opacity:0.964" fill="#6a1640" d="M 80.5,16.5 C 81.5,16.5 82.5,16.5 83.5,16.5C 83.8327,31.5148 83.4993,46.5148 82.5,61.5C 77.3558,63.6028 72.1892,65.6028 67,67.5C 66.3333,52.8333 66.3333,38.1667 67,23.5C 71.514,20.9945 76.014,18.6611 80.5,16.5 Z"/></g>
<g><path style="opacity:0.873" fill="#6a1640" d="M 60.5,25.5 C 61.8333,25.5 63.1667,25.5 64.5,25.5C 64.8326,39.8488 64.4993,54.1821 63.5,68.5C 59.4003,70.6447 55.067,71.9781 50.5,72.5C 50.3334,58.8293 50.5001,45.1626 51,31.5C 54.1467,29.3503 57.3133,27.3503 60.5,25.5 Z"/></g>
<g><path style="opacity:0.939" fill="#6b163f" d="M 46.5,32.5 C 47.8304,39.1333 48.4971,46.1333 48.5,53.5C 48.1667,60.5 47.8333,67.5 47.5,74.5C 43.4645,76.5478 39.2979,78.2145 35,79.5C 33.3544,66.3213 33.0211,52.988 34,39.5C 38.0817,36.8751 42.2484,34.5418 46.5,32.5 Z"/></g>
<g><path style="opacity:0.967" fill="#6a163f" d="M 80.5,64.5 C 81.5,64.5 82.5,64.5 83.5,64.5C 83.8327,79.5148 83.4993,94.5148 82.5,109.5C 77.2755,111.575 71.9422,113.242 66.5,114.5C 66.5,99.5 66.5,84.5 66.5,69.5C 71.4379,68.3537 76.1046,66.687 80.5,64.5 Z"/></g>
<g><path style="opacity:0.873" fill="#6a1640" d="M 61.5,71.5 C 62.5,71.5 63.5,71.5 64.5,71.5C 64.6666,86.1705 64.4999,100.837 64,115.5C 59.7108,117.541 55.2108,118.874 50.5,119.5C 50.3334,105.163 50.5001,90.8295 51,76.5C 54.4568,74.5263 57.9568,72.8596 61.5,71.5 Z"/></g>
<g><path style="opacity:0.953" fill="#6b163f" d="M 45.5,77.5 C 46.5,77.5 47.5,77.5 48.5,77.5C 48.5,92.1667 48.5,106.833 48.5,121.5C 43.5801,123.126 38.5801,124.459 33.5,125.5C 33.1674,111.151 33.5007,96.8179 34.5,82.5C 38.1845,80.6168 41.8511,78.9501 45.5,77.5 Z"/></g>
<g><path style="opacity:0.969" fill="#6a1640" d="M 79.5,112.5 C 80.8333,112.5 82.1667,112.5 83.5,112.5C 83.6666,128.503 83.4999,144.503 83,160.5C 77.5764,162.064 72.0764,163.397 66.5,164.5C 66.3334,148.83 66.5001,133.163 67,117.5C 71.2893,115.909 75.456,114.242 79.5,112.5 Z"/></g>
<g><path style="opacity:0.874" fill="#6a1640" d="M 61.5,118.5 C 62.5,118.5 63.5,118.5 64.5,118.5C 64.5,134.167 64.5,149.833 64.5,165.5C 59.8333,166.5 55.1667,167.5 50.5,168.5C 50.3334,153.496 50.5001,138.496 51,123.5C 54.4568,121.526 57.9568,119.86 61.5,118.5 Z"/></g>
<g><path style="opacity:0.945" fill="#6b163f" d="M 46.5,123.5 C 48.4841,138.464 49.1507,153.797 48.5,169.5C 43.4616,170.343 38.4616,171.343 33.5,172.5C 33.1674,157.818 33.5007,143.152 34.5,128.5C 38.7247,127.125 42.7247,125.458 46.5,123.5 Z"/></g>
<g><path style="opacity:0.963" fill="#6a163f" d="M 80.5,163.5 C 81.5,163.5 82.5,163.5 83.5,163.5C 83.5,178.5 83.5,193.5 83.5,208.5C 78.1253,209.285 72.7919,210.285 67.5,211.5C 66.3338,196.845 66.1672,182.178 67,167.5C 71.653,166.382 76.153,165.049 80.5,163.5 Z"/></g>
<g><path style="opacity:0.877" fill="#6a1640" d="M 59.5,168.5 C 61.1667,168.5 62.8333,168.5 64.5,168.5C 64.6666,182.837 64.4999,197.171 64,211.5C 59.6376,212.861 55.1376,213.528 50.5,213.5C 50.3334,199.496 50.5001,185.496 51,171.5C 53.9494,170.563 56.7827,169.563 59.5,168.5 Z"/></g>
<g><path style="opacity:0.894" fill="#6a153f" d="M 29.5,169.5 C 30.4959,169.414 31.3292,169.748 32,170.5C 32.4998,179.16 32.6664,187.827 32.5,196.5C 28.0591,194.035 24.7258,190.368 22.5,185.5C 24.4595,179.938 26.7929,174.604 29.5,169.5 Z"/></g>
<g><path style="opacity:0.938" fill="#6b163f" d="M 46.5,171.5 C 47.8306,178.301 48.4972,185.467 48.5,193C 48.1667,200.167 47.8333,207.333 47.5,214.5C 42.9342,215.816 38.2675,216.483 33.5,216.5C 33.3334,202.829 33.5001,189.163 34,175.5C 38.3181,174.347 42.4848,173.013 46.5,171.5 Z"/></g>
<g><path style="opacity:0.971" fill="#6a163f" d="M 106.5,253.5 C 105.209,253.263 104.209,253.596 103.5,254.5C 97.4888,255.073 91.4888,255.74 85.5,256.5C 85.1673,241.152 85.5006,225.819 86.5,210.5C 93.0947,209.068 99.7613,208.068 106.5,207.5C 106.5,222.833 106.5,238.167 106.5,253.5 Z"/></g>
<g><path style="opacity:0.969" fill="#6a163f" d="M 81.5,210.5 C 82.1174,210.611 82.6174,210.944 83,211.5C 83.4999,226.83 83.6666,242.163 83.5,257.5C 77.7829,257.793 72.1162,258.46 66.5,259.5C 66.5,244.167 66.5,228.833 66.5,213.5C 71.7938,213.375 76.7938,212.375 81.5,210.5 Z"/></g>
<g><path style="opacity:0.874" fill="#6a1640" d="M 60.5,214.5 C 61.8333,214.5 63.1667,214.5 64.5,214.5C 64.8327,229.515 64.4993,244.515 63.5,259.5C 59.2562,260.707 54.9229,261.374 50.5,261.5C 50.5,246.5 50.5,231.5 50.5,216.5C 54.0399,216.247 57.3733,215.581 60.5,214.5 Z"/></g>
<g><path style="opacity:0.943" fill="#6b163f" d="M 43.5,217.5 C 45.1667,217.5 46.8333,217.5 48.5,217.5C 48.5,232.5 48.5,247.5 48.5,262.5C 43.9088,262.802 39.4088,263.469 35,264.5C 34.6667,264.167 34.3333,263.833 34,263.5C 33.3333,249.167 33.3333,234.833 34,220.5C 37.2445,219.428 40.4112,218.428 43.5,217.5 Z"/></g>
</svg>
