<?xml version="1.0" standalone="no"?>
<!DOCTYPE svg PUBLIC "-//W3C//DTD SVG 20010904//EN"
 "http://www.w3.org/TR/2001/REC-SVG-20010904/DTD/svg10.dtd">
<svg version="1.0" xmlns="http://www.w3.org/2000/svg"
 width="1008.000000pt" height="908.000000pt" viewBox="0 0 1008.000000 908.000000"
 preserveAspectRatio="xMidYMid meet">

<g transform="translate(0.000000,908.000000) scale(0.100000,-0.100000)"
fill="#000000" stroke="none">
<path d="M6225 7440 c-110 -4 -454 -10 -765 -14 -311 -4 -637 -9 -725 -12 -88
-3 -320 -7 -515 -8 l-354 -1 -43 -260 c-47 -289 -49 -311 -29 -318 15 -6 16
-31 1 -44 -4 -4 -6 -3 -2 2 3 6 1 17 -5 25 -7 11 -8 6 -4 -19 3 -18 6 -44 6
-57 0 -13 5 -24 10 -24 6 0 10 6 10 14 0 8 5 18 12 22 7 4 8 3 4 -4 -5 -8 4
-12 29 -12 25 0 34 -4 29 -12 -5 -8 33 -9 157 -4 152 7 280 9 321 7 23 -1 26
-29 32 -254 2 -104 6 -190 8 -192 1 -1 21 -11 43 -20 67 -30 244 -45 605 -51
278 -5 383 -3 540 10 249 21 363 40 399 67 l27 20 -4 217 c-3 119 -8 219 -12
222 -4 3 149 7 341 9 300 3 350 1 354 -12 9 -23 -23 -192 -51 -266 -29 -77
-67 -121 -103 -121 -14 0 -39 -11 -55 -25 -16 -14 -33 -25 -38 -25 -4 0 -22
-13 -40 -30 -17 -16 -26 -30 -19 -30 20 0 -11 -38 -36 -45 -15 -3 -23 -13 -23
-26 0 -16 -4 -19 -21 -14 -14 5 -28 0 -42 -13 -12 -11 -29 -22 -37 -25 -12 -4
-11 -6 3 -6 10 -1 28 6 42 15 19 13 27 13 44 2 20 -12 29 -37 14 -39 -5 0 -18
-2 -30 -3 -28 -3 -43 -16 -19 -16 11 0 15 -4 10 -12 -5 -8 0 -7 10 2 10 8 24
15 30 15 6 1 24 5 40 9 20 6 31 5 37 -5 12 -19 11 -29 -2 -29 -13 0 -38 -29
-39 -44 0 -5 11 1 24 13 43 40 65 -2 35 -64 -25 -50 -24 -57 6 -49 14 3 31 1
39 -5 10 -9 15 -3 25 29 15 49 24 55 89 56 47 0 52 -2 52 -22 0 -12 -10 -29
-22 -37 -20 -14 -21 -18 -8 -26 13 -9 13 -11 1 -11 -11 0 -12 -3 -4 -11 16
-16 43 -4 43 18 0 10 9 35 20 56 11 20 20 54 20 74 0 21 4 54 9 73 4 20 4 46
0 58 -7 18 -5 22 11 22 14 0 24 -15 40 -57 24 -65 23 -75 -25 -177 -43 -91
-80 -203 -99 -293 -74 -354 40 -534 323 -508 261 25 655 213 1361 653 222 138
290 187 290 208 0 21 -11 16 -112 -48 -45 -30 -104 -67 -130 -83 -26 -16 -45
-32 -43 -35 2 -4 -2 -7 -9 -7 -18 0 -186 -102 -186 -114 0 -5 -3 -8 -7 -7 -18
5 -53 -14 -47 -25 4 -7 3 -9 -1 -4 -5 4 -18 1 -30 -7 -12 -8 -84 -50 -161 -94
-661 -377 -1010 -481 -1150 -343 -64 62 -79 109 -78 236 1 113 7 141 64 315
94 287 280 594 527 873 257 290 512 449 723 451 72 0 92 -4 127 -24 110 -61
151 -238 103 -440 -71 -295 -248 -570 -367 -570 -109 0 -133 168 -63 435 37
143 38 147 24 152 -13 4 -61 -137 -73 -217 -5 -30 -9 -55 -9 -55 -4 0 -12 -67
-15 -120 -8 -135 38 -225 114 -225 66 0 98 12 145 53 68 60 120 135 184 270
83 175 114 298 114 457 1 117 -1 128 -26 175 -61 111 -124 148 -253 147 -177
-1 -334 -72 -545 -248 -157 -131 -358 -366 -481 -562 -20 -31 -50 -79 -67
-105 -16 -26 -41 -70 -54 -97 -22 -48 -38 -63 -38 -37 0 31 -63 139 -105 181
l-47 45 46 113 c37 93 47 129 53 208 8 88 9 94 32 100 23 5 24 8 22 85 -2 58
-14 119 -45 229 -24 83 -58 204 -76 269 l-33 117 -101 -2 c-56 -1 -191 -4
-301 -8z m-860 -590 c-3 -5 3 -10 14 -10 12 0 21 5 21 10 0 6 5 10 11 10 6 0
9 -8 7 -17 -3 -17 -58 -38 -58 -22 0 13 -78 11 -82 -2 -3 -9 -10 -9 -27 1 -25
13 -106 6 -116 -11 -9 -13 32 -11 55 3 15 10 24 9 45 -2 20 -11 33 -12 56 -3
21 8 39 9 60 1 16 -5 42 -7 57 -3 15 5 35 9 44 10 26 3 35 15 11 15 -11 0 -20
7 -20 15 0 16 23 21 29 6 5 -13 48 -24 48 -12 0 7 42 11 120 11 71 0 120 -4
120 -10 0 -5 7 -7 16 -3 13 5 13 7 2 14 -8 5 7 9 40 9 51 0 53 -1 46 -22 l-6
-23 19 21 c18 21 28 22 195 23 109 1 179 -3 183 -9 7 -12 -3 -13 -112 -10
l-82 2 12 -26 c7 -14 17 -24 24 -21 7 2 15 0 18 -5 4 -6 0 -10 -7 -10 -7 0
-23 -3 -35 -6 -17 -5 -23 -2 -23 9 0 8 6 18 13 20 7 4 3 8 -10 12 -13 4 -20
11 -17 16 3 5 0 9 -5 9 -6 0 -10 -10 -8 -22 2 -24 0 -25 -65 -27 -42 -1 -53
-21 -13 -21 14 0 25 -6 25 -12 0 -14 -114 -18 -126 -5 -11 11 -26 8 -19 -3 4
-7 -32 -10 -112 -8 -98 3 -117 6 -115 18 3 11 -1 11 -16 -3 -23 -21 -36 -22
-28 -2 3 8 1 15 -5 15 -5 0 -12 -7 -16 -15 -4 -13 -23 -16 -97 -15 -50 0 -250
-2 -443 -6 -338 -6 -353 -5 -354 13 -1 16 -2 16 -6 1 -5 -22 -23 -24 -23 -3 0
8 -4 15 -10 15 -5 0 -10 -6 -10 -14 0 -11 -12 -14 -47 -13 -49 2 -71 15 -50
30 8 6 7 7 -3 4 -8 -2 -14 -10 -13 -16 4 -15 -24 -14 -31 2 -5 10 -7 10 -12 0
-8 -18 -29 -16 -45 4 -12 15 -12 16 4 10 12 -4 26 0 39 13 24 22 38 26 38 10
0 -11 32 -1 42 14 9 13 48 18 48 6 0 -6 -6 -10 -13 -10 -7 0 -13 -9 -13 -20 0
-11 2 -20 4 -20 8 0 37 34 37 44 0 6 9 11 20 11 11 0 20 -6 20 -14 0 -8 6 -16
13 -18 6 -3 12 0 12 6 0 6 12 11 26 11 21 0 24 4 19 20 -4 11 -2 20 4 20 6 0
11 -8 11 -18 0 -17 8 -18 83 -15 68 2 85 6 99 23 21 26 58 26 65 1 5 -21 39
-35 49 -20 3 5 -5 13 -18 18 -28 12 -26 13 40 16 37 3 52 0 49 -8 -2 -7 -14
-11 -26 -10 -11 2 -21 -2 -21 -7 0 -17 29 -23 45 -10 8 6 23 9 35 5 27 -9 26
9 -2 23 -15 7 -18 11 -7 11 8 1 20 -4 27 -11 8 -8 15 -8 24 0 7 6 38 9 68 8
44 -2 143 6 158 13 2 0 0 -3 -3 -9z m940 0 c3 -5 -1 -10 -10 -10 -9 0 -13 5
-10 10 3 6 8 10 10 10 2 0 7 -4 10 -10z m339 1 c6 -9 -71 -7 -81 3 -3 3 12 6
35 6 22 0 43 -4 46 -9z m-1870 -15 c-21 -15 -30 -14 -19 3 3 6 14 11 23 11 13
0 13 -2 -4 -14z m105 -2 c10 -9 -55 -3 -69 6 -10 6 -2 7 25 3 22 -3 42 -7 44
-9z m1538 10 c-3 -3 -12 -4 -19 -1 -8 3 -5 6 6 6 11 1 17 -2 13 -5z m76 -1
c-7 -2 -21 -2 -30 0 -10 3 -4 5 12 5 17 0 24 -2 18 -5z m-2641 -18 c5 -6 8 -4
8 5 0 13 1 13 10 0 5 -8 10 -10 10 -4 0 7 35 9 108 7 203 -6 262 -10 269 -16
3 -4 -3 -7 -15 -7 -12 0 -22 -4 -22 -10 0 -5 6 -10 13 -10 8 0 7 -4 -3 -10
-24 -16 -40 -12 -40 10 0 11 -7 20 -15 20 -8 0 -15 -9 -15 -20 0 -16 -7 -20
-35 -20 -26 0 -33 3 -29 15 4 8 1 15 -5 15 -6 0 -11 -7 -11 -15 0 -12 -16 -15
-80 -15 -69 0 -80 2 -80 18 -1 15 -2 15 -13 -3 -17 -28 -37 -29 -38 -2 0 21
-1 21 -9 2 -9 -19 -9 -19 -16 2 -3 13 -9 21 -13 19 -4 -3 -7 4 -7 14 0 19 16
22 28 5z m641 -18 c-3 -5 -9 -3 -14 4 -4 7 -5 17 -2 22 3 5 9 3 14 -4 4 -7 5
-17 2 -22z m60 26 c-7 -2 -19 -2 -25 0 -7 3 -2 5 12 5 14 0 19 -2 13 -5z
m-197 -18 c-2 -5 -10 -8 -17 -6 -8 2 -24 3 -36 3 -13 -1 -23 2 -23 8 0 5 18 8
40 7 23 -1 39 -6 36 -12z m104 5 c0 -7 -8 -9 -21 -5 -16 5 -22 2 -26 -15 -4
-16 -8 -18 -14 -8 -16 24 -9 34 26 36 20 2 35 -2 35 -8z m1715 1 c3 -5 1 -12
-5 -16 -5 -3 -10 1 -10 9 0 18 6 21 15 7z m450 -1 c3 -6 -1 -7 -9 -4 -18 7
-21 14 -7 14 6 0 13 -4 16 -10z m-502 -7 c-7 -2 -19 -2 -25 0 -7 3 -2 5 12 5
14 0 19 -2 13 -5z m-1842 -26 c-1 -12 -15 -9 -19 4 -3 6 1 10 8 8 6 -3 11 -8
11 -12z m99 -2 c0 -8 -7 -15 -15 -15 -9 0 -12 6 -9 15 4 8 10 15 15 15 5 0 9
-7 9 -15z m1750 -25 c0 -5 -11 -10 -25 -10 -14 0 -25 5 -25 10 0 6 11 10 25
10 14 0 25 -4 25 -10z m-1745 -20 c-3 -5 -13 -6 -21 -3 -12 4 -13 8 -3 14 15
9 32 2 24 -11z m2145 -470 c0 -5 -5 -10 -11 -10 -5 0 -7 5 -4 10 3 6 8 10 11
10 2 0 4 -4 4 -10z m-90 -115 c-7 -9 -15 -13 -17 -11 -7 7 7 26 19 26 6 0 6
-6 -2 -15z m204 -59 c7 -31 5 -43 -11 -64 -11 -15 -27 -28 -36 -30 -13 -3 -15
4 -11 35 15 103 41 130 58 59z"/>
<path d="M5622 6823 c2 -11 14 -19 31 -21 29 -4 35 6 15 26 -19 19 -50 15 -46
-5z"/>
<path d="M5513 6823 c-35 -7 -28 -19 16 -30 41 -11 74 -2 51 12 -9 6 -9 10 1
16 15 9 -25 10 -68 2z"/>
<path d="M4907 6814 c-8 -8 1 -24 14 -24 5 0 9 7 9 15 0 15 -12 20 -23 9z"/>
<path d="M5700 6811 c0 -11 26 -22 34 -14 12 12 5 23 -14 23 -11 0 -20 -4 -20
-9z"/>
<path d="M5300 6790 c0 -5 5 -10 10 -10 6 0 10 5 10 10 0 6 -4 10 -10 10 -5 0
-10 -4 -10 -10z"/>
<path d="M5775 6790 c-3 -5 -1 -10 4 -10 6 0 11 5 11 10 0 6 -2 10 -4 10 -3 0
-8 -4 -11 -10z"/>
<path d="M5420 6780 c0 -12 8 -12 35 0 18 8 17 9 -7 9 -16 1 -28 -3 -28 -9z"/>
<path d="M4685 6770 c-3 -5 -1 -10 4 -10 6 0 11 5 11 10 0 6 -2 10 -4 10 -3 0
-8 -4 -11 -10z"/>
<path d="M5488 6773 c6 -2 18 -2 25 0 6 3 1 5 -13 5 -14 0 -19 -2 -12 -5z"/>
<path d="M4668 6743 c12 -2 30 -2 40 0 9 3 -1 5 -23 4 -22 0 -30 -2 -17 -4z"/>
<path d="M4738 6743 c6 -2 18 -2 25 0 6 3 1 5 -13 5 -14 0 -19 -2 -12 -5z"/>
<path d="M4110 6795 c0 -8 9 -15 20 -15 24 0 27 15 4 24 -22 9 -24 8 -24 -9z"/>
<path d="M3935 6790 c3 -5 8 -10 11 -10 2 0 4 5 4 10 0 6 -5 10 -11 10 -5 0
-7 -4 -4 -10z"/>
<path d="M4000 6790 c0 -5 5 -10 10 -10 6 0 10 5 10 10 0 6 -4 10 -10 10 -5 0
-10 -4 -10 -10z"/>
<path d="M7500 6506 c-18 -31 -36 -59 -41 -62 -5 -3 -9 -17 -9 -32 l0 -27 26
28 c14 16 28 27 29 25 2 -2 0 -82 -5 -178 -12 -226 -12 -360 -1 -360 15 0 20
40 37 310 21 322 22 342 7 347 -7 2 -26 -21 -43 -51z"/>
<path d="M6250 6169 c0 -5 5 -7 10 -4 6 3 10 8 10 11 0 2 -4 4 -10 4 -5 0 -10
-5 -10 -11z"/>
<path d="M4553 5996 c0 -8 8 -11 20 -8 14 4 16 7 5 13 -19 12 -25 11 -25 -5z"/>
<path d="M5907 5983 c-165 -56 -181 -58 -622 -57 -255 0 -426 5 -452 11 -24 6
-40 7 -37 2 3 -5 23 -12 45 -15 22 -4 42 -11 45 -16 3 -5 13 -3 22 4 12 10 16
10 19 1 3 -7 12 -13 21 -13 14 0 17 -10 16 -58 0 -31 4 -75 9 -97 5 -26 5 -41
-2 -43 -14 -5 -14 -32 -1 -32 6 0 10 -7 10 -15 0 -8 -4 -15 -10 -15 -5 0 -9
-30 -8 -67 1 -43 -3 -68 -10 -71 -7 -2 -12 1 -12 7 0 6 -12 11 -27 10 -26 0
-25 -2 13 -19 79 -35 127 -136 123 -255 -2 -38 -7 -76 -12 -82 -5 -7 -7 -13
-3 -13 4 0 1 -12 -7 -27 -7 -16 -13 -40 -12 -55 1 -20 -2 -24 -11 -17 -8 6
-16 4 -25 -8 -9 -11 -10 -14 -1 -9 21 13 13 -3 -20 -40 -17 -19 -37 -33 -43
-30 -6 2 -22 -2 -36 -10 -13 -7 -20 -13 -16 -14 5 0 17 5 27 10 12 6 21 7 25
0 3 -5 13 -7 23 -4 14 5 14 3 -2 -6 -14 -10 -16 -14 -5 -20 9 -6 12 -31 10
-92 -2 -46 -4 -99 -5 -118 -1 -23 -8 -39 -21 -48 -19 -13 -19 -13 3 -8 19 4
21 2 11 -10 -6 -7 -15 -12 -18 -9 -4 2 -8 -2 -8 -10 0 -8 4 -12 9 -9 15 10 8
-7 -13 -29 -12 -12 -35 -50 -51 -85 -39 -81 -47 -169 -24 -243 20 -61 36 -84
85 -119 59 -41 187 -28 230 24 15 18 41 21 41 5 0 -5 4 -8 9 -5 5 4 8 -2 7
-11 -2 -10 -8 -19 -14 -19 -7 -1 -15 -3 -19 -4 -5 -1 -17 -2 -28 -1 -26 1 -55
-18 -37 -26 6 -2 12 -9 12 -14 0 -6 -5 -7 -11 -3 -6 3 -44 7 -85 8 -52 2 -79
7 -92 19 -11 10 -26 14 -40 10 -18 -4 -22 -13 -22 -44 0 -21 -4 -41 -10 -44
-5 -3 -10 -23 -10 -43 0 -20 -9 -90 -20 -155 -11 -64 -27 -168 -35 -230 -8
-61 -24 -166 -35 -232 -10 -66 -19 -121 -20 -123 0 -2 -9 -1 -19 3 -11 3 -28
7 -38 9 -10 2 -41 13 -69 24 -29 12 -55 18 -58 15 -16 -16 416 -148 679 -207
169 -38 372 -57 402 -38 15 9 62 120 74 172 4 19 20 73 34 120 15 47 30 103
34 125 4 23 10 45 13 51 13 20 82 358 107 519 36 239 68 590 76 835 3 96 7
234 10 305 7 178 10 813 5 817 -3 2 -36 -7 -73 -19z m-380 -425 c-2 -13 -4 -5
-4 17 -1 22 1 32 4 23 2 -10 2 -28 0 -40z m-24 -152 c145 -62 179 -307 66
-482 -44 -69 -70 -94 -116 -113 -44 -18 -168 -6 -168 17 0 14 -14 27 -28 27
-7 0 -12 9 -12 20 0 15 -6 19 -21 17 -13 -2 -21 3 -21 13 0 8 5 15 10 15 5 0
6 12 2 28 -11 44 -22 161 -14 156 4 -2 10 15 14 38 4 24 11 48 15 53 4 6 10
22 13 36 4 15 22 49 41 77 19 27 32 53 28 58 -4 4 -1 4 6 0 8 -5 21 -1 30 8
22 19 81 45 105 46 10 0 32 -6 50 -14z m-355 -763 c17 -10 45 -29 61 -42 l30
-25 -25 -48 c-13 -26 -30 -48 -37 -48 -6 0 -66 11 -132 25 -131 26 -156 42
-132 79 20 32 114 76 161 76 23 0 56 -8 74 -17z m133 -267 c-17 -21 -23 -57
-10 -54 7 2 15 -6 17 -17 4 -17 2 -18 -12 -6 -18 15 -17 15 -35 -14 l-13 -20
7 20 c19 54 35 124 36 155 1 34 1 34 10 -9 5 -25 5 -49 0 -55z m166 -33 c-3
-10 -5 -2 -5 17 0 19 2 27 5 18 2 -10 2 -26 0 -35z m-10 -75 c-3 -8 -6 -5 -6
6 -1 11 2 17 5 13 3 -3 4 -12 1 -19z m-160 -13 c0 -8 -4 -12 -9 -9 -4 3 -8 9
-8 15 0 5 4 9 8 9 5 0 9 -7 9 -15z m-27 -15 c11 -7 11 -10 2 -10 -7 0 -10 -6
-7 -12 4 -7 0 -5 -8 4 -8 10 -17 15 -20 11 -4 -3 -7 -1 -7 5 0 14 19 15 40 2z
m-227 -167 c-7 -2 -19 -2 -25 0 -7 3 -2 5 12 5 14 0 19 -2 13 -5z m44 1 c-3
-3 -12 -4 -19 -1 -8 3 -5 6 6 6 11 1 17 -2 13 -5z m340 -71 c-3 -10 -5 -4 -5
12 0 17 2 24 5 18 2 -7 2 -21 0 -30z m-80 -530 c-3 -10 -5 -2 -5 17 0 19 2 27
5 18 2 -10 2 -26 0 -35z m-30 -145 c-3 -8 -6 -5 -6 6 -1 11 2 17 5 13 3 -3 4
-12 1 -19z m-10 -80 c-3 -7 -5 -2 -5 12 0 14 2 19 5 13 2 -7 2 -19 0 -25z"/>
<path d="M5271 5084 c-60 -76 34 -160 104 -94 27 25 33 49 13 51 -7 1 -17 2
-23 4 -5 1 -16 3 -24 3 -10 2 -12 11 -7 32 5 27 3 30 -19 30 -14 0 -32 -11
-44 -26z"/>
<path d="M4604 5982 c5 -8 -1 -12 -17 -12 -35 0 -54 -26 -39 -51 7 -11 8 -19
2 -19 -5 0 -10 -7 -10 -16 0 -8 4 -13 9 -10 5 3 12 -1 15 -10 3 -8 2 -12 -4
-9 -6 3 -10 0 -10 -9 0 -8 -2 -20 -3 -28 -2 -7 -2 -10 0 -5 11 19 25 5 18 -20
-6 -26 -6 -27 13 -10 23 21 42 22 42 1 0 -14 -3 -14 -15 -4 -12 10 -15 10 -15
0 0 -7 -7 -18 -17 -25 -16 -12 -10 -40 7 -30 4 3 6 -5 2 -17 -5 -20 -3 -21 10
-10 17 13 52 5 55 -14 1 -6 -23 -35 -54 -65 -31 -30 -53 -48 -49 -41 4 6 2 12
-4 12 -7 0 -9 -7 -6 -17 4 -10 -6 -36 -27 -67 -43 -65 -70 -116 -64 -123 3 -3
11 7 19 20 17 34 120 157 130 157 4 0 -1 -9 -12 -20 -12 -12 -18 -25 -14 -31
4 -8 10 -7 17 0 6 6 16 11 22 11 5 0 1 -7 -9 -15 -10 -8 -23 -12 -27 -9 -5 3
-9 -4 -9 -16 0 -12 5 -18 10 -15 6 3 10 2 10 -4 0 -5 -5 -13 -10 -16 -6 -4 -7
-13 -1 -24 8 -14 8 -56 1 -56 -1 0 -4 -19 -6 -42 -3 -24 -1 -43 4 -43 5 0 8
10 7 23 -2 12 3 27 10 34 10 10 12 4 9 -28 -2 -21 0 -39 5 -39 5 0 9 -11 9
-25 0 -31 -15 -33 -20 -3 -2 13 -11 24 -20 26 -16 3 -17 -6 -16 -85 1 -49 -1
-94 -6 -101 -4 -6 -3 -12 1 -12 5 0 6 -26 2 -57 -4 -32 -7 -83 -6 -113 0 -40
1 -45 4 -17 4 33 7 37 31 36 l27 -1 -25 -7 c-22 -6 -23 -8 -7 -14 10 -4 15
-11 12 -17 -3 -5 1 -10 9 -10 9 0 16 -4 16 -10 0 -5 -5 -10 -11 -10 -5 0 -7
-4 -4 -10 10 -17 25 -11 25 9 0 11 5 23 10 26 8 5 7 11 -1 21 -7 9 -8 14 -1
14 6 0 14 -4 17 -10 10 -17 27 -11 23 8 -2 9 -10 17 -17 17 -8 0 -16 6 -18 13
-3 6 0 12 7 12 6 0 8 -5 4 -12 -5 -7 -3 -8 5 -3 9 5 10 10 2 18 -16 16 -14 32
2 18 10 -7 17 -7 24 0 8 8 4 21 -13 46 -13 20 -29 53 -34 74 -6 21 -15 41 -21
45 -7 4 -7 9 -1 13 10 7 23 153 13 146 -4 -2 -7 5 -7 16 0 10 4 19 8 19 4 0 8
-6 8 -12 0 -7 7 0 15 16 8 15 15 33 15 38 0 5 9 21 20 35 11 14 17 30 13 36
-3 5 -2 7 4 4 5 -3 25 7 44 24 26 23 28 26 7 14 -17 -11 -28 -13 -33 -6 -3 6
1 11 9 11 9 0 13 6 10 13 -3 8 5 18 18 25 19 9 20 11 5 11 -11 1 -16 6 -12 14
4 6 -1 3 -11 -8 -15 -18 -16 -18 -10 -2 3 10 6 23 6 28 0 6 10 7 23 4 22 -7
22 -7 2 8 -18 14 -21 14 -31 -5 -10 -19 -11 -19 -18 -2 -4 10 -1 21 6 26 10 6
10 8 1 8 -21 0 -28 -4 -25 -14 2 -5 -4 -4 -12 4 -19 15 -21 0 -3 -20 10 -12 9
-12 -7 0 -16 13 -20 12 -37 -9 -14 -17 -19 -19 -19 -7 0 17 100 89 140 101 41
12 70 34 70 54 0 33 -28 31 -97 -4 -36 -20 -68 -34 -69 -32 -2 2 5 13 17 25
l20 22 -26 12 c-28 12 -33 28 -10 28 23 0 18 17 -7 24 -23 6 -23 7 -4 21 17
13 18 15 3 15 -9 0 -17 -4 -17 -10 0 -5 -7 -10 -15 -10 -23 0 -18 9 21 46 l35
34 -28 1 c-15 0 -22 3 -15 6 10 4 9 8 -5 19 -15 11 -15 14 -3 15 8 1 -5 5 -30
9 l-45 7 55 2 c30 1 64 6 75 10 18 7 16 9 -10 13 -17 3 -39 9 -49 13 -14 6
-17 5 -12 -3z m30 -117 c-4 -8 -14 -15 -23 -15 -14 1 -13 3 3 15 25 19 27 19
20 0z m28 -143 c-7 -2 -10 -8 -7 -13 4 -5 -1 -6 -9 -3 -9 3 -16 10 -16 14 0
11 23 19 35 12 5 -3 4 -7 -3 -10z m-85 -487 c0 -8 -4 -15 -9 -15 -4 0 -8 7 -8
15 0 8 4 15 8 15 5 0 9 -7 9 -15z m24 -56 c-9 -22 -10 -22 -10 -3 -1 11 2 24
6 27 12 12 14 0 4 -24z m53 -164 c15 -19 22 -35 17 -35 -6 0 -11 4 -11 9 0 5
-9 7 -20 4 -12 -3 -20 0 -20 6 0 7 -5 9 -11 5 -6 -3 -9 -22 -7 -40 4 -30 1
-34 -19 -34 -26 0 -31 25 -7 34 8 3 12 11 8 17 -4 7 1 19 12 27 13 10 15 16 7
19 -20 7 -15 23 6 23 10 0 31 -16 45 -35z"/>
<path d="M4620 5026 c0 -8 7 -16 15 -20 13 -4 14 -2 5 14 -13 23 -20 26 -20 6z"/>
<path d="M4743 5943 c9 -2 23 -2 30 0 6 3 -1 5 -18 5 -16 0 -22 -2 -12 -5z"/>
<path d="M4554 5691 c0 -13 5 -17 16 -13 11 4 10 -1 -5 -19 l-20 -24 22 19
c19 16 25 17 40 5 15 -11 16 -11 6 1 -18 20 -16 35 2 20 9 -8 15 -9 15 -2 0
18 -20 24 -35 12 -12 -10 -16 -9 -21 4 -8 22 -20 20 -20 -3z"/>
<path d="M4579 5633 c-13 -16 -12 -17 4 -4 9 7 17 15 17 17 0 8 -8 3 -21 -13z"/>
<path d="M4808 5524 c-16 -8 -28 -17 -28 -19 0 -6 52 16 65 27 15 13 -7 9 -37
-8z"/>
<path d="M4537 5470 c-3 -8 -5 -23 -4 -33 0 -16 2 -16 15 -4 10 11 12 20 4 33
-9 16 -12 16 -15 4z"/>
<path d="M4697 5170 c-34 -27 -41 -53 -23 -88 17 -33 34 -42 75 -42 35 0 58
18 67 53 6 26 4 27 -31 27 -35 0 -36 1 -33 32 4 40 -17 47 -55 18z"/>
<path d="M4934 4988 l-19 -23 23 19 c12 11 22 21 22 23 0 8 -8 2 -26 -19z"/>
<path d="M4734 4945 c19 -15 19 -15 -3 -15 -12 0 -19 -4 -16 -10 4 -7 13 -6
26 1 13 6 25 7 32 1 7 -5 20 -7 30 -3 14 5 5 11 -35 23 -43 14 -49 14 -34 3z"/>
<path d="M4536 4803 c-6 -14 -5 -15 5 -6 7 7 10 15 7 18 -3 3 -9 -2 -12 -12z"/>
<path d="M4572 4780 c0 -14 2 -19 5 -12 2 6 2 18 0 25 -3 6 -5 1 -5 -13z"/>
<path d="M4622 4781 c-11 -7 -11 -9 2 -14 10 -4 16 -1 16 8 0 17 -1 17 -18 6z"/>
<path d="M4542 4710 c0 -14 2 -19 5 -12 2 6 2 18 0 25 -3 6 -5 1 -5 -13z"/>
<path d="M4599 4690 c-7 -52 -7 -51 6 -42 6 4 8 25 5 47 l-6 40 -5 -45z"/>
<path d="M4582 4700 c0 -14 2 -19 5 -12 2 6 2 18 0 25 -3 6 -5 1 -5 -13z"/>
<path d="M4573 4592 c1 -14 5 -18 11 -12 7 7 6 14 -1 21 -9 9 -12 7 -10 -9z"/>
<path d="M4590 4490 c0 -5 5 -10 10 -10 6 0 10 5 10 10 0 6 -4 10 -10 10 -5 0
-10 -4 -10 -10z"/>
<path d="M4495 4481 c-3 -5 -1 -12 5 -16 5 -3 10 1 10 9 0 18 -6 21 -15 7z"/>
<path d="M4590 4456 c0 -9 5 -16 10 -16 6 0 10 4 10 9 0 6 -4 13 -10 16 -5 3
-10 -1 -10 -9z"/>
<path d="M4508 4443 c7 -3 16 -2 19 1 4 3 -2 6 -13 5 -11 0 -14 -3 -6 -6z"/>
<path d="M2400 4333 c-38 -14 -580 -235 -620 -253 -25 -11 -184 -76 -355 -146
-170 -69 -323 -132 -340 -139 -16 -7 -75 -31 -130 -53 -55 -23 -154 -63 -220
-90 -66 -28 -203 -84 -305 -126 -352 -143 -403 -165 -411 -173 -4 -4 741 -759
1656 -1678 1591 -1597 1664 -1669 1686 -1658 13 7 103 44 199 82 96 38 252
101 345 139 419 172 866 355 930 382 39 16 124 51 190 78 144 59 697 286 775
317 30 13 116 48 190 78 74 31 223 91 331 135 108 44 204 84 212 89 13 7 -115
140 -641 666 -361 361 -662 657 -668 657 -6 0 -18 -8 -27 -18 -16 -17 16 -51
603 -639 341 -341 620 -625 620 -630 0 -5 -53 -29 -117 -55 -65 -26 -224 -90
-353 -143 -129 -53 -307 -126 -395 -162 -88 -36 -173 -71 -190 -78 -16 -7
-115 -48 -220 -90 -104 -43 -230 -94 -280 -115 -49 -21 -164 -68 -255 -105
-91 -37 -228 -93 -305 -125 -77 -32 -246 -101 -375 -153 -129 -53 -296 -121
-370 -152 -74 -31 -151 -63 -171 -70 l-37 -13 -1055 1056 c-1276 1277 -2168
2175 -2164 2178 1 1 74 31 162 67 88 36 225 92 305 125 80 33 269 110 420 172
151 62 340 140 420 172 80 33 253 104 385 158 132 54 325 133 428 175 l188 77
311 -207 c171 -113 316 -209 323 -211 7 -3 165 22 351 56 187 33 350 62 364
64 21 3 61 -33 267 -243 156 -159 248 -259 258 -283 8 -21 13 -38 10 -38 -3 0
-10 10 -15 23 -9 22 -9 22 -9 1 -1 -25 23 -49 39 -39 5 3 10 12 10 20 0 7 7
15 15 19 21 8 19 46 -2 46 -14 0 -12 4 7 25 22 23 22 25 4 25 -16 0 -16 2 -4
10 12 7 10 9 -7 7 -21 -1 -21 -2 -6 -19 15 -16 11 -22 -10 -19 -4 0 -6 -4 -5
-10 2 -6 -3 -14 -9 -16 -9 -3 -13 8 -13 37 0 41 -3 46 -210 252 -116 115 -208
214 -204 219 3 5 17 9 32 9 43 0 12 16 -58 30 -36 7 -126 26 -200 42 -767 165
-910 196 -1080 233 -157 36 -173 38 -200 28z m501 -154 c134 -28 280 -59 324
-69 44 -9 152 -32 240 -50 88 -18 162 -35 164 -37 11 -8 -23 -16 -269 -58
-191 -34 -270 -44 -285 -37 -49 24 -467 314 -444 308 14 -3 135 -29 270 -57z"/>
<path d="M4456 4283 c-7 -76 -5 -90 11 -90 15 0 17 13 3 22 -6 4 -8 29 -4 66
3 32 4 59 1 59 -3 0 -8 -26 -11 -57z"/>
<path d="M4449 4179 c0 -2 -2 -12 -4 -21 -2 -10 1 -20 6 -24 5 -3 6 -10 3 -16
-4 -6 -3 -8 3 -5 11 7 11 52 0 63 -4 4 -7 5 -8 3z"/>
<path d="M5153 4148 c-2 -15 1 -17 11 -9 7 6 16 8 19 4 4 -3 7 -3 7 0 0 3 -8
11 -18 16 -14 8 -18 5 -19 -11z"/>
<path d="M4868 4133 c7 -3 16 -2 19 1 4 3 -2 6 -13 5 -11 0 -14 -3 -6 -6z"/>
<path d="M4411 3994 c0 -11 3 -14 6 -6 3 7 2 16 -1 19 -3 4 -6 -2 -5 -13z"/>
<path d="M4419 3948 c-10 -32 2 -61 15 -39 4 5 2 12 -4 16 -6 4 -8 11 -5 16 4
5 4 9 1 9 -3 0 -6 -1 -7 -2z"/>
<path d="M4410 3819 c0 -5 5 -7 10 -4 6 3 10 8 10 11 0 2 -4 4 -10 4 -5 0 -10
-5 -10 -11z"/>
<path d="M4380 3730 c0 -5 5 -10 11 -10 5 0 7 5 4 10 -3 6 -8 10 -11 10 -2 0
-4 -4 -4 -10z"/>
<path d="M3230 3615 c-14 -8 -34 -17 -45 -21 -19 -7 -19 -7 -1 -11 10 -3 23 0
29 6 16 16 75 13 84 -4 8 -13 266 -277 310 -316 10 -9 73 -72 141 -140 67 -68
128 -129 135 -135 6 -7 128 -128 269 -270 141 -143 264 -265 272 -272 9 -6 13
-18 10 -26 -3 -9 4 -15 20 -18 21 -4 24 -2 16 11 -8 15 -58 67 -97 102 -10 8
-46 46 -81 82 -35 37 -67 67 -72 67 -5 0 -10 4 -12 10 -4 13 -939 950 -947
949 -3 0 -17 -7 -31 -14z"/>
<path d="M3115 3570 c-3 -5 -20 -13 -37 -18 -18 -4 -33 -13 -36 -20 -5 -17 23
-15 38 2 6 8 23 16 37 18 15 2 28 9 31 16 4 14 -24 17 -33 2z"/>
<path d="M2975 3511 c-10 -18 17 -23 33 -7 15 15 15 16 -5 16 -12 0 -24 -4
-28 -9z"/>
<path d="M2878 3473 c-27 -14 -45 -29 -42 -34 3 -5 17 -3 32 5 15 7 39 19 55
25 27 11 38 32 15 30 -7 -1 -34 -13 -60 -26z"/>
<path d="M4395 3451 c3 -6 0 -13 -7 -18 -7 -4 -21 -18 -31 -30 -19 -21 -19
-22 21 -42 50 -26 145 -62 149 -57 5 5 -80 46 -96 46 -7 0 -9 5 -5 12 5 7 3 8
-6 3 -8 -5 -17 -2 -24 7 -6 8 -18 18 -26 21 -8 4 1 5 20 2 19 -3 29 -2 23 1
-7 3 -13 15 -13 27 0 18 2 20 11 7 9 -12 10 -12 5 3 -3 10 -6 21 -6 23 0 2 -5
4 -11 4 -5 0 -8 -4 -4 -9z"/>
<path d="M2777 3433 c-12 -11 -8 -23 7 -23 7 0 19 7 26 15 10 12 9 15 -7 15
-11 0 -23 -3 -26 -7z"/>
<path d="M2703 3403 c-7 -2 -13 -9 -13 -14 0 -15 36 -10 50 6 10 12 9 15 -6
14 -11 0 -25 -3 -31 -6z"/>
<path d="M2635 3370 c-3 -5 -15 -10 -25 -10 -10 0 -25 -7 -34 -15 -8 -8 -29
-18 -46 -21 -33 -7 -51 -24 -25 -24 8 0 23 4 33 9 75 37 97 46 110 46 8 0 17
6 19 13 5 14 -23 16 -32 2z"/>
<path d="M2425 3285 c-16 -7 -38 -16 -47 -19 -10 -3 -18 -10 -18 -16 0 -15 26
-12 40 5 7 8 23 15 35 15 12 0 28 7 35 15 16 19 -2 19 -45 0z"/>
<path d="M2321 3241 c-14 -4 -26 -12 -29 -19 -6 -19 23 -14 43 8 10 11 16 20
14 19 -2 -1 -15 -4 -28 -8z"/>
<path d="M2520 3197 c-150 -63 -149 -63 -160 -93 -11 -27 -4 -43 149 -394 44
-102 81 -190 81 -196 0 -6 -6 -11 -12 -12 -22 -1 -88 -28 -100 -40 -18 -18 3
-15 58 9 30 14 53 18 62 13 7 -5 31 -49 51 -99 21 -49 84 -195 140 -324 55
-129 101 -242 101 -252 0 -12 -21 -25 -72 -45 -40 -15 -77 -31 -83 -35 -5 -4
-26 -10 -45 -14 -35 -6 -36 -5 -309 269 -151 151 -279 282 -283 291 -7 11 -2
18 17 25 15 6 30 10 35 10 5 0 21 6 37 14 15 8 46 22 68 32 22 9 48 21 57 25
10 5 26 9 37 9 10 0 24 7 31 15 7 8 23 15 35 15 12 0 28 7 35 15 18 21 -12 20
-45 -1 -14 -9 -25 -13 -25 -10 0 4 -12 1 -27 -7 -35 -18 -85 -40 -143 -62 -25
-10 -59 -24 -77 -31 -64 -28 -62 -30 -357 265 -201 201 -277 284 -273 295 4 9
12 16 20 16 7 0 30 9 52 20 22 11 47 20 57 20 9 0 20 5 23 10 3 6 17 10 29 10
13 0 29 7 36 15 7 8 20 15 29 15 10 0 26 7 37 15 10 8 29 15 41 15 12 0 25 5
28 11 14 22 -5 20 -59 -5 -30 -14 -58 -26 -61 -26 -3 0 -25 -8 -48 -19 -40
-17 -162 -63 -199 -75 -41 -12 -88 37 940 -993 857 -860 845 -849 886 -808 8
8 24 15 34 15 11 0 33 7 49 14 15 8 37 18 47 21 15 4 16 9 8 17 -9 9 -16 8
-29 -3 -10 -8 -43 -23 -73 -33 -30 -11 -61 -23 -68 -29 -9 -7 -19 -4 -35 9
-32 27 -206 201 -402 403 l-170 174 42 16 c23 9 45 19 49 24 4 4 15 7 24 7 9
0 35 9 57 20 23 11 48 18 55 15 8 -3 45 -79 83 -168 83 -196 153 -347 159
-347 10 0 272 113 283 121 33 28 25 59 -76 278 -121 262 -122 266 -84 275 15
4 42 13 58 20 17 8 44 19 60 26 65 26 91 37 125 52 19 9 55 23 80 33 25 10 59
23 75 30 17 7 44 18 60 25 17 7 44 18 60 25 17 7 53 21 80 31 28 10 57 24 66
31 14 12 24 10 70 -18 30 -17 179 -99 331 -180 l277 -149 143 59 c221 91 232
125 68 206 -55 27 -100 54 -100 61 0 6 21 28 46 49 25 21 42 41 37 45 -4 4
-39 20 -78 35 -38 15 -89 37 -112 48 -41 19 -44 20 -62 3 -18 -17 -19 -17 -25
2 -8 24 -36 38 -36 18 0 -8 11 -21 24 -30 21 -13 45 -70 34 -81 -4 -4 -49 18
-213 105 -60 32 -213 112 -340 177 -596 311 -541 279 -524 299 6 8 21 14 33
14 26 0 53 16 44 26 -4 4 -23 -1 -42 -10 -63 -30 -90 -30 -137 -3 -114 65
-699 367 -711 367 -7 -1 -69 -25 -138 -53z m385 -403 c28 -17 70 -41 93 -53
35 -18 43 -27 39 -42 -5 -18 -2 -19 24 -14 25 6 62 -11 237 -108 114 -63 226
-124 250 -136 23 -12 42 -25 42 -30 0 -9 -26 -22 -130 -62 -41 -16 -84 -34
-95 -39 -89 -41 -224 -93 -245 -94 -22 -1 -31 15 -112 199 -48 110 -86 206
-83 212 2 7 -2 16 -9 20 -12 7 -96 170 -96 186 0 10 30 -3 85 -39z"/>
<path d="M2954 2655 c-15 -11 -16 -14 -3 -15 8 0 24 7 35 15 15 11 16 14 3 15
-8 0 -24 -7 -35 -15z"/>
<path d="M2230 3205 c-14 -8 -33 -14 -42 -15 -19 0 -34 -18 -24 -28 4 -3 16 0
28 7 11 7 30 14 41 17 27 5 59 34 37 34 -8 -1 -26 -7 -40 -15z"/>
<path d="M2097 3153 c-12 -11 -8 -23 7 -23 7 0 19 7 26 15 10 12 9 15 -7 15
-11 0 -23 -3 -26 -7z"/>
<path d="M2035 3126 c-26 -12 -28 -15 -12 -21 13 -5 25 -1 40 14 24 24 16 26
-28 7z"/>
<path d="M1921 3079 c-32 -14 -41 -23 -33 -31 8 -8 15 -7 26 5 9 8 29 18 46
22 16 4 30 11 30 16 0 13 -20 10 -69 -12z"/>
<path d="M3740 2982 c-37 -18 -49 -28 -37 -30 10 -2 26 3 36 12 10 9 27 16 38
16 11 0 26 7 33 15 19 23 -5 18 -70 -13z"/>
<path d="M3645 2939 c-12 -19 5 -23 22 -6 16 16 16 17 1 17 -9 0 -20 -5 -23
-11z"/>
<path d="M3580 2920 c-8 -5 -11 -12 -8 -16 10 -9 38 3 38 16 0 12 -10 13 -30
0z"/>
<path d="M4365 2400 c-3 -5 3 -10 14 -10 11 0 23 5 26 10 3 6 -3 10 -14 10
-11 0 -23 -4 -26 -10z"/>
<path d="M4920 1960 c0 -10 64 -72 100 -97 16 -11 18 -18 10 -33 -6 -11 -16
-17 -24 -14 -7 3 -16 -2 -19 -10 -8 -21 1 -20 45 3 l37 18 -60 58 c-32 31 -59
61 -59 65 0 4 -7 10 -15 14 -8 3 -15 1 -15 -4z"/>
<path d="M4920 1775 c0 -8 4 -15 9 -15 5 0 14 7 21 15 10 13 9 15 -9 15 -12 0
-21 -6 -21 -15z"/>
<path d="M4850 1745 c0 -8 4 -15 9 -15 5 0 14 7 21 15 10 13 9 15 -9 15 -12 0
-21 -6 -21 -15z"/>
<path d="M4777 1724 c-4 -4 -4 -11 -1 -15 8 -14 31 -10 38 6 5 15 -24 22 -37
9z"/>
<path d="M4720 1695 c-7 -8 -25 -15 -41 -15 -15 0 -31 -5 -34 -11 -11 -17 3
-23 28 -11 12 6 34 16 50 22 15 5 27 14 27 20 0 15 -16 12 -30 -5z"/>
<path d="M4579 1640 c-24 -19 -24 -19 -3 -20 24 0 50 25 36 34 -6 3 -21 -3
-33 -14z"/>
<path d="M4500 1605 c-14 -8 -33 -14 -42 -15 -10 0 -18 -7 -18 -15 0 -19 -2
-19 45 5 22 11 45 20 52 20 7 0 13 5 13 10 0 14 -20 12 -50 -5z"/>
<path d="M4372 1554 c-12 -8 -32 -17 -44 -19 -28 -6 -48 -25 -26 -25 23 0 108
40 108 50 0 14 -12 12 -38 -6z"/>
<path d="M4230 1500 c-38 -21 -100 -49 -100 -44 0 3 -12 -1 -27 -9 -16 -7 -43
-21 -61 -30 -19 -9 -42 -17 -52 -17 -10 0 -22 -5 -25 -11 -15 -23 8 -21 67 8
35 16 83 35 108 43 25 7 52 20 61 27 8 7 25 13 36 13 11 0 26 7 33 15 10 12 9
15 -6 14 -11 0 -26 -4 -34 -9z"/>
<path d="M4572 1470 c-34 -16 -163 -70 -285 -119 -122 -49 -240 -97 -261 -106
l-39 -16 260 -261 260 -260 39 12 c21 7 57 20 79 30 52 23 354 146 379 154 10
4 16 9 13 13 -7 7 -1 9 -284 -108 l-211 -88 -253 250 c-139 137 -248 253 -243
257 5 5 34 16 64 26 30 11 59 23 64 27 6 5 16 9 23 9 8 0 48 16 91 36 93 43
86 40 246 103 71 28 130 50 132 49 1 -2 113 -112 249 -246 186 -184 244 -247
236 -256 -6 -7 -29 -18 -50 -25 -22 -6 -43 -16 -46 -21 -4 -6 22 0 56 13 35
13 64 28 66 33 3 9 -498 516 -515 521 -4 1 -35 -11 -70 -27z"/>
<path d="M3904 1363 c-12 -7 -31 -16 -44 -18 -12 -2 -28 -10 -36 -16 -8 -6
-22 -13 -32 -14 -33 -3 -118 -48 -100 -52 10 -3 28 3 40 11 12 9 28 16 36 16
7 0 39 12 70 26 31 14 70 31 86 38 20 9 25 14 15 18 -8 3 -24 -1 -35 -9z"/>
<path d="M4354 1335 c-17 -8 -34 -22 -38 -31 -4 -10 19 -75 58 -163 91 -207
146 -339 146 -348 0 -4 4 -14 9 -21 7 -11 18 -10 60 8 57 25 56 19 16 117 -13
32 -20 61 -17 65 4 4 39 19 77 33 39 15 76 32 83 38 10 8 39 -3 115 -43 l102
-53 49 18 c54 21 67 40 40 60 -11 8 -104 58 -209 111 -104 53 -243 126 -308
161 -65 34 -126 63 -135 62 -9 0 -31 -7 -48 -14z m203 -176 c43 -22 82 -44 86
-48 9 -9 -40 -35 -85 -46 -25 -7 -29 -3 -57 60 -17 37 -31 69 -31 71 0 8 11 3
87 -37z"/>
<path d="M3620 1245 c-10 -12 -10 -15 3 -15 23 0 47 11 47 21 0 15 -37 10 -50
-6z"/>
<path d="M3557 1223 c-10 -9 -9 -23 1 -23 5 0 17 7 28 15 19 14 19 14 -2 15
-11 0 -24 -3 -27 -7z"/>
<path d="M3490 1184 c0 -9 5 -14 12 -12 18 6 21 28 4 28 -9 0 -16 -7 -16 -16z"/>
</g>
</svg>
