<?xml version="1.0" encoding="UTF-8"?>
<!DOCTYPE svg PUBLIC "-//W3C//DTD SVG 1.1//EN" "http://www.w3.org/Graphics/SVG/1.1/DTD/svg11.dtd">
<svg xmlns="http://www.w3.org/2000/svg" version="1.1" width="398px" height="514px" style="shape-rendering:geometricPrecision; text-rendering:geometricPrecision; image-rendering:optimizeQuality; fill-rule:evenodd; clip-rule:evenodd" xmlns:xlink="http://www.w3.org/1999/xlink">
<g><path style="opacity:1" fill="#fefefe" d="M -0.5,-0.5 C 132.167,-0.5 264.833,-0.5 397.5,-0.5C 397.5,170.833 397.5,342.167 397.5,513.5C 264.833,513.5 132.167,513.5 -0.5,513.5C -0.5,342.167 -0.5,170.833 -0.5,-0.5 Z"/></g>
<g><path style="opacity:1" fill="#252321" d="M 211.5,97.5 C 210.596,98.209 210.263,99.209 210.5,100.5C 208.991,103.678 207.658,107.011 206.5,110.5C 204.031,115.814 202.365,121.481 201.5,127.5C 199.143,127.337 196.81,127.503 194.5,128C 196.167,128.333 197.833,128.667 199.5,129C 197.942,129.21 196.609,129.71 195.5,130.5C 192.183,130.664 189.183,131.664 186.5,133.5C 186.5,133.167 186.5,132.833 186.5,132.5C 187.93,117.684 181.597,108.017 167.5,103.5C 167.5,103.167 167.5,102.833 167.5,102.5C 163.831,98.0258 158.997,96.3592 153,97.5C 147.787,97.5462 142.62,98.0462 137.5,99C 133.574,101.568 129.24,103.068 124.5,103.5C 113.892,103.034 103.558,101.367 93.5,98.5C 92.1508,98.8457 90.8175,99.179 89.5,99.5C 83.0759,97.7897 77.4093,94.7897 72.5,90.5C 70.8032,88.6614 69.1365,86.828 67.5,85C 68.1007,83.395 69.1007,82.0616 70.5,81C 68.3766,79.8063 66.0432,79.1397 63.5,79C 62.3333,78.5 61.5,77.6667 61,76.5C 60.6667,76.8333 60.3333,77.1667 60,77.5C 57.4973,72.9084 53.9973,72.2417 49.5,75.5C 45.9453,80.0472 43.2786,85.0472 41.5,90.5C 40.7579,91.2868 39.9246,91.9535 39,92.5C 34.955,104.426 32.7883,116.76 32.5,129.5C 29.5123,129.561 26.6789,128.895 24,127.5C 22.6244,127.684 21.7911,128.351 21.5,129.5C 21.1667,129.5 20.8333,129.5 20.5,129.5C 20.6621,127.473 20.4955,125.473 20,123.5C 15.4276,111.689 11.4276,99.6891 8,87.5C 4.91061,73.7545 9.07728,62.9212 20.5,55C 25.5506,52.0915 30.884,49.7582 36.5,48C 48.03,25.3831 66.3633,11.7165 91.5,7C 105.313,5.238 119.147,5.07133 133,6.5C 133.833,6.83333 134.667,7.16667 135.5,7.5C 129.625,9.36794 128.125,13.0346 131,18.5C 134.092,22.9279 138.259,25.7612 143.5,27C 153.186,28.1535 162.853,29.4869 172.5,31C 182.914,32.246 187.58,38.0793 186.5,48.5C 198.236,51.4382 207.07,58.1049 213,68.5C 214.037,72.0778 214.537,75.7444 214.5,79.5C 214.45,85.6909 213.45,91.6909 211.5,97.5 Z"/></g>
<g><path style="opacity:1" fill="#ecc9b3" d="M 72.5,90.5 C 77.4093,94.7897 83.0759,97.7897 89.5,99.5C 100.004,103.53 111.004,105.53 122.5,105.5C 124.292,106.309 126.292,106.809 128.5,107C 127.529,108.481 126.196,109.315 124.5,109.5C 109.88,109.284 96.213,106.117 83.5,100C 80.2432,98.9571 76.9099,98.4571 73.5,98.5C 73.0272,96.2785 71.8605,93.9452 70,91.5C 69.6667,91.8333 69.3333,92.1667 69,92.5C 66.6668,91.123 64.1668,90.123 61.5,89.5C 58.2659,81.9408 53.7659,80.9408 48,86.5C 47.4183,90.1611 45.9183,93.3278 43.5,96C 44.1383,97.7067 44.1383,99.54 43.5,101.5C 42.7677,102.808 41.9344,104.142 41,105.5C 39.3716,112.032 37.5383,118.365 35.5,124.5C 36.0242,110.376 39.5242,97.043 46,84.5C 48.128,81.3699 50.628,78.5366 53.5,76C 54.1667,75.3333 54.8333,75.3333 55.5,76C 59.8332,82.5077 65.4999,87.341 72.5,90.5 Z"/></g>
<g><path style="opacity:1" fill="#faccab" d="M 73.5,98.5 C 67.0163,98.086 60.683,98.086 54.5,98.5C 54.719,99.675 54.3857,100.675 53.5,101.5C 51.5914,102.348 49.5914,102.682 47.5,102.5C 47.321,104.606 46.321,106.272 44.5,107.5C 43.9434,105.354 43.61,103.354 43.5,101.5C 44.1383,99.54 44.1383,97.7067 43.5,96C 45.9183,93.3278 47.4183,90.1611 48,86.5C 53.7659,80.9408 58.2659,81.9408 61.5,89.5C 64.1668,90.123 66.6668,91.123 69,92.5C 69.3333,92.1667 69.6667,91.8333 70,91.5C 71.8605,93.9452 73.0272,96.2785 73.5,98.5 Z"/></g>
<g><path style="opacity:1" fill="#fdfcf2" d="M 391.5,305.5 C 391.83,237.429 391.496,169.429 390.5,101.5C 331.323,100.802 271.99,100.135 212.5,99.5C 215.424,98.6341 218.424,97.6341 221.5,96.5C 270.167,95.1667 318.833,95.1667 367.5,96.5C 319.5,97.1667 271.5,97.8333 223.5,98.5C 276.829,99.4999 330.163,99.8333 383.5,99.5C 383.5,98.5 383.5,97.5 383.5,96.5C 379.689,96.4042 379.689,95.7376 383.5,94.5C 385.984,93.1393 388.317,93.3059 390.5,95C 389.833,96.3333 388.833,97.3333 387.5,98C 389.727,98.121 391.56,98.9544 393,100.5C 393.667,168.5 393.667,236.5 393,304.5C 392.617,305.056 392.117,305.389 391.5,305.5 Z"/></g>
<g><path style="opacity:1" fill="#fef6e2" d="M 211.5,97.5 C 211.328,98.4916 211.662,99.1583 212.5,99.5C 271.99,100.135 331.323,100.802 390.5,101.5C 330.664,101.168 270.998,101.501 211.5,102.5C 210.662,102.158 210.328,101.492 210.5,100.5C 210.263,99.209 210.596,98.209 211.5,97.5 Z"/></g>
<g><path style="opacity:1" fill="#2c221b" d="M 72.5,90.5 C 65.4999,87.341 59.8332,82.5077 55.5,76C 54.8333,75.3333 54.1667,75.3333 53.5,76C 50.628,78.5366 48.128,81.3699 46,84.5C 39.5242,97.043 36.0242,110.376 35.5,124.5C 35.8226,128.226 35.4892,131.893 34.5,135.5C 30.9774,131.57 26.6441,129.57 21.5,129.5C 21.7911,128.351 22.6244,127.684 24,127.5C 26.6789,128.895 29.5123,129.561 32.5,129.5C 32.7883,116.76 34.955,104.426 39,92.5C 39.9246,91.9535 40.7579,91.2868 41.5,90.5C 43.2786,85.0472 45.9453,80.0472 49.5,75.5C 53.9973,72.2417 57.4973,72.9084 60,77.5C 60.3333,77.1667 60.6667,76.8333 61,76.5C 61.5,77.6667 62.3333,78.5 63.5,79C 66.0432,79.1397 68.3766,79.8063 70.5,81C 69.1007,82.0616 68.1007,83.395 67.5,85C 69.1365,86.828 70.8032,88.6614 72.5,90.5 Z"/></g>
<g><path style="opacity:1" fill="#2f201a" d="M 167.5,102.5 C 158.389,99.7145 149.056,98.8811 139.5,100C 134.565,104.136 128.899,105.969 122.5,105.5C 111.004,105.53 100.004,103.53 89.5,99.5C 90.8175,99.179 92.1508,98.8457 93.5,98.5C 103.558,101.367 113.892,103.034 124.5,103.5C 129.24,103.068 133.574,101.568 137.5,99C 142.62,98.0462 147.787,97.5462 153,97.5C 158.997,96.3592 163.831,98.0258 167.5,102.5 Z"/></g>
<g><path style="opacity:1" fill="#e4b57e" d="M 211.5,103.5 C 267.833,103.5 324.167,103.5 380.5,103.5C 380.047,104.458 379.381,105.292 378.5,106C 380.513,106.68 381.846,108.013 382.5,110C 381.839,140.304 381.506,170.638 381.5,201C 381.351,232.638 381.851,264.138 383,295.5C 381.581,296.46 380.081,297.293 378.5,298C 314.833,298.333 251.167,298.667 187.5,299C 186.167,300 184.833,301 183.5,302C 184.056,302.383 184.389,302.883 184.5,303.5C 181.612,302.99 179.279,303.656 177.5,305.5C 176.833,305.5 176.167,305.5 175.5,305.5C 175.5,304.833 175.5,304.167 175.5,303.5C 176.251,300.754 177.251,298.087 178.5,295.5C 178.833,295.5 179.167,295.5 179.5,295.5C 212.16,296.833 245.16,297.5 278.5,297.5C 311.5,297.333 344.5,297.167 377.5,297C 378.416,296.722 379.082,296.222 379.5,295.5C 380.167,265.002 380.5,234.335 380.5,203.5C 380.5,172.493 379.833,141.826 378.5,111.5C 322.167,111.5 265.833,111.5 209.5,111.5C 209.107,108.487 209.774,105.82 211.5,103.5 Z"/></g>
<g><path style="opacity:1" fill="#e9b474" d="M 367.5,104.5 C 378.167,105.167 378.167,105.833 367.5,106.5C 367.5,107.5 367.5,108.5 367.5,109.5C 315.779,109.458 264.113,109.458 212.5,109.5C 212.5,108.167 212.5,106.833 212.5,105.5C 264.336,105.832 316.003,105.499 367.5,104.5 Z"/></g>
<g><path style="opacity:1" fill="#95503f" d="M 124.5,109.5 C 126.196,109.315 127.529,108.481 128.5,107C 126.292,106.809 124.292,106.309 122.5,105.5C 128.899,105.969 134.565,104.136 139.5,100C 149.056,98.8811 158.389,99.7145 167.5,102.5C 167.5,102.833 167.5,103.167 167.5,103.5C 173.55,107.796 178.383,113.796 182,121.5C 182.822,124.117 183.322,126.784 183.5,129.5C 183.244,152.087 171.911,164.42 149.5,166.5C 142.654,166.539 136.321,164.873 130.5,161.5C 127.169,158 124.002,154.334 121,150.5C 118.413,145.818 116.913,140.818 116.5,135.5C 112.5,135.5 108.5,135.5 104.5,135.5C 100.791,156.701 88.1242,167.034 66.5,166.5C 44.0613,160.997 34.5613,146.664 38,123.5C 49.7085,99.0417 67.5418,93.2084 91.5,106C 98.8936,112.624 103.227,120.791 104.5,130.5C 108.5,130.5 112.5,130.5 116.5,130.5C 116.351,127.393 116.851,124.393 118,121.5C 120.023,117.34 122.189,113.34 124.5,109.5 Z"/></g>
<g><path style="opacity:1" fill="#bda586" d="M 210.5,100.5 C 210.328,101.492 210.662,102.158 211.5,102.5C 211.5,102.833 211.5,103.167 211.5,103.5C 209.774,105.82 209.107,108.487 209.5,111.5C 265.833,111.5 322.167,111.5 378.5,111.5C 378.5,111.833 378.5,112.167 378.5,112.5C 321.5,112.5 264.5,112.5 207.5,112.5C 206.662,112.158 206.328,111.492 206.5,110.5C 207.658,107.011 208.991,103.678 210.5,100.5 Z"/></g>
<g><path style="opacity:1" fill="#3d2c11" d="M 207.5,113.5 C 207.5,113.167 207.5,112.833 207.5,112.5C 264.5,112.5 321.5,112.5 378.5,112.5C 378.5,113.833 378.5,115.167 378.5,116.5C 376.171,114.951 373.504,114.117 370.5,114C 316.168,113.5 261.834,113.333 207.5,113.5 Z"/></g>
<g><path style="opacity:1" fill="#ecc6b3" d="M 167.5,103.5 C 181.597,108.017 187.93,117.684 186.5,132.5C 185.1,131.9 184.1,130.9 183.5,129.5C 183.322,126.784 182.822,124.117 182,121.5C 178.383,113.796 173.55,107.796 167.5,103.5 Z"/></g>
<g><path style="opacity:1" fill="#3a3635" d="M 206.5,110.5 C 206.328,111.492 206.662,112.158 207.5,112.5C 207.5,112.833 207.5,113.167 207.5,113.5C 263.676,114.204 320.009,114.871 376.5,115.5C 376.5,173.833 376.5,232.167 376.5,290.5C 314.851,291.315 253.184,291.815 191.5,292C 188.635,292.183 185.969,292.683 183.5,293.5C 182.5,293.5 181.5,293.5 180.5,293.5C 181.759,287.894 182.259,282.228 182,276.5C 180.644,275.62 179.144,275.286 177.5,275.5C 177.167,275.5 176.833,275.5 176.5,275.5C 176.5,274.833 176.167,274.5 175.5,274.5C 175.5,273.833 175.167,273.5 174.5,273.5C 173.067,271.442 172.4,269.108 172.5,266.5C 170.833,266.5 169.167,266.5 167.5,266.5C 167.54,261.138 170.206,259.138 175.5,260.5C 175.5,260.833 175.5,261.167 175.5,261.5C 176.348,263.093 177.681,264.26 179.5,265C 191.249,267.973 203.249,268.973 215.5,268C 218.675,268.053 221.342,267.22 223.5,265.5C 229.158,264.613 234.491,262.946 239.5,260.5C 239.821,258.952 240.821,258.285 242.5,258.5C 246.773,256.695 250.773,254.361 254.5,251.5C 255.249,248.473 255.916,245.473 256.5,242.5C 259.697,242.335 263.03,242.169 266.5,242C 268.653,241.901 270.319,241.067 271.5,239.5C 275.737,238.777 279.737,237.443 283.5,235.5C 284.9,233.218 284.234,231.718 281.5,231C 284.534,229.809 286.201,227.642 286.5,224.5C 283.786,224.75 281.119,224.917 278.5,225C 280.249,223.708 282.082,222.542 284,221.5C 284.49,220.207 284.657,218.873 284.5,217.5C 282.473,217.338 280.473,217.505 278.5,218C 276.631,219.602 274.631,220.602 272.5,221C 275.596,218.971 277.262,216.138 277.5,212.5C 275.712,212.215 274.045,212.548 272.5,213.5C 269.01,216.411 265.344,219.078 261.5,221.5C 261.128,217.619 259.128,215.785 255.5,216C 254.014,220.134 253.014,224.301 252.5,228.5C 251.71,227.391 251.21,226.058 251,224.5C 250.326,225.578 249.326,226.245 248,226.5C 244.936,225.79 241.936,225.456 239,225.5C 233.334,226.261 233.168,227.428 238.5,229C 233.39,231.009 228.057,231.843 222.5,231.5C 218.833,231.333 215.167,231.167 211.5,231C 204.982,228.901 198.315,227.401 191.5,226.5C 191.5,225.5 191.5,224.5 191.5,223.5C 186.167,223.5 180.833,223.5 175.5,223.5C 163.246,218.001 150.246,215.667 136.5,216.5C 136.5,217.5 136.5,218.5 136.5,219.5C 132.009,220.115 128.009,219.115 124.5,216.5C 124.027,215.094 123.027,214.427 121.5,214.5C 128.745,212.168 136.078,209.501 143.5,206.5C 165.305,197.017 179.305,180.684 185.5,157.5C 201.846,162.002 209.346,155.669 208,138.5C 206.01,132.422 201.843,129.755 195.5,130.5C 196.609,129.71 197.942,129.21 199.5,129C 197.833,128.667 196.167,128.333 194.5,128C 196.81,127.503 199.143,127.337 201.5,127.5C 202.365,121.481 204.031,115.814 206.5,110.5 Z"/></g>
<g><path style="opacity:1" fill="#dcbc8f" d="M 390.5,101.5 C 391.496,169.429 391.83,237.429 391.5,305.5C 391.167,305.5 390.833,305.5 390.5,305.5C 319.5,305.5 248.5,305.5 177.5,305.5C 179.279,303.656 181.612,302.99 184.5,303.5C 252.5,303.5 320.5,303.5 388.5,303.5C 388.5,239.5 388.5,175.5 388.5,111.5C 381.833,110.833 381.833,110.167 388.5,109.5C 388.5,107.833 388.5,106.167 388.5,104.5C 385.794,104.425 383.127,104.092 380.5,103.5C 324.167,103.5 267.833,103.5 211.5,103.5C 211.5,103.167 211.5,102.833 211.5,102.5C 270.998,101.501 330.664,101.168 390.5,101.5 Z"/></g>
<g><path style="opacity:1" fill="#e8b476" d="M 380.5,103.5 C 383.127,104.092 385.794,104.425 388.5,104.5C 388.5,106.167 388.5,107.833 388.5,109.5C 381.833,110.167 381.833,110.833 388.5,111.5C 388.5,175.5 388.5,239.5 388.5,303.5C 320.5,303.5 252.5,303.5 184.5,303.5C 184.389,302.883 184.056,302.383 183.5,302C 184.833,301 186.167,300 187.5,299C 251.167,298.667 314.833,298.333 378.5,298C 380.081,297.293 381.581,296.46 383,295.5C 381.851,264.138 381.351,232.638 381.5,201C 381.506,170.638 381.839,140.304 382.5,110C 381.846,108.013 380.513,106.68 378.5,106C 379.381,105.292 380.047,104.458 380.5,103.5 Z"/></g>
<g><path style="opacity:1" fill="#e5c29c" d="M 378.5,112.5 C 378.5,112.167 378.5,111.833 378.5,111.5C 379.833,141.826 380.5,172.493 380.5,203.5C 380.5,234.335 380.167,265.002 379.5,295.5C 379.832,234.331 379.499,173.331 378.5,112.5 Z"/></g>
<g><path style="opacity:1" fill="#43392d" d="M 207.5,113.5 C 261.834,113.333 316.168,113.5 370.5,114C 373.504,114.117 376.171,114.951 378.5,116.5C 378.5,116.833 378.5,117.167 378.5,117.5C 377.501,175.998 377.168,234.664 377.5,293.5C 312.833,293.5 248.167,293.5 183.5,293.5C 185.969,292.683 188.635,292.183 191.5,292C 253.184,291.815 314.851,291.315 376.5,290.5C 376.5,232.167 376.5,173.833 376.5,115.5C 320.009,114.871 263.676,114.204 207.5,113.5 Z"/></g>
<g><path style="opacity:1" fill="#f8caad" d="M 141.5,105.5 C 168.578,104.077 180.078,116.743 176,143.5C 167.175,159.678 154.008,164.512 136.5,158C 122.995,149.156 118.829,136.989 124,121.5C 128.129,114.2 133.962,108.867 141.5,105.5 Z"/></g>
<g><path style="opacity:1" fill="#342216" d="M 148.5,108.5 C 156.061,107.614 161.728,110.447 165.5,117C 159.105,114.735 152.439,113.068 145.5,112C 146.71,110.961 147.71,109.794 148.5,108.5 Z"/></g>
<g><path style="opacity:1" fill="#edceb5" d="M 148.5,120.5 C 154.329,120.249 158.995,122.415 162.5,127C 163.448,127.483 164.448,127.649 165.5,127.5C 168.464,135.127 167.798,142.46 163.5,149.5C 154.495,155.722 145.329,156.055 136,150.5C 135.333,144.5 135.333,138.5 136,132.5C 138.651,129.728 139.484,126.561 138.5,123C 142.038,122.465 145.372,121.632 148.5,120.5 Z"/></g>
<g><path style="opacity:1" fill="#261c17" d="M 160.5,128.5 C 155.176,125.353 149.509,124.686 143.5,126.5C 143.062,126.565 142.728,126.399 142.5,126C 148.609,122.563 154.609,122.896 160.5,127C 161.738,127.69 161.738,128.19 160.5,128.5 Z"/></g>
<g><path style="opacity:1" fill="#facbaa" d="M 17.5,154.5 C 15.9519,154.179 15.2852,153.179 15.5,151.5C 15.1725,146.456 15.5059,141.456 16.5,136.5C 18.8998,135.982 20.8998,134.815 22.5,133C 25.5071,132.699 28.5071,132.865 31.5,133.5C 32.1179,141.208 32.1179,148.874 31.5,156.5C 26.8333,155.833 22.1667,155.167 17.5,154.5 Z"/></g>
<g><path style="opacity:1" fill="#f5f2ec" d="M 160.5,128.5 C 166.208,136.772 165.208,144.272 157.5,151C 141.675,154.844 135.175,148.677 138,132.5C 139.36,129.977 141.193,127.977 143.5,126.5C 149.509,124.686 155.176,125.353 160.5,128.5 Z"/></g>
<g><path style="opacity:1" fill="#ebcbb4" d="M 195.5,130.5 C 201.843,129.755 206.01,132.422 208,138.5C 209.346,155.669 201.846,162.002 185.5,157.5C 179.305,180.684 165.305,197.017 143.5,206.5C 143.5,205.5 143.5,204.5 143.5,203.5C 147.638,202.517 150.971,200.35 153.5,197C 157.003,195.243 160.336,193.409 163.5,191.5C 163.78,187.887 165.78,185.887 169.5,185.5C 171.319,182.352 172.652,179.019 173.5,175.5C 174.833,175.5 176.167,175.5 177.5,175.5C 177.335,168.283 179.335,161.783 183.5,156C 189.468,156.15 195.468,155.484 201.5,154C 199.068,152.913 199.402,152.413 202.5,152.5C 202.685,148.756 203.352,145.089 204.5,141.5C 202.755,137.586 199.922,134.919 196,133.5C 195.235,133.57 194.735,133.903 194.5,134.5C 194.167,134.5 193.833,134.5 193.5,134.5C 191.266,133.951 188.932,134.285 186.5,135.5C 185.537,135.03 185.537,134.363 186.5,133.5C 189.183,131.664 192.183,130.664 195.5,130.5 Z"/></g>
<g><path style="opacity:1" fill="#f3f2f0" d="M 236.5,145.5 C 238.467,145.261 240.301,145.594 242,146.5C 247.863,157.561 253.197,168.894 258,180.5C 258.667,182.5 258.667,184.5 258,186.5C 256.062,187.86 254.396,187.527 253,185.5C 251.193,181.244 249.693,176.911 248.5,172.5C 243.125,172.172 237.792,172.505 232.5,173.5C 230.667,177.833 228.833,182.167 227,186.5C 222.154,188.323 220.488,186.656 222,181.5C 227.729,169.802 232.563,157.802 236.5,145.5 Z"/></g>
<g><path style="opacity:1" fill="#383836" d="M 238.5,156.5 C 239.496,156.414 240.329,156.748 241,157.5C 242.442,160.05 243.608,162.716 244.5,165.5C 241.5,166.833 238.5,166.833 235.5,165.5C 237.105,162.686 238.105,159.686 238.5,156.5 Z"/></g>
<g><path style="opacity:1" fill="#f9cbad" d="M 73.5,98.5 C 76.9099,98.4571 80.2432,98.9571 83.5,100C 96.213,106.117 109.88,109.284 124.5,109.5C 122.189,113.34 120.023,117.34 118,121.5C 116.851,124.393 116.351,127.393 116.5,130.5C 112.5,130.5 108.5,130.5 104.5,130.5C 103.227,120.791 98.8936,112.624 91.5,106C 67.5418,93.2084 49.7085,99.0417 38,123.5C 34.5613,146.664 44.0613,160.997 66.5,166.5C 67.1522,167.725 68.3189,168.392 70,168.5C 73.1429,169.107 76.3095,169.441 79.5,169.5C 79.4501,167.41 80.4501,166.077 82.5,165.5C 85.1251,169.69 85.1251,173.856 82.5,178C 84.179,179.826 85.3456,181.992 86,184.5C 89.3262,188.195 92.6596,191.195 96,193.5C 96.2784,192.584 96.7784,191.918 97.5,191.5C 104.364,194.555 111.364,195.222 118.5,193.5C 119.5,192.833 120.5,192.167 121.5,191.5C 123.027,191.573 124.027,190.906 124.5,189.5C 131.952,184.586 135.119,177.586 134,168.5C 132.871,166.859 131.371,165.859 129.5,165.5C 122.405,166.653 115.238,167.653 108,168.5C 102.292,167.872 96.7918,166.539 91.5,164.5C 90.7611,164.631 90.0944,164.464 89.5,164C 92.5443,163.641 92.8776,162.974 90.5,162C 93.5005,161.333 96.0005,159.833 98,157.5C 98.3333,157.833 98.6667,158.167 99,158.5C 99.3333,157.5 99.6667,156.5 100,155.5C 102.311,154.603 104.144,153.27 105.5,151.5C 109.978,149.998 114.312,150.331 118.5,152.5C 119.66,153.265 120.66,154.265 121.5,155.5C 120.674,156.451 120.508,157.451 121,158.5C 121.333,158.167 121.667,157.833 122,157.5C 124.543,159.386 127.377,160.719 130.5,161.5C 136.321,164.873 142.654,166.539 149.5,166.5C 171.911,164.42 183.244,152.087 183.5,129.5C 184.1,130.9 185.1,131.9 186.5,132.5C 186.5,132.833 186.5,133.167 186.5,133.5C 185.537,134.363 185.537,135.03 186.5,135.5C 188.932,134.285 191.266,133.951 193.5,134.5C 188.215,140.082 188.215,145.748 193.5,151.5C 193.654,148.781 193.654,145.781 193.5,142.5C 195.674,142.92 197.674,142.92 199.5,142.5C 197.977,140.717 195.977,140.051 193.5,140.5C 193.393,138.097 194.393,136.264 196.5,135C 195.906,134.536 195.239,134.369 194.5,134.5C 194.735,133.903 195.235,133.57 196,133.5C 199.922,134.919 202.755,137.586 204.5,141.5C 203.352,145.089 202.685,148.756 202.5,152.5C 199.402,152.413 199.068,152.913 201.5,154C 195.468,155.484 189.468,156.15 183.5,156C 179.335,161.783 177.335,168.283 177.5,175.5C 176.167,175.5 174.833,175.5 173.5,175.5C 172.652,179.019 171.319,182.352 169.5,185.5C 165.78,185.887 163.78,187.887 163.5,191.5C 160.336,193.409 157.003,195.243 153.5,197C 150.971,200.35 147.638,202.517 143.5,203.5C 143.5,204.5 143.5,205.5 143.5,206.5C 136.078,209.501 128.745,212.168 121.5,214.5C 120.883,214.389 120.383,214.056 120,213.5C 119.598,214.872 119.098,216.205 118.5,217.5C 116.031,219.32 113.364,220.654 110.5,221.5C 104.559,220.885 101.893,217.551 102.5,211.5C 100.315,211.112 98.482,210.112 97,208.5C 96,208.833 95,209.167 94,209.5C 90.0254,207.78 85.8588,207.113 81.5,207.5C 79.8333,207.5 78.1667,207.5 76.5,207.5C 72.3078,204.052 67.6412,201.052 62.5,198.5C 49.8725,188.243 41.5391,175.243 37.5,159.5C 32.1563,159.666 26.8229,159.499 21.5,159C 19.9586,157.629 18.6253,156.129 17.5,154.5C 22.1667,155.167 26.8333,155.833 31.5,156.5C 32.1179,148.874 32.1179,141.208 31.5,133.5C 28.5071,132.865 25.5071,132.699 22.5,133C 20.8998,134.815 18.8998,135.982 16.5,136.5C 15.5059,141.456 15.1725,146.456 15.5,151.5C 14.5028,151.53 13.8361,151.03 13.5,150C 11.6706,143.732 12.3372,137.899 15.5,132.5C 18.0336,132.741 19.7002,131.741 20.5,129.5C 20.8333,129.5 21.1667,129.5 21.5,129.5C 26.6441,129.57 30.9774,131.57 34.5,135.5C 35.4892,131.893 35.8226,128.226 35.5,124.5C 37.5383,118.365 39.3716,112.032 41,105.5C 41.9344,104.142 42.7677,102.808 43.5,101.5C 43.61,103.354 43.9434,105.354 44.5,107.5C 46.321,106.272 47.321,104.606 47.5,102.5C 49.5914,102.682 51.5914,102.348 53.5,101.5C 54.3857,100.675 54.719,99.675 54.5,98.5C 60.683,98.086 67.0163,98.086 73.5,98.5 Z"/></g>
<g><path style="opacity:1" fill="#f6c4ab" d="M 130.5,161.5 C 127.377,160.719 124.543,159.386 122,157.5C 121.667,157.833 121.333,158.167 121,158.5C 120.508,157.451 120.674,156.451 121.5,155.5C 120.66,154.265 119.66,153.265 118.5,152.5C 119.645,151.207 119.311,150.041 117.5,149C 113.088,146.926 108.754,147.093 104.5,149.5C 103.127,151.808 103.46,152.475 105.5,151.5C 104.144,153.27 102.311,154.603 100,155.5C 99.6667,156.5 99.3333,157.5 99,158.5C 98.6667,158.167 98.3333,157.833 98,157.5C 96.0005,159.833 93.5005,161.333 90.5,162C 92.8776,162.974 92.5443,163.641 89.5,164C 90.0944,164.464 90.7611,164.631 91.5,164.5C 91.5,164.833 91.5,165.167 91.5,165.5C 89.9826,165.511 88.8159,166.177 88,167.5C 86.2293,176.698 89.0627,184.032 96.5,189.5C 96.8333,190.167 97.1667,190.833 97.5,191.5C 96.7784,191.918 96.2784,192.584 96,193.5C 92.6596,191.195 89.3262,188.195 86,184.5C 85.3456,181.992 84.179,179.826 82.5,178C 85.1251,173.856 85.1251,169.69 82.5,165.5C 80.4501,166.077 79.4501,167.41 79.5,169.5C 76.3095,169.441 73.1429,169.107 70,168.5C 68.3189,168.392 67.1522,167.725 66.5,166.5C 88.1242,167.034 100.791,156.701 104.5,135.5C 108.5,135.5 112.5,135.5 116.5,135.5C 116.913,140.818 118.413,145.818 121,150.5C 124.002,154.334 127.169,158 130.5,161.5 Z"/></g>
<g><path style="opacity:1" fill="#ca9674" d="M 118.5,152.5 C 114.312,150.331 109.978,149.998 105.5,151.5C 103.46,152.475 103.127,151.808 104.5,149.5C 108.754,147.093 113.088,146.926 117.5,149C 119.311,150.041 119.645,151.207 118.5,152.5 Z"/></g>
<g><path style="opacity:1" fill="#ca8f6e" d="M 23.5,135.5 C 26.9246,134.308 29.0913,135.641 30,139.5C 31.1136,143.95 30.2803,147.95 27.5,151.5C 27.2178,148.943 27.0511,146.277 27,143.5C 25.1114,142.903 23.2781,142.569 21.5,142.5C 23.1667,141.167 24.8333,139.833 26.5,138.5C 26.1207,136.787 25.1207,135.787 23.5,135.5 Z"/></g>
<g><path style="opacity:1" fill="#262524" d="M 144.5,143.5 C 142.022,140.47 141.855,137.137 144,133.5C 149.078,129.229 153.745,129.563 158,134.5C 159.331,144.167 155.164,148 145.5,146C 144.748,145.329 144.414,144.496 144.5,143.5 Z"/></g>
<g><path style="opacity:1" fill="#ca8e6b" d="M 193.5,134.5 C 193.833,134.5 194.167,134.5 194.5,134.5C 195.239,134.369 195.906,134.536 196.5,135C 194.393,136.264 193.393,138.097 193.5,140.5C 195.977,140.051 197.977,140.717 199.5,142.5C 197.674,142.92 195.674,142.92 193.5,142.5C 193.654,145.781 193.654,148.781 193.5,151.5C 188.215,145.748 188.215,140.082 193.5,134.5 Z"/></g>
<g><path style="opacity:1" fill="#d9d9da" d="M 144.5,143.5 C 144.5,142.5 144.5,141.5 144.5,140.5C 145.5,140.5 146.5,140.5 147.5,140.5C 147.5,141.5 147.5,142.5 147.5,143.5C 146.5,143.5 145.5,143.5 144.5,143.5 Z"/></g>
<g><path style="opacity:1" fill="#f9caac" d="M 76.5,106.5 C 87.4952,108.481 94.6619,114.814 98,125.5C 99.8226,150.344 88.3226,161.844 63.5,160C 47.2539,153.684 40.7539,141.851 44,124.5C 44.7384,121.352 46.2384,118.685 48.5,116.5C 49.404,117.209 49.7373,118.209 49.5,119.5C 51.3588,119.461 52.6921,120.294 53.5,122C 55.8333,122.333 58.1667,122.667 60.5,123C 58.7536,123.471 57.087,124.138 55.5,125C 55.0535,132.045 55.5535,139.212 57,146.5C 64.954,156.688 73.7873,159.188 83.5,154C 83.1667,153.667 82.8333,153.333 82.5,153C 84.0383,151.068 85.205,148.901 86,146.5C 86.6323,140.786 86.299,135.119 85,129.5C 83.5381,127.852 81.7047,126.852 79.5,126.5C 79.5,126.167 79.5,125.833 79.5,125.5C 76.7729,122.395 73.2729,121.062 69,121.5C 66.6977,121.6 64.6977,122.267 63,123.5C 62.8898,121.152 61.7231,119.652 59.5,119C 64.5548,116.862 69.8881,115.696 75.5,115.5C 75.5,114.5 75.5,113.5 75.5,112.5C 75.1667,111.833 74.8333,111.167 74.5,110.5C 74.5271,108.801 75.1938,107.467 76.5,106.5 Z"/></g>
<g><path style="opacity:1" fill="#f2f0ea" d="M 79.5,127.5 C 86.9918,136.732 85.9918,144.899 76.5,152C 60.6393,153.296 54.6393,146.13 58.5,130.5C 64.7716,125.06 71.7716,124.06 79.5,127.5 Z"/></g>
<g><path style="opacity:1" fill="#e9e8e8" d="M 152.5,133.5 C 155.91,133.384 157.244,135.05 156.5,138.5C 152.065,139.078 150.732,137.411 152.5,133.5 Z"/></g>
<g><path style="opacity:1" fill="#392a24" d="M 79.5,125.5 C 79.5,125.833 79.5,126.167 79.5,126.5C 79.5,126.833 79.5,127.167 79.5,127.5C 71.7716,124.06 64.7716,125.06 58.5,130.5C 59.7063,127.702 61.7063,125.535 64.5,124C 69.651,123.182 74.651,123.682 79.5,125.5 Z"/></g>
<g><path style="opacity:1" fill="#efcab2" d="M 76.5,106.5 C 75.1938,107.467 74.5271,108.801 74.5,110.5C 66.633,106.762 60.633,108.762 56.5,116.5C 56.6667,116.833 56.8333,117.167 57,117.5C 62.7446,114.355 68.9113,112.688 75.5,112.5C 75.5,113.5 75.5,114.5 75.5,115.5C 69.8881,115.696 64.5548,116.862 59.5,119C 61.7231,119.652 62.8898,121.152 63,123.5C 64.6977,122.267 66.6977,121.6 69,121.5C 73.2729,121.062 76.7729,122.395 79.5,125.5C 74.651,123.682 69.651,123.182 64.5,124C 61.7063,125.535 59.7063,127.702 58.5,130.5C 54.6393,146.13 60.6393,153.296 76.5,152C 85.9918,144.899 86.9918,136.732 79.5,127.5C 79.5,127.167 79.5,126.833 79.5,126.5C 81.7047,126.852 83.5381,127.852 85,129.5C 86.299,135.119 86.6323,140.786 86,146.5C 85.205,148.901 84.0383,151.068 82.5,153C 82.8333,153.333 83.1667,153.667 83.5,154C 73.7873,159.188 64.954,156.688 57,146.5C 55.5535,139.212 55.0535,132.045 55.5,125C 57.087,124.138 58.7536,123.471 60.5,123C 58.1667,122.667 55.8333,122.333 53.5,122C 52.6921,120.294 51.3588,119.461 49.5,119.5C 49.7373,118.209 49.404,117.209 48.5,116.5C 55.7163,106.878 65.0496,103.545 76.5,106.5 Z"/></g>
<g><path style="opacity:1" fill="#232323" d="M 66.5,130.5 C 77.6211,130.107 80.9544,134.941 76.5,145C 66.9721,148.794 62.4721,145.627 63,135.5C 63.9973,133.677 65.1639,132.01 66.5,130.5 Z"/></g>
<g><path style="opacity:1" fill="#dfe0e2" d="M 73.5,140.5 C 74.5,140.5 75.5,140.5 76.5,140.5C 76.5,141.5 76.5,142.5 76.5,143.5C 75.5,143.5 74.5,143.5 73.5,143.5C 73.5,142.5 73.5,141.5 73.5,140.5 Z"/></g>
<g><path style="opacity:1" fill="#ececea" d="M 65.5,133.5 C 69.1612,133.35 70.1612,134.85 68.5,138C 64.7071,138.487 63.7071,136.987 65.5,133.5 Z"/></g>
<g><path style="opacity:1" fill="#30221c" d="M 74.5,110.5 C 74.8333,111.167 75.1667,111.833 75.5,112.5C 68.9113,112.688 62.7446,114.355 57,117.5C 56.8333,117.167 56.6667,116.833 56.5,116.5C 60.633,108.762 66.633,106.762 74.5,110.5 Z"/></g>
<g><path style="opacity:1" fill="#f4f4f2" d="M 269.5,143.5 C 274.267,143.191 278.934,143.691 283.5,145C 289.186,149.625 289.852,154.791 285.5,160.5C 288.124,162.622 290.624,164.955 293,167.5C 293.726,182.426 286.559,188.592 271.5,186C 270.584,185.626 269.75,185.126 269,184.5C 267.135,171.851 265.802,159.184 265,146.5C 266.409,145.219 267.909,144.219 269.5,143.5 Z"/></g>
<g><path style="opacity:1" fill="#363533" d="M 270.5,149.5 C 273.728,149.299 276.895,149.633 280,150.5C 282.045,151.638 282.712,153.305 282,155.5C 272.951,164.936 269.118,162.936 270.5,149.5 Z"/></g>
<g><path style="opacity:1" fill="#fbf6f1" d="M 91.5,164.5 C 96.7918,166.539 102.292,167.872 108,168.5C 115.238,167.653 122.405,166.653 129.5,165.5C 129.456,169.09 127.789,171.59 124.5,173C 112.978,178.617 102.312,177.45 92.5,169.5C 91.7542,168.264 91.4208,166.93 91.5,165.5C 91.5,165.167 91.5,164.833 91.5,164.5 Z"/></g>
<g><path style="opacity:1" fill="#383735" d="M 275.5,166.5 C 279.839,165.846 283.673,166.846 287,169.5C 288.45,174.768 286.617,178.268 281.5,180C 279.19,180.497 276.857,180.663 274.5,180.5C 274.299,177.492 273.966,174.492 273.5,171.5C 273.724,169.545 274.391,167.879 275.5,166.5 Z"/></g>
<g><path style="opacity:1" fill="#f0efed" d="M 314.5,142.5 C 318.273,142.263 321.94,142.763 325.5,144C 329.635,146.895 329.468,149.395 325,151.5C 321.907,148.282 318.407,147.782 314.5,150C 306.114,157.792 305.447,166.126 312.5,175C 314.5,176 316.5,177 318.5,178C 323.833,178.333 329.167,178.667 334.5,179C 336.14,181.776 335.473,183.776 332.5,185C 318.79,187.225 308.623,182.392 302,170.5C 299.609,158.107 303.775,148.773 314.5,142.5 Z"/></g>
<g><path style="opacity:1" fill="#5c2b27" d="M 91.5,165.5 C 91.4208,166.93 91.7542,168.264 92.5,169.5C 102.312,177.45 112.978,178.617 124.5,173C 127.789,171.59 129.456,169.09 129.5,165.5C 131.371,165.859 132.871,166.859 134,168.5C 135.119,177.586 131.952,184.586 124.5,189.5C 115.153,186.867 105.82,186.867 96.5,189.5C 89.0627,184.032 86.2293,176.698 88,167.5C 88.8159,166.177 89.9826,165.511 91.5,165.5 Z"/></g>
<g><path style="opacity:1" fill="#d58276" d="M 124.5,189.5 C 124.027,190.906 123.027,191.573 121.5,191.5C 120.653,190.034 119.32,189.2 117.5,189C 112.167,188.333 106.833,188.333 101.5,189C 101.043,189.414 100.709,189.914 100.5,190.5C 102.113,191.427 103.779,192.261 105.5,193C 109.821,193.499 114.154,193.666 118.5,193.5C 111.364,195.222 104.364,194.555 97.5,191.5C 97.1667,190.833 96.8333,190.167 96.5,189.5C 105.82,186.867 115.153,186.867 124.5,189.5 Z"/></g>
<g><path style="opacity:1" fill="#fdf7ed" d="M 15.5,132.5 C 12.3372,137.899 11.6706,143.732 13.5,150C 13.8361,151.03 14.5028,151.53 15.5,151.5C 15.2852,153.179 15.9519,154.179 17.5,154.5C 18.6253,156.129 19.9586,157.629 21.5,159C 26.8229,159.499 32.1563,159.666 37.5,159.5C 41.5391,175.243 49.8725,188.243 62.5,198.5C 67.6412,201.052 72.3078,204.052 76.5,207.5C 70.3996,206.703 64.8996,204.37 60,200.5C 59.7266,198.899 59.2266,197.399 58.5,196C 54.3882,194.905 51.0549,192.572 48.5,189C 46.9559,188.71 45.6226,188.044 44.5,187C 44.8333,186.667 45.1667,186.333 45.5,186C 43.0231,181.532 40.1897,177.365 37,173.5C 36.7183,164.914 32.2183,161.414 23.5,163C 20.116,160.063 16.116,158.729 11.5,159C 12.8486,157.365 12.6819,155.865 11,154.5C 10.1991,148.835 9.86578,143.168 10,137.5C 10.1288,133.882 11.9621,132.215 15.5,132.5 Z"/></g>
<g><path style="opacity:1" fill="#e1746c" d="M 121.5,191.5 C 120.5,192.167 119.5,192.833 118.5,193.5C 114.154,193.666 109.821,193.499 105.5,193C 103.779,192.261 102.113,191.427 100.5,190.5C 100.709,189.914 101.043,189.414 101.5,189C 106.833,188.333 112.167,188.333 117.5,189C 119.32,189.2 120.653,190.034 121.5,191.5 Z"/></g>
<g><path style="opacity:1" fill="#294339" d="M 175.5,223.5 C 172.287,223.81 169.287,223.477 166.5,222.5C 166.389,221.883 166.056,221.383 165.5,221C 163.527,220.505 161.527,220.338 159.5,220.5C 151.991,218.788 144.324,218.454 136.5,219.5C 136.5,218.5 136.5,217.5 136.5,216.5C 150.246,215.667 163.246,218.001 175.5,223.5 Z"/></g>
<g><path style="opacity:1" fill="#ebcbb3" d="M 271.5,239.5 C 270.319,241.067 268.653,241.901 266.5,242C 263.03,242.169 259.697,242.335 256.5,242.5C 255.624,242.631 254.957,242.298 254.5,241.5C 253.014,237.69 251.347,234.024 249.5,230.5C 250.71,230.068 251.71,229.401 252.5,228.5C 253.014,224.301 254.014,220.134 255.5,216C 259.128,215.785 261.128,217.619 261.5,221.5C 265.344,219.078 269.01,216.411 272.5,213.5C 274.045,212.548 275.712,212.215 277.5,212.5C 277.262,216.138 275.596,218.971 272.5,221C 274.631,220.602 276.631,219.602 278.5,218C 280.473,217.505 282.473,217.338 284.5,217.5C 284.657,218.873 284.49,220.207 284,221.5C 282.082,222.542 280.249,223.708 278.5,225C 281.119,224.917 283.786,224.75 286.5,224.5C 286.201,227.642 284.534,229.809 281.5,231C 284.234,231.718 284.9,233.218 283.5,235.5C 279.737,237.443 275.737,238.777 271.5,239.5 Z"/></g>
<g><path style="opacity:1" fill="#d3d4d1" d="M 98.5,215.5 C 99.9117,217.98 101.578,220.313 103.5,222.5C 108.467,223.662 113.467,223.829 118.5,223C 120.948,221.14 122.948,218.973 124.5,216.5C 128.009,219.115 132.009,220.115 136.5,219.5C 136.5,219.833 136.5,220.167 136.5,220.5C 134.167,220.5 131.833,220.5 129.5,220.5C 130.25,227.608 128.917,234.275 125.5,240.5C 124.833,241.833 124.167,241.833 123.5,240.5C 121.767,237.941 120.267,235.275 119,232.5C 118.722,233.416 118.222,234.082 117.5,234.5C 115.5,224.894 111.333,223.561 105,230.5C 104.506,232.134 104.34,233.801 104.5,235.5C 103.71,234.391 103.21,233.058 103,231.5C 100.57,234.592 98.5704,237.925 97,241.5C 96.6047,237.981 95.6047,234.648 94,231.5C 93.5014,227.848 93.3347,224.182 93.5,220.5C 94.973,218.605 96.6397,216.939 98.5,215.5 Z"/></g>
<g><path style="opacity:1" fill="#e4d2c2" d="M 81.5,207.5 C 85.8588,207.113 90.0254,207.78 94,209.5C 95,209.167 96,208.833 97,208.5C 98.482,210.112 100.315,211.112 102.5,211.5C 101.893,217.551 104.559,220.885 110.5,221.5C 113.364,220.654 116.031,219.32 118.5,217.5C 119.098,216.205 119.598,214.872 120,213.5C 120.383,214.056 120.883,214.389 121.5,214.5C 123.027,214.427 124.027,215.094 124.5,216.5C 122.948,218.973 120.948,221.14 118.5,223C 113.467,223.829 108.467,223.662 103.5,222.5C 101.578,220.313 99.9117,217.98 98.5,215.5C 99.6431,215.092 100.643,214.425 101.5,213.5C 95.571,211.851 89.571,210.518 83.5,209.5C 82.7573,208.818 82.0906,208.151 81.5,207.5 Z"/></g>
<g><path style="opacity:1" fill="#0e6149" d="M 159.5,220.5 C 161.527,220.338 163.527,220.505 165.5,221C 166.056,221.383 166.389,221.883 166.5,222.5C 162.966,221.283 159.466,221.283 156,222.5C 155.64,230.996 154.306,239.329 152,247.5C 147.436,248.935 142.936,250.602 138.5,252.5C 137.614,253.325 137.281,254.325 137.5,255.5C 139.5,255.5 141.5,255.5 143.5,255.5C 143.5,257.833 143.5,260.167 143.5,262.5C 140.921,261.772 138.254,261.272 135.5,261C 134.333,260.5 133.5,259.667 133,258.5C 133.879,252.248 134.712,245.915 135.5,239.5C 136.93,239.579 138.264,239.246 139.5,238.5C 140.121,241.064 140.454,243.564 140.5,246C 142.403,246.774 144.07,246.44 145.5,245C 143.817,241.108 142.817,236.941 142.5,232.5C 142.709,231.914 143.043,231.414 143.5,231C 142.484,230.481 141.818,229.647 141.5,228.5C 142.223,226.218 142.557,223.884 142.5,221.5C 144.848,221.67 147.182,222.003 149.5,222.5C 152.705,221.233 156.038,220.566 159.5,220.5 Z"/></g>
<g><path style="opacity:1" fill="#f9ccac" d="M 271.5,239.5 C 265.794,239.829 260.128,239.495 254.5,238.5C 253.634,236.568 252.967,234.568 252.5,232.5C 254.672,229.984 255.672,226.984 255.5,223.5C 258.262,222.647 260.929,222.647 263.5,223.5C 265.689,223.406 267.689,222.739 269.5,221.5C 269.833,221.833 270.167,222.167 270.5,222.5C 267.147,223.381 266.647,225.047 269,227.5C 271.351,228.714 273.851,229.548 276.5,230C 277.022,230.561 277.355,231.228 277.5,232C 276.312,233.944 274.646,235.444 272.5,236.5C 271.614,237.325 271.281,238.325 271.5,239.5 Z"/></g>
<g><path style="opacity:1" fill="#274234" d="M 175.5,223.5 C 180.833,223.5 186.167,223.5 191.5,223.5C 191.5,224.5 191.5,225.5 191.5,226.5C 198.315,227.401 204.982,228.901 211.5,231C 215.167,231.167 218.833,231.333 222.5,231.5C 228.057,231.843 233.39,231.009 238.5,229C 233.168,227.428 233.334,226.261 239,225.5C 241.936,225.456 244.936,225.79 248,226.5C 249.326,226.245 250.326,225.578 251,224.5C 251.21,226.058 251.71,227.391 252.5,228.5C 251.71,229.401 250.71,230.068 249.5,230.5C 248.866,229.053 247.699,228.387 246,228.5C 240.744,230.856 235.244,232.356 229.5,233C 222.174,233.5 214.841,233.666 207.5,233.5C 207.38,232.414 206.713,231.747 205.5,231.5C 196.523,229.393 187.523,227.393 178.5,225.5C 176.97,225.36 175.97,224.693 175.5,223.5 Z"/></g>
<g><path style="opacity:1" fill="#175e4a" d="M 91.5,261.5 C 90.8333,261.5 90.1667,261.5 89.5,261.5C 84.0333,262.261 78.7,263.261 73.5,264.5C 74.5,263.5 75.5,262.5 76.5,261.5C 79.2079,258.703 82.3746,257.703 86,258.5C 86.9435,257.737 87.4435,256.737 87.5,255.5C 85.4397,252.825 83.4397,250.158 81.5,247.5C 72.8254,249.67 68.8254,246.17 69.5,237C 69.4805,233.927 70.1472,231.093 71.5,228.5C 69.4471,228.598 67.7804,227.931 66.5,226.5C 66.4701,225.503 66.9701,224.836 68,224.5C 70.2248,223.904 72.3915,223.237 74.5,222.5C 78.1119,221.578 81.7785,220.911 85.5,220.5C 87.4665,233.127 90.1332,245.627 93.5,258C 93.1382,259.434 92.4715,260.601 91.5,261.5 Z"/></g>
<g><path style="opacity:1" fill="#047b4d" d="M 166.5,222.5 C 169.287,223.477 172.287,223.81 175.5,223.5C 175.97,224.693 176.97,225.36 178.5,225.5C 187.523,227.393 196.523,229.393 205.5,231.5C 206.713,231.747 207.38,232.414 207.5,233.5C 211.951,234.827 216.784,235.494 222,235.5C 228.678,235.373 235.345,235.04 242,234.5C 249.83,234.996 253.664,239.162 253.5,247C 252.028,249.996 249.862,250.829 247,249.5C 246.237,252.941 244.737,255.941 242.5,258.5C 240.821,258.285 239.821,258.952 239.5,260.5C 234.933,260.744 230.599,261.91 226.5,264C 212.815,264.718 199.148,264.552 185.5,263.5C 182.167,262.833 178.833,262.167 175.5,261.5C 175.5,261.167 175.5,260.833 175.5,260.5C 174.432,259.566 173.099,259.232 171.5,259.5C 171.5,258.167 171.5,256.833 171.5,255.5C 168.833,255.5 166.167,255.5 163.5,255.5C 163.616,258.86 163.949,262.193 164.5,265.5C 159.456,265.827 154.456,265.494 149.5,264.5C 148.593,261.579 148.26,258.579 148.5,255.5C 146.833,255.5 145.167,255.5 143.5,255.5C 141.5,255.5 139.5,255.5 137.5,255.5C 137.281,254.325 137.614,253.325 138.5,252.5C 142.936,250.602 147.436,248.935 152,247.5C 154.306,239.329 155.64,230.996 156,222.5C 159.466,221.283 162.966,221.283 166.5,222.5 Z"/></g>
<g><path style="opacity:1" fill="#1b5b4a" d="M 159.5,220.5 C 156.038,220.566 152.705,221.233 149.5,222.5C 147.182,222.003 144.848,221.67 142.5,221.5C 142.557,223.884 142.223,226.218 141.5,228.5C 141.818,229.647 142.484,230.481 143.5,231C 143.043,231.414 142.709,231.914 142.5,232.5C 142.817,236.941 143.817,241.108 145.5,245C 144.07,246.44 142.403,246.774 140.5,246C 140.454,243.564 140.121,241.064 139.5,238.5C 138.264,239.246 136.93,239.579 135.5,239.5C 134.712,245.915 133.879,252.248 133,258.5C 133.5,259.667 134.333,260.5 135.5,261C 138.254,261.272 140.921,261.772 143.5,262.5C 144.506,263.396 144.506,264.062 143.5,264.5C 140.135,263.96 136.802,263.294 133.5,262.5C 133.167,262.5 132.833,262.5 132.5,262.5C 131.791,261.596 130.791,261.263 129.5,261.5C 132.63,247.978 134.963,234.311 136.5,220.5C 136.5,220.167 136.5,219.833 136.5,219.5C 144.324,218.454 151.991,218.788 159.5,220.5 Z"/></g>
<g><path style="opacity:1" fill="#e8eceb" d="M 93.5,220.5 C 93.3347,224.182 93.5014,227.848 94,231.5C 95.6047,234.648 96.6047,237.981 97,241.5C 98.5704,237.925 100.57,234.592 103,231.5C 103.21,233.058 103.71,234.391 104.5,235.5C 105.211,237.799 106.211,239.965 107.5,242C 105.386,248.74 103.719,255.573 102.5,262.5C 99.9222,263.046 97.4222,262.379 95,260.5C 93.9887,261.337 92.8221,261.67 91.5,261.5C 92.4715,260.601 93.1382,259.434 93.5,258C 90.1332,245.627 87.4665,233.127 85.5,220.5C 81.7785,220.911 78.1119,221.578 74.5,222.5C 74.3893,221.883 74.056,221.383 73.5,221C 80.3579,219.292 87.0246,219.125 93.5,220.5 Z"/></g>
<g><path style="opacity:1" fill="#0e7a4c" d="M 76.5,261.5 C 75.5,262.5 74.5,263.5 73.5,264.5C 64.1357,267.695 54.469,269.028 44.5,268.5C 43.1389,270.85 41.8056,273.184 40.5,275.5C 40.5,275.833 40.5,276.167 40.5,276.5C 38.2646,276.205 36.2646,276.539 34.5,277.5C 33.5318,279.607 33.1984,281.941 33.5,284.5C 33.7471,287.939 33.4137,291.272 32.5,294.5C 27.9994,290.05 25.9994,284.55 26.5,278C 26.6667,275.833 26.8333,273.667 27,271.5C 28.8129,266.909 30.3129,262.242 31.5,257.5C 33.7001,253.12 36.5335,249.12 40,245.5C 42.7309,243.255 45.5642,241.255 48.5,239.5C 49.8333,239.5 51.1667,239.5 52.5,239.5C 55.2664,234.239 59.5997,231.073 65.5,230C 65.1667,230.333 64.8333,230.667 64.5,231C 66.0745,236.827 67.9079,242.661 70,248.5C 73.8459,250.609 78.0126,251.942 82.5,252.5C 82.9767,253.478 83.6433,254.311 84.5,255C 82.0481,255.29 79.7148,255.956 77.5,257C 77.7856,258.388 77.4523,259.888 76.5,261.5 Z"/></g>
<g><path style="opacity:1" fill="#e9edea" d="M 136.5,220.5 C 134.963,234.311 132.63,247.978 129.5,261.5C 130.791,261.263 131.791,261.596 132.5,262.5C 130.549,262.773 129.049,262.107 128,260.5C 127.517,261.448 127.351,262.448 127.5,263.5C 123.788,262.582 120.122,262.582 116.5,263.5C 117.086,261.757 117.419,259.924 117.5,258C 116.394,252.7 115.394,247.367 114.5,242C 115.131,239.254 116.131,236.754 117.5,234.5C 118.222,234.082 118.722,233.416 119,232.5C 120.267,235.275 121.767,237.941 123.5,240.5C 124.167,241.833 124.833,241.833 125.5,240.5C 128.917,234.275 130.25,227.608 129.5,220.5C 131.833,220.5 134.167,220.5 136.5,220.5 Z"/></g>
<g><path style="opacity:1" fill="#12694b" d="M 66.5,226.5 C 67.7804,227.931 69.4471,228.598 71.5,228.5C 70.1472,231.093 69.4805,233.927 69.5,237C 68.8254,246.17 72.8254,249.67 81.5,247.5C 83.4397,250.158 85.4397,252.825 87.5,255.5C 87.4435,256.737 86.9435,257.737 86,258.5C 82.3746,257.703 79.2079,258.703 76.5,261.5C 77.4523,259.888 77.7856,258.388 77.5,257C 79.7148,255.956 82.0481,255.29 84.5,255C 83.6433,254.311 82.9767,253.478 82.5,252.5C 78.0126,251.942 73.8459,250.609 70,248.5C 67.9079,242.661 66.0745,236.827 64.5,231C 64.8333,230.667 65.1667,230.333 65.5,230C 59.5997,231.073 55.2664,234.239 52.5,239.5C 51.1667,239.5 49.8333,239.5 48.5,239.5C 53.3247,233.734 59.3247,229.401 66.5,226.5 Z"/></g>
<g><path style="opacity:1" fill="#262523" d="M 117.5,234.5 C 116.131,236.754 115.131,239.254 114.5,242C 115.394,247.367 116.394,252.7 117.5,258C 117.419,259.924 117.086,261.757 116.5,263.5C 113.236,265.094 110.569,267.427 108.5,270.5C 106.47,267.736 104.47,265.069 102.5,262.5C 103.719,255.573 105.386,248.74 107.5,242C 106.211,239.965 105.211,237.799 104.5,235.5C 104.34,233.801 104.506,232.134 105,230.5C 111.333,223.561 115.5,224.894 117.5,234.5 Z"/></g>
<g><path style="opacity:1" fill="#20714d" d="M 249.5,230.5 C 251.347,234.024 253.014,237.69 254.5,241.5C 254.957,242.298 255.624,242.631 256.5,242.5C 255.916,245.473 255.249,248.473 254.5,251.5C 250.773,254.361 246.773,256.695 242.5,258.5C 244.737,255.941 246.237,252.941 247,249.5C 249.862,250.829 252.028,249.996 253.5,247C 253.664,239.162 249.83,234.996 242,234.5C 235.345,235.04 228.678,235.373 222,235.5C 216.784,235.494 211.951,234.827 207.5,233.5C 214.841,233.666 222.174,233.5 229.5,233C 235.244,232.356 240.744,230.856 246,228.5C 247.699,228.387 248.866,229.053 249.5,230.5 Z"/></g>
<g><path style="opacity:1" fill="#1b6b47" d="M 143.5,255.5 C 145.167,255.5 146.833,255.5 148.5,255.5C 148.26,258.579 148.593,261.579 149.5,264.5C 154.456,265.494 159.456,265.827 164.5,265.5C 163.949,262.193 163.616,258.86 163.5,255.5C 166.167,255.5 168.833,255.5 171.5,255.5C 171.5,256.833 171.5,258.167 171.5,259.5C 173.099,259.232 174.432,259.566 175.5,260.5C 170.206,259.138 167.54,261.138 167.5,266.5C 166.508,266.328 165.842,266.662 165.5,267.5C 157.807,268.102 150.474,267.102 143.5,264.5C 144.506,264.062 144.506,263.396 143.5,262.5C 143.5,260.167 143.5,257.833 143.5,255.5 Z"/></g>
<g><path style="opacity:1" fill="#1c6b4a" d="M 239.5,260.5 C 234.491,262.946 229.158,264.613 223.5,265.5C 212.847,266.444 202.181,266.61 191.5,266C 189.277,265.434 187.277,264.6 185.5,263.5C 199.148,264.552 212.815,264.718 226.5,264C 230.599,261.91 234.933,260.744 239.5,260.5 Z"/></g>
<g><path style="opacity:1" fill="#d5efd4" d="M 133.5,262.5 C 136.802,263.294 140.135,263.96 143.5,264.5C 150.474,267.102 157.807,268.102 165.5,267.5C 167.379,267.393 167.712,267.893 166.5,269C 159.833,269.667 153.167,269.667 146.5,269C 142.053,266.677 137.72,264.51 133.5,262.5 Z"/></g>
<g><path style="opacity:1" fill="#214736" d="M 175.5,261.5 C 178.833,262.167 182.167,262.833 185.5,263.5C 187.277,264.6 189.277,265.434 191.5,266C 202.181,266.61 212.847,266.444 223.5,265.5C 221.342,267.22 218.675,268.053 215.5,268C 203.249,268.973 191.249,267.973 179.5,265C 177.681,264.26 176.348,263.093 175.5,261.5 Z"/></g>
<g><path style="opacity:1" fill="#dcf1d8" d="M 89.5,261.5 C 90.2625,262.268 91.2625,262.768 92.5,263C 83.0908,264.077 74.0908,266.411 65.5,270C 59.4853,270.424 53.4853,270.924 47.5,271.5C 47.5,272.5 47.5,273.5 47.5,274.5C 45.0971,274.448 42.7638,274.781 40.5,275.5C 41.8056,273.184 43.1389,270.85 44.5,268.5C 54.469,269.028 64.1357,267.695 73.5,264.5C 78.7,263.261 84.0333,262.261 89.5,261.5 Z"/></g>
<g><path style="opacity:1" fill="#ece2ce" d="M 102.5,262.5 C 104.47,265.069 106.47,267.736 108.5,270.5C 110.569,267.427 113.236,265.094 116.5,263.5C 120.122,262.582 123.788,262.582 127.5,263.5C 127.351,262.448 127.517,261.448 128,260.5C 129.049,262.107 130.549,262.773 132.5,262.5C 132.833,262.5 133.167,262.5 133.5,262.5C 137.72,264.51 142.053,266.677 146.5,269C 153.167,269.667 159.833,269.667 166.5,269C 167.712,267.893 167.379,267.393 165.5,267.5C 165.842,266.662 166.508,266.328 167.5,266.5C 169.167,266.5 170.833,266.5 172.5,266.5C 172.4,269.108 173.067,271.442 174.5,273.5C 156.671,274.662 138.671,274.829 120.5,274C 117.893,271.895 114.893,271.062 111.5,271.5C 108.167,271.5 104.833,271.5 101.5,271.5C 97.9601,271.377 95.9601,273.043 95.5,276.5C 77.1667,276.5 58.8333,276.5 40.5,276.5C 40.5,276.167 40.5,275.833 40.5,275.5C 42.7638,274.781 45.0971,274.448 47.5,274.5C 47.5,273.5 47.5,272.5 47.5,271.5C 53.4853,270.924 59.4853,270.424 65.5,270C 74.0908,266.411 83.0908,264.077 92.5,263C 91.2625,262.768 90.2625,262.268 89.5,261.5C 90.1667,261.5 90.8333,261.5 91.5,261.5C 92.8221,261.67 93.9887,261.337 95,260.5C 97.4222,262.379 99.9222,263.046 102.5,262.5 Z"/></g>
<g><path style="opacity:1" fill="#8a2313" d="M 116.5,278.5 C 115.942,279.79 114.942,280.623 113.5,281C 108.411,281.826 103.411,281.492 98.5,280C 97.7476,279.329 97.4142,278.496 97.5,277.5C 99.5952,276.588 101.595,275.421 103.5,274C 109.032,272.381 113.366,273.881 116.5,278.5 Z"/></g>
<g><path style="opacity:1" fill="#316f54" d="M 31.5,257.5 C 30.3129,262.242 28.8129,266.909 27,271.5C 26.8333,273.667 26.6667,275.833 26.5,278C 25.9994,284.55 27.9994,290.05 32.5,294.5C 32.6716,295.492 32.3382,296.158 31.5,296.5C 22.178,283.57 22.178,270.57 31.5,257.5 Z"/></g>
<g><path style="opacity:1" fill="#fce0be" d="M 111.5,271.5 C 114.893,271.062 117.893,271.895 120.5,274C 138.671,274.829 156.671,274.662 174.5,273.5C 175.167,273.5 175.5,273.833 175.5,274.5C 156.694,276.189 137.694,276.856 118.5,276.5C 116.545,274.294 114.212,272.628 111.5,271.5 Z"/></g>
<g><path style="opacity:1" fill="#f8c8a9" d="M 101.5,271.5 C 99.1402,272.865 97.4735,274.865 96.5,277.5C 96.1667,277.5 95.8333,277.5 95.5,277.5C 75.1667,277.5 54.8333,277.5 34.5,277.5C 36.2646,276.539 38.2646,276.205 40.5,276.5C 58.8333,276.5 77.1667,276.5 95.5,276.5C 95.9601,273.043 97.9601,271.377 101.5,271.5 Z"/></g>
<g><path style="opacity:1" fill="#dc976f" d="M 175.5,274.5 C 176.167,274.5 176.5,274.833 176.5,275.5C 164.194,276.89 151.694,277.557 139,277.5C 131.992,277.5 125.158,277.166 118.5,276.5C 137.694,276.856 156.694,276.189 175.5,274.5 Z"/></g>
<g><path style="opacity:1" fill="#c76e4b" d="M 34.5,277.5 C 54.8333,277.5 75.1667,277.5 95.5,277.5C 75.5,278.167 55.5,278.833 35.5,279.5C 35.5,282.167 35.5,284.833 35.5,287.5C 34.8333,286.5 34.1667,285.5 33.5,284.5C 33.1984,281.941 33.5318,279.607 34.5,277.5 Z"/></g>
<g><path style="opacity:1" fill="#cd6c48" d="M 101.5,271.5 C 104.833,271.5 108.167,271.5 111.5,271.5C 114.212,272.628 116.545,274.294 118.5,276.5C 125.158,277.166 131.992,277.5 139,277.5C 151.694,277.557 164.194,276.89 176.5,275.5C 176.833,275.5 177.167,275.5 177.5,275.5C 178.9,276.1 179.9,277.1 180.5,278.5C 179.833,278.833 179.167,279.167 178.5,279.5C 178.167,279.5 177.833,279.5 177.5,279.5C 171.69,278.51 165.69,278.177 159.5,278.5C 145.167,278.5 130.833,278.5 116.5,278.5C 113.366,273.881 109.032,272.381 103.5,274C 101.595,275.421 99.5952,276.588 97.5,277.5C 97.1667,277.5 96.8333,277.5 96.5,277.5C 97.4735,274.865 99.1402,272.865 101.5,271.5 Z"/></g>
<g><path style="opacity:1" fill="#f15a36" d="M 159.5,278.5 C 165.69,278.177 171.69,278.51 177.5,279.5C 159.514,280.348 141.514,280.681 123.5,280.5C 135.5,279.833 147.5,279.167 159.5,278.5 Z"/></g>
<g><path style="opacity:1" fill="#622a20" d="M 177.5,275.5 C 179.144,275.286 180.644,275.62 182,276.5C 182.259,282.228 181.759,287.894 180.5,293.5C 180.5,293.833 180.5,294.167 180.5,294.5C 179.833,294.5 179.167,294.5 178.5,294.5C 178.845,289.122 179.512,283.789 180.5,278.5C 179.9,277.1 178.9,276.1 177.5,275.5 Z"/></g>
<g><path style="opacity:1" fill="#ea6742" d="M 95.5,277.5 C 95.8333,277.5 96.1667,277.5 96.5,277.5C 96.8333,277.5 97.1667,277.5 97.5,277.5C 97.4142,278.496 97.7476,279.329 98.5,280C 103.411,281.492 108.411,281.826 113.5,281C 114.942,280.623 115.942,279.79 116.5,278.5C 130.833,278.5 145.167,278.5 159.5,278.5C 147.5,279.167 135.5,279.833 123.5,280.5C 113.699,287.709 103.366,288.376 92.5,282.5C 92.0825,281.778 91.4158,281.278 90.5,281C 72.1624,280.56 53.8291,280.06 35.5,279.5C 55.5,278.833 75.5,278.167 95.5,277.5 Z"/></g>
<g><path style="opacity:1" fill="#e53018" d="M 176.5,290.5 C 176.073,294.824 175.739,299.158 175.5,303.5C 175.5,304.167 175.5,304.833 175.5,305.5C 175.5,305.833 175.5,306.167 175.5,306.5C 173.136,313.957 171.136,321.624 169.5,329.5C 168.504,329.414 167.671,329.748 167,330.5C 166.55,332.519 165.717,334.352 164.5,336C 160.166,336.9 155.832,337.734 151.5,338.5C 140.821,340.391 130.154,340.724 119.5,339.5C 118.939,338.092 118.605,336.592 118.5,335C 120.535,317.674 122.202,300.507 123.5,283.5C 129.317,284.216 135.15,283.882 141,282.5C 145.823,283.711 150.657,283.711 155.5,282.5C 160.774,282.687 160.774,283.187 155.5,284C 159.5,284.667 163.5,284.667 167.5,284C 165.203,282.84 165.536,281.84 168.5,281C 171.146,280.503 173.813,280.336 176.5,280.5C 176.5,281.5 176.5,282.5 176.5,283.5C 174.473,283.338 172.473,283.505 170.5,284C 172.134,284.494 173.801,284.66 175.5,284.5C 175.833,286.5 176.167,288.5 176.5,290.5 Z"/></g>
<g><path style="opacity:1" fill="#e53018" d="M 35.5,279.5 C 53.8291,280.06 72.1624,280.56 90.5,281C 91.4158,281.278 92.0825,281.778 92.5,282.5C 91.6236,282.369 90.9569,282.702 90.5,283.5C 92.6616,286.14 92.995,288.973 91.5,292C 91.8958,300.786 93.2291,309.286 95.5,317.5C 95.5,324.5 95.5,331.5 95.5,338.5C 79.3263,340.228 63.3263,339.228 47.5,335.5C 47.1185,328.568 45.7851,322.234 43.5,316.5C 47.8544,315.644 50.3544,312.977 51,308.5C 51.6761,303.129 51.5095,297.796 50.5,292.5C 46.1962,291.869 41.8629,291.369 37.5,291C 36.9152,289.698 36.2485,288.531 35.5,287.5C 35.5,284.833 35.5,282.167 35.5,279.5 Z"/></g>
<g><path style="opacity:1" fill="#536036" d="M 33.5,284.5 C 34.1667,285.5 34.8333,286.5 35.5,287.5C 35.5172,289.565 35.8505,291.565 36.5,293.5C 35.2921,294.234 33.9587,294.567 32.5,294.5C 33.4137,291.272 33.7471,287.939 33.5,284.5 Z"/></g>
<g><path style="opacity:1" fill="#392712" d="M 378.5,117.5 C 378.5,176.5 378.5,235.5 378.5,294.5C 312.5,294.5 246.5,294.5 180.5,294.5C 180.5,294.167 180.5,293.833 180.5,293.5C 181.5,293.5 182.5,293.5 183.5,293.5C 248.167,293.5 312.833,293.5 377.5,293.5C 377.168,234.664 377.501,175.998 378.5,117.5 Z"/></g>
<g><path style="opacity:1" fill="#c2432b" d="M 180.5,278.5 C 179.512,283.789 178.845,289.122 178.5,294.5C 178.5,294.833 178.5,295.167 178.5,295.5C 177.251,298.087 176.251,300.754 175.5,303.5C 175.739,299.158 176.073,294.824 176.5,290.5C 177.903,287.091 178.57,283.425 178.5,279.5C 179.167,279.167 179.833,278.833 180.5,278.5 Z"/></g>
<g><path style="opacity:1" fill="#866b4e" d="M 378.5,112.5 C 379.499,173.331 379.832,234.331 379.5,295.5C 312.833,295.5 246.167,295.5 179.5,295.5C 179.167,295.5 178.833,295.5 178.5,295.5C 178.5,295.167 178.5,294.833 178.5,294.5C 179.167,294.5 179.833,294.5 180.5,294.5C 246.5,294.5 312.5,294.5 378.5,294.5C 378.5,235.5 378.5,176.5 378.5,117.5C 378.5,117.167 378.5,116.833 378.5,116.5C 378.5,115.167 378.5,113.833 378.5,112.5 Z"/></g>
<g><path style="opacity:1" fill="#d32817" d="M 177.5,279.5 C 177.833,279.5 178.167,279.5 178.5,279.5C 178.57,283.425 177.903,287.091 176.5,290.5C 176.167,288.5 175.833,286.5 175.5,284.5C 173.801,284.66 172.134,284.494 170.5,284C 172.473,283.505 174.473,283.338 176.5,283.5C 176.5,282.5 176.5,281.5 176.5,280.5C 173.813,280.336 171.146,280.503 168.5,281C 165.536,281.84 165.203,282.84 167.5,284C 163.5,284.667 159.5,284.667 155.5,284C 160.774,283.187 160.774,282.687 155.5,282.5C 150.657,283.711 145.823,283.711 141,282.5C 135.15,283.882 129.317,284.216 123.5,283.5C 122.202,300.507 120.535,317.674 118.5,335C 118.605,336.592 118.939,338.092 119.5,339.5C 118.167,339.5 116.833,339.5 115.5,339.5C 113.444,338.801 111.444,337.801 109.5,336.5C 111.021,336.12 112.687,335.954 114.5,336C 113.075,334.286 113.408,332.953 115.5,332C 114.833,331.667 114.167,331.333 113.5,331C 114.357,330.311 115.023,329.478 115.5,328.5C 115.293,325.604 115.127,322.604 115,319.5C 114.25,318.874 113.416,318.374 112.5,318C 115.32,317.264 117.32,315.598 118.5,313C 117.314,310.093 116.814,307.26 117,304.5C 109.921,303.52 102.755,303.187 95.5,303.5C 95.188,307.675 95.8547,311.675 97.5,315.5C 96.7573,316.182 96.0906,316.849 95.5,317.5C 93.2291,309.286 91.8958,300.786 91.5,292C 92.995,288.973 92.6616,286.14 90.5,283.5C 90.9569,282.702 91.6236,282.369 92.5,282.5C 103.366,288.376 113.699,287.709 123.5,280.5C 141.514,280.681 159.514,280.348 177.5,279.5 Z"/></g>
<g><path style="opacity:1" fill="#e0b78a" d="M 179.5,295.5 C 246.167,295.5 312.833,295.5 379.5,295.5C 379.082,296.222 378.416,296.722 377.5,297C 344.5,297.167 311.5,297.333 278.5,297.5C 245.16,297.5 212.16,296.833 179.5,295.5 Z"/></g>
<g><path style="opacity:1" fill="#c73d24" d="M 35.5,287.5 C 36.2485,288.531 36.9152,289.698 37.5,291C 41.8629,291.369 46.1962,291.869 50.5,292.5C 51.5095,297.796 51.6761,303.129 51,308.5C 50.3544,312.977 47.8544,315.644 43.5,316.5C 45.7139,313.3 47.7139,309.967 49.5,306.5C 49.715,302.6 49.215,298.6 48,294.5C 44.3573,292.243 40.524,291.909 36.5,293.5C 35.8505,291.565 35.5172,289.565 35.5,287.5 Z"/></g>
<g><path style="opacity:1" fill="#f7e4cb" d="M 175.5,305.5 C 176.167,305.5 176.833,305.5 177.5,305.5C 248.5,305.5 319.5,305.5 390.5,305.5C 390.5,305.833 390.5,306.167 390.5,306.5C 319.497,306.167 248.497,306.5 177.5,307.5C 176.652,309.409 176.318,311.409 176.5,313.5C 175.662,313.158 175.328,312.492 175.5,311.5C 175.5,309.833 175.5,308.167 175.5,306.5C 175.5,306.167 175.5,305.833 175.5,305.5 Z"/></g>
<g><path style="opacity:1" fill="#f7f7ee" d="M 390.5,306.5 C 323.335,307.333 256.001,307.833 188.5,308C 185.118,308.176 181.785,308.676 178.5,309.5C 179.09,310.799 180.09,311.632 181.5,312C 179.484,313.028 178.484,314.695 178.5,317C 178.677,321.428 180.344,325.094 183.5,328C 180.833,330.333 180.833,332.667 183.5,335C 182.903,336.062 182.57,337.228 182.5,338.5C 183.2,343.995 183.866,349.495 184.5,355C 184.392,356.681 183.725,357.848 182.5,358.5C 181.65,348.101 180.317,337.768 178.5,327.5C 177.513,322.883 176.846,318.216 176.5,313.5C 176.318,311.409 176.652,309.409 177.5,307.5C 248.497,306.5 319.497,306.167 390.5,306.5 Z"/></g>
<g><path style="opacity:1" fill="#efd1bc" d="M 31.5,301.5 C 33.1033,301.312 34.4366,301.812 35.5,303C 34.8333,303.333 34.1667,303.667 33.5,304C 34.4056,306.447 35.2389,308.947 36,311.5C 37.7412,313.396 39.2412,315.396 40.5,317.5C 39.1667,317.5 37.8333,317.5 36.5,317.5C 34.7428,316.708 33.4095,315.375 32.5,313.5C 31.5091,309.555 31.1758,305.555 31.5,301.5 Z"/></g>
<g><path style="opacity:1" fill="#f6c4a4" d="M 43.5,316.5 C 41.9519,316.821 41.2852,317.821 41.5,319.5C 40.6618,319.158 40.3284,318.492 40.5,317.5C 39.2412,315.396 37.7412,313.396 36,311.5C 35.2389,308.947 34.4056,306.447 33.5,304C 34.1667,303.667 34.8333,303.333 35.5,303C 34.4366,301.812 33.1033,301.312 31.5,301.5C 31.5,299.833 31.5,298.167 31.5,296.5C 32.3382,296.158 32.6716,295.492 32.5,294.5C 33.9587,294.567 35.2921,294.234 36.5,293.5C 40.524,291.909 44.3573,292.243 48,294.5C 49.215,298.6 49.715,302.6 49.5,306.5C 47.7139,309.967 45.7139,313.3 43.5,316.5 Z"/></g>
<g><path style="opacity:1" fill="#cb261a" d="M 115.5,339.5 C 111.743,339.286 111.076,340.286 113.5,342.5C 110.951,344.183 108.118,345.183 105,345.5C 103.096,343.949 100.93,342.783 98.5,342C 88.4988,341.447 78.4988,340.947 68.5,340.5C 63.4843,339.942 58.4843,339.275 53.5,338.5C 51.3713,337.797 49.3713,336.797 47.5,335.5C 63.3263,339.228 79.3263,340.228 95.5,338.5C 95.5,331.5 95.5,324.5 95.5,317.5C 96.0906,316.849 96.7573,316.182 97.5,315.5C 95.8547,311.675 95.188,307.675 95.5,303.5C 102.755,303.187 109.921,303.52 117,304.5C 116.814,307.26 117.314,310.093 118.5,313C 117.32,315.598 115.32,317.264 112.5,318C 113.416,318.374 114.25,318.874 115,319.5C 115.127,322.604 115.293,325.604 115.5,328.5C 115.023,329.478 114.357,330.311 113.5,331C 114.167,331.333 114.833,331.667 115.5,332C 113.408,332.953 113.075,334.286 114.5,336C 112.687,335.954 111.021,336.12 109.5,336.5C 111.444,337.801 113.444,338.801 115.5,339.5 Z"/></g>
<g><path style="opacity:1" fill="#925536" d="M 175.5,306.5 C 175.5,308.167 175.5,309.833 175.5,311.5C 174.297,317.722 172.297,323.722 169.5,329.5C 171.136,321.624 173.136,313.957 175.5,306.5 Z"/></g>
<g><path style="opacity:1" fill="#c8372a" d="M 43.5,316.5 C 45.7851,322.234 47.1185,328.568 47.5,335.5C 47.1667,335.5 46.8333,335.5 46.5,335.5C 44.5425,330.36 42.8759,325.027 41.5,319.5C 41.2852,317.821 41.9519,316.821 43.5,316.5 Z"/></g>
<g><path style="opacity:1" fill="#3c6f44" d="M 175.5,311.5 C 175.328,312.492 175.662,313.158 176.5,313.5C 176.846,318.216 177.513,322.883 178.5,327.5C 176.955,326.77 176.122,325.437 176,323.5C 175.027,325.392 174.36,327.392 174,329.5C 173.333,328.833 172.667,328.167 172,327.5C 171.218,330.31 170.384,332.977 169.5,335.5C 169.5,333.5 169.5,331.5 169.5,329.5C 172.297,323.722 174.297,317.722 175.5,311.5 Z"/></g>
<g><path style="opacity:1" fill="#fce8df" d="M 36.5,317.5 C 37.8333,317.5 39.1667,317.5 40.5,317.5C 40.3284,318.492 40.6618,319.158 41.5,319.5C 42.8759,325.027 44.5425,330.36 46.5,335.5C 46.3284,336.492 46.6618,337.158 47.5,337.5C 47.5,338.167 47.5,338.833 47.5,339.5C 46.4168,339.461 45.4168,339.127 44.5,338.5C 43.6667,335.5 42.8333,332.5 42,329.5C 41.6667,329.833 41.3333,330.167 41,330.5C 39.8924,326.914 39.3924,323.247 39.5,319.5C 37.8212,319.715 36.8212,319.048 36.5,317.5 Z"/></g>
<g><path style="opacity:1" fill="#905435" d="M 46.5,335.5 C 46.8333,335.5 47.1667,335.5 47.5,335.5C 49.3713,336.797 51.3713,337.797 53.5,338.5C 51.3792,338.675 49.3792,338.341 47.5,337.5C 46.6618,337.158 46.3284,336.492 46.5,335.5 Z"/></g>
<g><path style="opacity:1" fill="#af482e" d="M 169.5,329.5 C 169.5,331.5 169.5,333.5 169.5,335.5C 166.838,338.173 163.505,339.506 159.5,339.5C 155.821,339.724 152.154,340.058 148.5,340.5C 149.5,339.833 150.5,339.167 151.5,338.5C 155.832,337.734 160.166,336.9 164.5,336C 165.717,334.352 166.55,332.519 167,330.5C 167.671,329.748 168.504,329.414 169.5,329.5 Z"/></g>
<g><path style="opacity:1" fill="#0b794c" d="M 178.5,327.5 C 180.317,337.768 181.65,348.101 182.5,358.5C 174.156,362.834 165.489,366.167 156.5,368.5C 141.925,370.158 127.425,369.824 113,367.5C 105.02,368.414 97.02,369.081 89,369.5C 81.1713,368.751 73.338,368.084 65.5,367.5C 58.4674,364.967 51.4674,361.967 44.5,358.5C 44.1667,357.667 43.8333,356.833 43.5,356C 45.0719,350.546 46.4053,345.046 47.5,339.5C 47.5,338.833 47.5,338.167 47.5,337.5C 49.3792,338.341 51.3792,338.675 53.5,338.5C 55.2418,339.957 57.2418,341.124 59.5,342C 64.882,342.265 70.2154,342.765 75.5,343.5C 75.6107,344.117 75.944,344.617 76.5,345C 83.1546,345.787 89.8213,346.453 96.5,347C 97.3802,348.356 97.7135,349.856 97.5,351.5C 102.387,351.027 107.054,350.027 111.5,348.5C 111.5,348.167 111.5,347.833 111.5,347.5C 124.111,345.908 136.778,344.742 149.5,344C 153.11,343.262 156.443,342.095 159.5,340.5C 159.5,340.167 159.5,339.833 159.5,339.5C 163.505,339.506 166.838,338.173 169.5,335.5C 170.384,332.977 171.218,330.31 172,327.5C 172.667,328.167 173.333,328.833 174,329.5C 174.36,327.392 175.027,325.392 176,323.5C 176.122,325.437 176.955,326.77 178.5,327.5 Z"/></g>
<g><path style="opacity:1" fill="#2e623e" d="M 75.5,343.5 C 76.8333,343.5 78.1667,343.5 79.5,343.5C 85.0262,343.179 90.3595,343.512 95.5,344.5C 100.032,348.155 105.365,349.488 111.5,348.5C 107.054,350.027 102.387,351.027 97.5,351.5C 97.7135,349.856 97.3802,348.356 96.5,347C 89.8213,346.453 83.1546,345.787 76.5,345C 75.944,344.617 75.6107,344.117 75.5,343.5 Z"/></g>
<g><path style="opacity:1" fill="#6b4731" d="M 95.5,344.5 C 98.0448,344.151 100.045,344.984 101.5,347C 104.817,347.498 108.15,347.665 111.5,347.5C 111.5,347.833 111.5,348.167 111.5,348.5C 105.365,349.488 100.032,348.155 95.5,344.5 Z"/></g>
<g><path style="opacity:1" fill="#356c3c" d="M 159.5,340.5 C 156.443,342.095 153.11,343.262 149.5,344C 136.778,344.742 124.111,345.908 111.5,347.5C 111.821,345.952 112.821,345.285 114.5,345.5C 124.403,344.285 134.07,342.952 143.5,341.5C 148.87,341.608 154.203,341.275 159.5,340.5 Z"/></g>
<g><path style="opacity:1" fill="#b63c25" d="M 151.5,338.5 C 150.5,339.167 149.5,339.833 148.5,340.5C 146.585,340.216 144.919,340.549 143.5,341.5C 134.515,342.142 125.515,342.642 116.5,343C 115.244,343.417 114.577,344.25 114.5,345.5C 112.821,345.285 111.821,345.952 111.5,347.5C 108.15,347.665 104.817,347.498 101.5,347C 100.045,344.984 98.0448,344.151 95.5,344.5C 90.3595,343.512 85.0262,343.179 79.5,343.5C 75.8977,342.225 72.231,341.225 68.5,340.5C 78.4988,340.947 88.4988,341.447 98.5,342C 100.93,342.783 103.096,343.949 105,345.5C 108.118,345.183 110.951,344.183 113.5,342.5C 111.076,340.286 111.743,339.286 115.5,339.5C 116.833,339.5 118.167,339.5 119.5,339.5C 130.154,340.724 140.821,340.391 151.5,338.5 Z"/></g>
<g><path style="opacity:1" fill="#805533" d="M 143.5,341.5 C 134.07,342.952 124.403,344.285 114.5,345.5C 114.577,344.25 115.244,343.417 116.5,343C 125.515,342.642 134.515,342.142 143.5,341.5 Z"/></g>
<g><path style="opacity:1" fill="#665e37" d="M 53.5,338.5 C 58.4843,339.275 63.4843,339.942 68.5,340.5C 72.231,341.225 75.8977,342.225 79.5,343.5C 78.1667,343.5 76.8333,343.5 75.5,343.5C 70.2154,342.765 64.882,342.265 59.5,342C 57.2418,341.124 55.2418,339.957 53.5,338.5 Z"/></g>
<g><path style="opacity:1" fill="#725836" d="M 159.5,339.5 C 159.5,339.833 159.5,340.167 159.5,340.5C 154.203,341.275 148.87,341.608 143.5,341.5C 144.919,340.549 146.585,340.216 148.5,340.5C 152.154,340.058 155.821,339.724 159.5,339.5 Z"/></g>
<g><path style="opacity:1" fill="#4e6547" d="M 65.5,367.5 C 73.338,368.084 81.1713,368.751 89,369.5C 97.02,369.081 105.02,368.414 113,367.5C 127.425,369.824 141.925,370.158 156.5,368.5C 156.5,368.833 156.5,369.167 156.5,369.5C 156.5,369.833 156.5,370.167 156.5,370.5C 151.968,370.182 147.634,370.515 143.5,371.5C 132.959,371.518 122.459,370.852 112,369.5C 96.4976,370.783 80.9976,370.783 65.5,369.5C 65.5,368.833 65.5,368.167 65.5,367.5 Z"/></g>
<g><path style="opacity:1" fill="#9a4b40" d="M 143.5,371.5 C 147.634,370.515 151.968,370.182 156.5,370.5C 156.5,371.167 156.5,371.833 156.5,372.5C 156.033,398.344 155.7,424.344 155.5,450.5C 146.235,451.996 136.902,452.662 127.5,452.5C 127.5,454.167 127.5,455.833 127.5,457.5C 122.266,431.767 117.766,405.767 114,379.5C 113.722,380.416 113.222,381.082 112.5,381.5C 111.71,380.391 111.21,379.058 111,377.5C 110.79,379.058 110.29,380.391 109.5,381.5C 108.778,381.082 108.278,380.416 108,379.5C 106.163,389.533 104.163,399.533 102,409.5C 101.005,406.23 100.172,402.897 99.5,399.5C 97.9045,401.864 96.7378,404.53 96,407.5C 95.3333,412.167 95.3333,416.833 96,421.5C 95.8551,418.077 97.3551,416.077 100.5,415.5C 99.1272,424.185 98.1272,433.018 97.5,442C 97.528,443.07 97.8614,443.903 98.5,444.5C 98.7678,446.099 98.4345,447.432 97.5,448.5C 97.6495,447.448 97.4828,446.448 97,445.5C 96.338,447.813 95.838,450.146 95.5,452.5C 88.6539,452.435 81.6539,452.269 74.5,452C 72.0034,450.346 69.5034,449.513 67,449.5C 66.6667,454.167 66.3333,458.833 66,463.5C 65.8255,458.649 65.3255,453.982 64.5,449.5C 64.5,449.167 64.5,448.833 64.5,448.5C 65.1174,448.389 65.6174,448.056 66,447.5C 66.3333,421.833 66.6667,396.167 67,370.5C 73.7408,371.576 80.5741,372.243 87.5,372.5C 106.328,372.01 124.995,371.676 143.5,371.5 Z"/></g>
<g><path style="opacity:1" fill="#904d43" d="M 109.5,381.5 C 107.888,394.229 105.888,406.895 103.5,419.5C 103.5,419.833 103.5,420.167 103.5,420.5C 101.6,428.326 99.9338,436.326 98.5,444.5C 97.8614,443.903 97.528,443.07 97.5,442C 98.1272,433.018 99.1272,424.185 100.5,415.5C 97.3551,416.077 95.8551,418.077 96,421.5C 95.3333,416.833 95.3333,412.167 96,407.5C 96.7378,404.53 97.9045,401.864 99.5,399.5C 100.172,402.897 101.005,406.23 102,409.5C 104.163,399.533 106.163,389.533 108,379.5C 108.278,380.416 108.778,381.082 109.5,381.5 Z"/></g>
<g><path style="opacity:1" fill="#f3ded6" d="M 112.5,381.5 C 112.833,384.833 113.167,388.167 113.5,391.5C 112.819,389.842 111.985,388.175 111,386.5C 110.667,387.167 110.333,387.833 110,388.5C 109.051,397.558 107.717,406.558 106,415.5C 105.8,417.32 104.966,418.653 103.5,419.5C 105.888,406.895 107.888,394.229 109.5,381.5C 110.29,380.391 110.79,379.058 111,377.5C 111.21,379.058 111.71,380.391 112.5,381.5 Z"/></g>
<g><path style="opacity:1" fill="#7b4741" d="M 127.5,457.5 C 127.5,460.167 127.5,462.833 127.5,465.5C 129.831,465.498 131.831,466.331 133.5,468C 132.906,468.464 132.239,468.631 131.5,468.5C 129.486,468.608 127.82,467.942 126.5,466.5C 122.924,441.376 118.59,416.376 113.5,391.5C 113.167,388.167 112.833,384.833 112.5,381.5C 113.222,381.082 113.722,380.416 114,379.5C 117.766,405.767 122.266,431.767 127.5,457.5 Z"/></g>
<g><path style="opacity:1" fill="#88584f" d="M 65.5,369.5 C 80.9976,370.783 96.4976,370.783 112,369.5C 122.459,370.852 132.959,371.518 143.5,371.5C 124.995,371.676 106.328,372.01 87.5,372.5C 80.5741,372.243 73.7408,371.576 67,370.5C 66.6667,396.167 66.3333,421.833 66,447.5C 65.6174,448.056 65.1174,448.389 64.5,448.5C 64.3104,422.157 64.6438,395.823 65.5,369.5 Z"/></g>
<g><path style="opacity:1" fill="#804c46" d="M 156.5,372.5 C 157.411,403.496 157.911,434.496 158,465.5C 153.335,467.2 148.501,468.2 143.5,468.5C 147.426,466.841 151.426,465.174 155.5,463.5C 155.5,459.167 155.5,454.833 155.5,450.5C 155.7,424.344 156.033,398.344 156.5,372.5 Z"/></g>
<g><path style="opacity:1" fill="#7f3931" d="M 97.5,448.5 C 97.9932,455.088 96.9932,461.421 94.5,467.5C 92.1987,468.325 89.8654,468.992 87.5,469.5C 84.8333,469.5 82.1667,469.5 79.5,469.5C 74.7613,468.815 70.0946,467.815 65.5,466.5C 64.5476,460.925 64.2143,455.259 64.5,449.5C 65.3255,453.982 65.8255,458.649 66,463.5C 66.3333,458.833 66.6667,454.167 67,449.5C 69.5034,449.513 72.0034,450.346 74.5,452C 81.6539,452.269 88.6539,452.435 95.5,452.5C 95.838,450.146 96.338,447.813 97,445.5C 97.4828,446.448 97.6495,447.448 97.5,448.5 Z"/></g>
<g><path style="opacity:1" fill="#833930" d="M 155.5,450.5 C 155.5,454.833 155.5,459.167 155.5,463.5C 151.426,465.174 147.426,466.841 143.5,468.5C 139.5,469.833 135.5,469.833 131.5,468.5C 132.239,468.631 132.906,468.464 133.5,468C 131.831,466.331 129.831,465.498 127.5,465.5C 127.5,462.833 127.5,460.167 127.5,457.5C 127.5,455.833 127.5,454.167 127.5,452.5C 136.902,452.662 146.235,451.996 155.5,450.5 Z"/></g>
<g><path style="opacity:1" fill="#f8ebe5" d="M 103.5,420.5 C 103.202,429.617 102.036,438.617 100,447.5C 99.1944,453.084 99.3611,458.584 100.5,464C 99.2186,466.427 98.2186,468.927 97.5,471.5C 95.549,471.773 94.049,471.107 93,469.5C 89.9602,471.396 87.7936,473.396 86.5,475.5C 87.1495,473.565 87.4828,471.565 87.5,469.5C 89.8654,468.992 92.1987,468.325 94.5,467.5C 96.9932,461.421 97.9932,455.088 97.5,448.5C 98.4345,447.432 98.7678,446.099 98.5,444.5C 99.9338,436.326 101.6,428.326 103.5,420.5 Z"/></g>
<g><path style="opacity:1" fill="#b38a83" d="M 64.5,449.5 C 64.2143,455.259 64.5476,460.925 65.5,466.5C 64.1858,464.085 63.5191,461.252 63.5,458C 63.5022,454.979 63.8356,452.146 64.5,449.5 Z"/></g>
<g><path style="opacity:1" fill="#e5c7b9" d="M 79.5,469.5 C 82.1667,469.5 84.8333,469.5 87.5,469.5C 87.4828,471.565 87.1495,473.565 86.5,475.5C 86.8333,476.167 87.1667,476.833 87.5,477.5C 85.9147,476.526 84.9147,475.026 84.5,473C 81.6492,471.711 78.6492,471.211 75.5,471.5C 76.8333,470.833 78.1667,470.167 79.5,469.5 Z"/></g>
<g><path style="opacity:1" fill="#f8ede7" d="M 156.5,369.5 C 157.5,369.5 158.5,369.5 159.5,369.5C 159.225,386.185 159.558,402.851 160.5,419.5C 159.893,435.83 159.226,452.163 158.5,468.5C 156.428,470.616 154.262,472.616 152,474.5C 151.162,473.001 150.329,472.668 149.5,473.5C 149.167,473.5 148.833,473.5 148.5,473.5C 148.389,472.883 148.056,472.383 147.5,472C 144.167,471.333 140.833,471.333 137.5,472C 136.385,474.131 135.052,475.965 133.5,477.5C 132.91,475.903 131.91,474.569 130.5,473.5C 130.709,472.914 131.043,472.414 131.5,472C 128.348,471.536 126.682,469.703 126.5,466.5C 127.82,467.942 129.486,468.608 131.5,468.5C 135.5,469.833 139.5,469.833 143.5,468.5C 148.501,468.2 153.335,467.2 158,465.5C 157.911,434.496 157.411,403.496 156.5,372.5C 156.5,371.833 156.5,371.167 156.5,370.5C 156.5,370.167 156.5,369.833 156.5,369.5 Z"/></g>
<g><path style="opacity:1" fill="#d1d0ce" d="M 71.5,480.5 C 73.7415,481.621 76.0748,482.787 78.5,484C 79.3366,485.011 79.67,486.178 79.5,487.5C 74.8333,486.833 70.1667,486.167 65.5,485.5C 65.752,482.588 67.752,480.921 71.5,480.5 Z"/></g>
<g><path style="opacity:1" fill="#d1d1d0" d="M 148.5,473.5 C 148.833,473.5 149.167,473.5 149.5,473.5C 148.855,476.547 149.855,478.713 152.5,480C 152.043,480.414 151.709,480.914 151.5,481.5C 152.729,482.281 154.062,482.781 155.5,483C 154.402,483.77 154.402,484.603 155.5,485.5C 150.799,485.957 146.132,486.624 141.5,487.5C 142.278,483.249 144.944,481.083 149.5,481C 148.565,478.619 148.232,476.119 148.5,473.5 Z"/></g>
<g><path style="opacity:1" fill="#242321" d="M 75.5,471.5 C 78.6492,471.211 81.6492,471.711 84.5,473C 84.9147,475.026 85.9147,476.526 87.5,477.5C 89.0739,479.102 89.7406,481.102 89.5,483.5C 89.7886,486.649 89.2886,489.649 88,492.5C 79.8511,502.66 69.3511,506.827 56.5,505C 53.0586,503.682 51.7253,501.182 52.5,497.5C 54.7851,494.548 57.4517,491.882 60.5,489.5C 64.7286,491.143 69.0619,491.977 73.5,492C 74.4581,490.853 74.1247,489.853 72.5,489C 70.0748,487.787 67.7415,486.621 65.5,485.5C 70.1667,486.167 74.8333,486.833 79.5,487.5C 79.67,486.178 79.3366,485.011 78.5,484C 76.0748,482.787 73.7415,481.621 71.5,480.5C 72.3171,478.031 72.8171,475.365 73,472.5C 73.6708,471.748 74.5041,471.414 75.5,471.5 Z"/></g>
<g><path style="opacity:1" fill="#d1d1d1" d="M 89.5,483.5 C 90.7985,487.408 90.6318,491.408 89,495.5C 80.3629,506.451 69.1962,510.617 55.5,508C 54.0158,506.426 52.3492,505.093 50.5,504C 51.1172,501.723 51.7839,499.556 52.5,497.5C 51.7253,501.182 53.0586,503.682 56.5,505C 69.3511,506.827 79.8511,502.66 88,492.5C 89.2886,489.649 89.7886,486.649 89.5,483.5 Z"/></g>
<g><path style="opacity:1" fill="#242322" d="M 148.5,473.5 C 148.232,476.119 148.565,478.619 149.5,481C 144.944,481.083 142.278,483.249 141.5,487.5C 146.132,486.624 150.799,485.957 155.5,485.5C 152.815,486.628 150.148,487.962 147.5,489.5C 146.614,490.325 146.281,491.325 146.5,492.5C 151.741,491.031 157.074,490.531 162.5,491C 165.118,493.106 167.118,495.606 168.5,498.5C 168.918,502.251 167.251,504.418 163.5,505C 154.503,506.751 146.503,504.751 139.5,499C 137.333,496.833 135.167,494.667 133,492.5C 131.684,489.312 131.184,485.978 131.5,482.5C 131.392,480.486 132.058,478.82 133.5,477.5C 135.052,475.965 136.385,474.131 137.5,472C 140.833,471.333 144.167,471.333 147.5,472C 148.056,472.383 148.389,472.883 148.5,473.5 Z"/></g>
<g><path style="opacity:1" fill="#d1d1d1" d="M 131.5,482.5 C 131.184,485.978 131.684,489.312 133,492.5C 135.167,494.667 137.333,496.833 139.5,499C 146.503,504.751 154.503,506.751 163.5,505C 167.251,504.418 168.918,502.251 168.5,498.5C 170.715,503.113 169.382,506.28 164.5,508C 157.696,510.244 151.029,509.91 144.5,507C 138.861,503.015 133.861,498.348 129.5,493C 130.668,491.594 130.335,490.428 128.5,489.5C 128.846,488.304 129.346,488.304 130,489.5C 130.186,486.964 130.686,484.631 131.5,482.5 Z"/></g>
</svg>
