<?xml version="1.0" standalone="no"?>
<!DOCTYPE svg PUBLIC "-//W3C//DTD SVG 20010904//EN"
 "http://www.w3.org/TR/2001/REC-SVG-20010904/DTD/svg10.dtd">
<svg version="1.0" xmlns="http://www.w3.org/2000/svg"
 width="2197.000000pt" height="1693.000000pt" viewBox="0 0 2197.000000 1693.000000"
 preserveAspectRatio="xMidYMid meet">

<g transform="translate(0.000000,1693.000000) scale(0.100000,-0.100000)"
fill="#000000" stroke="none">
<path d="M1160 8465 l0 -7345 9825 0 9825 0 0 7345 0 7345 -9825 0 -9825 0 0
-7345z m19428 3 l-3 -7123 -9602 -3 -9603 -2 0 7125 0 7125 9605 0 9605 0 -2
-7122z"/>
<path d="M2330 13635 l0 -1025 1025 0 1025 0 0 1025 0 1025 -1025 0 -1025 0 0
-1025z m1940 0 l0 -915 -915 0 -915 0 0 915 0 915 915 0 915 0 0 -915z"/>
<path d="M4870 13635 l0 -1025 1025 0 1025 0 0 1025 0 1025 -1025 0 -1025 0 0
-1025z m1940 0 l0 -915 -915 0 -915 0 0 915 0 915 915 0 915 0 0 -915z"/>
<path d="M7420 13635 l0 -1025 1025 0 1025 0 0 1025 0 1025 -1025 0 -1025 0 0
-1025z m1940 0 l0 -915 -915 0 -915 0 0 915 0 915 915 0 915 0 0 -915z"/>
<path d="M9960 13635 l0 -1025 1025 0 1025 0 0 1025 0 1025 -1025 0 -1025 0 0
-1025z m1940 0 l0 -915 -915 0 -915 0 0 915 0 915 915 0 915 0 0 -915z"/>
<path d="M12510 13635 l0 -1025 1025 0 1025 0 0 1025 0 1025 -1025 0 -1025 0
0 -1025z m1940 0 l0 -915 -915 0 -915 0 0 915 0 915 915 0 915 0 0 -915z"/>
<path d="M15050 13635 l0 -1025 1025 0 1025 0 0 1025 0 1025 -1025 0 -1025 0
0 -1025z m1940 0 l0 -915 -915 0 -915 0 0 915 0 915 915 0 915 0 0 -915z"/>
<path d="M17600 13635 l0 -1025 1025 0 1025 0 0 1025 0 1025 -1025 0 -1025 0
0 -1025z m1940 0 l0 -915 -915 0 -915 0 0 915 0 915 915 0 915 0 0 -915z"/>
<path d="M3353 12248 c-45 -74 -213 -395 -213 -406 0 -32 29 -4 65 63 l40 75
123 0 123 0 34 -75 c21 -46 40 -75 50 -75 8 0 15 3 15 7 0 10 -200 427 -209
436 -5 5 -17 -6 -28 -25z m114 -234 c-2 -3 -49 -3 -105 -2 l-100 3 56 105 56
104 49 -103 c26 -57 46 -105 44 -107z"/>
<path d="M5752 12263 c-11 -21 -13 -405 -2 -423 5 -8 45 -11 143 -8 l137 3 32
33 c28 27 33 39 32 77 -1 31 -9 54 -26 77 l-26 34 24 27 c32 37 40 87 20 126
-30 56 -56 66 -197 69 -116 4 -128 2 -137 -15z m267 -28 c56 -29 63 -106 14
-145 -22 -17 -41 -20 -139 -20 l-114 0 0 90 0 90 105 0 c73 0 115 -5 134 -15z
m8 -210 c29 -20 46 -75 34 -108 -19 -48 -45 -57 -173 -57 l-118 0 0 83 c0 46
3 87 7 90 3 4 56 7 117 7 83 0 117 -4 133 -15z"/>
<path d="M8438 12265 c-97 -24 -150 -89 -156 -190 -5 -76 10 -125 51 -172 75
-85 192 -95 276 -25 21 17 31 33 27 40 -5 9 -16 5 -37 -12 -118 -99 -288 -16
-289 141 0 63 13 99 48 136 63 67 147 77 226 26 49 -31 69 -31 50 -1 -30 48
-125 75 -196 57z"/>
<path d="M10849 12267 c-13 -13 -16 -48 -15 -224 l1 -208 100 0 c110 1 154 16
207 72 83 87 75 234 -16 310 -45 37 -90 51 -188 59 -59 5 -77 4 -89 -9z m152
-27 c140 -27 207 -151 147 -270 -38 -74 -110 -110 -220 -110 l-58 0 0 195 0
195 39 0 c21 0 62 -5 92 -10z"/>
<path d="M13413 12268 c-8 -11 -12 -369 -5 -426 2 -10 38 -12 160 -10 202 4
212 22 15 26 l-143 3 0 89 0 90 100 0 c82 0 100 3 100 15 0 12 -18 15 -100 15
l-100 0 0 88 0 88 131 0 c133 -1 157 3 145 23 -10 16 -290 15 -303 -1z"/>
<path d="M15962 12268 c-15 -15 -17 -405 -2 -428 17 -27 25 1 27 93 1 51 2 95
2 100 1 4 46 7 101 7 81 0 100 3 100 15 0 11 -20 15 -102 17 l-103 3 0 85 0
85 148 3 c112 2 147 6 144 15 -5 17 -298 22 -315 5z"/>
<path d="M18535 12251 c-44 -20 -101 -78 -116 -120 -6 -14 -10 -50 -10 -80 0
-136 125 -239 261 -216 91 15 179 111 183 197 l2 33 -114 0 c-81 0 -116 -4
-118 -12 -3 -9 23 -13 99 -15 97 -3 103 -4 100 -23 -7 -42 -40 -91 -81 -120
-37 -26 -51 -30 -109 -30 -56 1 -74 5 -108 28 -142 96 -103 310 63 345 62 14
114 2 169 -37 45 -31 70 -25 39 9 -52 58 -180 78 -260 41z"/>
<path d="M2330 10555 l0 -1025 1025 0 1025 0 0 1025 0 1025 -1025 0 -1025 0 0
-1025z m1938 -2 l2 -913 -915 0 -915 0 0 915 0 915 913 -2 912 -3 3 -912z"/>
<path d="M4870 10555 l0 -1025 1025 0 1025 0 0 1025 0 1025 -1025 0 -1025 0 0
-1025z m1940 0 l0 -915 -915 0 -915 0 0 915 0 915 915 0 915 0 0 -915z"/>
<path d="M7420 10555 l0 -1025 1025 0 1025 0 0 1025 0 1025 -1025 0 -1025 0 0
-1025z m1940 0 l0 -915 -915 0 -915 0 0 915 0 915 915 0 915 0 0 -915z"/>
<path d="M9960 10555 l0 -1025 1025 0 1025 0 0 1025 0 1025 -1025 0 -1025 0 0
-1025z m1940 0 l0 -915 -915 0 -915 0 0 915 0 915 915 0 915 0 0 -915z"/>
<path d="M12510 10555 l0 -1025 1025 0 1025 0 0 1025 0 1025 -1025 0 -1025 0
0 -1025z m1940 0 l0 -915 -915 0 -915 0 0 915 0 915 915 0 915 0 0 -915z"/>
<path d="M15050 10555 l0 -1025 1025 0 1025 0 0 1025 0 1025 -1025 0 -1025 0
0 -1025z m1940 0 l0 -915 -915 0 -915 0 0 915 0 915 915 0 915 0 0 -915z"/>
<path d="M17600 10555 l0 -1025 1025 0 1025 0 0 1025 0 1025 -1025 0 -1025 0
0 -1025z m1940 0 l0 -915 -915 0 -915 0 0 915 0 915 915 0 915 0 0 -915z"/>
<path d="M5853 9214 c-22 -9 -14 -24 12 -24 l25 0 0 -194 c0 -188 -1 -195 -20
-198 -43 -6 -18 -23 35 -23 53 0 78 17 35 23 -19 3 -20 10 -20 198 0 190 0
194 21 194 12 0 19 5 17 13 -5 12 -82 20 -105 11z"/>
<path d="M15866 9213 c-3 -3 -6 -105 -6 -225 0 -186 2 -218 15 -218 12 0 15
29 17 176 l3 176 90 -176 c50 -97 95 -174 100 -173 6 2 51 80 100 175 l90 171
3 -174 c2 -147 5 -175 17 -175 13 0 15 30 13 220 -2 137 -7 221 -13 222 -5 1
-53 -82 -105 -184 -52 -103 -98 -190 -102 -193 -4 -4 -50 78 -102 183 -93 186
-107 208 -120 195z"/>
<path d="M18795 9208 c-3 -7 -6 -93 -7 -191 l-3 -179 -144 186 c-79 102 -149
186 -157 186 -12 0 -14 -39 -14 -220 0 -187 2 -220 15 -220 12 0 15 30 17 191
l3 192 145 -191 c80 -105 151 -191 158 -192 15 0 18 435 2 445 -6 3 -12 0 -15
-7z"/>
<path d="M3170 8989 c0 -172 3 -220 13 -217 8 3 13 36 15 106 l3 102 149 0
150 0 0 -106 c0 -80 3 -105 13 -102 9 4 13 59 15 221 2 189 0 217 -13 217 -12
0 -15 -17 -15 -100 l0 -100 -150 0 -150 0 0 100 c0 82 -3 100 -15 100 -13 0
-15 -31 -15 -221z"/>
<path d="M8387 9203 c-18 -17 -2 -23 62 -23 46 0 70 -4 73 -12 2 -7 3 -70 2
-139 -2 -94 -6 -135 -18 -158 -45 -87 -177 -93 -224 -10 -10 16 -23 29 -29 29
-42 0 28 -92 84 -111 77 -25 160 11 194 85 15 34 19 66 19 179 l0 137 70 0
c56 0 70 3 70 15 0 13 -23 15 -148 15 -82 0 -152 -3 -155 -7z"/>
<path d="M10870 8989 c0 -172 3 -220 13 -217 8 3 14 36 17 96 l5 92 135 -95
c74 -52 138 -95 143 -95 30 0 -12 39 -128 120 -74 52 -134 99 -132 104 2 5 61
50 132 100 120 85 153 116 125 116 -7 0 -73 -43 -146 -95 l-134 -94 0 94 c0
78 -3 95 -15 95 -13 0 -15 -31 -15 -221z"/>
<path d="M13410 8990 l0 -220 160 0 c136 0 160 2 160 15 0 13 -23 15 -145 15
l-145 0 0 205 c0 176 -2 205 -15 205 -13 0 -15 -31 -15 -220z"/>
<path d="M2330 7475 l0 -1025 1025 0 1025 0 0 1025 0 1025 -1025 0 -1025 0 0
-1025z m1938 -2 l2 -913 -915 0 -915 0 0 915 0 915 913 -2 912 -3 3 -912z"/>
<path d="M4870 7475 l0 -1025 1025 0 1025 0 0 1025 0 1025 -1025 0 -1025 0 0
-1025z m1940 0 l0 -915 -915 0 -915 0 0 915 0 915 915 0 915 0 0 -915z"/>
<path d="M7420 7475 l0 -1025 1025 0 1025 0 0 1025 0 1025 -1025 0 -1025 0 0
-1025z m1940 0 l0 -915 -915 0 -915 0 0 915 0 915 915 0 915 0 0 -915z"/>
<path d="M9960 7475 l0 -1025 1025 0 1025 0 0 1025 0 1025 -1025 0 -1025 0 0
-1025z m1940 0 l0 -915 -915 0 -915 0 0 915 0 915 915 0 915 0 0 -915z"/>
<path d="M12510 7475 l0 -1025 1025 0 1025 0 0 1025 0 1025 -1025 0 -1025 0 0
-1025z m1940 0 l0 -915 -915 0 -915 0 0 915 0 915 915 0 915 0 0 -915z"/>
<path d="M15050 7475 l0 -1025 1025 0 1025 0 0 1025 0 1025 -1025 0 -1025 0 0
-1025z m1940 0 l0 -915 -915 0 -915 0 0 915 0 915 915 0 915 0 0 -915z"/>
<path d="M17600 7475 l0 -1025 1025 0 1025 0 0 1025 0 1025 -1025 0 -1025 0 0
-1025z m1940 0 l0 -915 -915 0 -915 0 0 915 0 915 915 0 915 0 0 -915z"/>
<path d="M3327 6238 c-27 -10 -33 -38 -6 -28 8 2 36 3 62 2 55 -2 95 14 78 31
-7 7 -15 6 -25 -2 -12 -10 -23 -11 -47 -2 -18 6 -32 11 -33 10 -1 0 -14 -5
-29 -11z"/>
<path d="M3515 6128 c-3 -7 -6 -93 -7 -191 l-3 -179 -144 186 c-79 102 -149
186 -157 186 -12 0 -14 -39 -14 -220 0 -187 2 -220 15 -220 12 0 15 30 17 191
l3 192 145 -191 c80 -105 151 -191 158 -192 15 0 18 435 2 445 -6 3 -12 0 -15
-7z"/>
<path d="M8338 6134 c-5 -4 -8 -106 -8 -226 0 -171 3 -219 13 -216 8 3 13 36
15 106 l3 102 117 0 c98 0 122 3 149 20 66 40 66 145 0 194 -25 18 -45 21
-155 24 -70 2 -130 0 -134 -4z m282 -50 c11 -11 23 -37 27 -57 5 -31 1 -40
-25 -67 -30 -30 -31 -30 -146 -30 l-116 0 0 91 0 91 120 -3 c104 -4 122 -7
140 -25z"/>
<path d="M10960 6130 c-50 -9 -92 -34 -129 -76 -41 -46 -52 -77 -52 -139 0
-93 44 -163 125 -201 60 -28 105 -30 170 -8 43 15 48 15 65 0 35 -32 57 -10
25 25 -15 16 -14 20 9 51 55 74 59 163 11 245 -44 75 -137 118 -224 103z m137
-56 c78 -45 112 -142 79 -228 -9 -24 -26 -52 -36 -61 -19 -18 -21 -17 -43 3
-13 12 -26 22 -30 22 -13 0 -7 -27 8 -40 23 -19 18 -27 -21 -40 -83 -28 -185
14 -226 93 -26 50 -28 128 -5 173 21 41 80 92 115 100 15 3 32 7 37 9 21 7 82
-8 122 -31z"/>
<path d="M13398 6134 c-5 -4 -8 -106 -8 -226 0 -171 3 -219 13 -216 8 3 13 35
15 101 1 53 5 97 8 97 2 0 64 -45 138 -100 73 -55 138 -100 144 -100 29 0 3
26 -115 115 l-126 95 92 0 c104 0 142 14 166 60 30 59 10 134 -44 161 -29 14
-271 26 -283 13z m288 -57 c26 -31 30 -62 13 -100 -17 -38 -50 -47 -169 -47
l-110 0 0 91 0 91 121 -3 c118 -4 121 -5 145 -32z"/>
<path d="M16014 6121 c-54 -25 -72 -66 -52 -119 15 -40 41 -57 140 -93 83 -29
108 -52 108 -99 0 -98 -138 -120 -251 -39 -32 22 -45 20 -35 -6 7 -20 99 -63
153 -71 87 -13 163 41 163 116 0 59 -35 93 -131 127 -45 15 -92 38 -105 50
-29 27 -31 66 -5 92 39 39 141 39 176 1 18 -20 45 -27 45 -12 0 16 -47 53 -81
62 -49 14 -78 12 -125 -9z"/>
<path d="M18453 6133 c-33 -13 -6 -22 70 -25 l82 -3 3 -208 c2 -160 5 -208 15
-204 9 3 13 58 15 210 l2 207 85 0 c79 0 107 10 69 24 -19 7 -323 7 -341 -1z"/>
<path d="M5820 6114 c-50 -22 -79 -52 -106 -109 -93 -196 123 -391 311 -281
115 68 140 232 52 333 -18 20 -50 44 -72 54 -49 23 -137 24 -185 3z m146 -19
c54 -16 106 -62 123 -108 32 -83 1 -184 -71 -233 -156 -109 -359 67 -279 242
28 62 82 97 172 113 3 1 28 -6 55 -14z"/>
<path d="M2330 4395 l0 -1025 1025 0 1025 0 0 1025 0 1025 -1025 0 -1025 0 0
-1025z m1940 0 l0 -915 -915 0 -915 0 0 915 0 915 915 0 915 0 0 -915z"/>
<path d="M4870 4395 l0 -1025 1025 0 1025 0 0 1025 0 1025 -1025 0 -1025 0 0
-1025z m1940 0 l0 -915 -915 0 -915 0 0 915 0 915 915 0 915 0 0 -915z"/>
<path d="M7420 4395 l0 -1025 1025 0 1025 0 0 1025 0 1025 -1025 0 -1025 0 0
-1025z m1940 0 l0 -915 -915 0 -915 0 0 915 0 915 915 0 915 0 0 -915z"/>
<path d="M9960 4395 l0 -1025 1025 0 1025 0 0 1025 0 1025 -1025 0 -1025 0 0
-1025z m1940 0 l0 -915 -915 0 -915 0 0 915 0 915 915 0 915 0 0 -915z"/>
<path d="M12510 4395 l0 -1025 1025 0 1025 0 0 1025 0 1025 -1025 0 -1025 0 0
-1025z m1940 0 l0 -915 -915 0 -915 0 0 915 0 915 915 0 915 0 0 -915z"/>
<path d="M15050 4395 l0 -1025 1025 0 1025 0 0 1025 0 1025 -1025 0 -1025 0 0
-1025z m1940 0 l0 -915 -915 0 -915 0 0 915 0 915 915 0 915 0 0 -915z"/>
<path d="M17922 4918 l3 -203 200 0 200 0 0 200 0 200 -203 3 -202 2 2 -202z
m338 2 l0 -140 -140 0 -140 0 0 140 0 140 140 0 140 0 0 -140z"/>
<path d="M18047 5000 c-8 -3 -12 -31 -11 -85 l0 -80 87 -3 87 -3 0 86 c0 61
-4 85 -12 86 -54 4 -141 3 -151 -1z"/>
<path d="M18380 5090 l0 -30 60 0 60 0 0 30 0 30 -60 0 -60 0 0 -30z"/>
<path d="M18550 5090 c0 -27 3 -30 30 -30 l30 0 0 -60 c0 -57 1 -60 24 -60 18
0 25 -6 28 -22 3 -20 10 -23 61 -26 56 -3 57 -4 57 -33 l0 -30 -82 3 c-82 3
-83 3 -86 31 -3 23 -8 27 -33 27 -29 0 -29 -1 -29 -55 0 -52 -1 -55 -25 -55
-25 0 -25 1 -25 79 0 79 0 80 28 83 20 2 28 9 30 27 4 28 -10 40 -44 33 -17
-3 -24 -11 -24 -28 0 -19 -5 -24 -24 -24 -19 0 -25 6 -28 27 -2 22 -8 28 -28
28 -25 -1 -25 -2 -28 -87 l-3 -87 28 -3 c20 -2 29 -9 31 -25 3 -17 -2 -22 -25
-25 -24 -3 -28 -8 -28 -33 0 -25 4 -30 28 -33 39 -5 35 -46 -5 -50 -21 -3 -27
-9 -30 -30 -4 -40 -45 -44 -50 -5 -3 24 -8 28 -33 28 -25 0 -30 -4 -33 -28 -3
-27 -5 -28 -55 -25 -48 3 -52 5 -55 31 l-3 27 -115 0 -114 0 0 -60 0 -60 60 0
c43 0 60 -4 59 -12 -6 -47 -3 -49 84 -46 81 3 82 3 85 31 3 21 9 27 27 27 18
0 24 -6 27 -27 3 -27 6 -28 61 -31 53 -3 57 -5 57 -27 0 -24 -3 -25 -55 -25
-41 0 -57 -4 -60 -15 -3 -8 -7 -21 -9 -29 -8 -24 -46 -7 -46 20 0 20 -5 24
-30 24 -27 0 -30 -3 -30 -30 0 -27 3 -30 30 -30 25 0 30 -4 30 -25 0 -21 -5
-25 -30 -25 l-30 0 0 -60 0 -60 54 0 c52 0 55 -1 58 -27 3 -27 6 -28 61 -31
56 -3 57 -3 57 -33 0 -27 3 -30 28 -27 23 3 27 8 27 33 0 25 -4 30 -27 33 -22
3 -28 9 -28 28 0 22 -3 24 -55 24 -51 0 -55 2 -55 24 0 18 7 25 30 30 24 4 30
11 30 31 0 20 5 25 24 25 19 0 25 -6 28 -27 2 -22 9 -29 31 -31 21 -3 27 -9
27 -28 0 -20 5 -24 30 -24 25 0 30 4 30 25 0 17 5 25 18 25 29 0 42 21 42 66
0 46 -9 58 -50 63 -5 0 -10 12 -10 26 0 21 -5 25 -30 25 -27 0 -30 3 -30 30 0
27 -3 30 -30 30 -25 0 -30 4 -30 25 0 22 4 24 58 27 54 3 57 5 60 30 3 23 -1
27 -25 30 -22 2 -29 9 -31 31 -3 24 0 27 27 27 26 0 31 4 31 25 0 20 5 25 25
25 20 0 25 -5 25 -25 0 -24 3 -25 53 -25 62 0 66 -2 59 -35 -3 -18 -11 -25
-28 -25 -23 0 -24 -2 -24 -85 l0 -85 85 0 85 0 0 -30 c0 -27 3 -30 30 -30 25
0 30 -4 30 -25 0 -25 -1 -25 -84 -25 l-85 0 -3 28 c-2 21 -8 27 -28 27 -24 0
-25 -3 -25 -60 l0 -60 53 -3 c47 -3 52 -5 52 -27 0 -18 -6 -24 -27 -27 -20 -2
-29 -9 -31 -25 -5 -35 -52 -32 -52 2 0 21 -5 25 -30 25 -25 0 -30 -4 -30 -24
0 -19 -6 -25 -27 -28 -24 -3 -28 -8 -28 -33 l0 -30 113 -3 c111 -3 112 -3 112
-27 0 -18 6 -24 28 -27 25 -3 27 -7 30 -55 3 -50 2 -52 -25 -55 -24 -3 -28 -8
-28 -33 0 -25 4 -30 28 -33 21 -3 27 -9 27 -28 0 -22 -3 -24 -55 -24 -54 0
-55 0 -55 30 0 30 -1 30 -55 30 l-55 0 0 56 c0 52 1 55 23 52 16 -2 23 -11 25
-30 3 -24 8 -28 33 -28 29 0 29 0 29 60 l0 60 -115 0 -115 0 0 -30 c0 -25 4
-30 25 -30 25 0 25 -1 25 -85 0 -84 0 -85 -25 -85 -22 0 -24 4 -27 58 -3 53
-5 57 -28 57 l-25 0 -3 -117 -3 -118 31 0 c27 0 30 3 30 30 0 27 3 30 30 30
27 0 30 3 30 31 l0 30 53 -3 52 -3 3 -57 c3 -57 4 -58 32 -58 27 0 30 3 30 30
0 25 4 30 24 30 19 0 25 -6 28 -27 l3 -28 85 0 85 0 3 28 c3 21 9 27 27 27 18
0 24 -6 27 -27 3 -26 6 -28 60 -31 l57 -3 3 58 c3 51 6 58 25 61 17 3 22 -2
25 -25 3 -27 6 -28 61 -31 56 -3 57 -3 57 -33 l0 -30 58 3 57 3 3 58 3 57 -31
0 c-25 0 -30 4 -30 24 0 19 6 25 28 28 l27 3 0 115 0 115 -57 3 c-54 3 -58 5
-58 27 0 21 5 25 30 25 27 0 30 3 30 30 0 27 3 30 30 30 l31 0 -3 58 c-3 54
-4 57 -30 60 -22 3 -28 9 -28 28 0 20 5 24 30 24 27 0 30 3 30 30 0 28 -1 29
-57 32 -51 3 -58 6 -61 25 -3 17 2 22 25 25 22 2 29 9 31 30 3 21 9 27 30 30
25 3 27 6 30 61 l3 57 -30 0 c-25 0 -30 -4 -33 -27 -2 -22 -8 -28 -28 -28 -20
0 -26 6 -28 28 l-3 27 -85 0 -85 0 3 -87 c3 -86 3 -88 28 -88 23 0 25 4 28 58
l3 57 54 0 55 0 0 -55 c0 -54 0 -55 -30 -55 -27 0 -30 -3 -30 -30 l0 -30 -85
0 -85 0 0 -85 c0 -83 0 -85 -24 -85 -19 0 -25 6 -28 28 -2 21 -9 28 -30 30
-27 3 -28 6 -28 58 l0 54 -55 0 c-52 0 -55 2 -55 24 0 18 6 25 23 28 15 2 23
11 25 30 3 21 9 27 30 30 21 2 28 9 30 31 3 21 9 27 27 27 18 0 24 -6 27 -27
2 -22 9 -29 31 -31 24 -3 27 0 27 27 0 26 -4 31 -25 31 -21 0 -25 5 -25 30 0
27 -3 30 -30 30 l-30 0 0 84 0 85 -27 3 c-22 2 -28 8 -28 28 0 20 6 26 28 28
l27 3 0 85 0 84 -30 0 c-27 0 -30 3 -30 30 l0 30 -60 0 -60 0 0 -30 0 -30 60
0 60 0 0 -85 c0 -83 0 -85 -24 -85 -19 0 -25 6 -28 28 -3 26 -6 27 -60 30
l-58 3 0 84 0 85 -60 0 -60 0 0 -30z m288 -342 c-3 -82 -3 -83 -30 -86 -24 -3
-28 -8 -28 -33 0 -26 3 -29 30 -29 25 0 30 -4 30 -24 0 -19 -6 -25 -27 -28
-22 -2 -29 -9 -31 -30 -3 -27 -6 -28 -58 -28 l-54 0 0 54 c0 52 1 55 28 58 21
2 28 9 30 31 3 24 0 27 -27 27 -31 0 -31 0 -31 55 0 52 2 55 24 55 19 0 25 -6
28 -27 2 -21 9 -29 27 -31 31 -5 41 12 41 71 0 44 2 47 25 47 26 0 26 0 23
-82z m-348 -3 c0 -20 -5 -25 -25 -25 -20 0 -25 5 -25 25 0 20 5 25 25 25 20 0
25 -5 25 -25z m120 0 c0 -20 -5 -25 -25 -25 -20 0 -25 5 -25 25 0 20 5 25 25
25 20 0 25 -5 25 -25z m-460 -170 c0 -20 -5 -25 -25 -25 -20 0 -25 5 -25 25 0
20 5 25 25 25 20 0 25 -5 25 -25z m170 0 c0 -20 -5 -25 -25 -25 -20 0 -25 5
-25 25 0 20 5 25 25 25 20 0 25 -5 25 -25z m0 -230 c0 -20 -5 -25 -25 -25 -20
0 -25 5 -25 25 0 20 5 25 25 25 20 0 25 -5 25 -25z m118 -2 c3 -20 -1 -23 -27
-23 -27 0 -31 4 -31 26 0 22 4 25 28 22 19 -2 28 -9 30 -25z m802 2 c0 -20 -5
-25 -25 -25 -20 0 -25 5 -25 25 0 20 5 25 25 25 20 0 25 -5 25 -25z m-750 -60
c0 -20 -5 -25 -25 -25 -20 0 -25 5 -25 25 0 20 5 25 25 25 20 0 25 -5 25 -25z
m690 1 c0 -19 -6 -25 -27 -28 -22 -2 -29 -9 -31 -31 -3 -23 -8 -28 -25 -25
-19 3 -22 10 -25 56 l-3 52 55 0 c53 0 56 -1 56 -24z m-230 -61 c0 -20 -5 -25
-25 -25 -20 0 -25 5 -25 25 0 20 5 25 25 25 20 0 25 -5 25 -25z m290 0 c0 -20
-5 -25 -25 -25 -20 0 -25 5 -25 25 0 20 5 25 25 25 20 0 25 -5 25 -25z m-402
-82 l3 -53 -55 0 c-53 0 -56 1 -56 24 0 19 6 25 28 28 21 2 28 9 30 31 3 23 8
28 25 25 19 -3 22 -10 25 -55z m230 -85 l-3 -83 -82 -3 -83 -3 0 86 0 85 85 0
86 0 -3 -82z m172 -32 c0 -52 1 -55 28 -58 19 -2 28 -9 30 -25 3 -20 -1 -23
-27 -23 -26 0 -31 4 -31 25 0 20 -5 25 -25 25 -24 0 -25 3 -25 55 0 52 1 55
25 55 24 0 25 -3 25 -54z m-60 -86 c0 -27 3 -30 30 -30 30 0 30 -1 30 -55 l0
-55 -55 0 -55 0 0 85 c0 84 0 85 25 85 21 0 25 -5 25 -30z m-110 -55 c0 -24
-2 -24 -87 -27 l-88 -3 -3 -58 c-3 -54 -5 -58 -25 -55 -20 3 -22 9 -25 86 l-3
82 116 0 115 0 0 -25z m-65 -115 c0 -18 -6 -26 -22 -28 -20 -3 -23 1 -23 28 0
27 3 31 23 28 16 -2 22 -10 22 -28z"/>
<path d="M18957 4083 c-4 -3 -7 -17 -7 -30 0 -19 5 -23 30 -23 27 0 30 3 30
30 0 25 -4 30 -23 30 -13 0 -27 -3 -30 -7z"/>
<path d="M18952 4918 l3 -203 200 0 200 0 3 203 2 202 -205 0 -205 0 2 -202z
m346 0 l3 -138 -146 0 -145 0 0 133 c0 74 3 137 7 141 4 3 68 5 142 4 l136 -3
3 -137z"/>
<path d="M19074 5001 c-2 -2 -4 -42 -4 -88 l0 -83 85 0 86 0 -3 87 -3 87 -78
0 c-43 1 -81 -1 -83 -3z"/>
<path d="M17980 4345 l0 -85 -30 0 c-27 0 -30 -3 -30 -30 0 -27 3 -30 30 -30
25 0 30 4 30 25 0 23 4 25 44 25 75 0 76 2 76 96 l0 84 -60 0 -60 0 0 -85z"/>
<path d="M18039 4190 c-5 -42 -3 -45 26 -45 25 0 30 4 33 28 3 24 0 27 -27 27
-17 0 -32 -4 -32 -10z"/>
<path d="M17920 3885 l0 -205 203 2 202 3 0 200 0 200 -202 3 -203 2 0 -205z
m340 0 l0 -146 -137 3 -138 3 -3 129 c-1 72 0 136 2 143 4 10 39 13 141 13
l135 0 0 -145z"/>
<path d="M18039 3968 c-3 -10 -4 -146 -1 -155 3 -9 30 -13 88 -13 l84 0 0 85
0 85 -85 0 c-47 0 -85 -1 -86 -2z"/>
<path d="M5784 3027 c-7 -20 129 -433 142 -431 13 2 155 416 148 433 -8 25
-20 1 -74 -159 -30 -85 -58 -166 -63 -180 -8 -22 -18 0 -72 159 -35 101 -66
186 -69 189 -3 3 -8 -2 -12 -11z"/>
<path d="M8166 3032 c-8 -13 138 -437 150 -437 5 0 36 78 68 173 33 94 63 172
66 172 4 0 34 -77 66 -171 32 -94 64 -171 69 -171 12 0 157 421 149 433 -11
19 -23 -6 -84 -183 -74 -212 -58 -215 -140 30 -29 83 -55 152 -60 152 -5 0
-36 -84 -71 -187 l-62 -188 -61 182 c-59 177 -77 216 -90 195z"/>
<path d="M10825 3030 c-7 -11 2 -25 98 -144 l55 -69 -84 -105 c-58 -72 -82
-108 -75 -115 6 -6 12 -9 14 -6 9 12 142 176 153 187 9 11 27 -5 94 -87 46
-56 87 -101 91 -101 21 0 5 28 -64 114 -40 50 -77 97 -81 104 -5 8 19 48 68
112 42 54 76 103 76 109 0 27 -24 4 -95 -89 l-77 -100 -80 100 c-44 55 -81
100 -83 100 -2 0 -7 -5 -10 -10z"/>
<path d="M13640 2935 c-45 -58 -83 -105 -85 -105 -1 0 -38 45 -80 100 -68 87
-105 119 -105 93 0 -5 38 -56 85 -115 l84 -107 3 -102 c2 -71 7 -104 16 -107
9 -3 12 22 12 101 l0 104 85 108 c78 99 99 135 76 135 -4 0 -45 -47 -91 -105z"/>
<path d="M15973 3034 c-39 -16 2 -24 122 -24 74 0 135 -3 135 -6 0 -3 -61 -93
-136 -201 -82 -118 -132 -199 -127 -204 5 -5 77 -8 159 -7 188 4 198 22 14 26
-71 1 -130 5 -130 8 0 3 57 87 127 187 69 100 127 191 127 202 1 19 -6 20
-139 22 -77 1 -146 -1 -152 -3z"/>
<path d="M3200 2878 c0 -128 4 -160 19 -194 27 -60 73 -89 141 -89 68 0 114
29 141 89 25 56 29 346 4 346 -13 0 -15 -23 -15 -151 0 -170 -10 -207 -64
-240 -64 -39 -147 -14 -179 54 -14 28 -17 66 -17 186 0 128 -2 151 -15 151
-13 0 -15 -24 -15 -152z"/>
<path d="M1800 1760 l0 -100 9185 0 9185 0 0 100 0 100 -9185 0 -9185 0 0
-100z"/>
</g>
</svg>
